<?xml version="1.0" standalone="no"?>
<!DOCTYPE svg PUBLIC "-//W3C//DTD SVG 1.1//EN" "http://www.w3.org/Graphics/SVG/1.1/DTD/svg11.dtd" >
<svg xmlns="http://www.w3.org/2000/svg" xmlns:xlink="http://www.w3.org/1999/xlink" version="1.1">
<metadata>
Created by FontForge 20170731 at Mon May 30 08:46:49 2016
 By Aleksey,,,
Copyright (c) 2015 by Roxane Gataud. All rights reserved.
</metadata>
<defs>
<font id="Bely-Italic" horiz-adv-x="520" >
  <font-face 
    font-family="Bely"
    font-weight="400"
    font-style="italic"
    font-stretch="normal"
    units-per-em="1000"
    panose-1="0 0 5 0 0 0 0 0 0 0"
    ascent="800"
    descent="-200"
    x-height="404"
    cap-height="650"
    bbox="-192 -269 988 1043"
    underline-thickness="50"
    underline-position="-150"
    slope="-10"
    unicode-range="U+0020-FB04"
  />
<missing-glyph horiz-adv-x="200" 
 />
    <glyph glyph-name="ij" unicode="ij" horiz-adv-x="451" 
d="M113 574q0 24 16.5 41.5t39.5 17.5q21 0 35 -16.5t13 -38.5q-2 -22 -18.5 -38t-36.5 -16q-21 0 -35 14.5t-14 35.5zM47 58q0 28 7 62l38 201l-60 29l1 9l141 62l5 -3l-55 -288q-4 -20 -4 -39q0 -23 10.5 -33t33.5 -10q26 0 48 9l5 -13q-24 -22 -54.5 -38t-57.5 -16
q-30 0 -44 16.5t-14 51.5zM329 574q0 24 16.5 41.5t39.5 17.5q21 0 35 -16.5t13 -38.5q-2 -22 -18.5 -38t-36.5 -16q-21 0 -35 14.5t-14 35.5zM112 -197q59 27 89.5 67t44.5 117l59 334l-61 29l2 9l141 62l5 -3l-74 -418q-18 -99 -65 -147.5t-138 -69.5z" />
    <glyph glyph-name="ff" unicode="ff" horiz-adv-x="548" 
d="M663 694l-20 -121h-4l-20 40q-19 38 -33.5 53t-35.5 15q-41 0 -63 -54t-40 -165l-9 -58h123l-8 -45h-122l-50 -311q-11 -71 -24.5 -114t-42 -79.5t-80.5 -71.5l-6 18q29 29 45 76.5t29 130.5l57 351h-184l-50 -311q-25 -154 -68 -221t-107 -67q-42 0 -73 23l20 121h4
l20 -40q18 -38 29.5 -53t24.5 -15q20 0 34.5 38t30.5 132l65 393h-80l3 17l84 28l7 41q21 129 80.5 193t138.5 64q58 0 117 -35q44 50 115 50q39 0 93 -23zM366 404l7 40q16 99 44 162q-36 60 -87 60q-50 0 -85.5 -50.5t-52.5 -153.5l-9 -58h183z" />
    <glyph glyph-name="fi" unicode="fi" horiz-adv-x="499" 
d="M475 44q-24 -22 -54.5 -38t-57.5 -16q-30 0 -44 16.5t-14 51.5q0 28 7 62l45 239h-182l-50 -311q-25 -154 -68 -221t-107 -67q-42 0 -73 23l20 121h4l20 -40q18 -38 29.5 -53t24.5 -15q20 0 34.5 38t30.5 132l64 393h-80l3 17l84 28l7 40q24 144 78.5 208.5t146.5 64.5
q69 0 121 -23l-27 -158h-4l-33 66q-22 45 -39.5 62t-42.5 17q-43 0 -76 -54.5t-50 -164.5l-9 -58h251l-52 -274q-4 -20 -4 -39q0 -23 10.5 -33t33.5 -10q26 0 48 9z" />
    <glyph glyph-name="fl" unicode="fl" horiz-adv-x="526" 
d="M488 57l5 -13q-25 -22 -56 -38t-58 -16q-29 0 -42 15.5t-13 51.5q0 26 6 63l89 510q-17 25 -37 38t-45 13q-52 0 -89 -50.5t-54 -153.5l-12 -73h110l-8 -45h-109l-50 -311q-25 -154 -68 -221t-107 -67q-42 0 -73 23l20 121h4l20 -40q18 -38 29.5 -53t24.5 -15
q20 0 34.5 38t30.5 132l64 393h-79l3 17l84 28l9 56q21 129 82 193t142 64q47 0 95 -23l59 26l5 -3l-104 -587q-4 -21 -4 -39q0 -23 10 -33t34 -10q25 0 48 9z" />
    <glyph glyph-name="ffi" unicode="ffi" horiz-adv-x="754" 
d="M730 44q-24 -22 -54.5 -38t-57.5 -16q-30 0 -44 16.5t-14 51.5q0 28 7 62l45 239h-181l-50 -311q-11 -71 -24.5 -114t-42 -79.5t-80.5 -71.5l-6 18q29 29 45 76.5t29 130.5l57 351h-184l-50 -311q-25 -154 -68 -221t-107 -67q-42 0 -73 23l20 121h4l20 -40
q18 -38 29.5 -53t24.5 -15q20 0 34.5 38t30.5 132l65 393h-80l3 17l84 28l7 41q21 129 80.5 193t138.5 64q61 0 121 -38q52 53 134 53q76 0 126 -23l-27 -158h-4l-33 66q-22 44 -41 61.5t-46 17.5q-41 0 -72 -54.5t-49 -164.5l-9 -58h251l-52 -274q-4 -20 -4 -39
q0 -23 10.5 -33t33.5 -10q26 0 48 9zM366 404l7 40q17 100 46 160q-18 30 -39.5 46t-49.5 16q-50 0 -85.5 -50.5t-52.5 -153.5l-9 -58h183z" />
    <glyph glyph-name="ffl" unicode="ffl" horiz-adv-x="793" 
d="M756 57l5 -13q-25 -22 -56 -38t-58 -16q-29 0 -42 15.5t-13 51.5q0 26 6 63l88 505q-17 28 -37.5 42t-47.5 14q-54 0 -92.5 -50.5t-55.5 -153.5l-12 -73h119l-8 -45h-118l-49 -311q-11 -71 -24.5 -114t-42 -79.5t-80.5 -71.5l-6 18q29 29 45 76.5t29 130.5l57 351h-188
l-50 -311q-25 -154 -68 -221t-107 -67q-42 0 -73 23l20 121h4l20 -40q18 -38 29.5 -53t24.5 -15q20 0 34.5 38t30.5 132l65 393h-80l3 17l84 28l7 41q21 129 80.5 193t138.5 64q66 0 130 -44q58 59 141 59q49 0 97 -24l61 27l5 -3l-104 -587q-4 -21 -4 -39q0 -23 10 -33
t34 -10q25 0 48 9zM371 404l9 56q13 78 43 137q-19 34 -41 51.5t-52 17.5q-50 0 -85.5 -50.5t-52.5 -153.5l-9 -58h188z" />
    <glyph glyph-name="f_b" unicode="fb" horiz-adv-x="721" 
d="M681 280q0 -75 -30 -142t-82 -107.5t-113 -40.5q-46 0 -85 22l-59 -22h-5l112 640q-17 25 -37 38t-45 13q-52 0 -89 -50.5t-54 -153.5l-12 -73h110l-8 -45h-109l-50 -311q-25 -154 -68 -221t-107 -67q-42 0 -73 23l20 121h4l20 -40q18 -38 29.5 -53t24.5 -15
q20 0 34.5 38t30.5 132l64 393h-79l3 17l84 28l9 56q21 129 82 193t142 64q47 0 95 -23l59 26l5 -3l-14 -76l-54 -311q33 41 74 65.5t77 24.5q44 0 69 -36t25 -104zM603 268q0 50 -15.5 72.5t-46.5 22.5q-22 0 -51 -16t-59 -43l-41 -236q32 -42 73 -42q36 0 68.5 33t52 88.5
t19.5 120.5z" />
    <glyph glyph-name="f_f_b" unicode="ffb" horiz-adv-x="989" 
d="M949 280q0 -75 -30 -142t-82 -107.5t-113 -40.5q-46 0 -85 22l-59 -22h-5l111 636q-17 27 -37.5 41t-47.5 14q-54 0 -92.5 -50.5t-55.5 -153.5l-12 -73h119l-8 -45h-118l-49 -311q-11 -71 -24.5 -114t-42 -79.5t-80.5 -71.5l-6 18q29 29 45 76.5t29 130.5l57 351h-188
l-50 -311q-25 -154 -68 -221t-107 -67q-42 0 -73 23l20 121h4l20 -40q18 -38 29.5 -53t24.5 -15q20 0 34.5 38t30.5 132l65 393h-80l3 17l84 28l7 41q21 129 80.5 193t138.5 64q65 0 130 -44q60 59 141 59q49 0 97 -24l61 27l5 -3q-36 -211 -68 -386q33 40 74 64.5t77 24.5
q44 0 69 -36t25 -104zM371 404l9 56q13 79 43 136q-18 34 -40.5 52t-52.5 18q-50 0 -85.5 -50.5t-52.5 -153.5l-9 -58h188zM871 268q0 50 -15.5 72.5t-46.5 22.5q-22 0 -51 -16t-58 -43l-42 -236q32 -42 73 -42q36 0 68.5 33t52 88.5t19.5 120.5z" />
    <glyph glyph-name="f_f_h" unicode="ffh" horiz-adv-x="1008" 
d="M984 44q-26 -22 -57 -38t-57 -16q-30 0 -44.5 16t-14.5 51q0 30 8 63l34 161q4 19 4 38q0 22 -9 33t-31 11q-53 0 -117 -57l-54 -306h-68l108 626q-17 27 -37.5 41t-47.5 14q-54 0 -92.5 -50.5t-55.5 -153.5l-12 -73h119l-8 -45h-118l-49 -311q-11 -71 -24.5 -114
t-42 -79.5t-80.5 -71.5l-6 18q29 29 44 75.5t29 128.5l58 354h-188l-50 -311q-25 -154 -68 -221t-107 -67q-42 0 -73 23l20 121h4l20 -40q18 -38 29.5 -53t24.5 -15q20 0 34.5 38t30.5 132l65 393h-80l3 17l84 28l7 41q21 129 80.5 193t138.5 64q66 0 130 -44q58 59 141 59
q49 0 97 -24l61 27l5 -3l-68 -385q80 88 151 88q35 0 55.5 -21t20.5 -61q0 -19 -4 -36l-38 -178q-5 -22 -5 -34q0 -23 12 -32.5t35 -9.5q24 0 48 9zM371 404l9 56q13 79 43 136q-19 35 -41 52.5t-52 17.5q-50 0 -85.5 -50.5t-52.5 -153.5l-9 -58h188z" />
    <glyph glyph-name="f_f_j" unicode="ffj" horiz-adv-x="742" 
d="M438 404h256l-75 -404q-18 -100 -65 -148t-138 -69l-3 20q60 27 90.5 67t43.5 117l70 372h-186l-50 -311q-11 -71 -24.5 -114t-42 -79.5t-80.5 -71.5l-6 18q29 29 45 76.5t29 130.5l57 351h-184l-50 -311q-25 -154 -68 -221t-107 -67q-42 0 -73 23l20 121h4l20 -40
q18 -38 29.5 -53t24.5 -15q20 0 34.5 38t30.5 132l65 393h-80l3 17l84 28l7 41q21 129 80.5 193t138.5 64q63 0 122 -39q51 54 133 54q76 0 126 -23l-27 -158h-4l-33 66q-22 44 -41 61.5t-46 17.5q-41 0 -72 -54.5t-49 -164.5zM366 404l7 40q17 101 46 159q-18 31 -39.5 47
t-49.5 16q-50 0 -85.5 -50.5t-52.5 -153.5l-9 -58h183z" />
    <glyph glyph-name="f_f_k" unicode="ffk" horiz-adv-x="966" 
d="M772 717l-126 -717h-68l108 625q-17 28 -37.5 42t-47.5 14q-54 0 -92.5 -50.5t-55.5 -153.5l-12 -73h119l-8 -45h-118l-49 -311q-11 -71 -24.5 -114t-42 -79.5t-80.5 -71.5l-6 18q29 29 45 76.5t29 130.5l57 351h-188l-50 -311q-25 -154 -68 -221t-107 -67q-42 0 -73 23
l20 121h4l20 -40q18 -38 29.5 -53t24.5 -15q20 0 34.5 38t30.5 132l65 393h-80l3 17l84 28l7 41q21 129 80.5 193t138.5 64q66 0 130 -44q58 59 141 59q49 0 97 -24l61 27zM371 404l9 56q13 79 43 136q-19 35 -41 52.5t-52 17.5q-50 0 -85.5 -50.5t-52.5 -153.5l-9 -58h188z
M972 407l-202 -144l28 -81q18 -54 31 -82t27.5 -40.5t35.5 -12.5q19 0 46 10l9 -13q-31 -27 -52 -40.5t-45 -13.5q-39 0 -62 32t-51 111l-38 105l150 119l-47 48l1 5h169v-3z" />
    <glyph glyph-name="f_f_t" unicode="fft" horiz-adv-x="822" 
d="M451 462l-9 -58h97l-8 -45h-96l-50 -311q-11 -71 -24.5 -114t-42 -79.5t-80.5 -71.5l-6 18q29 29 45 76.5t29 130.5l57 351h-188l-50 -311q-25 -154 -68 -221t-107 -67q-42 0 -73 23l20 121h4l20 -40q18 -38 29.5 -53t24.5 -15q20 0 34.5 38t30.5 132l65 393h-80l3 17
l84 28l7 41q21 129 80.5 193t138.5 64q60 0 119 -37q45 52 117 52q39 0 93 -23l-20 -121h-4l-20 40q-19 38 -33.5 53t-35.5 15q-41 0 -63 -54t-40 -165zM370 404l7 40q16 100 43 159q-18 31 -39.5 47t-50.5 16q-50 0 -85.5 -50.5t-52.5 -153.5l-9 -58h187zM668 149
q-6 -36 -6 -56q0 -25 9 -34t31 -9q33 0 87 24l5 -13q-37 -32 -77.5 -51.5t-75.5 -19.5q-30 0 -42.5 15.5t-12.5 47.5q0 27 6 61l43 245h-60l3 17l65 28l78 131h15l-23 -131h110l-8 -45h-110z" />
    <glyph glyph-name="f_h" unicode="fh" horiz-adv-x="743" 
d="M719 44q-25 -22 -56 -38t-58 -16q-59 0 -59 68q0 22 8 62l34 161q5 25 5 39q0 43 -41 43q-51 0 -121 -60l-53 -303h-69l110 630q-17 25 -37 38t-45 13q-52 0 -89 -50.5t-54 -153.5l-12 -73h110l-8 -45h-109l-50 -311q-25 -154 -68 -221t-107 -67q-42 0 -73 23l20 121h4
l20 -40q18 -38 29.5 -53t24.5 -15q20 0 34.5 38t30.5 132l64 393h-79l3 17l84 28l9 56q21 129 82 193t142 64q47 0 95 -23l59 26l5 -3l-68 -390q80 93 154 93q35 0 55.5 -20.5t20.5 -59.5q0 -19 -4 -38l-38 -178q-4 -17 -4 -33q0 -24 12 -33.5t34 -9.5q25 0 48 9z" />
    <glyph glyph-name="f_iacute" unicode="f&#xed;" horiz-adv-x="500" 
d="M470 57l5 -13q-24 -22 -54.5 -38t-57.5 -16q-30 0 -44 16.5t-14 51.5q0 28 7 62l45 239h-182l-50 -311q-25 -154 -68 -221t-107 -67q-42 0 -73 23l20 121h4l20 -40q18 -38 29.5 -53t24.5 -15q20 0 34.5 38t30.5 132l64 393h-80l3 17l84 28l7 40q25 149 73 211t124 62
q39 0 93 -23l-20 -121h-4l-20 40q-19 37 -33.5 52.5t-34.5 15.5q-42 0 -64 -54t-40 -165l-9 -58h251l-52 -274q-4 -20 -4 -39q0 -23 10.5 -33t33.5 -10q26 0 48 9zM565 666v-5l-135 -179h-30l68 184h97z" />
    <glyph glyph-name="f_j" unicode="fj" horiz-adv-x="487" 
d="M183 404h256l-75 -404q-18 -100 -65 -148t-138 -69l-3 20q60 27 90.5 67t43.5 117l70 372h-187l-50 -311q-25 -154 -68 -221t-107 -67q-42 0 -73 23l20 121h4l20 -40q18 -38 29.5 -53t24.5 -15q20 0 34.5 38t30.5 132l64 393h-80l3 17l84 28l7 40q24 144 78.5 208.5
t146.5 64.5q69 0 121 -23l-27 -158h-4l-33 66q-22 45 -39.5 62t-42.5 17q-43 0 -76 -54.5t-50 -164.5z" />
    <glyph glyph-name="f_k" unicode="fk" horiz-adv-x="708" 
d="M504 717l-127 -717h-68l110 630q-17 25 -37 38t-45 13q-52 0 -89 -50.5t-54 -153.5l-12 -73h110l-8 -45h-109l-50 -311q-25 -154 -68 -221t-107 -67q-42 0 -73 23l20 121h4l20 -40q18 -38 29.5 -53t24.5 -15q20 0 34.5 38t30.5 132l64 393h-79l3 17l84 28l9 56
q21 129 82 193t142 64q47 0 95 -23l59 26zM714 407l-202 -144l28 -81q18 -54 31 -82t27.5 -40.5t35.5 -12.5q19 0 46 10l9 -13q-31 -27 -52 -40.5t-45 -13.5q-39 0 -62 32t-51 111l-38 105l150 119l-47 48l1 5h169v-3z" />
    <glyph glyph-name="f_t" unicode="ft" horiz-adv-x="561" 
d="M192 462l-9 -58h103l-8 -45h-103l-50 -311q-25 -154 -68 -221t-107 -67q-42 0 -73 23l20 121h4l20 -40q18 -38 29.5 -53t24.5 -15q20 0 34.5 38t30.5 132l64 393h-80l3 17l84 28l7 40q24 148 74 210.5t128 62.5q39 0 93 -23l-20 -121h-4l-20 40q-19 37 -33.5 52.5
t-34.5 15.5q-44 0 -67.5 -54.5t-41.5 -164.5zM406 149q-6 -36 -6 -56q0 -25 9 -34t31 -9q33 0 87 24l5 -13q-37 -32 -77.5 -51.5t-75.5 -19.5q-30 0 -42.5 15.5t-12.5 47.5q0 27 6 61l43 245h-60l3 17l65 28l78 131h15l-23 -131h110l-8 -45h-110z" />
    <glyph glyph-name="t_t" unicode="tt" horiz-adv-x="553" 
d="M398 149q-6 -36 -6 -56q0 -25 9 -34t31 -9q33 0 87 24l5 -13q-37 -32 -77.5 -51.5t-75.5 -19.5q-30 0 -42.5 15.5t-12.5 47.5q0 27 6 61l43 245h-60h-140l-37 -210q-6 -36 -6 -56q0 -25 9 -34t31 -9q33 0 87 24l5 -13q-37 -32 -77.5 -51.5t-75.5 -19.5q-30 0 -42.5 15.5
t-12.5 47.5q0 27 6 61l43 245h-60l3 17l65 28l78 131h15l-23 -131h200l78 131h15l-23 -131h110l-8 -45h-110z" />
    <glyph glyph-name=".notdef" horiz-adv-x="200" 
 />
    <glyph glyph-name=".null" horiz-adv-x="0" 
 />
    <glyph glyph-name="nonmarkingreturn" horiz-adv-x="333" 
 />
    <glyph glyph-name="space" unicode=" " horiz-adv-x="160" 
 />
    <glyph glyph-name="exclam" unicode="!" horiz-adv-x="256" 
d="M146 650h99l-115 -468h-34zM37 33q0 26 18.5 47.5t44.5 21.5q20 0 32.5 -13.5t12.5 -33.5q0 -27 -18.5 -48.5t-44.5 -21.5q-20 0 -32.5 13.5t-12.5 34.5z" />
    <glyph glyph-name="quotedbl" unicode="&#x22;" horiz-adv-x="280" 
d="M119 717h80l-58 -212h-40zM251 717h80l-58 -212h-40z" />
    <glyph glyph-name="numbersign" unicode="#" horiz-adv-x="516" 
d="M399 338l-36 -110h116l-16 -50h-117l-58 -178h-45l58 178h-127l-58 -178h-45l58 178h-103l15 50h105l36 110h-107l15 50h108l51 155h45l-51 -155h127l51 155h45l-51 -155h114l-17 -50h-113zM354 338h-127l-36 -110h127z" />
    <glyph glyph-name="dollar" unicode="$" horiz-adv-x="371" 
d="M351 468l-21 -119h-7l-31 74q-21 21 -48 28l-31 -174l8 -6q49 -37 74 -69.5t25 -70.5q2 -58 -42.5 -98t-115.5 -44l-10 -59h-37l11 60q-67 4 -125 36l23 125h7l34 -79q28 -36 67 -43l34 189l-18 14q-46 35 -67 67t-21 67q0 32 18 59.5t53 45.5t83 20l8 46h37l-8 -47
q46 -4 100 -22zM181 303l27 152q-35 -1 -56.5 -20.5t-21.5 -49.5q0 -22 13 -41.5t38 -40.5zM198 192l-29 -166q37 3 59.5 23.5t22.5 54.5q0 24 -12 43.5t-41 44.5z" />
    <glyph glyph-name="percent" unicode="%" horiz-adv-x="535" 
d="M59 352q0 34 17.5 66t47 52t64.5 20q44 0 68.5 -23.5t24.5 -63.5q0 -33 -18 -65t-48 -52t-66 -20q-41 0 -65.5 23.5t-24.5 62.5zM412 480h57l-330 -480h-57zM224 406q0 57 -40 57q-27 0 -47.5 -33.5t-20.5 -81.5q0 -55 39 -55q27 0 48 33t21 80zM268 72q0 34 17.5 66
t47 52t64.5 20q44 0 68.5 -23.5t24.5 -63.5q0 -33 -18 -65t-48 -52t-66 -20q-41 0 -65.5 23.5t-24.5 62.5zM433 126q0 57 -40 57q-27 0 -47.5 -33.5t-20.5 -81.5q0 -55 39 -55q27 0 48 33t21 80z" />
    <glyph glyph-name="ampersand" unicode="&#x26;" horiz-adv-x="695" 
d="M585 287q-38 -114 -104 -190q61 -53 113 -53q29 0 55 8l5 -13q-50 -54 -108 -54q-60 0 -124 56q-75 -56 -160 -56q-94 0 -147 47.5t-53 128.5q0 74 45.5 135t119.5 89q-10 52 -10 88q0 65 22 108.5t56 63.5t68 20q52 0 80 -29t28 -68q0 -53 -44.5 -99t-121.5 -79
q22 -72 61.5 -142.5t86.5 -121.5q59 68 89 166l-57 48l1 5h177v-3zM284 516q0 -45 14 -101q54 30 83 70t29 80q0 30 -15.5 47.5t-38.5 17.5q-31 0 -51.5 -31t-20.5 -83zM274 27q59 0 118 42q-52 55 -94.5 132.5t-63.5 155.5q-44 -30 -69 -77t-25 -101q0 -75 38 -113.5
t96 -38.5z" />
    <glyph glyph-name="quotesingle" unicode="'" horiz-adv-x="148" 
d="M119 717h80l-58 -212h-40z" />
    <glyph glyph-name="parenleft" unicode="(" horiz-adv-x="357" 
d="M78 136q0 98 35 201t102 197t159 164l31 -26q-135 -119 -191.5 -268.5t-56.5 -298.5q0 -84 22 -163t72 -146l-41 -26q-65 71 -98.5 167.5t-33.5 198.5z" />
    <glyph glyph-name="parenright" unicode=")" horiz-adv-x="356" 
d="M-31 -204q135 119 191.5 268.5t56.5 298.5q0 84 -22 163t-72 146l41 26q65 -71 98.5 -167.5t33.5 -198.5q0 -98 -35 -201t-102 -197t-159 -164z" />
    <glyph glyph-name="asterisk" unicode="*" horiz-adv-x="315" 
d="M259 577l95 -44l-36 -49l-78 68l-6 -112h-57l34 112l-102 -68l-20 49l111 44l-95 44l36 49l78 -68l6 112h57l-34 -112l102 68l20 -49z" />
    <glyph glyph-name="plus" unicode="+" horiz-adv-x="560" 
d="M477 181h-172l-31 -176h-55l31 176h-173l9 52h173l30 172h55l-30 -172h172z" />
    <glyph glyph-name="comma" unicode="," horiz-adv-x="190" 
d="M124 42q0 -58 -38.5 -107t-109.5 -80l-9 24q35 17 58.5 46.5t27.5 60.5q-18 3 -29.5 17t-11.5 32q0 26 17.5 46.5t42.5 20.5q24 0 38 -16t14 -44z" />
    <glyph glyph-name="hyphen" unicode="-" horiz-adv-x="325" 
d="M38 239h244l-11 -65h-245z" />
    <glyph glyph-name="period" unicode="." horiz-adv-x="181" 
d="M12 33q0 26 18.5 47.5t44.5 21.5q20 0 32.5 -13.5t12.5 -33.5q0 -27 -18.5 -48.5t-44.5 -21.5q-20 0 -32.5 13.5t-12.5 34.5z" />
    <glyph glyph-name="slash" unicode="/" horiz-adv-x="287" 
d="M321 719h54l-406 -913h-54z" />
    <glyph glyph-name="zero" unicode="0" horiz-adv-x="507" 
d="M23 166q0 71 32.5 147t94.5 126.5t145 50.5q87 0 135 -50.5t48 -133.5q0 -71 -31.5 -145.5t-93 -125t-146.5 -50.5q-87 0 -135.5 50t-48.5 131zM397 311q0 65 -29 102t-80 37q-52 0 -94.5 -43t-66.5 -110.5t-24 -135.5q0 -64 28 -100t78 -36q53 0 96 42.5t67.5 109.5
t24.5 134z" />
    <glyph glyph-name="one" unicode="1" horiz-adv-x="349" 
d="M14 45h95l6 5l66 380l-4 5h-96l8 45h173l-75 -430l4 -5h95l-8 -45h-272z" />
    <glyph glyph-name="two" unicode="2" horiz-adv-x="443" 
d="M388 125l-22 -125h-357l5 29l99 85q110 95 150.5 150t40.5 102q0 38 -19.5 61t-53.5 23q-30 0 -56 -20t-59 -64l-50 -68h-5l25 150q81 42 151 42q71 0 109.5 -34.5t38.5 -88.5q0 -40 -22 -77.5t-67 -79t-124 -100.5l-67 -50h221l6 5l11 60h45z" />
    <glyph glyph-name="three" unicode="3" horiz-adv-x="441" 
d="M385 70q0 -51 -29 -96t-80 -72t-112 -27q-85 0 -167 51l34 143h5l15 -49q15 -50 46.5 -77t77.5 -27q58 0 93.5 40t35.5 106q0 60 -32.5 90.5t-96.5 30.5h-55l7 40h35q65 0 106.5 39.5t41.5 98.5q0 40 -20.5 64.5t-55.5 24.5q-27 0 -50 -17t-52 -56l-59 -79h-5l25 150
q41 21 75.5 31.5t73.5 10.5q71 0 110 -34.5t39 -87.5q0 -47 -33.5 -86t-100.5 -66q62 -15 95 -54t33 -92z" />
    <glyph glyph-name="four" unicode="4" horiz-adv-x="495" 
d="M463 98l-1 -10l-23 -47h-122l-18 -101l4 -5h81l-8 -45h-248l8 45h90l6 5l18 101h-256l4 24l362 415h33l-66 -382h136zM259 98l46 261l-229 -261h183z" />
    <glyph glyph-name="five" unicode="5" horiz-adv-x="431" 
d="M152 410l-46 -184q61 27 116 27q75 0 118 -44t43 -114q0 -58 -30.5 -108.5t-83.5 -81t-117 -30.5q-47 0 -90.5 15.5t-74.5 40.5l33 138h5l15 -49q15 -51 46.5 -77.5t72.5 -26.5q39 0 72 22t52 59.5t19 81.5q0 59 -33 92.5t-91 33.5q-28 0 -53.5 -7t-57.5 -20l-14 12
l71 290h224l76 85h5l-37 -155h-240z" />
    <glyph glyph-name="six" unicode="6" horiz-adv-x="477" 
d="M440 234q0 -60 -29.5 -118t-81 -94.5t-115.5 -36.5q-77 0 -126.5 54.5t-49.5 153.5q0 104 52 202t145.5 167t211.5 88l6 -34q-114 -23 -201.5 -107t-118.5 -203q39 42 78 63.5t85 21.5q67 0 105.5 -43.5t38.5 -113.5zM358 220q0 56 -25 87t-71 31q-37 0 -72 -18.5
t-64 -47.5q-7 -35 -7 -78q0 -81 27 -125t75 -44q38 0 69.5 27.5t49.5 72.5t18 95z" />
    <glyph glyph-name="seven" unicode="7" horiz-adv-x="441" 
d="M139 -119l-74 42l327 487h-258l-72 -79h-3l26 149h386z" />
    <glyph glyph-name="eight" unicode="8" horiz-adv-x="464" 
d="M331 332q49 -51 70.5 -88t21.5 -79q0 -48 -26 -89.5t-73 -66t-105 -24.5q-52 0 -95 20.5t-67.5 57.5t-24.5 85q0 66 46.5 119t124.5 81q-39 39 -60.5 77t-21.5 79q0 43 22.5 80t63 59t91.5 22q66 0 108.5 -35.5t42.5 -94.5q0 -52 -38 -96t-110 -76zM192 532
q0 -32 18 -63.5t53 -67.5l19 -20q42 26 68 65t26 84t-26 70t-65 25q-41 0 -67 -26t-26 -67zM344 146q0 31 -14.5 60t-51.5 66l-54 54q-52 -29 -79.5 -73t-27.5 -100q0 -60 30.5 -94t80.5 -34q52 0 84 34.5t32 86.5z" />
    <glyph glyph-name="nine" unicode="9" horiz-adv-x="474" 
d="M437 287q0 -91 -47 -173.5t-139.5 -145t-223.5 -93.5l-5 32q243 79 310 248q-69 -71 -155 -71q-65 0 -102.5 42t-37.5 113q0 64 30 122t83 93.5t118 35.5q80 0 124.5 -57t44.5 -146zM353 238q3 24 3 48q0 84 -25.5 124t-71.5 40q-40 0 -72 -27t-50.5 -72.5t-18.5 -98.5
q0 -58 23.5 -89.5t66.5 -31.5q44 0 82.5 31t62.5 76z" />
    <glyph glyph-name="colon" unicode=":" horiz-adv-x="182" 
d="M69 350q0 26 18.5 47.5t44.5 21.5q20 0 32.5 -13.5t12.5 -33.5q0 -27 -18.5 -48.5t-44.5 -21.5q-20 0 -32.5 13.5t-12.5 34.5zM12 33q0 26 18.5 47.5t44.5 21.5q20 0 32.5 -13.5t12.5 -33.5q0 -27 -18.5 -48.5t-44.5 -21.5q-20 0 -32.5 13.5t-12.5 34.5z" />
    <glyph glyph-name="semicolon" unicode=";" horiz-adv-x="190" 
d="M182 372q0 -27 -18.5 -48.5t-44.5 -21.5q-20 0 -32.5 13.5t-12.5 34.5q0 26 18.5 47.5t44.5 21.5q20 0 32.5 -13.5t12.5 -33.5zM124 42q0 -58 -38.5 -107t-109.5 -80l-9 24q35 17 58.5 46.5t27.5 60.5q-18 3 -29.5 17t-11.5 32q0 26 17.5 46.5t42.5 20.5q24 0 38 -16
t14 -44z" />
    <glyph glyph-name="less" unicode="&#x3c;" horiz-adv-x="561" 
d="M474 363l-296 -155l242 -155l-11 -63l-297 191l10 54l363 191z" />
    <glyph glyph-name="equal" unicode="=" horiz-adv-x="561" 
d="M102 323h420l-9 -52h-420zM69 140h420l-9 -52h-420z" />
    <glyph glyph-name="greater" unicode="&#x3e;" horiz-adv-x="561" 
d="M452 235l-10 -54l-363 -191l11 63l296 155l-242 155l11 63z" />
    <glyph glyph-name="question" unicode="?" horiz-adv-x="422" 
d="M235 305l-43 -123h-34l19 139q71 23 114.5 81.5t43.5 122.5q0 43 -23.5 68.5t-60.5 25.5q-35 0 -66 -24.5t-64 -76.5l-53 65q76 82 185 82q78 0 126.5 -37.5t48.5 -98.5q0 -70 -53 -129t-140 -95zM204 55q0 -27 -18.5 -48.5t-44.5 -21.5q-20 0 -32.5 13.5t-12.5 34.5
q0 26 18.5 47.5t44.5 21.5q20 0 32.5 -13.5t12.5 -33.5z" />
    <glyph glyph-name="at" unicode="@" horiz-adv-x="754" 
d="M427 94v6q-26 -29 -56 -48t-59 -19q-39 0 -57.5 30t-18.5 73q0 65 25 122t67.5 91t91.5 34q35 0 64 -16l46 16h4l-43 -236q-4 -20 -4 -41q0 -40 40 -40t74.5 29t54.5 78.5t20 109.5q0 65 -31.5 119t-88 85.5t-130.5 31.5q-92 0 -164.5 -47.5t-113.5 -131t-41 -187.5
q0 -123 66 -197t188 -74q52 0 101.5 18t89.5 49l27 -31q-48 -39 -111.5 -60.5t-124.5 -21.5q-90 0 -161.5 36t-112.5 106t-41 170q0 107 52 203.5t144 155t206 58.5q84 0 152.5 -34.5t108 -99t39.5 -149.5q0 -63 -30 -123t-82 -97.5t-114 -37.5q-38 0 -57.5 18t-19.5 52z
M429 119l36 209q-23 26 -54 26q-33 0 -59 -31t-40 -78.5t-14 -94.5q0 -33 11.5 -51.5t34.5 -18.5q37 0 85 39z" />
    <glyph glyph-name="A" unicode="A" horiz-adv-x="596" 
d="M584 45l-8 -45h-244l8 45h80l7 5l-35 205h-199l-108 -205l5 -5h80l-8 -45h-207l8 45h60l4 3l329 602h42l113 -601l3 -4h70zM385 295l-40 239h-5l-126 -239h171z" />
    <glyph glyph-name="B" unicode="B" horiz-adv-x="584" 
d="M551 202q0 -59 -37 -105t-104 -71.5t-155 -25.5h-225l8 45h70l6 5l96 540l-83 48l2 12h234q89 0 143 -33t54 -98q0 -56 -38.5 -99t-100.5 -64q59 -18 94.5 -57t35.5 -97zM292 605l-41 -234h65q71 0 112.5 36.5t41.5 96.5q0 53 -35.5 77t-102.5 24h-40zM460 212
q0 61 -42 87.5t-118 26.5h-57l-50 -281h57q102 0 156 45t54 122z" />
    <glyph glyph-name="C" unicode="C" horiz-adv-x="561" 
d="M69 239q0 115 45.5 212.5t129 155.5t193.5 58q68 0 140 -26l-29 -159h-5l-38 103q-33 37 -91 37q-74 0 -131.5 -46.5t-90 -128.5t-32.5 -185q0 -107 43 -165t124 -58q97 0 182 69l20 -25q-54 -49 -108.5 -72.5t-116.5 -23.5q-107 0 -171 63.5t-64 190.5z" />
    <glyph glyph-name="D" unicode="D" horiz-adv-x="691" 
d="M38 45h70l6 5l96 540l-83 48l2 12h252q147 0 219.5 -68.5t72.5 -187.5q0 -112 -52 -202t-148 -141t-222 -51h-221zM259 45q98 0 171 41.5t113 118.5t40 181q0 219 -228 219h-62l-99 -560h65z" />
    <glyph glyph-name="E" unicode="E" horiz-adv-x="566" 
d="M553 650l-27 -166h-5l-55 121h-173l-42 -238h133l6 5l13 75h45l-36 -205h-45l13 75l-4 5h-133l-49 -277h208l107 120h5l-39 -165h-445l8 45h70l6 5l96 540l-83 48l2 12h424z" />
    <glyph glyph-name="F" unicode="F" horiz-adv-x="543" 
d="M583 650l-29 -165h-5l-48 120h-207l-42 -238h151l6 5l15 75h44l-36 -205h-45l13 75l-4 5h-152l-48 -272l4 -5h100l-8 -45h-262l8 45h70l6 5l96 540l-83 48l2 12h454z" />
    <glyph glyph-name="G" unicode="G" horiz-adv-x="685" 
d="M685 306l-8 -45h-74l-7 -5l-39 -219q-94 -52 -199 -52q-131 0 -208 73.5t-77 207.5q0 111 50 202.5t139.5 144t204.5 52.5q55 0 101.5 -11t94.5 -33l-29 -159h-5l-38 103q-30 26 -70.5 40t-83.5 14q-77 0 -139.5 -44t-98 -125.5t-35.5 -188.5q0 -118 51 -174t136 -56
q75 0 131 34l34 191l-4 5h-80l8 45h245z" />
    <glyph glyph-name="H" unicode="H" horiz-adv-x="753" 
d="M783 650l-2 -12l-97 -49l-96 -539l4 -5h70l-8 -45h-230l8 45h70l6 5l48 272h-314l-48 -272l4 -5h70l-8 -45h-230l8 45h70l6 5l96 540l-83 48l2 12h260l-2 -12l-97 -49l-40 -222h314l40 223l-83 48l2 12h260z" />
    <glyph glyph-name="I" unicode="I" horiz-adv-x="359" 
d="M38 45h70l6 5l96 540l-83 48l2 12h260l-2 -12l-97 -49l-96 -539l4 -5h70l-8 -45h-230z" />
    <glyph glyph-name="J" unicode="J" horiz-adv-x="350" 
d="M-38 -152q72 47 108 109t56 177l80 456l-83 48l2 12h260l-2 -12l-97 -49l-87 -495q-14 -77 -38.5 -123.5t-68 -78.5t-121.5 -64z" />
    <glyph glyph-name="K" unicode="K" horiz-adv-x="640" 
d="M38 45h70l6 5l96 540l-83 48l2 12h250l-2 -12l-87 -49l-96 -539l4 -5h70l-8 -45h-230zM379 45h60l6 5l-189 264l266 276l-73 48l2 12h218l-2 -12l-77 -49l-252 -250l203 -289l7 -5h60l-8 -45h-229z" />
    <glyph glyph-name="L" unicode="L" horiz-adv-x="526" 
d="M38 45h70l6 5l96 540l-83 48l2 12h260l-2 -12l-97 -49l-96 -544h198l87 120h10l-29 -165h-430z" />
    <glyph glyph-name="M" unicode="M" horiz-adv-x="912" 
d="M833 589l-61 -539l5 -5h70l-8 -45h-230l8 45h70l5 5l57 496l-331 -546h-24l-137 537l-117 -487l5 -5h70l-8 -45h-196l8 45h70l5 5l131 540l-83 48l2 12h169l130 -524h3l318 524h168l-2 -12z" />
    <glyph glyph-name="N" unicode="N" horiz-adv-x="738" 
d="M774 650l-2 -12l-97 -49l-104 -589h-23l-293 543l-87 -493l4 -5h80l-8 -45h-214l8 45h70l6 5l96 540l-83 48l2 12h160l260 -495l75 435l-83 48l2 12h231z" />
    <glyph glyph-name="O" unicode="O" horiz-adv-x="713" 
d="M69 267q0 104 44 195.5t124 147t182 55.5q73 0 133.5 -34t95.5 -98t35 -149q0 -103 -43.5 -194.5t-123 -148t-182.5 -56.5q-74 0 -134.5 34t-95.5 98t-35 150zM590 376q0 115 -48 179t-133 64q-71 0 -127.5 -46.5t-88 -125t-31.5 -170.5q0 -117 47.5 -181.5t132.5 -64.5
q72 0 128.5 47t88 126t31.5 172z" />
    <glyph glyph-name="P" unicode="P" horiz-adv-x="567" 
d="M230 252l-36 -202l4 -5h100l-8 -45h-260l8 45h70l6 5l96 540l-83 48l2 12h226q111 0 169 -46t58 -120q0 -109 -86 -170.5t-236 -61.5h-30zM292 605l-54 -307q9 -1 32 -1q110 0 166.5 50.5t56.5 130.5q0 127 -164 127h-37z" />
    <glyph glyph-name="Q" unicode="Q" horiz-adv-x="713" 
d="M451 6q109 -91 214 -148l-8 -18l-111 38q-228 78 -317 126q-79 44 -119.5 108t-40.5 155q0 108 44.5 199t124.5 145t181 54q77 0 137 -35.5t93.5 -99.5t33.5 -146t-28 -158t-80.5 -134.5t-123.5 -85.5zM342 31q72 0 128.5 47t88 126t31.5 172q0 115 -47.5 179t-133.5 64
q-71 0 -127.5 -46.5t-88 -125t-31.5 -170.5q0 -117 47 -181.5t133 -64.5z" />
    <glyph glyph-name="R" unicode="R" horiz-adv-x="613" 
d="M583 45l-8 -45h-138l-134 282h-68l-41 -232l4 -5h100l-8 -45h-259l8 45h70l6 5l95 540l-83 48l2 12h216q113 0 172 -39.5t59 -111.5q0 -69 -47.5 -123.5t-139.5 -78.5l112 -247l7 -5h75zM270 327q73 0 122 25.5t72 64.5t23 81q0 56 -43.5 81.5t-124.5 25.5h-27l-49 -277
q8 -1 27 -1z" />
    <glyph glyph-name="S" unicode="S" horiz-adv-x="496" 
d="M45 34l29 159h5l38 -103q26 -30 53 -45t61 -15q57 0 91.5 31t34.5 85q0 41 -23.5 73.5t-92.5 88.5q-63 52 -90.5 96t-27.5 91q0 45 24.5 84t71 62.5t110.5 23.5q68 0 154 -31l-29 -159h-5l-38 103q-18 20 -44.5 31t-57.5 11q-48 0 -78.5 -29t-30.5 -71q0 -37 25.5 -71.5
t76.5 -75.5q68 -54 100.5 -99t32.5 -100q0 -54 -27.5 -97t-76.5 -67.5t-112 -24.5q-47 0 -92 13.5t-82 35.5z" />
    <glyph glyph-name="T" unicode="T" horiz-adv-x="550" 
d="M138 45h70l6 5l98 555h-132l-91 -120h-5l29 165h492l-29 -165h-6l-43 120h-135l-98 -555l4 -5h70l-8 -45h-230z" />
    <glyph glyph-name="U" unicode="U" horiz-adv-x="728" 
d="M131 174q0 35 8 78l60 338l-83 48l2 12h260l-2 -12l-97 -49l-56 -319q-8 -50 -8 -84q0 -148 134 -148q165 0 201 207l60 345l-83 48l2 12h237l-2 -12l-97 -49l-60 -334q-24 -137 -89 -203.5t-181 -66.5q-108 0 -157 50.5t-49 138.5z" />
    <glyph glyph-name="V" unicode="V" horiz-adv-x="611" 
d="M142 590l-83 48l2 12h264l-2 -12l-97 -49l80 -473h5l250 474l-83 48l2 12h236l-2 -12l-97 -49l-322 -589h-42z" />
    <glyph glyph-name="W" unicode="W" horiz-adv-x="853" 
d="M953 650l-2 -12l-97 -49l-272 -589h-39l-65 412l-186 -412h-39l-111 590l-83 48l2 12h261l-2 -12l-97 -49l80 -473h2l161 377l-25 157h82l71 -534h2l202 474l-83 48l2 12h236z" />
    <glyph glyph-name="X" unicode="X" horiz-adv-x="674" 
d="M719 650l-2 -12l-99 -49l-216 -245l134 -293l6 -6h70l-8 -45h-238l8 45h70l5 3l-107 234l-184 -233l3 -4h80l-8 -45h-218l8 45h70l8 6l222 275l-121 264l-83 48l2 12h270l-2 -12l-99 -49l94 -206l178 207l-83 48l2 12h238z" />
    <glyph glyph-name="Y" unicode="Y" horiz-adv-x="556" 
d="M141 45h70l6 5l34 194l-109 346l-83 48l2 12h261l-2 -12l-97 -49l86 -289h5l187 290l-83 48l2 12h236l-2 -12l-101 -49l-218 -325l-38 -214l4 -5h70l-8 -45h-230z" />
    <glyph glyph-name="Z" unicode="Z" horiz-adv-x="543" 
d="M6 13l444 592h-239l-96 -120h-5l29 165h433l-2 -13l-445 -592h270l86 120h5l-29 -165h-453z" />
    <glyph glyph-name="bracketleft" unicode="[" horiz-adv-x="350" 
d="M208 699h200l-8 -45h-130l-148 -839h130l-8 -45h-200z" />
    <glyph glyph-name="backslash" unicode="\" horiz-adv-x="415" 
d="M82 719h54l220 -913h-54z" />
    <glyph glyph-name="bracketright" unicode="]" horiz-adv-x="350" 
d="M-39 -185h130l148 839h-130l8 45h200l-164 -929h-200z" />
    <glyph glyph-name="asciicircum" unicode="^" horiz-adv-x="560" 
d="M302 465h52l123 -330h-60l-100 269l-194 -269h-60z" />
    <glyph glyph-name="underscore" unicode="_" horiz-adv-x="440" 
d="M-17 -25h403l-8 -45h-403z" />
    <glyph glyph-name="grave" unicode="`" horiz-adv-x="192" 
d="M95 659v5h97l41 -184h-30z" />
    <glyph glyph-name="a" unicode="a" horiz-adv-x="441" 
d="M421 44q-25 -22 -56 -38t-58 -16q-29 0 -42 15.5t-13 51.5q0 11 1 18q-34 -39 -72 -62t-72 -23q-44 0 -69 36t-25 104q0 75 30 142t82 107.5t113 40.5q45 0 80 -20l54 20h5l-51 -290q-4 -21 -4 -39q0 -23 10 -33t34 -10q25 0 48 9zM255 97l3 23l40 231q-28 33 -65 33
q-36 0 -68.5 -33t-52 -88.5t-19.5 -120.5q0 -50 14.5 -72.5t42.5 -22.5q45 0 105 50z" />
    <glyph glyph-name="b" unicode="b" horiz-adv-x="444" 
d="M407 280q0 -75 -30 -142t-82 -107.5t-113 -40.5q-48 0 -85 23l-60 -23h-5l110 630l-60 29l2 9l140 62l5 -3l-68 -388q74 91 144 91q48 0 75 -36.5t27 -103.5zM329 268q0 50 -15.5 72.5t-46.5 22.5q-23 0 -52 -16t-59 -44q-19 -113 -41 -234q33 -43 74 -43q36 0 68.5 33
t52 88.5t19.5 120.5z" />
    <glyph glyph-name="c" unicode="c" horiz-adv-x="339" 
d="M22 131q0 70 26 137t74 109.5t110 42.5q52 0 91 -29l-20 -124h-4l-26 53q-17 35 -31.5 49.5t-31.5 14.5q-31 0 -56.5 -34.5t-39.5 -88.5t-14 -108t18 -80.5t60 -26.5q27 0 60 9.5t56 20.5l5 -13q-86 -73 -161 -73q-56 0 -86 38t-30 103z" />
    <glyph glyph-name="d" unicode="d" horiz-adv-x="457" 
d="M426 57l5 -13q-25 -22 -56 -38t-58 -16q-29 0 -42 15.5t-13 51.5q0 17 1 26q-74 -93 -146 -93q-48 0 -75 36.5t-27 103.5q0 75 30 142t82 107.5t113 40.5q39 0 77 -18l38 218l-60 29l2 9l140 62l5 -3l-104 -587q-4 -21 -4 -39q0 -23 10 -33t34 -10q25 0 48 9zM307 341
q-33 43 -74 43q-36 0 -68.5 -33t-52 -88.5t-19.5 -120.5q0 -50 15.5 -72.5t46.5 -22.5q23 0 52 16t59 44l2 13z" />
    <glyph glyph-name="e" unicode="e" horiz-adv-x="344" 
d="M294 76l5 -13q-39 -35 -80.5 -54t-80.5 -19q-55 0 -85.5 36.5t-30.5 106.5q0 75 28 141t77 106t109 40q41 0 65.5 -22t24.5 -57q0 -50 -51.5 -92.5t-174.5 -75.5v-18q0 -58 19.5 -83.5t59.5 -25.5q25 0 57 8.5t58 21.5zM103 209q150 41 150 132q0 20 -9 31.5t-27 11.5
q-23 0 -47 -21.5t-42 -61.5t-25 -92z" />
    <glyph glyph-name="f" unicode="f" horiz-adv-x="298" 
d="M408 694l-20 -121h-4l-20 40q-19 37 -33.5 52.5t-34.5 15.5q-42 0 -64 -54t-40 -165l-9 -58h126l-8 -45h-126l-50 -311q-25 -154 -68 -221t-107 -67q-42 0 -73 23l20 121h4l20 -40q18 -38 29.5 -53t24.5 -15q20 0 34.5 38t30.5 132l64 393h-80l3 17l84 28l7 40
q25 149 73 211t124 62q39 0 93 -23z" />
    <glyph glyph-name="g" unicode="g" horiz-adv-x="423" 
d="M427 337l-85 17q9 -22 9 -52q0 -52 -24 -95.5t-67.5 -69.5t-99.5 -26h-1q-23 -6 -38 -16.5t-15 -24.5q0 -12 12.5 -20t39.5 -18l62 -22q58 -20 84 -41t26 -53q0 -41 -32.5 -74.5t-87.5 -52.5t-120 -19q-75 0 -118.5 24t-43.5 69q0 43 39 77t101 52q-26 18 -26 46
q0 24 22 44.5t57 32.5q-41 10 -63.5 40.5t-22.5 78.5q0 50 24 92.5t68 68t101 25.5q68 0 99 -39l111 47zM273 299q0 34 -14 59.5t-47 25.5q-43 0 -71 -43t-28 -103q0 -91 58 -91q30 0 53.5 22.5t36 58t12.5 71.5zM118 -34q-20 7 -33 15q-88 -42 -88 -105q0 -34 27.5 -51.5
t72.5 -17.5q66 0 116.5 22t50.5 56q0 18 -20 29.5t-81 34.5z" />
    <glyph glyph-name="h" unicode="h" horiz-adv-x="468" 
d="M444 44q-25 -22 -56 -38t-58 -16q-59 0 -59 68q0 22 8 62l34 161q5 25 5 39q0 43 -41 43q-53 0 -121 -60l-54 -303h-69l109 620l-60 29l2 9l140 62l5 -3l-69 -390q82 93 155 93q35 0 55.5 -20.5t20.5 -59.5q0 -19 -4 -38l-38 -178q-4 -17 -4 -33q0 -24 12 -33.5t34 -9.5
q25 0 48 9z" />
    <glyph glyph-name="i" unicode="i" horiz-adv-x="241" 
d="M113 574q0 24 16.5 41.5t39.5 17.5q21 0 35 -16.5t13 -38.5q-2 -22 -18.5 -38t-36.5 -16q-21 0 -35 14.5t-14 35.5zM47 58q0 28 7 62l38 201l-60 29l1 9l141 62l5 -3l-55 -288q-4 -20 -4 -39q0 -23 10.5 -33t33.5 -10q26 0 48 9l5 -13q-24 -22 -54.5 -38t-57.5 -16
q-30 0 -44 16.5t-14 51.5z" />
    <glyph glyph-name="j" unicode="j" horiz-adv-x="231" 
d="M121 574q0 24 16.5 41.5t39.5 17.5q21 0 35 -16.5t13 -38.5q-2 -22 -18.5 -38t-36.5 -16q-21 0 -35 14.5t-14 35.5zM-96 -197q59 27 89.5 67t44.5 117l59 334l-61 29l2 9l141 62l5 -3l-74 -418q-18 -99 -65 -147.5t-138 -69.5z" />
    <glyph glyph-name="k" unicode="k" horiz-adv-x="433" 
d="M228 717l-126 -717h-68l107 620l-60 29l2 9l140 62zM439 407l-202 -144l28 -81q19 -54 32 -82t27.5 -40.5t34.5 -12.5t46 10l9 -13q-29 -26 -51 -40t-46 -14q-39 0 -61.5 31.5t-51.5 111.5l-38 105l150 119l-47 48l1 5h169v-3z" />
    <glyph glyph-name="l" unicode="l" horiz-adv-x="251" 
d="M49 57q0 26 6 63l87 500l-60 29l2 9l140 62l5 -3l-104 -587q-4 -21 -4 -39q0 -23 10 -33t34 -10q25 0 48 9l5 -13q-25 -22 -56 -38t-58 -16q-29 0 -42 15.5t-13 51.5z" />
    <glyph glyph-name="m" unicode="m" horiz-adv-x="685" 
d="M661 44q-25 -22 -56 -38t-58 -16q-59 0 -59 68q0 22 8 62l34 161q4 17 4 34q0 48 -44 48q-24 0 -48.5 -14.5t-59.5 -45.5v-1l-54 -302h-70l49 281q3 20 3 33q0 27 -10.5 38t-31.5 11q-42 0 -108 -63l-53 -300h-70l56 321l-61 29l2 9l138 62l5 -3l-9 -69l-4 -22
q40 46 74 69.5t69 23.5q36 0 58.5 -23.5t19.5 -70.5q40 47 73 70.5t70 23.5q36 0 58 -21.5t22 -61.5q0 -18 -4 -35l-38 -178q-4 -17 -4 -33q0 -24 12 -33.5t34 -9.5q25 0 48 9z" />
    <glyph glyph-name="n" unicode="n" horiz-adv-x="472" 
d="M448 44q-25 -22 -56 -38t-58 -16q-59 0 -59 68q0 22 8 62l34 161q5 25 5 39q0 43 -41 43q-51 0 -121 -60l-53 -303h-70l56 321l-61 29l2 9l138 62l5 -3l-13 -91q82 93 155 93q35 0 55.5 -20.5t20.5 -59.5q0 -19 -4 -38l-38 -178q-4 -17 -4 -33q0 -24 12 -33.5t34 -9.5
q25 0 48 9z" />
    <glyph glyph-name="o" unicode="o" horiz-adv-x="409" 
d="M18 146q0 71 28.5 134t78.5 101.5t110 38.5t98.5 -41.5t38.5 -113.5q0 -70 -28.5 -133.5t-78.5 -102.5t-110 -39q-61 0 -99 42t-38 114zM295 262q0 61 -18.5 91.5t-51.5 30.5q-35 0 -64.5 -31t-47 -85t-17.5 -120q0 -61 18.5 -91.5t51.5 -30.5q35 0 64.5 31t47 85
t17.5 120z" />
    <glyph glyph-name="p" unicode="p" horiz-adv-x="448" 
d="M411 280q0 -75 -30 -142t-82 -107.5t-113 -40.5q-41 0 -77 18l-34 -188l5 -5h75l-8 -45h-215l8 45h60l5 5l88 501l-61 29l2 9l138 62l5 -3l-15 -92q76 94 147 94q48 0 75 -36.5t27 -103.5zM333 268q0 50 -15.5 72.5t-46.5 22.5q-22 0 -51 -16t-59 -43l-42 -235
q33 -43 74 -43q36 0 68.5 33t52 88.5t19.5 120.5z" />
    <glyph glyph-name="q" unicode="q" horiz-adv-x="435" 
d="M291 -185h60l-8 -45h-215l8 45h75l5 5l45 261q-72 -91 -144 -91q-48 0 -75 36.5t-27 103.5q0 75 30 142t82 107.5t113 40.5q46 0 84 -22l62 22h5l-105 -600zM266 107l41 234q-33 43 -74 43q-36 0 -68.5 -33t-52 -88.5t-19.5 -120.5q0 -50 15.5 -72.5t46.5 -22.5
q23 0 52 16t59 44z" />
    <glyph glyph-name="r" unicode="r" horiz-adv-x="305" 
d="M305 417l-14 -90q-13 4 -30 4q-26 0 -50.5 -8t-51.5 -27l-52 -296h-70l56 321l-61 29l2 9l138 62l5 -3l-14 -97q31 43 64 71t62 28q9 0 16 -3z" />
    <glyph glyph-name="s" unicode="s" horiz-adv-x="320" 
d="M4 25l22 113h4l17 -39q17 -39 39.5 -56t54.5 -17q28 0 47 16.5t19 39.5q0 25 -15.5 44t-55.5 50q-14 11 -38 32q-25 24 -35.5 46t-10.5 49q0 51 39 84t96 33q60 0 110 -26l-22 -107h-4l-12 23q-21 40 -41.5 57t-45.5 17t-41.5 -15.5t-16.5 -40.5q0 -20 11.5 -36.5
t32.5 -33.5l19 -15l22 -18q35 -28 52.5 -55.5t17.5 -61.5q0 -50 -40.5 -84t-102.5 -34q-30 0 -62.5 9t-59.5 26z" />
    <glyph glyph-name="t" unicode="t" horiz-adv-x="284" 
d="M47 53q0 27 6 61l43 245h-60l3 17l65 28l78 131h15l-23 -131h110l-8 -45h-110l-37 -210q-6 -36 -6 -56q0 -25 9 -34t31 -9q33 0 87 24l5 -13q-37 -32 -77.5 -51.5t-75.5 -19.5q-30 0 -42.5 15.5t-12.5 47.5z" />
    <glyph glyph-name="u" unicode="u" horiz-adv-x="465" 
d="M441 44q-24 -22 -55 -38t-59 -16q-29 0 -42.5 15.5t-13.5 51.5q0 6 2 26q-82 -93 -150 -93q-34 0 -52.5 20t-18.5 60q0 10 4 38l35 203l-60 29l1 9l141 62l5 -3l-48 -279q-4 -20 -4 -39q0 -21 8 -32t27 -11q48 0 115 59l2 14l35 201l-60 29l1 9l141 62l5 -3l-52 -288
q-4 -20 -4 -39q0 -23 10.5 -33t33.5 -10q26 0 48 9z" />
    <glyph glyph-name="v" unicode="v" horiz-adv-x="408" 
d="M410 404v-3q-45 -121 -113.5 -221.5t-164.5 -189.5h-12l-48 326l-61 29l2 9l115 62l5 -3l41 -331q58 61 102 133t53 130l-53 54l1 5h133z" />
    <glyph glyph-name="w" unicode="w" horiz-adv-x="580" 
d="M582 404v-3q-41 -119 -105 -223.5t-145 -187.5h-12l-30 195q-54 -93 -148 -195h-12l-58 326l-61 29l2 9l112 62l5 -3l51 -332q58 78 99 165l-24 158h72l43 -322q47 64 84.5 139t45.5 124l-53 54l1 5h133z" />
    <glyph glyph-name="x" unicode="x" horiz-adv-x="409" 
d="M423 401q-24 -23 -84 -80t-109 -104l40 -100q15 -38 26 -53.5t30 -15.5q20 0 42 9l5 -13q-29 -27 -50.5 -40.5t-40.5 -13.5t-31 9.5t-21 28t-28 64.5l-33 80l-91 -117l49 -50l-1 -5h-156v3l187 198l-51 126l-61 29l2 9l97 55l5 -3l71 -175l93 108l-50 49l1 5h159v-3z" />
    <glyph glyph-name="y" unicode="y" horiz-adv-x="421" 
d="M423 404v-3q-45 -138 -102 -236t-150 -191l-165 -215l-72 63l199 148l-56 346l-61 29l2 9l119 62l5 -3l48 -376q61 74 100.5 157t51.5 151l-53 54l1 5h133z" />
    <glyph glyph-name="z" unicode="z" horiz-adv-x="367" 
d="M361 388l-277 -323h164l69 69h4l-24 -134h-313l2 10l285 334h-158l-69 -69h-4l23 129h301z" />
    <glyph glyph-name="braceleft" unicode="{" horiz-adv-x="369" 
d="M392 699l-8 -45q-34 0 -52.5 -8t-28 -31t-14.5 -70l-14 -133q-7 -58 -32.5 -103t-78.5 -74q31 -21 44 -51.5t13 -69.5q0 -31 -6.5 -57t-19.5 -66q-13 -41 -19 -66t-6 -55q0 -31 15.5 -43t50.5 -12l-8 -45q-64 0 -93.5 21t-29.5 73q0 35 7 68t21 77q12 43 18 68.5t6 52.5
q0 32 -20 52.5t-65 29.5l8 45q61 11 89 41.5t34 79.5l16 150q8 71 30 108t56.5 50t86.5 13z" />
    <glyph glyph-name="bar" unicode="|" horiz-adv-x="230" 
d="M180 719h54l-168 -949h-54z" />
    <glyph glyph-name="braceright" unicode="}" horiz-adv-x="369" 
d="M309 257l-8 -45q-61 -11 -89 -41.5t-34 -79.5l-16 -150q-8 -71 -30 -108t-56.5 -50t-86.5 -13l8 45q34 0 52.5 8t28 31t14.5 70l14 133q7 58 32.5 103t78.5 74q-31 21 -44 51.5t-13 69.5q0 31 6.5 57t19.5 66q13 41 19 66t6 55q0 31 -15.5 43t-50.5 12l8 45
q64 0 93.5 -21t29.5 -73q0 -35 -7 -68t-21 -77q-12 -43 -18 -68.5t-6 -52.5q0 -32 20 -52.5t65 -29.5z" />
    <glyph glyph-name="asciitilde" unicode="~" horiz-adv-x="561" 
d="M264 184q-24 11 -39.5 16.5t-29.5 5.5q-26 0 -46 -12t-46 -38l-37 29q32 38 60.5 56t69.5 18q23 0 45 -7.5t50 -20.5q29 -13 45 -18.5t33 -5.5q26 0 46 12t46 38l37 -29q-32 -38 -60.5 -56t-69.5 -18q-24 0 -47 7.5t-57 22.5z" />
    <glyph glyph-name="uni00A0" unicode="&#xa0;" horiz-adv-x="160" 
 />
    <glyph glyph-name="exclamdown" unicode="&#xa1;" horiz-adv-x="222" 
d="M64 355q0 27 18.5 48.5t44.5 21.5q20 0 32.5 -13.5t12.5 -34.5q0 -26 -18.5 -47.5t-44.5 -21.5q-20 0 -32.5 13.5t-12.5 33.5zM79 228h34l-50 -468h-99z" />
    <glyph glyph-name="cent" unicode="&#xa2;" horiz-adv-x="288" 
d="M226 338l-93 -222q13 -5 31 -5q21 0 45 6t42 15l6 -12q-66 -54 -131 -54q-10 0 -14 1l-25 -60h-34l28 67q-55 23 -55 104q0 51 22 99.5t61 79t89 30.5q10 0 15 -1l25 60h33l-28 -66q14 -5 31 -14l-15 -98h-5l-23 62zM109 139l91 217q-8 2 -13 2q-27 0 -48 -24.5
t-31.5 -63.5t-9.5 -78q0 -33 11 -53z" />
    <glyph glyph-name="sterling" unicode="&#xa3;" horiz-adv-x="402" 
d="M364 128h9l-25 -128h-348l4 38h45q41 28 61 61.5t20 65.5q0 17 -7 38h-75l6 37h51q-3 5 -15.5 25.5t-19 41t-6.5 40.5q0 41 24 74t65.5 51.5t92.5 18.5q63 0 135 -31l-22 -125h-6l-12 28q-19 44 -44.5 66t-61.5 22q-41 0 -66 -26t-25 -70q0 -23 6 -42.5t18 -47.5
q2 -5 4.5 -11t5.5 -14h119l-6 -37h-103q2 -16 2 -24q0 -41 -22 -76.5t-62 -64.5h185z" />
    <glyph glyph-name="currency" unicode="&#xa4;" horiz-adv-x="500" 
d="M436 348q0 -32 -12 -63.5t-34 -56.5l46 -61l-44 -38l-46 60q-44 -28 -92 -28q-49 0 -87 33l-73 -65l-29 39l71 64q-17 31 -17 67q0 33 12.5 64.5t34.5 57.5l-46 61l43 38l47 -61q43 27 91 27q49 0 86 -32l76 67l29 -39l-74 -66q18 -30 18 -68zM396 341q0 45 -28 76.5
t-73 31.5q-37 0 -68 -20.5t-49.5 -54t-18.5 -68.5q0 -45 28 -76.5t73 -31.5q37 0 68 20.5t49.5 54t18.5 68.5z" />
    <glyph glyph-name="yen" unicode="&#xa5;" horiz-adv-x="441" 
d="M492 480l-2 -9l-74 -39l-104 -138h77l-8 -36h-96l-17 -22l-7 -38h110l-6 -36h-110l-22 -121l4 -3h56l-7 -38h-192l7 38h57l3 3l22 121h-117l6 36h117l6 32l-12 28h-101l7 36h79l-60 139l-62 38l2 9h208l-1 -9l-72 -39l67 -159h4l115 160l-61 38l2 9h182z" />
    <glyph glyph-name="brokenbar" unicode="&#xa6;" horiz-adv-x="230" 
d="M180 720h54l-75 -424h-54zM88 195h54l-75 -425h-54z" />
    <glyph glyph-name="section" unicode="&#xa7;" horiz-adv-x="494" 
d="M235 540q0 -29 17 -55.5t50 -58.5l46 -43q50 -46 72.5 -83.5t22.5 -80.5q0 -42 -24.5 -84.5t-67.5 -77.5q19 -35 19 -77q0 -40 -21.5 -74t-61.5 -54.5t-94 -20.5q-62 0 -140 29l29 159h5l38 -103q17 -18 39 -29t45 -11q37 0 60.5 22t23.5 58q0 29 -17 55.5t-50 58.5
l-46 43q-50 46 -72.5 83.5t-22.5 80.5q0 42 24.5 84.5t67.5 77.5q-19 35 -19 77q0 40 21.5 74t61.5 54.5t94 20.5q62 0 140 -29l-29 -159h-5l-38 103q-17 18 -39 29t-45 11q-37 0 -60.5 -22t-23.5 -58zM199 406q-51 -41 -51 -94q0 -32 19 -60.5t69 -71.5l44 -39
q29 -24 49 -51q51 41 51 94q0 32 -19 60.5t-69 71.5l-44 39q-29 24 -49 51z" />
    <glyph glyph-name="dieresis" unicode="&#xa8;" horiz-adv-x="269" 
d="M68 574q0 24 16.5 41.5t39.5 17.5q21 0 35 -16.5t13 -38.5q-2 -22 -18.5 -38t-36.5 -16q-21 0 -35 14.5t-14 35.5zM231 574q0 24 16.5 41.5t39.5 17.5q21 0 35 -16.5t13 -38.5q-2 -22 -18.5 -38t-36.5 -16q-21 0 -35 14.5t-14 35.5z" />
    <glyph glyph-name="copyright" unicode="&#xa9;" horiz-adv-x="778" 
d="M70 280q0 102 55 187t144 134t188 49q85 0 151.5 -36t104 -99.5t37.5 -144.5q0 -101 -55 -186t-144 -134.5t-188 -49.5q-84 0 -151 36t-104.5 99.5t-37.5 144.5zM690 366q0 68 -30.5 121.5t-85 83t-124.5 29.5q-81 0 -155 -42t-119.5 -114.5t-45.5 -159.5
q0 -68 30.5 -121t85 -83t124.5 -30q81 0 155 42.5t119.5 115.5t45.5 158zM256 295q0 54 25.5 101.5t72.5 76.5t107 29q39 0 75 -14l-15 -95h-9l-19 41q-9 18 -20 26t-29 8q-32 0 -57.5 -22.5t-40.5 -61.5t-15 -87q0 -52 19 -78t56 -26q44 0 83 34l16 -25q-26 -22 -52 -33
t-60 -11q-62 0 -99.5 37t-37.5 100z" />
    <glyph glyph-name="ordfeminine" unicode="&#xaa;" horiz-adv-x="366" 
d="M396 397q-19 -16 -42 -27.5t-44 -11.5q-23 0 -34 11.5t-11 36.5v13q-25 -28 -53.5 -44.5t-54.5 -16.5q-33 0 -52 26t-20 74q0 55 22.5 103.5t61.5 77.5t85 29q31 0 61 -15l44 16l5 -1l-37 -208q-3 -18 -3 -29q1 -16 8 -22.5t25 -6.5q20 0 34 6zM267 437q0 4 2 14l29 164
q-21 26 -48 26t-50 -23.5t-36.5 -63t-13.5 -84.5q0 -67 42 -67q31 0 75 34z" />
    <glyph glyph-name="guillemotleft" unicode="&#xab;" horiz-adv-x="414" 
d="M30 200l1 5l191 155h35l-143 -158l87 -158h-35zM175 200l1 5l191 155h35l-143 -158l87 -158h-35z" />
    <glyph glyph-name="logicalnot" unicode="&#xac;" horiz-adv-x="551" 
d="M482 233l-42 -233h-55l33 181h-346l10 52h400z" />
    <glyph glyph-name="uni00AD" unicode="&#xad;" horiz-adv-x="325" 
d="M38 239h244l-11 -65h-245z" />
    <glyph glyph-name="registered" unicode="&#xae;" horiz-adv-x="517" 
d="M524 488q0 -61 -30 -112.5t-83.5 -81.5t-120.5 -30q-53 0 -95 23.5t-65.5 63.5t-23.5 90q0 61 30 112.5t83.5 81.5t120.5 30q53 0 95 -23.5t65.5 -63.5t23.5 -90zM481 488q0 61 -41.5 101.5t-105.5 40.5q-56 0 -98 -26t-64.5 -69t-22.5 -94q0 -61 41.5 -101.5
t105.5 -40.5q56 0 98 26t64.5 69t22.5 94zM381 398h23l-3 -18h-50l-49 77h-15l-11 -58l1 -1h26l-3 -18h-90l3 18h25l2 1l26 146l-25 16l1 4h75q37 0 57 -12.5t20 -34.5q0 -20 -14.5 -35.5t-39.5 -21.5l39 -62zM290 475h11q25 0 40.5 12t15.5 31q0 29 -40 29h-14z" />
    <glyph glyph-name="macron" unicode="&#xaf;" horiz-adv-x="259" 
d="M81 596h237l-9 -50h-237z" />
    <glyph glyph-name="degree" unicode="&#xb0;" horiz-adv-x="270" 
d="M81 534q0 33 15.5 63t44.5 49t69 19q47 0 75 -27t28 -69q0 -36 -18 -66.5t-48 -48t-66 -17.5q-45 0 -72.5 27.5t-27.5 69.5zM267 563q0 30 -17 46t-43 16q-33 0 -56.5 -24.5t-23.5 -60.5q0 -30 17 -46.5t44 -16.5q34 0 56.5 25.5t22.5 60.5z" />
    <glyph glyph-name="plusminus" unicode="&#xb1;" 
d="M447 268l-9 -52h-162l-24 -136h-55l24 136h-163l9 52h163l25 142h55l-25 -142h162zM28 42h379l-9 -52h-379z" />
    <glyph glyph-name="uni00B2" unicode="&#xb2;" horiz-adv-x="324" 
d="M321 458h37l-16 -93h-286l3 20l77 73q79 74 115.5 130t36.5 106q0 33 -14 50.5t-39 17.5q-22 0 -41.5 -15t-45.5 -46l-33 -41h-8l18 104q54 28 113 28q56 0 89.5 -28t33.5 -70q1 -50 -37 -101t-118 -119l-68 -58h171l5 3z" />
    <glyph glyph-name="uni00B3" unicode="&#xb3;" horiz-adv-x="325" 
d="M356 495q0 -37 -22.5 -69.5t-61 -51.5t-83.5 -19q-66 0 -122 36l24 101h8l10 -32q13 -38 33.5 -56t52.5 -18q38 0 63 28.5t25 72.5q0 80 -99 80h-35l6 35h21q53 0 84.5 28t31.5 73q-1 28 -13.5 43.5t-36.5 15.5q-22 0 -41 -14.5t-41 -42.5l-38 -45h-8l18 104
q56 28 115 28q54 0 86 -24.5t32 -64.5q0 -71 -99 -109q42 -11 66 -36.5t24 -62.5z" />
    <glyph glyph-name="acute" unicode="&#xb4;" horiz-adv-x="153" 
d="M128 664h97v-5l-135 -179h-30z" />
    <glyph glyph-name="paragraph" unicode="&#xb6;" horiz-adv-x="593" 
d="M623 650l-2 -12l-97 -49l-145 -819h-42l147 830h-71l-147 -830h-42l89 502h-15q-87 0 -145 44t-58 127q0 93 72.5 150t210.5 57h245z" />
    <glyph glyph-name="periodcentered" unicode="&#xb7;" horiz-adv-x="182" 
d="M40 190q0 26 18.5 47.5t44.5 21.5q20 0 32.5 -13.5t12.5 -33.5q0 -27 -18.5 -48.5t-44.5 -21.5q-20 0 -32.5 13.5t-12.5 34.5z" />
    <glyph glyph-name="cedilla" unicode="&#xb8;" horiz-adv-x="204" 
d="M134 -132q0 -21 -12 -44t-36 -38.5t-56 -15.5q-27 0 -48 9t-41 27l12 16q25 -14 51 -14q27 0 45 16.5t18 39.5q0 16 -10 24.5t-26 8.5q-18 0 -33 -6l-3 3l66 120h36l-51 -90q12 4 26 4q28 0 45 -16.5t17 -43.5z" />
    <glyph glyph-name="uni00B9" unicode="&#xb9;" horiz-adv-x="265" 
d="M70 401h67l4 3l60 339l-3 4h-68l7 35h136l-67 -378l3 -3h68l-7 -36h-206z" />
    <glyph glyph-name="ordmasculine" unicode="&#xba;" horiz-adv-x="336" 
d="M91 475q0 50 22 94.5t60 71.5t84 27q47 0 76.5 -30.5t29.5 -83.5q0 -51 -21 -96t-59 -72.5t-84 -27.5q-49 0 -78.5 31.5t-29.5 85.5zM299 551q0 90 -51 90q-26 0 -47 -22.5t-33.5 -61t-12.5 -84.5q1 -44 14.5 -66t36.5 -22q26 0 47 22t33.5 60t12.5 84z" />
    <glyph glyph-name="guillemotright" unicode="&#xbb;" horiz-adv-x="414" 
d="M146 203l-87 158h35l136 -156l-1 -5l-191 -155h-35zM291 203l-87 158h35l136 -156l-1 -5l-191 -155h-35z" />
    <glyph glyph-name="onequarter" unicode="&#xbc;" horiz-adv-x="801" 
d="M50 279h67l4 3l60 339l-3 4h-68l7 35h136l-67 -378l3 -3h68l-7 -36h-206zM590 682h57l-436 -717h-57zM764 159v-6l-19 -39h-82l-13 -75l3 -3h58l-6 -36h-187l6 36h62l4 3l13 75h-190l4 22l253 281h46l-45 -258h93zM611 159l32 184l-165 -184h133z" />
    <glyph glyph-name="onehalf" unicode="&#xbd;" horiz-adv-x="801" 
d="M29 279h67l4 3l60 339l-3 4h-68l7 35h136l-67 -378l3 -3h68l-7 -36h-206zM562 682h57l-436 -717h-57zM718 93h37l-16 -93h-286l3 20l77 73q79 74 115.5 130t36.5 106q0 33 -14 50.5t-39 17.5q-22 0 -41.5 -15t-45.5 -46l-33 -41h-8l18 104q54 28 113 28q56 0 89.5 -28
t33.5 -70q1 -50 -37 -101t-118 -119l-68 -58h171l5 3z" />
    <glyph glyph-name="threequarters" unicode="&#xbe;" horiz-adv-x="801" 
d="M359 373q0 -37 -22.5 -69.5t-61 -51.5t-83.5 -19q-66 0 -122 36l24 101h8l10 -32q13 -38 33.5 -56t52.5 -18q38 0 63 28.5t25 72.5q0 80 -99 80h-35l6 35h21q53 0 84.5 28t31.5 73q-1 28 -13.5 43.5t-36.5 15.5q-22 0 -41 -14.5t-41 -42.5l-38 -45h-8l18 104
q56 28 115 28q54 0 86 -24.5t32 -64.5q0 -71 -99 -109q42 -11 66 -36.5t24 -62.5zM640 682h57l-436 -717h-57zM786 159v-6l-19 -39h-82l-13 -75l3 -3h58l-6 -36h-187l6 36h62l4 3l13 75h-190l4 22l253 281h46l-45 -258h93zM633 159l32 184l-165 -184h133z" />
    <glyph glyph-name="questiondown" unicode="&#xbf;" horiz-adv-x="352" 
d="M175 355q0 27 18.5 48.5t44.5 21.5q20 0 32.5 -13.5t12.5 -34.5q0 -26 -18.5 -47.5t-44.5 -21.5q-20 0 -32.5 13.5t-12.5 33.5zM311 -173q-76 -82 -185 -82q-78 0 -126.5 37.5t-48.5 98.5q0 70 53 129t140 95l43 123h34l-19 -139q-71 -23 -114.5 -81.5t-43.5 -122.5
q0 -43 23.5 -68.5t60.5 -25.5q35 0 66 24.5t64 76.5z" />
    <glyph glyph-name="Agrave" unicode="&#xc0;" horiz-adv-x="596" 
d="M584 45l-8 -45h-244l8 45h80l7 5l-35 205h-199l-108 -205l5 -5h80l-8 -45h-207l8 45h60l4 3l329 602h42l113 -601l3 -4h70zM385 295l-40 239h-5l-126 -239h171zM233 834v5h102l76 -134h-35z" />
    <glyph glyph-name="Aacute" unicode="&#xc1;" horiz-adv-x="596" 
d="M584 45l-8 -45h-244l8 45h80l7 5l-35 205h-199l-108 -205l5 -5h80l-8 -45h-207l8 45h60l4 3l329 602h42l113 -601l3 -4h70zM385 295l-40 239h-5l-126 -239h171zM452 840h102v-5l-167 -129h-35z" />
    <glyph glyph-name="Acircumflex" unicode="&#xc2;" horiz-adv-x="596" 
d="M584 45l-8 -45h-244l8 45h80l7 5l-35 205h-199l-108 -205l5 -5h80l-8 -45h-207l8 45h60l4 3l329 602h42l113 -601l3 -4h70zM385 295l-40 239h-5l-126 -239h171zM373 840h49l89 -134h-29l-88 64l-120 -64h-29z" />
    <glyph glyph-name="Atilde" unicode="&#xc3;" horiz-adv-x="596" 
d="M584 45l-8 -45h-244l8 45h80l7 5l-35 205h-199l-108 -205l5 -5h80l-8 -45h-207l8 45h60l4 3l329 602h42l113 -601l3 -4h70zM385 295l-40 239h-5l-126 -239h171zM249 729q18 43 42.5 69.5t55.5 26.5q20 0 34 -6t32 -18q14 -10 24.5 -14.5t23.5 -4.5q15 0 25.5 11t24.5 36
l22 -10q-17 -42 -41.5 -69t-55.5 -27q-17 0 -29.5 5.5t-30.5 17.5q-18 11 -27 15.5t-22 4.5q-17 0 -29.5 -12t-25.5 -36z" />
    <glyph glyph-name="Adieresis" unicode="&#xc4;" horiz-adv-x="596" 
d="M584 45l-8 -45h-244l8 45h80l7 5l-35 205h-199l-108 -205l5 -5h80l-8 -45h-207l8 45h60l4 3l329 602h42l113 -601l3 -4h70zM385 295l-40 239h-5l-126 -239h171zM261 775q0 24 16.5 41.5t39.5 17.5q21 0 35 -16.5t13 -38.5q-2 -22 -18.5 -38t-36.5 -16q-21 0 -35 14.5
t-14 35.5zM424 775q0 24 16.5 41.5t39.5 17.5q21 0 35 -16.5t13 -38.5q-2 -22 -18.5 -38t-36.5 -16q-21 0 -35 14.5t-14 35.5z" />
    <glyph glyph-name="Aring" unicode="&#xc5;" horiz-adv-x="596" 
d="M584 45l-8 -45h-244l8 45h80l7 5l-35 205h-199l-108 -205l5 -5h80l-8 -45h-207l8 45h60l4 3l329 602h42l113 -601l3 -4h70zM385 295l-40 239h-5l-126 -239h171zM300 764q0 29 15.5 53.5t41 38.5t53.5 14q38 0 60.5 -21t22.5 -56q0 -27 -15.5 -51.5t-41.5 -39.5t-55 -15
q-37 0 -59 21t-22 56zM440 787q0 25 -10 41t-28 16q-19 0 -34 -20.5t-15 -52.5q0 -26 10.5 -42.5t25.5 -16.5q22 0 36.5 23t14.5 52z" />
    <glyph glyph-name="AE" unicode="&#xc6;" horiz-adv-x="789" 
d="M776 650l-27 -166h-5l-55 121h-173l-44 -250h135l6 5l13 75h45l-36 -205h-45l13 75l-4 5h-135l-47 -265h208l107 120h5l-39 -165h-445l8 45h70l6 5l46 260h-138l-160 -260l5 -5h80l-8 -45h-207l8 45h60l4 3l339 549l-71 41l2 12h479zM391 355l45 253h-8l-156 -253h119z
" />
    <glyph glyph-name="Ccedilla" unicode="&#xc7;" horiz-adv-x="561" 
d="M577 639l-29 -159h-5l-38 103q-33 37 -91 37q-74 0 -131.5 -46.5t-90 -128.5t-32.5 -185q0 -107 43 -165t124 -58q97 0 182 69l20 -25q-48 -43 -95.5 -66.5t-100.5 -28.5l-35 -62q12 4 26 4q28 0 45 -16.5t17 -43.5q0 -21 -12 -44t-36 -38.5t-56 -15.5q-26 0 -47.5 9
t-41.5 27l12 16q25 -14 51 -14q27 0 45 16.5t18 39.5q0 16 -10 24.5t-26 8.5q-18 0 -33 -6l-3 3l50 91q-104 2 -166 65.5t-62 188.5q0 115 45.5 212.5t129 155.5t193.5 58q68 0 140 -26z" />
    <glyph glyph-name="Egrave" unicode="&#xc8;" horiz-adv-x="566" 
d="M553 650l-27 -166h-5l-55 121h-173l-42 -238h133l6 5l13 75h45l-36 -205h-45l13 75l-4 5h-133l-49 -277h208l107 120h5l-39 -165h-445l8 45h70l6 5l96 540l-83 48l2 12h424zM240 834v5h102l76 -134h-35z" />
    <glyph glyph-name="Eacute" unicode="&#xc9;" horiz-adv-x="566" 
d="M553 650l-27 -166h-5l-55 121h-173l-42 -238h133l6 5l13 75h45l-36 -205h-45l13 75l-4 5h-133l-49 -277h208l107 120h5l-39 -165h-445l8 45h70l6 5l96 540l-83 48l2 12h424zM444 840h102v-5l-167 -129h-35z" />
    <glyph glyph-name="Ecircumflex" unicode="&#xca;" horiz-adv-x="566" 
d="M553 650l-27 -166h-5l-55 121h-173l-42 -238h133l6 5l13 75h45l-36 -205h-45l13 75l-4 5h-133l-49 -277h208l107 120h5l-39 -165h-445l8 45h70l6 5l96 540l-83 48l2 12h424zM365 840h49l89 -134h-29l-88 64l-120 -64h-29z" />
    <glyph glyph-name="Edieresis" unicode="&#xcb;" horiz-adv-x="566" 
d="M553 650l-27 -166h-5l-55 121h-173l-42 -238h133l6 5l13 75h45l-36 -205h-45l13 75l-4 5h-133l-49 -277h208l107 120h5l-39 -165h-445l8 45h70l6 5l96 540l-83 48l2 12h424zM253 775q0 24 16.5 41.5t39.5 17.5q21 0 35 -16.5t13 -38.5q-2 -22 -18.5 -38t-36.5 -16
q-21 0 -35 14.5t-14 35.5zM416 775q0 24 16.5 41.5t39.5 17.5q21 0 35 -16.5t13 -38.5q-2 -22 -18.5 -38t-36.5 -16q-21 0 -35 14.5t-14 35.5z" />
    <glyph glyph-name="Igrave" unicode="&#xcc;" horiz-adv-x="359" 
d="M38 45h70l6 5l96 540l-83 48l2 12h260l-2 -12l-97 -49l-96 -539l4 -5h70l-8 -45h-230zM157 834v5h102l76 -134h-35z" />
    <glyph glyph-name="Iacute" unicode="&#xcd;" horiz-adv-x="359" 
d="M38 45h70l6 5l96 540l-83 48l2 12h260l-2 -12l-97 -49l-96 -539l4 -5h70l-8 -45h-230zM320 840h102v-5l-167 -129h-35z" />
    <glyph glyph-name="Icircumflex" unicode="&#xce;" horiz-adv-x="359" 
d="M38 45h70l6 5l96 540l-83 48l2 12h260l-2 -12l-97 -49l-96 -539l4 -5h70l-8 -45h-230zM256 840h49l89 -134h-29l-88 64l-120 -64h-29z" />
    <glyph glyph-name="Idieresis" unicode="&#xcf;" horiz-adv-x="359" 
d="M38 45h70l6 5l96 540l-83 48l2 12h260l-2 -12l-97 -49l-96 -539l4 -5h70l-8 -45h-230zM144 775q0 24 16.5 41.5t39.5 17.5q21 0 35 -16.5t13 -38.5q-2 -22 -18.5 -38t-36.5 -16q-21 0 -35 14.5t-14 35.5zM307 775q0 24 16.5 41.5t39.5 17.5q21 0 35 -16.5t13 -38.5
q-2 -22 -18.5 -38t-36.5 -16q-21 0 -35 14.5t-14 35.5z" />
    <glyph glyph-name="Eth" unicode="&#xd0;" horiz-adv-x="690" 
d="M673 397q0 -105 -49.5 -196t-142.5 -146t-218 -55h-233l8 45h70l6 5l46 261h-76l8 45h76l42 234l-83 48l2 12h252q147 0 219.5 -68t72.5 -185zM583 388q0 217 -228 217h-62l-44 -249h129l-8 -45h-129l-47 -266h77q97 0 167.5 45.5t107.5 123.5t37 174z" />
    <glyph glyph-name="Ntilde" unicode="&#xd1;" horiz-adv-x="738" 
d="M774 650l-2 -12l-97 -49l-104 -589h-23l-293 543l-87 -493l4 -5h80l-8 -45h-214l8 45h70l6 5l96 540l-83 48l2 12h160l260 -495l75 435l-83 48l2 12h231zM326 729q18 43 42.5 69.5t55.5 26.5q20 0 34 -6t32 -18q14 -10 24.5 -14.5t23.5 -4.5q15 0 25.5 11t24.5 36l22 -10
q-17 -42 -41.5 -69t-55.5 -27q-17 0 -29.5 5.5t-30.5 17.5q-18 11 -27 15.5t-22 4.5q-17 0 -29.5 -12t-25.5 -36z" />
    <glyph glyph-name="Ograve" unicode="&#xd2;" horiz-adv-x="713" 
d="M69 267q0 104 44 195.5t124 147t182 55.5q73 0 133.5 -34t95.5 -98t35 -149q0 -103 -43.5 -194.5t-123 -148t-182.5 -56.5q-74 0 -134.5 34t-95.5 98t-35 150zM590 376q0 115 -48 179t-133 64q-71 0 -127.5 -46.5t-88 -125t-31.5 -170.5q0 -117 47.5 -181.5t132.5 -64.5
q72 0 128.5 47t88 126t31.5 172zM290 836v5h102l76 -134h-35z" />
    <glyph glyph-name="Oacute" unicode="&#xd3;" horiz-adv-x="713" 
d="M69 267q0 104 44 195.5t124 147t182 55.5q73 0 133.5 -34t95.5 -98t35 -149q0 -103 -43.5 -194.5t-123 -148t-182.5 -56.5q-74 0 -134.5 34t-95.5 98t-35 150zM590 376q0 115 -48 179t-133 64q-71 0 -127.5 -46.5t-88 -125t-31.5 -170.5q0 -117 47.5 -181.5t132.5 -64.5
q72 0 128.5 47t88 126t31.5 172zM489 842h102v-5l-167 -129h-35z" />
    <glyph glyph-name="Ocircumflex" unicode="&#xd4;" horiz-adv-x="713" 
d="M69 267q0 104 44 195.5t124 147t182 55.5q73 0 133.5 -34t95.5 -98t35 -149q0 -103 -43.5 -194.5t-123 -148t-182.5 -56.5q-74 0 -134.5 34t-95.5 98t-35 150zM590 376q0 115 -48 179t-133 64q-71 0 -127.5 -46.5t-88 -125t-31.5 -170.5q0 -117 47.5 -181.5t132.5 -64.5
q72 0 128.5 47t88 126t31.5 172zM430 842h49l89 -134h-29l-88 64l-120 -64h-29z" />
    <glyph glyph-name="Otilde" unicode="&#xd5;" horiz-adv-x="713" 
d="M69 267q0 104 44 195.5t124 147t182 55.5q73 0 133.5 -34t95.5 -98t35 -149q0 -103 -43.5 -194.5t-123 -148t-182.5 -56.5q-74 0 -134.5 34t-95.5 98t-35 150zM590 376q0 115 -48 179t-133 64q-71 0 -127.5 -46.5t-88 -125t-31.5 -170.5q0 -117 47.5 -181.5t132.5 -64.5
q72 0 128.5 47t88 126t31.5 172zM316 731q18 43 42.5 69.5t55.5 26.5q20 0 34 -6t32 -18q14 -10 24.5 -14.5t23.5 -4.5q15 0 25.5 11t24.5 36l22 -10q-17 -42 -41.5 -69t-55.5 -27q-17 0 -29.5 5.5t-30.5 17.5q-18 11 -27 15.5t-22 4.5q-17 0 -29.5 -12t-25.5 -36z" />
    <glyph glyph-name="Odieresis" unicode="&#xd6;" horiz-adv-x="713" 
d="M69 267q0 104 44 195.5t124 147t182 55.5q73 0 133.5 -34t95.5 -98t35 -149q0 -103 -43.5 -194.5t-123 -148t-182.5 -56.5q-74 0 -134.5 34t-95.5 98t-35 150zM590 376q0 115 -48 179t-133 64q-71 0 -127.5 -46.5t-88 -125t-31.5 -170.5q0 -117 47.5 -181.5t132.5 -64.5
q72 0 128.5 47t88 126t31.5 172zM318 777q0 24 16.5 41.5t39.5 17.5q21 0 35 -16.5t13 -38.5q-2 -22 -18.5 -38t-36.5 -16q-21 0 -35 14.5t-14 35.5zM481 777q0 24 16.5 41.5t39.5 17.5q21 0 35 -16.5t13 -38.5q-2 -22 -18.5 -38t-36.5 -16q-21 0 -35 14.5t-14 35.5z" />
    <glyph glyph-name="multiply" unicode="&#xd7;" 
d="M284 208l118 -144l-46 -39l-118 144l-169 -144l-32 39l168 143l-118 144l46 39l118 -143l169 143l32 -39z" />
    <glyph glyph-name="Oslash" unicode="&#xd8;" horiz-adv-x="713" 
d="M641 552q42 -70 42 -168q0 -103 -43.5 -194.5t-123 -148t-182.5 -56.5q-124 0 -196 78l-64 -63h-67l103 100q-41 68 -41 167q0 104 44 195.5t124 147t182 55.5q61 0 110 -19.5t83 -56.5l63 61h67zM177 165l378 368q-23 42 -60.5 64t-85.5 22q-71 0 -127.5 -46.5t-88 -125
t-31.5 -170.5q0 -64 15 -112zM575 487l-379 -368q23 -43 60.5 -65.5t85.5 -22.5q72 0 128.5 47t88 126t31.5 172q0 63 -15 111z" />
    <glyph glyph-name="Ugrave" unicode="&#xd9;" horiz-adv-x="731" 
d="M131 174q0 35 8 78l60 338l-83 48l2 12h260l-2 -12l-97 -49l-56 -319q-8 -50 -8 -84q0 -148 134 -148q165 0 201 207l60 345l-83 48l2 12h237l-2 -12l-97 -49l-60 -334q-24 -137 -89 -203.5t-181 -66.5q-108 0 -157 50.5t-49 138.5zM319 836v5h102l76 -134h-35z" />
    <glyph glyph-name="Uacute" unicode="&#xda;" horiz-adv-x="731" 
d="M131 174q0 35 8 78l60 338l-83 48l2 12h260l-2 -12l-97 -49l-56 -319q-8 -50 -8 -84q0 -148 134 -148q165 0 201 207l60 345l-83 48l2 12h237l-2 -12l-97 -49l-60 -334q-24 -137 -89 -203.5t-181 -66.5q-108 0 -157 50.5t-49 138.5zM528 842h102v-5l-167 -129h-35z" />
    <glyph glyph-name="Ucircumflex" unicode="&#xdb;" horiz-adv-x="731" 
d="M131 174q0 35 8 78l60 338l-83 48l2 12h260l-2 -12l-97 -49l-56 -319q-8 -50 -8 -84q0 -148 134 -148q165 0 201 207l60 345l-83 48l2 12h237l-2 -12l-97 -49l-60 -334q-24 -137 -89 -203.5t-181 -66.5q-108 0 -157 50.5t-49 138.5zM459 842h49l89 -134h-29l-88 64
l-120 -64h-29z" />
    <glyph glyph-name="Udieresis" unicode="&#xdc;" horiz-adv-x="731" 
d="M131 174q0 35 8 78l60 338l-83 48l2 12h260l-2 -12l-97 -49l-56 -319q-8 -50 -8 -84q0 -148 134 -148q165 0 201 207l60 345l-83 48l2 12h237l-2 -12l-97 -49l-60 -334q-24 -137 -89 -203.5t-181 -66.5q-108 0 -157 50.5t-49 138.5zM349 777q0 24 16.5 41.5t39.5 17.5
q21 0 35 -16.5t13 -38.5q-2 -22 -18.5 -38t-36.5 -16q-21 0 -35 14.5t-14 35.5zM512 777q0 24 16.5 41.5t39.5 17.5q21 0 35 -16.5t13 -38.5q-2 -22 -18.5 -38t-36.5 -16q-21 0 -35 14.5t-14 35.5z" />
    <glyph glyph-name="Yacute" unicode="&#xdd;" horiz-adv-x="556" 
d="M141 45h70l6 5l34 194l-109 346l-83 48l2 12h261l-2 -12l-97 -49l86 -289h5l187 290l-83 48l2 12h236l-2 -12l-101 -49l-218 -325l-38 -214l4 -5h70l-8 -45h-230zM447 842h102v-5l-167 -129h-35z" />
    <glyph glyph-name="Thorn" unicode="&#xde;" horiz-adv-x="566" 
d="M209 132l-15 -82l4 -5h70l-8 -45h-230l8 45h70l6 5l96 540l-83 48l2 12h260l-2 -12l-97 -49l-11 -59h54q111 0 169 -46t58 -120q0 -109 -86 -170.5t-236 -61.5h-29zM271 485l-54 -307q9 -1 31 -1q110 0 166.5 50.5t56.5 130.5q0 127 -164 127h-36z" />
    <glyph glyph-name="germandbls" unicode="&#xdf;" horiz-adv-x="491" 
d="M293 333q0 -23 13 -39.5t41 -38.5l32 -28q31 -29 46.5 -56.5t15.5 -60.5q0 -52 -37.5 -86t-93.5 -34q-30 0 -61 9t-58 26l21 108h4l17 -39q30 -68 81 -68q31 0 48 17.5t17 45.5q0 25 -14 45.5t-49 47.5q-48 36 -66.5 64t-18.5 64q0 41 26 75t86 76q46 32 66 60t20 68
t-22.5 66t-64.5 26q-51 0 -90.5 -53.5t-57.5 -165.5l-66 -414q-25 -154 -68 -221t-107 -67q-42 0 -73 23l20 121h4l20 -40q18 -38 29.5 -53t24.5 -15q20 0 35 38.5t30 131.5l60 393h-80l3 17l84 28l3 18q21 139 80 217t157 78q65 0 105 -35t40 -88q0 -46 -26.5 -82
t-81.5 -70q-53 -32 -73.5 -54.5t-20.5 -54.5z" />
    <glyph glyph-name="agrave" unicode="&#xe0;" horiz-adv-x="441" 
d="M421 44q-25 -22 -56 -38t-58 -16q-29 0 -42 15.5t-13 51.5q0 11 1 18q-34 -39 -72 -62t-72 -23q-44 0 -69 36t-25 104q0 75 30 142t82 107.5t113 40.5q45 0 80 -20l54 20h5l-51 -290q-4 -21 -4 -39q0 -23 10 -33t34 -10q25 0 48 9zM255 97l3 23l40 231q-28 33 -65 33
q-36 0 -68.5 -33t-52 -88.5t-19.5 -120.5q0 -50 14.5 -72.5t42.5 -22.5q45 0 105 50zM169 659v5h97l41 -184h-30z" />
    <glyph glyph-name="aacute" unicode="&#xe1;" horiz-adv-x="441" 
d="M421 44q-25 -22 -56 -38t-58 -16q-29 0 -42 15.5t-13 51.5q0 11 1 18q-34 -39 -72 -62t-72 -23q-44 0 -69 36t-25 104q0 75 30 142t82 107.5t113 40.5q45 0 80 -20l54 20h5l-51 -290q-4 -21 -4 -39q0 -23 10 -33t34 -10q25 0 48 9zM255 97l3 23l40 231q-28 33 -65 33
q-36 0 -68.5 -33t-52 -88.5t-19.5 -120.5q0 -50 14.5 -72.5t42.5 -22.5q45 0 105 50zM296 664h97v-5l-135 -179h-30z" />
    <glyph glyph-name="acircumflex" unicode="&#xe2;" horiz-adv-x="441" 
d="M421 44q-25 -22 -56 -38t-58 -16q-29 0 -42 15.5t-13 51.5q0 11 1 18q-34 -39 -72 -62t-72 -23q-44 0 -69 36t-25 104q0 75 30 142t82 107.5t113 40.5q45 0 80 -20l54 20h5l-51 -290q-4 -21 -4 -39q0 -23 10 -33t34 -10q25 0 48 9zM255 97l3 23l40 231q-28 33 -65 33
q-36 0 -68.5 -33t-52 -88.5t-19.5 -120.5q0 -50 14.5 -72.5t42.5 -22.5q45 0 105 50zM267 664h39l75 -184h-26l-76 100l-108 -100h-28z" />
    <glyph glyph-name="atilde" unicode="&#xe3;" horiz-adv-x="441" 
d="M421 44q-25 -22 -56 -38t-58 -16q-29 0 -42 15.5t-13 51.5q0 11 1 18q-34 -39 -72 -62t-72 -23q-44 0 -69 36t-25 104q0 75 30 142t82 107.5t113 40.5q45 0 80 -20l54 20h5l-51 -290q-4 -21 -4 -39q0 -23 10 -33t34 -10q25 0 48 9zM255 97l3 23l40 231q-28 33 -65 33
q-36 0 -68.5 -33t-52 -88.5t-19.5 -120.5q0 -50 14.5 -72.5t42.5 -22.5q45 0 105 50zM132 524q18 43 42.5 69.5t55.5 26.5q20 0 34 -6t32 -18q14 -10 24.5 -14.5t23.5 -4.5q15 0 25.5 11t24.5 36l22 -10q-17 -42 -41.5 -69t-55.5 -27q-17 0 -29.5 5.5t-30.5 17.5
q-18 11 -27 15.5t-22 4.5q-17 0 -29.5 -12t-25.5 -36z" />
    <glyph glyph-name="adieresis" unicode="&#xe4;" horiz-adv-x="441" 
d="M421 44q-25 -22 -56 -38t-58 -16q-29 0 -42 15.5t-13 51.5q0 11 1 18q-34 -39 -72 -62t-72 -23q-44 0 -69 36t-25 104q0 75 30 142t82 107.5t113 40.5q45 0 80 -20l54 20h5l-51 -290q-4 -21 -4 -39q0 -23 10 -33t34 -10q25 0 48 9zM255 97l3 23l40 231q-28 33 -65 33
q-36 0 -68.5 -33t-52 -88.5t-19.5 -120.5q0 -50 14.5 -72.5t42.5 -22.5q45 0 105 50zM142 574q0 24 16.5 41.5t39.5 17.5q21 0 35 -16.5t13 -38.5q-2 -22 -18.5 -38t-36.5 -16q-21 0 -35 14.5t-14 35.5zM305 574q0 24 16.5 41.5t39.5 17.5q21 0 35 -16.5t13 -38.5
q-2 -22 -18.5 -38t-36.5 -16q-21 0 -35 14.5t-14 35.5z" />
    <glyph glyph-name="aring" unicode="&#xe5;" horiz-adv-x="441" 
d="M421 44q-25 -22 -56 -38t-58 -16q-29 0 -42 15.5t-13 51.5q0 11 1 18q-34 -39 -72 -62t-72 -23q-44 0 -69 36t-25 104q0 75 30 142t82 107.5t113 40.5q45 0 80 -20l54 20h5l-51 -290q-4 -21 -4 -39q0 -23 10 -33t34 -10q25 0 48 9zM255 97l3 23l40 231q-28 33 -65 33
q-36 0 -68.5 -33t-52 -88.5t-19.5 -120.5q0 -50 14.5 -72.5t42.5 -22.5q45 0 105 50zM190 556q0 29 15.5 53.5t41 38.5t53.5 14q38 0 60.5 -21t22.5 -56q0 -27 -15.5 -51.5t-41.5 -39.5t-55 -15q-37 0 -59 21t-22 56zM330 579q0 25 -10 41t-28 16q-19 0 -34 -20.5t-15 -52.5
q0 -26 10.5 -42.5t25.5 -16.5q22 0 36.5 23t14.5 52z" />
    <glyph glyph-name="ae" unicode="&#xe6;" horiz-adv-x="583" 
d="M533 76l5 -13q-39 -35 -80.5 -54t-80.5 -19q-46 0 -75.5 26t-37.5 77q-28 -44 -68 -73.5t-85 -29.5t-70.5 36t-25.5 104q0 75 30 142t82 107.5t113 40.5q34 0 64.5 -13t52.5 -35q53 48 118 48q41 0 65.5 -22t24.5 -57q0 -50 -51.5 -92.5t-174.5 -75.5v-18
q0 -58 19.5 -83.5t59.5 -25.5q25 0 57 8.5t58 21.5zM317 326q-17 29 -38.5 43.5t-45.5 14.5q-36 0 -68.5 -33t-52 -88.5t-19.5 -120.5q0 -50 14.5 -72.5t42.5 -22.5q26 0 56.5 20t54.5 51v15q0 53 14.5 103.5t41.5 89.5zM342 209q150 41 150 132q0 20 -9 31.5t-27 11.5
q-23 0 -47 -21.5t-42 -61.5t-25 -92z" />
    <glyph glyph-name="ccedilla" unicode="&#xe7;" horiz-adv-x="339" 
d="M323 391l-20 -124h-4l-26 53q-17 35 -31.5 49.5t-31.5 14.5q-31 0 -56.5 -34.5t-39.5 -88.5t-14 -108t18 -80.5t60 -26.5q27 0 60 9.5t56 20.5l5 -13q-69 -59 -132 -70l-39 -69q12 4 26 4q28 0 45 -16.5t17 -43.5q0 -21 -12 -44t-36 -38.5t-56 -15.5q-26 0 -47.5 9
t-41.5 27l12 16q25 -14 51 -14q27 0 45 16.5t18 39.5q0 16 -10 24.5t-26 8.5q-18 0 -33 -6l-3 3l53 96q-53 3 -80.5 40.5t-27.5 100.5q0 70 26 137t74 109.5t110 42.5q52 0 91 -29z" />
    <glyph glyph-name="egrave" unicode="&#xe8;" horiz-adv-x="344" 
d="M294 76l5 -13q-39 -35 -80.5 -54t-80.5 -19q-55 0 -85.5 36.5t-30.5 106.5q0 75 28 141t77 106t109 40q41 0 65.5 -22t24.5 -57q0 -50 -51.5 -92.5t-174.5 -75.5v-18q0 -58 19.5 -83.5t59.5 -25.5q25 0 57 8.5t58 21.5zM103 209q150 41 150 132q0 20 -9 31.5t-27 11.5
q-23 0 -47 -21.5t-42 -61.5t-25 -92zM144 659v5h97l41 -184h-30z" />
    <glyph glyph-name="eacute" unicode="&#xe9;" horiz-adv-x="344" 
d="M294 76l5 -13q-39 -35 -80.5 -54t-80.5 -19q-55 0 -85.5 36.5t-30.5 106.5q0 75 28 141t77 106t109 40q41 0 65.5 -22t24.5 -57q0 -50 -51.5 -92.5t-174.5 -75.5v-18q0 -58 19.5 -83.5t59.5 -25.5q25 0 57 8.5t58 21.5zM103 209q150 41 150 132q0 20 -9 31.5t-27 11.5
q-23 0 -47 -21.5t-42 -61.5t-25 -92zM269 664h97v-5l-135 -179h-30z" />
    <glyph glyph-name="ecircumflex" unicode="&#xea;" horiz-adv-x="344" 
d="M294 76l5 -13q-39 -35 -80.5 -54t-80.5 -19q-55 0 -85.5 36.5t-30.5 106.5q0 75 28 141t77 106t109 40q41 0 65.5 -22t24.5 -57q0 -50 -51.5 -92.5t-174.5 -75.5v-18q0 -58 19.5 -83.5t59.5 -25.5q25 0 57 8.5t58 21.5zM103 209q150 41 150 132q0 20 -9 31.5t-27 11.5
q-23 0 -47 -21.5t-42 -61.5t-25 -92zM234 664h39l75 -184h-26l-76 100l-108 -100h-28z" />
    <glyph glyph-name="edieresis" unicode="&#xeb;" horiz-adv-x="344" 
d="M294 76l5 -13q-39 -35 -80.5 -54t-80.5 -19q-55 0 -85.5 36.5t-30.5 106.5q0 75 28 141t77 106t109 40q41 0 65.5 -22t24.5 -57q0 -50 -51.5 -92.5t-174.5 -75.5v-18q0 -58 19.5 -83.5t59.5 -25.5q25 0 57 8.5t58 21.5zM103 209q150 41 150 132q0 20 -9 31.5t-27 11.5
q-23 0 -47 -21.5t-42 -61.5t-25 -92zM117 574q0 24 16.5 41.5t39.5 17.5q21 0 35 -16.5t13 -38.5q-2 -22 -18.5 -38t-36.5 -16q-21 0 -35 14.5t-14 35.5zM280 574q0 24 16.5 41.5t39.5 17.5q21 0 35 -16.5t13 -38.5q-2 -22 -18.5 -38t-36.5 -16q-21 0 -35 14.5t-14 35.5z
" />
    <glyph glyph-name="igrave" unicode="&#xec;" horiz-adv-x="245" 
d="M47 58q0 28 7 62l38 201l-60 29l1 9l141 62l5 -3l-55 -288q-4 -20 -4 -39q0 -23 10.5 -33t33.5 -10q26 0 48 9l5 -13q-24 -22 -54.5 -38t-57.5 -16q-30 0 -44 16.5t-14 51.5zM28 659v5h97l41 -184h-30z" />
    <glyph glyph-name="iacute" unicode="&#xed;" horiz-adv-x="241" 
d="M47 58q0 28 7 62l38 201l-60 29l1 9l141 62l5 -3l-55 -288q-4 -20 -4 -39q0 -23 10.5 -33t33.5 -10q26 0 48 9l5 -13q-24 -22 -54.5 -38t-57.5 -16q-30 0 -44 16.5t-14 51.5zM209 664h97v-5l-135 -179h-30z" />
    <glyph glyph-name="icircumflex" unicode="&#xee;" horiz-adv-x="241" 
d="M47 58q0 28 7 62l38 201l-60 29l1 9l141 62l5 -3l-55 -288q-4 -20 -4 -39q0 -23 10.5 -33t33.5 -10q26 0 48 9l5 -13q-24 -22 -54.5 -38t-57.5 -16q-30 0 -44 16.5t-14 51.5zM161 664h39l75 -184h-26l-76 100l-108 -100h-28z" />
    <glyph glyph-name="idieresis" unicode="&#xef;" horiz-adv-x="239" 
d="M45 574q0 24 16.5 41.5t39.5 17.5q21 0 35 -16.5t13 -38.5q-2 -22 -18.5 -38t-36.5 -16q-21 0 -35 14.5t-14 35.5zM188 574q0 24 16.5 41.5t39.5 17.5q21 0 35 -16.5t13 -38.5q-2 -22 -18.5 -38t-36.5 -16q-21 0 -35 14.5t-14 35.5zM47 58q0 28 7 62l38 201l-60 29l1 9
l141 62l5 -3l-55 -288q-4 -20 -4 -39q0 -23 10.5 -33t33.5 -10q26 0 48 9l5 -13q-24 -22 -54.5 -38t-57.5 -16q-30 0 -44 16.5t-14 51.5z" />
    <glyph glyph-name="eth" unicode="&#xf0;" horiz-adv-x="434" 
d="M415 638l-79 -34q33 -46 50 -112.5t17 -147.5q0 -108 -28 -188t-79 -123t-118 -43q-68 0 -111 46t-43 125q0 64 23 123.5t65.5 97.5t98.5 38q68 0 113 -56q-2 76 -12 128.5t-32 87.5l-108 -46l9 49l72 31q-45 44 -139 71l10 32q117 -16 184 -79l116 50zM325 306v3
q-14 25 -41.5 42t-58.5 17q-55 0 -89 -59.5t-34 -150.5q0 -64 23.5 -98t59.5 -34q34 0 66.5 32t53 95.5t20.5 152.5z" />
    <glyph glyph-name="ntilde" unicode="&#xf1;" horiz-adv-x="472" 
d="M448 44q-25 -22 -56 -38t-58 -16q-59 0 -59 68q0 22 8 62l34 161q5 25 5 39q0 43 -41 43q-51 0 -121 -60l-53 -303h-70l56 321l-61 29l2 9l138 62l5 -3l-13 -91q82 93 155 93q35 0 55.5 -20.5t20.5 -59.5q0 -19 -4 -38l-38 -178q-4 -17 -4 -33q0 -24 12 -33.5t34 -9.5
q25 0 48 9zM145 524q18 43 42.5 69.5t55.5 26.5q20 0 34 -6t32 -18q14 -10 24.5 -14.5t23.5 -4.5q15 0 25.5 11t24.5 36l22 -10q-17 -42 -41.5 -69t-55.5 -27q-17 0 -29.5 5.5t-30.5 17.5q-18 11 -27 15.5t-22 4.5q-17 0 -29.5 -12t-25.5 -36z" />
    <glyph glyph-name="ograve" unicode="&#xf2;" horiz-adv-x="409" 
d="M18 146q0 71 28.5 134t78.5 101.5t110 38.5t98.5 -41.5t38.5 -113.5q0 -70 -28.5 -133.5t-78.5 -102.5t-110 -39q-61 0 -99 42t-38 114zM295 262q0 61 -18.5 91.5t-51.5 30.5q-35 0 -64.5 -31t-47 -85t-17.5 -120q0 -61 18.5 -91.5t51.5 -30.5q35 0 64.5 31t47 85
t17.5 120zM138 659v5h97l41 -184h-30z" />
    <glyph glyph-name="oacute" unicode="&#xf3;" horiz-adv-x="409" 
d="M18 146q0 71 28.5 134t78.5 101.5t110 38.5t98.5 -41.5t38.5 -113.5q0 -70 -28.5 -133.5t-78.5 -102.5t-110 -39q-61 0 -99 42t-38 114zM295 262q0 61 -18.5 91.5t-51.5 30.5q-35 0 -64.5 -31t-47 -85t-17.5 -120q0 -61 18.5 -91.5t51.5 -30.5q35 0 64.5 31t47 85
t17.5 120zM295 664h97v-5l-135 -179h-30z" />
    <glyph glyph-name="ocircumflex" unicode="&#xf4;" horiz-adv-x="409" 
d="M18 146q0 71 28.5 134t78.5 101.5t110 38.5t98.5 -41.5t38.5 -113.5q0 -70 -28.5 -133.5t-78.5 -102.5t-110 -39q-61 0 -99 42t-38 114zM295 262q0 61 -18.5 91.5t-51.5 30.5q-35 0 -64.5 -31t-47 -85t-17.5 -120q0 -61 18.5 -91.5t51.5 -30.5q35 0 64.5 31t47 85
t17.5 120zM246 664h39l75 -184h-26l-76 100l-108 -100h-28z" />
    <glyph glyph-name="otilde" unicode="&#xf5;" horiz-adv-x="409" 
d="M18 146q0 71 28.5 134t78.5 101.5t110 38.5t98.5 -41.5t38.5 -113.5q0 -70 -28.5 -133.5t-78.5 -102.5t-110 -39q-61 0 -99 42t-38 114zM295 262q0 61 -18.5 91.5t-51.5 30.5q-35 0 -64.5 -31t-47 -85t-17.5 -120q0 -61 18.5 -91.5t51.5 -30.5q35 0 64.5 31t47 85
t17.5 120zM121 524q18 43 42.5 69.5t55.5 26.5q20 0 34 -6t32 -18q14 -10 24.5 -14.5t23.5 -4.5q15 0 25.5 11t24.5 36l22 -10q-17 -42 -41.5 -69t-55.5 -27q-17 0 -29.5 5.5t-30.5 17.5q-18 11 -27 15.5t-22 4.5q-17 0 -29.5 -12t-25.5 -36z" />
    <glyph glyph-name="odieresis" unicode="&#xf6;" horiz-adv-x="409" 
d="M18 146q0 71 28.5 134t78.5 101.5t110 38.5t98.5 -41.5t38.5 -113.5q0 -70 -28.5 -133.5t-78.5 -102.5t-110 -39q-61 0 -99 42t-38 114zM295 262q0 61 -18.5 91.5t-51.5 30.5q-35 0 -64.5 -31t-47 -85t-17.5 -120q0 -61 18.5 -91.5t51.5 -30.5q35 0 64.5 31t47 85
t17.5 120zM131 574q0 24 16.5 41.5t39.5 17.5q21 0 35 -16.5t13 -38.5q-2 -22 -18.5 -38t-36.5 -16q-21 0 -35 14.5t-14 35.5zM294 574q0 24 16.5 41.5t39.5 17.5q21 0 35 -16.5t13 -38.5q-2 -22 -18.5 -38t-36.5 -16q-21 0 -35 14.5t-14 35.5z" />
    <glyph glyph-name="divide" unicode="&#xf7;" 
d="M204 353q0 26 18.5 47.5t44.5 21.5q20 0 32.5 -13.5t12.5 -33.5q0 -27 -18.5 -48.5t-44.5 -21.5q-20 0 -32.5 13.5t-12.5 34.5zM50 231h400l-10 -52h-400zM148 33q0 26 18.5 47.5t44.5 21.5q20 0 32.5 -13.5t12.5 -33.5q0 -27 -18.5 -48.5t-44.5 -21.5q-20 0 -32.5 13.5
t-12.5 34.5z" />
    <glyph glyph-name="oslash" unicode="&#xf8;" horiz-adv-x="409" 
d="M345 364q27 -40 27 -99q0 -70 -28.5 -133.5t-78.5 -102.5t-110 -39q-55 0 -91 34l-37 -44h-42l58 70q-25 39 -25 96q0 71 28.5 134t78.5 101.5t110 38.5q52 0 89 -31l34 41h42zM98 116l185 224q-18 44 -58 44q-35 0 -64.5 -31t-47 -85t-17.5 -120q0 -12 2 -32zM293 300
l-187 -225q18 -49 60 -49q35 0 64.5 31t47 85t17.5 120q0 16 -2 38z" />
    <glyph glyph-name="ugrave" unicode="&#xf9;" horiz-adv-x="465" 
d="M441 44q-24 -22 -55 -38t-59 -16q-29 0 -42.5 15.5t-13.5 51.5q0 6 2 26q-82 -93 -150 -93q-34 0 -52.5 20t-18.5 60q0 10 4 38l35 203l-60 29l1 9l141 62l5 -3l-48 -279q-4 -20 -4 -39q0 -21 8 -32t27 -11q48 0 115 59l2 14l35 201l-60 29l1 9l141 62l5 -3l-52 -288
q-4 -20 -4 -39q0 -23 10.5 -33t33.5 -10q26 0 48 9zM151 659v5h97l41 -184h-30z" />
    <glyph glyph-name="uacute" unicode="&#xfa;" horiz-adv-x="465" 
d="M441 44q-24 -22 -55 -38t-59 -16q-29 0 -42.5 15.5t-13.5 51.5q0 6 2 26q-82 -93 -150 -93q-34 0 -52.5 20t-18.5 60q0 10 4 38l35 203l-60 29l1 9l141 62l5 -3l-48 -279q-4 -20 -4 -39q0 -21 8 -32t27 -11q48 0 115 59l2 14l35 201l-60 29l1 9l141 62l5 -3l-52 -288
q-4 -20 -4 -39q0 -23 10.5 -33t33.5 -10q26 0 48 9zM307 664h97v-5l-135 -179h-30z" />
    <glyph glyph-name="ucircumflex" unicode="&#xfb;" horiz-adv-x="465" 
d="M441 44q-24 -22 -55 -38t-59 -16q-29 0 -42.5 15.5t-13.5 51.5q0 6 2 26q-82 -93 -150 -93q-34 0 -52.5 20t-18.5 60q0 10 4 38l35 203l-60 29l1 9l141 62l5 -3l-48 -279q-4 -20 -4 -39q0 -21 8 -32t27 -11q48 0 115 59l2 14l35 201l-60 29l1 9l141 62l5 -3l-52 -288
q-4 -20 -4 -39q0 -23 10.5 -33t33.5 -10q26 0 48 9zM274 664h39l75 -184h-26l-76 100l-108 -100h-28z" />
    <glyph glyph-name="udieresis" unicode="&#xfc;" horiz-adv-x="465" 
d="M441 44q-24 -22 -55 -38t-59 -16q-29 0 -42.5 15.5t-13.5 51.5q0 6 2 26q-82 -93 -150 -93q-34 0 -52.5 20t-18.5 60q0 10 4 38l35 203l-60 29l1 9l141 62l5 -3l-48 -279q-4 -20 -4 -39q0 -21 8 -32t27 -11q48 0 115 59l2 14l35 201l-60 29l1 9l141 62l5 -3l-52 -288
q-4 -20 -4 -39q0 -23 10.5 -33t33.5 -10q26 0 48 9zM149 574q0 24 16.5 41.5t39.5 17.5q21 0 35 -16.5t13 -38.5q-2 -22 -18.5 -38t-36.5 -16q-21 0 -35 14.5t-14 35.5zM312 574q0 24 16.5 41.5t39.5 17.5q21 0 35 -16.5t13 -38.5q-2 -22 -18.5 -38t-36.5 -16
q-21 0 -35 14.5t-14 35.5z" />
    <glyph glyph-name="yacute" unicode="&#xfd;" horiz-adv-x="421" 
d="M423 404v-3q-45 -138 -102 -236t-150 -191l-165 -215l-72 63l199 148l-56 346l-61 29l2 9l119 62l5 -3l48 -376q61 74 100.5 157t51.5 151l-53 54l1 5h133zM277 664h97v-5l-135 -179h-30z" />
    <glyph glyph-name="thorn" unicode="&#xfe;" horiz-adv-x="448" 
d="M408 280q0 -75 -30 -142t-82 -107.5t-113 -40.5q-39 0 -77 18l-33 -188l5 -5h75l-8 -45h-215l8 45h60l5 5l141 800l-60 29l2 9l140 62l5 -3l-68 -386q33 40 74 64.5t77 24.5q44 0 69 -36t25 -104zM330 268q0 50 -15.5 72.5t-46.5 22.5q-22 0 -51 -16t-59 -43l-41 -236
q32 -42 73 -42q36 0 68.5 33t52 88.5t19.5 120.5z" />
    <glyph glyph-name="ydieresis" unicode="&#xff;" horiz-adv-x="421" 
d="M423 404v-3q-45 -138 -102 -236t-150 -191l-165 -215l-72 63l199 148l-56 346l-61 29l2 9l119 62l5 -3l48 -376q61 74 100.5 157t51.5 151l-53 54l1 5h133zM110 574q0 24 16.5 41.5t39.5 17.5q21 0 35 -16.5t13 -38.5q-2 -22 -18.5 -38t-36.5 -16q-21 0 -35 14.5
t-14 35.5zM273 574q0 24 16.5 41.5t39.5 17.5q21 0 35 -16.5t13 -38.5q-2 -22 -18.5 -38t-36.5 -16q-21 0 -35 14.5t-14 35.5z" />
    <glyph glyph-name="Amacron" unicode="&#x100;" horiz-adv-x="596" 
d="M584 45l-8 -45h-244l8 45h80l7 5l-35 205h-199l-108 -205l5 -5h80l-8 -45h-207l8 45h60l4 3l329 602h42l113 -601l3 -4h70zM385 295l-40 239h-5l-126 -239h171zM276 793h237l-9 -50h-237z" />
    <glyph glyph-name="amacron" unicode="&#x101;" horiz-adv-x="441" 
d="M421 44q-25 -22 -56 -38t-58 -16q-29 0 -42 15.5t-13 51.5q0 11 1 18q-34 -39 -72 -62t-72 -23q-44 0 -69 36t-25 104q0 75 30 142t82 107.5t113 40.5q45 0 80 -20l54 20h5l-51 -290q-4 -21 -4 -39q0 -23 10 -33t34 -10q25 0 48 9zM255 97l3 23l40 231q-28 33 -65 33
q-36 0 -68.5 -33t-52 -88.5t-19.5 -120.5q0 -50 14.5 -72.5t42.5 -22.5q45 0 105 50zM160 596h237l-9 -50h-237z" />
    <glyph glyph-name="Abreve" unicode="&#x102;" horiz-adv-x="596" 
d="M584 45l-8 -45h-244l8 45h80l7 5l-35 205h-199l-108 -205l5 -5h80l-8 -45h-207l8 45h60l4 3l329 602h42l113 -601l3 -4h70zM385 295l-40 239h-5l-126 -239h171zM292 802q0 21 6 45h30q-4 -35 14 -53t56 -18q35 0 58.5 18.5t30.5 52.5h32q-7 -58 -44.5 -95.5t-85.5 -37.5
q-50 0 -73.5 23.5t-23.5 64.5z" />
    <glyph glyph-name="abreve" unicode="&#x103;" horiz-adv-x="441" 
d="M421 44q-25 -22 -56 -38t-58 -16q-29 0 -42 15.5t-13 51.5q0 11 1 18q-34 -39 -72 -62t-72 -23q-44 0 -69 36t-25 104q0 75 30 142t82 107.5t113 40.5q45 0 80 -20l54 20h5l-51 -290q-4 -21 -4 -39q0 -23 10 -33t34 -10q25 0 48 9zM255 97l3 23l40 231q-28 33 -65 33
q-36 0 -68.5 -33t-52 -88.5t-19.5 -120.5q0 -50 14.5 -72.5t42.5 -22.5q45 0 105 50zM181 589q0 21 7 54h30q-1 -7 -1 -19q0 -34 16.5 -53t46.5 -19q34 0 56 23.5t31 67.5h32q-10 -65 -43.5 -109t-84.5 -44q-45 0 -67.5 26.5t-22.5 72.5z" />
    <glyph glyph-name="Aogonek" unicode="&#x104;" horiz-adv-x="596" 
d="M584 45l-8 -45h-19q-36 0 -68 -22.5t-51 -54.5t-19 -59q0 -37 36 -37q18 0 46 13l6 -21q-34 -25 -57.5 -37t-48.5 -12q-24 0 -41 14t-17 41q0 42 38.5 92t94.5 83h-144l8 45h80l7 5l-35 205h-199l-108 -205l5 -5h80l-8 -45h-207l8 45h60l4 3l329 602h42l113 -601l3 -4h70
zM385 295l-40 239h-5l-126 -239h171z" />
    <glyph glyph-name="aogonek" unicode="&#x105;" horiz-adv-x="449" 
d="M361 -165l5 -16q-66 -49 -115 -49q-27 0 -43.5 15.5t-16.5 46.5q0 37 32 79.5t81 79.5q-23 2 -34 18t-11 48l1 17q-33 -38 -71 -61t-72 -23q-44 0 -69 36t-25 104q0 75 30 142t82 107.5t113 40.5q45 0 80 -20l54 20h5l-51 -290q-4 -21 -4 -39q0 -23 10 -33t34 -10
q25 0 48 9l5 -13q-16 -14 -55 -40l-22 -14q-42 -28 -67 -61.5t-25 -61.5q0 -23 12.5 -33.5t39.5 -10.5q24 0 49 12zM263 97q0 7 1 13t2 10l40 231q-29 33 -65 33t-68.5 -33t-52 -88.5t-19.5 -120.5q0 -50 14.5 -72.5t42.5 -22.5q23 0 50 13t55 37z" />
    <glyph glyph-name="Cacute" unicode="&#x106;" horiz-adv-x="561" 
d="M69 239q0 115 45.5 212.5t129 155.5t193.5 58q68 0 140 -26l-29 -159h-5l-38 103q-33 37 -91 37q-74 0 -131.5 -46.5t-90 -128.5t-32.5 -185q0 -107 43 -165t124 -58q97 0 182 69l20 -25q-54 -49 -108.5 -72.5t-116.5 -23.5q-107 0 -171 63.5t-64 190.5zM484 842h102v-5
l-167 -129h-35z" />
    <glyph glyph-name="cacute" unicode="&#x107;" horiz-adv-x="339" 
d="M22 131q0 70 26 137t74 109.5t110 42.5q52 0 91 -29l-20 -124h-4l-26 53q-17 35 -31.5 49.5t-31.5 14.5q-31 0 -56.5 -34.5t-39.5 -88.5t-14 -108t18 -80.5t60 -26.5q27 0 60 9.5t56 20.5l5 -13q-86 -73 -161 -73q-56 0 -86 38t-30 103zM288 664h97v-5l-135 -179h-30z
" />
    <glyph glyph-name="Ccircumflex" unicode="&#x108;" horiz-adv-x="561" 
d="M69 239q0 115 45.5 212.5t129 155.5t193.5 58q68 0 140 -26l-29 -159h-5l-38 103q-33 37 -91 37q-74 0 -131.5 -46.5t-90 -128.5t-32.5 -185q0 -107 43 -165t124 -58q97 0 182 69l20 -25q-54 -49 -108.5 -72.5t-116.5 -23.5q-107 0 -171 63.5t-64 190.5zM434 842h49
l89 -134h-29l-88 64l-120 -64h-29z" />
    <glyph glyph-name="ccircumflex" unicode="&#x109;" horiz-adv-x="339" 
d="M22 131q0 70 26 137t74 109.5t110 42.5q52 0 91 -29l-20 -124h-4l-26 53q-17 35 -31.5 49.5t-31.5 14.5q-31 0 -56.5 -34.5t-39.5 -88.5t-14 -108t18 -80.5t60 -26.5q27 0 60 9.5t56 20.5l5 -13q-86 -73 -161 -73q-56 0 -86 38t-30 103zM228 664h39l75 -184h-26l-76 100
l-108 -100h-28z" />
    <glyph glyph-name="Cdotaccent" unicode="&#x10a;" horiz-adv-x="561" 
d="M69 239q0 115 45.5 212.5t129 155.5t193.5 58q68 0 140 -26l-29 -159h-5l-38 103q-33 37 -91 37q-74 0 -131.5 -46.5t-90 -128.5t-32.5 -185q0 -107 43 -165t124 -58q97 0 182 69l20 -25q-54 -49 -108.5 -72.5t-116.5 -23.5q-107 0 -171 63.5t-64 190.5zM384 777
q0 24 16.5 41.5t39.5 17.5q21 0 35 -16.5t13 -38.5q-2 -22 -18.5 -38t-36.5 -16q-21 0 -35 14.5t-14 35.5z" />
    <glyph glyph-name="cdotaccent" unicode="&#x10b;" horiz-adv-x="339" 
d="M22 131q0 70 26 137t74 109.5t110 42.5q52 0 91 -29l-20 -124h-4l-26 53q-17 35 -31.5 49.5t-31.5 14.5q-31 0 -56.5 -34.5t-39.5 -88.5t-14 -108t18 -80.5t60 -26.5q27 0 60 9.5t56 20.5l5 -13q-86 -73 -161 -73q-56 0 -86 38t-30 103zM206 574q0 24 16.5 41.5
t39.5 17.5q21 0 35 -16.5t13 -38.5q-2 -22 -18.5 -38t-36.5 -16q-21 0 -35 14.5t-14 35.5z" />
    <glyph glyph-name="Ccaron" unicode="&#x10c;" horiz-adv-x="561" 
d="M69 239q0 115 45.5 212.5t129 155.5t193.5 58q68 0 140 -26l-29 -159h-5l-38 103q-33 37 -91 37q-74 0 -131.5 -46.5t-90 -128.5t-32.5 -185q0 -107 43 -165t124 -58q97 0 182 69l20 -25q-54 -49 -108.5 -72.5t-116.5 -23.5q-107 0 -171 63.5t-64 190.5zM325 842h29
l88 -64l120 64h29l-128 -134h-49z" />
    <glyph glyph-name="ccaron" unicode="&#x10d;" horiz-adv-x="339" 
d="M22 131q0 70 26 137t74 109.5t110 42.5q52 0 91 -29l-20 -124h-4l-26 53q-17 35 -31.5 49.5t-31.5 14.5q-31 0 -56.5 -34.5t-39.5 -88.5t-14 -108t18 -80.5t60 -26.5q27 0 60 9.5t56 20.5l5 -13q-86 -73 -161 -73q-56 0 -86 38t-30 103zM154 671h28l74 -100l105 100h29
l-122 -184h-39z" />
    <glyph glyph-name="Dcaron" unicode="&#x10e;" horiz-adv-x="690" 
d="M38 45h70l6 5l96 540l-83 48l2 12h252q147 0 219.5 -68.5t72.5 -187.5q0 -112 -52 -202t-148 -141t-222 -51h-221zM259 45q98 0 171 41.5t113 118.5t40 181q0 219 -228 219h-62l-99 -560h65zM287 840h29l88 -64l120 64h29l-128 -134h-49z" />
    <glyph glyph-name="dcaron" unicode="&#x10f;" horiz-adv-x="507" 
d="M426 57l5 -13q-25 -22 -56 -38t-58 -16q-29 0 -42 15.5t-13 51.5q0 17 1 26q-74 -93 -146 -93q-48 0 -75 36.5t-27 103.5q0 75 30 142t82 107.5t113 40.5q39 0 77 -18l38 218l-60 29l2 9l140 62l5 -3l-104 -587q-4 -21 -4 -39q0 -23 10 -33t34 -10q25 0 48 9zM307 341
q-33 43 -74 43q-36 0 -68.5 -33t-52 -88.5t-19.5 -120.5q0 -50 15.5 -72.5t46.5 -22.5q23 0 52 16t59 44l2 13zM500 707h84l-97 -194h-33z" />
    <glyph glyph-name="Dcroat" unicode="&#x110;" horiz-adv-x="690" 
d="M673 397q0 -105 -49.5 -196t-142.5 -146t-218 -55h-233l8 45h70l6 5l46 261h-76l8 45h76l42 234l-83 48l2 12h252q147 0 219.5 -68t72.5 -185zM583 388q0 217 -228 217h-62l-44 -249h129l-8 -45h-129l-47 -266h77q97 0 167.5 45.5t107.5 123.5t37 174z" />
    <glyph glyph-name="dcroat" unicode="&#x111;" horiz-adv-x="457" 
d="M338 130q-4 -21 -4 -39q0 -23 10 -33t34 -10q25 0 48 9l5 -13q-25 -22 -56 -38t-58 -16q-29 0 -42 15.5t-13 51.5q0 17 1 26q-34 -42 -76 -67.5t-78 -25.5q-44 0 -69 36t-25 104q0 75 30 142t82 107.5t113 40.5q39 0 77 -18l17 98h-107l8 45h107l13 75l-60 29l2 9l140 62
l5 -3l-30 -172h84l-8 -45h-84zM307 341q-33 43 -74 43q-36 0 -68.5 -33t-52 -88.5t-19.5 -120.5q0 -50 15.5 -72.5t46.5 -22.5q23 0 52 16t59 44l2 13z" />
    <glyph glyph-name="Emacron" unicode="&#x112;" horiz-adv-x="566" 
d="M553 650l-27 -166h-5l-55 121h-173l-42 -238h133l6 5l13 75h45l-36 -205h-45l13 75l-4 5h-133l-49 -277h208l107 120h5l-39 -165h-445l8 45h70l6 5l96 540l-83 48l2 12h424zM273 793h237l-9 -50h-237z" />
    <glyph glyph-name="emacron" unicode="&#x113;" horiz-adv-x="344" 
d="M294 76l5 -13q-39 -35 -80.5 -54t-80.5 -19q-55 0 -85.5 36.5t-30.5 106.5q0 75 28 141t77 106t109 40q41 0 65.5 -22t24.5 -57q0 -50 -51.5 -92.5t-174.5 -75.5v-18q0 -58 19.5 -83.5t59.5 -25.5q25 0 57 8.5t58 21.5zM103 209q150 41 150 132q0 20 -9 31.5t-27 11.5
q-23 0 -47 -21.5t-42 -61.5t-25 -92zM134 596h237l-9 -50h-237z" />
    <glyph glyph-name="Ebreve" unicode="&#x114;" horiz-adv-x="566" 
d="M553 650l-27 -166h-5l-55 121h-173l-42 -238h133l6 5l13 75h45l-36 -205h-45l13 75l-4 5h-133l-49 -277h208l107 120h5l-39 -165h-445l8 45h70l6 5l96 540l-83 48l2 12h424zM292 802q0 21 6 45h30q-4 -35 14 -53t56 -18q35 0 58.5 18.5t30.5 52.5h32q-7 -58 -44.5 -95.5
t-85.5 -37.5q-50 0 -73.5 23.5t-23.5 64.5z" />
    <glyph glyph-name="ebreve" unicode="&#x115;" horiz-adv-x="344" 
d="M294 76l5 -13q-39 -35 -80.5 -54t-80.5 -19q-55 0 -85.5 36.5t-30.5 106.5q0 75 28 141t77 106t109 40q41 0 65.5 -22t24.5 -57q0 -50 -51.5 -92.5t-174.5 -75.5v-18q0 -58 19.5 -83.5t59.5 -25.5q25 0 57 8.5t58 21.5zM103 209q150 41 150 132q0 20 -9 31.5t-27 11.5
q-23 0 -47 -21.5t-42 -61.5t-25 -92zM147 589q0 21 7 54h30q-1 -7 -1 -19q0 -34 16.5 -53t46.5 -19q34 0 56 23.5t31 67.5h32q-10 -65 -43.5 -109t-84.5 -44q-45 0 -67.5 26.5t-22.5 72.5z" />
    <glyph glyph-name="Edotaccent" unicode="&#x116;" horiz-adv-x="566" 
d="M553 650l-27 -166h-5l-55 121h-173l-42 -238h133l6 5l13 75h45l-36 -205h-45l13 75l-4 5h-133l-49 -277h208l107 120h5l-39 -165h-445l8 45h70l6 5l96 540l-83 48l2 12h424zM336 775q0 24 16.5 41.5t39.5 17.5q21 0 35 -16.5t13 -38.5q-2 -22 -18.5 -38t-36.5 -16
q-21 0 -35 14.5t-14 35.5z" />
    <glyph glyph-name="edotaccent" unicode="&#x117;" horiz-adv-x="344" 
d="M294 76l5 -13q-39 -35 -80.5 -54t-80.5 -19q-55 0 -85.5 36.5t-30.5 106.5q0 75 28 141t77 106t109 40q41 0 65.5 -22t24.5 -57q0 -50 -51.5 -92.5t-174.5 -75.5v-18q0 -58 19.5 -83.5t59.5 -25.5q25 0 57 8.5t58 21.5zM103 209q150 41 150 132q0 20 -9 31.5t-27 11.5
q-23 0 -47 -21.5t-42 -61.5t-25 -92zM197 574q0 24 16.5 41.5t39.5 17.5q21 0 35 -16.5t13 -38.5q-2 -22 -18.5 -38t-36.5 -16q-21 0 -35 14.5t-14 35.5z" />
    <glyph glyph-name="Eogonek" unicode="&#x118;" horiz-adv-x="566" 
d="M553 650l-27 -166h-5l-55 121h-173l-42 -238h133l6 5l13 75h45l-36 -205h-45l13 75l-4 5h-133l-49 -277h208l107 120h5l-39 -165q-36 0 -68 -22.5t-51 -54.5t-19 -59q0 -37 36 -37q18 0 46 13l6 -21q-34 -25 -57.5 -37t-48.5 -12q-24 0 -41 14t-17 41q0 42 38.5 92
t94.5 83h-364l8 45h70l6 5l96 540l-83 48l2 12h424z" />
    <glyph glyph-name="eogonek" unicode="&#x119;" horiz-adv-x="344" 
d="M106 -133q0 -23 12.5 -33.5t39.5 -10.5q24 0 49 12l5 -16q-66 -49 -115 -49q-27 0 -43.5 15.5t-16.5 46.5q0 37 32 79.5t81 78.5h-12q-55 0 -85.5 36.5t-30.5 106.5q0 75 28 141t77 106t109 40q41 0 65.5 -22t24.5 -57q0 -50 -51.5 -92.5t-174.5 -75.5v-18
q0 -58 19.5 -83.5t59.5 -25.5q25 0 57 8.5t58 21.5l5 -13q-28 -25 -60.5 -46.5t-40.5 -26.5q-42 -28 -67 -61.5t-25 -61.5zM103 209q150 41 150 132q0 20 -9 31.5t-27 11.5q-23 0 -47 -21.5t-42 -61.5t-25 -92z" />
    <glyph glyph-name="Ecaron" unicode="&#x11a;" horiz-adv-x="566" 
d="M553 650l-27 -166h-5l-55 121h-173l-42 -238h133l6 5l13 75h45l-36 -205h-45l13 75l-4 5h-133l-49 -277h208l107 120h5l-39 -165h-445l8 45h70l6 5l96 540l-83 48l2 12h424zM266 840h29l88 -64l120 64h29l-128 -134h-49z" />
    <glyph glyph-name="ecaron" unicode="&#x11b;" horiz-adv-x="344" 
d="M294 76l5 -13q-39 -35 -80.5 -54t-80.5 -19q-55 0 -85.5 36.5t-30.5 106.5q0 75 28 141t77 106t109 40q41 0 65.5 -22t24.5 -57q0 -50 -51.5 -92.5t-174.5 -75.5v-18q0 -58 19.5 -83.5t59.5 -25.5q25 0 57 8.5t58 21.5zM103 209q150 41 150 132q0 20 -9 31.5t-27 11.5
q-23 0 -47 -21.5t-42 -61.5t-25 -92zM144 671h28l74 -100l105 100h29l-122 -184h-39z" />
    <glyph glyph-name="Gcircumflex" unicode="&#x11c;" horiz-adv-x="685" 
d="M685 306l-8 -45h-74l-7 -5l-39 -219q-94 -52 -199 -52q-131 0 -208 73.5t-77 207.5q0 111 50 202.5t139.5 144t204.5 52.5q55 0 101.5 -11t94.5 -33l-29 -159h-5l-38 103q-30 26 -70.5 40t-83.5 14q-77 0 -139.5 -44t-98 -125.5t-35.5 -188.5q0 -118 51 -174t136 -56
q75 0 131 34l34 191l-4 5h-80l8 45h245zM471 840h49l89 -134h-29l-88 64l-120 -64h-29z" />
    <glyph glyph-name="gcircumflex" unicode="&#x11d;" horiz-adv-x="422" 
d="M427 337l-85 17q9 -22 9 -52q0 -52 -24 -95.5t-67.5 -69.5t-99.5 -26h-1q-23 -6 -38 -16.5t-15 -24.5q0 -12 12.5 -20t39.5 -18l62 -22q58 -20 84 -41t26 -53q0 -41 -32.5 -74.5t-87.5 -52.5t-120 -19q-75 0 -118.5 24t-43.5 69q0 43 39 77t101 52q-26 18 -26 46
q0 24 22 44.5t57 32.5q-41 10 -63.5 40.5t-22.5 78.5q0 50 24 92.5t68 68t101 25.5q68 0 99 -39l111 47zM273 299q0 34 -14 59.5t-47 25.5q-43 0 -71 -43t-28 -103q0 -91 58 -91q30 0 53.5 22.5t36 58t12.5 71.5zM118 -34q-20 7 -33 15q-88 -42 -88 -105q0 -34 27.5 -51.5
t72.5 -17.5q66 0 116.5 22t50.5 56q0 18 -20 29.5t-81 34.5zM240 664h39l75 -184h-26l-76 100l-108 -100h-28z" />
    <glyph glyph-name="Gbreve" unicode="&#x11e;" horiz-adv-x="685" 
d="M685 306l-8 -45h-74l-7 -5l-39 -219q-94 -52 -199 -52q-131 0 -208 73.5t-77 207.5q0 111 50 202.5t139.5 144t204.5 52.5q55 0 101.5 -11t94.5 -33l-29 -159h-5l-38 103q-30 26 -70.5 40t-83.5 14q-77 0 -139.5 -44t-98 -125.5t-35.5 -188.5q0 -118 51 -174t136 -56
q75 0 131 34l34 191l-4 5h-80l8 45h245zM385 802q0 21 6 45h30q-4 -35 14 -53t56 -18q35 0 58.5 18.5t30.5 52.5h32q-7 -58 -44.5 -95.5t-85.5 -37.5q-50 0 -73.5 23.5t-23.5 64.5z" />
    <glyph glyph-name="gbreve" unicode="&#x11f;" horiz-adv-x="422" 
d="M427 337l-85 17q9 -22 9 -52q0 -52 -24 -95.5t-67.5 -69.5t-99.5 -26h-1q-23 -6 -38 -16.5t-15 -24.5q0 -12 12.5 -20t39.5 -18l62 -22q58 -20 84 -41t26 -53q0 -41 -32.5 -74.5t-87.5 -52.5t-120 -19q-75 0 -118.5 24t-43.5 69q0 43 39 77t101 52q-26 18 -26 46
q0 24 22 44.5t57 32.5q-41 10 -63.5 40.5t-22.5 78.5q0 50 24 92.5t68 68t101 25.5q68 0 99 -39l111 47zM273 299q0 34 -14 59.5t-47 25.5q-43 0 -71 -43t-28 -103q0 -91 58 -91q30 0 53.5 22.5t36 58t12.5 71.5zM118 -34q-20 7 -33 15q-88 -42 -88 -105q0 -34 27.5 -51.5
t72.5 -17.5q66 0 116.5 22t50.5 56q0 18 -20 29.5t-81 34.5zM154 589q0 21 7 54h30q-1 -7 -1 -19q0 -34 16.5 -53t46.5 -19q34 0 56 23.5t31 67.5h32q-10 -65 -43.5 -109t-84.5 -44q-45 0 -67.5 26.5t-22.5 72.5z" />
    <glyph glyph-name="Gdotaccent" unicode="&#x120;" horiz-adv-x="685" 
d="M685 306l-8 -45h-74l-7 -5l-39 -219q-94 -52 -199 -52q-131 0 -208 73.5t-77 207.5q0 111 50 202.5t139.5 144t204.5 52.5q55 0 101.5 -11t94.5 -33l-29 -159h-5l-38 103q-30 26 -70.5 40t-83.5 14q-77 0 -139.5 -44t-98 -125.5t-35.5 -188.5q0 -118 51 -174t136 -56
q75 0 131 34l34 191l-4 5h-80l8 45h245zM417 775q0 24 16.5 41.5t39.5 17.5q21 0 35 -16.5t13 -38.5q-2 -22 -18.5 -38t-36.5 -16q-21 0 -35 14.5t-14 35.5z" />
    <glyph glyph-name="gdotaccent" unicode="&#x121;" horiz-adv-x="422" 
d="M427 337l-85 17q9 -22 9 -52q0 -52 -24 -95.5t-67.5 -69.5t-99.5 -26h-1q-23 -6 -38 -16.5t-15 -24.5q0 -12 12.5 -20t39.5 -18l62 -22q58 -20 84 -41t26 -53q0 -41 -32.5 -74.5t-87.5 -52.5t-120 -19q-75 0 -118.5 24t-43.5 69q0 43 39 77t101 52q-26 18 -26 46
q0 24 22 44.5t57 32.5q-41 10 -63.5 40.5t-22.5 78.5q0 50 24 92.5t68 68t101 25.5q68 0 99 -39l111 47zM273 299q0 34 -14 59.5t-47 25.5q-43 0 -71 -43t-28 -103q0 -91 58 -91q30 0 53.5 22.5t36 58t12.5 71.5zM118 -34q-20 7 -33 15q-88 -42 -88 -105q0 -34 27.5 -51.5
t72.5 -17.5q66 0 116.5 22t50.5 56q0 18 -20 29.5t-81 34.5zM197 574q0 24 16.5 41.5t39.5 17.5q21 0 35 -16.5t13 -38.5q-2 -22 -18.5 -38t-36.5 -16q-21 0 -35 14.5t-14 35.5z" />
    <glyph glyph-name="Gcommaaccent" unicode="&#x122;" horiz-adv-x="685" 
d="M685 306l-8 -45h-74l-7 -5l-39 -219q-94 -52 -199 -52q-131 0 -208 73.5t-77 207.5q0 111 50 202.5t139.5 144t204.5 52.5q55 0 101.5 -11t94.5 -33l-29 -159h-5l-38 103q-30 26 -70.5 40t-83.5 14q-77 0 -139.5 -44t-98 -125.5t-35.5 -188.5q0 -118 51 -174t136 -56
q75 0 131 34l34 191l-4 5h-80l8 45h245zM374 -107q0 -39 -31 -73t-79 -52l-7 19q27 12 43 29t19 35q-17 0 -27 10.5t-10 27.5q0 21 14.5 36t35.5 15q20 0 31 -13t11 -34z" />
    <glyph glyph-name="gcommaaccent" unicode="&#x123;" horiz-adv-x="423" 
d="M300 546q0 -21 -14.5 -36t-35.5 -15q-20 0 -31 13t-11 34q0 39 31 73t79 52l7 -19q-27 -12 -43 -29t-19 -35q17 0 27 -10.5t10 -27.5zM427 337l-85 17q9 -22 9 -52q0 -52 -24 -95.5t-67.5 -69.5t-99.5 -26h-1q-23 -6 -38 -16.5t-15 -24.5q0 -12 12.5 -20t39.5 -18l62 -22
q58 -20 84 -41t26 -53q0 -41 -32.5 -74.5t-87.5 -52.5t-120 -19q-75 0 -118.5 24t-43.5 69q0 43 39 77t101 52q-26 18 -26 46q0 24 22 44.5t57 32.5q-41 10 -63.5 40.5t-22.5 78.5q0 50 24 92.5t68 68t101 25.5q68 0 99 -39l111 47zM273 299q0 34 -14 59.5t-47 25.5
q-43 0 -71 -43t-28 -103q0 -91 58 -91q30 0 53.5 22.5t36 58t12.5 71.5zM118 -34q-20 7 -33 15q-88 -42 -88 -105q0 -34 27.5 -51.5t72.5 -17.5q66 0 116.5 22t50.5 56q0 18 -20 29.5t-81 34.5z" />
    <glyph glyph-name="Hcircumflex" unicode="&#x124;" horiz-adv-x="753" 
d="M783 650l-2 -12l-97 -49l-96 -539l4 -5h70l-8 -45h-230l8 45h70l6 5l48 272h-314l-48 -272l4 -5h70l-8 -45h-230l8 45h70l6 5l96 540l-83 48l2 12h260l-2 -12l-97 -49l-40 -222h314l40 223l-83 48l2 12h260zM457 840h49l89 -134h-29l-88 64l-120 -64h-29z" />
    <glyph glyph-name="hcircumflex" unicode="&#x125;" horiz-adv-x="468" 
d="M444 44q-25 -22 -56 -38t-58 -16q-59 0 -59 68q0 22 8 62l34 161q5 25 5 39q0 43 -41 43q-53 0 -121 -60l-54 -303h-69l109 620l-60 29l2 9l140 62l5 -3l-69 -390q82 93 155 93q35 0 55.5 -20.5t20.5 -59.5q0 -19 -4 -38l-38 -178q-4 -17 -4 -33q0 -24 12 -33.5t34 -9.5
q25 0 48 9zM192 864h49l89 -134h-29l-88 64l-120 -64h-29z" />
    <glyph glyph-name="Hbar" unicode="&#x126;" horiz-adv-x="753" 
d="M684 589l-14 -81h73l-8 -45h-73l-74 -413l4 -5h70l-8 -45h-230l8 45h70l6 5l48 272h-314l-48 -272l4 -5h70l-8 -45h-230l8 45h70l6 5l73 413h-76l8 45h76l15 82l-83 48l2 12h260l-2 -12l-97 -49l-14 -81h313l15 82l-83 48l2 12h260l-2 -12zM581 463h-313l-18 -96h314z
" />
    <glyph glyph-name="hbar" unicode="&#x127;" horiz-adv-x="468" 
d="M444 44q-25 -22 -56 -38t-58 -16q-59 0 -59 68q0 22 8 62l34 161q5 25 5 39q0 43 -41 43q-53 0 -121 -60l-54 -303h-69l88 500h-67l8 45h67l13 75l-60 29l2 9l140 62l5 -3l-30 -172h109l-8 -45h-109l-31 -173q82 93 155 93q35 0 55.5 -20.5t20.5 -59.5q0 -19 -4 -38
l-38 -178q-4 -17 -4 -33q0 -24 12 -33.5t34 -9.5q25 0 48 9z" />
    <glyph glyph-name="Itilde" unicode="&#x128;" horiz-adv-x="359" 
d="M38 45h70l6 5l96 540l-83 48l2 12h260l-2 -12l-97 -49l-96 -539l4 -5h70l-8 -45h-230zM140 729q18 43 42.5 69.5t55.5 26.5q20 0 34 -6t32 -18q14 -10 24.5 -14.5t23.5 -4.5q15 0 25.5 11t24.5 36l22 -10q-17 -42 -41.5 -69t-55.5 -27q-17 0 -29.5 5.5t-30.5 17.5
q-18 11 -27 15.5t-22 4.5q-17 0 -29.5 -12t-25.5 -36z" />
    <glyph glyph-name="itilde" unicode="&#x129;" horiz-adv-x="241" 
d="M23 524q18 43 42.5 69.5t55.5 26.5q17 0 29 -6t29 -17q14 -10 24 -15t22 -5q15 0 25.5 11t24.5 36l22 -10q-17 -42 -41.5 -69t-55.5 -27q-17 0 -29 6t-30 18q-12 10 -21 14.5t-19 4.5q-17 0 -29.5 -12t-25.5 -36zM47 58q0 28 7 62l38 201l-60 29l1 9l141 62l5 -3
l-55 -288q-4 -20 -4 -39q0 -23 10.5 -33t33.5 -10q26 0 48 9l5 -13q-24 -22 -54.5 -38t-57.5 -16q-30 0 -44 16.5t-14 51.5z" />
    <glyph glyph-name="Imacron" unicode="&#x12a;" horiz-adv-x="359" 
d="M38 45h70l6 5l96 540l-83 48l2 12h260l-2 -12l-97 -49l-96 -539l4 -5h70l-8 -45h-230zM162 793h237l-9 -50h-237z" />
    <glyph glyph-name="imacron" unicode="&#x12b;" horiz-adv-x="241" 
d="M52 595h214l-9 -50h-214zM47 58q0 28 7 62l38 201l-60 29l1 9l141 62l5 -3l-55 -288q-4 -20 -4 -39q0 -23 10.5 -33t33.5 -10q26 0 48 9l5 -13q-24 -22 -54.5 -38t-57.5 -16q-30 0 -44 16.5t-14 51.5z" />
    <glyph glyph-name="Ibreve" unicode="&#x12c;" horiz-adv-x="359" 
d="M38 45h70l6 5l96 540l-83 48l2 12h260l-2 -12l-97 -49l-96 -539l4 -5h70l-8 -45h-230zM175 802q0 21 6 45h30q-4 -35 14 -53t56 -18q35 0 58.5 18.5t30.5 52.5h32q-7 -58 -44.5 -95.5t-85.5 -37.5q-50 0 -73.5 23.5t-23.5 64.5z" />
    <glyph glyph-name="ibreve" unicode="&#x12d;" horiz-adv-x="241" 
d="M47 58q0 28 7 62l38 201l-60 29l1 9l141 62l5 -3l-55 -288q-4 -20 -4 -39q0 -23 10.5 -33t33.5 -10q26 0 48 9l5 -13q-24 -22 -54.5 -38t-57.5 -16q-30 0 -44 16.5t-14 51.5zM75 589q0 21 7 54h30q-1 -7 -1 -19q0 -34 16.5 -53t46.5 -19q34 0 56 23.5t31 67.5h32
q-10 -65 -43.5 -109t-84.5 -44q-45 0 -67.5 26.5t-22.5 72.5z" />
    <glyph glyph-name="Iogonek" unicode="&#x12e;" horiz-adv-x="358" 
d="M38 45h70l6 5l96 540l-83 48l2 12h260l-2 -12l-97 -49l-96 -539l4 -5h70l-8 -45h-230zM47 -175q0 42 38.5 92t94.5 83h81q-36 0 -68 -22.5t-51 -54.5t-19 -59q0 -37 36 -37q18 0 46 13l6 -21q-34 -25 -57.5 -37t-48.5 -12q-24 0 -41 14t-17 41z" />
    <glyph glyph-name="iogonek" unicode="&#x12f;" horiz-adv-x="241" 
d="M217 578q-2 -22 -18.5 -38t-36.5 -16q-21 0 -35 14.5t-14 35.5q0 24 16.5 41.5t39.5 17.5q21 0 35 -16.5t13 -38.5zM48 -133q0 -23 12.5 -33.5t39.5 -10.5q24 0 49 12l5 -16q-67 -49 -115 -49q-27 0 -43.5 15.5t-16.5 46.5q0 37 32.5 80.5t81.5 78.5q-24 3 -35 19t-11 48
q0 28 7 62l38 201l-60 29l1 9l141 62l5 -3l-55 -288q-4 -20 -4 -39q0 -23 10.5 -33t33.5 -10q26 0 48 9l5 -13q-16 -14 -55 -40l-22 -14q-42 -28 -67 -61.5t-25 -61.5z" />
    <glyph glyph-name="Idotaccent" unicode="&#x130;" horiz-adv-x="359" 
d="M38 45h70l6 5l96 540l-83 48l2 12h260l-2 -12l-97 -49l-96 -539l4 -5h70l-8 -45h-230zM230 775q0 24 16.5 41.5t39.5 17.5q21 0 35 -16.5t13 -38.5q-2 -22 -18.5 -38t-36.5 -16q-21 0 -35 14.5t-14 35.5z" />
    <glyph glyph-name="dotlessi" unicode="&#x131;" horiz-adv-x="241" 
d="M47 58q0 28 7 62l38 201l-60 29l1 9l141 62l5 -3l-55 -288q-4 -20 -4 -39q0 -23 10.5 -33t33.5 -10q26 0 48 9l5 -13q-24 -22 -54.5 -38t-57.5 -16q-30 0 -44 16.5t-14 51.5z" />
    <glyph glyph-name="IJ" unicode="&#x132;" horiz-adv-x="709" 
d="M38 45h70l6 5l96 540l-83 48l2 12h260l-2 -12l-97 -49l-96 -539l4 -5h70l-8 -45h-230zM321 -152q72 47 108 109t56 177l80 456l-83 48l2 12h260l-2 -12l-97 -49l-87 -495q-14 -77 -38.5 -123.5t-68 -78.5t-121.5 -64z" />
    <glyph glyph-name="Jcircumflex" unicode="&#x134;" horiz-adv-x="350" 
d="M-38 -152q72 47 108 109t56 177l80 456l-83 48l2 12h260l-2 -12l-97 -49l-87 -495q-14 -77 -38.5 -123.5t-68 -78.5t-121.5 -64zM255 840h49l89 -134h-29l-88 64l-120 -64h-29z" />
    <glyph glyph-name="jcircumflex" unicode="&#x135;" horiz-adv-x="250" 
d="M-77 -197q59 27 89.5 67t44.5 117l59 334l-61 29l2 9l141 62l5 -3l-74 -418q-18 -99 -65 -147.5t-138 -69.5zM187 664h39l75 -184h-26l-76 100l-108 -100h-28z" />
    <glyph glyph-name="Kcommaaccent" unicode="&#x136;" horiz-adv-x="640" 
d="M38 45h70l6 5l96 540l-83 48l2 12h250l-2 -12l-87 -49l-96 -539l4 -5h70l-8 -45h-230zM379 45h60l6 5l-189 264l266 276l-73 48l2 12h218l-2 -12l-77 -49l-252 -250l203 -289l7 -5h60l-8 -45h-229zM347 -107q0 -39 -31 -73t-79 -52l-7 19q27 12 43 29t19 35
q-17 0 -27 10.5t-10 27.5q0 21 14.5 36t35.5 15q20 0 31 -13t11 -34z" />
    <glyph glyph-name="kcommaaccent" unicode="&#x137;" horiz-adv-x="433" 
d="M228 717l-126 -717h-68l107 620l-60 29l2 9l140 62zM439 407l-202 -144l28 -81q19 -54 32 -82t27.5 -40.5t34.5 -12.5t46 10l9 -13q-29 -26 -51 -40t-46 -14q-39 0 -61.5 31.5t-51.5 111.5l-38 105l150 119l-47 48l1 5h169v-3zM226 -106q0 -39 -31 -73t-79 -52l-7 19
q27 12 43 29t19 35q-17 0 -27 10.5t-10 27.5q0 21 14.5 36t35.5 15q20 0 31 -13t11 -34z" />
    <glyph glyph-name="kgreenlandic" unicode="&#x138;" horiz-adv-x="437" 
d="M179 418l-73 -418h-68l55 321l-61 29l2 9l140 62zM443 407l-202 -144l28 -81q19 -54 32 -82t27.5 -40.5t34.5 -12.5t46 10l9 -13q-29 -26 -51 -40t-46 -14q-39 0 -61.5 31.5t-51.5 111.5l-38 105l150 119l-47 48l1 5h169v-3z" />
    <glyph glyph-name="Lacute" unicode="&#x139;" horiz-adv-x="526" 
d="M38 45h70l6 5l96 540l-83 48l2 12h260l-2 -12l-97 -49l-96 -544h198l87 120h10l-29 -165h-430zM335 840h102v-5l-167 -129h-35z" />
    <glyph glyph-name="lacute" unicode="&#x13a;" horiz-adv-x="251" 
d="M49 57q0 26 6 63l87 500l-60 29l2 9l140 62l5 -3l-104 -587q-4 -21 -4 -39q0 -23 10 -33t34 -10q25 0 48 9l5 -13q-25 -22 -56 -38t-58 -16q-29 0 -42 15.5t-13 51.5zM222 871h102v-5l-167 -129h-35z" />
    <glyph glyph-name="Lcommaaccent" unicode="&#x13b;" horiz-adv-x="526" 
d="M38 45h70l6 5l96 540l-83 48l2 12h260l-2 -12l-97 -49l-96 -544h198l87 120h10l-29 -165h-430zM303 -107q0 -39 -31 -73t-79 -52l-7 19q27 12 43 29t19 35q-17 0 -27 10.5t-10 27.5q0 21 14.5 36t35.5 15q20 0 31 -13t11 -34z" />
    <glyph glyph-name="lcommaaccent" unicode="&#x13c;" horiz-adv-x="251" 
d="M49 57q0 26 6 63l87 500l-60 29l2 9l140 62l5 -3l-104 -587q-4 -21 -4 -39q0 -23 10 -33t34 -10q25 0 48 9l5 -13q-25 -22 -56 -38t-58 -16q-29 0 -42 15.5t-13 51.5zM132 -106q0 -39 -31 -73t-79 -52l-7 19q27 12 43 29t19 35q-17 0 -27 10.5t-10 27.5q0 21 14.5 36
t35.5 15q20 0 31 -13t11 -34z" />
    <glyph glyph-name="Lcaron" unicode="&#x13d;" horiz-adv-x="526" 
d="M38 45h70l6 5l96 540l-83 48l2 12h260l-2 -12l-97 -49l-96 -544h198l87 120h10l-29 -165h-430zM474 651h84l-97 -194h-33z" />
    <glyph glyph-name="lcaron" unicode="&#x13e;" horiz-adv-x="294" 
d="M49 57q0 26 6 63l87 500l-60 29l2 9l140 62l5 -3l-104 -587q-4 -21 -4 -39q0 -23 10 -33t34 -10q25 0 48 9l5 -13q-25 -22 -56 -38t-58 -16q-29 0 -42 15.5t-13 51.5zM287 707h84l-97 -194h-33z" />
    <glyph glyph-name="Ldot" unicode="&#x13f;" horiz-adv-x="526" 
d="M347 338q0 24 16.5 41.5t39.5 17.5q21 0 35 -16.5t13 -38.5q-2 -22 -18.5 -38t-36.5 -16q-21 0 -35 14.5t-14 35.5zM38 45h70l6 5l96 540l-83 48l2 12h260l-2 -12l-97 -49l-96 -544h198l87 120h10l-29 -165h-430z" />
    <glyph glyph-name="ldot" unicode="&#x140;" horiz-adv-x="271" 
d="M49 57q0 26 6 63l87 500l-60 29l2 9l140 62l5 -3l-104 -587q-4 -21 -4 -39q0 -23 10 -33t34 -10q25 0 48 9l5 -13q-25 -22 -56 -38t-58 -16q-29 0 -42 15.5t-13 51.5zM212 359q0 24 16.5 41.5t39.5 17.5q21 0 35 -16.5t13 -38.5q-2 -22 -18.5 -38t-36.5 -16
q-21 0 -35 14.5t-14 35.5z" />
    <glyph glyph-name="Lslash" unicode="&#x141;" horiz-adv-x="526" 
d="M489 165l-29 -165h-430l8 45h70l6 5l40 225l-85 -33l9 49l85 33l47 266l-83 48l2 12h260l-2 -12l-97 -49l-42 -239l144 59l-9 -50l-144 -59l-45 -255h198l87 120h10z" />
    <glyph glyph-name="lslash" unicode="&#x142;" horiz-adv-x="251" 
d="M125 130q-4 -21 -4 -39q0 -23 10 -33t34 -10q25 0 48 9l5 -13q-25 -22 -56 -38t-58 -16q-29 0 -42 15.5t-13 51.5q0 26 6 63l37 211l-77 -30l9 49l76 30l42 240l-60 29l2 9l140 62l5 -3l-56 -315l85 34l-9 -50l-85 -34z" />
    <glyph glyph-name="Nacute" unicode="&#x143;" horiz-adv-x="738" 
d="M774 650l-2 -12l-97 -49l-104 -589h-23l-293 543l-87 -493l4 -5h80l-8 -45h-214l8 45h70l6 5l96 540l-83 48l2 12h160l260 -495l75 435l-83 48l2 12h231zM529 840h102v-5l-167 -129h-35z" />
    <glyph glyph-name="nacute" unicode="&#x144;" horiz-adv-x="472" 
d="M448 44q-25 -22 -56 -38t-58 -16q-59 0 -59 68q0 22 8 62l34 161q5 25 5 39q0 43 -41 43q-51 0 -121 -60l-53 -303h-70l56 321l-61 29l2 9l138 62l5 -3l-13 -91q82 93 155 93q35 0 55.5 -20.5t20.5 -59.5q0 -19 -4 -38l-38 -178q-4 -17 -4 -33q0 -24 12 -33.5t34 -9.5
q25 0 48 9zM319 664h97v-5l-135 -179h-30z" />
    <glyph glyph-name="Ncommaaccent" unicode="&#x145;" horiz-adv-x="738" 
d="M774 650l-2 -12l-97 -49l-104 -589h-23l-293 543l-87 -493l4 -5h80l-8 -45h-214l8 45h70l6 5l96 540l-83 48l2 12h160l260 -495l75 435l-83 48l2 12h231zM397 -107q0 -39 -31 -73t-79 -52l-7 19q27 12 43 29t19 35q-17 0 -27 10.5t-10 27.5q0 21 14.5 36t35.5 15
q20 0 31 -13t11 -34z" />
    <glyph glyph-name="ncommaaccent" unicode="&#x146;" horiz-adv-x="472" 
d="M448 44q-25 -22 -56 -38t-58 -16q-59 0 -59 68q0 22 8 62l34 161q5 25 5 39q0 43 -41 43q-51 0 -121 -60l-53 -303h-70l56 321l-61 29l2 9l138 62l5 -3l-13 -91q82 93 155 93q35 0 55.5 -20.5t20.5 -59.5q0 -19 -4 -38l-38 -178q-4 -17 -4 -33q0 -24 12 -33.5t34 -9.5
q25 0 48 9zM234 -107q0 -39 -31 -73t-79 -52l-7 19q27 12 43 29t19 35q-17 0 -27 10.5t-10 27.5q0 21 14.5 36t35.5 15q20 0 31 -13t11 -34z" />
    <glyph glyph-name="Ncaron" unicode="&#x147;" horiz-adv-x="738" 
d="M774 650l-2 -12l-97 -49l-104 -589h-23l-293 543l-87 -493l4 -5h80l-8 -45h-214l8 45h70l6 5l96 540l-83 48l2 12h160l260 -495l75 435l-83 48l2 12h231zM351 840h29l88 -64l120 64h29l-128 -134h-49z" />
    <glyph glyph-name="ncaron" unicode="&#x148;" horiz-adv-x="472" 
d="M448 44q-25 -22 -56 -38t-58 -16q-59 0 -59 68q0 22 8 62l34 161q5 25 5 39q0 43 -41 43q-51 0 -121 -60l-53 -303h-70l56 321l-61 29l2 9l138 62l5 -3l-13 -91q82 93 155 93q35 0 55.5 -20.5t20.5 -59.5q0 -19 -4 -38l-38 -178q-4 -17 -4 -33q0 -24 12 -33.5t34 -9.5
q25 0 48 9zM179 671h28l74 -100l105 100h29l-122 -184h-39z" />
    <glyph glyph-name="Eng" unicode="&#x14a;" horiz-adv-x="738" 
d="M774 650l-2 -12l-97 -49l-114 -649q-12 -72 -46.5 -107t-100.5 -50l-1 15q43 19 65 48.5t31 84.5l19 107l-273 505l-87 -493l4 -5h80l-8 -45h-214l8 45h70l6 5l96 540l-83 48l2 12h160l259 -494l76 434l-83 48l2 12h231z" />
    <glyph glyph-name="eng" unicode="&#x14b;" horiz-adv-x="457" 
d="M392 337q0 -15 -3 -35l-53 -302q-18 -99 -65 -147.5t-138 -69.5l-3 20q59 27 89.5 67t44.5 117l52 294q4 20 4 39q0 21 -9 32t-30 11q-51 0 -121 -60l-53 -303h-70l56 321l-61 29l2 9l138 62l5 -3l-13 -91q82 93 155 93q34 0 53.5 -21t19.5 -62z" />
    <glyph glyph-name="Omacron" unicode="&#x14c;" horiz-adv-x="713" 
d="M69 267q0 104 44 195.5t124 147t182 55.5q73 0 133.5 -34t95.5 -98t35 -149q0 -103 -43.5 -194.5t-123 -148t-182.5 -56.5q-74 0 -134.5 34t-95.5 98t-35 150zM590 376q0 115 -48 179t-133 64q-71 0 -127.5 -46.5t-88 -125t-31.5 -170.5q0 -117 47.5 -181.5t132.5 -64.5
q72 0 128.5 47t88 126t31.5 172zM338 795h237l-9 -50h-237z" />
    <glyph glyph-name="omacron" unicode="&#x14d;" horiz-adv-x="409" 
d="M18 146q0 71 28.5 134t78.5 101.5t110 38.5t98.5 -41.5t38.5 -113.5q0 -70 -28.5 -133.5t-78.5 -102.5t-110 -39q-61 0 -99 42t-38 114zM295 262q0 61 -18.5 91.5t-51.5 30.5q-35 0 -64.5 -31t-47 -85t-17.5 -120q0 -61 18.5 -91.5t51.5 -30.5q35 0 64.5 31t47 85
t17.5 120zM150 596h237l-9 -50h-237z" />
    <glyph glyph-name="Obreve" unicode="&#x14e;" horiz-adv-x="713" 
d="M69 267q0 104 44 195.5t124 147t182 55.5q73 0 133.5 -34t95.5 -98t35 -149q0 -103 -43.5 -194.5t-123 -148t-182.5 -56.5q-74 0 -134.5 34t-95.5 98t-35 150zM590 376q0 115 -48 179t-133 64q-71 0 -127.5 -46.5t-88 -125t-31.5 -170.5q0 -117 47.5 -181.5t132.5 -64.5
q72 0 128.5 47t88 126t31.5 172zM349 804q0 21 6 45h30q-4 -35 14 -53t56 -18q35 0 58.5 18.5t30.5 52.5h32q-7 -58 -44.5 -95.5t-85.5 -37.5q-50 0 -73.5 23.5t-23.5 64.5z" />
    <glyph glyph-name="obreve" unicode="&#x14f;" horiz-adv-x="409" 
d="M18 146q0 71 28.5 134t78.5 101.5t110 38.5t98.5 -41.5t38.5 -113.5q0 -70 -28.5 -133.5t-78.5 -102.5t-110 -39q-61 0 -99 42t-38 114zM295 262q0 61 -18.5 91.5t-51.5 30.5q-35 0 -64.5 -31t-47 -85t-17.5 -120q0 -61 18.5 -91.5t51.5 -30.5q35 0 64.5 31t47 85
t17.5 120zM164 589q0 21 7 54h30q-1 -7 -1 -19q0 -34 16.5 -53t46.5 -19q34 0 56 23.5t31 67.5h32q-10 -65 -43.5 -109t-84.5 -44q-45 0 -67.5 26.5t-22.5 72.5z" />
    <glyph glyph-name="Ohungarumlaut" unicode="&#x150;" horiz-adv-x="713" 
d="M69 267q0 104 44 195.5t124 147t182 55.5q73 0 133.5 -34t95.5 -98t35 -149q0 -103 -43.5 -194.5t-123 -148t-182.5 -56.5q-74 0 -134.5 34t-95.5 98t-35 150zM590 376q0 115 -48 179t-133 64q-71 0 -127.5 -46.5t-88 -125t-31.5 -170.5q0 -117 47.5 -181.5t132.5 -64.5
q72 0 128.5 47t88 126t31.5 172zM440 842h102v-5l-167 -129h-35zM573 842h102v-5l-167 -129h-35z" />
    <glyph glyph-name="ohungarumlaut" unicode="&#x151;" horiz-adv-x="409" 
d="M18 146q0 71 28.5 134t78.5 101.5t110 38.5t98.5 -41.5t38.5 -113.5q0 -70 -28.5 -133.5t-78.5 -102.5t-110 -39q-61 0 -99 42t-38 114zM295 262q0 61 -18.5 91.5t-51.5 30.5q-35 0 -64.5 -31t-47 -85t-17.5 -120q0 -61 18.5 -91.5t51.5 -30.5q35 0 64.5 31t47 85
t17.5 120zM355 664h97v-5l-135 -179h-30zM215 664h97v-5l-135 -179h-30z" />
    <glyph glyph-name="OE" unicode="&#x152;" horiz-adv-x="866" 
d="M853 650l-27 -166h-5l-55 121h-173l-42 -238h133l6 5l13 75h45l-36 -205h-45l13 75l-4 5h-133l-49 -277h208l107 120h5l-39 -165h-408q-93 0 -160.5 32.5t-103.5 93t-36 141.5q0 100 48.5 188t136 141.5t200.5 53.5h401zM512 604h-70q-82 0 -146 -44.5t-100 -119.5
t-36 -163q0 -109 58 -170t157 -61h37z" />
    <glyph glyph-name="oe" unicode="&#x153;" horiz-adv-x="608" 
d="M558 76l5 -13q-39 -35 -80.5 -54t-80.5 -19q-38 0 -64.5 17.5t-39.5 52.5q-29 -33 -65.5 -51.5t-77.5 -18.5q-61 0 -99 42t-38 114q0 71 28.5 134t78.5 101.5t110 38.5q41 0 72.5 -19.5t48.5 -55.5q29 35 65.5 55t78.5 20q41 0 65.5 -22t24.5 -57q0 -50 -51.5 -92.5
t-174.5 -75.5v-18q0 -58 19.5 -83.5t59.5 -25.5q25 0 57 8.5t58 21.5zM295 262q0 61 -18.5 91.5t-51.5 30.5q-35 0 -64.5 -31t-47 -85t-17.5 -120q0 -61 18.5 -91.5t51.5 -30.5q35 0 64.5 31t47 85t17.5 120zM367 209q150 41 150 132q0 20 -9 31.5t-27 11.5q-23 0 -47 -21.5
t-42 -61.5t-25 -92z" />
    <glyph glyph-name="Racute" unicode="&#x154;" horiz-adv-x="613" 
d="M583 45l-8 -45h-138l-134 282h-68l-41 -232l4 -5h100l-8 -45h-259l8 45h70l6 5l95 540l-83 48l2 12h216q113 0 172 -39.5t59 -111.5q0 -69 -47.5 -123.5t-139.5 -78.5l112 -247l7 -5h75zM270 327q73 0 122 25.5t72 64.5t23 81q0 56 -43.5 81.5t-124.5 25.5h-27l-49 -277
q8 -1 27 -1zM410 840h102v-5l-167 -129h-35z" />
    <glyph glyph-name="racute" unicode="&#x155;" horiz-adv-x="305" 
d="M305 417l-14 -90q-13 4 -30 4q-26 0 -50.5 -8t-51.5 -27l-52 -296h-70l56 321l-61 29l2 9l138 62l5 -3l-14 -97q31 43 64 71t62 28q9 0 16 -3zM258 664h97v-5l-135 -179h-30z" />
    <glyph glyph-name="Rcommaaccent" unicode="&#x156;" horiz-adv-x="613" 
d="M583 45l-8 -45h-138l-134 282h-68l-41 -232l4 -5h100l-8 -45h-259l8 45h70l6 5l95 540l-83 48l2 12h216q113 0 172 -39.5t59 -111.5q0 -69 -47.5 -123.5t-139.5 -78.5l112 -247l7 -5h75zM270 327q73 0 122 25.5t72 64.5t23 81q0 56 -43.5 81.5t-124.5 25.5h-27l-49 -277
q8 -1 27 -1zM355 -107q0 -39 -31 -73t-79 -52l-7 19q27 12 43 29t19 35q-17 0 -27 10.5t-10 27.5q0 21 14.5 36t35.5 15q20 0 31 -13t11 -34z" />
    <glyph glyph-name="rcommaaccent" unicode="&#x157;" horiz-adv-x="305" 
d="M305 417l-14 -90q-13 4 -30 4q-26 0 -50.5 -8t-51.5 -27l-52 -296h-70l56 321l-61 29l2 9l138 62l5 -3l-14 -97q31 43 64 71t62 28q9 0 16 -3zM102 -107q0 -39 -31 -73t-79 -52l-7 19q27 12 43 29t19 35q-17 0 -27 10.5t-10 27.5q0 21 14.5 36t35.5 15q20 0 31 -13
t11 -34z" />
    <glyph glyph-name="Rcaron" unicode="&#x158;" horiz-adv-x="613" 
d="M583 45l-8 -45h-138l-134 282h-68l-41 -232l4 -5h100l-8 -45h-259l8 45h70l6 5l95 540l-83 48l2 12h216q113 0 172 -39.5t59 -111.5q0 -69 -47.5 -123.5t-139.5 -78.5l112 -247l7 -5h75zM270 327q73 0 122 25.5t72 64.5t23 81q0 56 -43.5 81.5t-124.5 25.5h-27l-49 -277
q8 -1 27 -1zM261 840h29l88 -64l120 64h29l-128 -134h-49z" />
    <glyph glyph-name="rcaron" unicode="&#x159;" horiz-adv-x="305" 
d="M305 417l-14 -90q-13 4 -30 4q-26 0 -50.5 -8t-51.5 -27l-52 -296h-70l56 321l-61 29l2 9l138 62l5 -3l-14 -97q31 43 64 71t62 28q9 0 16 -3zM113 671h28l74 -100l105 100h29l-122 -184h-39z" />
    <glyph glyph-name="Sacute" unicode="&#x15a;" horiz-adv-x="496" 
d="M45 34l29 159h5l38 -103q26 -30 53 -45t61 -15q57 0 91.5 31t34.5 85q0 41 -23.5 73.5t-92.5 88.5q-63 52 -90.5 96t-27.5 91q0 45 24.5 84t71 62.5t110.5 23.5q68 0 154 -31l-29 -159h-5l-38 103q-18 20 -44.5 31t-57.5 11q-48 0 -78.5 -29t-30.5 -71q0 -37 25.5 -71.5
t76.5 -75.5q68 -54 100.5 -99t32.5 -100q0 -54 -27.5 -97t-76.5 -67.5t-112 -24.5q-47 0 -92 13.5t-82 35.5zM402 842h102v-5l-167 -129h-35z" />
    <glyph glyph-name="sacute" unicode="&#x15b;" horiz-adv-x="320" 
d="M4 25l22 113h4l17 -39q17 -39 39.5 -56t54.5 -17q28 0 47 16.5t19 39.5q0 25 -15.5 44t-55.5 50q-14 11 -38 32q-25 24 -35.5 46t-10.5 49q0 51 39 84t96 33q60 0 110 -26l-22 -107h-4l-12 23q-21 40 -41.5 57t-45.5 17t-41.5 -15.5t-16.5 -40.5q0 -20 11.5 -36.5
t32.5 -33.5l19 -15l22 -18q35 -28 52.5 -55.5t17.5 -61.5q0 -50 -40.5 -84t-102.5 -34q-30 0 -62.5 9t-59.5 26zM252 664h97v-5l-135 -179h-30z" />
    <glyph glyph-name="Scircumflex" unicode="&#x15c;" horiz-adv-x="496" 
d="M45 34l29 159h5l38 -103q26 -30 53 -45t61 -15q57 0 91.5 31t34.5 85q0 41 -23.5 73.5t-92.5 88.5q-63 52 -90.5 96t-27.5 91q0 45 24.5 84t71 62.5t110.5 23.5q68 0 154 -31l-29 -159h-5l-38 103q-18 20 -44.5 31t-57.5 11q-48 0 -78.5 -29t-30.5 -71q0 -37 25.5 -71.5
t76.5 -75.5q68 -54 100.5 -99t32.5 -100q0 -54 -27.5 -97t-76.5 -67.5t-112 -24.5q-47 0 -92 13.5t-82 35.5zM357 842h49l89 -134h-29l-88 64l-120 -64h-29z" />
    <glyph glyph-name="scircumflex" unicode="&#x15d;" horiz-adv-x="320" 
d="M4 25l22 113h4l17 -39q17 -39 39.5 -56t54.5 -17q28 0 47 16.5t19 39.5q0 25 -15.5 44t-55.5 50q-14 11 -38 32q-25 24 -35.5 46t-10.5 49q0 51 39 84t96 33q60 0 110 -26l-22 -107h-4l-12 23q-21 40 -41.5 57t-45.5 17t-41.5 -15.5t-16.5 -40.5q0 -20 11.5 -36.5
t32.5 -33.5l19 -15l22 -18q35 -28 52.5 -55.5t17.5 -61.5q0 -50 -40.5 -84t-102.5 -34q-30 0 -62.5 9t-59.5 26zM208 664h39l75 -184h-26l-76 100l-108 -100h-28z" />
    <glyph glyph-name="Scedilla" unicode="&#x15e;" horiz-adv-x="496" 
d="M483 634l-29 -159h-5l-38 103q-18 20 -44.5 31t-57.5 11q-48 0 -78.5 -29t-30.5 -71q0 -37 25.5 -71.5t76.5 -75.5q68 -54 100.5 -99t32.5 -100q0 -52 -26 -94t-72.5 -67.5t-106.5 -27.5l-35 -61q12 4 26 4q28 0 45 -16.5t17 -43.5q0 -21 -12 -44t-36 -38.5t-56 -15.5
q-26 0 -47.5 9t-41.5 27l12 16q25 -14 51 -14q27 0 45 16.5t18 39.5q0 16 -10 24.5t-26 8.5q-18 0 -33 -6l-3 3l51 92q-77 6 -150 48l29 159h5l38 -103q26 -30 53 -45t61 -15q57 0 91.5 31t34.5 85q0 41 -23.5 73.5t-92.5 88.5q-63 52 -90.5 96t-27.5 91q0 45 24.5 84
t71 62.5t110.5 23.5q68 0 154 -31z" />
    <glyph glyph-name="scedilla" unicode="&#x15f;" horiz-adv-x="320" 
d="M297 394l-22 -107h-4l-12 23q-21 40 -41.5 57t-45.5 17t-41.5 -15.5t-16.5 -40.5q0 -20 11.5 -36.5t32.5 -33.5l19 -15l22 -18q35 -28 52.5 -55.5t17.5 -61.5q0 -47 -36 -80t-92 -37l-38 -67q12 4 26 4q28 0 45 -16.5t17 -43.5q0 -21 -12 -44t-36 -38.5t-56 -15.5
q-26 0 -47.5 9t-41.5 27l12 16q25 -14 51 -14q27 0 45 16.5t18 39.5q0 16 -10 24.5t-26 8.5q-18 0 -33 -6l-3 3l53 97q-53 5 -101 34l22 113h4l17 -39q17 -39 39.5 -56t54.5 -17q28 0 47 16.5t19 39.5q0 25 -15.5 44t-55.5 50q-14 11 -38 32q-25 24 -35.5 46t-10.5 49
q0 51 39 84t96 33q60 0 110 -26z" />
    <glyph glyph-name="Scaron" unicode="&#x160;" horiz-adv-x="496" 
d="M45 34l29 159h5l38 -103q26 -30 53 -45t61 -15q57 0 91.5 31t34.5 85q0 41 -23.5 73.5t-92.5 88.5q-63 52 -90.5 96t-27.5 91q0 45 24.5 84t71 62.5t110.5 23.5q68 0 154 -31l-29 -159h-5l-38 103q-18 20 -44.5 31t-57.5 11q-48 0 -78.5 -29t-30.5 -71q0 -37 25.5 -71.5
t76.5 -75.5q68 -54 100.5 -99t32.5 -100q0 -54 -27.5 -97t-76.5 -67.5t-112 -24.5q-47 0 -92 13.5t-82 35.5zM241 842h29l88 -64l120 64h29l-128 -134h-49z" />
    <glyph glyph-name="scaron" unicode="&#x161;" horiz-adv-x="320" 
d="M4 25l22 113h4l17 -39q17 -39 39.5 -56t54.5 -17q28 0 47 16.5t19 39.5q0 25 -15.5 44t-55.5 50q-14 11 -38 32q-25 24 -35.5 46t-10.5 49q0 51 39 84t96 33q60 0 110 -26l-22 -107h-4l-12 23q-21 40 -41.5 57t-45.5 17t-41.5 -15.5t-16.5 -40.5q0 -20 11.5 -36.5
t32.5 -33.5l19 -15l22 -18q35 -28 52.5 -55.5t17.5 -61.5q0 -50 -40.5 -84t-102.5 -34q-30 0 -62.5 9t-59.5 26zM113 671h28l74 -100l105 100h29l-122 -184h-39z" />
    <glyph glyph-name="uni0162" unicode="&#x162;" horiz-adv-x="550" 
d="M605 650l-29 -165h-6l-43 120h-135l-98 -555l4 -5h70l-8 -45h-97l-43 -76q12 4 26 4q28 0 45 -16.5t17 -43.5q0 -21 -12 -44t-36 -38.5t-56 -15.5q-27 0 -48 9t-41 27l12 16q25 -14 51 -14q27 0 45 16.5t18 39.5q0 16 -10 24.5t-26 8.5q-18 0 -33 -6l-3 3l58 106h-97
l8 45h70l6 5l98 555h-132l-91 -120h-5l29 165h492z" />
    <glyph glyph-name="uni0163" unicode="&#x163;" horiz-adv-x="284" 
d="M129 149q-6 -36 -6 -56q0 -25 9 -34t31 -9q33 0 87 24l5 -13q-30 -26 -63 -44t-64 -24l-39 -69q12 4 26 4q28 0 45 -16.5t17 -43.5q0 -21 -12 -44t-36 -38.5t-56 -15.5q-27 0 -48 9t-41 27l12 16q25 -14 51 -14q27 0 45 16.5t18 39.5q0 16 -10 24.5t-26 8.5q-18 0 -33 -6
l-3 3l53 97q-24 2 -34 18t-10 44q0 27 6 61l43 245h-60l3 17l65 28l78 131h15l-23 -131h110l-8 -45h-110z" />
    <glyph glyph-name="Tcaron" unicode="&#x164;" horiz-adv-x="550" 
d="M138 45h70l6 5l98 555h-132l-91 -120h-5l29 165h492l-29 -165h-6l-43 120h-135l-98 -555l4 -5h70l-8 -45h-230zM262 840h29l88 -64l120 64h29l-128 -134h-49z" />
    <glyph glyph-name="tcaron" unicode="&#x165;" horiz-adv-x="299" 
d="M47 53q0 27 6 61l43 245h-60l3 17l65 28l78 131h15l-23 -131h110l-8 -45h-110l-37 -210q-6 -36 -6 -56q0 -25 9 -34t31 -9q33 0 87 24l5 -13q-37 -32 -77.5 -51.5t-75.5 -19.5q-30 0 -42.5 15.5t-12.5 47.5zM279 675h84l-97 -194h-33z" />
    <glyph glyph-name="Tbar" unicode="&#x166;" horiz-adv-x="550" 
d="M605 650l-29 -165h-6l-43 120h-135l-44 -247h136l-8 -45h-136l-46 -263l4 -5h70l-8 -45h-230l8 45h70l6 5l46 263h-132l8 45h132l44 247h-132l-91 -120h-5l29 165h492z" />
    <glyph glyph-name="tbar" unicode="&#x167;" horiz-adv-x="284" 
d="M166 359l-16 -93h111l-8 -45h-111l-13 -72q-6 -36 -6 -56q0 -25 9 -34t31 -9q33 0 87 24l5 -13q-37 -32 -77.5 -51.5t-75.5 -19.5q-30 0 -42.5 15.5t-12.5 47.5q0 27 6 61l19 107h-60l8 45h60l16 93h-60l3 17l65 28l78 131h15l-23 -131h110l-8 -45h-110z" />
    <glyph glyph-name="Utilde" unicode="&#x168;" horiz-adv-x="731" 
d="M131 174q0 35 8 78l60 338l-83 48l2 12h260l-2 -12l-97 -49l-56 -319q-8 -50 -8 -84q0 -148 134 -148q165 0 201 207l60 345l-83 48l2 12h237l-2 -12l-97 -49l-60 -334q-24 -137 -89 -203.5t-181 -66.5q-108 0 -157 50.5t-49 138.5zM353 731q18 43 42.5 69.5t55.5 26.5
q20 0 34 -6t32 -18q14 -10 24.5 -14.5t23.5 -4.5q15 0 25.5 11t24.5 36l22 -10q-17 -42 -41.5 -69t-55.5 -27q-17 0 -29.5 5.5t-30.5 17.5q-18 11 -27 15.5t-22 4.5q-17 0 -29.5 -12t-25.5 -36z" />
    <glyph glyph-name="utilde" unicode="&#x169;" horiz-adv-x="465" 
d="M441 44q-24 -22 -55 -38t-59 -16q-29 0 -42.5 15.5t-13.5 51.5q0 6 2 26q-82 -93 -150 -93q-34 0 -52.5 20t-18.5 60q0 10 4 38l35 203l-60 29l1 9l141 62l5 -3l-48 -279q-4 -20 -4 -39q0 -21 8 -32t27 -11q48 0 115 59l2 14l35 201l-60 29l1 9l141 62l5 -3l-52 -288
q-4 -20 -4 -39q0 -23 10.5 -33t33.5 -10q26 0 48 9zM139 524q18 43 42.5 69.5t55.5 26.5q20 0 34 -6t32 -18q14 -10 24.5 -14.5t23.5 -4.5q15 0 25.5 11t24.5 36l22 -10q-17 -42 -41.5 -69t-55.5 -27q-17 0 -29.5 5.5t-30.5 17.5q-18 11 -27 15.5t-22 4.5q-17 0 -29.5 -12
t-25.5 -36z" />
    <glyph glyph-name="Umacron" unicode="&#x16a;" horiz-adv-x="731" 
d="M131 174q0 35 8 78l60 338l-83 48l2 12h260l-2 -12l-97 -49l-56 -319q-8 -50 -8 -84q0 -148 134 -148q165 0 201 207l60 345l-83 48l2 12h237l-2 -12l-97 -49l-60 -334q-24 -137 -89 -203.5t-181 -66.5q-108 0 -157 50.5t-49 138.5zM367 795h237l-9 -50h-237z" />
    <glyph glyph-name="umacron" unicode="&#x16b;" horiz-adv-x="465" 
d="M441 44q-24 -22 -55 -38t-59 -16q-29 0 -42.5 15.5t-13.5 51.5q0 6 2 26q-82 -93 -150 -93q-34 0 -52.5 20t-18.5 60q0 10 4 38l35 203l-60 29l1 9l141 62l5 -3l-48 -279q-4 -20 -4 -39q0 -21 8 -32t27 -11q48 0 115 59l2 14l35 201l-60 29l1 9l141 62l5 -3l-52 -288
q-4 -20 -4 -39q0 -23 10.5 -33t33.5 -10q26 0 48 9zM163 596h237l-9 -50h-237z" />
    <glyph glyph-name="Ubreve" unicode="&#x16c;" horiz-adv-x="731" 
d="M131 174q0 35 8 78l60 338l-83 48l2 12h260l-2 -12l-97 -49l-56 -319q-8 -50 -8 -84q0 -148 134 -148q165 0 201 207l60 345l-83 48l2 12h237l-2 -12l-97 -49l-60 -334q-24 -137 -89 -203.5t-181 -66.5q-108 0 -157 50.5t-49 138.5zM382 804q0 21 6 45h30q-4 -35 14 -53
t56 -18q35 0 58.5 18.5t30.5 52.5h32q-7 -58 -44.5 -95.5t-85.5 -37.5q-50 0 -73.5 23.5t-23.5 64.5z" />
    <glyph glyph-name="ubreve" unicode="&#x16d;" horiz-adv-x="465" 
d="M441 44q-24 -22 -55 -38t-59 -16q-29 0 -42.5 15.5t-13.5 51.5q0 6 2 26q-82 -93 -150 -93q-34 0 -52.5 20t-18.5 60q0 10 4 38l35 203l-60 29l1 9l141 62l5 -3l-48 -279q-4 -20 -4 -39q0 -21 8 -32t27 -11q48 0 115 59l2 14l35 201l-60 29l1 9l141 62l5 -3l-52 -288
q-4 -20 -4 -39q0 -23 10.5 -33t33.5 -10q26 0 48 9zM183 589q0 21 7 54h30q-1 -7 -1 -19q0 -34 16.5 -53t46.5 -19q34 0 56 23.5t31 67.5h32q-10 -65 -43.5 -109t-84.5 -44q-45 0 -67.5 26.5t-22.5 72.5z" />
    <glyph glyph-name="Uring" unicode="&#x16e;" horiz-adv-x="731" 
d="M131 174q0 35 8 78l60 338l-83 48l2 12h260l-2 -12l-97 -49l-56 -319q-8 -50 -8 -84q0 -148 134 -148q165 0 201 207l60 345l-83 48l2 12h237l-2 -12l-97 -49l-60 -334q-24 -137 -89 -203.5t-181 -66.5q-108 0 -157 50.5t-49 138.5zM385 766q0 29 15.5 53.5t41 38.5
t53.5 14q38 0 60.5 -21t22.5 -56q0 -27 -15.5 -51.5t-41.5 -39.5t-55 -15q-37 0 -59 21t-22 56zM525 789q0 25 -10 41t-28 16q-19 0 -34 -20.5t-15 -52.5q0 -26 10.5 -42.5t25.5 -16.5q22 0 36.5 23t14.5 52z" />
    <glyph glyph-name="uring" unicode="&#x16f;" horiz-adv-x="465" 
d="M441 44q-24 -22 -55 -38t-59 -16q-29 0 -42.5 15.5t-13.5 51.5q0 6 2 26q-82 -93 -150 -93q-34 0 -52.5 20t-18.5 60q0 10 4 38l35 203l-60 29l1 9l141 62l5 -3l-48 -279q-4 -20 -4 -39q0 -21 8 -32t27 -11q48 0 115 59l2 14l35 201l-60 29l1 9l141 62l5 -3l-52 -288
q-4 -20 -4 -39q0 -23 10.5 -33t33.5 -10q26 0 48 9zM187 556q0 29 15.5 53.5t41 38.5t53.5 14q38 0 60.5 -21t22.5 -56q0 -27 -15.5 -51.5t-41.5 -39.5t-55 -15q-37 0 -59 21t-22 56zM327 579q0 25 -10 41t-28 16q-19 0 -34 -20.5t-15 -52.5q0 -26 10.5 -42.5t25.5 -16.5
q22 0 36.5 23t14.5 52z" />
    <glyph glyph-name="Uhungarumlaut" unicode="&#x170;" horiz-adv-x="731" 
d="M131 174q0 35 8 78l60 338l-83 48l2 12h260l-2 -12l-97 -49l-56 -319q-8 -50 -8 -84q0 -148 134 -148q165 0 201 207l60 345l-83 48l2 12h237l-2 -12l-97 -49l-60 -334q-24 -137 -89 -203.5t-181 -66.5q-108 0 -157 50.5t-49 138.5zM469 842h102v-5l-167 -129h-35z
M602 842h102v-5l-167 -129h-35z" />
    <glyph glyph-name="uhungarumlaut" unicode="&#x171;" horiz-adv-x="465" 
d="M441 44q-24 -22 -55 -38t-59 -16q-29 0 -42.5 15.5t-13.5 51.5q0 6 2 26q-82 -93 -150 -93q-34 0 -52.5 20t-18.5 60q0 10 4 38l35 203l-60 29l1 9l141 62l5 -3l-48 -279q-4 -20 -4 -39q0 -21 8 -32t27 -11q48 0 115 59l2 14l35 201l-60 29l1 9l141 62l5 -3l-52 -288
q-4 -20 -4 -39q0 -23 10.5 -33t33.5 -10q26 0 48 9zM373 664h97v-5l-135 -179h-30zM233 664h97v-5l-135 -179h-30z" />
    <glyph glyph-name="Uogonek" unicode="&#x172;" horiz-adv-x="731" 
d="M766 650l-2 -12l-97 -49l-60 -334q-20 -113 -63 -173t-112 -84q-54 -19 -91 -56t-37 -78q0 -37 36 -37q18 0 46 13l6 -21q-34 -25 -57.5 -37t-48.5 -12q-24 0 -41 14t-17 41q0 38 31 82t79 78h-1q-108 0 -157 50.5t-49 138.5q0 35 8 78l60 338l-83 48l2 12h260l-2 -12
l-97 -49l-56 -319q-8 -50 -8 -84q0 -148 134 -148q165 0 201 207l60 345l-83 48l2 12h237z" />
    <glyph glyph-name="uogonek" unicode="&#x173;" horiz-adv-x="465" 
d="M373 -165l5 -16q-67 -49 -115 -49q-27 0 -43.5 15.5t-16.5 46.5q0 37 32 79.5t81 79.5q-23 2 -33.5 18t-10.5 49q0 16 1 25q-82 -93 -150 -93q-34 0 -52.5 20t-18.5 60q0 10 4 38l35 203l-60 29l1 9l141 62l5 -3l-48 -279q-4 -20 -4 -39q0 -21 8 -32t27 -11q46 0 115 59
q0 4 2 14l35 201l-60 29l1 9l141 62l5 -3l-52 -288q-4 -20 -4 -39q0 -23 10.5 -33t33.5 -10q26 0 48 9l5 -13q-16 -14 -55 -40l-22 -14q-42 -28 -67 -61.5t-25 -61.5q0 -23 12.5 -33.5t39.5 -10.5q24 0 49 12z" />
    <glyph glyph-name="Wcircumflex" unicode="&#x174;" horiz-adv-x="853" 
d="M953 650l-2 -12l-97 -49l-272 -589h-39l-65 412l-186 -412h-39l-111 590l-83 48l2 12h261l-2 -12l-97 -49l80 -473h2l161 377l-25 157h82l71 -534h2l202 474l-83 48l2 12h236zM520 840h49l89 -134h-29l-88 64l-120 -64h-29z" />
    <glyph glyph-name="wcircumflex" unicode="&#x175;" horiz-adv-x="580" 
d="M582 404v-3q-41 -119 -105 -223.5t-145 -187.5h-12l-30 195q-54 -93 -148 -195h-12l-58 326l-61 29l2 9l112 62l5 -3l51 -332q58 78 99 165l-24 158h72l43 -322q47 64 84.5 139t45.5 124l-53 54l1 5h133zM308 664h39l75 -184h-26l-76 100l-108 -100h-28z" />
    <glyph glyph-name="Ycircumflex" unicode="&#x176;" horiz-adv-x="556" 
d="M141 45h70l6 5l34 194l-109 346l-83 48l2 12h261l-2 -12l-97 -49l86 -289h5l187 290l-83 48l2 12h236l-2 -12l-101 -49l-218 -325l-38 -214l4 -5h70l-8 -45h-230zM368 842h49l89 -134h-29l-88 64l-120 -64h-29z" />
    <glyph glyph-name="ycircumflex" unicode="&#x177;" horiz-adv-x="421" 
d="M423 404v-3q-45 -138 -102 -236t-150 -191l-165 -215l-72 63l199 148l-56 346l-61 29l2 9l119 62l5 -3l48 -376q61 74 100.5 157t51.5 151l-53 54l1 5h133zM249 664h39l75 -184h-26l-76 100l-108 -100h-28z" />
    <glyph glyph-name="Ydieresis" unicode="&#x178;" horiz-adv-x="556" 
d="M141 45h70l6 5l34 194l-109 346l-83 48l2 12h261l-2 -12l-97 -49l86 -289h5l187 290l-83 48l2 12h236l-2 -12l-101 -49l-218 -325l-38 -214l4 -5h70l-8 -45h-230zM256 777q0 24 16.5 41.5t39.5 17.5q21 0 35 -16.5t13 -38.5q-2 -22 -18.5 -38t-36.5 -16q-21 0 -35 14.5
t-14 35.5zM419 777q0 24 16.5 41.5t39.5 17.5q21 0 35 -16.5t13 -38.5q-2 -22 -18.5 -38t-36.5 -16q-21 0 -35 14.5t-14 35.5z" />
    <glyph glyph-name="Zacute" unicode="&#x179;" horiz-adv-x="543" 
d="M6 13l444 592h-239l-96 -120h-5l29 165h433l-2 -13l-445 -592h270l86 120h5l-29 -165h-453zM394 842h102v-5l-167 -129h-35z" />
    <glyph glyph-name="zacute" unicode="&#x17a;" horiz-adv-x="367" 
d="M361 388l-277 -323h164l69 69h4l-24 -134h-313l2 10l285 334h-158l-69 -69h-4l23 129h301zM252 664h97v-5l-135 -179h-30z" />
    <glyph glyph-name="Zdotaccent" unicode="&#x17b;" horiz-adv-x="543" 
d="M6 13l444 592h-239l-96 -120h-5l29 165h433l-2 -13l-445 -592h270l86 120h5l-29 -165h-453zM317 777q0 24 16.5 41.5t39.5 17.5q21 0 35 -16.5t13 -38.5q-2 -22 -18.5 -38t-36.5 -16q-21 0 -35 14.5t-14 35.5z" />
    <glyph glyph-name="zdotaccent" unicode="&#x17c;" horiz-adv-x="367" 
d="M361 388l-277 -323h164l69 69h4l-24 -134h-313l2 10l285 334h-158l-69 -69h-4l23 129h301zM180 574q0 24 16.5 41.5t39.5 17.5q21 0 35 -16.5t13 -38.5q-2 -22 -18.5 -38t-36.5 -16q-21 0 -35 14.5t-14 35.5z" />
    <glyph glyph-name="Zcaron" unicode="&#x17d;" horiz-adv-x="543" 
d="M6 13l444 592h-239l-96 -120h-5l29 165h433l-2 -13l-445 -592h270l86 120h5l-29 -165h-453zM246 842h29l88 -64l120 64h29l-128 -134h-49z" />
    <glyph glyph-name="zcaron" unicode="&#x17e;" horiz-adv-x="367" 
d="M361 388l-277 -323h164l69 69h4l-24 -134h-313l2 10l285 334h-158l-69 -69h-4l23 129h301zM127 671h28l74 -100l105 100h29l-122 -184h-39z" />
    <glyph glyph-name="longs" unicode="&#x17f;" horiz-adv-x="298" 
d="M408 694l-20 -121h-4l-20 40q-19 37 -33.5 52.5t-34.5 15.5q-42 0 -64 -54t-40 -165l-67 -414q-25 -154 -68 -221t-107 -67q-42 0 -73 23l20 121h4l20 -40q18 -38 29.5 -53t24.5 -15q20 0 34.5 38t30.5 132l64 393h-80l3 17l84 28l7 40q25 149 73 211t124 62q39 0 93 -23
z" />
    <glyph glyph-name="florin" unicode="&#x192;" horiz-adv-x="305" 
d="M334 423h-4l-40 44q-8 9 -19.5 16t-21.5 7q-26 0 -37.5 -26t-18.5 -90l-7 -64h101v-37h-105l-20 -175q-8 -75 -22 -119t-39 -64.5t-66 -20.5q-32 0 -66 12l-1 92h5l29 -33q15 -17 26 -25t22 -8q21 0 29.5 22.5t14.5 76.5l24 242h-58v37h62l1 12q8 77 24.5 121.5t46.5 64
t77 19.5q26 0 62 -12z" />
    <glyph glyph-name="Aringacute" unicode="&#x1fa;" horiz-adv-x="596" 
d="M584 45l-8 -45h-244l8 45h80l7 5l-35 205h-199l-108 -205l5 -5h80l-8 -45h-207l8 45h60l4 3l329 602h42l113 -601l3 -4h70zM385 295l-40 239h-5l-126 -239h171zM300 764q0 29 15.5 53.5t41 38.5t53.5 14q38 0 60.5 -21t22.5 -56q0 -27 -15.5 -51.5t-41.5 -39.5t-55 -15
q-37 0 -59 21t-22 56zM440 787q0 25 -10 41t-28 16q-19 0 -34 -20.5t-15 -52.5q0 -26 10.5 -42.5t25.5 -16.5q22 0 36.5 23t14.5 52zM494 1043h102v-5l-167 -129h-35z" />
    <glyph glyph-name="aringacute" unicode="&#x1fb;" horiz-adv-x="441" 
d="M421 44q-25 -22 -56 -38t-58 -16q-29 0 -42 15.5t-13 51.5q0 11 1 18q-34 -39 -72 -62t-72 -23q-44 0 -69 36t-25 104q0 75 30 142t82 107.5t113 40.5q45 0 80 -20l54 20h5l-51 -290q-4 -21 -4 -39q0 -23 10 -33t34 -10q25 0 48 9zM255 97l3 23l40 231q-28 33 -65 33
q-36 0 -68.5 -33t-52 -88.5t-19.5 -120.5q0 -50 14.5 -72.5t42.5 -22.5q45 0 105 50zM190 556q0 29 15.5 53.5t41 38.5t53.5 14q38 0 60.5 -21t22.5 -56q0 -27 -15.5 -51.5t-41.5 -39.5t-55 -15q-37 0 -59 21t-22 56zM330 579q0 25 -10 41t-28 16q-19 0 -34 -20.5t-15 -52.5
q0 -26 10.5 -42.5t25.5 -16.5q22 0 36.5 23t14.5 52zM365 830h102v-5l-167 -129h-35z" />
    <glyph glyph-name="AEacute" unicode="&#x1fc;" horiz-adv-x="789" 
d="M776 650l-27 -166h-5l-55 121h-173l-44 -250h135l6 5l13 75h45l-36 -205h-45l13 75l-4 5h-135l-47 -265h208l107 120h5l-39 -165h-445l8 45h70l6 5l46 260h-138l-160 -260l5 -5h80l-8 -45h-207l8 45h60l4 3l339 549l-71 41l2 12h479zM391 355l45 253h-8l-156 -253h119z
M604 840h102v-5l-167 -129h-35z" />
    <glyph glyph-name="aeacute" unicode="&#x1fd;" horiz-adv-x="583" 
d="M533 76l5 -13q-39 -35 -80.5 -54t-80.5 -19q-46 0 -75.5 26t-37.5 77q-28 -44 -68 -73.5t-85 -29.5t-70.5 36t-25.5 104q0 75 30 142t82 107.5t113 40.5q34 0 64.5 -13t52.5 -35q53 48 118 48q41 0 65.5 -22t24.5 -57q0 -50 -51.5 -92.5t-174.5 -75.5v-18
q0 -58 19.5 -83.5t59.5 -25.5q25 0 57 8.5t58 21.5zM317 326q-17 29 -38.5 43.5t-45.5 14.5q-36 0 -68.5 -33t-52 -88.5t-19.5 -120.5q0 -50 14.5 -72.5t42.5 -22.5q26 0 56.5 20t54.5 51v15q0 53 14.5 103.5t41.5 89.5zM342 209q150 41 150 132q0 20 -9 31.5t-27 11.5
q-23 0 -47 -21.5t-42 -61.5t-25 -92zM427 664h97v-5l-135 -179h-30z" />
    <glyph glyph-name="Oslashacute" unicode="&#x1fe;" horiz-adv-x="713" 
d="M641 552q42 -70 42 -168q0 -103 -43.5 -194.5t-123 -148t-182.5 -56.5q-124 0 -196 78l-64 -63h-67l103 100q-41 68 -41 167q0 104 44 195.5t124 147t182 55.5q61 0 110 -19.5t83 -56.5l63 61h67zM177 165l378 368q-23 42 -60.5 64t-85.5 22q-71 0 -127.5 -46.5t-88 -125
t-31.5 -170.5q0 -64 15 -112zM575 487l-379 -368q23 -43 60.5 -65.5t85.5 -22.5q72 0 128.5 47t88 126t31.5 172q0 63 -15 111zM512 840h102v-5l-167 -129h-35z" />
    <glyph glyph-name="oslashacute" unicode="&#x1ff;" horiz-adv-x="409" 
d="M345 364q27 -40 27 -99q0 -70 -28.5 -133.5t-78.5 -102.5t-110 -39q-55 0 -91 34l-37 -44h-42l58 70q-25 39 -25 96q0 71 28.5 134t78.5 101.5t110 38.5q52 0 89 -31l34 41h42zM98 116l185 224q-18 44 -58 44q-35 0 -64.5 -31t-47 -85t-17.5 -120q0 -12 2 -32zM293 300
l-187 -225q18 -49 60 -49q35 0 64.5 31t47 85t17.5 120q0 16 -2 38zM299 664h97v-5l-135 -179h-30z" />
    <glyph glyph-name="Scommaaccent" unicode="&#x218;" horiz-adv-x="496" 
d="M45 34l29 159h5l38 -103q26 -30 53 -45t61 -15q57 0 91.5 31t34.5 85q0 41 -23.5 73.5t-92.5 88.5q-63 52 -90.5 96t-27.5 91q0 45 24.5 84t71 62.5t110.5 23.5q68 0 154 -31l-29 -159h-5l-38 103q-18 20 -44.5 31t-57.5 11q-48 0 -78.5 -29t-30.5 -71q0 -37 25.5 -71.5
t76.5 -75.5q68 -54 100.5 -99t32.5 -100q0 -54 -27.5 -97t-76.5 -67.5t-112 -24.5q-47 0 -92 13.5t-82 35.5zM255 -107q0 -39 -31 -73t-79 -52l-7 19q27 12 43 29t19 35q-17 0 -27 10.5t-10 27.5q0 21 14.5 36t35.5 15q20 0 31 -13t11 -34z" />
    <glyph glyph-name="scommaaccent" unicode="&#x219;" horiz-adv-x="320" 
d="M4 25l22 113h4l17 -39q17 -39 39.5 -56t54.5 -17q28 0 47 16.5t19 39.5q0 25 -15.5 44t-55.5 50q-14 11 -38 32q-25 24 -35.5 46t-10.5 49q0 51 39 84t96 33q60 0 110 -26l-22 -107h-4l-12 23q-21 40 -41.5 57t-45.5 17t-41.5 -15.5t-16.5 -40.5q0 -20 11.5 -36.5
t32.5 -33.5l19 -15l22 -18q35 -28 52.5 -55.5t17.5 -61.5q0 -50 -40.5 -84t-102.5 -34q-30 0 -62.5 9t-59.5 26zM157 -106q0 -39 -31 -73t-79 -52l-7 19q27 12 43 29t19 35q-17 0 -27 10.5t-10 27.5q0 21 14.5 36t35.5 15q20 0 31 -13t11 -34z" />
    <glyph glyph-name="uni021A" unicode="&#x21a;" horiz-adv-x="549" 
d="M138 45h70l6 5l98 555h-132l-91 -120h-5l29 165h492l-29 -165h-6l-43 120h-135l-98 -555l4 -5h70l-8 -45h-230zM275 -107q0 -39 -31 -73t-79 -52l-7 19q27 12 43 29t19 35q-17 0 -27 10.5t-10 27.5q0 21 14.5 36t35.5 15q20 0 31 -13t11 -34z" />
    <glyph glyph-name="uni021B" unicode="&#x21b;" horiz-adv-x="284" 
d="M47 53q0 27 6 61l43 245h-60l3 17l65 28l78 131h15l-23 -131h110l-8 -45h-110l-37 -210q-6 -36 -6 -56q0 -25 9 -34t31 -9q33 0 87 24l5 -13q-37 -32 -77.5 -51.5t-75.5 -19.5q-30 0 -42.5 15.5t-12.5 47.5zM138 -107q0 -39 -31 -73t-79 -52l-7 19q27 12 43 29t19 35
q-17 0 -27 10.5t-10 27.5q0 21 14.5 36t35.5 15q20 0 31 -13t11 -34z" />
    <glyph glyph-name="circumflex" unicode="&#x2c6;" horiz-adv-x="237" 
d="M175 664h39l75 -184h-26l-76 100l-108 -100h-28z" />
    <glyph glyph-name="caron" unicode="&#x2c7;" horiz-adv-x="237" 
d="M81 664h28l74 -100l105 100h29l-122 -184h-39z" />
    <glyph glyph-name="uni02C9" unicode="&#x2c9;" horiz-adv-x="259" 
d="M81 596h237l-9 -50h-237z" />
    <glyph glyph-name="breve" unicode="&#x2d8;" horiz-adv-x="232" 
d="M82 589q0 21 7 54h30q-1 -7 -1 -19q0 -34 16.5 -53t46.5 -19q34 0 56 23.5t31 67.5h32q-10 -65 -43.5 -109t-84.5 -44q-45 0 -67.5 26.5t-22.5 72.5z" />
    <glyph glyph-name="dotaccent" unicode="&#x2d9;" horiz-adv-x="124" 
d="M77 574q0 24 16.5 41.5t39.5 17.5q21 0 35 -16.5t13 -38.5q-2 -22 -18.5 -38t-36.5 -16q-21 0 -35 14.5t-14 35.5z" />
    <glyph glyph-name="ring" unicode="&#x2da;" horiz-adv-x="237" 
d="M93 556q0 29 15.5 53.5t41 38.5t53.5 14q38 0 60.5 -21t22.5 -56q0 -27 -15.5 -51.5t-41.5 -39.5t-55 -15q-37 0 -59 21t-22 56zM233 579q0 25 -10 41t-28 16q-19 0 -34 -20.5t-15 -52.5q0 -26 10.5 -42.5t25.5 -16.5q22 0 36.5 23t14.5 52z" />
    <glyph glyph-name="ogonek" unicode="&#x2db;" horiz-adv-x="240" 
d="M-38 -175q0 42 38.5 92t94.5 83h81q-36 0 -68 -22.5t-51 -54.5t-19 -59q0 -37 36 -37q18 0 46 13l6 -21q-34 -25 -57.5 -37t-48.5 -12q-24 0 -41 14t-17 41z" />
    <glyph glyph-name="tilde" unicode="&#x2dc;" horiz-adv-x="288" 
d="M66 524q18 43 42.5 69.5t55.5 26.5q20 0 34 -6t32 -18q14 -10 24.5 -14.5t23.5 -4.5q15 0 25.5 11t24.5 36l22 -10q-17 -42 -41.5 -69t-55.5 -27q-17 0 -29.5 5.5t-30.5 17.5q-18 11 -27 15.5t-22 4.5q-17 0 -29.5 -12t-25.5 -36z" />
    <glyph glyph-name="hungarumlaut" unicode="&#x2dd;" horiz-adv-x="293" 
d="M268 664h97v-5l-135 -179h-30zM128 664h97v-5l-135 -179h-30z" />
    <glyph glyph-name="uni0326" unicode="&#x326;" horiz-adv-x="0" 
d="M-75 -107q0 -39 -31 -73t-79 -52l-7 19q27 12 43 29t19 35q-17 0 -27 10.5t-10 27.5q0 21 14.5 36t35.5 15q20 0 31 -13t11 -34z" />
    <glyph glyph-name="uni0394" unicode="&#x394;" horiz-adv-x="687" 
d="M645 0h-649l417 650h66zM412 563l-318 -503h446z" />
    <glyph glyph-name="uni03A9" unicode="&#x3a9;" horiz-adv-x="720" 
d="M694 165l-36 -165h-274l8 45q99 71 156 166.5t57 206.5q0 55 -20.5 101.5t-60 73.5t-93.5 27q-67 0 -122.5 -44t-88 -116t-32.5 -152q0 -79 29 -150t79 -118l-8 -40h-270l29 165h9l39 -120h144q-137 114 -137 270q0 94 46 174.5t121.5 128t159.5 47.5q81 0 140 -30.5
t90 -86t31 -127.5q0 -110 -70.5 -210t-171.5 -166h149l87 120h10z" />
    <glyph glyph-name="mu" unicode="&#x3b5;" horiz-adv-x="525" 
d="M402 45h61l-8 -45h-132q1 6 3.5 20.5t5.5 27.5q-48 -29 -83 -43.5t-66 -14.5q-43 0 -66 20l2 -240h-86l96 549l-57 32l1 5l135 63l6 -3l-44 -246q-6 -33 -6 -55q0 -33 16 -47t53 -14q41 0 102 14l45 252l-58 32l1 5l135 63l6 -3l-65 -367z" />
    <glyph glyph-name="uni03BC" unicode="&#x3bc;" horiz-adv-x="519" 
d="M402 45h61l-8 -45h-132q1 6 3.5 20.5t5.5 27.5q-48 -29 -83 -43.5t-66 -14.5q-43 0 -66 20l2 -240h-86l96 549l-57 32l1 5l135 63l6 -3l-44 -246q-6 -33 -6 -55q0 -33 16 -47t53 -14q41 0 102 14l45 252l-58 32l1 5l135 63l6 -3l-65 -367z" />
    <glyph glyph-name="pi" unicode="&#x3c0;" 
d="M384 121l-1 -22q0 -34 8.5 -48t26.5 -14q17 0 33 6l7 -21q-45 -32 -74 -32q-36 0 -51.5 22t-15.5 73q0 20 1 32l14 223h-125l-60 -340h-66l60 340h-73l12 70h413l-12 -70h-83z" />
    <glyph glyph-name="Wgrave" unicode="&#x1e80;" horiz-adv-x="853" 
d="M953 650l-2 -12l-97 -49l-272 -589h-39l-65 412l-186 -412h-39l-111 590l-83 48l2 12h261l-2 -12l-97 -49l80 -473h2l161 377l-25 157h82l71 -534h2l202 474l-83 48l2 12h236zM353 834v5h102l76 -134h-35z" />
    <glyph glyph-name="wgrave" unicode="&#x1e81;" horiz-adv-x="580" 
d="M582 404v-3q-41 -119 -105 -223.5t-145 -187.5h-12l-30 195q-54 -93 -148 -195h-12l-58 326l-61 29l2 9l112 62l5 -3l51 -332q58 78 99 165l-24 158h72l43 -322q47 64 84.5 139t45.5 124l-53 54l1 5h133zM200 659v5h97l41 -184h-30z" />
    <glyph glyph-name="Wacute" unicode="&#x1e82;" horiz-adv-x="853" 
d="M953 650l-2 -12l-97 -49l-272 -589h-39l-65 412l-186 -412h-39l-111 590l-83 48l2 12h261l-2 -12l-97 -49l80 -473h2l161 377l-25 157h82l71 -534h2l202 474l-83 48l2 12h236zM555 840h102v-5l-167 -129h-35z" />
    <glyph glyph-name="wacute" unicode="&#x1e83;" horiz-adv-x="580" 
d="M582 404v-3q-41 -119 -105 -223.5t-145 -187.5h-12l-30 195q-54 -93 -148 -195h-12l-58 326l-61 29l2 9l112 62l5 -3l51 -332q58 78 99 165l-24 158h72l43 -322q47 64 84.5 139t45.5 124l-53 54l1 5h133zM357 664h97v-5l-135 -179h-30z" />
    <glyph glyph-name="Wdieresis" unicode="&#x1e84;" horiz-adv-x="853" 
d="M953 650l-2 -12l-97 -49l-272 -589h-39l-65 412l-186 -412h-39l-111 590l-83 48l2 12h261l-2 -12l-97 -49l80 -473h2l161 377l-25 157h82l71 -534h2l202 474l-83 48l2 12h236zM393 775q0 24 16.5 41.5t39.5 17.5q21 0 35 -16.5t13 -38.5q-2 -22 -18.5 -38t-36.5 -16
q-21 0 -35 14.5t-14 35.5zM556 775q0 24 16.5 41.5t39.5 17.5q21 0 35 -16.5t13 -38.5q-2 -22 -18.5 -38t-36.5 -16q-21 0 -35 14.5t-14 35.5z" />
    <glyph glyph-name="wdieresis" unicode="&#x1e85;" horiz-adv-x="580" 
d="M582 404v-3q-41 -119 -105 -223.5t-145 -187.5h-12l-30 195q-54 -93 -148 -195h-12l-58 326l-61 29l2 9l112 62l5 -3l51 -332q58 78 99 165l-24 158h72l43 -322q47 64 84.5 139t45.5 124l-53 54l1 5h133zM183 574q0 24 16.5 41.5t39.5 17.5q21 0 35 -16.5t13 -38.5
q-2 -22 -18.5 -38t-36.5 -16q-21 0 -35 14.5t-14 35.5zM346 574q0 24 16.5 41.5t39.5 17.5q21 0 35 -16.5t13 -38.5q-2 -22 -18.5 -38t-36.5 -16q-21 0 -35 14.5t-14 35.5z" />
    <glyph glyph-name="Ygrave" unicode="&#x1ef2;" horiz-adv-x="556" 
d="M141 45h70l6 5l34 194l-109 346l-83 48l2 12h261l-2 -12l-97 -49l86 -289h5l187 290l-83 48l2 12h236l-2 -12l-101 -49l-218 -325l-38 -214l4 -5h70l-8 -45h-230zM232 836v5h102l76 -134h-35z" />
    <glyph glyph-name="ygrave" unicode="&#x1ef3;" horiz-adv-x="421" 
d="M423 404v-3q-45 -138 -102 -236t-150 -191l-165 -215l-72 63l199 148l-56 346l-61 29l2 9l119 62l5 -3l48 -376q61 74 100.5 157t51.5 151l-53 54l1 5h133zM131 659v5h97l41 -184h-30z" />
    <glyph glyph-name="uni2009" unicode="&#x2009;" horiz-adv-x="60" 
 />
    <glyph glyph-name="endash" unicode="&#x2013;" horiz-adv-x="500" 
d="M31 231h430l-8 -45h-430z" />
    <glyph glyph-name="emdash" unicode="&#x2014;" horiz-adv-x="1000" 
d="M31 231h930l-8 -45h-930z" />
    <glyph glyph-name="quoteleft" unicode="&#x2018;" horiz-adv-x="168" 
d="M200 569q0 -27 -18 -47t-44 -20q-23 0 -37.5 17t-14.5 45q0 52 38.5 97t102.5 66l9 -24q-33 -14 -54 -37t-24 -47q20 -3 31 -16.5t11 -33.5z" />
    <glyph glyph-name="quoteright" unicode="&#x2019;" horiz-adv-x="181" 
d="M223 664q0 -51 -41.5 -98t-99.5 -64l-9 24q60 24 81 84q-19 2 -32 16t-13 35q0 27 17.5 46.5t43.5 19.5q23 0 38 -17.5t15 -45.5z" />
    <glyph glyph-name="quotesinglbase" unicode="&#x201a;" horiz-adv-x="162" 
d="M117 39q0 -51 -41.5 -98t-99.5 -64l-9 24q60 24 81 84q-19 2 -32 16t-13 35q0 27 17.5 46.5t43.5 19.5q23 0 38 -17.5t15 -45.5z" />
    <glyph glyph-name="quotedblleft" unicode="&#x201c;" horiz-adv-x="340" 
d="M200 569q0 -27 -18 -47t-44 -20q-23 0 -37.5 17t-14.5 45q0 52 38.5 97t102.5 66l9 -24q-33 -14 -54 -37t-24 -47q20 -3 31 -16.5t11 -33.5zM372 569q0 -27 -18 -47t-44 -20q-23 0 -37.5 17t-14.5 45q0 52 38.5 97t102.5 66l9 -24q-33 -14 -54 -37t-24 -47
q20 -3 31 -16.5t11 -33.5z" />
    <glyph glyph-name="quotedblright" unicode="&#x201d;" horiz-adv-x="353" 
d="M223 664q0 -51 -41.5 -98t-99.5 -64l-9 24q60 24 81 84q-19 2 -32 16t-13 35q0 27 17.5 46.5t43.5 19.5q23 0 38 -17.5t15 -45.5zM395 664q0 -51 -41.5 -98t-99.5 -64l-9 24q60 24 81 84q-19 2 -32 16t-13 35q0 27 17.5 46.5t43.5 19.5q23 0 38 -17.5t15 -45.5z" />
    <glyph glyph-name="quotedblbase" unicode="&#x201e;" horiz-adv-x="335" 
d="M290 41q0 -51 -41.5 -98t-99.5 -64l-9 24q60 24 81 84q-19 2 -32 16t-13 35q0 27 17.5 46.5t43.5 19.5q23 0 38 -17.5t15 -45.5zM119 41q0 -51 -41.5 -98t-99.5 -64l-9 24q60 24 81 84q-19 2 -32 16t-13 35q0 27 17.5 46.5t43.5 19.5q23 0 38 -17.5t15 -45.5z" />
    <glyph glyph-name="dagger" unicode="&#x2020;" horiz-adv-x="540" 
d="M536 344l-215 27l-1 -153l-108 -448h-36l50 449l53 152l-223 -27l16 95l215 -27l15 238h95l-70 -239l225 28z" />
    <glyph glyph-name="daggerdbl" unicode="&#x2021;" horiz-adv-x="542" 
d="M321 209l-56 -159l224 27l-16 -95l-215 27l-14 -238h-95l69 239l-225 -28l16 95l215 -27l2 160l56 161l-224 -27l16 95l215 -27l14 238h95l-69 -239l225 28l-16 -95l-215 27z" />
    <glyph glyph-name="bullet" unicode="&#x2022;" horiz-adv-x="273" 
d="M60 303q0 45 31.5 78t76.5 33q37 0 59.5 -22t22.5 -56q0 -45 -31.5 -78t-76.5 -33q-37 0 -59.5 22t-22.5 56z" />
    <glyph glyph-name="ellipsis" unicode="&#x2026;" horiz-adv-x="505" 
d="M12 33q0 26 18.5 47.5t44.5 21.5q20 0 32.5 -13.5t12.5 -33.5q0 -27 -18.5 -48.5t-44.5 -21.5q-20 0 -32.5 13.5t-12.5 34.5zM174 33q0 26 18.5 47.5t44.5 21.5q20 0 32.5 -13.5t12.5 -33.5q0 -27 -18.5 -48.5t-44.5 -21.5q-20 0 -32.5 13.5t-12.5 34.5zM336 33
q0 26 18.5 47.5t44.5 21.5q20 0 32.5 -13.5t12.5 -33.5q0 -27 -18.5 -48.5t-44.5 -21.5q-20 0 -32.5 13.5t-12.5 34.5z" />
    <glyph glyph-name="perthousand" unicode="&#x2030;" horiz-adv-x="790" 
d="M59 352q0 34 17.5 66t47 52t64.5 20q44 0 68.5 -23.5t24.5 -63.5q0 -33 -18 -65t-48 -52t-66 -20q-41 0 -65.5 23.5t-24.5 62.5zM412 480h57l-330 -480h-57zM224 406q0 57 -40 57q-27 0 -47.5 -33.5t-20.5 -81.5q0 -55 39 -55q27 0 48 33t21 80zM268 72q0 34 17.5 66
t47 52t64.5 20q44 0 68.5 -23.5t24.5 -63.5q0 -33 -18 -65t-48 -52t-66 -20q-41 0 -65.5 23.5t-24.5 62.5zM523 72q0 34 17.5 66t47 52t64.5 20q44 0 68.5 -23.5t24.5 -63.5q0 -33 -18 -65t-48 -52t-66 -20q-41 0 -65.5 23.5t-24.5 62.5zM433 126q0 57 -40 57
q-27 0 -47.5 -33.5t-20.5 -81.5q0 -55 39 -55q27 0 48 33t21 80zM688 126q0 57 -40 57q-27 0 -47.5 -33.5t-20.5 -81.5q0 -55 39 -55q27 0 48 33t21 80z" />
    <glyph glyph-name="guilsinglleft" unicode="&#x2039;" horiz-adv-x="269" 
d="M30 200l1 5l191 155h35l-143 -158l87 -158h-35z" />
    <glyph glyph-name="guilsinglright" unicode="&#x203a;" horiz-adv-x="259" 
d="M146 203l-87 158h39l122 -156l-1 -5l-178 -155h-38z" />
    <glyph glyph-name="fraction" unicode="&#x2044;" horiz-adv-x="147" 
d="M284 682h57l-436 -717h-57z" />
    <glyph glyph-name="uni2070" unicode="&#x2070;" horiz-adv-x="398" 
d="M93 516q0 66 25.5 130t73 105t108.5 41q63 0 100 -43.5t37 -116.5q0 -66 -25.5 -130.5t-73 -105.5t-109.5 -41t-99 43.5t-37 117.5zM362 630q0 61 -18 96.5t-52 35.5t-62.5 -33t-45 -89t-16.5 -123q0 -61 18 -96t52 -35q33 0 61.5 33t45.5 89t17 122z" />
    <glyph glyph-name="uni2074" unicode="&#x2074;" horiz-adv-x="372" 
d="M417 524v-6l-19 -39h-82l-13 -75l3 -3h58l-6 -36h-187l6 36h62l4 3l13 75h-190l4 22l253 281h46l-45 -258h93zM264 524l32 184l-165 -184h133z" />
    <glyph glyph-name="uni2075" unicode="&#x2075;" horiz-adv-x="327" 
d="M185 730l-30 -119q40 16 76 16q57 0 90 -32t33 -83q0 -44 -22.5 -79.5t-62 -56.5t-89.5 -21q-64 0 -117 36l25 101h8l10 -32q12 -37 32 -55.5t51 -18.5q38 0 65 34t27 84q0 40 -22 61t-64 21q-40 0 -74 -17l-12 8l52 205h163l54 60h8l-25 -112h-176z" />
    <glyph glyph-name="uni2076" unicode="&#x2076;" horiz-adv-x="352" 
d="M219 355q-60 0 -96.5 34.5t-36.5 100.5q0 73 36 137.5t101 108.5t150 57l6 -26q-70 -13 -125 -61.5t-79 -120.5q47 41 101 41q49 0 78.5 -29.5t29.5 -80.5q0 -40 -21.5 -77t-59.5 -60.5t-84 -23.5zM311 510q0 37 -16.5 56t-47.5 19q-20 0 -42 -9t-39 -24q-7 -31 -7 -70
q1 -47 18 -71.5t45 -24.5q37 0 63 37t26 87z" />
    <glyph glyph-name="uni2077" unicode="&#x2077;" horiz-adv-x="303" 
d="M399 782l-1 -8q-27 -46 -55 -98q-141 -251 -181 -319l-70 29l128 176t118 165h-173l-54 -64h-7l21 119h274z" />
    <glyph glyph-name="uni2078" unicode="&#x2078;" horiz-adv-x="333" 
d="M361 475q0 -51 -41.5 -85.5t-105.5 -34.5q-56 0 -95 29t-40 76q0 42 29 74.5t80 50.5q-26 23 -39.5 46.5t-14.5 51.5q0 45 37 77t92 32q50 0 81 -23.5t31 -62.5q0 -33 -26.5 -61t-73.5 -46l22 -19q34 -30 48.5 -54t15.5 -51zM195 706q1 -21 13.5 -39.5t37.5 -41.5l13 -11
q25 16 40.5 40.5t15.5 49.5q-1 28 -17.5 43t-41.5 15q-27 0 -44 -16t-17 -40zM293 452q0 23 -10 40t-37 41l-40 36q-59 -37 -58 -104q0 -37 20.5 -58t52.5 -21t52 19t20 47z" />
    <glyph glyph-name="uni2079" unicode="&#x2079;" horiz-adv-x="352" 
d="M92 355l-6 26q82 22 137.5 68.5t80.5 106.5q-44 -34 -95 -34q-48 0 -78.5 29.5t-30.5 82.5q0 41 22.5 77.5t61 58.5t83.5 22q63 0 96 -38t33 -105q0 -100 -76 -180t-228 -114zM319 608q4 19 4 43q-1 58 -16 84.5t-47 26.5q-37 0 -62 -37.5t-25 -91.5q1 -35 16 -54.5
t43 -19.5q24 0 47.5 13.5t39.5 35.5z" />
    <glyph glyph-name="uni207A" unicode="&#x207a;" horiz-adv-x="416" 
d="M436 546h-144l-26 -150h-56l26 150h-140l10 52h140l24 138h56l-24 -138h144z" />
    <glyph glyph-name="uni207B" unicode="&#x207b;" horiz-adv-x="416" 
d="M106 598h340l-10 -52h-340z" />
    <glyph glyph-name="uni207C" unicode="&#x207c;" horiz-adv-x="412" 
d="M118 663h340l-10 -52h-340zM92 514h340l-10 -52h-340z" />
    <glyph glyph-name="uni207D" unicode="&#x207d;" horiz-adv-x="206" 
d="M95 514q0 89 53.5 181.5t144.5 159.5l20 -16q-79 -71 -117 -163.5t-38 -188.5q0 -117 59 -195l-26 -15q-46 48 -71 108.5t-25 128.5z" />
    <glyph glyph-name="uni207E" unicode="&#x207e;" horiz-adv-x="205" 
d="M22 293q78 71 116.5 164t38.5 188q0 53 -14.5 103t-44.5 91l26 16q46 -48 71 -108.5t25 -126.5q0 -91 -53 -184t-145 -159z" />
    <glyph glyph-name="uni2080" unicode="&#x2080;" horiz-adv-x="398" 
d="M9 32q0 66 25.5 130t73 105t108.5 41q63 0 100 -43.5t37 -116.5q0 -66 -25.5 -130.5t-73 -105.5t-109.5 -41t-99 43.5t-37 117.5zM278 146q0 61 -18 96.5t-52 35.5t-62.5 -33t-45 -89t-16.5 -123q0 -61 18 -96t52 -35q33 0 61.5 33t45.5 89t17 122z" />
    <glyph glyph-name="uni2081" unicode="&#x2081;" horiz-adv-x="265" 
d="M-14 -83h67l4 3l60 339l-3 4h-68l7 35h136l-67 -378l3 -3h68l-7 -36h-206z" />
    <glyph glyph-name="uni2082" unicode="&#x2082;" horiz-adv-x="324" 
d="M237 -26h37l-16 -93h-286l3 20l77 73q79 74 115.5 130t36.5 106q0 33 -14 50.5t-39 17.5q-22 0 -41.5 -15t-45.5 -46l-33 -41h-8l18 104q54 28 113 28q56 0 89.5 -28t33.5 -70q1 -50 -37 -101t-118 -119l-68 -58h171l5 3z" />
    <glyph glyph-name="uni2083" unicode="&#x2083;" horiz-adv-x="325" 
d="M272 11q0 -37 -22.5 -69.5t-61 -51.5t-83.5 -19q-66 0 -122 36l24 101h8l10 -32q13 -38 33.5 -56t52.5 -18q38 0 63 28.5t25 72.5q0 80 -99 80h-35l6 35h21q53 0 84.5 28t31.5 73q-1 28 -13.5 43.5t-36.5 15.5q-22 0 -41 -14.5t-41 -42.5l-38 -45h-8l18 104q56 28 115 28
q54 0 86 -24.5t32 -64.5q0 -71 -99 -109q42 -11 66 -36.5t24 -62.5z" />
    <glyph glyph-name="uni2084" unicode="&#x2084;" horiz-adv-x="372" 
d="M333 40v-6l-19 -39h-82l-13 -75l3 -3h58l-6 -36h-187l6 36h62l4 3l13 75h-190l4 22l253 281h46l-45 -258h93zM180 40l32 184l-165 -184h133z" />
    <glyph glyph-name="uni2085" unicode="&#x2085;" horiz-adv-x="327" 
d="M101 246l-30 -119q40 16 76 16q57 0 90 -32t33 -83q0 -44 -22.5 -79.5t-62 -56.5t-89.5 -21q-64 0 -117 36l25 101h8l10 -32q12 -37 32 -55.5t51 -18.5q38 0 65 34t27 84q0 40 -22 61t-64 21q-40 0 -74 -17l-12 8l52 205h163l54 60h8l-25 -112h-176z" />
    <glyph glyph-name="uni2086" unicode="&#x2086;" horiz-adv-x="352" 
d="M135 -129q-60 0 -96.5 34.5t-36.5 100.5q0 73 36 137.5t101 108.5t150 57l6 -26q-70 -13 -125 -61.5t-79 -120.5q47 41 101 41q49 0 78.5 -29.5t29.5 -80.5q0 -40 -21.5 -77t-59.5 -60.5t-84 -23.5zM227 26q0 37 -16.5 56t-47.5 19q-20 0 -42 -9t-39 -24q-7 -31 -7 -70
q1 -47 18 -71.5t45 -24.5q37 0 63 37t26 87z" />
    <glyph glyph-name="uni2087" unicode="&#x2087;" horiz-adv-x="303" 
d="M315 298l-1 -8q-27 -46 -55 -98q-141 -251 -181 -319l-70 29l128 176t118 165h-173l-54 -64h-7l21 119h274z" />
    <glyph glyph-name="uni2088" unicode="&#x2088;" horiz-adv-x="333" 
d="M277 -9q0 -51 -41.5 -85.5t-105.5 -34.5q-56 0 -95 29t-40 76q0 42 29 74.5t80 50.5q-26 23 -39.5 46.5t-14.5 51.5q0 45 37 77t92 32q50 0 81 -23.5t31 -62.5q0 -33 -26.5 -61t-73.5 -46l22 -19q34 -30 48.5 -54t15.5 -51zM111 222q1 -21 13.5 -39.5t37.5 -41.5l13 -11
q25 16 40.5 40.5t15.5 49.5q-1 28 -17.5 43t-41.5 15q-27 0 -44 -16t-17 -40zM209 -32q0 23 -10 40t-37 41l-40 36q-59 -37 -58 -104q0 -37 20.5 -58t52.5 -21t52 19t20 47z" />
    <glyph glyph-name="uni2089" unicode="&#x2089;" horiz-adv-x="352" 
d="M8 -129l-6 26q82 22 137.5 68.5t80.5 106.5q-44 -34 -95 -34q-48 0 -78.5 29.5t-30.5 82.5q0 41 22.5 77.5t61 58.5t83.5 22q63 0 96 -38t33 -105q0 -100 -76 -180t-228 -114zM235 124q4 19 4 43q-1 58 -16 84.5t-47 26.5q-37 0 -62 -37.5t-25 -91.5q1 -35 16 -54.5
t43 -19.5q24 0 47.5 13.5t39.5 35.5z" />
    <glyph glyph-name="uni208A" unicode="&#x208a;" horiz-adv-x="416" 
d="M352 62h-144l-26 -150h-56l26 150h-140l10 52h140l24 138h56l-24 -138h144z" />
    <glyph glyph-name="uni208B" unicode="&#x208b;" horiz-adv-x="416" 
d="M22 114h340l-10 -52h-340z" />
    <glyph glyph-name="uni208C" unicode="&#x208c;" horiz-adv-x="412" 
d="M34 179h340l-10 -52h-340zM7 29h340l-10 -52h-340z" />
    <glyph glyph-name="uni208D" unicode="&#x208d;" horiz-adv-x="206" 
d="M11 30q0 89 53.5 181.5t144.5 159.5l20 -16q-79 -71 -117 -163.5t-38 -188.5q0 -117 59 -195l-26 -15q-46 48 -71 108.5t-25 128.5z" />
    <glyph glyph-name="uni208E" unicode="&#x208e;" horiz-adv-x="205" 
d="M-62 -191q78 71 116.5 164t38.5 188q0 53 -14.5 103t-44.5 91l26 16q46 -48 71 -108.5t25 -126.5q0 -91 -53 -184t-145 -159z" />
    <glyph glyph-name="Euro" unicode="&#x20ac;" horiz-adv-x="448" 
d="M469 460l-22 -125h-6l-10 23q-17 47 -40 71.5t-60 24.5q-49 0 -87.5 -40.5t-56.5 -106.5h146l-7 -35h-147q-4 -30 -6 -62h140l-8 -35h-131q4 -72 33.5 -110.5t71.5 -38.5q29 0 53 19.5t53 62.5l28 42l7 -1l-20 -123q-45 -37 -118 -37q-78 0 -130 48.5t-60 137.5h-72l8 35
h63q0 27 7 62h-57l7 35h59q27 82 89.5 133t148.5 51q62 0 124 -31z" />
    <glyph glyph-name="uni2116" unicode="&#x2116;" horiz-adv-x="784" 
d="M564 471l-78 -39l-76 -432h-38l-182 394l-62 -353l4 -3h62l-7 -38h-172l7 38h56l4 3l69 392l-64 38l1 9h142l158 -361l54 314l-65 38l2 9h187zM662 384q42 0 69.5 -24.5t27.5 -66.5q0 -35 -18.5 -65.5t-50 -49t-68.5 -18.5q-43 0 -71 24.5t-28 66.5q0 34 19 65t50.5 49.5
t69.5 18.5zM582 256q0 -33 13.5 -52.5t35.5 -19.5q29 0 49 31t20 72q0 33 -13.5 53t-35.5 20q-28 0 -48.5 -31t-20.5 -73zM507 118h230l-7 -36h-230z" />
    <glyph glyph-name="trademark" unicode="&#x2122;" horiz-adv-x="685" 
d="M339 570h-8l-21 54h-56l-34 -192l2 -2h34l-5 -25h-122l5 25h34l2 2l34 192h-57l-41 -54h-7l15 80h240zM678 623l-21 -191l2 -2h30l-5 -25h-114l5 25h29l2 2l18 161l-119 -188h-19l-47 187l-39 -160l2 -2h30l-5 -25h-91l5 25h28l2 2l47 190l-32 23l1 5h92l42 -169h3
l107 169h87l-1 -5z" />
    <glyph glyph-name="uni2126" unicode="&#x2126;" horiz-adv-x="720" 
d="M694 165l-36 -165h-274l8 45q99 71 156 166.5t57 206.5q0 55 -20.5 101.5t-60 73.5t-93.5 27q-67 0 -122.5 -44t-88 -116t-32.5 -152q0 -79 29 -150t79 -118l-8 -40h-270l29 165h9l39 -120h144q-137 114 -137 270q0 94 46 174.5t121.5 128t159.5 47.5q81 0 140 -30.5
t90 -86t31 -127.5q0 -110 -70.5 -210t-171.5 -166h149l87 120h10z" />
    <glyph glyph-name="uni2153" unicode="&#x2153;" horiz-adv-x="800" 
d="M42 279h67l4 3l60 339l-3 4h-68l7 35h136l-67 -378l3 -3h68l-7 -36h-206zM573 682h57l-436 -717h-57zM749 130q0 -37 -22.5 -69.5t-61 -51.5t-83.5 -19q-66 0 -122 36l24 101h8l10 -32q13 -38 33.5 -56t52.5 -18q38 0 63 28.5t25 72.5q0 80 -99 80h-35l6 35h21
q53 0 84.5 28t31.5 73q-1 28 -13.5 43.5t-36.5 15.5q-22 0 -41 -14.5t-41 -42.5l-38 -45h-8l18 104q56 28 115 28q54 0 86 -24.5t32 -64.5q0 -71 -99 -109q42 -11 66 -36.5t24 -62.5z" />
    <glyph glyph-name="uni2154" unicode="&#x2154;" horiz-adv-x="800" 
d="M297 336h37l-16 -93h-286l3 20l77 73q79 74 115.5 130t36.5 106q0 33 -14 50.5t-39 17.5q-22 0 -41.5 -15t-45.5 -46l-33 -41h-8l18 104q54 28 113 28q56 0 89.5 -28t33.5 -70q1 -50 -37 -101t-118 -119l-68 -58h171l5 3zM619 682h57l-436 -717h-57zM775 130
q0 -37 -22.5 -69.5t-61 -51.5t-83.5 -19q-66 0 -122 36l24 101h8l10 -32q13 -38 33.5 -56t52.5 -18q38 0 63 28.5t25 72.5q0 80 -99 80h-35l6 35h21q53 0 84.5 28t31.5 73q-1 28 -13.5 43.5t-36.5 15.5q-22 0 -41 -14.5t-41 -42.5l-38 -45h-8l18 104q56 28 115 28
q54 0 86 -24.5t32 -64.5q0 -71 -99 -109q42 -11 66 -36.5t24 -62.5z" />
    <glyph glyph-name="oneeighth" unicode="&#x215b;" horiz-adv-x="801" 
d="M52 279h67l4 3l60 339l-3 4h-68l7 35h136l-67 -378l3 -3h68l-7 -36h-206zM571 682h57l-436 -717h-57zM725 110q0 -51 -41.5 -85.5t-105.5 -34.5q-56 0 -95 29t-40 76q0 42 29 74.5t80 50.5q-26 23 -39.5 46.5t-14.5 51.5q0 45 37 77t92 32q50 0 81 -23.5t31 -62.5
q0 -33 -26.5 -61t-73.5 -46l22 -19q34 -30 48.5 -54t15.5 -51zM559 341q1 -21 13.5 -39.5t37.5 -41.5l13 -11q25 16 40.5 40.5t15.5 49.5q-1 28 -17.5 43t-41.5 15q-27 0 -44 -16t-17 -40zM657 87q0 23 -10 40t-37 41l-40 36q-59 -37 -58 -104q0 -37 20.5 -58t52.5 -21
t52 19t20 47z" />
    <glyph glyph-name="threeeighths" unicode="&#x215c;" horiz-adv-x="801" 
d="M372 373q0 -37 -22.5 -69.5t-61 -51.5t-83.5 -19q-66 0 -122 36l24 101h8l10 -32q13 -38 33.5 -56t52.5 -18q38 0 63 28.5t25 72.5q0 80 -99 80h-35l6 35h21q53 0 84.5 28t31.5 73q-1 28 -13.5 43.5t-36.5 15.5q-22 0 -41 -14.5t-41 -42.5l-38 -45h-8l18 104
q56 28 115 28q54 0 86 -24.5t32 -64.5q0 -71 -99 -109q42 -11 66 -36.5t24 -62.5zM627 682h57l-436 -717h-57zM766 110q0 -51 -41.5 -85.5t-105.5 -34.5q-56 0 -95 29t-40 76q0 42 29 74.5t80 50.5q-26 23 -39.5 46.5t-14.5 51.5q0 45 37 77t92 32q50 0 81 -23.5t31 -62.5
q0 -33 -26.5 -61t-73.5 -46l22 -19q34 -30 48.5 -54t15.5 -51zM600 341q1 -21 13.5 -39.5t37.5 -41.5l13 -11q25 16 40.5 40.5t15.5 49.5q-1 28 -17.5 43t-41.5 15q-27 0 -44 -16t-17 -40zM698 87q0 23 -10 40t-37 41l-40 36q-59 -37 -58 -104q0 -37 20.5 -58t52.5 -21
t52 19t20 47z" />
    <glyph glyph-name="fiveeighths" unicode="&#x215d;" horiz-adv-x="800" 
d="M166 608l-30 -119q40 16 76 16q57 0 90 -32t33 -83q0 -44 -22.5 -79.5t-62 -56.5t-89.5 -21q-64 0 -117 36l25 101h8l10 -32q12 -37 32 -55.5t51 -18.5q38 0 65 34t27 84q0 40 -22 61t-64 21q-40 0 -74 -17l-12 8l52 205h163l54 60h8l-25 -112h-176zM613 682h57
l-436 -717h-57zM759 110q0 -51 -41.5 -85.5t-105.5 -34.5q-56 0 -95 29t-40 76q0 42 29 74.5t80 50.5q-26 23 -39.5 46.5t-14.5 51.5q0 45 37 77t92 32q50 0 81 -23.5t31 -62.5q0 -33 -26.5 -61t-73.5 -46l22 -19q34 -30 48.5 -54t15.5 -51zM593 341q1 -21 13.5 -39.5
t37.5 -41.5l13 -11q25 16 40.5 40.5t15.5 49.5q-1 28 -17.5 43t-41.5 15q-27 0 -44 -16t-17 -40zM691 87q0 23 -10 40t-37 41l-40 36q-59 -37 -58 -104q0 -37 20.5 -58t52.5 -21t52 19t20 47z" />
    <glyph glyph-name="seveneighths" unicode="&#x215e;" horiz-adv-x="800" 
d="M412 660l-1 -8q-27 -46 -55 -98q-141 -251 -181 -319l-70 29l128 176t118 165h-173l-54 -64h-7l21 119h274zM581 682h57l-436 -717h-57zM752 110q0 -51 -41.5 -85.5t-105.5 -34.5q-56 0 -95 29t-40 76q0 42 29 74.5t80 50.5q-26 23 -39.5 46.5t-14.5 51.5q0 45 37 77
t92 32q50 0 81 -23.5t31 -62.5q0 -33 -26.5 -61t-73.5 -46l22 -19q34 -30 48.5 -54t15.5 -51zM586 341q1 -21 13.5 -39.5t37.5 -41.5l13 -11q25 16 40.5 40.5t15.5 49.5q-1 28 -17.5 43t-41.5 15q-27 0 -44 -16t-17 -40zM684 87q0 23 -10 40t-37 41l-40 36q-59 -37 -58 -104
q0 -37 20.5 -58t52.5 -21t52 19t20 47z" />
    <glyph glyph-name="partialdiff" unicode="&#x2202;" horiz-adv-x="506" 
d="M495 428q0 -123 -39.5 -224.5t-106 -160t-145.5 -58.5q-72 0 -113 49t-41 127q0 70 31.5 129.5t84 94.5t111.5 35q77 0 135 -63q3 32 3 62q0 119 -46.5 187.5t-149.5 77.5l7 33q83 0 144 -38.5t93 -104.5t32 -146zM407 322q-24 19 -56 30t-64 11q-47 0 -83 -29.5
t-55 -76.5t-19 -97q0 -61 23 -98t67 -37q43 0 81.5 41.5t66 109.5t39.5 146z" />
    <glyph glyph-name="uni2206" unicode="&#x2206;" horiz-adv-x="687" 
d="M645 0h-649l417 650h66zM412 563l-318 -503h446z" />
    <glyph glyph-name="product" unicode="&#x220f;" horiz-adv-x="690" 
d="M8 -105h70l6 5l122 690l-83 48l2 12h595l-2 -12l-97 -49l-122 -689l4 -5h70l-8 -45h-230l8 45h70l6 5l123 695h-255l-123 -695l4 -5h70l-8 -45h-230z" />
    <glyph glyph-name="summation" unicode="&#x2211;" horiz-adv-x="564" 
d="M-37 -120l313 370l-156 370l6 30h477l-30 -165h-5l-44 120h-305l133 -335l-297 -342h360l104 120h5l-46 -198h-521z" />
    <glyph glyph-name="minus" unicode="&#x2212;" 
d="M50 233h400l-10 -52h-400z" />
    <glyph glyph-name="uni2215" unicode="&#x2215;" horiz-adv-x="147" 
d="M284 682h57l-436 -717h-57z" />
    <glyph glyph-name="uni2219" unicode="&#x2219;" horiz-adv-x="269" 
d="M70 303q0 45 31.5 78t76.5 33q37 0 59.5 -22t22.5 -56q0 -45 -31.5 -78t-76.5 -33q-37 0 -59.5 22t-22.5 56z" />
    <glyph glyph-name="radical" unicode="&#x221a;" horiz-adv-x="609" 
d="M614 711h-89l-253 -721h-45l-166 370l-56 45v5h121l137 -325l228 665h123v-39z" />
    <glyph glyph-name="infinity" unicode="&#x221e;" horiz-adv-x="686" 
d="M670 327q0 -68 -40.5 -113t-103.5 -45q-43 0 -82 27t-69 82q-27 -34 -47 -55t-50 -37.5t-67 -16.5q-38 0 -70.5 18.5t-52 52.5t-19.5 79q0 42 17.5 79t51 59.5t80.5 22.5q48 0 84 -26t65 -80q46 54 80.5 80t77.5 26q41 0 74 -20.5t52 -55.5t19 -77zM632 330
q0 39 -24.5 65t-63.5 26q-37 0 -65.5 -24t-66.5 -73q-1 -1 -13 -16q23 -36 58 -56t73 -20q48 0 75 27.5t27 70.5zM322 319q12 16 19 24q-24 35 -59 54.5t-72 19.5q-47 0 -74.5 -27t-27.5 -69q0 -40 25.5 -66.5t65.5 -26.5q35 0 61 22t62 69z" />
    <glyph glyph-name="integral" unicode="&#x222b;" horiz-adv-x="405" 
d="M-40 -197q59 27 89.5 67t44.5 117l77 457q25 149 73 211t124 62q39 0 93 -23l-20 -121h-4l-20 40q-19 37 -33.5 52.5t-34.5 15.5q-41 0 -63 -53t-41 -166l-79 -462q-17 -99 -64.5 -147.5t-138.5 -69.5z" />
    <glyph glyph-name="approxequal" unicode="&#x2248;" horiz-adv-x="559" 
d="M265 268q-42 22 -61 22q-26 0 -46 -12t-46 -38l-37 29q32 38 60.5 56t69.5 18q21 0 40 -7t44 -21q23 -12 38.5 -18t30.5 -6q26 0 46 12t46 38l37 -29q-32 -38 -60.5 -56t-69.5 -18q-22 0 -42 7.5t-50 22.5zM265 104q-42 22 -61 22q-26 0 -46 -12t-46 -38l-37 29
q32 38 60.5 56t69.5 18q21 0 40 -7t44 -21q23 -12 38.5 -18t30.5 -6q26 0 46 12t46 38l37 -29q-32 -38 -60.5 -56t-69.5 -18q-22 0 -42 7.5t-50 22.5z" />
    <glyph glyph-name="notequal" unicode="&#x2260;" horiz-adv-x="560" 
d="M367 268l-108 -125h218l-9 -52h-254l-88 -101l-44 27l64 74h-92l9 52h128l109 125h-215l9 52h251l88 101l43 -28l-63 -73h95l-9 -52h-132z" />
    <glyph glyph-name="lessequal" unicode="&#x2264;" horiz-adv-x="560" 
d="M509 364l-339 -112l300 -112l-10 -56l-375 141l9 54l425 141zM54 52h400l-9 -52h-400z" />
    <glyph glyph-name="greaterequal" unicode="&#x2265;" horiz-adv-x="560" 
d="M494 278l-9 -54l-425 -141l10 56l339 112l-300 112l10 56zM53 52h400l-9 -52h-400z" />
    <glyph glyph-name="lozenge" unicode="&#x25ca;" horiz-adv-x="560" 
d="M528 320l-249 -330h-54l-133 330l249 330h54zM465 319l-108 270l-202 -268l108 -270z" />
    <glyph glyph-name="circle" unicode="&#x25cb;" horiz-adv-x="610" 
d="M65 324q0 56 27.5 103t74.5 74.5t103 27.5t103 -27.5t74.5 -74.5t27.5 -103t-27.5 -103t-74.5 -74.5t-103 -27.5t-103 27.5t-74.5 74.5t-27.5 103z" />
    <glyph glyph-name="dotlessj" unicode="&#xf6be;" horiz-adv-x="243" 
d="M-84 -197q59 27 89.5 67t44.5 117l59 334l-61 29l2 9l141 62l5 -3l-74 -418q-18 -99 -65 -147.5t-138 -69.5z" />
    <glyph glyph-name="commainferior" unicode="&#xf6e1;" horiz-adv-x="190" 
d="M106 -75q0 -61 -41 -111.5t-107 -77.5l-9 24q38 18 61 46.5t26 59.5q-19 1 -30.5 14.5t-11.5 35.5q0 26 19.5 46.5t45.5 20.5q22 0 34.5 -17t12.5 -41z" />
    <glyph glyph-name="commasuperior" unicode="&#xf6e2;" horiz-adv-x="190" 
d="M190 409q0 -61 -41 -111.5t-107 -77.5l-9 24q38 18 61 46.5t26 59.5q-19 1 -30.5 14.5t-11.5 35.5q0 26 19.5 46.5t45.5 20.5q22 0 34.5 -17t12.5 -41z" />
    <glyph glyph-name="hypheninferior" unicode="&#xf6e5;" horiz-adv-x="361" 
d="M31 109h251l-7 -42h-251z" />
    <glyph glyph-name="hyphensuperior" unicode="&#xf6e6;" horiz-adv-x="361" 
d="M115 593h251l-7 -42h-251z" />
    <glyph glyph-name="periodinferior" unicode="&#xf6e7;" horiz-adv-x="186" 
d="M-13 -86q0 26 18.5 47.5t44.5 21.5q20 0 32.5 -13.5t12.5 -33.5q0 -27 -18.5 -48.5t-44.5 -21.5q-20 0 -32.5 13.5t-12.5 34.5z" />
    <glyph glyph-name="periodsuperior" unicode="&#xf6e8;" horiz-adv-x="186" 
d="M71 398q0 26 18.5 47.5t44.5 21.5q20 0 32.5 -13.5t12.5 -33.5q0 -27 -18.5 -48.5t-44.5 -21.5q-20 0 -32.5 13.5t-12.5 34.5z" />
    <glyph glyph-name="i.loclTRK" horiz-adv-x="241" 
d="M113 574q0 24 16.5 41.5t39.5 17.5q21 0 35 -16.5t13 -38.5q-2 -22 -18.5 -38t-36.5 -16q-21 0 -35 14.5t-14 35.5zM47 58q0 28 7 62l38 201l-60 29l1 9l141 62l5 -3l-55 -288q-4 -20 -4 -39q0 -23 10.5 -33t33.5 -10q26 0 48 9l5 -13q-24 -22 -54.5 -38t-57.5 -16
q-30 0 -44 16.5t-14 51.5z" />
    <glyph glyph-name="g.calt" horiz-adv-x="392" 
d="M417 340l-74 17q8 -24 8 -52q0 -52 -24 -95.5t-67.5 -69.5t-99.5 -26h-1q-22 -7 -37.5 -18t-15.5 -24q0 -11 11.5 -20t39.5 -23l61 -31q47 -24 63.5 -42t16.5 -46q0 -39 -25.5 -70t-75.5 -49t-120 -18q-66 0 -107.5 24t-41.5 69q0 43 38.5 76.5t99.5 51.5q-24 19 -24 47
q0 26 21.5 46t56.5 31q-41 10 -63 40.5t-22 78.5q0 50 24 92.5t68 68t101 25.5q68 0 99 -39l101 47zM273 302q0 34 -14 59.5t-47 25.5q-43 0 -71 -43t-28 -103q0 -91 58 -91q30 0 53.5 22.5t36 58t12.5 71.5zM114 -36l-32 18q-85 -40 -85 -101q0 -35 27 -53t73 -18
q57 0 96.5 20t39.5 50q0 17 -12.5 27t-41.5 24l-20 10z" />
    <glyph glyph-name="a.ordn" horiz-adv-x="366" 
d="M391 276q-19 -16 -42 -27.5t-44 -11.5q-23 0 -34 11.5t-11 36.5v13q-25 -28 -53.5 -44.5t-54.5 -16.5q-33 0 -52 26t-20 74q0 55 22.5 103.5t61.5 77.5t85 29q31 0 61 -15l44 16l5 -1l-37 -208q-3 -18 -3 -29q1 -16 8 -22.5t25 -6.5q20 0 34 6zM262 316q0 4 2 14l29 164
q-21 26 -48 26t-50 -23.5t-36.5 -63t-13.5 -84.5q0 -67 42 -67q31 0 75 34z" />
    <glyph glyph-name="b.ordn" horiz-adv-x="365" 
d="M374 446q0 -55 -23 -103.5t-61.5 -77t-84.5 -28.5q-35 0 -63 17l-49 -17h-5l74 423l-45 22l1 7l110 47l5 -3l-44 -249q56 63 108 63q36 0 56 -26t21 -75zM309 431q0 38 -11 54.5t-34 16.5q-34 0 -79 -39l-29 -167q23 -32 53 -32q26 0 49.5 23t37 61.5t13.5 82.5z" />
    <glyph glyph-name="c.ordn" horiz-adv-x="284" 
d="M79 340q0 50 20.5 98t57 78.5t83.5 30.5q40 0 70 -20l-15 -93h-4l-20 38q-13 25 -24 36.5t-23 11.5q-23 0 -41.5 -24.5t-29 -62.5t-9.5 -77q0 -39 13.5 -58t46.5 -19q19 0 42.5 6.5t41.5 14.5l4 -11q-62 -52 -121 -52q-44 0 -67.5 27t-24.5 76z" />
    <glyph glyph-name="d.ordn" horiz-adv-x="377" 
d="M392 287l5 -11q-19 -16 -42.5 -27.5t-44.5 -11.5q-22 0 -33 11.5t-11 36.5q0 12 1 18q-57 -66 -110 -66q-36 0 -56 26t-21 74q0 55 22.5 103.5t61.5 77.5t85 29q29 0 57 -13l22 126l-46 22l2 7l109 47l5 -3l-70 -394q-2 -12 -2 -29q0 -16 7 -22.5t25 -6.5q20 0 34 6z
M298 488q-23 32 -53 32q-27 0 -50 -23.5t-36.5 -63t-13.5 -84.5q0 -35 11.5 -51t33.5 -16q34 0 79 39q0 6 1 9z" />
    <glyph glyph-name="e.ordn" horiz-adv-x="289" 
d="M287 300l5 -11q-28 -24 -59.5 -38t-62.5 -14q-42 0 -66 26.5t-25 77.5q0 54 21.5 101.5t59.5 76t83 28.5q32 0 51 -16.5t19 -42.5q1 -37 -38 -67.5t-131 -53.5v-12q0 -41 15 -58.5t45 -17.5q35 0 83 21zM146 394q108 30 108 95q0 14 -6.5 22.5t-19.5 8.5q-27 0 -51 -35
t-31 -91z" />
    <glyph glyph-name="f.ordn" horiz-adv-x="256" 
d="M370 716l-15 -91h-4l-16 32q-15 27 -25.5 38t-24.5 11q-29 0 -44.5 -36t-28.5 -111l-4 -23h94l-6 -35h-93l-32 -202q-17 -106 -50.5 -154t-82.5 -48q-33 0 -58 17l15 91h5l17 -34q13 -26 21.5 -36.5t17.5 -10.5q15 0 25.5 26t20.5 91l42 260h-60l2 13l64 22v2
q17 105 54.5 150.5t94.5 45.5q30 0 71 -18z" />
    <glyph glyph-name="g.ordn" horiz-adv-x="346" 
d="M396 553l-9 -67h-2l-62 13q7 -14 7 -37q0 -37 -17.5 -68.5t-50.5 -50t-75 -18.5q-18 -4 -30 -12t-11 -18q0 -6 6 -10t16 -7t15 -5l51 -17q46 -15 63.5 -27.5t17.5 -31.5q0 -29 -25.5 -51.5t-67.5 -35t-89 -12.5q-57 0 -89 15.5t-32 45.5q0 27 27 48t70 34q-16 13 -16 29
q0 19 17 34.5t44 23.5q-31 8 -47.5 29.5t-17.5 55.5q0 36 18 67t51 49t76 18q51 0 77 -28l84 34h1zM267 457q0 26 -10 44.5t-34 18.5q-31 0 -51 -30.5t-20 -74.5q2 -63 43 -63q32 0 52 32t20 73zM150 222l-25 9q-58 -25 -57 -63q0 -19 20 -30.5t55 -11.5q48 0 83.5 14.5
t34.5 33.5q0 10 -12.5 15.5t-58.5 19.5z" />
    <glyph glyph-name="h.ordn" horiz-adv-x="379" 
d="M400 276q-18 -16 -41 -27.5t-45 -11.5q-46 0 -47 50q0 18 6 43l25 117q3 14 3 24q0 32 -30 32q-36 0 -86 -41l-39 -218h-57l77 441l-45 22l1 7l110 47l5 -3l-49 -276q60 65 115 65q27 0 42.5 -15t15.5 -43q0 -13 -3 -28l-27 -126q-3 -15 -3 -24q0 -16 8.5 -23t25.5 -7
q18 0 34 6z" />
    <glyph glyph-name="i.ordn" horiz-adv-x="209" 
d="M147 658q2 18 14.5 30.5t30.5 12.5q17 0 27.5 -12t9.5 -28q-1 -17 -13.5 -29.5t-29.5 -12.5t-28.5 11.5t-10.5 27.5zM99 286q0 16 5 44l27 143l-45 22v7l111 47l5 -3l-39 -207q-3 -16 -3 -29q0 -16 7.5 -22.5t24.5 -6.5q21 0 35 6l4 -11q-18 -16 -41 -27.5t-44 -11.5
q-23 0 -34.5 12t-12.5 37z" />
    <glyph glyph-name="j.ordn" horiz-adv-x="209" 
d="M159 658q2 18 14.5 30.5t30.5 12.5q16 0 26.5 -11t10.5 -27q0 -18 -13 -31t-30 -13t-28.5 11.5t-10.5 27.5zM7 129q44 19 66 47t31 81l38 216l-47 22l2 7l111 47l4 -3l-49 -276q-13 -72 -47.5 -106.5t-105.5 -50.5z" />
    <glyph glyph-name="k.ordn" horiz-adv-x="356" 
d="M232 733l-86 -489h-57l73 416l-46 22l2 7l109 47zM402 537l-153 -105l25 -62q20 -53 33.5 -71.5t34.5 -18.5q15 0 33 7l7 -11q-20 -18 -37 -28.5t-36 -10.5q-28 0 -45.5 21.5t-38.5 74.5l-32 81l111 87l-36 35v4h134v-3z" />
    <glyph glyph-name="l.ordn" horiz-adv-x="213" 
d="M97 285q0 17 5 45l57 330l-45 22l1 7l110 47l5 -3l-70 -394q-3 -18 -3 -29q0 -16 7.5 -22.5t24.5 -6.5q19 0 35 6l4 -11q-18 -16 -41.5 -27.5t-44.5 -11.5q-23 0 -33.5 11.5t-11.5 36.5z" />
    <glyph glyph-name="m.ordn" horiz-adv-x="543" 
d="M565 276q-19 -16 -42 -27.5t-44 -11.5q-47 0 -47 50q0 15 5 43l25 117q3 12 3 22q0 34 -32 34q-17 0 -35.5 -10t-42.5 -30v-2l-39 -217h-58l36 203q2 16 2 21q0 35 -31 35q-29 0 -78 -42l-38 -217h-58l41 229l-46 22l1 7l107 47l4 -3l-5 -53l-2 -11q30 32 55.5 48.5
t51.5 16.5q27 0 43.5 -16.5t15.5 -48.5q30 33 55 49t53 16t44.5 -16t16.5 -45q0 -11 -3 -25l-27 -126q-4 -13 -4 -25q0 -16 8.5 -22.5t25.5 -6.5q20 0 34 6z" />
    <glyph glyph-name="n.ordn" horiz-adv-x="381" 
d="M403 276q-19 -16 -42 -27.5t-44 -11.5q-47 0 -47 50q0 15 5 43l25 117q3 15 3 25q0 31 -30 31q-35 0 -86 -41l-38 -218h-58l41 229l-46 22l1 7l107 47l4 -3l-8 -65q61 66 115 66q27 0 43 -15.5t16 -43.5q0 -12 -3 -27l-27 -126q-3 -13 -3 -24q0 -30 33 -30q20 0 34 6z
" />
    <glyph glyph-name="o.ordn" horiz-adv-x="336" 
d="M80 354q0 50 22 94.5t60 71.5t84 27q47 0 76.5 -30.5t29.5 -83.5q0 -51 -21 -96t-59 -72.5t-84 -27.5q-49 0 -78.5 31.5t-29.5 85.5zM288 430q0 90 -51 90q-26 0 -47 -22.5t-33.5 -61t-12.5 -84.5q1 -44 14.5 -66t36.5 -22q26 0 47 22t33.5 60t12.5 84z" />
    <glyph glyph-name="p.ordn" horiz-adv-x="368" 
d="M208 237q-29 0 -57 13l-19 -107l4 -4h57l-6 -35h-168l7 35h45l3 4l58 330l-46 22l1 7l107 47l4 -3l-9 -64q58 65 111 65q36 0 56 -26t20 -75q0 -55 -22.5 -103t-61 -77t-84.5 -29zM312 431q0 38 -11.5 54.5t-34.5 16.5q-16 0 -36.5 -10.5t-41.5 -28.5l-29 -167
q23 -32 53 -32q26 0 49.5 23t37 61.5t13.5 82.5z" />
    <glyph glyph-name="q.ordn" horiz-adv-x="360" 
d="M300 139h46l-6 -35h-169l7 35h57l3 4l28 159q-56 -65 -109 -65q-36 0 -56 26t-21 74q0 55 22.5 103.5t61.5 77.5t85 29q35 0 63 -17l50 18h5l-71 -405zM269 321l29 167q-23 32 -53 32q-27 0 -50 -23.5t-36.5 -63t-13.5 -84.5q0 -35 11.5 -51t33.5 -16q34 0 79 39z" />
    <glyph glyph-name="r.ordn" horiz-adv-x="258" 
d="M296 545l-11 -69q-7 2 -21 2q-43 0 -78 -24l-37 -210h-58l41 229l-46 22l1 7l107 47l4 -3l-8 -72q21 32 45.5 52.5t47.5 20.5q9 0 13 -2z" />
    <glyph glyph-name="s.ordn" horiz-adv-x="269" 
d="M68 264l16 84h4l14 -30q14 -29 31 -41.5t40 -12.5q20 0 33.5 11t13.5 28t-11 30t-41 35q-10 7 -26 21q-21 18 -30.5 35.5t-9.5 39.5q0 36 29.5 59.5t73.5 23.5q47 0 85 -20l-17 -80h-4l-12 21q-15 28 -30 40t-33 12q-17 0 -28.5 -10.5t-11.5 -27.5q0 -14 8.5 -26
t25.5 -25q8 -7 15.5 -12t13.5 -10q27 -21 40.5 -41.5t14.5 -44.5q0 -37 -31 -61.5t-78 -24.5q-51 0 -95 27z" />
    <glyph glyph-name="t.ordn" horiz-adv-x="242" 
d="M99 289q0 20 4 40l30 172h-44l2 13l50 22l61 92h11l-16 -92h84l-7 -35h-83l-26 -147q-4 -21 -4 -39q0 -19 7 -26t24 -7q23 0 63 17l4 -11q-26 -23 -56.5 -37t-57.5 -14q-25 0 -35.5 13t-10.5 39z" />
    <glyph glyph-name="u.ordn" horiz-adv-x="379" 
d="M401 276q-18 -16 -41.5 -27.5t-45.5 -11.5q-23 0 -34 11.5t-11 36.5q0 11 1 18q-61 -66 -112 -66q-55 0 -55 58q0 13 3 28l24 143l-45 22l1 7l110 47l5 -3l-35 -201q-2 -9 -2 -25q0 -31 26 -31q33 0 83 40l1 8l25 143l-46 22l1 7l111 47l5 -3l-38 -207q-3 -16 -3 -29
q1 -16 8.5 -22.5t24.5 -6.5q20 0 34 6z" />
    <glyph glyph-name="v.ordn" horiz-adv-x="339" 
d="M378 537l-1 -3q-33 -87 -84 -159.5t-123 -137.5h-14l-38 234l-48 22l2 7l92 47l5 -3l32 -238q44 45 74.5 95.5t37.5 91.5l-40 40v4h105z" />
    <glyph glyph-name="w.ordn" horiz-adv-x="472" 
d="M511 537v-3q-62 -174 -189 -297h-14l-22 136q-41 -64 -110 -136h-14l-44 234l-48 22l2 7l90 47l5 -3l38 -238q45 56 73 114l-19 117h60l32 -231q36 46 63 98.5t33 88.5l-41 40l1 4h104z" />
    <glyph glyph-name="x.ordn" horiz-adv-x="335" 
d="M386 535l-146 -134l30 -70q12 -28 21 -39t23 -11q17 0 31 6l4 -11q-22 -19 -38 -29t-32 -10q-21 0 -32.5 14.5t-30.5 57.5l-24 57l-65 -81l38 -37l-1 -4h-122v2l140 142l-38 89l-49 22l2 7l76 43l5 -3l54 -125l67 76l-38 36l1 4h124v-2z" />
    <glyph glyph-name="y.ordn" horiz-adv-x="347" 
d="M386 537v-3q-32 -97 -75 -167t-114 -139l-101 -134l-62 48l131 85l-43 244l-48 22l1 7l95 47l5 -3l37 -265q45 51 73.5 108.5t36.5 105.5l-41 40l1 4h104z" />
    <glyph glyph-name="z.ordn" horiz-adv-x="301" 
d="M335 521l-203 -227h120l53 52h4l-18 -102h-238l2 10l210 235h-116l-53 -52h-4l18 99h228z" />
    <glyph glyph-name="a.sinf" horiz-adv-x="366" 
d="M327 -87q-19 -16 -42 -27.5t-44 -11.5q-23 0 -34 11.5t-11 36.5v13q-25 -28 -53.5 -44.5t-54.5 -16.5q-33 0 -52 26t-20 74q0 55 22.5 103.5t61.5 77.5t85 29q31 0 61 -15l44 16l5 -1l-37 -208q-3 -18 -3 -29q1 -16 8 -22.5t25 -6.5q20 0 34 6zM198 -47q0 4 2 14l29 164
q-21 26 -48 26t-50 -23.5t-36.5 -63t-13.5 -84.5q0 -67 42 -67q31 0 75 34z" />
    <glyph glyph-name="b.sinf" horiz-adv-x="365" 
d="M310 83q0 -55 -23 -103.5t-61.5 -77t-84.5 -28.5q-35 0 -63 17l-49 -17h-5l74 423l-45 22l1 7l110 47l5 -3l-44 -249q56 63 108 63q36 0 56 -26t21 -75zM245 68q0 38 -11 54.5t-34 16.5q-34 0 -79 -39l-29 -167q23 -32 53 -32q26 0 49.5 23t37 61.5t13.5 82.5z" />
    <glyph glyph-name="c.sinf" horiz-adv-x="284" 
d="M15 -23q0 50 20.5 98t57 78.5t83.5 30.5q40 0 70 -20l-15 -93h-4l-20 38q-13 25 -24 36.5t-23 11.5q-23 0 -41.5 -24.5t-29 -62.5t-9.5 -77q0 -39 13.5 -58t46.5 -19q19 0 42.5 6.5t41.5 14.5l4 -11q-62 -52 -121 -52q-44 0 -67.5 27t-24.5 76z" />
    <glyph glyph-name="d.sinf" horiz-adv-x="377" 
d="M328 -76l5 -11q-19 -16 -42.5 -27.5t-44.5 -11.5q-22 0 -33 11.5t-11 36.5q0 12 1 18q-57 -66 -110 -66q-36 0 -56 26t-21 74q0 55 22.5 103.5t61.5 77.5t85 29q29 0 57 -13l22 126l-46 22l2 7l109 47l5 -3l-70 -394q-2 -12 -2 -29q0 -16 7 -22.5t25 -6.5q20 0 34 6z
M234 125q-23 32 -53 32q-27 0 -50 -23.5t-36.5 -63t-13.5 -84.5q0 -35 11.5 -51t33.5 -16q34 0 79 39q0 6 1 9z" />
    <glyph glyph-name="e.sinf" horiz-adv-x="289" 
d="M223 -63l5 -11q-28 -24 -59.5 -38t-62.5 -14q-42 0 -66 26.5t-25 77.5q0 54 21.5 101.5t59.5 76t83 28.5q32 0 51 -16.5t19 -42.5q1 -37 -38 -67.5t-131 -53.5v-12q0 -41 15 -58.5t45 -17.5q35 0 83 21zM82 31q108 30 108 95q0 14 -6.5 22.5t-19.5 8.5q-27 0 -51 -35
t-31 -91z" />
    <glyph glyph-name="f.sinf" horiz-adv-x="256" 
d="M306 353l-15 -91h-4l-16 32q-15 27 -25.5 38t-24.5 11q-29 0 -44.5 -36t-28.5 -111l-4 -23h94l-6 -35h-93l-32 -202q-17 -106 -50.5 -154t-82.5 -48q-33 0 -58 17l15 91h5l17 -34q13 -26 21.5 -36.5t17.5 -10.5q15 0 25.5 26t20.5 91l42 260h-60l2 13l64 22v2
q17 105 54.5 150.5t94.5 45.5q30 0 71 -18z" />
    <glyph glyph-name="g.sinf" horiz-adv-x="346" 
d="M332 190l-9 -67h-2l-62 13q7 -14 7 -37q0 -37 -17.5 -68.5t-50.5 -50t-75 -18.5q-18 -4 -30 -12t-11 -18q0 -6 6 -10t16 -7t15 -5l51 -17q46 -15 63.5 -27.5t17.5 -31.5q0 -29 -25.5 -51.5t-67.5 -35t-89 -12.5q-57 0 -89 15.5t-32 45.5q0 27 27 48t70 34q-16 13 -16 29
q0 19 17 34.5t44 23.5q-31 8 -47.5 29.5t-17.5 55.5q0 36 18 67t51 49t76 18q51 0 77 -28l84 34h1zM203 94q0 26 -10 44.5t-34 18.5q-31 0 -51 -30.5t-20 -74.5q2 -63 43 -63q32 0 52 32t20 73zM86 -141l-25 9q-58 -25 -57 -63q0 -19 20 -30.5t55 -11.5q48 0 83.5 14.5
t34.5 33.5q0 10 -12.5 15.5t-58.5 19.5z" />
    <glyph glyph-name="h.sinf" horiz-adv-x="379" 
d="M336 -87q-18 -16 -41 -27.5t-45 -11.5q-46 0 -47 50q0 18 6 43l25 117q3 14 3 24q0 32 -30 32q-36 0 -86 -41l-39 -218h-57l77 441l-45 22l1 7l110 47l5 -3l-49 -276q60 65 115 65q27 0 42.5 -15t15.5 -43q0 -13 -3 -28l-27 -126q-3 -15 -3 -24q0 -16 8.5 -23t25.5 -7
q18 0 34 6z" />
    <glyph glyph-name="i.sinf" horiz-adv-x="209" 
d="M83 295q2 18 14.5 30.5t30.5 12.5q17 0 27.5 -12t9.5 -28q-1 -17 -13.5 -29.5t-29.5 -12.5t-28.5 11.5t-10.5 27.5zM35 -77q0 16 5 44l27 143l-45 22v7l111 47l5 -3l-39 -207q-3 -16 -3 -29q0 -16 7.5 -22.5t24.5 -6.5q21 0 35 6l4 -11q-18 -16 -41 -27.5t-44 -11.5
q-23 0 -34.5 12t-12.5 37z" />
    <glyph glyph-name="j.sinf" horiz-adv-x="209" 
d="M95 295q2 18 14.5 30.5t30.5 12.5q16 0 26.5 -11t10.5 -27q0 -18 -13 -31t-30 -13t-28.5 11.5t-10.5 27.5zM-57 -234q44 19 66 47t31 81l38 216l-47 22l2 7l111 47l4 -3l-49 -276q-13 -72 -47.5 -106.5t-105.5 -50.5z" />
    <glyph glyph-name="k.sinf" horiz-adv-x="356" 
d="M168 370l-86 -489h-57l73 416l-46 22l2 7l109 47zM338 174l-153 -105l25 -62q20 -53 33.5 -71.5t34.5 -18.5q15 0 33 7l7 -11q-20 -18 -37 -28.5t-36 -10.5q-28 0 -45.5 21.5t-38.5 74.5l-32 81l111 87l-36 35v4h134v-3z" />
    <glyph glyph-name="l.sinf" horiz-adv-x="213" 
d="M33 -78q0 17 5 45l57 330l-45 22l1 7l110 47l5 -3l-70 -394q-3 -18 -3 -29q0 -16 7.5 -22.5t24.5 -6.5q19 0 35 6l4 -11q-18 -16 -41.5 -27.5t-44.5 -11.5q-23 0 -33.5 11.5t-11.5 36.5z" />
    <glyph glyph-name="m.sinf" horiz-adv-x="543" 
d="M501 -87q-19 -16 -42 -27.5t-44 -11.5q-47 0 -47 50q0 15 5 43l25 117q3 12 3 22q0 34 -32 34q-17 0 -35.5 -10t-42.5 -30v-2l-39 -217h-58l36 203q2 16 2 21q0 35 -31 35q-29 0 -78 -42l-38 -217h-58l41 229l-46 22l1 7l107 47l4 -3l-5 -53l-2 -11q30 32 55.5 48.5
t51.5 16.5q27 0 43.5 -16.5t15.5 -48.5q30 33 55 49t53 16t44.5 -16t16.5 -45q0 -11 -3 -25l-27 -126q-4 -13 -4 -25q0 -16 8.5 -22.5t25.5 -6.5q20 0 34 6z" />
    <glyph glyph-name="n.sinf" horiz-adv-x="381" 
d="M339 -87q-19 -16 -42 -27.5t-44 -11.5q-47 0 -47 50q0 15 5 43l25 117q3 15 3 25q0 31 -30 31q-35 0 -86 -41l-38 -218h-58l41 229l-46 22l1 7l107 47l4 -3l-8 -65q61 66 115 66q27 0 43 -15.5t16 -43.5q0 -12 -3 -27l-27 -126q-3 -13 -3 -24q0 -30 33 -30q20 0 34 6z
" />
    <glyph glyph-name="o.sinf" horiz-adv-x="336" 
d="M16 -9q0 50 22 94.5t60 71.5t84 27q47 0 76.5 -30.5t29.5 -83.5q0 -51 -21 -96t-59 -72.5t-84 -27.5q-49 0 -78.5 31.5t-29.5 85.5zM224 67q0 90 -51 90q-26 0 -47 -22.5t-33.5 -61t-12.5 -84.5q1 -44 14.5 -66t36.5 -22q26 0 47 22t33.5 60t12.5 84z" />
    <glyph glyph-name="p.sinf" horiz-adv-x="368" 
d="M144 -126q-29 0 -57 13l-19 -107l4 -4h57l-6 -35h-168l7 35h45l3 4l58 330l-46 22l1 7l107 47l4 -3l-9 -64q58 65 111 65q36 0 56 -26t20 -75q0 -55 -22.5 -103t-61 -77t-84.5 -29zM248 68q0 38 -11.5 54.5t-34.5 16.5q-16 0 -36.5 -10.5t-41.5 -28.5l-29 -167
q23 -32 53 -32q26 0 49.5 23t37 61.5t13.5 82.5z" />
    <glyph glyph-name="q.sinf" horiz-adv-x="360" 
d="M236 -224h46l-6 -35h-169l7 35h57l3 4l28 159q-56 -65 -109 -65q-36 0 -56 26t-21 74q0 55 22.5 103.5t61.5 77.5t85 29q35 0 63 -17l50 18h5l-71 -405zM205 -42l29 167q-23 32 -53 32q-27 0 -50 -23.5t-36.5 -63t-13.5 -84.5q0 -35 11.5 -51t33.5 -16q34 0 79 39z" />
    <glyph glyph-name="r.sinf" horiz-adv-x="258" 
d="M232 182l-11 -69q-7 2 -21 2q-43 0 -78 -24l-37 -210h-58l41 229l-46 22l1 7l107 47l4 -3l-8 -72q21 32 45.5 52.5t47.5 20.5q9 0 13 -2z" />
    <glyph glyph-name="s.sinf" horiz-adv-x="269" 
d="M4 -99l16 84h4l14 -30q14 -29 31 -41.5t40 -12.5q20 0 33.5 11t13.5 28t-11 30t-41 35q-10 7 -26 21q-21 18 -30.5 35.5t-9.5 39.5q0 36 29.5 59.5t73.5 23.5q47 0 85 -20l-17 -80h-4l-12 21q-15 28 -30 40t-33 12q-17 0 -28.5 -10.5t-11.5 -27.5q0 -14 8.5 -26t25.5 -25
q8 -7 15.5 -12t13.5 -10q27 -21 40.5 -41.5t14.5 -44.5q0 -37 -31 -61.5t-78 -24.5q-51 0 -95 27z" />
    <glyph glyph-name="t.sinf" horiz-adv-x="242" 
d="M35 -74q0 20 4 40l30 172h-44l2 13l50 22l61 92h11l-16 -92h84l-7 -35h-83l-26 -147q-4 -21 -4 -39q0 -19 7 -26t24 -7q23 0 63 17l4 -11q-26 -23 -56.5 -37t-57.5 -14q-25 0 -35.5 13t-10.5 39z" />
    <glyph glyph-name="u.sinf" horiz-adv-x="379" 
d="M337 -87q-18 -16 -41.5 -27.5t-45.5 -11.5q-23 0 -34 11.5t-11 36.5q0 11 1 18q-61 -66 -112 -66q-55 0 -55 58q0 13 3 28l24 143l-45 22l1 7l110 47l5 -3l-35 -201q-2 -9 -2 -25q0 -31 26 -31q33 0 83 40l1 8l25 143l-46 22l1 7l111 47l5 -3l-38 -207q-3 -16 -3 -29
q1 -16 8.5 -22.5t24.5 -6.5q20 0 34 6z" />
    <glyph glyph-name="v.sinf" horiz-adv-x="339" 
d="M314 174l-1 -3q-33 -87 -84 -159.5t-123 -137.5h-14l-38 234l-48 22l2 7l92 47l5 -3l32 -238q44 45 74.5 95.5t37.5 91.5l-40 40v4h105z" />
    <glyph glyph-name="w.sinf" horiz-adv-x="472" 
d="M447 174v-3q-62 -174 -189 -297h-14l-22 136q-41 -64 -110 -136h-14l-44 234l-48 22l2 7l90 47l5 -3l38 -238q45 56 73 114l-19 117h60l32 -231q36 46 63 98.5t33 88.5l-41 40l1 4h104z" />
    <glyph glyph-name="x.sinf" horiz-adv-x="335" 
d="M322 172l-146 -134l30 -70q12 -28 21 -39t23 -11q17 0 31 6l4 -11q-22 -19 -38 -29t-32 -10q-21 0 -32.5 14.5t-30.5 57.5l-24 57l-65 -81l38 -37l-1 -4h-122v2l140 142l-38 89l-49 22l2 7l76 43l5 -3l54 -125l67 76l-38 36l1 4h124v-2z" />
    <glyph glyph-name="y.sinf" horiz-adv-x="347" 
d="M322 174v-3q-32 -97 -75 -167t-114 -139l-101 -134l-62 48l131 85l-43 244l-48 22l1 7l95 47l5 -3l37 -265q45 51 73.5 108.5t36.5 105.5l-41 40l1 4h104z" />
    <glyph glyph-name="z.sinf" horiz-adv-x="301" 
d="M271 158l-203 -227h120l53 52h4l-18 -102h-238l2 10l210 235h-116l-53 -52h-4l18 99h228z" />
    <glyph glyph-name="f.ss01" horiz-adv-x="312" 
d="M422 694l-20 -121h-4l-20 40q-19 37 -33.5 52.5t-34.5 15.5q-42 0 -64.5 -54t-40.5 -165l-9 -58h127l-8 -45h-127l-50 -309l5 -5h90l-8 -45h-240l8 45h70l5 5l48 309h-80l3 17l84 28l6 40q23 148 72.5 210.5t127.5 62.5q39 0 93 -23z" />
    <glyph glyph-name="a.sup" horiz-adv-x="366" 
d="M411 397q-19 -16 -42 -27.5t-44 -11.5q-23 0 -34 11.5t-11 36.5v13q-25 -28 -53.5 -44.5t-54.5 -16.5q-33 0 -52 26t-20 74q0 55 22.5 103.5t61.5 77.5t85 29q31 0 61 -15l44 16l5 -1l-37 -208q-3 -18 -3 -29q1 -16 8 -22.5t25 -6.5q20 0 34 6zM282 437q0 4 2 14l29 164
q-21 26 -48 26t-50 -23.5t-36.5 -63t-13.5 -84.5q0 -67 42 -67q31 0 75 34z" />
    <glyph glyph-name="b.sup" horiz-adv-x="365" 
d="M394 567q0 -55 -23 -103.5t-61.5 -77t-84.5 -28.5q-35 0 -63 17l-49 -17h-5l74 423l-45 22l1 7l110 47l5 -3l-44 -249q56 63 108 63q36 0 56 -26t21 -75zM329 552q0 38 -11 54.5t-34 16.5q-34 0 -79 -39l-29 -167q23 -32 53 -32q26 0 49.5 23t37 61.5t13.5 82.5z" />
    <glyph glyph-name="c.sup" horiz-adv-x="284" 
d="M99 461q0 50 20.5 98t57 78.5t83.5 30.5q40 0 70 -20l-15 -93h-4l-20 38q-13 25 -24 36.5t-23 11.5q-23 0 -41.5 -24.5t-29 -62.5t-9.5 -77q0 -39 13.5 -58t46.5 -19q19 0 42.5 6.5t41.5 14.5l4 -11q-62 -52 -121 -52q-44 0 -67.5 27t-24.5 76z" />
    <glyph glyph-name="d.sup" horiz-adv-x="377" 
d="M412 408l5 -11q-19 -16 -42.5 -27.5t-44.5 -11.5q-22 0 -33 11.5t-11 36.5q0 12 1 18q-57 -66 -110 -66q-36 0 -56 26t-21 74q0 55 22.5 103.5t61.5 77.5t85 29q29 0 57 -13l22 126l-46 22l2 7l109 47l5 -3l-70 -394q-2 -12 -2 -29q0 -16 7 -22.5t25 -6.5q20 0 34 6z
M318 609q-23 32 -53 32q-27 0 -50 -23.5t-36.5 -63t-13.5 -84.5q0 -35 11.5 -51t33.5 -16q34 0 79 39q0 6 1 9z" />
    <glyph glyph-name="e.sup" horiz-adv-x="289" 
d="M307 421l5 -11q-28 -24 -59.5 -38t-62.5 -14q-42 0 -66 26.5t-25 77.5q0 54 21.5 101.5t59.5 76t83 28.5q32 0 51 -16.5t19 -42.5q1 -37 -38 -67.5t-131 -53.5v-12q0 -41 15 -58.5t45 -17.5q35 0 83 21zM166 515q108 30 108 95q0 14 -6.5 22.5t-19.5 8.5q-27 0 -51 -35
t-31 -91z" />
    <glyph glyph-name="f.sup" horiz-adv-x="256" 
d="M390 837l-15 -91h-4l-16 32q-15 27 -25.5 38t-24.5 11q-29 0 -44.5 -36t-28.5 -111l-4 -23h94l-6 -35h-93l-32 -202q-17 -106 -50.5 -154t-82.5 -48q-33 0 -58 17l15 91h5l17 -34q13 -26 21.5 -36.5t17.5 -10.5q15 0 25.5 26t20.5 91l42 260h-60l2 13l64 22v2
q17 105 54.5 150.5t94.5 45.5q30 0 71 -18z" />
    <glyph glyph-name="g.sup" horiz-adv-x="346" 
d="M416 674l-9 -67h-2l-62 13q7 -14 7 -37q0 -37 -17.5 -68.5t-50.5 -50t-75 -18.5q-18 -4 -30 -12t-11 -18q0 -6 6 -10t16 -7t15 -5l51 -17q46 -15 63.5 -27.5t17.5 -31.5q0 -29 -25.5 -51.5t-67.5 -35t-89 -12.5q-57 0 -89 15.5t-32 45.5q0 27 27 48t70 34q-16 13 -16 29
q0 19 17 34.5t44 23.5q-31 8 -47.5 29.5t-17.5 55.5q0 36 18 67t51 49t76 18q51 0 77 -28l84 34h1zM287 578q0 26 -10 44.5t-34 18.5q-31 0 -51 -30.5t-20 -74.5q2 -63 43 -63q32 0 52 32t20 73zM170 343l-25 9q-58 -25 -57 -63q0 -19 20 -30.5t55 -11.5q48 0 83.5 14.5
t34.5 33.5q0 10 -12.5 15.5t-58.5 19.5z" />
    <glyph glyph-name="h.sup" horiz-adv-x="379" 
d="M420 397q-18 -16 -41 -27.5t-45 -11.5q-46 0 -47 50q0 18 6 43l25 117q3 14 3 24q0 32 -30 32q-36 0 -86 -41l-39 -218h-57l77 441l-45 22l1 7l110 47l5 -3l-49 -276q60 65 115 65q27 0 42.5 -15t15.5 -43q0 -13 -3 -28l-27 -126q-3 -15 -3 -24q0 -16 8.5 -23t25.5 -7
q18 0 34 6z" />
    <glyph glyph-name="i.sup" horiz-adv-x="209" 
d="M167 779q2 18 14.5 30.5t30.5 12.5q17 0 27.5 -12t9.5 -28q-1 -17 -13.5 -29.5t-29.5 -12.5t-28.5 11.5t-10.5 27.5zM119 407q0 16 5 44l27 143l-45 22v7l111 47l5 -3l-39 -207q-3 -16 -3 -29q0 -16 7.5 -22.5t24.5 -6.5q21 0 35 6l4 -11q-18 -16 -41 -27.5t-44 -11.5
q-23 0 -34.5 12t-12.5 37z" />
    <glyph glyph-name="j.sup" horiz-adv-x="209" 
d="M179 779q2 18 14.5 30.5t30.5 12.5q16 0 26.5 -11t10.5 -27q0 -18 -13 -31t-30 -13t-28.5 11.5t-10.5 27.5zM27 250q44 19 66 47t31 81l38 216l-47 22l2 7l111 47l4 -3l-49 -276q-13 -72 -47.5 -106.5t-105.5 -50.5z" />
    <glyph glyph-name="k.sup" horiz-adv-x="356" 
d="M252 854l-86 -489h-57l73 416l-46 22l2 7l109 47zM422 658l-153 -105l25 -62q20 -53 33.5 -71.5t34.5 -18.5q15 0 33 7l7 -11q-20 -18 -37 -28.5t-36 -10.5q-28 0 -45.5 21.5t-38.5 74.5l-32 81l111 87l-36 35v4h134v-3z" />
    <glyph glyph-name="l.sup" horiz-adv-x="213" 
d="M117 406q0 17 5 45l57 330l-45 22l1 7l110 47l5 -3l-70 -394q-3 -18 -3 -29q0 -16 7.5 -22.5t24.5 -6.5q19 0 35 6l4 -11q-18 -16 -41.5 -27.5t-44.5 -11.5q-23 0 -33.5 11.5t-11.5 36.5z" />
    <glyph glyph-name="m.sup" horiz-adv-x="543" 
d="M585 397q-19 -16 -42 -27.5t-44 -11.5q-47 0 -47 50q0 15 5 43l25 117q3 12 3 22q0 34 -32 34q-17 0 -35.5 -10t-42.5 -30v-2l-39 -217h-58l36 203q2 16 2 21q0 35 -31 35q-29 0 -78 -42l-38 -217h-58l41 229l-46 22l1 7l107 47l4 -3l-5 -53l-2 -11q30 32 55.5 48.5
t51.5 16.5q27 0 43.5 -16.5t15.5 -48.5q30 33 55 49t53 16t44.5 -16t16.5 -45q0 -11 -3 -25l-27 -126q-4 -13 -4 -25q0 -16 8.5 -22.5t25.5 -6.5q20 0 34 6z" />
    <glyph glyph-name="n.sup" horiz-adv-x="381" 
d="M423 397q-19 -16 -42 -27.5t-44 -11.5q-47 0 -47 50q0 15 5 43l25 117q3 15 3 25q0 31 -30 31q-35 0 -86 -41l-38 -218h-58l41 229l-46 22l1 7l107 47l4 -3l-8 -65q61 66 115 66q27 0 43 -15.5t16 -43.5q0 -12 -3 -27l-27 -126q-3 -13 -3 -24q0 -30 33 -30q20 0 34 6z
" />
    <glyph glyph-name="o.sup" horiz-adv-x="336" 
d="M100 475q0 50 22 94.5t60 71.5t84 27q47 0 76.5 -30.5t29.5 -83.5q0 -51 -21 -96t-59 -72.5t-84 -27.5q-49 0 -78.5 31.5t-29.5 85.5zM308 551q0 90 -51 90q-26 0 -47 -22.5t-33.5 -61t-12.5 -84.5q1 -44 14.5 -66t36.5 -22q26 0 47 22t33.5 60t12.5 84z" />
    <glyph glyph-name="p.sup" horiz-adv-x="368" 
d="M228 358q-29 0 -57 13l-19 -107l4 -4h57l-6 -35h-168l7 35h45l3 4l58 330l-46 22l1 7l107 47l4 -3l-9 -64q58 65 111 65q36 0 56 -26t20 -75q0 -55 -22.5 -103t-61 -77t-84.5 -29zM332 552q0 38 -11.5 54.5t-34.5 16.5q-16 0 -36.5 -10.5t-41.5 -28.5l-29 -167
q23 -32 53 -32q26 0 49.5 23t37 61.5t13.5 82.5z" />
    <glyph glyph-name="q.sup" horiz-adv-x="360" 
d="M320 260h46l-6 -35h-169l7 35h57l3 4l28 159q-56 -65 -109 -65q-36 0 -56 26t-21 74q0 55 22.5 103.5t61.5 77.5t85 29q35 0 63 -17l50 18h5l-71 -405zM289 442l29 167q-23 32 -53 32q-27 0 -50 -23.5t-36.5 -63t-13.5 -84.5q0 -35 11.5 -51t33.5 -16q34 0 79 39z" />
    <glyph glyph-name="r.sup" horiz-adv-x="258" 
d="M316 666l-11 -69q-7 2 -21 2q-43 0 -78 -24l-37 -210h-58l41 229l-46 22l1 7l107 47l4 -3l-8 -72q21 32 45.5 52.5t47.5 20.5q9 0 13 -2z" />
    <glyph glyph-name="s.sup" horiz-adv-x="269" 
d="M88 385l16 84h4l14 -30q14 -29 31 -41.5t40 -12.5q20 0 33.5 11t13.5 28t-11 30t-41 35q-10 7 -26 21q-21 18 -30.5 35.5t-9.5 39.5q0 36 29.5 59.5t73.5 23.5q47 0 85 -20l-17 -80h-4l-12 21q-15 28 -30 40t-33 12q-17 0 -28.5 -10.5t-11.5 -27.5q0 -14 8.5 -26
t25.5 -25q8 -7 15.5 -12t13.5 -10q27 -21 40.5 -41.5t14.5 -44.5q0 -37 -31 -61.5t-78 -24.5q-51 0 -95 27z" />
    <glyph glyph-name="t.sup" horiz-adv-x="242" 
d="M119 410q0 20 4 40l30 172h-44l2 13l50 22l61 92h11l-16 -92h84l-7 -35h-83l-26 -147q-4 -21 -4 -39q0 -19 7 -26t24 -7q23 0 63 17l4 -11q-26 -23 -56.5 -37t-57.5 -14q-25 0 -35.5 13t-10.5 39z" />
    <glyph glyph-name="u.sup" horiz-adv-x="379" 
d="M421 397q-18 -16 -41.5 -27.5t-45.5 -11.5q-23 0 -34 11.5t-11 36.5q0 11 1 18q-61 -66 -112 -66q-55 0 -55 58q0 13 3 28l24 143l-45 22l1 7l110 47l5 -3l-35 -201q-2 -9 -2 -25q0 -31 26 -31q33 0 83 40l1 8l25 143l-46 22l1 7l111 47l5 -3l-38 -207q-3 -16 -3 -29
q1 -16 8.5 -22.5t24.5 -6.5q20 0 34 6z" />
    <glyph glyph-name="v.sup" horiz-adv-x="339" 
d="M398 658l-1 -3q-33 -87 -84 -159.5t-123 -137.5h-14l-38 234l-48 22l2 7l92 47l5 -3l32 -238q44 45 74.5 95.5t37.5 91.5l-40 40v4h105z" />
    <glyph glyph-name="w.sup" horiz-adv-x="472" 
d="M531 658v-3q-62 -174 -189 -297h-14l-22 136q-41 -64 -110 -136h-14l-44 234l-48 22l2 7l90 47l5 -3l38 -238q45 56 73 114l-19 117h60l32 -231q36 46 63 98.5t33 88.5l-41 40l1 4h104z" />
    <glyph glyph-name="x.sup" horiz-adv-x="335" 
d="M406 656l-146 -134l30 -70q12 -28 21 -39t23 -11q17 0 31 6l4 -11q-22 -19 -38 -29t-32 -10q-21 0 -32.5 14.5t-30.5 57.5l-24 57l-65 -81l38 -37l-1 -4h-122v2l140 142l-38 89l-49 22l2 7l76 43l5 -3l54 -125l67 76l-38 36l1 4h124v-2z" />
    <glyph glyph-name="y.sup" horiz-adv-x="347" 
d="M406 658v-3q-32 -97 -75 -167t-114 -139l-101 -134l-62 48l131 85l-43 244l-48 22l1 7l95 47l5 -3l37 -265q45 51 73.5 108.5t36.5 105.5l-41 40l1 4h104z" />
    <glyph glyph-name="z.sup" horiz-adv-x="301" 
d="M355 642l-203 -227h120l53 52h4l-18 -102h-238l2 10l210 235h-116l-53 -52h-4l18 99h228z" />
    <glyph glyph-name="f_b.ss01" horiz-adv-x="725" 
d="M687 280q0 -75 -30 -142t-82 -107.5t-113 -40.5q-46 0 -85 22l-59 -22h-5l112 643l-7 9q-13 17 -34.5 28t-45.5 11q-53 0 -84.5 -56.5t-48.5 -161.5l-10 -59h108l-8 -45h-107l-50 -309l5 -5h90l-8 -45h-240l8 45h70l5 5l48 309h-80l3 17l84 28l6 41q23 148 79.5 210
t139.5 62q56 0 103 -21l54 24l5 -3l-14 -76l-54 -311q33 41 74 65.5t77 24.5q44 0 69 -36t25 -104zM609 268q0 50 -15.5 72.5t-46.5 22.5q-22 0 -51 -16t-59 -43l-41 -236q32 -42 73 -42q36 0 68.5 33t52 88.5t19.5 120.5z" />
    <glyph glyph-name="f_f_b.ss01" horiz-adv-x="969" 
d="M931 280q0 -75 -30 -142t-82 -107.5t-113 -40.5q-46 0 -85 22l-59 -22h-5l112 643l-7 9q-13 17 -34.5 28t-45.5 11q-48 0 -75.5 -55t-46.5 -163l-10 -59h97l-8 -45h-97l-54 -309l5 -5h90l-8 -45h-240l8 45h70l5 5l52 309h-181l-49 -309l5 -5h70l-8 -45h-220l8 45h70l5 5
l46 309h-80l3 17l84 28l4 25q22 147 77 210t138 63q34 0 68 -10t60 -27q47 52 122 52q56 0 103 -21l54 24l5 -3q-36 -211 -68 -386q33 40 74 64.5t77 24.5q44 0 69 -36t25 -104zM377 404l7 41q16 95 43 153l-10 16q-15 23 -39 37.5t-47 14.5q-51 0 -81 -55t-47 -164l-7 -43
h181zM853 268q0 50 -15.5 72.5t-46.5 22.5q-22 0 -51 -16t-58 -43l-42 -236q32 -42 73 -42q36 0 68.5 33t52 88.5t19.5 120.5z" />
    <glyph glyph-name="f_f_h.ss01" horiz-adv-x="1001" 
d="M977 44q-26 -22 -57 -38t-57 -16q-30 0 -44.5 16t-14.5 51q0 30 8 63l34 161q4 19 4 38q0 22 -9 33t-31 11q-53 0 -117 -57l-54 -306h-68l109 633l-7 9q-13 17 -34.5 28t-45.5 11q-52 0 -83 -56t-50 -162l-10 -59h97l-8 -45h-97l-54 -309l5 -5h90l-8 -45h-240l8 45h70
l5 5l52 309h-181l-49 -309l5 -5h70l-8 -45h-220l8 45h70l5 5l46 309h-80l3 17l84 28l4 25q22 147 77 210t138 63q35 0 69.5 -10.5t60.5 -28.5q51 54 131 54q56 0 103 -21l54 24l5 -3l-68 -385q80 88 151 88q35 0 55.5 -21t20.5 -61q0 -19 -4 -36l-38 -178q-5 -22 -5 -34
q0 -23 12 -32.5t35 -9.5q24 0 48 9zM377 404l7 41q16 91 44 152l-11 17q-15 23 -39 37.5t-47 14.5q-51 0 -81 -55t-47 -164l-7 -43h181z" />
    <glyph glyph-name="f_f_j.ss01" horiz-adv-x="741" 
d="M724 694l-27 -158h-4l-33 66q-22 44 -40 61.5t-44 17.5q-41 0 -71 -56t-46 -156l-11 -65h243l-71 -404q-18 -99 -65 -147.5t-138 -69.5l-3 20q59 27 89.5 67t44.5 117l65 372h-172l-50 -309l5 -5h90l-8 -45h-240l8 45h70l5 5l47 309h-180l-50 -309l5 -5h70l-8 -45h-220
l8 45h70l5 5l47 309h-79l3 17l83 28l4 25q23 147 77.5 210t137.5 63q36 0 70.5 -11t60.5 -29q54 55 136 55q66 0 116 -23zM375 404l3 18q16 106 49 174l-11 18q-15 23 -39 37.5t-47 14.5q-51 0 -81 -55t-47 -164l-7 -43h180z" />
    <glyph glyph-name="f_f_k.ss01" horiz-adv-x="959" 
d="M765 717l-126 -717h-68l109 633l-7 9q-13 17 -34.5 28t-45.5 11q-52 0 -83 -56t-50 -162l-10 -59h97l-8 -45h-97l-54 -309l5 -5h90l-8 -45h-240l8 45h70l5 5l52 309h-181l-49 -309l5 -5h70l-8 -45h-220l8 45h70l5 5l46 309h-80l3 17l84 28l4 25q22 147 77 210t138 63
q35 0 69.5 -10.5t60.5 -28.5q51 54 131 54q56 0 103 -21l54 24zM377 404l7 41q16 91 44 152l-11 17q-15 23 -39 37.5t-47 14.5q-51 0 -81 -55t-47 -164l-7 -43h181zM965 407l-202 -144l28 -81q18 -54 31 -82t27.5 -40.5t35.5 -12.5q19 0 46 10l9 -13q-31 -27 -52 -40.5
t-45 -13.5q-39 0 -62 32t-51 111l-38 105l150 119l-47 48l1 5h169v-3z" />
    <glyph glyph-name="f_f_t.ss01" horiz-adv-x="831" 
d="M456 448l-7 -44h98l-8 -45h-97l-50 -309l5 -5h90l-8 -45h-240l8 45h70l5 5l48 309h-181l-50 -309l5 -5h70l-8 -45h-220l8 45h70l5 5l47 309h-80l3 17l84 28l4 25q23 147 77.5 210t137.5 63q33 0 66 -9.5t58 -25.5q44 50 117 50q39 0 93 -23l-20 -121h-4l-20 40
q-19 37 -33.5 52.5t-34.5 15.5q-42 0 -65.5 -58t-42.5 -175zM377 404l6 40q15 97 42 158l-8 12q-15 23 -39 37.5t-47 14.5q-51 0 -81 -55t-47 -164l-7 -43h181zM676 149q-6 -36 -6 -56q0 -25 9 -34t31 -9q33 0 87 24l5 -13q-37 -32 -77.5 -51.5t-75.5 -19.5
q-30 0 -42.5 15.5t-12.5 47.5q0 27 6 61l43 245h-60l3 17l65 28l78 131h15l-23 -131h110l-8 -45h-110z" />
    <glyph glyph-name="f_h.ss01" horiz-adv-x="749" 
d="M725 44q-25 -22 -56 -38t-58 -16q-59 0 -59 68q0 22 8 62l34 161q5 25 5 39q0 43 -41 43q-51 0 -121 -60l-53 -303h-69l110 633l-7 9q-13 17 -34.5 28t-45.5 11q-53 0 -84.5 -56.5t-48.5 -161.5l-9 -59h107l-8 -45h-107l-49 -309l5 -5h90l-8 -45h-240l8 45h70l5 5l47 309
h-80l3 17l84 28l6 41q23 148 79.5 210t139.5 62q56 0 103 -21l54 24l5 -3l-68 -390q80 93 154 93q35 0 55.5 -20.5t20.5 -59.5q0 -19 -4 -38l-38 -178q-4 -17 -4 -33q0 -24 12 -33.5t34 -9.5q25 0 48 9z" />
    <glyph glyph-name="f_j.ss01" horiz-adv-x="495" 
d="M196 404h251l-75 -404q-17 -99 -64 -147.5t-139 -69.5l-3 20q60 27 90.5 67t43.5 117l70 372h-181l-51 -309l5 -5h90l-8 -45h-240l8 45h70l5 5l48 309h-80l3 17l84 28l3 18q25 159 83 227t147 68q66 0 116 -23l-27 -158h-4l-33 66q-22 44 -40 61.5t-44 17.5
q-40 0 -70 -55.5t-47 -156.5z" />
    <glyph glyph-name="f_k.ss01" horiz-adv-x="714" 
d="M510 717l-127 -717h-68l110 633l-7 9q-13 17 -34.5 28t-45.5 11q-53 0 -84.5 -56.5t-48.5 -161.5l-10 -59h108l-8 -45h-107l-50 -309l5 -5h90l-8 -45h-240l8 45h70l5 5l48 309h-80l3 17l84 28l6 41q23 148 79.5 210t139.5 62q56 0 103 -21l54 24zM720 407l-202 -144
l28 -81q18 -54 31 -82t27.5 -40.5t35.5 -12.5q19 0 46 10l9 -13q-31 -27 -52 -40.5t-45 -13.5q-39 0 -62 32t-51 111l-38 105l150 119l-47 48l1 5h169v-3z" />
    <glyph glyph-name="f_t.ss01" horiz-adv-x="578" 
d="M205 462l-9 -58h98l-8 -45h-98l-50 -309l5 -5h90l-8 -45h-240l8 45h70l5 5l48 309h-80l3 17l84 28l6 40q23 148 74 210.5t131 62.5q39 0 93 -23l-20 -121h-4l-20 40q-19 37 -33.5 52.5t-34.5 15.5q-44 0 -68 -54.5t-42 -164.5zM423 149q-6 -36 -6 -56q0 -25 9 -34t31 -9
q33 0 87 24l5 -13q-37 -32 -77.5 -51.5t-75.5 -19.5q-30 0 -42.5 15.5t-12.5 47.5q0 27 6 61l43 245h-60l3 17l65 28l78 131h15l-23 -131h110l-8 -45h-110z" />
    <glyph glyph-name="fi.ss01" horiz-adv-x="512" 
d="M488 44q-24 -22 -54.5 -38t-57.5 -16q-30 0 -44 16.5t-14 51.5q0 28 7 62l45 239h-181l-51 -309l5 -5h90l-8 -45h-240l8 45h70l5 5l48 309h-80l3 17l84 28l3 18q25 159 83 227t147 68q66 0 116 -23l-27 -158h-4l-33 66q-22 44 -40 61.5t-44 17.5q-40 0 -70 -55.5
t-47 -156.5l-11 -65h251l-52 -274q-4 -20 -4 -39q0 -23 10.5 -33t33.5 -10q26 0 48 9z" />
    <glyph glyph-name="fl.ss01" horiz-adv-x="531" 
d="M494 57l5 -13q-25 -22 -56 -38t-58 -16q-29 0 -42 15.5t-13 51.5q0 26 6 63l89 513l-7 9q-13 17 -34.5 28t-45.5 11q-53 0 -84.5 -56.5t-48.5 -161.5l-10 -59h108l-8 -45h-107l-50 -309l5 -5h90l-8 -45h-240l8 45h70l5 5l48 309h-80l3 17l84 28l6 41q23 148 79.5 210
t139.5 62q56 0 103 -21l54 24l5 -3l-104 -587q-4 -21 -4 -39q0 -23 10 -33t34 -10q25 0 48 9z" />
    <glyph glyph-name="a.sc" horiz-adv-x="465" 
d="M446 39l-7 -39h-189l7 39h54l5 4l-24 116h-162l-64 -116l3 -4h54l-7 -39h-155l7 39h44l2 3l246 428h42l93 -428l4 -3h47zM285 195l-36 174h-4l-96 -174h136z" />
    <glyph glyph-name="aacute.sc" horiz-adv-x="465" 
d="M446 39l-7 -39h-189l7 39h54l5 4l-24 116h-162l-64 -116l3 -4h54l-7 -39h-155l7 39h44l2 3l246 428h42l93 -428l4 -3h47zM285 195l-36 174h-4l-96 -174h136zM326 694h97v-5l-135 -179h-30z" />
    <glyph glyph-name="abreve.sc" horiz-adv-x="465" 
d="M446 39l-7 -39h-189l7 39h54l5 4l-24 116h-162l-64 -116l3 -4h54l-7 -39h-155l7 39h44l2 3l246 428h42l93 -428l4 -3h47zM285 195l-36 174h-4l-96 -174h136zM193 619q0 21 7 54h30q-1 -7 -1 -19q0 -34 16.5 -53t46.5 -19q34 0 56 23.5t31 67.5h32q-10 -65 -43.5 -109
t-84.5 -44q-45 0 -67.5 26.5t-22.5 72.5z" />
    <glyph glyph-name="acircumflex.sc" horiz-adv-x="465" 
d="M446 39l-7 -39h-189l7 39h54l5 4l-24 116h-162l-64 -116l3 -4h54l-7 -39h-155l7 39h44l2 3l246 428h42l93 -428l4 -3h47zM285 195l-36 174h-4l-96 -174h136zM281 694h39l75 -184h-26l-76 100l-108 -100h-28z" />
    <glyph glyph-name="adieresis.sc" horiz-adv-x="465" 
d="M446 39l-7 -39h-189l7 39h54l5 4l-24 116h-162l-64 -116l3 -4h54l-7 -39h-155l7 39h44l2 3l246 428h42l93 -428l4 -3h47zM285 195l-36 174h-4l-96 -174h136zM157 594q0 24 16.5 41.5t39.5 17.5q21 0 35 -16.5t13 -38.5q-2 -22 -18.5 -38t-36.5 -16q-21 0 -35 14.5
t-14 35.5zM320 594q0 24 16.5 41.5t39.5 17.5q21 0 35 -16.5t13 -38.5q-2 -22 -18.5 -38t-36.5 -16q-21 0 -35 14.5t-14 35.5z" />
    <glyph glyph-name="agrave.sc" horiz-adv-x="465" 
d="M446 39l-7 -39h-189l7 39h54l5 4l-24 116h-162l-64 -116l3 -4h54l-7 -39h-155l7 39h44l2 3l246 428h42l93 -428l4 -3h47zM285 195l-36 174h-4l-96 -174h136zM164 689v5h97l41 -184h-30z" />
    <glyph glyph-name="amacron.sc" horiz-adv-x="465" 
d="M446 39l-7 -39h-189l7 39h54l5 4l-24 116h-162l-64 -116l3 -4h54l-7 -39h-155l7 39h44l2 3l246 428h42l93 -428l4 -3h47zM285 195l-36 174h-4l-96 -174h136zM175 615h237l-9 -50h-237z" />
    <glyph glyph-name="aogonek.sc" horiz-adv-x="473" 
d="M454 39l-7 -39h-19q-36 0 -68 -22.5t-51 -54.5t-19 -59q0 -37 36 -37q18 0 46 13l6 -21q-34 -25 -57.5 -37t-48.5 -12q-24 0 -41 14t-17 41q0 42 38.5 92t94.5 83h-89l7 39h54l5 4l-24 116h-162l-64 -116l3 -4h54l-7 -39h-155l7 39h44l2 3l246 428h42l93 -428l4 -3h47z
M293 195l-36 174h-4l-96 -174h136z" />
    <glyph glyph-name="aring.sc" horiz-adv-x="465" 
d="M446 39l-7 -39h-189l7 39h54l5 4l-24 116h-162l-64 -116l3 -4h54l-7 -39h-155l7 39h44l2 3l246 428h42l93 -428l4 -3h47zM285 195l-36 174h-4l-96 -174h136zM198 586q0 29 15.5 53.5t41 38.5t53.5 14q38 0 60.5 -21t22.5 -56q0 -27 -15.5 -51.5t-41.5 -39.5t-55 -15
q-37 0 -59 21t-22 56zM338 609q0 25 -10 41t-28 16q-19 0 -34 -20.5t-15 -52.5q0 -26 10.5 -42.5t25.5 -16.5q22 0 36.5 23t14.5 52z" />
    <glyph glyph-name="aringacute.sc" horiz-adv-x="465" 
d="M446 39l-7 -39h-189l7 39h54l5 4l-24 116h-162l-64 -116l3 -4h54l-7 -39h-155l7 39h44l2 3l246 428h42l93 -428l4 -3h47zM285 195l-36 174h-4l-96 -174h136zM198 586q0 29 15.5 53.5t41 38.5t53.5 14q38 0 60.5 -21t22.5 -56q0 -27 -15.5 -51.5t-41.5 -39.5t-55 -15
q-37 0 -59 21t-22 56zM338 609q0 25 -10 41t-28 16q-19 0 -34 -20.5t-15 -52.5q0 -26 10.5 -42.5t25.5 -16.5q22 0 36.5 23t14.5 52zM374 855h102v-5l-167 -129h-35z" />
    <glyph glyph-name="atilde.sc" horiz-adv-x="465" 
d="M446 39l-7 -39h-189l7 39h54l5 4l-24 116h-162l-64 -116l3 -4h54l-7 -39h-155l7 39h44l2 3l246 428h42l93 -428l4 -3h47zM285 195l-36 174h-4l-96 -174h136zM153 545q18 43 42.5 69.5t55.5 26.5q20 0 34 -6t32 -18q14 -10 24.5 -14.5t23.5 -4.5q15 0 25.5 11t24.5 36
l22 -10q-17 -42 -41.5 -69t-55.5 -27q-17 0 -29.5 5.5t-30.5 17.5q-18 11 -27 15.5t-22 4.5q-17 0 -29.5 -12t-25.5 -36z" />
    <glyph glyph-name="ae.sc" horiz-adv-x="638" 
d="M407 425l-31 -172h96l4 4l10 53h40l-27 -153h-40l9 53l-3 4h-96l-31 -175h159l83 90h8l-31 -129h-359l7 39h54l5 4l30 171h-112l-116 -171l4 -4h54l-7 -39h-156l7 39h43l3 3l260 381l-53 32l2 10h389l-22 -129h-8l-43 89h-132zM301 253l31 174h-6l-118 -174h93z" />
    <glyph glyph-name="aeacute.sc" horiz-adv-x="638" 
d="M407 425l-31 -172h96l4 4l10 53h40l-27 -153h-40l9 53l-3 4h-96l-31 -175h159l83 90h8l-31 -129h-359l7 39h54l5 4l30 171h-112l-116 -171l4 -4h54l-7 -39h-156l7 39h43l3 3l260 381l-53 32l2 10h389l-22 -129h-8l-43 89h-132zM301 253l31 174h-6l-118 -174h93zM448 694
h97v-5l-135 -179h-30z" />
    <glyph glyph-name="b.sc" horiz-adv-x="470" 
d="M432 144q0 -41 -28.5 -74t-80 -51.5t-119.5 -18.5h-184l7 39h55l4 4l67 374l-62 38l1 10h189q71 0 113.5 -24.5t42.5 -71.5q0 -38 -29.5 -69.5t-77.5 -46.5q48 -13 75 -41t27 -68zM229 425l-28 -159h41q51 0 81 26.5t30 66.5q0 66 -95 66h-29zM348 147q0 43 -29.5 61.5
t-85.5 18.5h-39l-34 -188h39q71 0 110 29t39 79z" />
    <glyph glyph-name="ordfeminine.sc" horiz-adv-x="331" 
d="M381 221q-19 -16 -42 -27.5t-44 -11.5q-23 0 -34 11.5t-11 36.5v13q-25 -28 -53.5 -44.5t-54.5 -16.5q-33 0 -52 26t-20 74q0 55 22.5 103.5t61.5 77.5t85 29q31 0 61 -15l44 16l5 -1l-37 -208q-3 -18 -3 -29q1 -16 8 -22.5t25 -6.5q20 0 34 6zM252 261q0 4 2 14l29 164
q-21 26 -48 26t-50 -23.5t-36.5 -63t-13.5 -84.5q0 -67 42 -67q31 0 75 34z" />
    <glyph glyph-name="ordmasculine.sc" horiz-adv-x="308" 
d="M70 300q0 50 22 94.5t60 71.5t84 27q47 0 76.5 -30.5t29.5 -83.5q0 -51 -21 -96t-59 -72.5t-84 -27.5q-49 0 -78.5 31.5t-29.5 85.5zM278 376q0 90 -51 90q-26 0 -47 -22.5t-33.5 -61t-12.5 -84.5q1 -44 14.5 -66t36.5 -22q26 0 47 22t33.5 60t12.5 84z" />
    <glyph glyph-name="c.sc" horiz-adv-x="474" 
d="M45 180q0 79 37.5 148t105 110.5t153.5 41.5q64 0 123 -27l-23 -132h-8l-32 83q-15 20 -34.5 29t-47.5 9q-53 0 -96.5 -33.5t-68 -91t-24.5 -126.5q0 -81 36.5 -120.5t100.5 -39.5q34 0 67 12.5t61 38.5l20 -23q-35 -36 -79 -55t-93 -19q-88 0 -143 49.5t-55 145.5z" />
    <glyph glyph-name="cacute.sc" horiz-adv-x="474" 
d="M45 180q0 79 37.5 148t105 110.5t153.5 41.5q64 0 123 -27l-23 -132h-8l-32 83q-15 20 -34.5 29t-47.5 9q-53 0 -96.5 -33.5t-68 -91t-24.5 -126.5q0 -81 36.5 -120.5t100.5 -39.5q34 0 67 12.5t61 38.5l20 -23q-35 -36 -79 -55t-93 -19q-88 0 -143 49.5t-55 145.5z
M361 694h97v-5l-135 -179h-30z" />
    <glyph glyph-name="ccaron.sc" horiz-adv-x="474" 
d="M45 180q0 79 37.5 148t105 110.5t153.5 41.5q64 0 123 -27l-23 -132h-8l-32 83q-15 20 -34.5 29t-47.5 9q-53 0 -96.5 -33.5t-68 -91t-24.5 -126.5q0 -81 36.5 -120.5t100.5 -39.5q34 0 67 12.5t61 38.5l20 -23q-35 -36 -79 -55t-93 -19q-88 0 -143 49.5t-55 145.5z
M235 701h28l74 -100l105 100h29l-122 -184h-39z" />
    <glyph glyph-name="ccedilla.sc" horiz-adv-x="474" 
d="M464 453l-23 -132h-8l-32 83q-15 20 -34.5 29t-47.5 9q-53 0 -96.5 -33.5t-68 -91t-24.5 -126.5q0 -81 36.5 -120.5t100.5 -39.5q34 0 67 12.5t61 38.5l20 -23q-35 -36 -79 -55t-93 -19h-9l-34 -61q12 4 26 4q28 0 45 -16.5t17 -43.5q0 -21 -12 -44t-36 -38.5t-56 -15.5
q-27 0 -48 9t-41 27l12 16q25 -14 51 -14q27 0 45 16.5t18 39.5q0 16 -10 24.5t-26 8.5q-18 0 -33 -6l-3 3l52 94q-71 11 -113.5 59.5t-42.5 132.5q0 79 37.5 148t105 110.5t153.5 41.5q64 0 123 -27z" />
    <glyph glyph-name="ccircumflex.sc" horiz-adv-x="474" 
d="M45 180q0 79 37.5 148t105 110.5t153.5 41.5q64 0 123 -27l-23 -132h-8l-32 83q-15 20 -34.5 29t-47.5 9q-53 0 -96.5 -33.5t-68 -91t-24.5 -126.5q0 -81 36.5 -120.5t100.5 -39.5q34 0 67 12.5t61 38.5l20 -23q-35 -36 -79 -55t-93 -19q-88 0 -143 49.5t-55 145.5z
M316 694h39l75 -184h-26l-76 100l-108 -100h-28z" />
    <glyph glyph-name="cdotaccent.sc" horiz-adv-x="474" 
d="M45 180q0 79 37.5 148t105 110.5t153.5 41.5q64 0 123 -27l-23 -132h-8l-32 83q-15 20 -34.5 29t-47.5 9q-53 0 -96.5 -33.5t-68 -91t-24.5 -126.5q0 -81 36.5 -120.5t100.5 -39.5q34 0 67 12.5t61 38.5l20 -23q-35 -36 -79 -55t-93 -19q-88 0 -143 49.5t-55 145.5z
M287 594q0 24 16.5 41.5t39.5 17.5q21 0 35 -16.5t13 -38.5q-2 -22 -18.5 -38t-36.5 -16q-21 0 -35 14.5t-14 35.5z" />
    <glyph glyph-name="d.sc" horiz-adv-x="565" 
d="M28 39h54l5 4l66 374l-62 38l1 10h199q119 0 180 -51t61 -137q0 -82 -40.5 -145t-114.5 -97.5t-172 -34.5h-185zM214 39q72 0 124.5 30t80 83.5t27.5 121.5q0 151 -179 151h-37l-69 -386h53z" />
    <glyph glyph-name="eth.sc" horiz-adv-x="565" 
d="M532 277q0 -82 -40.5 -145t-114.5 -97.5t-172 -34.5h-185l8 39h54l5 4l31 177h-58l7 42h59l27 155l-62 38l1 10h199q119 0 180 -51t61 -137zM446 274q0 151 -179 151h-37l-29 -163h114l-7 -42h-115l-32 -181h53q72 0 124.5 30t80 83.5t27.5 121.5z" />
    <glyph glyph-name="dcaron.sc" horiz-adv-x="565" 
d="M28 39h54l5 4l66 374l-62 38l1 10h199q119 0 180 -51t61 -137q0 -82 -40.5 -145t-114.5 -97.5t-172 -34.5h-185zM214 39q72 0 124.5 30t80 83.5t27.5 121.5q0 151 -179 151h-37l-69 -386h53zM218 701h28l74 -100l105 100h29l-122 -184h-39z" />
    <glyph glyph-name="dcroat.sc" horiz-adv-x="565" 
d="M532 277q0 -82 -40.5 -145t-114.5 -97.5t-172 -34.5h-185l8 39h54l5 4l31 177h-58l7 42h59l27 155l-62 38l1 10h199q119 0 180 -51t61 -137zM446 274q0 151 -179 151h-37l-29 -163h114l-7 -42h-115l-32 -181h53q72 0 124.5 30t80 83.5t27.5 121.5z" />
    <glyph glyph-name="e.sc" horiz-adv-x="462" 
d="M230 425l-29 -161h91l4 4l9 53h41l-27 -153h-40l8 54l-2 3h-91l-33 -186h160l82 90h9l-32 -129h-360l8 39h54l5 4l66 374l-62 38l1 10h343l-22 -129h-8l-43 89h-132z" />
    <glyph glyph-name="eacute.sc" horiz-adv-x="462" 
d="M230 425l-29 -161h91l4 4l9 53h41l-27 -153h-40l8 54l-2 3h-91l-33 -186h160l82 90h9l-32 -129h-360l8 39h54l5 4l66 374l-62 38l1 10h343l-22 -129h-8l-43 89h-132zM308 694h97v-5l-135 -179h-30z" />
    <glyph glyph-name="ebreve.sc" horiz-adv-x="462" 
d="M230 425l-29 -161h91l4 4l9 53h41l-27 -153h-40l8 54l-2 3h-91l-33 -186h160l82 90h9l-32 -129h-360l8 39h54l5 4l66 374l-62 38l1 10h343l-22 -129h-8l-43 89h-132zM197 619q0 21 7 54h30q-1 -7 -1 -19q0 -34 16.5 -53t46.5 -19q34 0 56 23.5t31 67.5h32
q-10 -65 -43.5 -109t-84.5 -44q-45 0 -67.5 26.5t-22.5 72.5z" />
    <glyph glyph-name="ecaron.sc" horiz-adv-x="462" 
d="M230 425l-29 -161h91l4 4l9 53h41l-27 -153h-40l8 54l-2 3h-91l-33 -186h160l82 90h9l-32 -129h-360l8 39h54l5 4l66 374l-62 38l1 10h343l-22 -129h-8l-43 89h-132zM199 701h28l74 -100l105 100h29l-122 -184h-39z" />
    <glyph glyph-name="ecircumflex.sc" horiz-adv-x="462" 
d="M230 425l-29 -161h91l4 4l9 53h41l-27 -153h-40l8 54l-2 3h-91l-33 -186h160l82 90h9l-32 -129h-360l8 39h54l5 4l66 374l-62 38l1 10h343l-22 -129h-8l-43 89h-132zM282 694h39l75 -184h-26l-76 100l-108 -100h-28z" />
    <glyph glyph-name="edieresis.sc" horiz-adv-x="462" 
d="M230 425l-29 -161h91l4 4l9 53h41l-27 -153h-40l8 54l-2 3h-91l-33 -186h160l82 90h9l-32 -129h-360l8 39h54l5 4l66 374l-62 38l1 10h343l-22 -129h-8l-43 89h-132zM164 594q0 24 16.5 41.5t39.5 17.5q21 0 35 -16.5t13 -38.5q-2 -22 -18.5 -38t-36.5 -16
q-21 0 -35 14.5t-14 35.5zM327 594q0 24 16.5 41.5t39.5 17.5q21 0 35 -16.5t13 -38.5q-2 -22 -18.5 -38t-36.5 -16q-21 0 -35 14.5t-14 35.5z" />
    <glyph glyph-name="edotaccent.sc" horiz-adv-x="462" 
d="M230 425l-29 -161h91l4 4l9 53h41l-27 -153h-40l8 54l-2 3h-91l-33 -186h160l82 90h9l-32 -129h-360l8 39h54l5 4l66 374l-62 38l1 10h343l-22 -129h-8l-43 89h-132zM240 594q0 24 16.5 41.5t39.5 17.5q21 0 35 -16.5t13 -38.5q-2 -22 -18.5 -38t-36.5 -16
q-21 0 -35 14.5t-14 35.5z" />
    <glyph glyph-name="egrave.sc" horiz-adv-x="462" 
d="M230 425l-29 -161h91l4 4l9 53h41l-27 -153h-40l8 54l-2 3h-91l-33 -186h160l82 90h9l-32 -129h-360l8 39h54l5 4l66 374l-62 38l1 10h343l-22 -129h-8l-43 89h-132zM186 689v5h97l41 -184h-30z" />
    <glyph glyph-name="emacron.sc" horiz-adv-x="462" 
d="M230 425l-29 -161h91l4 4l9 53h41l-27 -153h-40l8 54l-2 3h-91l-33 -186h160l82 90h9l-32 -129h-360l8 39h54l5 4l66 374l-62 38l1 10h343l-22 -129h-8l-43 89h-132zM182 615h237l-9 -50h-237z" />
    <glyph glyph-name="eogonek.sc" horiz-adv-x="462" 
d="M230 425l-29 -161h91l4 4l9 53h41l-27 -153h-40l8 54l-2 3h-91l-33 -186h160l82 90h9l-32 -129h-19q-36 0 -68 -22.5t-51 -54.5t-19 -59q0 -37 36 -37q18 0 46 13l6 -21q-34 -25 -57.5 -37t-48.5 -12q-24 0 -41 14t-17 41q0 42 38.5 92t94.5 83h-260l8 39h54l5 4l66 374
l-62 38l1 10h343l-22 -129h-8l-43 89h-132z" />
    <glyph glyph-name="f.sc" horiz-adv-x="445" 
d="M454 465l-23 -129h-8l-40 89h-153l-29 -161h105l4 4l11 53h39l-27 -153h-40l9 54l-3 3h-105l-32 -182l3 -4h80l-7 -39h-218l7 39h55l4 4l67 374l-62 38l1 10h362z" />
    <glyph glyph-name="g.sc" horiz-adv-x="544" 
d="M522 218l-7 -40h-50l-5 -4l-26 -146q-76 -43 -164 -43q-98 0 -158.5 55t-60.5 156q0 77 37.5 142t104.5 103.5t153 38.5q80 0 153 -36l-22 -127h-8l-32 83q-20 20 -47.5 31t-56.5 11q-58 0 -102.5 -32.5t-68.5 -89.5t-24 -130q0 -88 37 -127.5t100 -39.5q45 0 87 21
l23 130l-4 4h-60l7 40h194z" />
    <glyph glyph-name="gbreve.sc" horiz-adv-x="544" 
d="M522 218l-7 -40h-50l-5 -4l-26 -146q-76 -43 -164 -43q-98 0 -158.5 55t-60.5 156q0 77 37.5 142t104.5 103.5t153 38.5q80 0 153 -36l-22 -127h-8l-32 83q-20 20 -47.5 31t-56.5 11q-58 0 -102.5 -32.5t-68.5 -89.5t-24 -130q0 -88 37 -127.5t100 -39.5q45 0 87 21
l23 130l-4 4h-60l7 40h194zM268 619q0 21 7 54h30q-1 -7 -1 -19q0 -34 16.5 -53t46.5 -19q34 0 56 23.5t31 67.5h32q-10 -65 -43.5 -109t-84.5 -44q-45 0 -67.5 26.5t-22.5 72.5z" />
    <glyph glyph-name="gcircumflex.sc" horiz-adv-x="544" 
d="M522 218l-7 -40h-50l-5 -4l-26 -146q-76 -43 -164 -43q-98 0 -158.5 55t-60.5 156q0 77 37.5 142t104.5 103.5t153 38.5q80 0 153 -36l-22 -127h-8l-32 83q-20 20 -47.5 31t-56.5 11q-58 0 -102.5 -32.5t-68.5 -89.5t-24 -130q0 -88 37 -127.5t100 -39.5q45 0 87 21
l23 130l-4 4h-60l7 40h194zM352 694h39l75 -184h-26l-76 100l-108 -100h-28z" />
    <glyph glyph-name="gcommaaccent.sc" horiz-adv-x="544" 
d="M522 218l-7 -40h-50l-5 -4l-26 -146q-76 -43 -164 -43q-98 0 -158.5 55t-60.5 156q0 77 37.5 142t104.5 103.5t153 38.5q80 0 153 -36l-22 -127h-8l-32 83q-20 20 -47.5 31t-56.5 11q-58 0 -102.5 -32.5t-68.5 -89.5t-24 -130q0 -88 37 -127.5t100 -39.5q45 0 87 21
l23 130l-4 4h-60l7 40h194zM289 -107q0 -39 -31 -73t-79 -52l-7 19q27 12 43 29t19 35q-17 0 -27 10.5t-10 27.5q0 21 14.5 36t35.5 15q20 0 31 -13t11 -34z" />
    <glyph glyph-name="gdotaccent.sc" horiz-adv-x="544" 
d="M522 218l-7 -40h-50l-5 -4l-26 -146q-76 -43 -164 -43q-98 0 -158.5 55t-60.5 156q0 77 37.5 142t104.5 103.5t153 38.5q80 0 153 -36l-22 -127h-8l-32 83q-20 20 -47.5 31t-56.5 11q-58 0 -102.5 -32.5t-68.5 -89.5t-24 -130q0 -88 37 -127.5t100 -39.5q45 0 87 21
l23 130l-4 4h-60l7 40h194zM314 594q0 24 16.5 41.5t39.5 17.5q21 0 35 -16.5t13 -38.5q-2 -22 -18.5 -38t-36.5 -16q-21 0 -35 14.5t-14 35.5z" />
    <glyph glyph-name="h.sc" horiz-adv-x="614" 
d="M615 465l-2 -10l-74 -38l-67 -374l3 -4h54l-7 -39h-191l7 39h54l5 4l32 181h-236l-32 -181l3 -4h55l-7 -39h-192l7 39h55l4 4l67 374l-62 38l1 10h213l-2 -10l-75 -38l-28 -154h236l28 154l-63 38l2 10h212z" />
    <glyph glyph-name="hbar.sc" horiz-adv-x="614" 
d="M539 417l-9 -50h58l-7 -42h-58l-51 -282l3 -4h54l-7 -39h-191l7 39h54l5 4l32 181h-236l-32 -181l3 -4h55l-7 -39h-192l7 39h55l4 4l51 282h-58l7 42h58l9 50l-62 38l1 10h213l-2 -10l-75 -38l-9 -50h236l9 50l-63 38l2 10h212l-2 -10zM448 325h-236l-12 -62h236z" />
    <glyph glyph-name="hcircumflex.sc" horiz-adv-x="614" 
d="M615 465l-2 -10l-74 -38l-67 -374l3 -4h54l-7 -39h-191l7 39h54l5 4l32 181h-236l-32 -181l3 -4h55l-7 -39h-192l7 39h55l4 4l67 374l-62 38l1 10h213l-2 -10l-75 -38l-28 -154h236l28 154l-63 38l2 10h212zM355 694h39l75 -184h-26l-76 100l-108 -100h-28z" />
    <glyph glyph-name="i.sc" horiz-adv-x="304" 
d="M27 39h55l4 4l67 374l-62 38l1 10h213l-2 -10l-75 -38l-67 -374l3 -4h55l-7 -39h-192z" />
    <glyph glyph-name="dotlessi.sc" horiz-adv-x="304" 
d="M27 39h55l4 4l67 374l-62 38l1 10h213l-2 -10l-75 -38l-67 -374l3 -4h55l-7 -39h-192z" />
    <glyph glyph-name="iacute.sc" horiz-adv-x="304" 
d="M27 39h55l4 4l67 374l-62 38l1 10h213l-2 -10l-75 -38l-67 -374l3 -4h55l-7 -39h-192zM238 694h97v-5l-135 -179h-30z" />
    <glyph glyph-name="ibreve.sc" horiz-adv-x="304" 
d="M27 39h55l4 4l67 374l-62 38l1 10h213l-2 -10l-75 -38l-67 -374l3 -4h55l-7 -39h-192zM115 609q0 21 7 54h30q-1 -7 -1 -19q0 -34 16.5 -53t46.5 -19q34 0 56 23.5t31 67.5h32q-10 -65 -43.5 -109t-84.5 -44q-45 0 -67.5 26.5t-22.5 72.5z" />
    <glyph glyph-name="icircumflex.sc" horiz-adv-x="304" 
d="M27 39h55l4 4l67 374l-62 38l1 10h213l-2 -10l-75 -38l-67 -374l3 -4h55l-7 -39h-192zM208 694h39l75 -184h-26l-76 100l-108 -100h-28z" />
    <glyph glyph-name="idieresis.sc" horiz-adv-x="304" 
d="M27 39h55l4 4l67 374l-62 38l1 10h213l-2 -10l-75 -38l-67 -374l3 -4h55l-7 -39h-192zM82 594q0 24 16.5 41.5t39.5 17.5q21 0 35 -16.5t13 -38.5q-2 -22 -18.5 -38t-36.5 -16q-21 0 -35 14.5t-14 35.5zM245 594q0 24 16.5 41.5t39.5 17.5q21 0 35 -16.5t13 -38.5
q-2 -22 -18.5 -38t-36.5 -16q-21 0 -35 14.5t-14 35.5z" />
    <glyph glyph-name="i.sc.loclTRK" horiz-adv-x="304" 
d="M27 39h55l4 4l67 374l-62 38l1 10h213l-2 -10l-75 -38l-67 -374l3 -4h55l-7 -39h-192zM159 594q0 24 16.5 41.5t39.5 17.5q21 0 35 -16.5t13 -38.5q-2 -22 -18.5 -38t-36.5 -16q-21 0 -35 14.5t-14 35.5z" />
    <glyph glyph-name="igrave.sc" horiz-adv-x="304" 
d="M27 39h55l4 4l67 374l-62 38l1 10h213l-2 -10l-75 -38l-67 -374l3 -4h55l-7 -39h-192zM89 689v5h97l41 -184h-30z" />
    <glyph glyph-name="imacron.sc" horiz-adv-x="304" 
d="M27 39h55l4 4l67 374l-62 38l1 10h213l-2 -10l-75 -38l-67 -374l3 -4h55l-7 -39h-192zM98 615h237l-9 -50h-237z" />
    <glyph glyph-name="iogonek.sc" horiz-adv-x="303" 
d="M-21 -175q0 42 38.5 92t94.5 83h-92l7 39h55l4 4l67 374l-62 38l1 10h213l-2 -10l-75 -38l-67 -374l3 -4h55l-7 -39h-19q-36 0 -68 -22.5t-51 -54.5t-19 -59q0 -37 36 -37q18 0 46 13l6 -21q-34 -25 -57.5 -37t-48.5 -12q-24 0 -41 14t-17 41z" />
    </font>
</defs>
</svg>
