<?xml version="1.0" standalone="no"?>
<!DOCTYPE svg PUBLIC "-//W3C//DTD SVG 1.1//EN" "http://www.w3.org/Graphics/SVG/1.1/DTD/svg11.dtd" >
<svg xmlns="http://www.w3.org/2000/svg" xmlns:xlink="http://www.w3.org/1999/xlink" version="1.1">
<metadata>
Created by FontForge 20170731 at Mon May 30 08:46:41 2016
 By Aleksey,,,
Copyright (c) 2015 by Roxane Gataud. All rights reserved.
</metadata>
<defs>
<font id="Bely-Bold" horiz-adv-x="520" >
  <font-face 
    font-family="Bely"
    font-weight="700"
    font-stretch="normal"
    units-per-em="1000"
    panose-1="2 0 8 0 0 0 0 0 0 0"
    ascent="800"
    descent="-200"
    x-height="420"
    cap-height="650"
    bbox="-141 -278 1124 1040"
    underline-thickness="50"
    underline-position="-150"
    unicode-range="U+0020-FB04"
  />
<missing-glyph horiz-adv-x="200" 
 />
    <glyph glyph-name="ij" unicode="ij" horiz-adv-x="515" 
d="M65 584q0 29 20.5 49t49.5 20t49 -20t20 -49t-20 -49.5t-49 -20.5t-49.5 20.5t-20.5 49.5zM31 64h45l5 5v242l-64 40v12l166 79l13 -6v-367l5 -5h45v-64h-215v64zM325 584q0 29 20.5 49t49.5 20t49 -20t20 -49t-20 -49.5t-49 -20.5t-49.5 20.5t-20.5 49.5zM239 -197
q52 22 74.5 55.5t22.5 99.5v353l-64 40v12l166 79l13 -6v-438q0 -103 -51 -157t-145 -68z" />
    <glyph glyph-name="ff" unicode="ff" horiz-adv-x="626" 
d="M661 700v-137h-8l-54 59q-15 16 -28.5 25t-32.5 9q-51 0 -51 -95v-136l5 -5h117v-64h-117l-5 -6v-281l5 -5h65v-64h-235v64h45l5 5v281l-5 6h-165l-5 -6v-281l5 -5h45v-64h-215v64h45l5 5v281l-5 6h-45v64h45l5 5v17q0 135 56 197.5t149 62.5q37 0 70.5 -9t72.5 -28
q48 52 138 52q47 0 93 -17zM372 457q0 66 12 114l-8 11q-20 28 -44 43.5t-50 15.5q-45 0 -65 -37.5t-20 -122.5v-56l5 -5h165l5 5v32z" />
    <glyph glyph-name="fi" unicode="fi" horiz-adv-x="562" 
d="M32 64h45l5 5v281l-5 6h-45v64h45l5 5v32q0 128 62.5 194t168.5 66q38 0 78.5 -7.5t63.5 -17.5v-180h-36l-23 42q-28 52 -55 77t-59 25q-38 0 -61.5 -35.5t-23.5 -109.5v-86l5 -5h295v-351l5 -5h45v-64h-215v64h45l5 5v287h-180l-5 -6v-281l5 -5h45v-64h-215v64z" />
    <glyph glyph-name="fl" unicode="fl" horiz-adv-x="580" 
d="M562 64v-64h-215v64h45l5 5v496l-28 30q-30 32 -53.5 46.5t-48.5 14.5q-34 0 -52 -28.5t-18 -86.5v-116l5 -5h107v-64h-107l-5 -6v-281l5 -5h45v-64h-215v64h45l5 5v281l-5 6h-45v64h45l5 5v32q0 260 200 260q35 0 70 -10t64 -27l82 40l14 -7v-644l5 -5h45z" />
    <glyph glyph-name="ffi" unicode="ffi" horiz-adv-x="852" 
d="M837 64v-64h-215v64h45l5 5v287h-180l-5 -6v-281l5 -5h65v-64h-235v64h45l5 5v281l-5 6h-165l-5 -6v-281l5 -5h45v-64h-215v64h45l5 5v281l-5 6h-45v64h45l5 5v17q0 135 56.5 197.5t150.5 62.5q39 0 74 -10t79 -32q60 57 159 57q40 0 81 -7.5t63 -17.5v-180h-36l-23 42
q-28 52 -55.5 77t-60.5 25q-37 0 -60 -35.5t-23 -109.5v-86l5 -5h295v-351l5 -5h45zM372 457q0 62 15 110l-11 15q-41 59 -92 59q-45 0 -66 -37.5t-21 -122.5v-56l5 -5h165l5 5v32z" />
    <glyph glyph-name="ffl" unicode="ffl" horiz-adv-x="870" 
d="M852 64v-64h-220v64h50l5 5v496l-28 30q-30 32 -53.5 46.5t-48.5 14.5q-34 0 -52 -28.5t-18 -86.5v-116l5 -5h107v-64h-107l-5 -6v-281l5 -5h50v-64h-220v64h45l5 5v281l-5 6h-165l-5 -6v-281l5 -5h45v-64h-215v64h45l5 5v281l-5 6h-45v64h45l5 5v17q0 135 56 197.5
t148 62.5q38 0 72 -9t75 -29q49 53 139 53q35 0 70 -10t64 -27l82 40l14 -7v-644l5 -5h45zM372 457q0 65 12 113l-8 12q-20 28 -44.5 43.5t-50.5 15.5q-44 0 -64 -37.5t-20 -122.5v-56l5 -5h165l5 5v32z" />
    <glyph glyph-name="f_b" unicode="fb" horiz-adv-x="838" 
d="M803 231q0 -74 -32.5 -128.5t-88.5 -83.5t-126 -29q-46 0 -85 7t-74 26v542l-28 30q-30 32 -53.5 46.5t-48.5 14.5q-34 0 -52 -28.5t-18 -86.5v-116l5 -5h107v-64h-107l-5 -6v-281l5 -5h50v-64h-220v64h45l5 5v281l-5 6h-45v64h45l5 5v32q0 260 200 260q35 0 70 -10
t64 -27l82 40l14 -7v-340q40 32 71.5 47t69.5 15q42 0 76.5 -26.5t54 -73t19.5 -104.5zM681 201q0 72 -26.5 110t-71.5 38q-32 0 -71 -9v-250q11 -17 32.5 -28.5t44.5 -11.5q46 0 69 39t23 112z" />
    <glyph glyph-name="f_f_b" unicode="ffb" horiz-adv-x="1128" 
d="M1093 231q0 -74 -32.5 -128.5t-88.5 -83.5t-126 -29q-46 0 -85 7t-74 26v542l-28 30q-30 32 -53.5 46.5t-48.5 14.5q-34 0 -52 -28.5t-18 -86.5v-116l5 -5h107v-64h-107l-5 -6v-281l5 -5h50v-64h-220v64h45l5 5v281l-5 6h-165l-5 -6v-281l5 -5h45v-64h-215v64h45l5 5v281
l-5 6h-45v64h45l5 5v17q0 135 56 197.5t148 62.5q38 0 72 -9t75 -29q49 53 139 53q35 0 70 -10t64 -27l82 40l14 -7v-340q40 32 71.5 47t69.5 15q42 0 76.5 -26.5t54 -73t19.5 -104.5zM372 457q0 65 12 113l-8 12q-20 28 -44.5 43.5t-50.5 15.5q-44 0 -64 -37.5t-20 -122.5
v-56l5 -5h165l5 5v32zM971 201q0 72 -26.5 110t-71.5 38q-32 0 -71 -9v-250q11 -17 32.5 -28.5t44.5 -11.5q46 0 69 39t23 112z" />
    <glyph glyph-name="f_f_h" unicode="ffh" horiz-adv-x="1143" 
d="M1124 64v-64h-215v64h45l5 5v178q0 56 -17 79t-56 23t-84 -12v-268l5 -5h45v-64h-220v64h50l5 5v496l-28 30q-30 32 -53.5 46.5t-48.5 14.5q-34 0 -52 -28.5t-18 -86.5v-116l5 -5h107v-64h-107l-5 -6v-281l5 -5h50v-64h-220v64h45l5 5v281l-5 6h-165l-5 -6v-281l5 -5h45
v-64h-215v64h45l5 5v281l-5 6h-45v64h45l5 5v17q0 135 56 197.5t148 62.5q38 0 72 -9t75 -29q49 53 139 53q35 0 70 -10t64 -27l82 40l14 -7v-336q89 58 142 58q130 0 130 -117v-249l5 -5h45zM372 457q0 65 12 113l-8 12q-20 28 -44.5 43.5t-50.5 15.5q-44 0 -64 -37.5
t-20 -122.5v-56l5 -5h165l5 5v32z" />
    <glyph glyph-name="f_f_j" unicode="ffj" horiz-adv-x="851" 
d="M787 420v-412q0 -103 -51 -157t-145 -68l-16 30q52 22 74.5 55.5t22.5 99.5v388h-180l-5 -6v-281l5 -5h65v-64h-235v64h45l5 5v281l-5 6h-165l-5 -6v-281l5 -5h45v-64h-215v64h45l5 5v281l-5 6h-45v64h45l5 5v17q0 135 56.5 197.5t150.5 62.5q39 0 74 -10t79 -32
q60 57 159 57q40 0 81 -7.5t63 -17.5v-180h-36l-23 42q-28 52 -55.5 77t-60.5 25q-37 0 -60 -35.5t-23 -109.5v-86l5 -5h295zM372 457q0 62 15 110l-11 15q-41 59 -92 59q-45 0 -66 -37.5t-21 -122.5v-56l5 -5h165l5 5v32z" />
    <glyph glyph-name="f_f_k" unicode="ffk" horiz-adv-x="1127" 
d="M807 64h45v-64h-215v64h45l5 5v496l-28 30q-30 32 -53.5 46.5t-48.5 14.5q-34 0 -52 -28.5t-18 -86.5v-116l5 -5h107v-64h-107l-5 -6v-281l5 -5h50v-64h-220v64h45l5 5v281l-5 6h-165l-5 -6v-281l5 -5h45v-64h-215v64h45l5 5v281l-5 6h-45v64h45l5 5v17q0 135 56 197.5
t148 62.5q38 0 72 -9t75 -29q49 53 139 53q35 0 70 -10t64 -27l82 40l14 -7v-644zM372 457q0 65 12 113l-8 12q-20 28 -44.5 43.5t-50.5 15.5q-44 0 -64 -37.5t-20 -122.5v-56l5 -5h165l5 5v32zM1122 64v-64h-158l-154 224l128 136l-57 56v9h221v-8l-177 -163l135 -190h62z
" />
    <glyph glyph-name="f_f_t" unicode="fft" horiz-adv-x="946" 
d="M653 563l-54 59q-15 16 -28.5 25t-32.5 9q-51 0 -51 -95v-136l5 -5h84v-64h-84l-5 -6v-281l5 -5h65v-64h-235v64h45l5 5v281l-5 6h-165l-5 -6v-281l5 -5h45v-64h-215v64h45l5 5v281l-5 6h-45v64h45l5 5v17q0 135 56 197.5t149 62.5q37 0 70.5 -9t72.5 -28q48 52 138 52
q47 0 93 -17v-137h-8zM372 457q0 66 12 114l-8 11q-20 28 -44 43.5t-50 15.5q-45 0 -65 -37.5t-20 -122.5v-56l5 -5h165l5 5v32zM938 48q-30 -26 -69.5 -42t-80.5 -16q-56 0 -84.5 30.5t-28.5 100.5v230l-5 5h-51v13l158 170h13v-119h133v-64h-133v-187q0 -60 12.5 -84
t42.5 -24q32 0 74 22z" />
    <glyph glyph-name="f_h" unicode="fh" horiz-adv-x="853" 
d="M834 64v-64h-215v64h45l5 5v178q0 56 -17 79t-56 23t-84 -12v-268l5 -5h45v-64h-215v64h45l5 5v496l-28 30q-30 32 -53.5 46.5t-48.5 14.5q-34 0 -52 -28.5t-18 -86.5v-116l5 -5h107v-64h-107l-5 -6v-281l5 -5h45v-64h-215v64h45l5 5v281l-5 6h-45v64h45l5 5v32
q0 260 200 260q35 0 70 -10t64 -27l82 40l14 -7v-336q89 58 142 58q130 0 130 -117v-249l5 -5h45z" />
    <glyph glyph-name="f_iacute" unicode="f&#xed;" horiz-adv-x="562" 
d="M32 64h45l5 5v281l-5 6h-45v64h45l5 5v32q0 135 49 197.5t147 62.5q47 0 93 -17v-137h-8l-54 59q-15 16 -28.5 25t-32.5 9q-51 0 -51 -95v-136l5 -5h295v-351l5 -5h45v-64h-215v64h45l5 5v287h-180l-5 -6v-281l5 -5h45v-64h-215v64zM459 674h124v-14l-156 -170h-55z" />
    <glyph glyph-name="f_j" unicode="fj" horiz-adv-x="561" 
d="M285 -187q52 22 74.5 55.5t22.5 99.5v388h-180l-5 -6v-281l5 -5h65v-64h-235v64h45l5 5v281l-5 6h-45v64h45l5 5v32q0 128 62.5 194t168.5 66q38 0 78.5 -7.5t63.5 -17.5v-180h-36l-23 42q-28 52 -55 77t-59 25q-38 0 -61.5 -35.5t-23.5 -109.5v-86l5 -5h295v-412
q0 -103 -51 -157t-145 -68z" />
    <glyph glyph-name="f_k" unicode="fk" horiz-adv-x="837" 
d="M516 64h45v-64h-215v64h45l5 5v496l-28 30q-30 32 -53.5 46.5t-48.5 14.5q-34 0 -52 -28.5t-18 -86.5v-116l5 -5h107v-64h-107l-5 -6v-281l5 -5h45v-64h-215v64h45l5 5v281l-5 6h-45v64h45l5 5v32q0 260 200 260q35 0 70 -10t64 -27l82 40l14 -7v-644zM831 64v-64h-158
l-154 224l128 136l-57 56v9h221v-8l-177 -163l135 -190h62z" />
    <glyph glyph-name="f_t" unicode="ft" horiz-adv-x="656" 
d="M32 64h45l5 5v281l-5 6h-45v64h45l5 5v32q0 135 49 197.5t147 62.5q47 0 93 -17v-137h-8l-54 59q-15 16 -28.5 25t-32.5 9q-51 0 -51 -95v-136l5 -5h84v-64h-84l-5 -6v-281l5 -5h65v-64h-235v64zM385 121v230l-5 5h-51v13l158 170h13v-119h133v-64h-133v-187
q0 -60 12.5 -84t42.5 -24q32 0 74 22l19 -35q-30 -26 -69.5 -42t-80.5 -16q-56 0 -84.5 30.5t-28.5 100.5z" />
    <glyph glyph-name="t_t" unicode="tt" horiz-adv-x="653" 
d="M645 48q-30 -26 -69.5 -42t-80.5 -16q-56 0 -84.5 30.5t-28.5 100.5v230l-5 5h-188v-187q0 -60 12.5 -84t42.5 -24q32 0 74 22l19 -35q-30 -26 -69.5 -42t-80.5 -16q-56 0 -84.5 30.5t-28.5 100.5v230l-5 5h-56v13l163 170h13v-119h184l111 119h13v-119h133v-64h-133
v-187q0 -60 12.5 -84t42.5 -24q32 0 74 22z" />
    <glyph glyph-name=".notdef" horiz-adv-x="200" 
 />
    <glyph glyph-name=".null" horiz-adv-x="0" 
 />
    <glyph glyph-name="nonmarkingreturn" horiz-adv-x="333" 
 />
    <glyph glyph-name="space" unicode=" " horiz-adv-x="190" 
 />
    <glyph glyph-name="exclam" unicode="!" horiz-adv-x="290" 
d="M60 650h170l-70 -467h-30zM70 60q0 31 22 53t53 22t53 -22t22 -53t-22 -53t-53 -22t-53 22t-22 53z" />
    <glyph glyph-name="quotedbl" unicode="&#x22;" horiz-adv-x="351" 
d="M30 717h115l-20 -242h-75zM206 717h115l-20 -242h-75z" />
    <glyph glyph-name="numbersign" unicode="#" horiz-adv-x="605" 
d="M468 339l-36 -115h104l-24 -75h-103l-46 -149h-85l46 149h-97l-46 -149h-85l46 149h-97l22 75h98l36 115h-104l22 75h105l40 129h85l-40 -129h97l40 129h85l-40 -129h99l-26 -75h-96zM383 339h-97l-36 -115h97z" />
    <glyph glyph-name="dollar" unicode="$" horiz-adv-x="416" 
d="M228 -13v-57h-48v56q-71 3 -142 37v160h16l35 -64q33 -63 91 -79v146q-40 21 -62 36q-81 52 -81 129q0 54 38 91t105 46v52h48v-50q66 -3 122 -31v-152h-15l-41 62q-14 22 -29.5 38t-36.5 25v-143q51 -32 66 -42q42 -29 61 -58t19 -65q0 -57 -40.5 -93.5t-105.5 -43.5z
M180 318v120q-23 -2 -36 -16t-13 -36q0 -20 11.5 -36t37.5 -32zM280 89q0 17 -12 33.5t-40 35.5v-121q25 4 38.5 18t13.5 34z" />
    <glyph glyph-name="percent" unicode="%" horiz-adv-x="593" 
d="M33 377q0 49 35.5 81t94.5 32q60 0 94 -31t34 -82q0 -49 -35.5 -80t-93.5 -31q-61 0 -95 30.5t-34 80.5zM454 480h85l-399 -480h-85zM198 377q0 34 -9 52t-27 18q-17 0 -26.5 -17.5t-9.5 -51.5q0 -36 9 -52.5t28 -16.5q35 0 35 68zM302 100q0 49 35.5 81t94.5 32
q60 0 94 -31t34 -82q0 -49 -35.5 -80t-93.5 -31q-61 0 -95 30.5t-34 80.5zM467 100q0 70 -36 70t-36 -69t37 -69q35 0 35 68z" />
    <glyph glyph-name="ampersand" unicode="&#x26;" horiz-adv-x="728" 
d="M713 64v-64h-171l-50 52q-81 -67 -193 -67q-122 0 -190.5 50t-68.5 145q0 67 40 115.5t112 73.5q-54 70 -54 135q0 45 24.5 82t66.5 58t91 21q77 0 124 -35t47 -95q0 -47 -38.5 -82.5t-111.5 -58.5l17 -18l164 -175q17 46 17 99l-80 59v11h225v-10l-85 -61
q0 -80 -31 -147l83 -88h62zM254 535q0 -28 15 -54t47 -60q32 18 49 47.5t17 61.5q0 33 -16.5 54t-47.5 21q-30 0 -47 -19t-17 -51zM448 96l-123 127l-21 21q-17 18 -38 39.5t-44 47.5q-23 -23 -35 -55.5t-12 -70.5q0 -69 41.5 -108.5t116.5 -39.5q65 0 115 39z" />
    <glyph glyph-name="quotesingle" unicode="'" horiz-adv-x="175" 
d="M30 717h115l-20 -242h-75z" />
    <glyph glyph-name="parenleft" unicode="(" horiz-adv-x="359" 
d="M90 234q0 130 59 246.5t166 210.5l33 -24q-67 -85 -104 -197t-37 -234t37 -235t105 -201l-33 -23q-108 97 -167 213.5t-59 243.5z" />
    <glyph glyph-name="parenright" unicode=")" horiz-adv-x="359" 
d="M269 234q0 -130 -59 -246.5t-166 -210.5l-33 24q67 85 104 197t37 234t-37 235t-105 201l33 23q108 -97 167 -213.5t59 -243.5z" />
    <glyph glyph-name="asterisk" unicode="*" horiz-adv-x="355" 
d="M218 577l111 -31l-48 -85l-83 81l28 -112h-97l28 112l-82 -81l-50 84l112 32l-111 31l48 85l83 -81l-28 112h97l-28 -112l82 81l50 -84z" />
    <glyph glyph-name="plus" unicode="+" horiz-adv-x="560" 
d="M480 168h-162v-163h-75v163h-163v75h163v162h75v-162h162v-75z" />
    <glyph glyph-name="comma" unicode="," horiz-adv-x="260" 
d="M204 40q0 -58 -37.5 -114t-111.5 -85l-22 41q76 34 85 104q-27 4 -45.5 25t-18.5 49q0 31 22 53t53 22q32 0 53.5 -25.5t21.5 -69.5z" />
    <glyph glyph-name="hyphen" unicode="-" horiz-adv-x="325" 
d="M40 253h245v-90h-245v90z" />
    <glyph glyph-name="period" unicode="." horiz-adv-x="260" 
d="M55 60q0 31 22 53t53 22t53 -22t22 -53t-22 -53t-53 -22t-53 22t-22 53z" />
    <glyph glyph-name="slash" unicode="/" horiz-adv-x="420" 
d="M330 720h80l-320 -914h-80z" />
    <glyph glyph-name="zero" unicode="0" horiz-adv-x="560" 
d="M35 239q0 74 31 131t86.5 88.5t128.5 31.5q74 0 129 -31t85 -88t30 -132t-31 -132.5t-86.5 -89.5t-127.5 -32q-74 0 -129.5 31.5t-85.5 89t-30 133.5zM395 239q0 91 -29 141t-86 50q-55 0 -85 -49t-30 -141q0 -97 28.5 -146t87.5 -49q114 0 114 194z" />
    <glyph glyph-name="one" unicode="1" horiz-adv-x="391" 
d="M45 67h95l5 5v331l-5 5h-95v67h220v-403l5 -5h96v-67h-321v67z" />
    <glyph glyph-name="two" unicode="2" horiz-adv-x="449" 
d="M424 166v-166h-394v55l49 44q77 69 111.5 103.5t55 71.5t20.5 79q0 34 -15.5 55.5t-43.5 21.5q-25 0 -46.5 -17t-52.5 -66l-49 -76h-14v167q79 52 164 52q83 0 129.5 -34.5t46.5 -96.5q0 -61 -40 -112.5t-132 -109.5l-67 -42h206l5 5v66h67z" />
    <glyph glyph-name="three" unicode="3" horiz-adv-x="460" 
d="M435 54q0 -51 -29 -92t-79.5 -64t-111.5 -23q-51 0 -89.5 9.5t-82.5 29.5v171h13l28 -43q40 -60 69 -84t64 -24q41 0 64.5 29.5t23.5 81.5q0 58 -34.5 89t-101.5 31h-35v67h36q54 0 82 31t28 85q0 36 -18.5 58.5t-50.5 22.5q-30 0 -49 -18.5t-48 -63.5l-49 -76h-13v167
q80 52 172 52t139 -36t47 -94q0 -48 -38.5 -89t-96.5 -61q75 -10 117.5 -51.5t42.5 -104.5z" />
    <glyph glyph-name="four" unicode="4" horiz-adv-x="523" 
d="M384 64v-102l5 -5h96v-67h-316v67h95l10 5v102h-264v34l285 387h89v-339h129l-20 -82h-109zM274 146v220l-164 -220h164z" />
    <glyph glyph-name="five" unicode="5" horiz-adv-x="465" 
d="M430 80q0 -60 -28.5 -106.5t-77 -72.5t-108.5 -26q-47 0 -89.5 9.5t-86.5 29.5v171h14l27 -42q30 -47 52 -70t41.5 -31t46.5 -8q39 0 62.5 36t23.5 90q0 57 -31.5 88.5t-97.5 31.5q-52 0 -105 -16l-13 9l23 302h311v-211h-15l-62 106h-181l-12 -141q55 26 104 26
q99 0 150.5 -49t51.5 -126z" />
    <glyph glyph-name="six" unicode="6" 
d="M495 206q0 -63 -29.5 -113.5t-80.5 -79t-115 -28.5q-67 0 -120.5 30t-84 88t-30.5 139q0 91 51 174t138.5 144t193.5 89l17 -46q-92 -35 -157.5 -96.5t-93.5 -144.5q56 28 114 28q61 0 105.5 -24.5t68 -66.5t23.5 -93zM365 188q0 56 -30 91.5t-85 35.5q-35 0 -81 -14
q-4 -25 -4 -58q0 -95 28.5 -146.5t81.5 -51.5q42 0 66 37.5t24 105.5z" />
    <glyph glyph-name="seven" unicode="7" horiz-adv-x="481" 
d="M469 475v-28l-256 -592l-135 40l295 476h-242l-71 -121h-15v225h424z" />
    <glyph glyph-name="eight" unicode="8" horiz-adv-x="527" 
d="M492 184q0 -59 -28.5 -104t-78.5 -70t-111 -25q-106 0 -172.5 47.5t-66.5 129.5q0 55 41.5 99t109.5 65q-57 37 -86.5 80t-29.5 84q0 50 25.5 90t71 62.5t103.5 22.5q57 0 103.5 -20t73 -54.5t26.5 -77.5q0 -44 -36 -80t-103 -60l42 -29q59 -40 87.5 -78t28.5 -82z
M179 523q0 -30 23 -53t62 -50l35 -24q63 50 63 120q0 40 -26 64.5t-65 24.5q-41 0 -66.5 -22.5t-25.5 -59.5zM381 145q0 32 -20 58.5t-64 53.5l-77 48q-27 -23 -41 -58t-14 -76q0 -59 32 -92.5t85 -33.5q42 0 70.5 27.5t28.5 72.5z" />
    <glyph glyph-name="nine" unicode="9" horiz-adv-x="548" 
d="M513 253q0 -137 -101.5 -241t-285.5 -157l-18 48q110 43 173.5 98t86.5 128q-66 -41 -147 -41q-47 0 -88.5 22.5t-67 65.5t-25.5 100q0 61 30.5 110t83.5 76.5t116 27.5q78 0 133 -31t82.5 -85t27.5 -121zM380 183q3 24 3 50q0 96 -30 146t-83 50q-47 0 -73.5 -37
t-26.5 -100q0 -60 28 -94.5t79 -34.5q52 0 103 20z" />
    <glyph glyph-name="colon" unicode=":" horiz-adv-x="260" 
d="M55 360q0 31 22 53t53 22t53 -22t22 -53t-22 -53t-53 -22t-53 22t-22 53zM55 60q0 31 22 53t53 22t53 -22t22 -53t-22 -53t-53 -22t-53 22t-22 53z" />
    <glyph glyph-name="semicolon" unicode=";" horiz-adv-x="260" 
d="M204 40q0 -58 -37.5 -114t-111.5 -85l-22 41q76 34 85 104q-27 4 -45.5 25t-18.5 49q0 31 22 53t53 22q32 0 53.5 -25.5t21.5 -69.5zM55 360q0 31 22 53t53 22t53 -22t22 -53t-22 -53t-53 -22t-53 22t-22 53z" />
    <glyph glyph-name="less" unicode="&#x3c;" horiz-adv-x="561" 
d="M448 344l-236 -136l236 -136v-82l-335 191v54l335 191v-82z" />
    <glyph glyph-name="equal" unicode="=" horiz-adv-x="560" 
d="M80 333h400v-75h-400v75zM80 158h400v-75h-400v75z" />
    <glyph glyph-name="greater" unicode="&#x3e;" horiz-adv-x="561" 
d="M448 235v-54l-335 -191v82l236 136l-236 136v82z" />
    <glyph glyph-name="question" unicode="?" horiz-adv-x="457" 
d="M432 511q0 -64 -46.5 -115t-139.5 -87l-25 -127h-31l-28 132q73 41 106.5 85.5t33.5 104.5q0 44 -22.5 72.5t-59.5 28.5q-39 0 -67 -27.5t-42 -83.5l-85 61q37 54 88 82t124 28q88 0 141 -42t53 -112zM279 60q0 -31 -22 -53t-53 -22t-53 22t-22 53t22 53t53 22t53 -22
t22 -53z" />
    <glyph glyph-name="at" unicode="@" horiz-adv-x="976" 
d="M527 76v13q-75 -77 -139 -77q-44 0 -66.5 33t-22.5 93q0 72 30.5 135t80.5 101t104 38q44 0 78 -26l80 32l11 -6l-47 -265q-4 -32 -4 -37q0 -25 8 -36.5t28 -11.5q33 0 64 26t50 75t19 114q0 75 -33 132.5t-92.5 89t-138.5 31.5q-99 0 -178.5 -49t-124 -135.5
t-44.5 -193.5q0 -82 30.5 -144t90 -97t143.5 -35q67 0 129.5 16.5t106.5 48.5l31 -49q-53 -38 -127 -57t-156 -19q-111 0 -197.5 36.5t-136 111t-49.5 184.5q0 120 63.5 221.5t176.5 161t256 59.5q117 0 203 -40t131.5 -108t45.5 -151q0 -82 -41.5 -149.5t-113 -107
t-155.5 -39.5q-51 0 -72.5 20.5t-21.5 60.5zM531 126q1 1 1 3l35 199q-10 19 -24.5 29t-29.5 10q-27 0 -50.5 -29t-37.5 -74.5t-14 -92.5q0 -42 12 -60.5t34 -18.5q32 0 74 34z" />
    <glyph glyph-name="A" unicode="A" horiz-adv-x="679" 
d="M669 67v-67h-259v67h60l5 5l-45 106h-241l-41 -106l5 -5h60v-67h-203v67h55l5 5l239 578h53l249 -578l5 -5h53zM402 246l-95 224h-5l-87 -224h187z" />
    <glyph glyph-name="B" unicode="B" horiz-adv-x="615" 
d="M583 194q0 -54 -32 -98.5t-91.5 -70t-139.5 -25.5h-275v67h75l5 5v503l-90 60v15h274q71 0 125.5 -18t85 -51.5t30.5 -78.5q0 -53 -34.5 -91.5t-97.5 -57.5q78 -17 121.5 -59.5t43.5 -99.5zM250 580v-204h46q58 0 90.5 28t32.5 80q0 96 -119 96h-50zM452 190
q0 54 -35.5 85t-106.5 31h-60v-236h59q66 0 104.5 32t38.5 88z" />
    <glyph glyph-name="C" unicode="C" horiz-adv-x="640" 
d="M45 308q0 113 47 194t125.5 122t172.5 41q91 0 178 -29v-195h-15l-66 115q-25 24 -53.5 35t-70.5 11q-84 0 -131 -72t-47 -202q0 -86 23.5 -149t65.5 -96.5t97 -33.5q75 0 126 49l68 130h15v-195q-39 -22 -93.5 -35t-114.5 -13q-90 0 -164.5 39t-118.5 112t-44 172z" />
    <glyph glyph-name="D" unicode="D" horiz-adv-x="736" 
d="M45 67h75l5 5v503l-90 60v15h280q130 0 215.5 -40.5t126.5 -110t41 -158.5q0 -168 -103 -254.5t-283 -86.5h-267v67zM309 70q121 0 185 66.5t64 198.5q0 111 -65 178t-182 67h-61v-510h59z" />
    <glyph glyph-name="E" unicode="E" horiz-adv-x="610" 
d="M555 202l-3 -202h-507v67h75l5 5v503l-90 60v15h499v-202h-19l-77 132h-188v-206h116l5 5v75h64v-231h-64v76l-5 5h-116v-234h205l81 132h19z" />
    <glyph glyph-name="F" unicode="F" horiz-adv-x="579" 
d="M549 650v-202h-19l-77 132h-203v-223h129l5 5v67h64v-213h-64v66l-5 5h-129v-214l6 -6h100v-67h-311v67h75l5 5v503l-90 60v15h514z" />
    <glyph glyph-name="G" unicode="G" horiz-adv-x="681" 
d="M656 303v-70h-57l-5 -5v-182q-45 -29 -104 -45t-119 -16q-92 0 -166.5 40t-117 114.5t-42.5 173.5q0 106 43.5 185.5t121.5 123t177 43.5q94 0 181 -29v-195h-15l-65 121q-27 19 -54.5 29.5t-65.5 10.5q-89 0 -136 -71t-47 -202q0 -135 52.5 -208t142.5 -73q54 0 89 13
v167l-5 5h-80v70h272z" />
    <glyph glyph-name="H" unicode="H" horiz-adv-x="803" 
d="M678 575v-503l5 -5h75v-67h-285v67h75l5 5v233h-303v-233l5 -5h75v-67h-285v67h75l5 5v503l-90 60v15h305v-15l-90 -60v-200h303v200l-90 60v15h305v-15z" />
    <glyph glyph-name="I" unicode="I" horiz-adv-x="375" 
d="M45 70h75l5 5v500l-90 60v15h305v-15l-90 -60v-500l5 -5h75v-70h-285v70z" />
    <glyph glyph-name="J" unicode="J" horiz-adv-x="370" 
d="M-5 -126q55 41 83 83t37.5 91t9.5 123v404l-90 60v15h305v-15l-90 -60v-419q0 -87 -22.5 -146.5t-73.5 -102t-139 -76.5z" />
    <glyph glyph-name="K" unicode="K" horiz-adv-x="716" 
d="M255 67h75v-67h-285v67h75l5 5v503l-90 60v15h305v-15l-90 -60v-503zM711 67v-67h-183l-263 327l228 248l-90 60v15h281v-15l-95 -60l-197 -212l235 -291l8 -5h76z" />
    <glyph glyph-name="L" unicode="L" horiz-adv-x="580" 
d="M45 67h75l5 5v503l-90 60v15h310v-15l-95 -60v-505h190l76 132h19v-202h-490v67z" />
    <glyph glyph-name="M" unicode="M" horiz-adv-x="932" 
d="M904 67v-67h-285v67h75l5 5l-26 427l-218 -499h-42l-204 506l-27 -434l5 -5h75v-67h-232v67h75l5 5l31 503l-90 60v15h226l183 -451h7l196 451h217v-15l-89 -57l33 -506l5 -5h75z" />
    <glyph glyph-name="N" unicode="N" horiz-adv-x="758" 
d="M733 650v-15l-90 -60v-575h-86l-358 493v-421l5 -5h75v-67h-234v67h75l5 5v503l-90 60v15h209l325 -459v384l-90 60v15h254z" />
    <glyph glyph-name="O" unicode="O" horiz-adv-x="734" 
d="M45 319q0 102 44 180.5t120 122t171 43.5q91 0 161 -40t109 -114.5t39 -175.5q0 -103 -42.5 -182.5t-117.5 -123.5t-170 -44q-92 0 -163 40t-111 115.5t-40 178.5zM549 320q0 86 -22 149.5t-62.5 98t-95.5 34.5q-85 0 -134.5 -71t-49.5 -196q0 -137 49 -212t135 -75
q84 0 132 69t48 203z" />
    <glyph glyph-name="P" unicode="P" horiz-adv-x="612" 
d="M250 248v-176l5 -5h85v-67h-295v67h75l5 5v503l-90 60v15h278q130 0 199.5 -47t69.5 -138q0 -69 -37 -118t-99 -74t-137 -25h-59zM250 580v-262h52q65 0 105.5 38t40.5 100q0 61 -39.5 92.5t-105.5 31.5h-53z" />
    <glyph glyph-name="Q" unicode="Q" horiz-adv-x="734" 
d="M715 -142l-22 -42q-155 50 -261 91.5t-192 88.5q-103 57 -149 134.5t-46 188.5q0 102 44 180.5t120.5 122t170.5 43.5q90 0 160 -40t109.5 -114.5t39.5 -175.5q0 -120 -56.5 -207t-152.5 -122q114 -81 235 -148zM369 48q84 0 132 69t48 203q0 88 -22.5 151.5t-63 97
t-94.5 33.5q-85 0 -134.5 -71t-49.5 -196q0 -137 49 -212t135 -75z" />
    <glyph glyph-name="R" unicode="R" horiz-adv-x="682" 
d="M677 67v-67h-176l-207 275h-44v-203l5 -5h75v-67h-285v67h75l5 5v503l-90 60v15h240q144 0 216 -45t72 -129q0 -63 -39.5 -111.5t-103.5 -71.5l174 -221l8 -5h75zM250 345h30q69 0 110.5 34t41.5 94q0 54 -34.5 80.5t-95.5 26.5h-52v-235z" />
    <glyph glyph-name="S" unicode="S" horiz-adv-x="515" 
d="M52 37v196h17l58 -112q34 -37 66.5 -52.5t70.5 -15.5q47 0 74 21.5t27 62.5q0 35 -30 65t-115 72q-84 42 -125 90t-41 115q0 56 28 98.5t77 65t112 22.5q86 0 162 -42v-188h-15l-75 123q-18 20 -40.5 30t-57.5 10q-37 0 -61.5 -22.5t-24.5 -59.5q0 -24 11.5 -42.5
t40 -39.5t82.5 -49q68 -36 106 -67t54.5 -63.5t16.5 -74.5q0 -55 -26 -99.5t-77 -70t-122 -25.5q-100 0 -193 52z" />
    <glyph glyph-name="T" unicode="T" horiz-adv-x="666" 
d="M191 67h75l5 5v508h-144l-78 -143h-19v213h606v-213h-19l-77 143h-144v-508l5 -5h75v-67h-285v67z" />
    <glyph glyph-name="U" unicode="U" horiz-adv-x="760" 
d="M125 244v331l-90 60v15h305v-15l-90 -60v-327q0 -102 36.5 -151t121.5 -49q83 0 122.5 51t39.5 171v305l-90 60v15h255v-15l-90 -60v-319q0 -138 -62 -204.5t-184 -66.5q-138 0 -206 63.5t-68 195.5z" />
    <glyph glyph-name="V" unicode="V" horiz-adv-x="714" 
d="M85 575l-90 60v15h319v-15l-90 -60l160 -401h4l162 401l-90 60v15h259v-15l-90 -60l-250 -575h-48z" />
    <glyph glyph-name="W" unicode="W" horiz-adv-x="996" 
d="M996 650v-15l-90 -60l-214 -575h-47l-137 384l-158 -384h-46l-219 575l-90 60v15h315v-15l-90 -60l139 -393h4l110 300l-60 168h134l149 -468h4l127 393l-90 60v15h259z" />
    <glyph glyph-name="X" unicode="X" horiz-adv-x="690" 
d="M675 67v-67h-284v67h65l5 5l-145 199l-149 -199l6 -5h65v-67h-221v67h65l6 6l192 247l-185 255l-85 60v15h317v-15l-90 -60l123 -168l122 168l-90 60v15h259v-15l-90 -60l-165 -217l209 -285l5 -6h65z" />
    <glyph glyph-name="Y" unicode="Y" horiz-adv-x="687" 
d="M208 67h75l5 5v170l-208 333l-90 60v15h318v-15l-90 -60l156 -262h4l150 262l-90 60v15h259v-15l-90 -60l-194 -319v-184l5 -5h75v-67h-285v67z" />
    <glyph glyph-name="Z" unicode="Z" horiz-adv-x="559" 
d="M179 67h250l78 145h15v-212h-502v18l345 564h-222l-80 -145h-15v213h481l-2 -18z" />
    <glyph glyph-name="bracketleft" unicode="[" horiz-adv-x="310" 
d="M100 699h200v-45h-95v-839h95v-45h-200v929z" />
    <glyph glyph-name="backslash" unicode="\" horiz-adv-x="420" 
d="M330 -194l-320 914h80l320 -914h-80z" />
    <glyph glyph-name="bracketright" unicode="]" horiz-adv-x="310" 
d="M10 -230v45h95v839h-95v45h200v-929h-200z" />
    <glyph glyph-name="asciicircum" unicode="^" horiz-adv-x="496" 
d="M384 140l-136 236l-136 -236h-82l191 335h54l191 -335h-82z" />
    <glyph glyph-name="underscore" unicode="_" horiz-adv-x="440" 
d="M10 -25h420v-65h-420v65z" />
    <glyph glyph-name="grave" unicode="`" horiz-adv-x="267" 
d="M187 490l-156 170v14h124l87 -184h-55z" />
    <glyph glyph-name="a" unicode="a" horiz-adv-x="433" 
d="M414 64v-64h-165v35q-67 -46 -124 -46q-41 0 -70 24t-29 75q0 61 50.5 99.5t172.5 51.5v18q0 52 -19 77.5t-62 25.5q-47 0 -105 -37l-19 38q74 74 173 74q77 0 112 -43t35 -128v-195l5 -5h45zM249 70v120q-59 -5 -85 -23t-26 -53q0 -27 15.5 -40t41.5 -13q20 0 54 9z" />
    <glyph glyph-name="b" unicode="b" horiz-adv-x="510" 
d="M475 231q0 -75 -34 -129.5t-89 -83t-117 -28.5q-91 0 -166 33v565l-64 40v12l166 80l13 -7v-340q40 33 70 47.5t68 14.5q43 0 78 -26.5t55 -73t20 -104.5zM353 201q0 72 -26.5 110t-71.5 38q-32 0 -71 -9v-250q32 -40 77 -40q46 0 69 39t23 112z" />
    <glyph glyph-name="c" unicode="c" horiz-adv-x="407" 
d="M30 202q0 66 28 119t79.5 83.5t119.5 30.5q57 0 117 -22v-161h-13l-76 102q-28 23 -55 23q-38 0 -58 -35t-20 -102q0 -88 39 -134.5t95 -46.5q24 0 44 5.5t43 18.5l19 -35q-65 -58 -157 -58q-94 0 -149.5 58t-55.5 154z" />
    <glyph glyph-name="d" unicode="d" horiz-adv-x="514" 
d="M491 64v-64h-165v52q-43 -33 -72 -47.5t-64 -14.5q-47 0 -82 27.5t-54 74t-19 103.5q0 68 27.5 122.5t77 86t111.5 31.5q42 0 75 -15v168l-64 40v12l166 80l13 -7v-644l5 -5h45zM326 85v238q-30 52 -78 52q-44 0 -67.5 -38.5t-23.5 -109.5q0 -74 27.5 -112.5t78.5 -38.5
q29 0 63 9z" />
    <glyph glyph-name="e" unicode="e" horiz-adv-x="431" 
d="M383 83l19 -35q-75 -58 -161 -58q-59 0 -107.5 26.5t-76 75.5t-27.5 113t27 116.5t75.5 83t108.5 30.5q76 0 120.5 -46.5t44.5 -121.5q0 -26 -5 -54h-248q5 -73 39.5 -114t95.5 -41q44 0 95 25zM153 265h142q-1 61 -18.5 86.5t-49.5 25.5q-33 0 -52 -28.5t-22 -83.5z" />
    <glyph glyph-name="f" unicode="f" horiz-adv-x="336" 
d="M32 64h45l5 5v281l-5 6h-45v64h45l5 5v32q0 136 48.5 198t147.5 62q44 0 93 -17v-137h-8l-54 59q-17 18 -30 26t-31 8q-26 0 -38.5 -22t-12.5 -73v-136l5 -5h117v-64h-117l-5 -6v-281l5 -5h65v-64h-235v64z" />
    <glyph glyph-name="g" unicode="g" horiz-adv-x="483" 
d="M473 441v-101l-14 -2l-84 26q25 -37 25 -85q0 -49 -26 -86t-69 -56.5t-94 -19.5q-41 0 -74 12q-16 -22 -16 -44q0 -20 17 -30.5t62 -10.5h96q140 0 140 -99q0 -54 -36.5 -95.5t-100.5 -64t-144 -22.5q-77 0 -117 23t-40 65q0 56 72 105q-36 22 -36 66q0 61 69 124
q-29 19 -45.5 49t-16.5 69q0 49 25.5 88t68.5 61t93 22q68 0 117 -38l125 47zM284 268q0 55 -18 87t-48 32q-26 0 -43 -27t-17 -79q0 -54 16.5 -84.5t47.5 -30.5q28 0 45 25t17 77zM107 -58q-16 -26 -16 -53q0 -64 95 -64q61 0 105 20.5t44 55.5q0 21 -18 28t-54 7h-98
q-34 0 -58 6z" />
    <glyph glyph-name="h" unicode="h" horiz-adv-x="532" 
d="M513 64v-64h-215v64h45l5 5v178q0 59 -18 80.5t-62 21.5q-30 0 -77 -12v-268l5 -5h45v-64h-215v64h45l5 5v519l-64 40v12l165 80l14 -7v-336q47 31 80.5 44.5t70.5 13.5q56 0 88.5 -29t32.5 -88v-249l5 -5h45z" />
    <glyph glyph-name="i" unicode="i" horiz-adv-x="261" 
d="M65 584q0 29 20.5 49t49.5 20t49 -20t20 -49t-20 -49.5t-49 -20.5t-49.5 20.5t-20.5 49.5zM31 64h45l5 5v242l-64 40v12l166 79l13 -6v-367l5 -5h45v-64h-215v64z" />
    <glyph glyph-name="j" unicode="j" horiz-adv-x="254" 
d="M64 584q0 29 20.5 49t49.5 20t49 -20t20 -49t-20 -49.5t-49 -20.5t-49.5 20.5t-20.5 49.5zM-22 -197q52 22 74.5 55.5t22.5 99.5v353l-64 40v12l166 79l13 -6v-438q0 -103 -51 -157t-145 -68z" />
    <glyph glyph-name="k" unicode="k" horiz-adv-x="516" 
d="M196 64h45v-64h-215v64h45l5 5v519l-64 40v12l165 80l14 -7v-644zM511 64v-64h-158l-154 224l128 136l-57 56v9h221v-8l-177 -163l135 -190h62z" />
    <glyph glyph-name="l" unicode="l" horiz-adv-x="259" 
d="M26 64h45l5 5v519l-64 40v12l165 80l14 -7v-644l5 -5h45v-64h-215v64z" />
    <glyph glyph-name="m" unicode="m" horiz-adv-x="787" 
d="M768 64v-64h-215v64h45l5 5v178q0 56 -15 79t-48 23q-39 0 -84 -12l-1 2q2 -18 2 -28v-242l5 -5h45v-64h-215v64h45l5 5v178q0 56 -15 79t-49 23q-39 0 -84 -12v-268l5 -5h45v-64h-215v64h45l5 5v243l-64 39v13l150 77l13 -7l12 -59q48 31 80.5 45.5t67.5 14.5
q40 0 67.5 -16.5t40.5 -47.5q52 35 84.5 49.5t70.5 14.5q57 0 87 -32.5t30 -89.5v-244l5 -5h45z" />
    <glyph glyph-name="n" unicode="n" horiz-adv-x="535" 
d="M516 63v-63h-215v64h45l5 5v178q0 59 -18 80.5t-62 21.5q-30 0 -77 -12v-268l5 -5h45v-64h-215v64h45l5 5v243l-64 39v13l150 77l13 -7l12 -59q48 32 82.5 46t72.5 14q56 0 88.5 -29t32.5 -88v-249l5 -6h45z" />
    <glyph glyph-name="o" unicode="o" horiz-adv-x="484" 
d="M30 202q0 66 27.5 119t77 83.5t113.5 30.5q59 0 105.5 -26t73.5 -75.5t27 -115.5q0 -67 -28 -119t-77.5 -80.5t-112.5 -28.5q-61 0 -107.5 26.5t-72.5 74.5t-26 111zM332 179q0 56 -13.5 100.5t-37 69t-53.5 24.5q-35 0 -55.5 -34.5t-20.5 -95.5q0 -56 13.5 -100.5
t37 -69t53.5 -24.5q35 0 55.5 34.5t20.5 95.5z" />
    <glyph glyph-name="p" unicode="p" horiz-adv-x="517" 
d="M482 225q0 -65 -28 -119t-77 -85t-111 -31q-42 0 -75 15v-166l5 -5h60v-64h-230v64h45l5 5v472l-64 39v13l150 77l13 -7l13 -62q42 32 74 48t67 16q44 0 78.5 -26.5t54.5 -74.5t20 -109zM360 198q0 73 -26.5 112t-71.5 39q-32 0 -71 -9v-242q13 -23 33.5 -35.5
t45.5 -12.5q44 0 67 39t23 109z" />
    <glyph glyph-name="q" unicode="q" horiz-adv-x="505" 
d="M491 -166v-64h-230v64h60l5 5v213q-41 -32 -70.5 -47t-63.5 -15q-45 0 -81 26.5t-56 73t-20 103.5q0 71 31 125.5t89.5 85.5t139.5 31q76 0 146 -33v-563l5 -5h45zM326 85v250q-33 40 -78 40t-68 -40t-23 -116q0 -71 27 -107t79 -36q26 0 63 9z" />
    <glyph glyph-name="r" unicode="r" horiz-adv-x="362" 
d="M194 316v-247l5 -5h60v-64h-230v64h45l5 5v242l-64 39v13l150 77l13 -7l13 -72q81 74 132 74q16 0 29 -5v-129q-60 17 -125 17q-11 0 -33 -2z" />
    <glyph glyph-name="s" unicode="s" horiz-adv-x="372" 
d="M40 23v144h13l55 -68q19 -24 42.5 -37.5t47.5 -13.5q26 0 39 11.5t13 30.5q0 21 -15.5 34.5t-51.5 31.5q-19 9 -35 18q-59 34 -83 64.5t-24 75.5q0 56 45 88.5t121 32.5q61 0 118 -21v-135h-13l-58 69q-31 29 -63 29q-22 0 -34.5 -11t-12.5 -28q0 -25 22 -41.5t74 -42.5
q60 -30 86.5 -60.5t26.5 -73.5q0 -61 -43 -95.5t-120 -34.5q-36 0 -78.5 9.5t-71.5 23.5z" />
    <glyph glyph-name="t" unicode="t" horiz-adv-x="337" 
d="M66 121v230l-5 5h-56v13l163 170h13v-119h133v-64h-133v-187q0 -60 12.5 -84t42.5 -24q32 0 74 22l19 -35q-30 -26 -69.5 -42t-80.5 -16q-56 0 -84.5 30.5t-28.5 100.5z" />
    <glyph glyph-name="u" unicode="u" 
d="M500 64v-64h-164v60q-43 -36 -75 -53t-72 -17q-56 0 -85.5 30.5t-29.5 87.5v195l-64 40v12l165 80l14 -7v-257q0 -52 18 -72.5t60 -20.5q34 0 69 10v222l-64 40v12l165 80l14 -7v-366l4 -5h45z" />
    <glyph glyph-name="v" unicode="v" horiz-adv-x="491" 
d="M51 351l-61 55v14h242v-13l-56 -56l92 -215h3l99 215l-56 55v14h187v-13l-61 -56l-173 -361h-46z" />
    <glyph glyph-name="w" unicode="w" horiz-adv-x="709" 
d="M719 420v-13l-64 -56l-155 -361h-44l-84 215l-120 -215h-41l-160 361l-61 55v14h246v-13l-60 -56l87 -215h5l77 139l-48 123l113 33l92 -288h5l78 209l-61 55v13h195z" />
    <glyph glyph-name="x" unicode="x" horiz-adv-x="509" 
d="M502 64v-64h-237v64h40l6 6l-74 89l-83 -91l5 -4h47v-64h-188v64h51l7 6l122 135l-126 151l-65 55v9h253v-8l-58 -56q7 -8 27.5 -32.5t43.5 -53.5l83 86l-57 55v9h197v-8l-62 -56l-126 -129q49 -59 86 -104t49 -59h59z" />
    <glyph glyph-name="y" unicode="y" horiz-adv-x="497" 
d="M20 -190v9l204 173l-169 359l-65 55v14h246v-13l-56 -56l93 -213h6l94 213l-55 55v14h189v-13l-64 -56l-175 -373l-114 -223z" />
    <glyph glyph-name="z" unicode="z" horiz-adv-x="438" 
d="M31 17l218 334v5h-134l-61 -90h-12v154h361v-19l-211 -333v-4h144l58 90h12v-154h-375v17z" />
    <glyph glyph-name="braceleft" unicode="{" horiz-adv-x="312" 
d="M220 572q0 -20 3 -46l11 -90q2 -13 2 -38q0 -106 -83 -152l-18 -10l18 -11q38 -25 58.5 -60.5t20.5 -87.5q0 -19 -3 -42l-12 -90q-3 -23 -3 -41q0 -45 18.5 -64t59.5 -19v-50q-83 0 -132 38t-49 118q0 25 4 46l19 119q4 21 4 42q0 31 -17 46.5t-61 22.5v65q46 7 64 23.5
t18 50.5q0 16 -3 37l-18 119q-4 23 -4 47q0 80 46.5 117.5t128.5 37.5v-50q-39 0 -55.5 -18t-16.5 -60z" />
    <glyph glyph-name="bar" unicode="|" horiz-adv-x="275" 
d="M100 720h75v-950h-75v950z" />
    <glyph glyph-name="braceright" unicode="}" horiz-adv-x="312" 
d="M170 128q0 -16 3 -37l18 -119q4 -23 4 -47q0 -80 -46.5 -117.5t-128.5 -37.5v50q39 0 55.5 18t16.5 60q0 20 -3 46l-11 90q-2 13 -2 38q0 106 83 152l18 10l-18 11q-38 25 -58.5 60.5t-20.5 87.5q0 20 3 42l12 90q3 23 3 41q0 45 -18.5 64t-59.5 19v50q83 0 132 -38
t49 -118q0 -25 -4 -46l-19 -119q-4 -21 -4 -42q0 -31 17 -46.5t61 -22.5v-65q-46 -7 -64 -23.5t-18 -50.5z" />
    <glyph glyph-name="asciitilde" unicode="~" horiz-adv-x="500" 
d="M52 180q56 91 142 91q24 0 45.5 -7.5t49.5 -20.5q29 -13 45 -18.5t33 -5.5q42 0 74 38l55 -44q-28 -36 -58 -55t-72 -19q-24 0 -47 7.5t-57 22.5q-24 11 -39.5 16.5t-29.5 5.5q-26 0 -46.5 -12.5t-42.5 -39.5z" />
    <glyph glyph-name="uni00A0" unicode="&#xa0;" horiz-adv-x="160" 
 />
    <glyph glyph-name="exclamdown" unicode="&#xa1;" horiz-adv-x="290" 
d="M220 360q0 -31 -22 -53t-53 -22t-53 22t-22 53t22 53t53 22t53 -22t22 -53zM230 -230h-170l70 467h30z" />
    <glyph glyph-name="cent" unicode="&#xa2;" horiz-adv-x="390" 
d="M216 67q-11 0 -31 2l-23 -79h-43l25 89q-45 17 -71 54.5t-26 92.5q0 48 22.5 87.5t63.5 63t94 23.5h8l18 63h44l-19 -67q28 -4 51 -12v-133h-14l-42 77l-12 11l-57 -203q24 -19 59 -19q19 0 32 4t34 14l14 -25q-52 -43 -127 -43zM172 178l50 174q-28 -1 -45.5 -25
t-17.5 -74q0 -45 13 -75z" />
    <glyph glyph-name="sterling" unicode="&#xa3;" horiz-adv-x="458" 
d="M426 161v-161h-394v56h54q19 13 31 34t12 45q0 26 -10 51h-81v56h45q-20 27 -30.5 49.5t-10.5 53.5q0 43 26.5 76t74.5 51t109 18q39 0 75 -6t62 -16v-156h-15l-34 46q-31 43 -55 61.5t-54 18.5q-34 0 -55 -24.5t-21 -68.5q0 -22 5 -40t14 -42l8 -21h131v-56h-116
q2 -22 2 -38q0 -23 -12 -46.5t-31 -41.5h187l65 101h18z" />
    <glyph glyph-name="currency" unicode="&#xa4;" horiz-adv-x="485" 
d="M381 240l64 -64l-53 -53l-64 64q-39 -25 -87 -25q-45 0 -85 24l-63 -63l-53 53l62 62q-26 41 -26 88q0 49 26 87l-62 62l53 53l62 -62q40 24 86 24q49 0 87 -26l64 64l53 -53l-64 -64q24 -40 24 -85q0 -46 -24 -86zM335 326q0 41 -27.5 70t-66.5 29t-67 -29t-28 -70
t28 -70t67 -29t66.5 29t27.5 70z" />
    <glyph glyph-name="yen" unicode="&#xa5;" horiz-adv-x="561" 
d="M556 480v-13l-77 -47l-79 -121h77v-60h-117l-16 -25v-16h133v-61h-133v-77l4 -4h60v-56h-244v56h61l4 4v77h-134v61h134v2l-27 39h-104v60h64l-83 121l-74 47v13h278v-13l-78 -47l104 -160h3l95 160l-74 47v13h223z" />
    <glyph glyph-name="brokenbar" unicode="&#xa6;" horiz-adv-x="275" 
d="M100 720h75v-425h-75v425zM100 195h75v-425h-75v425z" />
    <glyph glyph-name="section" unicode="&#xa7;" horiz-adv-x="534" 
d="M445 -17q0 -42 -23 -77t-65.5 -56t-98.5 -21q-40 0 -82 11t-77 29v188h15l60 -102q26 -30 49 -46.5t50 -16.5q28 0 46 15t18 39q0 23 -20.5 42t-82.5 59q-95 61 -133.5 104.5t-38.5 97.5q0 45 28.5 81.5t71.5 56.5q-32 26 -49 55.5t-17 68.5q0 42 23 77t65.5 56t98.5 21
q40 0 82 -11t77 -29v-188h-15l-60 102q-26 30 -49 46.5t-50 16.5q-28 0 -46 -15t-18 -39q0 -23 20.5 -42t82.5 -59q95 -61 133.5 -104.5t38.5 -97.5q0 -45 -28.5 -81t-72.5 -57q33 -26 50 -55t17 -69zM337 138q21 16 30.5 32t9.5 36q0 25 -19.5 43.5t-81.5 58.5l-42 28
l-31 21q-20 -16 -29.5 -32.5t-9.5 -36.5q0 -25 19.5 -43.5t81.5 -58.5l42 -28z" />
    <glyph glyph-name="dieresis" unicode="&#xa8;" horiz-adv-x="373" 
d="M20 584q0 29 20.5 49t49.5 20t49 -20t20 -49t-20 -49.5t-49 -20.5t-49.5 20.5t-20.5 49.5zM220 584q0 29 20.5 49t49.5 20t49 -20t20 -49t-20 -49.5t-49 -20.5t-49.5 20.5t-20.5 49.5z" />
    <glyph glyph-name="copyright" unicode="&#xa9;" horiz-adv-x="810" 
d="M50 325q0 96 48 175t129.5 124.5t177.5 45.5t177.5 -45.5t129.5 -124.5t48 -175t-48 -175t-129.5 -124.5t-177.5 -45.5t-177.5 45.5t-129.5 124.5t-48 175zM685 329q0 78 -37.5 142t-101.5 101t-140 37t-140.5 -37t-102 -101t-37.5 -142t37.5 -142t102 -100.5
t140.5 -36.5t140 36.5t101.5 100.5t37.5 142zM228 329q0 60 27 104t73 66.5t101 22.5q51 0 102 -12v-123h-12l-32 42q-20 26 -36 38.5t-37 12.5q-37 0 -56 -36t-19 -106q0 -66 22 -105.5t64 -39.5q23 0 39 15t40 54l20 32h15v-115q-50 -28 -126 -28q-51 0 -93.5 22.5t-67 63
t-24.5 92.5z" />
    <glyph glyph-name="ordfeminine" unicode="&#xaa;" horiz-adv-x="304" 
d="M309 413v-48h-127v24q-49 -32 -91 -32q-30 0 -51.5 16.5t-21.5 53.5q0 43 35 71.5t129 39.5v10q0 70 -59 70q-35 0 -76 -26l-15 29q55 54 131 54q60 0 85.5 -31.5t25.5 -95.5v-131l4 -4h31zM182 416v85q-42 -4 -58 -16.5t-16 -34.5q-1 -20 10 -29.5t31 -9.5q11 0 33 5z
" />
    <glyph glyph-name="guillemotleft" unicode="&#xab;" horiz-adv-x="491" 
d="M25 197v11l157 152h75l-112 -158l112 -158h-75zM214 197v11l157 152h75l-112 -158l112 -158h-75z" />
    <glyph glyph-name="logicalnot" unicode="&#xac;" horiz-adv-x="560" 
d="M424 168h-363v75h438v-243h-75v168z" />
    <glyph glyph-name="uni00AD" unicode="&#xad;" horiz-adv-x="325" 
d="M40 253h245v-90h-245v90z" />
    <glyph glyph-name="registered" unicode="&#xae;" horiz-adv-x="640" 
d="M595 394q0 -73 -37 -135t-100.5 -98.5t-137.5 -36.5t-137.5 36.5t-100.5 98.5t-37 135t37 135.5t100.5 99t137.5 36.5t137.5 -36.5t100.5 -99t37 -135.5zM535 394q0 58 -29 108t-78.5 79t-107.5 29t-107.5 -29t-78.5 -79t-29 -108t29 -107.5t78.5 -78.5t107.5 -29
t107.5 29t78.5 78.5t29 107.5zM437 317h33v-42h-95l-54 92h-22v-48l2 -2h30v-42h-142v42h30l2 2v166l-40 31v9h121q65 0 96 -19.5t31 -54.5q0 -20 -10.5 -37t-28.5 -27l44 -68zM299 409h13q17 0 28.5 10.5t11.5 29.5q0 15 -9 23.5t-31 8.5h-13v-72z" />
    <glyph glyph-name="macron" unicode="&#xaf;" horiz-adv-x="304" 
d="M20 619h264v-78h-264v78z" />
    <glyph glyph-name="degree" unicode="&#xb0;" horiz-adv-x="296" 
d="M20 537q0 35 17.5 64.5t47 46.5t63.5 17q53 0 90.5 -37.5t37.5 -90.5t-37.5 -90.5t-90.5 -37.5q-34 0 -63.5 17t-47 46.5t-17.5 64.5zM210 537q0 26 -18 45t-43 19t-43.5 -19t-18.5 -45t18.5 -44.5t43.5 -18.5t43 18.5t18 44.5z" />
    <glyph glyph-name="plusminus" unicode="&#xb1;" horiz-adv-x="560" 
d="M480 374v-75h-162v-164h-75v164h-163v75h163v161h75v-161h162zM80 75h400v-75h-400v75z" />
    <glyph glyph-name="uni00B2" unicode="&#xb2;" horiz-adv-x="358" 
d="M339 518v-153h-328v46l110 109q46 46 64.5 83.5t18.5 79.5q0 36 -13.5 53.5t-36.5 17.5q-20 0 -34.5 -12.5t-38.5 -47.5l-35 -52h-15v128q54 32 126 32q76 0 116.5 -31.5t40.5 -78.5q0 -50 -29.5 -92.5t-111.5 -106.5l-72 -56h179l3 4v77h56z" />
    <glyph glyph-name="uni00B3" unicode="&#xb3;" horiz-adv-x="344" 
d="M330 486q0 -58 -46 -94.5t-114 -36.5q-44 0 -73.5 6.5t-59.5 20.5v124h12l12 -17q35 -51 57.5 -69t48.5 -18q22 0 37.5 20.5t15.5 51.5q0 91 -82 91h-33v53h34q34 0 50.5 20.5t16.5 56.5q0 26 -11 43t-32 17q-18 0 -34 -12t-40 -47l-32 -49h-13v121q46 34 126 34
q67 0 107 -27t40 -69q0 -38 -25.5 -64.5t-77.5 -43.5q55 -8 85.5 -37t30.5 -75z" />
    <glyph glyph-name="acute" unicode="&#xb4;" horiz-adv-x="267" 
d="M137 674h124v-14l-156 -170h-55z" />
    <glyph glyph-name="uni00B5" unicode="&#xb5;" 
d="M500 64v-64h-164v61q-45 -37 -77.5 -54t-68.5 -17q-21 0 -39 5l51 -225h-128v533l-64 40v12l165 80l14 -7v-257q0 -52 18 -72.5t60 -20.5q34 0 69 10v222l-64 40v12l165 80l14 -7v-366l4 -5h45z" />
    <glyph glyph-name="paragraph" unicode="&#xb6;" horiz-adv-x="652" 
d="M617 650v-15l-95 -60v-805h-65v810h-45v-810h-65v488h-47q-74 0 -134.5 25t-95.5 71.5t-35 110.5q0 93 69 139t200 46h313z" />
    <glyph glyph-name="periodcentered" unicode="&#xb7;" horiz-adv-x="260" 
d="M55 223q0 31 22 53t53 22t53 -22t22 -53t-22 -53t-53 -22t-53 22t-22 53z" />
    <glyph glyph-name="cedilla" unicode="&#xb8;" horiz-adv-x="227" 
d="M216 -134q0 -41 -32 -68.5t-78 -27.5q-50 0 -96 36l14 26q25 -14 47 -14q24 0 40.5 10t16.5 29q0 20 -14 30t-39 10q-15 0 -33 -2l46 119h53l-30 -76q6 1 21 1q37 0 60.5 -21t23.5 -52z" />
    <glyph glyph-name="uni00B9" unicode="&#xb9;" horiz-adv-x="254" 
d="M15 418h64l3 3v315l-3 3h-60v53h165v-371l3 -3h65v-53h-237v53z" />
    <glyph glyph-name="ordmasculine" unicode="&#xba;" horiz-adv-x="338" 
d="M21 508q0 48 21 86t58 59.5t84 21.5q67 0 110 -42t43 -113q0 -73 -45.5 -117.5t-117.5 -44.5q-68 0 -110.5 41.5t-42.5 108.5zM240 490q0 61 -20 99t-52 38q-24 0 -37 -23t-13 -64q0 -61 20.5 -99t51.5 -38q24 0 37 23t13 64z" />
    <glyph glyph-name="guillemotright" unicode="&#xbb;" horiz-adv-x="491" 
d="M157 202l-112 158h75l157 -153v-11l-157 -152h-75zM346 202l-112 158h75l157 -153v-11l-157 -152h-75z" />
    <glyph glyph-name="onequarter" unicode="&#xbc;" horiz-adv-x="901" 
d="M53 296h64l3 3v315l-3 3h-60v53h165v-371l3 -3h65v-53h-237v53zM545 683h80l-333 -721h-80zM870 183v-3l-12 -63h-94v-61l4 -3h56v-53h-223v53h56l3 3v61h-192v37l210 287h86v-258h106zM660 183v168l-122 -168h122z" />
    <glyph glyph-name="onehalf" unicode="&#xbd;" horiz-adv-x="901" 
d="M54 296h64l3 3v315l-3 3h-60v53h165v-371l3 -3h65v-53h-237v53zM536 683h80l-333 -721h-80zM855 153v-153h-328v46l110 109q46 46 64.5 83.5t18.5 79.5q0 36 -13.5 53.5t-36.5 17.5q-20 0 -34.5 -12.5t-38.5 -47.5l-35 -52h-15v128q54 32 126 32q76 0 116.5 -31.5
t40.5 -78.5q0 -50 -29.5 -92.5t-111.5 -106.5l-72 -56h179l3 4v77h56z" />
    <glyph glyph-name="threequarters" unicode="&#xbe;" horiz-adv-x="901" 
d="M345 364q0 -58 -46 -94.5t-114 -36.5q-44 0 -73.5 6.5t-59.5 20.5v124h12l12 -17q35 -51 57.5 -69t48.5 -18q22 0 37.5 20.5t15.5 51.5q0 91 -82 91h-33v53h34q34 0 50.5 20.5t16.5 56.5q0 26 -11 43t-32 17q-18 0 -34 -12t-40 -47l-32 -49h-13v121q46 34 126 34
q67 0 107 -27t40 -69q0 -38 -25.5 -64.5t-77.5 -43.5q55 -8 85.5 -37t30.5 -75zM557 683h80l-333 -721h-80zM876 183v-3l-12 -63h-94v-61l4 -3h56v-53h-223v53h56l3 3v61h-192v37l210 287h86v-258h106zM666 183v168l-122 -168h122z" />
    <glyph glyph-name="questiondown" unicode="&#xbf;" horiz-adv-x="447" 
d="M168 365q0 31 22 53t53 22t53 -22t22 -53t-22 -53t-53 -22t-53 22t-22 53zM421 -130q-37 -54 -88 -82t-124 -28q-88 0 -141 42t-53 112q0 64 46.5 115t139.5 87l25 127h31l28 -132q-73 -41 -106.5 -85.5t-33.5 -104.5q0 -44 22.5 -72.5t59.5 -28.5q39 0 67 27.5t42 83.5z
" />
    <glyph glyph-name="Agrave" unicode="&#xc0;" horiz-adv-x="679" 
d="M669 67v-67h-259v67h60l5 5l-45 106h-241l-41 -106l5 -5h60v-67h-203v67h55l5 5l239 578h53l249 -578l5 -5h53zM402 246l-95 224h-5l-87 -224h187zM141 835v7h146l112 -134h-57z" />
    <glyph glyph-name="Aacute" unicode="&#xc1;" horiz-adv-x="679" 
d="M669 67v-67h-259v67h60l5 5l-45 106h-241l-41 -106l5 -5h60v-67h-203v67h55l5 5l239 578h53l249 -578l5 -5h53zM402 246l-95 224h-5l-87 -224h187zM390 842h146v-7l-201 -127h-57z" />
    <glyph glyph-name="Acircumflex" unicode="&#xc2;" horiz-adv-x="679" 
d="M669 67v-67h-259v67h60l5 5l-45 106h-241l-41 -106l5 -5h60v-67h-203v67h55l5 5l239 578h53l249 -578l5 -5h53zM402 246l-95 224h-5l-87 -224h187zM301 842h72l124 -134h-57l-103 58l-103 -58h-57z" />
    <glyph glyph-name="Atilde" unicode="&#xc3;" horiz-adv-x="679" 
d="M669 67v-67h-259v67h60l5 5l-45 106h-241l-41 -106l5 -5h60v-67h-203v67h55l5 5l239 578h53l249 -578l5 -5h53zM402 246l-95 224h-5l-87 -224h187zM349 735q-19 11 -33.5 17t-30.5 6q-17 0 -30 -11t-19 -29l-31 18q8 47 33.5 77t60.5 30q21 0 37 -6.5t37 -19.5
q19 -11 31 -16t25 -5q33 0 45 30l32 -16q-12 -45 -33.5 -72t-53.5 -27q-18 0 -34 6t-36 18z" />
    <glyph glyph-name="Adieresis" unicode="&#xc4;" horiz-adv-x="679" 
d="M669 67v-67h-259v67h60l5 5l-45 106h-241l-41 -106l5 -5h60v-67h-203v67h55l5 5l239 578h53l249 -578l5 -5h53zM402 246l-95 224h-5l-87 -224h187zM173 776q0 27 19.5 46.5t46.5 19.5q28 0 47.5 -19.5t19.5 -46.5q0 -28 -19.5 -47.5t-47.5 -19.5q-27 0 -46.5 19.5
t-19.5 47.5zM366 776q0 27 19.5 46.5t46.5 19.5q28 0 47.5 -19.5t19.5 -46.5q0 -28 -19.5 -47.5t-47.5 -19.5q-27 0 -46.5 19.5t-19.5 47.5z" />
    <glyph glyph-name="Aring" unicode="&#xc5;" horiz-adv-x="679" 
d="M669 67v-67h-259v67h60l5 5l-45 106h-241l-41 -106l5 -5h60v-67h-203v67h55l5 5l239 578h53l249 -578l5 -5h53zM402 246l-95 224h-5l-87 -224h187zM223 775q0 42 32 67t81 25q47 0 77.5 -23t31.5 -61q0 -41 -32 -66t-83 -25q-47 0 -77 22.5t-30 60.5zM372 773
q0 24 -11 39t-30 15q-17 0 -26.5 -11.5t-9.5 -29.5q0 -24 11 -39t31 -15q16 0 25.5 10.5t9.5 30.5z" />
    <glyph glyph-name="AE" unicode="&#xc6;" horiz-adv-x="915" 
d="M860 202l-3 -202h-507v67h75l5 5v212h-165l-113 -212l5 -5h60v-67h-203v67h55l5 5l263 512l-77 51v15h579v-202h-19l-77 132h-188v-226h116l5 5v75h64v-231h-64v76l-5 5h-116v-214h205l81 132h19zM430 354v226h-7l-121 -226h128z" />
    <glyph glyph-name="Ccedilla" unicode="&#xc7;" horiz-adv-x="640" 
d="M379 -15l-18 -47q6 1 21 1q37 0 60.5 -21t23.5 -52q0 -41 -32 -68.5t-78 -27.5q-50 0 -96 36l14 26q25 -14 47 -14q24 0 40.5 10t16.5 29q0 20 -14 30t-39 10q-15 0 -33 -2l36 93q-80 9 -144.5 50t-101.5 110t-37 160q0 113 47 194t125.5 122t172.5 41q91 0 178 -29v-195
h-15l-66 115q-25 24 -53.5 35t-70.5 11q-84 0 -131 -72t-47 -202q0 -86 23.5 -149t65.5 -96.5t97 -33.5q75 0 126 49l68 130h15v-195q-38 -22 -90.5 -34.5t-110.5 -13.5z" />
    <glyph glyph-name="Egrave" unicode="&#xc8;" horiz-adv-x="610" 
d="M555 202l-3 -202h-507v67h75l5 5v503l-90 60v15h499v-202h-19l-77 132h-188v-206h116l5 5v75h64v-231h-64v76l-5 5h-116v-234h205l81 132h19zM124 835v7h146l112 -134h-57z" />
    <glyph glyph-name="Eacute" unicode="&#xc9;" horiz-adv-x="610" 
d="M555 202l-3 -202h-507v67h75l5 5v503l-90 60v15h499v-202h-19l-77 132h-188v-206h116l5 5v75h64v-231h-64v76l-5 5h-116v-234h205l81 132h19zM352 842h146v-7l-201 -127h-57z" />
    <glyph glyph-name="Ecircumflex" unicode="&#xca;" horiz-adv-x="610" 
d="M555 202l-3 -202h-507v67h75l5 5v503l-90 60v15h499v-202h-19l-77 132h-188v-206h116l5 5v75h64v-231h-64v76l-5 5h-116v-234h205l81 132h19zM295 842h72l124 -134h-57l-103 58l-103 -58h-57z" />
    <glyph glyph-name="Edieresis" unicode="&#xcb;" horiz-adv-x="610" 
d="M555 202l-3 -202h-507v67h75l5 5v503l-90 60v15h499v-202h-19l-77 132h-188v-206h116l5 5v75h64v-231h-64v76l-5 5h-116v-234h205l81 132h19zM158 776q0 27 19.5 46.5t46.5 19.5q28 0 47.5 -19.5t19.5 -46.5q0 -28 -19.5 -47.5t-47.5 -19.5q-27 0 -46.5 19.5t-19.5 47.5z
M351 776q0 27 19.5 46.5t46.5 19.5q28 0 47.5 -19.5t19.5 -46.5q0 -28 -19.5 -47.5t-47.5 -19.5q-27 0 -46.5 19.5t-19.5 47.5z" />
    <glyph glyph-name="Igrave" unicode="&#xcc;" horiz-adv-x="375" 
d="M45 70h75l5 5v500l-90 60v15h305v-15l-90 -60v-500l5 -5h75v-70h-285v70zM59 835v7h146l112 -134h-57z" />
    <glyph glyph-name="Iacute" unicode="&#xcd;" horiz-adv-x="375" 
d="M45 70h75l5 5v500l-90 60v15h305v-15l-90 -60v-500l5 -5h75v-70h-285v70zM207 842h146v-7l-201 -127h-57z" />
    <glyph glyph-name="Icircumflex" unicode="&#xce;" horiz-adv-x="375" 
d="M45 70h75l5 5v500l-90 60v15h305v-15l-90 -60v-500l5 -5h75v-70h-285v70zM158 842h72l124 -134h-57l-103 58l-103 -58h-57z" />
    <glyph glyph-name="Idieresis" unicode="&#xcf;" horiz-adv-x="375" 
d="M45 70h75l5 5v500l-90 60v15h305v-15l-90 -60v-500l5 -5h75v-70h-285v70zM30 776q0 27 19.5 46.5t46.5 19.5q28 0 47.5 -19.5t19.5 -46.5q0 -28 -19.5 -47.5t-47.5 -19.5q-27 0 -46.5 19.5t-19.5 47.5zM223 776q0 27 19.5 46.5t46.5 19.5q28 0 47.5 -19.5t19.5 -46.5
q0 -28 -19.5 -47.5t-47.5 -19.5q-27 0 -46.5 19.5t-19.5 47.5z" />
    <glyph glyph-name="Eth" unicode="&#xd0;" horiz-adv-x="731" 
d="M693 341q0 -172 -103 -256.5t-278 -84.5h-267v67h75l5 5v223h-80v70h80v210l-90 60v15h280q128 0 212.5 -40.5t125 -110t40.5 -158.5zM558 335q0 111 -65 178t-182 67h-61v-215h147v-70h-147v-225h59q121 0 185 66.5t64 198.5z" />
    <glyph glyph-name="Ntilde" unicode="&#xd1;" horiz-adv-x="758" 
d="M733 650v-15l-90 -60v-575h-86l-358 493v-421l5 -5h75v-67h-234v67h75l5 5v503l-90 60v15h209l325 -459v384l-90 60v15h254zM400 735q-19 11 -33.5 17t-30.5 6q-17 0 -30 -11t-19 -29l-31 18q8 47 33.5 77t60.5 30q21 0 37 -6.5t37 -19.5q19 -11 31 -16t25 -5q33 0 45 30
l32 -16q-12 -45 -33.5 -72t-53.5 -27q-18 0 -34 6t-36 18z" />
    <glyph glyph-name="Ograve" unicode="&#xd2;" horiz-adv-x="734" 
d="M45 319q0 102 44 180.5t120 122t171 43.5q91 0 161 -40t109 -114.5t39 -175.5q0 -103 -42.5 -182.5t-117.5 -123.5t-170 -44q-92 0 -163 40t-111 115.5t-40 178.5zM549 320q0 86 -22 149.5t-62.5 98t-95.5 34.5q-85 0 -134.5 -71t-49.5 -196q0 -137 49 -212t135 -75
q84 0 132 69t48 203zM258 835v7h146l112 -134h-57z" />
    <glyph glyph-name="Oacute" unicode="&#xd3;" horiz-adv-x="734" 
d="M45 319q0 102 44 180.5t120 122t171 43.5q91 0 161 -40t109 -114.5t39 -175.5q0 -103 -42.5 -182.5t-117.5 -123.5t-170 -44q-92 0 -163 40t-111 115.5t-40 178.5zM549 320q0 86 -22 149.5t-62.5 98t-95.5 34.5q-85 0 -134.5 -71t-49.5 -196q0 -137 49 -212t135 -75
q84 0 132 69t48 203zM386 842h146v-7l-201 -127h-57z" />
    <glyph glyph-name="Ocircumflex" unicode="&#xd4;" horiz-adv-x="734" 
d="M45 319q0 102 44 180.5t120 122t171 43.5q91 0 161 -40t109 -114.5t39 -175.5q0 -103 -42.5 -182.5t-117.5 -123.5t-170 -44q-92 0 -163 40t-111 115.5t-40 178.5zM549 320q0 86 -22 149.5t-62.5 98t-95.5 34.5q-85 0 -134.5 -71t-49.5 -196q0 -137 49 -212t135 -75
q84 0 132 69t48 203zM337 842h72l124 -134h-57l-103 58l-103 -58h-57z" />
    <glyph glyph-name="Otilde" unicode="&#xd5;" horiz-adv-x="734" 
d="M45 319q0 102 44 180.5t120 122t171 43.5q91 0 161 -40t109 -114.5t39 -175.5q0 -103 -42.5 -182.5t-117.5 -123.5t-170 -44q-92 0 -163 40t-111 115.5t-40 178.5zM549 320q0 86 -22 149.5t-62.5 98t-95.5 34.5q-85 0 -134.5 -71t-49.5 -196q0 -137 49 -212t135 -75
q84 0 132 69t48 203zM375 735q-19 11 -33.5 17t-30.5 6q-17 0 -30 -11t-19 -29l-31 18q8 47 33.5 77t60.5 30q21 0 37 -6.5t37 -19.5q19 -11 31 -16t25 -5q33 0 45 30l32 -16q-12 -45 -33.5 -72t-53.5 -27q-18 0 -34 6t-36 18z" />
    <glyph glyph-name="Odieresis" unicode="&#xd6;" horiz-adv-x="734" 
d="M45 319q0 102 44 180.5t120 122t171 43.5q91 0 161 -40t109 -114.5t39 -175.5q0 -103 -42.5 -182.5t-117.5 -123.5t-170 -44q-92 0 -163 40t-111 115.5t-40 178.5zM549 320q0 86 -22 149.5t-62.5 98t-95.5 34.5q-85 0 -134.5 -71t-49.5 -196q0 -137 49 -212t135 -75
q84 0 132 69t48 203zM209 776q0 27 19.5 46.5t46.5 19.5q28 0 47.5 -19.5t19.5 -46.5q0 -28 -19.5 -47.5t-47.5 -19.5q-27 0 -46.5 19.5t-19.5 47.5zM402 776q0 27 19.5 46.5t46.5 19.5q28 0 47.5 -19.5t19.5 -46.5q0 -28 -19.5 -47.5t-47.5 -19.5q-27 0 -46.5 19.5
t-19.5 47.5z" />
    <glyph glyph-name="multiply" unicode="&#xd7;" horiz-adv-x="560" 
d="M395 54l-116 116l-115 -115l-53 53l115 115l-114 114l53 53l114 -114l115 115l53 -53l-115 -115l116 -116z" />
    <glyph glyph-name="Oslash" unicode="&#xd8;" horiz-adv-x="735" 
d="M618 561q72 -88 72 -226q0 -103 -42.5 -182.5t-117.5 -123.5t-170 -44q-112 0 -191 58l-37 -43h-92l79 91q-73 89 -73 228q0 102 44 180.5t120 122t171 43.5q109 0 185 -55l35 40h94zM205 191l293 340q-48 71 -128 71q-85 0 -134.5 -71t-49.5 -196q0 -86 19 -144z
M531 461l-294 -340q47 -73 133 -73q84 0 132 69t48 203q0 78 -19 141z" />
    <glyph glyph-name="Ugrave" unicode="&#xd9;" horiz-adv-x="760" 
d="M125 244v331l-90 60v15h305v-15l-90 -60v-327q0 -102 36.5 -151t121.5 -49q83 0 122.5 51t39.5 171v305l-90 60v15h255v-15l-90 -60v-319q0 -138 -62 -204.5t-184 -66.5q-138 0 -206 63.5t-68 195.5zM237 835v7h146l112 -134h-57z" />
    <glyph glyph-name="Uacute" unicode="&#xda;" horiz-adv-x="760" 
d="M125 244v331l-90 60v15h305v-15l-90 -60v-327q0 -102 36.5 -151t121.5 -49q83 0 122.5 51t39.5 171v305l-90 60v15h255v-15l-90 -60v-319q0 -138 -62 -204.5t-184 -66.5q-138 0 -206 63.5t-68 195.5zM460 842h146v-7l-201 -127h-57z" />
    <glyph glyph-name="Ucircumflex" unicode="&#xdb;" horiz-adv-x="760" 
d="M125 244v331l-90 60v15h305v-15l-90 -60v-327q0 -102 36.5 -151t121.5 -49q83 0 122.5 51t39.5 171v305l-90 60v15h255v-15l-90 -60v-319q0 -138 -62 -204.5t-184 -66.5q-138 0 -206 63.5t-68 195.5zM366 842h72l124 -134h-57l-103 58l-103 -58h-57z" />
    <glyph glyph-name="Udieresis" unicode="&#xdc;" horiz-adv-x="760" 
d="M125 244v331l-90 60v15h305v-15l-90 -60v-327q0 -102 36.5 -151t121.5 -49q83 0 122.5 51t39.5 171v305l-90 60v15h255v-15l-90 -60v-319q0 -138 -62 -204.5t-184 -66.5q-138 0 -206 63.5t-68 195.5zM238 776q0 27 19.5 46.5t46.5 19.5q28 0 47.5 -19.5t19.5 -46.5
q0 -28 -19.5 -47.5t-47.5 -19.5q-27 0 -46.5 19.5t-19.5 47.5zM431 776q0 27 19.5 46.5t46.5 19.5q28 0 47.5 -19.5t19.5 -46.5q0 -28 -19.5 -47.5t-47.5 -19.5q-27 0 -46.5 19.5t-19.5 47.5z" />
    <glyph glyph-name="Yacute" unicode="&#xdd;" horiz-adv-x="687" 
d="M208 67h75l5 5v170l-208 333l-90 60v15h318v-15l-90 -60l156 -262h4l150 262l-90 60v15h259v-15l-90 -60l-194 -319v-184l5 -5h75v-67h-285v67zM408 842h146v-7l-201 -127h-57z" />
    <glyph glyph-name="Thorn" unicode="&#xde;" horiz-adv-x="622" 
d="M255 139v-67l5 -5h75v-67h-285v67h75l5 5v503l-90 60v15h305v-15l-90 -60v-44h58q131 0 200 -44.5t69 -135.5q0 -66 -35.5 -114t-96 -73t-133.5 -25h-62zM255 461v-252h52q65 0 103 35.5t38 95.5q0 61 -41 91t-108 30h-44z" />
    <glyph glyph-name="germandbls" unicode="&#xdf;" horiz-adv-x="573" 
d="M268 15v135h12l55 -69q21 -19 36 -27t33 -8t29 12t11 34q0 27 -21.5 46.5t-65.5 43.5q-47 26 -71 54t-24 72q0 34 11.5 57.5t29 40t53.5 43.5q43 33 43 86q0 48 -28 79t-70 31q-55 0 -79.5 -49.5t-24.5 -155.5v-440h-165v64h45l5 5v281l-5 6h-45v64h45l5 5
q0 140 58.5 210.5t166.5 70.5q56 0 98.5 -20t66 -54t23.5 -76q0 -35 -14.5 -63t-44.5 -54l-21 -17q-27 -20 -39.5 -36.5t-12.5 -45.5q0 -19 10.5 -32.5t26 -24t62.5 -37.5q40 -23 63 -52.5t23 -73.5q0 -58 -43.5 -94t-114.5 -36q-29 0 -57.5 6.5t-64.5 18.5z" />
    <glyph glyph-name="agrave" unicode="&#xe0;" horiz-adv-x="433" 
d="M414 64v-64h-165v35q-67 -46 -124 -46q-41 0 -70 24t-29 75q0 61 50.5 99.5t172.5 51.5v18q0 52 -19 77.5t-62 25.5q-47 0 -105 -37l-19 38q74 74 173 74q77 0 112 -43t35 -128v-195l5 -5h45zM249 70v120q-59 -5 -85 -23t-26 -53q0 -27 15.5 -40t41.5 -13q20 0 54 9z
M268 490l-156 170v14h124l87 -184h-55z" />
    <glyph glyph-name="aacute" unicode="&#xe1;" horiz-adv-x="433" 
d="M414 64v-64h-165v35q-67 -46 -124 -46q-41 0 -70 24t-29 75q0 61 50.5 99.5t172.5 51.5v18q0 52 -19 77.5t-62 25.5q-47 0 -105 -37l-19 38q74 74 173 74q77 0 112 -43t35 -128v-195l5 -5h45zM249 70v120q-59 -5 -85 -23t-26 -53q0 -27 15.5 -40t41.5 -13q20 0 54 9z
M228 674h124v-14l-156 -170h-55z" />
    <glyph glyph-name="acircumflex" unicode="&#xe2;" horiz-adv-x="433" 
d="M414 64v-64h-165v35q-67 -46 -124 -46q-41 0 -70 24t-29 75q0 61 50.5 99.5t172.5 51.5v18q0 52 -19 77.5t-62 25.5q-47 0 -105 -37l-19 38q74 74 173 74q77 0 112 -43t35 -128v-195l5 -5h45zM249 70v120q-59 -5 -85 -23t-26 -53q0 -27 15.5 -40t41.5 -13q20 0 54 9z
M314 490l-98 90l-103 -90h-55l127 184h68l116 -184h-55z" />
    <glyph glyph-name="atilde" unicode="&#xe3;" horiz-adv-x="433" 
d="M414 64v-64h-165v35q-67 -46 -124 -46q-41 0 -70 24t-29 75q0 61 50.5 99.5t172.5 51.5v18q0 52 -19 77.5t-62 25.5q-47 0 -105 -37l-19 38q74 74 173 74q77 0 112 -43t35 -128v-195l5 -5h45zM249 70v120q-59 -5 -85 -23t-26 -53q0 -27 15.5 -40t41.5 -13q20 0 54 9z
M197 543q-19 11 -33.5 17t-30.5 6q-17 0 -30 -11t-19 -29l-31 18q8 47 33.5 77t60.5 30q21 0 37 -6.5t37 -19.5q19 -11 31 -16t25 -5q33 0 45 30l32 -16q-12 -45 -33.5 -72t-53.5 -27q-18 0 -34 6t-36 18z" />
    <glyph glyph-name="adieresis" unicode="&#xe4;" horiz-adv-x="433" 
d="M414 64v-64h-165v35q-67 -46 -124 -46q-41 0 -70 24t-29 75q0 61 50.5 99.5t172.5 51.5v18q0 52 -19 77.5t-62 25.5q-47 0 -105 -37l-19 38q74 74 173 74q77 0 112 -43t35 -128v-195l5 -5h45zM249 70v120q-59 -5 -85 -23t-26 -53q0 -27 15.5 -40t41.5 -13q20 0 54 9z
M44 584q0 29 20.5 49t49.5 20t49 -20t20 -49t-20 -49.5t-49 -20.5t-49.5 20.5t-20.5 49.5zM244 584q0 29 20.5 49t49.5 20t49 -20t20 -49t-20 -49.5t-49 -20.5t-49.5 20.5t-20.5 49.5z" />
    <glyph glyph-name="aring" unicode="&#xe5;" horiz-adv-x="433" 
d="M414 64v-64h-165v35q-67 -46 -124 -46q-41 0 -70 24t-29 75q0 61 50.5 99.5t172.5 51.5v18q0 52 -19 77.5t-62 25.5q-47 0 -105 -37l-19 38q74 74 173 74q77 0 112 -43t35 -128v-195l5 -5h45zM249 70v120q-59 -5 -85 -23t-26 -53q0 -27 15.5 -40t41.5 -13q20 0 54 9z
M97 571q0 46 33 72.5t84 26.5q48 0 80 -25.5t33 -65.5q0 -43 -33.5 -71.5t-85.5 -28.5q-48 0 -79.5 26t-31.5 66zM254 569q0 26 -12 43.5t-33 17.5q-19 0 -29.5 -14t-10.5 -34q0 -27 12 -45t34 -18q17 0 28 13.5t11 36.5z" />
    <glyph glyph-name="ae" unicode="&#xe6;" horiz-adv-x="649" 
d="M601 83l19 -35q-75 -58 -161 -58q-49 0 -90 18t-70 51q-89 -69 -166 -69q-49 0 -78 27.5t-29 77.5q0 63 53 101t170 51v10q0 52 -19 77.5t-62 25.5q-47 0 -105 -37l-19 38q74 74 173 74q78 0 114 -45q53 45 128 45q76 0 120.5 -46.5t44.5 -121.5q0 -26 -5 -54h-248
q5 -73 39.5 -114t95.5 -41q44 0 95 25zM371 265h142q-1 61 -18.5 86.5t-49.5 25.5q-33 0 -52 -28.5t-22 -83.5zM282 81q-33 51 -34 120q-110 -12 -110 -86q0 -27 14 -42.5t42 -15.5q36 0 88 24z" />
    <glyph glyph-name="ccedilla" unicode="&#xe7;" horiz-adv-x="407" 
d="M351 -134q0 -41 -32 -68.5t-78 -27.5q-50 0 -96 36l14 26q25 -14 47 -14q24 0 40.5 10t16.5 29q0 20 -14 30t-39 10q-15 0 -33 -2l37 96q-85 7 -134.5 63.5t-49.5 147.5q0 66 28 119t79.5 83.5t119.5 30.5q57 0 117 -22v-161h-13l-76 102q-28 23 -55 23q-38 0 -58 -35
t-20 -102q0 -88 39 -134.5t95 -46.5q24 0 44 5.5t43 18.5l19 -35q-55 -48 -125 -56l-21 -54q6 1 21 1q37 0 60.5 -21t23.5 -52z" />
    <glyph glyph-name="egrave" unicode="&#xe8;" horiz-adv-x="431" 
d="M383 83l19 -35q-75 -58 -161 -58q-59 0 -107.5 26.5t-76 75.5t-27.5 113t27 116.5t75.5 83t108.5 30.5q76 0 120.5 -46.5t44.5 -121.5q0 -26 -5 -54h-248q5 -73 39.5 -114t95.5 -41q44 0 95 25zM153 265h142q-1 61 -18.5 86.5t-49.5 25.5q-33 0 -52 -28.5t-22 -83.5z
M272 490l-156 170v14h124l87 -184h-55z" />
    <glyph glyph-name="eacute" unicode="&#xe9;" horiz-adv-x="431" 
d="M383 83l19 -35q-75 -58 -161 -58q-59 0 -107.5 26.5t-76 75.5t-27.5 113t27 116.5t75.5 83t108.5 30.5q76 0 120.5 -46.5t44.5 -121.5q0 -26 -5 -54h-248q5 -73 39.5 -114t95.5 -41q44 0 95 25zM153 265h142q-1 61 -18.5 86.5t-49.5 25.5q-33 0 -52 -28.5t-22 -83.5z
M242 674h124v-14l-156 -170h-55z" />
    <glyph glyph-name="ecircumflex" unicode="&#xea;" horiz-adv-x="431" 
d="M383 83l19 -35q-75 -58 -161 -58q-59 0 -107.5 26.5t-76 75.5t-27.5 113t27 116.5t75.5 83t108.5 30.5q76 0 120.5 -46.5t44.5 -121.5q0 -26 -5 -54h-248q5 -73 39.5 -114t95.5 -41q44 0 95 25zM153 265h142q-1 61 -18.5 86.5t-49.5 25.5q-33 0 -52 -28.5t-22 -83.5z
M337 490l-98 90l-103 -90h-55l127 184h68l116 -184h-55z" />
    <glyph glyph-name="edieresis" unicode="&#xeb;" horiz-adv-x="431" 
d="M383 83l19 -35q-75 -58 -161 -58q-59 0 -107.5 26.5t-76 75.5t-27.5 113t27 116.5t75.5 83t108.5 30.5q76 0 120.5 -46.5t44.5 -121.5q0 -26 -5 -54h-248q5 -73 39.5 -114t95.5 -41q44 0 95 25zM153 265h142q-1 61 -18.5 86.5t-49.5 25.5q-33 0 -52 -28.5t-22 -83.5z
M63 584q0 29 20.5 49t49.5 20t49 -20t20 -49t-20 -49.5t-49 -20.5t-49.5 20.5t-20.5 49.5zM263 584q0 29 20.5 49t49.5 20t49 -20t20 -49t-20 -49.5t-49 -20.5t-49.5 20.5t-20.5 49.5z" />
    <glyph glyph-name="igrave" unicode="&#xec;" horiz-adv-x="261" 
d="M31 64h45l5 5v242l-64 40v12l166 79l13 -6v-367l5 -5h45v-64h-215v64zM147 490l-156 170v14h124l87 -184h-55z" />
    <glyph glyph-name="iacute" unicode="&#xed;" horiz-adv-x="261" 
d="M31 64h45l5 5v242l-64 40v12l166 79l13 -6v-367l5 -5h45v-64h-215v64zM158 674h124v-14l-156 -170h-55z" />
    <glyph glyph-name="icircumflex" unicode="&#xee;" horiz-adv-x="261" 
d="M31 64h45l5 5v242l-64 40v12l166 79l13 -6v-367l5 -5h45v-64h-215v64zM232 490l-98 90l-103 -90h-55l127 184h68l116 -184h-55z" />
    <glyph glyph-name="idieresis" unicode="&#xef;" horiz-adv-x="261" 
d="M-12 582q0 27 19.5 46.5t46.5 19.5q28 0 47.5 -19.5t19.5 -46.5q0 -28 -19.5 -47.5t-47.5 -19.5q-27 0 -46.5 19.5t-19.5 47.5zM161 582q0 27 19.5 46.5t46.5 19.5q28 0 47.5 -19.5t19.5 -46.5q0 -28 -19.5 -47.5t-47.5 -19.5q-27 0 -46.5 19.5t-19.5 47.5zM31 64h45l5 5
v242l-64 40v12l166 79l13 -6v-367l5 -5h45v-64h-215v64z" />
    <glyph glyph-name="eth" unicode="&#xf0;" horiz-adv-x="505" 
d="M470 289q0 -134 -58.5 -216.5t-166.5 -82.5q-60 0 -108 27.5t-75 77.5t-27 116q0 70 30 121t79 77t106 26q41 0 86 -18q-14 86 -50 145l-107 -58v72l66 36q-55 52 -144 59l15 46q116 0 200 -66l112 61v-72l-64 -35q52 -61 79 -144.5t27 -171.5zM348 263q0 45 -3 85
q-40 10 -77 10q-54 0 -82.5 -41t-28.5 -104q0 -45 14 -82.5t37.5 -59t50.5 -21.5q89 0 89 213z" />
    <glyph glyph-name="ntilde" unicode="&#xf1;" horiz-adv-x="535" 
d="M516 63v-63h-215v64h45l5 5v178q0 59 -18 80.5t-62 21.5q-30 0 -77 -12v-268l5 -5h45v-64h-215v64h45l5 5v243l-64 39v13l150 77l13 -7l12 -59q48 32 82.5 46t72.5 14q56 0 88.5 -29t32.5 -88v-249l5 -6h45zM270 543q-19 11 -33.5 17t-30.5 6q-17 0 -30 -11t-19 -29
l-31 18q8 47 33.5 77t60.5 30q21 0 37 -6.5t37 -19.5q19 -11 31 -16t25 -5q33 0 45 30l32 -16q-12 -45 -33.5 -72t-53.5 -27q-18 0 -34 6t-36 18z" />
    <glyph glyph-name="ograve" unicode="&#xf2;" horiz-adv-x="484" 
d="M30 202q0 66 27.5 119t77 83.5t113.5 30.5q59 0 105.5 -26t73.5 -75.5t27 -115.5q0 -67 -28 -119t-77.5 -80.5t-112.5 -28.5q-61 0 -107.5 26.5t-72.5 74.5t-26 111zM332 179q0 56 -13.5 100.5t-37 69t-53.5 24.5q-35 0 -55.5 -34.5t-20.5 -95.5q0 -56 13.5 -100.5
t37 -69t53.5 -24.5q35 0 55.5 34.5t20.5 95.5zM279 490l-156 170v14h124l87 -184h-55z" />
    <glyph glyph-name="oacute" unicode="&#xf3;" horiz-adv-x="484" 
d="M30 202q0 66 27.5 119t77 83.5t113.5 30.5q59 0 105.5 -26t73.5 -75.5t27 -115.5q0 -67 -28 -119t-77.5 -80.5t-112.5 -28.5q-61 0 -107.5 26.5t-72.5 74.5t-26 111zM332 179q0 56 -13.5 100.5t-37 69t-53.5 24.5q-35 0 -55.5 -34.5t-20.5 -95.5q0 -56 13.5 -100.5
t37 -69t53.5 -24.5q35 0 55.5 34.5t20.5 95.5zM264 674h124v-14l-156 -170h-55z" />
    <glyph glyph-name="ocircumflex" unicode="&#xf4;" horiz-adv-x="484" 
d="M30 202q0 66 27.5 119t77 83.5t113.5 30.5q59 0 105.5 -26t73.5 -75.5t27 -115.5q0 -67 -28 -119t-77.5 -80.5t-112.5 -28.5q-61 0 -107.5 26.5t-72.5 74.5t-26 111zM332 179q0 56 -13.5 100.5t-37 69t-53.5 24.5q-35 0 -55.5 -34.5t-20.5 -95.5q0 -56 13.5 -100.5
t37 -69t53.5 -24.5q35 0 55.5 34.5t20.5 95.5zM350 490l-98 90l-103 -90h-55l127 184h68l116 -184h-55z" />
    <glyph glyph-name="otilde" unicode="&#xf5;" horiz-adv-x="484" 
d="M30 202q0 66 27.5 119t77 83.5t113.5 30.5q59 0 105.5 -26t73.5 -75.5t27 -115.5q0 -67 -28 -119t-77.5 -80.5t-112.5 -28.5q-61 0 -107.5 26.5t-72.5 74.5t-26 111zM332 179q0 56 -13.5 100.5t-37 69t-53.5 24.5q-35 0 -55.5 -34.5t-20.5 -95.5q0 -56 13.5 -100.5
t37 -69t53.5 -24.5q35 0 55.5 34.5t20.5 95.5zM233 543q-19 11 -33.5 17t-30.5 6q-17 0 -30 -11t-19 -29l-31 18q8 47 33.5 77t60.5 30q21 0 37 -6.5t37 -19.5q19 -11 31 -16t25 -5q33 0 45 30l32 -16q-12 -45 -33.5 -72t-53.5 -27q-18 0 -34 6t-36 18z" />
    <glyph glyph-name="odieresis" unicode="&#xf6;" horiz-adv-x="484" 
d="M30 202q0 66 27.5 119t77 83.5t113.5 30.5q59 0 105.5 -26t73.5 -75.5t27 -115.5q0 -67 -28 -119t-77.5 -80.5t-112.5 -28.5q-61 0 -107.5 26.5t-72.5 74.5t-26 111zM332 179q0 56 -13.5 100.5t-37 69t-53.5 24.5q-35 0 -55.5 -34.5t-20.5 -95.5q0 -56 13.5 -100.5
t37 -69t53.5 -24.5q35 0 55.5 34.5t20.5 95.5zM80 584q0 29 20.5 49t49.5 20t49 -20t20 -49t-20 -49.5t-49 -20.5t-49.5 20.5t-20.5 49.5zM280 584q0 29 20.5 49t49.5 20t49 -20t20 -49t-20 -49.5t-49 -20.5t-49.5 20.5t-20.5 49.5z" />
    <glyph glyph-name="divide" unicode="&#xf7;" horiz-adv-x="560" 
d="M210 361q0 26 19.5 45t45.5 19q27 0 47 -19t20 -45q0 -27 -20 -47t-47 -20q-26 0 -45.5 20t-19.5 47zM80 251h400v-75h-400v75zM210 67q0 26 19.5 45.5t45.5 19.5q27 0 47 -19.5t20 -45.5t-20 -46.5t-47 -20.5q-26 0 -45.5 20.5t-19.5 46.5z" />
    <glyph glyph-name="oslash" unicode="&#xf8;" horiz-adv-x="484" 
d="M406 365q48 -59 48 -147q0 -67 -28 -119t-77.5 -80.5t-112.5 -28.5q-65 0 -112 29l-32 -39h-82l66 81q-46 57 -46 141q0 66 27.5 119t77 83.5t113.5 30.5q61 0 109 -28l31 38h84zM160 164l135 167q-28 42 -67 42q-35 0 -55.5 -34.5t-20.5 -95.5q0 -41 8 -79zM323 263
l-137 -168q29 -46 70 -46q35 0 55.5 34.5t20.5 95.5q0 47 -9 84z" />
    <glyph glyph-name="ugrave" unicode="&#xf9;" 
d="M500 64v-64h-164v60q-43 -36 -75 -53t-72 -17q-56 0 -85.5 30.5t-29.5 87.5v195l-64 40v12l165 80l14 -7v-257q0 -52 18 -72.5t60 -20.5q34 0 69 10v222l-64 40v12l165 80l14 -7v-366l4 -5h45zM323 490l-156 170v14h124l87 -184h-55z" />
    <glyph glyph-name="uacute" unicode="&#xfa;" 
d="M500 64v-64h-164v60q-43 -36 -75 -53t-72 -17q-56 0 -85.5 30.5t-29.5 87.5v195l-64 40v12l165 80l14 -7v-257q0 -52 18 -72.5t60 -20.5q34 0 69 10v222l-64 40v12l165 80l14 -7v-366l4 -5h45zM283 674h124v-14l-156 -170h-55z" />
    <glyph glyph-name="ucircumflex" unicode="&#xfb;" 
d="M500 64v-64h-164v60q-43 -36 -75 -53t-72 -17q-56 0 -85.5 30.5t-29.5 87.5v195l-64 40v12l165 80l14 -7v-257q0 -52 18 -72.5t60 -20.5q34 0 69 10v222l-64 40v12l165 80l14 -7v-366l4 -5h45zM369 490l-98 90l-103 -90h-55l127 184h68l116 -184h-55z" />
    <glyph glyph-name="udieresis" unicode="&#xfc;" 
d="M500 64v-64h-164v60q-43 -36 -75 -53t-72 -17q-56 0 -85.5 30.5t-29.5 87.5v195l-64 40v12l165 80l14 -7v-257q0 -52 18 -72.5t60 -20.5q34 0 69 10v222l-64 40v12l165 80l14 -7v-366l4 -5h45zM99 584q0 29 20.5 49t49.5 20t49 -20t20 -49t-20 -49.5t-49 -20.5
t-49.5 20.5t-20.5 49.5zM299 584q0 29 20.5 49t49.5 20t49 -20t20 -49t-20 -49.5t-49 -20.5t-49.5 20.5t-20.5 49.5z" />
    <glyph glyph-name="yacute" unicode="&#xfd;" horiz-adv-x="497" 
d="M20 -190v9l204 173l-169 359l-65 55v14h246v-13l-56 -56l93 -213h6l94 213l-55 55v14h189v-13l-64 -56l-175 -373l-114 -223zM299 674h124v-14l-156 -170h-55z" />
    <glyph glyph-name="thorn" unicode="&#xfe;" 
d="M485 225q0 -65 -28 -119t-77 -85t-111 -31q-42 0 -75 15v-166l5 -5h65v-64h-235v64h45l5 5v749l-64 40v12l165 80l14 -7v-340q40 32 71.5 47t69.5 15q42 0 76.5 -26.5t54 -74.5t19.5 -109zM363 198q0 73 -26.5 112t-71.5 39q-32 0 -71 -9v-242q13 -23 33.5 -35.5
t45.5 -12.5q44 0 67 39t23 109z" />
    <glyph glyph-name="ydieresis" unicode="&#xff;" horiz-adv-x="497" 
d="M20 -190v9l204 173l-169 359l-65 55v14h246v-13l-56 -56l93 -213h6l94 213l-55 55v14h189v-13l-64 -56l-175 -373l-114 -223zM105 584q0 29 20.5 49t49.5 20t49 -20t20 -49t-20 -49.5t-49 -20.5t-49.5 20.5t-20.5 49.5zM305 584q0 29 20.5 49t49.5 20t49 -20t20 -49
t-20 -49.5t-49 -20.5t-49.5 20.5t-20.5 49.5z" />
    <glyph glyph-name="Amacron" unicode="&#x100;" horiz-adv-x="679" 
d="M669 67v-67h-259v67h60l5 5l-45 106h-241l-41 -106l5 -5h60v-67h-203v67h55l5 5l239 578h53l249 -578l5 -5h53zM402 246l-95 224h-5l-87 -224h187zM205 801h264v-78h-264v78z" />
    <glyph glyph-name="amacron" unicode="&#x101;" horiz-adv-x="433" 
d="M414 64v-64h-165v35q-67 -46 -124 -46q-41 0 -70 24t-29 75q0 61 50.5 99.5t172.5 51.5v18q0 52 -19 77.5t-62 25.5q-47 0 -105 -37l-19 38q74 74 173 74q77 0 112 -43t35 -128v-195l5 -5h45zM249 70v120q-59 -5 -85 -23t-26 -53q0 -27 15.5 -40t41.5 -13q20 0 54 9z
M81 619h264v-78h-264v78z" />
    <glyph glyph-name="Abreve" unicode="&#x102;" horiz-adv-x="679" 
d="M669 67v-67h-259v67h60l5 5l-45 106h-241l-41 -106l5 -5h60v-67h-203v67h55l5 5l239 578h53l249 -578l5 -5h53zM402 246l-95 224h-5l-87 -224h187zM197 863h49q4 -35 27.5 -52.5t63.5 -17.5q38 0 64.5 18t30.5 52h45q-4 -72 -39.5 -110t-100.5 -38q-66 0 -102 38t-38 110
z" />
    <glyph glyph-name="abreve" unicode="&#x103;" horiz-adv-x="433" 
d="M414 64v-64h-165v35q-67 -46 -124 -46q-41 0 -70 24t-29 75q0 61 50.5 99.5t172.5 51.5v18q0 52 -19 77.5t-62 25.5q-47 0 -105 -37l-19 38q74 74 173 74q77 0 112 -43t35 -128v-195l5 -5h45zM249 70v120q-59 -5 -85 -23t-26 -53q0 -27 15.5 -40t41.5 -13q20 0 54 9z
M70 664h51q4 -49 26 -71t63 -22q42 0 66.5 21.5t28.5 71.5h45q0 -85 -36 -129.5t-104 -44.5t-104 44.5t-36 129.5z" />
    <glyph glyph-name="Aogonek" unicode="&#x104;" horiz-adv-x="687" 
d="M673 67v-67h-17q-32 0 -62 -18t-49 -45.5t-19 -53.5q0 -22 12.5 -33.5t33.5 -11.5q20 0 36 9l14 -28q-31 -25 -57 -37t-56 -12q-37 0 -59.5 21t-22.5 56q0 41 35.5 82.5t89.5 70.5h-138v67h60l5 5l-45 106h-241l-41 -106l5 -5h60v-67h-203v67h55l5 5l239 578h53l249 -578
l5 -5h53zM406 246l-95 224h-5l-87 -224h187z" />
    <glyph glyph-name="aogonek" unicode="&#x105;" horiz-adv-x="434" 
d="M300 -117q0 -22 12.5 -33.5t33.5 -11.5q20 0 36 9l14 -28q-31 -25 -57 -37t-56 -12q-37 0 -59.5 21t-22.5 56q0 41 35.5 82.5t89.5 70.5h-77v35q-67 -46 -124 -46q-41 0 -70 24t-29 75q0 61 50.5 99.5t172.5 51.5v18q0 52 -19 77.5t-62 25.5q-47 0 -105 -37l-19 38
q74 74 173 74q77 0 112 -43t35 -128v-195l5 -5h45v-64q-28 -4 -54.5 -22t-43 -43.5t-16.5 -51.5zM249 70v120q-59 -5 -85 -23t-26 -53q0 -27 15.5 -40t41.5 -13q20 0 54 9z" />
    <glyph glyph-name="Cacute" unicode="&#x106;" horiz-adv-x="640" 
d="M45 308q0 113 47 194t125.5 122t172.5 41q91 0 178 -29v-195h-15l-66 115q-25 24 -53.5 35t-70.5 11q-84 0 -131 -72t-47 -202q0 -86 23.5 -149t65.5 -96.5t97 -33.5q75 0 126 49l68 130h15v-195q-39 -22 -93.5 -35t-114.5 -13q-90 0 -164.5 39t-118.5 112t-44 172z
M395 842h146v-7l-201 -127h-57z" />
    <glyph glyph-name="cacute" unicode="&#x107;" horiz-adv-x="407" 
d="M30 202q0 66 28 119t79.5 83.5t119.5 30.5q57 0 117 -22v-161h-13l-76 102q-28 23 -55 23q-38 0 -58 -35t-20 -102q0 -88 39 -134.5t95 -46.5q24 0 44 5.5t43 18.5l19 -35q-65 -58 -157 -58q-94 0 -149.5 58t-55.5 154zM272 674h124v-14l-156 -170h-55z" />
    <glyph glyph-name="Ccircumflex" unicode="&#x108;" horiz-adv-x="640" 
d="M45 308q0 113 47 194t125.5 122t172.5 41q91 0 178 -29v-195h-15l-66 115q-25 24 -53.5 35t-70.5 11q-84 0 -131 -72t-47 -202q0 -86 23.5 -149t65.5 -96.5t97 -33.5q75 0 126 49l68 130h15v-195q-39 -22 -93.5 -35t-114.5 -13q-90 0 -164.5 39t-118.5 112t-44 172z
M346 842h72l124 -134h-57l-103 58l-103 -58h-57z" />
    <glyph glyph-name="ccircumflex" unicode="&#x109;" horiz-adv-x="407" 
d="M30 202q0 66 28 119t79.5 83.5t119.5 30.5q57 0 117 -22v-161h-13l-76 102q-28 23 -55 23q-38 0 -58 -35t-20 -102q0 -88 39 -134.5t95 -46.5q24 0 44 5.5t43 18.5l19 -35q-65 -58 -157 -58q-94 0 -149.5 58t-55.5 154zM332 490l-98 90l-103 -90h-55l127 184h68l116 -184
h-55z" />
    <glyph glyph-name="Cdotaccent" unicode="&#x10a;" horiz-adv-x="640" 
d="M45 308q0 113 47 194t125.5 122t172.5 41q91 0 178 -29v-195h-15l-66 115q-25 24 -53.5 35t-70.5 11q-84 0 -131 -72t-47 -202q0 -86 23.5 -149t65.5 -96.5t97 -33.5q75 0 126 49l68 130h15v-195q-39 -22 -93.5 -35t-114.5 -13q-90 0 -164.5 39t-118.5 112t-44 172z
M316 776q0 27 19.5 46.5t46.5 19.5q28 0 47.5 -19.5t19.5 -46.5q0 -28 -19.5 -47.5t-47.5 -19.5q-27 0 -46.5 19.5t-19.5 47.5z" />
    <glyph glyph-name="cdotaccent" unicode="&#x10b;" horiz-adv-x="407" 
d="M30 202q0 66 28 119t79.5 83.5t119.5 30.5q57 0 117 -22v-161h-13l-76 102q-28 23 -55 23q-38 0 -58 -35t-20 -102q0 -88 39 -134.5t95 -46.5q24 0 44 5.5t43 18.5l19 -35q-65 -58 -157 -58q-94 0 -149.5 58t-55.5 154zM183 584q0 29 20.5 49t49.5 20t49 -20t20 -49
t-20 -49.5t-49 -20.5t-49.5 20.5t-20.5 49.5z" />
    <glyph glyph-name="Ccaron" unicode="&#x10c;" horiz-adv-x="640" 
d="M45 308q0 113 47 194t125.5 122t172.5 41q91 0 178 -29v-195h-15l-66 115q-25 24 -53.5 35t-70.5 11q-84 0 -131 -72t-47 -202q0 -86 23.5 -149t65.5 -96.5t97 -33.5q75 0 126 49l68 130h15v-195q-39 -22 -93.5 -35t-114.5 -13q-90 0 -164.5 39t-118.5 112t-44 172z
M221 843h57l103 -58l103 58h57l-124 -134h-72z" />
    <glyph glyph-name="ccaron" unicode="&#x10d;" horiz-adv-x="407" 
d="M30 202q0 66 28 119t79.5 83.5t119.5 30.5q57 0 117 -22v-161h-13l-76 102q-28 23 -55 23q-38 0 -58 -35t-20 -102q0 -88 39 -134.5t95 -46.5q24 0 44 5.5t43 18.5l19 -35q-65 -58 -157 -58q-94 0 -149.5 58t-55.5 154zM405 677l-127 -184h-68l-116 184h55l98 -90l103 90
h55z" />
    <glyph glyph-name="Dcaron" unicode="&#x10e;" horiz-adv-x="740" 
d="M45 67h75l5 5v503l-90 60v15h280q130 0 215.5 -40.5t126.5 -110t41 -158.5q0 -168 -103 -254.5t-283 -86.5h-267v67zM309 70q121 0 185 66.5t64 198.5q0 111 -65 178t-182 67h-61v-510h59zM153 843h57l103 -58l103 58h57l-124 -134h-72z" />
    <glyph glyph-name="dcaron" unicode="&#x10f;" horiz-adv-x="615" 
d="M446 64h45v-64h-165v52q-43 -33 -72 -47.5t-64 -14.5q-47 0 -82 27.5t-54 74t-19 103.5q0 68 27.5 122.5t77 86t111.5 31.5q42 0 75 -15v168l-64 40v12l166 80l13 -7v-644zM615 716l-75 -193h-50l25 193h100zM326 85v238q-30 52 -78 52q-44 0 -67.5 -38.5t-23.5 -109.5
q0 -74 27.5 -112.5t78.5 -38.5q29 0 63 9z" />
    <glyph glyph-name="Dcroat" unicode="&#x110;" horiz-adv-x="731" 
d="M693 341q0 -172 -103 -256.5t-278 -84.5h-267v67h75l5 5v223h-80v70h80v210l-90 60v15h280q128 0 212.5 -40.5t125 -110t40.5 -158.5zM558 335q0 111 -65 178t-182 67h-61v-215h147v-70h-147v-225h59q121 0 185 66.5t64 198.5z" />
    <glyph glyph-name="dcroat" unicode="&#x111;" horiz-adv-x="514" 
d="M441 483v-414l5 -5h45v-64h-165v52q-43 -33 -72 -47.5t-64 -14.5q-47 0 -82 27.5t-54 74t-19 103.5q0 68 27.5 122.5t77 86t111.5 31.5q42 0 75 -15v63h-89v64h89v41l-64 40v12l166 80l13 -7v-166h64v-64h-64zM326 85v238q-30 52 -78 52q-44 0 -67.5 -38.5t-23.5 -109.5
q0 -74 27.5 -112.5t78.5 -38.5q29 0 63 9z" />
    <glyph glyph-name="Emacron" unicode="&#x112;" horiz-adv-x="610" 
d="M555 202l-3 -202h-507v67h75l5 5v503l-90 60v15h499v-202h-19l-77 132h-188v-206h116l5 5v75h64v-231h-64v76l-5 5h-116v-234h205l81 132h19zM188 801h264v-78h-264v78z" />
    <glyph glyph-name="emacron" unicode="&#x113;" horiz-adv-x="431" 
d="M383 83l19 -35q-75 -58 -161 -58q-59 0 -107.5 26.5t-76 75.5t-27.5 113t27 116.5t75.5 83t108.5 30.5q76 0 120.5 -46.5t44.5 -121.5q0 -26 -5 -54h-248q5 -73 39.5 -114t95.5 -41q44 0 95 25zM153 265h142q-1 61 -18.5 86.5t-49.5 25.5q-33 0 -52 -28.5t-22 -83.5z
M101 619h264v-78h-264v78z" />
    <glyph glyph-name="Ebreve" unicode="&#x114;" horiz-adv-x="610" 
d="M555 202l-3 -202h-507v67h75l5 5v503l-90 60v15h499v-202h-19l-77 132h-188v-206h116l5 5v75h64v-231h-64v76l-5 5h-116v-234h205l81 132h19zM189 863h49q4 -35 27.5 -52.5t63.5 -17.5q38 0 64.5 18t30.5 52h45q-4 -72 -39.5 -110t-100.5 -38q-66 0 -102 38t-38 110z" />
    <glyph glyph-name="ebreve" unicode="&#x115;" horiz-adv-x="431" 
d="M383 83l19 -35q-75 -58 -161 -58q-59 0 -107.5 26.5t-76 75.5t-27.5 113t27 116.5t75.5 83t108.5 30.5q76 0 120.5 -46.5t44.5 -121.5q0 -26 -5 -54h-248q5 -73 39.5 -114t95.5 -41q44 0 95 25zM153 265h142q-1 61 -18.5 86.5t-49.5 25.5q-33 0 -52 -28.5t-22 -83.5z
M94 664h51q4 -49 26 -71t63 -22q42 0 66.5 21.5t28.5 71.5h45q0 -85 -36 -129.5t-104 -44.5t-104 44.5t-36 129.5z" />
    <glyph glyph-name="Edotaccent" unicode="&#x116;" horiz-adv-x="610" 
d="M555 202l-3 -202h-507v67h75l5 5v503l-90 60v15h499v-202h-19l-77 132h-188v-206h116l5 5v75h64v-231h-64v76l-5 5h-116v-234h205l81 132h19zM268 776q0 27 19.5 46.5t46.5 19.5q28 0 47.5 -19.5t19.5 -46.5q0 -28 -19.5 -47.5t-47.5 -19.5q-27 0 -46.5 19.5t-19.5 47.5z
" />
    <glyph glyph-name="edotaccent" unicode="&#x117;" horiz-adv-x="431" 
d="M383 83l19 -35q-75 -58 -161 -58q-59 0 -107.5 26.5t-76 75.5t-27.5 113t27 116.5t75.5 83t108.5 30.5q76 0 120.5 -46.5t44.5 -121.5q0 -26 -5 -54h-248q5 -73 39.5 -114t95.5 -41q44 0 95 25zM153 265h142q-1 61 -18.5 86.5t-49.5 25.5q-33 0 -52 -28.5t-22 -83.5z
M163 584q0 29 20.5 49t49.5 20t49 -20t20 -49t-20 -49.5t-49 -20.5t-49.5 20.5t-20.5 49.5z" />
    <glyph glyph-name="Eogonek" unicode="&#x118;" horiz-adv-x="610" 
d="M437 -117q0 -22 12.5 -33.5t33.5 -11.5q20 0 36 9l14 -28q-31 -25 -57 -37t-56 -12q-37 0 -59.5 21t-22.5 56q0 41 35.5 82.5t89.5 70.5h-418v67h75l5 5v503l-90 60v15h499v-202h-19l-77 132h-188v-206h116l5 5v75h64v-231h-64v76l-5 5h-116v-234h205l81 132h19l-3 -202
q-28 -4 -55 -22t-43.5 -43.5t-16.5 -51.5z" />
    <glyph glyph-name="eogonek" unicode="&#x119;" horiz-adv-x="431" 
d="M252 -117q0 -22 12.5 -33.5t33.5 -11.5q19 0 36 9l14 -28q-31 -25 -57 -37t-56 -12q-37 0 -59.5 21t-22.5 56q0 38 30.5 76.5t78.5 67.5q-7 -1 -21 -1q-59 0 -107.5 26.5t-76 75.5t-27.5 113t27 116.5t75.5 83t108.5 30.5q76 0 120.5 -46.5t44.5 -121.5q0 -26 -5 -54
h-248q5 -73 39.5 -114t95.5 -41q44 0 95 25l19 -35q-48 -31 -78 -53.5t-51 -51t-21 -60.5zM153 265h142q-1 61 -18.5 86.5t-49.5 25.5q-33 0 -52 -28.5t-22 -83.5z" />
    <glyph glyph-name="Ecaron" unicode="&#x11a;" horiz-adv-x="610" 
d="M555 202l-3 -202h-507v67h75l5 5v503l-90 60v15h499v-202h-19l-77 132h-188v-206h116l5 5v75h64v-231h-64v76l-5 5h-116v-234h205l81 132h19zM163 843h57l103 -58l103 58h57l-124 -134h-72z" />
    <glyph glyph-name="ecaron" unicode="&#x11b;" horiz-adv-x="431" 
d="M383 83l19 -35q-75 -58 -161 -58q-59 0 -107.5 26.5t-76 75.5t-27.5 113t27 116.5t75.5 83t108.5 30.5q76 0 120.5 -46.5t44.5 -121.5q0 -26 -5 -54h-248q5 -73 39.5 -114t95.5 -41q44 0 95 25zM153 265h142q-1 61 -18.5 86.5t-49.5 25.5q-33 0 -52 -28.5t-22 -83.5z
M400 677l-127 -184h-68l-116 184h55l98 -90l103 90h55z" />
    <glyph glyph-name="Gcircumflex" unicode="&#x11c;" horiz-adv-x="681" 
d="M656 303v-70h-57l-5 -5v-182q-45 -29 -104 -45t-119 -16q-92 0 -166.5 40t-117 114.5t-42.5 173.5q0 106 43.5 185.5t121.5 123t177 43.5q94 0 181 -29v-195h-15l-65 121q-27 19 -54.5 29.5t-65.5 10.5q-89 0 -136 -71t-47 -202q0 -135 52.5 -208t142.5 -73q54 0 89 13
v167l-5 5h-80v70h272zM352 842h72l124 -134h-57l-103 58l-103 -58h-57z" />
    <glyph glyph-name="gcircumflex" unicode="&#x11d;" horiz-adv-x="483" 
d="M473 441v-101l-14 -2l-84 26q25 -37 25 -85q0 -49 -26 -86t-69 -56.5t-94 -19.5q-41 0 -74 12q-16 -22 -16 -44q0 -20 17 -30.5t62 -10.5h96q140 0 140 -99q0 -54 -36.5 -95.5t-100.5 -64t-144 -22.5q-77 0 -117 23t-40 65q0 56 72 105q-36 22 -36 66q0 61 69 124
q-29 19 -45.5 49t-16.5 69q0 49 25.5 88t68.5 61t93 22q68 0 117 -38l125 47zM284 268q0 55 -18 87t-48 32q-26 0 -43 -27t-17 -79q0 -54 16.5 -84.5t47.5 -30.5q28 0 45 25t17 77zM107 -58q-16 -26 -16 -53q0 -64 95 -64q61 0 105 20.5t44 55.5q0 21 -18 28t-54 7h-98
q-34 0 -58 6zM334 490l-98 90l-103 -90h-55l127 184h68l116 -184h-55z" />
    <glyph glyph-name="Gbreve" unicode="&#x11e;" horiz-adv-x="681" 
d="M656 303v-70h-57l-5 -5v-182q-45 -29 -104 -45t-119 -16q-92 0 -166.5 40t-117 114.5t-42.5 173.5q0 106 43.5 185.5t121.5 123t177 43.5q94 0 181 -29v-195h-15l-65 121q-27 19 -54.5 29.5t-65.5 10.5q-89 0 -136 -71t-47 -202q0 -135 52.5 -208t142.5 -73q54 0 89 13
v167l-5 5h-80v70h272zM248 863h49q4 -35 27.5 -52.5t63.5 -17.5q38 0 64.5 18t30.5 52h45q-4 -72 -39.5 -110t-100.5 -38q-66 0 -102 38t-38 110z" />
    <glyph glyph-name="gbreve" unicode="&#x11f;" horiz-adv-x="483" 
d="M473 441v-101l-14 -2l-84 26q25 -37 25 -85q0 -49 -26 -86t-69 -56.5t-94 -19.5q-41 0 -74 12q-16 -22 -16 -44q0 -20 17 -30.5t62 -10.5h96q140 0 140 -99q0 -54 -36.5 -95.5t-100.5 -64t-144 -22.5q-77 0 -117 23t-40 65q0 56 72 105q-36 22 -36 66q0 61 69 124
q-29 19 -45.5 49t-16.5 69q0 49 25.5 88t68.5 61t93 22q68 0 117 -38l125 47zM284 268q0 55 -18 87t-48 32q-26 0 -43 -27t-17 -79q0 -54 16.5 -84.5t47.5 -30.5q28 0 45 25t17 77zM107 -58q-16 -26 -16 -53q0 -64 95 -64q61 0 105 20.5t44 55.5q0 21 -18 28t-54 7h-98
q-34 0 -58 6zM90 664h51q4 -49 26 -71t63 -22q42 0 66.5 21.5t28.5 71.5h45q0 -85 -36 -129.5t-104 -44.5t-104 44.5t-36 129.5z" />
    <glyph glyph-name="Gdotaccent" unicode="&#x120;" horiz-adv-x="681" 
d="M656 303v-70h-57l-5 -5v-182q-45 -29 -104 -45t-119 -16q-92 0 -166.5 40t-117 114.5t-42.5 173.5q0 106 43.5 185.5t121.5 123t177 43.5q94 0 181 -29v-195h-15l-65 121q-27 19 -54.5 29.5t-65.5 10.5q-89 0 -136 -71t-47 -202q0 -135 52.5 -208t142.5 -73q54 0 89 13
v167l-5 5h-80v70h272zM317 776q0 27 19.5 46.5t46.5 19.5q28 0 47.5 -19.5t19.5 -46.5q0 -28 -19.5 -47.5t-47.5 -19.5q-27 0 -46.5 19.5t-19.5 47.5z" />
    <glyph glyph-name="gdotaccent" unicode="&#x121;" horiz-adv-x="483" 
d="M473 441v-101l-14 -2l-84 26q25 -37 25 -85q0 -49 -26 -86t-69 -56.5t-94 -19.5q-41 0 -74 12q-16 -22 -16 -44q0 -20 17 -30.5t62 -10.5h96q140 0 140 -99q0 -54 -36.5 -95.5t-100.5 -64t-144 -22.5q-77 0 -117 23t-40 65q0 56 72 105q-36 22 -36 66q0 61 69 124
q-29 19 -45.5 49t-16.5 69q0 49 25.5 88t68.5 61t93 22q68 0 117 -38l125 47zM284 268q0 55 -18 87t-48 32q-26 0 -43 -27t-17 -79q0 -54 16.5 -84.5t47.5 -30.5q28 0 45 25t17 77zM107 -58q-16 -26 -16 -53q0 -64 95 -64q61 0 105 20.5t44 55.5q0 21 -18 28t-54 7h-98
q-34 0 -58 6zM159 584q0 29 20.5 49t49.5 20t49 -20t20 -49t-20 -49.5t-49 -20.5t-49.5 20.5t-20.5 49.5z" />
    <glyph glyph-name="Gcommaaccent" unicode="&#x122;" horiz-adv-x="681" 
d="M656 303v-70h-57l-5 -5v-182q-45 -29 -104 -45t-119 -16q-92 0 -166.5 40t-117 114.5t-42.5 173.5q0 106 43.5 185.5t121.5 123t177 43.5q94 0 181 -29v-195h-15l-65 121q-27 19 -54.5 29.5t-65.5 10.5q-89 0 -136 -71t-47 -202q0 -135 52.5 -208t142.5 -73q54 0 89 13
v167l-5 5h-80v70h272zM436 -122q0 -38 -31 -73.5t-84 -52.5l-16 28q47 20 58 57q-20 4 -31.5 17t-11.5 32q0 21 17 36.5t41 15.5q25 0 41.5 -16.5t16.5 -43.5z" />
    <glyph glyph-name="gcommaaccent" unicode="&#x123;" horiz-adv-x="483" 
d="M473 441v-101l-14 -2l-84 26q25 -37 25 -85q0 -49 -26 -86t-69 -56.5t-94 -19.5q-41 0 -74 12q-16 -22 -16 -44q0 -20 17 -30.5t62 -10.5h96q140 0 140 -99q0 -54 -36.5 -95.5t-100.5 -64t-144 -22.5q-77 0 -117 23t-40 65q0 56 72 105q-36 22 -36 66q0 61 69 124
q-29 19 -45.5 49t-16.5 69q0 49 25.5 88t68.5 61t93 22q68 0 117 -38l125 47zM284 268q0 55 -18 87t-48 32q-26 0 -43 -27t-17 -79q0 -54 16.5 -84.5t47.5 -30.5q28 0 45 25t17 77zM107 -58q-16 -26 -16 -53q0 -64 95 -64q61 0 105 20.5t44 55.5q0 21 -18 28t-54 7h-98
q-34 0 -58 6zM272 554q0 -21 -17 -36.5t-41 -15.5q-25 0 -41.5 16.5t-16.5 43.5q0 38 31 73.5t84 52.5l16 -28q-47 -20 -58 -57q20 -4 31.5 -17t11.5 -32z" />
    <glyph glyph-name="Hcircumflex" unicode="&#x124;" horiz-adv-x="803" 
d="M678 575v-503l5 -5h75v-67h-285v67h75l5 5v233h-303v-233l5 -5h75v-67h-285v67h75l5 5v503l-90 60v15h305v-15l-90 -60v-200h303v200l-90 60v15h305v-15zM374 842h72l124 -134h-57l-103 58l-103 -58h-57z" />
    <glyph glyph-name="hcircumflex" unicode="&#x125;" horiz-adv-x="532" 
d="M513 64v-64h-215v64h45l5 5v178q0 59 -18 80.5t-62 21.5q-30 0 -77 -12v-268l5 -5h45v-64h-215v64h45l5 5v519l-64 40v12l165 80l14 -7v-336q47 31 80.5 44.5t70.5 13.5q56 0 88.5 -29t32.5 -88v-249l5 -5h45zM104 867h72l124 -134h-57l-103 58l-103 -58h-57z" />
    <glyph glyph-name="Hbar" unicode="&#x126;" horiz-adv-x="803" 
d="M678 575v-56h79v-70h-79v-377l5 -5h75v-67h-285v67h75l5 5v233h-303v-233l5 -5h75v-67h-285v67h75l5 5v377h-80v70h80v56l-90 60v15h305v-15l-90 -60v-56h303v56l-90 60v15h305v-15zM553 449h-303v-74h303v74z" />
    <glyph glyph-name="hbar" unicode="&#x127;" horiz-adv-x="532" 
d="M513 64v-64h-215v64h45l5 5v178q0 59 -18 80.5t-62 21.5q-30 0 -77 -12v-268l5 -5h45v-64h-215v64h45l5 5v406h-60v64h60v49l-64 40v12l165 80l14 -7v-174h93v-64h-93v-98q47 31 80.5 44.5t70.5 13.5q56 0 88.5 -29t32.5 -88v-249l5 -5h45z" />
    <glyph glyph-name="Itilde" unicode="&#x128;" horiz-adv-x="375" 
d="M45 70h75l5 5v500l-90 60v15h305v-15l-90 -60v-500l5 -5h75v-70h-285v70zM193 735q-19 11 -33.5 17t-30.5 6q-17 0 -30 -11t-19 -29l-31 18q8 47 33.5 77t60.5 30q21 0 37 -6.5t37 -19.5q19 -11 31 -16t25 -5q33 0 45 30l32 -16q-12 -45 -33.5 -72t-53.5 -27q-18 0 -34 6
t-36 18z" />
    <glyph glyph-name="itilde" unicode="&#x129;" horiz-adv-x="261" 
d="M130 543q-16 11 -28.5 17t-26.5 6q-18 0 -32 -11t-20 -29l-31 18q8 47 32.5 77t56.5 30q19 0 33.5 -6.5t33.5 -19.5q15 -11 26 -16t24 -5q31 0 43 30l32 -16q-26 -99 -82 -99q-16 0 -28.5 6t-32.5 18zM31 64h45l5 5v242l-64 40v12l166 79l13 -6v-367l5 -5h46v-64h-216v64
z" />
    <glyph glyph-name="Imacron" unicode="&#x12a;" horiz-adv-x="375" 
d="M45 70h75l5 5v500l-90 60v15h305v-15l-90 -60v-500l5 -5h75v-70h-285v70zM59 801h264v-78h-264v78z" />
    <glyph glyph-name="imacron" unicode="&#x12b;" horiz-adv-x="261" 
d="M26 615h226v-70h-226v70zM31 64h45l5 5v242l-64 40v12l166 79l13 -6v-367l5 -5h46v-64h-216v64z" />
    <glyph glyph-name="Ibreve" unicode="&#x12c;" horiz-adv-x="375" 
d="M45 70h75l5 5v500l-90 60v15h305v-15l-90 -60v-500l5 -5h75v-70h-285v70zM54 863h49q4 -35 27.5 -52.5t63.5 -17.5q38 0 64.5 18t30.5 52h45q-4 -72 -39.5 -110t-100.5 -38q-66 0 -102 38t-38 110z" />
    <glyph glyph-name="ibreve" unicode="&#x12d;" horiz-adv-x="261" 
d="M-6 664h51q4 -49 26 -71t63 -22q42 0 66.5 21.5t28.5 71.5h45q0 -85 -36 -129.5t-104 -44.5t-104 44.5t-36 129.5zM31 64h45l5 5v242l-64 40v12l166 79l13 -6v-367l5 -5h45v-64h-215v64z" />
    <glyph glyph-name="Iogonek" unicode="&#x12e;" horiz-adv-x="375" 
d="M116 -153q0 41 35.5 82.5t89.5 70.5h-196v67h75l5 5v503l-90 60v15h305v-15l-90 -60v-503l5 -5h75v-67q-28 -4 -55 -22t-43.5 -43.5t-16.5 -51.5q0 -22 12.5 -33.5t33.5 -11.5q20 0 36 9l14 -28q-31 -25 -57 -37t-56 -12q-37 0 -59.5 21t-22.5 56z" />
    <glyph glyph-name="iogonek" unicode="&#x12f;" horiz-adv-x="261" 
d="M65 582q0 29 20.5 49t49.5 20t49 -20t20 -49t-20 -49.5t-49 -20.5t-49.5 20.5t-20.5 49.5zM33 -153q0 41 35.5 82.5t89.5 70.5h-127v64h45l5 5v242l-64 40v12l166 79l13 -6v-367l5 -5h46v-64q-28 -4 -55 -22t-43.5 -43.5t-16.5 -51.5q0 -22 12.5 -33.5t33.5 -11.5
q20 0 36 9l14 -28q-31 -25 -57 -37t-56 -12q-37 0 -59.5 21t-22.5 56z" />
    <glyph glyph-name="Idotaccent" unicode="&#x130;" horiz-adv-x="375" 
d="M45 70h75l5 5v500l-90 60v15h305v-15l-90 -60v-500l5 -5h75v-70h-285v70zM128 776q0 27 19.5 46.5t46.5 19.5q28 0 47.5 -19.5t19.5 -46.5q0 -28 -19.5 -47.5t-47.5 -19.5q-27 0 -46.5 19.5t-19.5 47.5z" />
    <glyph glyph-name="dotlessi" unicode="&#x131;" horiz-adv-x="259" 
d="M29 64h45l5 5v242l-64 40v12l166 79l13 -6v-367l5 -5h45v-64h-215v64z" />
    <glyph glyph-name="IJ" unicode="&#x132;" horiz-adv-x="750" 
d="M45 70h75l5 5v500l-90 60v15h305v-15l-90 -60v-500l5 -5h75v-70h-285v70zM375 -126q55 41 83 83t37.5 91t9.5 123v404l-90 60v15h305v-15l-90 -60v-419q0 -87 -22.5 -146.5t-73.5 -102t-139 -76.5z" />
    <glyph glyph-name="Jcircumflex" unicode="&#x134;" horiz-adv-x="370" 
d="M-5 -126q55 41 83 83t37.5 91t9.5 123v404l-90 60v15h305v-15l-90 -60v-419q0 -87 -22.5 -146.5t-73.5 -102t-139 -76.5zM157 842h72l124 -134h-57l-103 58l-103 -58h-57z" />
    <glyph glyph-name="jcircumflex" unicode="&#x135;" horiz-adv-x="254" 
d="M-22 -197q52 22 74.5 55.5t22.5 99.5v353l-64 40v12l166 79l13 -6v-438q0 -103 -51 -157t-145 -68zM236 490l-98 90l-103 -90h-55l127 184h68l116 -184h-55z" />
    <glyph glyph-name="Kcommaaccent" unicode="&#x136;" horiz-adv-x="716" 
d="M255 67h75v-67h-285v67h75l5 5v503l-90 60v15h305v-15l-90 -60v-503zM711 67v-67h-183l-263 327l228 248l-90 60v15h281v-15l-95 -60l-197 -212l235 -291l8 -5h76zM436 -122q0 -38 -31 -73.5t-84 -52.5l-16 28q47 20 58 57q-20 4 -31.5 17t-11.5 32q0 21 17 36.5t41 15.5
q25 0 41.5 -16.5t16.5 -43.5z" />
    <glyph glyph-name="kcommaaccent" unicode="&#x137;" horiz-adv-x="516" 
d="M196 64h45v-64h-215v64h45l5 5v519l-64 40v12l165 80l14 -7v-644zM511 64v-64h-158l-154 224l128 136l-57 56v9h221v-8l-177 -163l135 -190h62zM347 -122q0 -38 -31 -73.5t-84 -52.5l-16 28q47 20 58 57q-20 4 -31.5 17t-11.5 32q0 21 17 36.5t41 15.5q25 0 41.5 -16.5
t16.5 -43.5z" />
    <glyph glyph-name="kgreenlandic" unicode="&#x138;" horiz-adv-x="524" 
d="M199 64h45v-64h-215v64h45l5 5v242l-64 40v12l166 79l13 -6v-367zM514 64v-64h-158l-154 224l128 136l-57 56v9h221v-8l-177 -163l132 -185l5 -5h60z" />
    <glyph glyph-name="Lacute" unicode="&#x139;" horiz-adv-x="580" 
d="M45 67h75l5 5v503l-90 60v15h310v-15l-95 -60v-505h190l76 132h19v-202h-490v67zM205 842h146v-7l-201 -127h-57z" />
    <glyph glyph-name="lacute" unicode="&#x13a;" horiz-adv-x="259" 
d="M26 64h45l5 5v519l-64 40v12l165 80l14 -7v-644l5 -5h45v-64h-215v64zM124 870h146v-7l-201 -127h-57z" />
    <glyph glyph-name="Lcommaaccent" unicode="&#x13b;" horiz-adv-x="580" 
d="M45 67h75l5 5v503l-90 60v15h310v-15l-95 -60v-505h190l76 132h19v-202h-490v67zM356 -122q0 -38 -31 -73.5t-84 -52.5l-16 28q47 20 58 57q-20 4 -31.5 17t-11.5 32q0 21 17 36.5t41 15.5q25 0 41.5 -16.5t16.5 -43.5z" />
    <glyph glyph-name="lcommaaccent" unicode="&#x13c;" horiz-adv-x="259" 
d="M26 64h45l5 5v519l-64 40v12l165 80l14 -7v-644l5 -5h45v-64h-215v64zM199 -122q0 -38 -31 -73.5t-84 -52.5l-16 28q47 20 58 57q-20 4 -31.5 17t-11.5 32q0 21 17 36.5t41 15.5q25 0 41.5 -16.5t16.5 -43.5z" />
    <glyph glyph-name="Lcaron" unicode="&#x13d;" horiz-adv-x="580" 
d="M45 67h75l5 5v503l-90 60v15h310v-15l-95 -60v-505h190l76 132h19v-202h-490v67zM414 653h107l-80 -203h-53z" />
    <glyph glyph-name="lcaron" unicode="&#x13e;" horiz-adv-x="358" 
d="M26 64h45l5 5v519l-64 40v12l165 80l14 -7v-644l5 -5h45v-64h-215v64zM258 716h100l-75 -193h-50z" />
    <glyph glyph-name="Ldot" unicode="&#x13f;" horiz-adv-x="580" 
d="M45 67h75l5 5v503l-90 60v15h310v-15l-95 -60v-505h190l76 132h19v-202h-490v67zM329 352q0 29 20.5 49t49.5 20t49 -20t20 -49t-20 -49.5t-49 -20.5t-49.5 20.5t-20.5 49.5z" />
    <glyph glyph-name="ldot" unicode="&#x140;" horiz-adv-x="374" 
d="M26 64h45l5 5v519l-64 40v12l165 80l14 -7v-644l5 -5h45v-64h-215v64zM247 367q0 29 20.5 49t49.5 20t49 -20t20 -49t-20 -49.5t-49 -20.5t-49.5 20.5t-20.5 49.5z" />
    <glyph glyph-name="Lslash" unicode="&#x141;" horiz-adv-x="580" 
d="M535 202v-202h-490v67h75l5 5v202l-79 -32v69l79 31v233l-90 60v15h310v-15l-95 -60v-190l120 48v-69l-120 -47v-247h190l76 132h19z" />
    <glyph glyph-name="lslash" unicode="&#x142;" horiz-adv-x="259" 
d="M194 342v-273l5 -5h45v-64h-215v64h45l5 5v239l-58 -23v69l58 23v211l-64 40v12l165 80l14 -7v-298l63 25v-73z" />
    <glyph glyph-name="Nacute" unicode="&#x143;" horiz-adv-x="758" 
d="M733 650v-15l-90 -60v-575h-86l-358 493v-421l5 -5h75v-67h-234v67h75l5 5v503l-90 60v15h209l325 -459v384l-90 60v15h254zM401 842h146v-7l-201 -127h-57z" />
    <glyph glyph-name="nacute" unicode="&#x144;" horiz-adv-x="535" 
d="M516 63v-63h-215v64h45l5 5v178q0 59 -18 80.5t-62 21.5q-30 0 -77 -12v-268l5 -5h45v-64h-215v64h45l5 5v243l-64 39v13l150 77l13 -7l12 -59q48 32 82.5 46t72.5 14q56 0 88.5 -29t32.5 -88v-249l5 -6h45zM301 674h124v-14l-156 -170h-55z" />
    <glyph glyph-name="Ncommaaccent" unicode="&#x145;" horiz-adv-x="758" 
d="M733 650v-15l-90 -60v-575h-86l-358 493v-421l5 -5h75v-67h-234v67h75l5 5v503l-90 60v15h209l325 -459v384l-90 60v15h254zM454 -122q0 -38 -31 -73.5t-84 -52.5l-16 28q47 20 58 57q-20 4 -31.5 17t-11.5 32q0 21 17 36.5t41 15.5q25 0 41.5 -16.5t16.5 -43.5z" />
    <glyph glyph-name="ncommaaccent" unicode="&#x146;" horiz-adv-x="535" 
d="M516 63v-63h-215v64h45l5 5v178q0 59 -18 80.5t-62 21.5q-30 0 -77 -12v-268l5 -5h45v-64h-215v64h45l5 5v243l-64 39v13l150 77l13 -7l12 -59q48 32 82.5 46t72.5 14q56 0 88.5 -29t32.5 -88v-249l5 -6h45zM332 -122q0 -38 -31 -73.5t-84 -52.5l-16 28q47 20 58 57
q-20 4 -31.5 17t-11.5 32q0 21 17 36.5t41 15.5q25 0 41.5 -16.5t16.5 -43.5z" />
    <glyph glyph-name="Ncaron" unicode="&#x147;" horiz-adv-x="758" 
d="M733 650v-15l-90 -60v-575h-86l-358 493v-421l5 -5h75v-67h-234v67h75l5 5v503l-90 60v15h209l325 -459v384l-90 60v15h254zM227 843h57l103 -58l103 58h57l-124 -134h-72z" />
    <glyph glyph-name="ncaron" unicode="&#x148;" horiz-adv-x="535" 
d="M516 63v-63h-215v64h45l5 5v178q0 59 -18 80.5t-62 21.5q-30 0 -77 -12v-268l5 -5h45v-64h-215v64h45l5 5v243l-64 39v13l150 77l13 -7l12 -59q48 32 82.5 46t72.5 14q56 0 88.5 -29t32.5 -88v-249l5 -6h45zM439 677l-127 -184h-68l-116 184h55l98 -90l103 90h55z" />
    <glyph glyph-name="Eng" unicode="&#x14a;" horiz-adv-x="763" 
d="M733 650v-15l-90 -60v-612q0 -165 -126 -190l-10 26q33 18 47.5 46.5t14.5 83.5v54l-370 509v-420l5 -5h80v-67h-239v67h75l5 5v503l-90 60v15h208l326 -460v385l-90 60v15h254z" />
    <glyph glyph-name="eng" unicode="&#x14b;" horiz-adv-x="530" 
d="M466 318v-310q0 -103 -51 -157t-145 -68l-16 30q52 22 74.5 55.5t22.5 99.5v279q0 56 -17 79t-56 23t-84 -12v-268l5 -5h45v-64h-215v64h45l5 5v243l-64 39v13l150 77l13 -7l12 -59q46 30 82 45t67 15q127 0 127 -117z" />
    <glyph glyph-name="Omacron" unicode="&#x14c;" horiz-adv-x="734" 
d="M45 319q0 102 44 180.5t120 122t171 43.5q91 0 161 -40t109 -114.5t39 -175.5q0 -103 -42.5 -182.5t-117.5 -123.5t-170 -44q-92 0 -163 40t-111 115.5t-40 178.5zM549 320q0 86 -22 149.5t-62.5 98t-95.5 34.5q-85 0 -134.5 -71t-49.5 -196q0 -137 49 -212t135 -75
q84 0 132 69t48 203zM241 801h264v-78h-264v78z" />
    <glyph glyph-name="omacron" unicode="&#x14d;" horiz-adv-x="484" 
d="M30 202q0 66 27.5 119t77 83.5t113.5 30.5q59 0 105.5 -26t73.5 -75.5t27 -115.5q0 -67 -28 -119t-77.5 -80.5t-112.5 -28.5q-61 0 -107.5 26.5t-72.5 74.5t-26 111zM332 179q0 56 -13.5 100.5t-37 69t-53.5 24.5q-35 0 -55.5 -34.5t-20.5 -95.5q0 -56 13.5 -100.5
t37 -69t53.5 -24.5q35 0 55.5 34.5t20.5 95.5zM117 619h264v-78h-264v78z" />
    <glyph glyph-name="Obreve" unicode="&#x14e;" horiz-adv-x="734" 
d="M45 319q0 102 44 180.5t120 122t171 43.5q91 0 161 -40t109 -114.5t39 -175.5q0 -103 -42.5 -182.5t-117.5 -123.5t-170 -44q-92 0 -163 40t-111 115.5t-40 178.5zM549 320q0 86 -22 149.5t-62.5 98t-95.5 34.5q-85 0 -134.5 -71t-49.5 -196q0 -137 49 -212t135 -75
q84 0 132 69t48 203zM233 863h49q4 -35 27.5 -52.5t63.5 -17.5q38 0 64.5 18t30.5 52h45q-4 -72 -39.5 -110t-100.5 -38q-66 0 -102 38t-38 110z" />
    <glyph glyph-name="obreve" unicode="&#x14f;" horiz-adv-x="484" 
d="M30 202q0 66 27.5 119t77 83.5t113.5 30.5q59 0 105.5 -26t73.5 -75.5t27 -115.5q0 -67 -28 -119t-77.5 -80.5t-112.5 -28.5q-61 0 -107.5 26.5t-72.5 74.5t-26 111zM332 179q0 56 -13.5 100.5t-37 69t-53.5 24.5q-35 0 -55.5 -34.5t-20.5 -95.5q0 -56 13.5 -100.5
t37 -69t53.5 -24.5q35 0 55.5 34.5t20.5 95.5zM106 664h51q4 -49 26 -71t63 -22q42 0 66.5 21.5t28.5 71.5h45q0 -85 -36 -129.5t-104 -44.5t-104 44.5t-36 129.5z" />
    <glyph glyph-name="Ohungarumlaut" unicode="&#x150;" horiz-adv-x="734" 
d="M45 319q0 102 44 180.5t120 122t171 43.5q91 0 161 -40t109 -114.5t39 -175.5q0 -103 -42.5 -182.5t-117.5 -123.5t-170 -44q-92 0 -163 40t-111 115.5t-40 178.5zM549 320q0 86 -22 149.5t-62.5 98t-95.5 34.5q-85 0 -134.5 -71t-49.5 -196q0 -137 49 -212t135 -75
q84 0 132 69t48 203zM352 842h146v-7l-201 -127h-57zM522 842h146v-7l-201 -127h-57z" />
    <glyph glyph-name="ohungarumlaut" unicode="&#x151;" horiz-adv-x="484" 
d="M30 202q0 66 27.5 119t77 83.5t113.5 30.5q59 0 105.5 -26t73.5 -75.5t27 -115.5q0 -67 -28 -119t-77.5 -80.5t-112.5 -28.5q-61 0 -107.5 26.5t-72.5 74.5t-26 111zM332 179q0 56 -13.5 100.5t-37 69t-53.5 24.5q-35 0 -55.5 -34.5t-20.5 -95.5q0 -56 13.5 -100.5
t37 -69t53.5 -24.5q35 0 55.5 34.5t20.5 95.5zM215 674h124v-14l-156 -170h-55zM389 674h124v-14l-156 -170h-55z" />
    <glyph glyph-name="OE" unicode="&#x152;" horiz-adv-x="955" 
d="M900 202l-3 -202h-520q-98 0 -173 38t-117 110t-42 171q0 97 45.5 172.5t124.5 117t175 41.5h489v-202h-19l-77 132h-188v-206h116l5 5v75h64v-231h-64v76l-5 5h-116v-234h205l81 132h19zM470 580h-71q-102 0 -160.5 -64.5t-58.5 -180.5q0 -128 59 -198t178 -70h48l5 5
v508z" />
    <glyph glyph-name="oe" unicode="&#x153;" horiz-adv-x="738" 
d="M690 83l19 -35q-75 -58 -161 -58q-46 0 -85 16t-68 45q-29 -29 -68.5 -45t-85.5 -16q-61 0 -107.5 26.5t-72.5 74.5t-26 111q0 66 27.5 119t77 83.5t113.5 30.5q45 0 83 -15.5t66 -44.5q28 28 65.5 44t80.5 16q76 0 120.5 -46.5t44.5 -121.5q0 -26 -5 -54h-248
q5 -73 39.5 -114t95.5 -41q44 0 95 25zM460 265h142q-1 61 -18.5 86.5t-49.5 25.5q-33 0 -52 -28.5t-22 -83.5zM337 179q0 56 -13.5 100.5t-37 69t-53.5 24.5q-35 0 -55.5 -34.5t-20.5 -95.5q0 -56 13.5 -100.5t37 -69t53.5 -24.5q35 0 55.5 34.5t20.5 95.5z" />
    <glyph glyph-name="Racute" unicode="&#x154;" horiz-adv-x="682" 
d="M677 67v-67h-176l-207 275h-44v-203l5 -5h75v-67h-285v67h75l5 5v503l-90 60v15h240q144 0 216 -45t72 -129q0 -63 -39.5 -111.5t-103.5 -71.5l174 -221l8 -5h75zM250 345h30q69 0 110.5 34t41.5 94q0 54 -34.5 80.5t-95.5 26.5h-52v-235zM343 842h146v-7l-201 -127h-57z
" />
    <glyph glyph-name="racute" unicode="&#x155;" horiz-adv-x="362" 
d="M194 316v-247l5 -5h60v-64h-230v64h45l5 5v242l-64 39v13l150 77l13 -7l13 -72q81 74 132 74q16 0 29 -5v-129q-60 17 -125 17q-11 0 -33 -2zM246 674h124v-14l-156 -170h-55z" />
    <glyph glyph-name="Rcommaaccent" unicode="&#x156;" horiz-adv-x="682" 
d="M677 67v-67h-176l-207 275h-44v-203l5 -5h75v-67h-285v67h75l5 5v503l-90 60v15h240q144 0 216 -45t72 -129q0 -63 -39.5 -111.5t-103.5 -71.5l174 -221l8 -5h75zM250 345h30q69 0 110.5 34t41.5 94q0 54 -34.5 80.5t-95.5 26.5h-52v-235zM442 -122q0 -38 -31 -73.5
t-84 -52.5l-16 28q47 20 58 57q-20 4 -31.5 17t-11.5 32q0 21 17 36.5t41 15.5q25 0 41.5 -16.5t16.5 -43.5z" />
    <glyph glyph-name="rcommaaccent" unicode="&#x157;" horiz-adv-x="362" 
d="M194 316v-247l5 -5h60v-64h-230v64h45l5 5v242l-64 39v13l150 77l13 -7l13 -72q81 74 132 74q16 0 29 -5v-129q-60 17 -125 17q-11 0 -33 -2zM200 -122q0 -38 -31 -73.5t-84 -52.5l-16 28q47 20 58 57q-20 4 -31.5 17t-11.5 32q0 21 17 36.5t41 15.5q25 0 41.5 -16.5
t16.5 -43.5z" />
    <glyph glyph-name="Rcaron" unicode="&#x158;" horiz-adv-x="682" 
d="M677 67v-67h-176l-207 275h-44v-203l5 -5h75v-67h-285v67h75l5 5v503l-90 60v15h240q144 0 216 -45t72 -129q0 -63 -39.5 -111.5t-103.5 -71.5l174 -221l8 -5h75zM250 345h30q69 0 110.5 34t41.5 94q0 54 -34.5 80.5t-95.5 26.5h-52v-235zM132 843h57l103 -58l103 58h57
l-124 -134h-72z" />
    <glyph glyph-name="rcaron" unicode="&#x159;" horiz-adv-x="362" 
d="M194 316v-247l5 -5h60v-64h-230v64h45l5 5v242l-64 39v13l150 77l13 -7l13 -72q81 74 132 74q16 0 29 -5v-129q-60 17 -125 17q-11 0 -33 -2zM384 677l-127 -184h-68l-116 184h55l98 -90l103 90h55z" />
    <glyph glyph-name="Sacute" unicode="&#x15a;" horiz-adv-x="515" 
d="M52 37v196h17l58 -112q34 -37 66.5 -52.5t70.5 -15.5q47 0 74 21.5t27 62.5q0 35 -30 65t-115 72q-84 42 -125 90t-41 115q0 56 28 98.5t77 65t112 22.5q86 0 162 -42v-188h-15l-75 123q-18 20 -40.5 30t-57.5 10q-37 0 -61.5 -22.5t-24.5 -59.5q0 -24 11.5 -42.5
t40 -39.5t82.5 -49q68 -36 106 -67t54.5 -63.5t16.5 -74.5q0 -55 -26 -99.5t-77 -70t-122 -25.5q-100 0 -193 52zM290 842h146v-7l-201 -127h-57z" />
    <glyph glyph-name="sacute" unicode="&#x15b;" horiz-adv-x="371" 
d="M40 23v144h13l55 -68q19 -24 42.5 -37.5t47.5 -13.5q26 0 39 11.5t13 30.5q0 21 -15.5 34.5t-51.5 31.5q-19 9 -35 18q-59 34 -83 64.5t-24 75.5q0 56 45 88.5t121 32.5q61 0 118 -21v-135h-13l-58 69q-31 29 -63 29q-22 0 -34.5 -11t-12.5 -28q0 -25 22 -41.5t74 -42.5
q60 -30 86.5 -60.5t26.5 -73.5q0 -61 -43 -95.5t-120 -34.5q-36 0 -78.5 9.5t-71.5 23.5zM220 674h124v-14l-156 -170h-55z" />
    <glyph glyph-name="Scircumflex" unicode="&#x15c;" horiz-adv-x="515" 
d="M52 37v196h17l58 -112q34 -37 66.5 -52.5t70.5 -15.5q47 0 74 21.5t27 62.5q0 35 -30 65t-115 72q-84 42 -125 90t-41 115q0 56 28 98.5t77 65t112 22.5q86 0 162 -42v-188h-15l-75 123q-18 20 -40.5 30t-57.5 10q-37 0 -61.5 -22.5t-24.5 -59.5q0 -24 11.5 -42.5
t40 -39.5t82.5 -49q68 -36 106 -67t54.5 -63.5t16.5 -74.5q0 -55 -26 -99.5t-77 -70t-122 -25.5q-100 0 -193 52zM236 842h72l124 -134h-57l-103 58l-103 -58h-57z" />
    <glyph glyph-name="scircumflex" unicode="&#x15d;" horiz-adv-x="371" 
d="M40 23v144h13l55 -68q19 -24 42.5 -37.5t47.5 -13.5q26 0 39 11.5t13 30.5q0 21 -15.5 34.5t-51.5 31.5q-19 9 -35 18q-59 34 -83 64.5t-24 75.5q0 56 45 88.5t121 32.5q61 0 118 -21v-135h-13l-58 69q-31 29 -63 29q-22 0 -34.5 -11t-12.5 -28q0 -25 22 -41.5t74 -42.5
q60 -30 86.5 -60.5t26.5 -73.5q0 -61 -43 -95.5t-120 -34.5q-36 0 -78.5 9.5t-71.5 23.5zM306 490l-98 90l-103 -90h-55l127 184h68l116 -184h-55z" />
    <glyph glyph-name="Scedilla" unicode="&#x15e;" horiz-adv-x="515" 
d="M281 -13l-19 -49q6 1 21 1q37 0 60.5 -21t23.5 -52q0 -41 -32 -68.5t-78 -27.5q-50 0 -96 36l14 26q25 -14 47 -14q24 0 40.5 10t16.5 29q0 20 -14 30t-39 10q-15 0 -33 -2l35 90q-90 4 -176 52v196h17l58 -112q34 -37 66.5 -52.5t70.5 -15.5q47 0 74 21.5t27 62.5
q0 35 -30 65t-115 72q-84 42 -125 90t-41 115q0 56 28 98.5t77 65t112 22.5q86 0 162 -42v-188h-15l-60 98q-25 31 -51 48t-62 17q-37 0 -61.5 -22.5t-24.5 -59.5q0 -24 11.5 -42.5t40 -39.5t82.5 -49q68 -36 106 -67t54.5 -63.5t16.5 -74.5q0 -78 -49.5 -131t-139.5 -62z
" />
    <glyph glyph-name="scedilla" unicode="&#x15f;" horiz-adv-x="371" 
d="M200 -10l-20 -52q6 1 21 1q37 0 60.5 -21t23.5 -52q0 -41 -32 -68.5t-78 -27.5q-50 0 -96 36l14 26q25 -14 47 -14q24 0 40.5 10t16.5 29q0 20 -14 30t-39 10q-15 0 -33 -2l38 98q-61 8 -109 30v144h13l55 -68q19 -24 42.5 -37.5t47.5 -13.5q26 0 39 11.5t13 30.5
q0 21 -15.5 34.5t-51.5 31.5q-19 9 -35 18q-59 34 -83 64.5t-24 75.5q0 56 45 88.5t121 32.5q61 0 118 -21v-135h-13l-58 69q-31 29 -63 29q-22 0 -34.5 -11t-12.5 -28q0 -25 22 -41.5t74 -42.5q60 -30 86.5 -60.5t26.5 -73.5q0 -59 -40.5 -93.5t-112.5 -36.5z" />
    <glyph glyph-name="Scaron" unicode="&#x160;" horiz-adv-x="515" 
d="M52 37v196h17l58 -112q34 -37 66.5 -52.5t70.5 -15.5q47 0 74 21.5t27 62.5q0 35 -30 65t-115 72q-84 42 -125 90t-41 115q0 56 28 98.5t77 65t112 22.5q86 0 162 -42v-188h-15l-75 123q-18 20 -40.5 30t-57.5 10q-37 0 -61.5 -22.5t-24.5 -59.5q0 -24 11.5 -42.5
t40 -39.5t82.5 -49q68 -36 106 -67t54.5 -63.5t16.5 -74.5q0 -55 -26 -99.5t-77 -70t-122 -25.5q-100 0 -193 52zM111 843h57l103 -58l103 58h57l-124 -134h-72z" />
    <glyph glyph-name="scaron" unicode="&#x161;" horiz-adv-x="371" 
d="M40 23v144h13l55 -68q19 -24 42.5 -37.5t47.5 -13.5q26 0 39 11.5t13 30.5q0 21 -15.5 34.5t-51.5 31.5q-19 9 -35 18q-59 34 -83 64.5t-24 75.5q0 56 45 88.5t121 32.5q61 0 118 -21v-135h-13l-58 69q-31 29 -63 29q-22 0 -34.5 -11t-12.5 -28q0 -25 22 -41.5t74 -42.5
q60 -30 86.5 -60.5t26.5 -73.5q0 -61 -43 -95.5t-120 -34.5q-36 0 -78.5 9.5t-71.5 23.5zM358 677l-127 -184h-68l-116 184h55l98 -90l103 90h55z" />
    <glyph glyph-name="uni0162" unicode="&#x162;" horiz-adv-x="666" 
d="M636 650v-213h-19l-77 143h-144v-508l5 -5h75v-67h-127l-24 -62q6 1 21 1q37 0 60.5 -21t23.5 -52q0 -41 -32 -68.5t-78 -27.5q-50 0 -96 36l14 26q25 -14 47 -14q24 0 40.5 10t16.5 29q0 20 -14 30t-39 10q-15 0 -33 -2l41 105h-106v67h75l5 5v508h-144l-78 -143h-19
v213h606z" />
    <glyph glyph-name="uni0163" unicode="&#x163;" horiz-adv-x="345" 
d="M304 -134q0 -41 -32 -68.5t-78 -27.5q-50 0 -96 36l14 26q25 -14 47 -14q24 0 40.5 10t16.5 29q0 20 -14 30t-39 10q-15 0 -33 -2l37 95q-50 3 -75.5 34t-25.5 97v230l-5 5h-56v13l163 170h13v-119h133v-64h-133v-187q0 -60 12.5 -84t42.5 -24q32 0 74 22l19 -35
q-45 -40 -108 -54l-22 -56q6 1 21 1q37 0 60.5 -21t23.5 -52z" />
    <glyph glyph-name="Tcaron" unicode="&#x164;" horiz-adv-x="666" 
d="M191 67h75l5 5v508h-144l-78 -143h-19v213h606v-213h-19l-77 143h-144v-508l5 -5h75v-67h-285v67zM180 843h57l103 -58l103 58h57l-124 -134h-72z" />
    <glyph glyph-name="tcaron" unicode="&#x165;" horiz-adv-x="366" 
d="M256 684h100l-75 -193h-50zM74 121v230l-5 5h-56v13l163 170h13v-119h133v-64h-133v-187q0 -60 12.5 -84t42.5 -24q32 0 74 22l19 -35q-30 -26 -69.5 -42t-80.5 -16q-56 0 -84.5 30.5t-28.5 100.5z" />
    <glyph glyph-name="Tbar" unicode="&#x166;" horiz-adv-x="666" 
d="M636 650v-213h-19l-77 143h-144v-216h155v-70h-155v-222l5 -5h75v-67h-285v67h75l5 5v222h-155v70h155v216h-144l-78 -143h-19v213h606z" />
    <glyph glyph-name="tbar" unicode="&#x167;" horiz-adv-x="345" 
d="M337 48q-30 -26 -69.5 -42t-80.5 -16q-56 0 -84.5 30.5t-28.5 100.5v80h-61v64h61v86l-5 5h-56v13l163 170h13v-119h133v-64h-133v-91h133v-64h-133v-32q0 -60 12.5 -84t42.5 -24q32 0 74 22z" />
    <glyph glyph-name="Utilde" unicode="&#x168;" horiz-adv-x="760" 
d="M125 244v331l-90 60v15h305v-15l-90 -60v-327q0 -102 36.5 -151t121.5 -49q83 0 122.5 51t39.5 171v305l-90 60v15h255v-15l-90 -60v-319q0 -138 -62 -204.5t-184 -66.5q-138 0 -206 63.5t-68 195.5zM414 735q-19 11 -33.5 17t-30.5 6q-17 0 -30 -11t-19 -29l-31 18
q8 47 33.5 77t60.5 30q21 0 37 -6.5t37 -19.5q19 -11 31 -16t25 -5q33 0 45 30l32 -16q-12 -45 -33.5 -72t-53.5 -27q-18 0 -34 6t-36 18z" />
    <glyph glyph-name="utilde" unicode="&#x169;" 
d="M500 64v-64h-164v60q-43 -36 -75 -53t-72 -17q-56 0 -85.5 30.5t-29.5 87.5v195l-64 40v12l165 80l14 -7v-257q0 -52 18 -72.5t60 -20.5q34 0 69 10v222l-64 40v12l165 80l14 -7v-366l4 -5h45zM252 543q-19 11 -33.5 17t-30.5 6q-17 0 -30 -11t-19 -29l-31 18
q8 47 33.5 77t60.5 30q21 0 37 -6.5t37 -19.5q19 -11 31 -16t25 -5q33 0 45 30l32 -16q-12 -45 -33.5 -72t-53.5 -27q-18 0 -34 6t-36 18z" />
    <glyph glyph-name="Umacron" unicode="&#x16a;" horiz-adv-x="760" 
d="M125 244v331l-90 60v15h305v-15l-90 -60v-327q0 -102 36.5 -151t121.5 -49q83 0 122.5 51t39.5 171v305l-90 60v15h255v-15l-90 -60v-319q0 -138 -62 -204.5t-184 -66.5q-138 0 -206 63.5t-68 195.5zM270 801h264v-78h-264v78z" />
    <glyph glyph-name="umacron" unicode="&#x16b;" 
d="M500 64v-64h-164v60q-43 -36 -75 -53t-72 -17q-56 0 -85.5 30.5t-29.5 87.5v195l-64 40v12l165 80l14 -7v-257q0 -52 18 -72.5t60 -20.5q34 0 69 10v222l-64 40v12l165 80l14 -7v-366l4 -5h45zM136 619h264v-78h-264v78z" />
    <glyph glyph-name="Ubreve" unicode="&#x16c;" horiz-adv-x="760" 
d="M125 244v331l-90 60v15h305v-15l-90 -60v-327q0 -102 36.5 -151t121.5 -49q83 0 122.5 51t39.5 171v305l-90 60v15h255v-15l-90 -60v-319q0 -138 -62 -204.5t-184 -66.5q-138 0 -206 63.5t-68 195.5zM262 863h49q4 -35 27.5 -52.5t63.5 -17.5q38 0 64.5 18t30.5 52h45
q-4 -72 -39.5 -110t-100.5 -38q-66 0 -102 38t-38 110z" />
    <glyph glyph-name="ubreve" unicode="&#x16d;" 
d="M500 64v-64h-164v60q-43 -36 -75 -53t-72 -17q-56 0 -85.5 30.5t-29.5 87.5v195l-64 40v12l165 80l14 -7v-257q0 -52 18 -72.5t60 -20.5q34 0 69 10v222l-64 40v12l165 80l14 -7v-366l4 -5h45zM135 664h51q4 -49 26 -71t63 -22q42 0 66.5 21.5t28.5 71.5h45
q0 -85 -36 -129.5t-104 -44.5t-104 44.5t-36 129.5z" />
    <glyph glyph-name="Uring" unicode="&#x16e;" horiz-adv-x="760" 
d="M125 244v331l-90 60v15h305v-15l-90 -60v-327q0 -102 36.5 -151t121.5 -49q83 0 122.5 51t39.5 171v305l-90 60v15h255v-15l-90 -60v-319q0 -138 -62 -204.5t-184 -66.5q-138 0 -206 63.5t-68 195.5zM303 775q0 42 32 67t81 25q47 0 77.5 -23t31.5 -61q0 -41 -32 -66
t-83 -25q-47 0 -77 22.5t-30 60.5zM452 773q0 24 -11 39t-30 15q-17 0 -26.5 -11.5t-9.5 -29.5q0 -24 11 -39t31 -15q16 0 25.5 10.5t9.5 30.5z" />
    <glyph glyph-name="uring" unicode="&#x16f;" 
d="M500 64v-64h-164v60q-43 -36 -75 -53t-72 -17q-56 0 -85.5 30.5t-29.5 87.5v195l-64 40v12l165 80l14 -7v-257q0 -52 18 -72.5t60 -20.5q34 0 69 10v222l-64 40v12l165 80l14 -7v-366l4 -5h45zM152 571q0 46 33 72.5t84 26.5q48 0 80 -25.5t33 -65.5q0 -43 -33.5 -71.5
t-85.5 -28.5q-48 0 -79.5 26t-31.5 66zM309 569q0 26 -12 43.5t-33 17.5q-19 0 -29.5 -14t-10.5 -34q0 -27 12 -45t34 -18q17 0 28 13.5t11 36.5z" />
    <glyph glyph-name="Uhungarumlaut" unicode="&#x170;" horiz-adv-x="760" 
d="M125 244v331l-90 60v15h305v-15l-90 -60v-327q0 -102 36.5 -151t121.5 -49q83 0 122.5 51t39.5 171v305l-90 60v15h255v-15l-90 -60v-319q0 -138 -62 -204.5t-184 -66.5q-138 0 -206 63.5t-68 195.5zM381 842h146v-7l-201 -127h-57zM551 842h146v-7l-201 -127h-57z" />
    <glyph glyph-name="uhungarumlaut" unicode="&#x171;" 
d="M500 64v-64h-164v60q-43 -36 -75 -53t-72 -17q-56 0 -85.5 30.5t-29.5 87.5v195l-64 40v12l165 80l14 -7v-257q0 -52 18 -72.5t60 -20.5q34 0 69 10v222l-64 40v12l165 80l14 -7v-366l4 -5h45zM214 674h124v-14l-156 -170h-55zM388 674h124v-14l-156 -170h-55z" />
    <glyph glyph-name="Uogonek" unicode="&#x172;" horiz-adv-x="760" 
d="M735 650v-15l-90 -60v-319q0 -105 -36 -167.5t-107 -90.5q-40 -15 -71.5 -46.5t-31.5 -68.5q0 -22 12.5 -33.5t33.5 -11.5q19 0 36 9l14 -28q-31 -25 -57 -37t-56 -12q-37 0 -59.5 21t-22.5 56q0 36 27.5 72.5t72.5 65.5h-1q-138 0 -206 63.5t-68 195.5v331l-90 60v15
h305v-15l-90 -60v-327q0 -102 36.5 -151t121.5 -49q83 0 122.5 51t39.5 171v305l-90 60v15h255z" />
    <glyph glyph-name="uogonek" unicode="&#x173;" 
d="M385 -117q0 -22 12.5 -33.5t33.5 -11.5q20 0 36 9l14 -28q-31 -25 -57 -37t-56 -12q-37 0 -59.5 21t-22.5 56q0 41 35.5 82.5t89.5 70.5h-75v60q-43 -36 -75.5 -53t-72.5 -17q-55 0 -84.5 30.5t-29.5 87.5v195l-64 40v12l165 80l14 -7v-257q0 -52 18 -72.5t60 -20.5
q34 0 69 10v222l-64 40v12l165 80l14 -7v-366l4 -5h45v-64q-28 -4 -55 -22t-43.5 -43.5t-16.5 -51.5z" />
    <glyph glyph-name="Wcircumflex" unicode="&#x174;" horiz-adv-x="996" 
d="M996 650v-15l-90 -60l-214 -575h-47l-137 384l-158 -384h-46l-219 575l-90 60v15h315v-15l-90 -60l139 -393h4l110 300l-60 168h134l149 -468h4l127 393l-90 60v15h259zM462 842h72l124 -134h-57l-103 58l-103 -58h-57z" />
    <glyph glyph-name="wcircumflex" unicode="&#x175;" horiz-adv-x="708" 
d="M719 420v-13l-64 -56l-155 -361h-44l-84 215l-120 -215h-41l-160 361l-61 55v14h246v-13l-60 -56l87 -215h5l77 139l-48 123l113 33l92 -288h5l78 209l-61 55v13h195zM484 490l-98 90l-103 -90h-55l127 184h68l116 -184h-55z" />
    <glyph glyph-name="Ycircumflex" unicode="&#x176;" horiz-adv-x="687" 
d="M208 67h75l5 5v170l-208 333l-90 60v15h318v-15l-90 -60l156 -262h4l150 262l-90 60v15h259v-15l-90 -60l-194 -319v-184l5 -5h75v-67h-285v67zM344 842h72l124 -134h-57l-103 58l-103 -58h-57z" />
    <glyph glyph-name="ycircumflex" unicode="&#x177;" horiz-adv-x="497" 
d="M20 -190v9l204 173l-169 359l-65 55v14h246v-13l-56 -56l93 -213h6l94 213l-55 55v14h189v-13l-64 -56l-175 -373l-114 -223zM385 490l-98 90l-103 -90h-55l127 184h68l116 -184h-55z" />
    <glyph glyph-name="Ydieresis" unicode="&#x178;" horiz-adv-x="687" 
d="M208 67h75l5 5v170l-208 333l-90 60v15h318v-15l-90 -60l156 -262h4l150 262l-90 60v15h259v-15l-90 -60l-194 -319v-184l5 -5h75v-67h-285v67zM216 776q0 27 19.5 46.5t46.5 19.5q28 0 47.5 -19.5t19.5 -46.5q0 -28 -19.5 -47.5t-47.5 -19.5q-27 0 -46.5 19.5
t-19.5 47.5zM409 776q0 27 19.5 46.5t46.5 19.5q28 0 47.5 -19.5t19.5 -46.5q0 -28 -19.5 -47.5t-47.5 -19.5q-27 0 -46.5 19.5t-19.5 47.5z" />
    <glyph glyph-name="Zacute" unicode="&#x179;" horiz-adv-x="559" 
d="M179 67h250l78 145h15v-212h-502v18l345 564h-222l-80 -145h-15v213h481l-2 -18zM326 840h146v-7l-201 -127h-57z" />
    <glyph glyph-name="zacute" unicode="&#x17a;" horiz-adv-x="437" 
d="M31 17l218 334v5h-134l-61 -90h-12v154h361v-19l-211 -333v-4h144l58 90h12v-154h-375v17zM263 674h124v-14l-156 -170h-55z" />
    <glyph glyph-name="Zdotaccent" unicode="&#x17b;" horiz-adv-x="559" 
d="M179 67h250l78 145h15v-212h-502v18l345 564h-222l-80 -145h-15v213h481l-2 -18zM220 774q0 27 19.5 46.5t46.5 19.5q28 0 47.5 -19.5t19.5 -46.5q0 -28 -19.5 -47.5t-47.5 -19.5q-27 0 -46.5 19.5t-19.5 47.5z" />
    <glyph glyph-name="zdotaccent" unicode="&#x17c;" horiz-adv-x="438" 
d="M31 17l218 334v5h-134l-61 -90h-12v154h361v-19l-211 -333v-4h144l58 90h12v-154h-375v17zM159 584q0 29 20.5 49t49.5 20t49 -20t20 -49t-20 -49.5t-49 -20.5t-49.5 20.5t-20.5 49.5z" />
    <glyph glyph-name="Zcaron" unicode="&#x17d;" horiz-adv-x="559" 
d="M179 67h250l78 145h15v-212h-502v18l345 564h-222l-80 -145h-15v213h481l-2 -18zM133 840h57l103 -58l103 58h57l-124 -134h-72z" />
    <glyph glyph-name="zcaron" unicode="&#x17e;" horiz-adv-x="437" 
d="M31 17l218 334v5h-134l-61 -90h-12v154h361v-19l-211 -333v-4h144l58 90h12v-154h-375v17zM386 677l-127 -184h-68l-116 184h55l98 -90l103 90h55z" />
    <glyph glyph-name="longs" unicode="&#x17f;" horiz-adv-x="336" 
d="M32 64h45l5 5v281l-5 6h-45v64h45l5 5v32q0 136 48.5 198t147.5 62q44 0 93 -17v-137h-8l-54 59q-17 18 -30 26t-31 8q-26 0 -38.5 -22t-12.5 -73v-492l5 -5h65v-64h-235v64z" />
    <glyph glyph-name="florin" unicode="&#x192;" horiz-adv-x="445" 
d="M422 507v-108h-8l-31 34q-16 17 -27 25.5t-21 8.5q-17 0 -26.5 -26.5t-16.5 -83.5l-4 -32h108v-56h-114l-24 -198q-11 -94 -58.5 -135.5t-110.5 -41.5q-35 0 -66 12v107h7l35 -35q19 -19 30.5 -26.5t21.5 -7.5q19 0 29 20t14 60l26 245h-54v56h60v1q11 101 54 146.5
t108 45.5q33 0 68 -11z" />
    <glyph glyph-name="Aringacute" unicode="&#x1fa;" horiz-adv-x="679" 
d="M669 67v-67h-259v67h60l5 5l-45 106h-241l-41 -106l5 -5h60v-67h-203v67h55l5 5l239 578h53l249 -578l5 -5h53zM402 246l-95 224h-5l-87 -224h187zM223 775q0 42 32 67t81 25q47 0 77.5 -23t31.5 -61q0 -41 -32 -66t-83 -25q-47 0 -77 22.5t-30 60.5zM372 773
q0 24 -11 39t-30 15q-17 0 -26.5 -11.5t-9.5 -29.5q0 -24 11 -39t31 -15q16 0 25.5 10.5t9.5 30.5zM422 1040h146v-7l-201 -127h-57z" />
    <glyph glyph-name="aringacute" unicode="&#x1fb;" horiz-adv-x="433" 
d="M414 64v-64h-165v35q-67 -46 -124 -46q-41 0 -70 24t-29 75q0 61 50.5 99.5t172.5 51.5v18q0 52 -19 77.5t-62 25.5q-47 0 -105 -37l-19 38q74 74 173 74q77 0 112 -43t35 -128v-195l5 -5h45zM249 70v120q-59 -5 -85 -23t-26 -53q0 -27 15.5 -40t41.5 -13q20 0 54 9z
M97 571q0 46 33 72.5t84 26.5q48 0 80 -25.5t33 -65.5q0 -43 -33.5 -71.5t-85.5 -28.5q-48 0 -79.5 26t-31.5 66zM254 569q0 26 -12 43.5t-33 17.5q-19 0 -29.5 -14t-10.5 -34q0 -27 12 -45t34 -18q17 0 28 13.5t11 36.5zM287 840h146v-7l-201 -127h-57z" />
    <glyph glyph-name="AEacute" unicode="&#x1fc;" horiz-adv-x="915" 
d="M860 202l-3 -202h-507v67h75l5 5v212h-165l-113 -212l5 -5h60v-67h-203v67h55l5 5l263 512l-77 51v15h579v-202h-19l-77 132h-188v-226h116l5 5v75h64v-231h-64v76l-5 5h-116v-214h205l81 132h19zM430 354v226h-7l-121 -226h128zM610 840h146v-7l-201 -127h-57z" />
    <glyph glyph-name="aeacute" unicode="&#x1fd;" horiz-adv-x="649" 
d="M601 83l19 -35q-75 -58 -161 -58q-49 0 -90 18t-70 51q-89 -69 -166 -69q-49 0 -78 27.5t-29 77.5q0 63 53 101t170 51v10q0 52 -19 77.5t-62 25.5q-47 0 -105 -37l-19 38q74 74 173 74q78 0 114 -45q53 45 128 45q76 0 120.5 -46.5t44.5 -121.5q0 -26 -5 -54h-248
q5 -73 39.5 -114t95.5 -41q44 0 95 25zM371 265h142q-1 61 -18.5 86.5t-49.5 25.5q-33 0 -52 -28.5t-22 -83.5zM282 81q-33 51 -34 120q-110 -12 -110 -86q0 -27 14 -42.5t42 -15.5q36 0 88 24zM397 674h124v-14l-156 -170h-55z" />
    <glyph glyph-name="Oslashacute" unicode="&#x1fe;" horiz-adv-x="735" 
d="M618 561q72 -88 72 -226q0 -103 -42.5 -182.5t-117.5 -123.5t-170 -44q-112 0 -191 58l-37 -43h-92l79 91q-73 89 -73 228q0 102 44 180.5t120 122t171 43.5q109 0 185 -55l35 40h94zM205 191l293 340q-48 71 -128 71q-85 0 -134.5 -71t-49.5 -196q0 -86 19 -144z
M531 461l-294 -340q47 -73 133 -73q84 0 132 69t48 203q0 78 -19 141zM448 840h146v-7l-201 -127h-57z" />
    <glyph glyph-name="oslashacute" unicode="&#x1ff;" horiz-adv-x="484" 
d="M406 365q48 -59 48 -147q0 -67 -28 -119t-77.5 -80.5t-112.5 -28.5q-65 0 -112 29l-32 -39h-82l66 81q-46 57 -46 141q0 66 27.5 119t77 83.5t113.5 30.5q61 0 109 -28l31 38h84zM160 164l135 167q-28 42 -67 42q-35 0 -55.5 -34.5t-20.5 -95.5q0 -41 8 -79zM323 263
l-137 -168q29 -46 70 -46q35 0 55.5 34.5t20.5 95.5q0 47 -9 84zM295 674h124v-14l-156 -170h-55z" />
    <glyph glyph-name="Scommaaccent" unicode="&#x218;" horiz-adv-x="515" 
d="M318 -122q0 -38 -31 -73.5t-84 -52.5l-16 28q47 20 58 57q-20 4 -31.5 17t-11.5 32q0 21 17 36.5t41 15.5q25 0 41.5 -16.5t16.5 -43.5zM52 37v196h17l58 -112q34 -37 66.5 -52.5t70.5 -15.5q47 0 74 21.5t27 62.5q0 35 -30 65t-115 72q-84 42 -125 90t-41 115
q0 56 28 98.5t77 65t112 22.5q86 0 162 -42v-188h-15l-75 123q-18 20 -40.5 30t-57.5 10q-37 0 -61.5 -22.5t-24.5 -59.5q0 -24 11.5 -42.5t40 -39.5t82.5 -49q68 -36 106 -67t54.5 -63.5t16.5 -74.5q0 -55 -26 -99.5t-77 -70t-122 -25.5q-100 0 -193 52z" />
    <glyph glyph-name="scommaaccent" unicode="&#x219;" horiz-adv-x="371" 
d="M40 23v144h13l55 -68q19 -24 42.5 -37.5t47.5 -13.5q26 0 39 11.5t13 30.5q0 21 -15.5 34.5t-51.5 31.5q-19 9 -35 18q-59 34 -83 64.5t-24 75.5q0 56 45 88.5t121 32.5q61 0 118 -21v-135h-13l-58 69q-31 29 -63 29q-22 0 -34.5 -11t-12.5 -28q0 -25 22 -41.5t74 -42.5
q60 -30 86.5 -60.5t26.5 -73.5q0 -61 -43 -95.5t-120 -34.5q-36 0 -78.5 9.5t-71.5 23.5zM236 -121q0 -38 -31 -73.5t-84 -52.5l-16 28q47 20 58 57q-20 4 -31.5 17t-11.5 32q0 21 17 36.5t41 15.5q25 0 41.5 -16.5t16.5 -43.5z" />
    <glyph glyph-name="uni021A" unicode="&#x21a;" horiz-adv-x="666" 
d="M191 67h75l5 5v508h-144l-78 -143h-19v213h606v-213h-19l-77 143h-144v-508l5 -5h75v-67h-285v67zM394 -122q0 -38 -31 -73.5t-84 -52.5l-16 28q47 20 58 57q-20 4 -31.5 17t-11.5 32q0 21 17 36.5t41 15.5q25 0 41.5 -16.5t16.5 -43.5z" />
    <glyph glyph-name="uni021B" unicode="&#x21b;" horiz-adv-x="345" 
d="M66 121v230l-5 5h-56v13l163 170h13v-119h133v-64h-133v-187q0 -60 12.5 -84t42.5 -24q32 0 74 22l19 -35q-30 -26 -69.5 -42t-80.5 -16q-56 0 -84.5 30.5t-28.5 100.5zM267 -122q0 -38 -31 -73.5t-84 -52.5l-16 28q47 20 58 57q-20 4 -31.5 17t-11.5 32q0 21 17 36.5
t41 15.5q25 0 41.5 -16.5t16.5 -43.5z" />
    <glyph glyph-name="circumflex" unicode="&#x2c6;" horiz-adv-x="331" 
d="M266 490l-98 90l-103 -90h-55l127 184h68l116 -184h-55z" />
    <glyph glyph-name="caron" unicode="&#x2c7;" horiz-adv-x="331" 
d="M321 677l-127 -184h-68l-116 184h55l98 -90l103 90h55z" />
    <glyph glyph-name="uni02C9" unicode="&#x2c9;" horiz-adv-x="304" 
d="M20 619h264v-78h-264v78z" />
    <glyph glyph-name="breve" unicode="&#x2d8;" horiz-adv-x="292" 
d="M6 664h51q4 -49 26 -71t63 -22q42 0 66.5 21.5t28.5 71.5h45q0 -85 -36 -129.5t-104 -44.5t-104 44.5t-36 129.5z" />
    <glyph glyph-name="dotaccent" unicode="&#x2d9;" horiz-adv-x="199" 
d="M32 584q0 29 20.5 49t49.5 20t49 -20t20 -49t-20 -49.5t-49 -20.5t-49.5 20.5t-20.5 49.5z" />
    <glyph glyph-name="ring" unicode="&#x2da;" horiz-adv-x="230" 
d="M0 571q0 46 33 72.5t84 26.5q48 0 80 -25.5t33 -65.5q0 -43 -33.5 -71.5t-85.5 -28.5q-48 0 -79.5 26t-31.5 66zM157 569q0 26 -12 43.5t-33 17.5q-19 0 -29.5 -14t-10.5 -34q0 -27 12 -45t34 -18q17 0 28 13.5t11 36.5z" />
    <glyph glyph-name="ogonek" unicode="&#x2db;" horiz-adv-x="270" 
d="M23 -158q0 43 37 89.5t96 83.5l35 -3q-38 -28 -62.5 -63.5t-24.5 -69.5q0 -23 11.5 -35t31.5 -12q21 0 49 13l15 -26q-32 -25 -57 -37t-55 -12q-31 0 -53.5 18t-22.5 54z" />
    <glyph glyph-name="tilde" unicode="&#x2dc;" horiz-adv-x="326" 
d="M157 543q-19 11 -33.5 17t-30.5 6q-17 0 -30 -11t-19 -29l-31 18q8 47 33.5 77t60.5 30q21 0 37 -6.5t37 -19.5q19 -11 31 -16t25 -5q33 0 45 30l32 -16q-12 -45 -33.5 -72t-53.5 -27q-18 0 -34 6t-36 18z" />
    <glyph glyph-name="hungarumlaut" unicode="&#x2dd;" horiz-adv-x="423" 
d="M101 674h124v-14l-156 -170h-55zM275 674h124v-14l-156 -170h-55z" />
    <glyph glyph-name="uni0326" unicode="&#x326;" horiz-adv-x="0" 
d="M-10 -122q0 -38 -31 -73.5t-84 -52.5l-16 28q47 20 58 57q-20 4 -31.5 17t-11.5 32q0 21 17 36.5t41 15.5q25 0 41.5 -16.5t16.5 -43.5z" />
    <glyph glyph-name="uni0394" unicode="&#x394;" horiz-adv-x="689" 
d="M669 0h-649l303 650h66zM316 478l-187 -411h365z" />
    <glyph glyph-name="uni03A9" unicode="&#x3a9;" horiz-adv-x="774" 
d="M734 202v-202h-303v70q58 44 94.5 123t36.5 165q0 115 -44 179.5t-131 64.5t-131 -64.5t-44 -179.5q0 -86 36.5 -165t94.5 -123v-70h-303v202h19l76 -132h123q-186 129 -186 300q0 84 42.5 151.5t114.5 105.5t158 38t158 -38t114.5 -105.5t42.5 -151.5q0 -171 -186 -300
h123l76 132h19z" />
    <glyph glyph-name="uni03BC" unicode="&#x3bc;" 
d="M500 64v-64h-164v61q-45 -37 -77.5 -54t-68.5 -17q-21 0 -39 5l51 -225h-128v533l-64 40v12l165 80l14 -7v-257q0 -52 18 -72.5t60 -20.5q34 0 69 10v222l-64 40v12l165 80l14 -7v-366l4 -5h45z" />
    <glyph glyph-name="pi" unicode="&#x3c0;" 
d="M520 20q-16 -15 -40.5 -25t-51.5 -10q-50 0 -80 33.5t-39 98.5l-30 223h-82v-340h-115v340h-57v85h440v-85h-71l30 -219q11 -77 53 -77q14 0 29 6z" />
    <glyph glyph-name="Wgrave" unicode="&#x1e80;" horiz-adv-x="996" 
d="M996 650v-15l-90 -60l-214 -575h-47l-137 384l-158 -384h-46l-219 575l-90 60v15h315v-15l-90 -60l139 -393h4l110 300l-60 168h134l149 -468h4l127 393l-90 60v15h259zM353 835v7h146l112 -134h-57z" />
    <glyph glyph-name="wgrave" unicode="&#x1e81;" horiz-adv-x="708" 
d="M719 420v-13l-64 -56l-155 -361h-44l-84 215l-120 -215h-41l-160 361l-61 55v14h246v-13l-60 -56l87 -215h5l77 139l-48 123l113 33l92 -288h5l78 209l-61 55v13h195zM369 490l-156 170v14h124l87 -184h-55z" />
    <glyph glyph-name="Wacute" unicode="&#x1e82;" horiz-adv-x="996" 
d="M996 650v-15l-90 -60l-214 -575h-47l-137 384l-158 -384h-46l-219 575l-90 60v15h315v-15l-90 -60l139 -393h4l110 300l-60 168h134l149 -468h4l127 393l-90 60v15h259zM511 842h146v-7l-201 -127h-57z" />
    <glyph glyph-name="wacute" unicode="&#x1e83;" horiz-adv-x="708" 
d="M719 420v-13l-64 -56l-155 -361h-44l-84 215l-120 -215h-41l-160 361l-61 55v14h246v-13l-60 -56l87 -215h5l77 139l-48 123l113 33l92 -288h5l78 209l-61 55v13h195zM398 674h124v-14l-156 -170h-55z" />
    <glyph glyph-name="Wdieresis" unicode="&#x1e84;" horiz-adv-x="996" 
d="M996 650v-15l-90 -60l-214 -575h-47l-137 384l-158 -384h-46l-219 575l-90 60v15h315v-15l-90 -60l139 -393h4l110 300l-60 168h134l149 -468h4l127 393l-90 60v15h259zM334 776q0 27 19.5 46.5t46.5 19.5q28 0 47.5 -19.5t19.5 -46.5q0 -28 -19.5 -47.5t-47.5 -19.5
q-27 0 -46.5 19.5t-19.5 47.5zM527 776q0 27 19.5 46.5t46.5 19.5q28 0 47.5 -19.5t19.5 -46.5q0 -28 -19.5 -47.5t-47.5 -19.5q-27 0 -46.5 19.5t-19.5 47.5z" />
    <glyph glyph-name="wdieresis" unicode="&#x1e85;" horiz-adv-x="708" 
d="M719 420v-13l-64 -56l-155 -361h-44l-84 215l-120 -215h-41l-160 361l-61 55v14h246v-13l-60 -56l87 -215h5l77 139l-48 123l113 33l92 -288h5l78 209l-61 55v13h195zM214 584q0 29 20.5 49t49.5 20t49 -20t20 -49t-20 -49.5t-49 -20.5t-49.5 20.5t-20.5 49.5zM414 584
q0 29 20.5 49t49.5 20t49 -20t20 -49t-20 -49.5t-49 -20.5t-49.5 20.5t-20.5 49.5z" />
    <glyph glyph-name="Ygrave" unicode="&#x1ef2;" horiz-adv-x="687" 
d="M208 67h75l5 5v170l-208 333l-90 60v15h318v-15l-90 -60l156 -262h4l150 262l-90 60v15h259v-15l-90 -60l-194 -319v-184l5 -5h75v-67h-285v67zM157 835v7h146l112 -134h-57z" />
    <glyph glyph-name="ygrave" unicode="&#x1ef3;" horiz-adv-x="497" 
d="M20 -190v9l204 173l-169 359l-65 55v14h246v-13l-56 -56l93 -213h6l94 213l-55 55v14h189v-13l-64 -56l-175 -373l-114 -223zM259 490l-156 170v14h124l87 -184h-55z" />
    <glyph glyph-name="uni2009" unicode="&#x2009;" horiz-adv-x="70" 
 />
    <glyph glyph-name="endash" unicode="&#x2013;" horiz-adv-x="500" 
d="M50 241h400v-65h-400v65z" />
    <glyph glyph-name="emdash" unicode="&#x2014;" horiz-adv-x="1000" 
d="M50 241h900v-65h-900v65z" />
    <glyph glyph-name="quoteleft" unicode="&#x2018;" horiz-adv-x="252" 
d="M191 538q0 -31 -21.5 -53t-52.5 -22q-35 0 -56 24.5t-21 61.5q0 62 39 107.5t111 70.5l22 -41q-71 -30 -83 -74q27 -5 44.5 -25.5t17.5 -48.5z" />
    <glyph glyph-name="quoteright" unicode="&#x2019;" horiz-adv-x="252" 
d="M212 641q0 -62 -39 -107.5t-111 -70.5l-22 41q71 30 83 74q-27 5 -44.5 25.5t-17.5 48.5q0 31 21.5 53t52.5 22q35 0 56 -24.5t21 -61.5z" />
    <glyph glyph-name="quotesinglbase" unicode="&#x201a;" horiz-adv-x="252" 
d="M212 49q0 -62 -39 -107.5t-111 -70.5l-22 41q71 30 83 74q-27 5 -44.5 25.5t-17.5 48.5q0 31 21.5 53t52.5 22q35 0 56 -24.5t21 -61.5z" />
    <glyph glyph-name="quotedblleft" unicode="&#x201c;" horiz-adv-x="456" 
d="M191 538q0 -31 -21.5 -53t-52.5 -22q-35 0 -56 24.5t-21 61.5q0 62 39 107.5t111 70.5l22 -41q-71 -30 -83 -74q27 -5 44.5 -25.5t17.5 -48.5zM395 538q0 -31 -21.5 -53t-52.5 -22q-35 0 -56 24.5t-21 61.5q0 62 39 107.5t111 70.5l22 -41q-71 -30 -83 -74
q27 -5 44.5 -25.5t17.5 -48.5z" />
    <glyph glyph-name="quotedblright" unicode="&#x201d;" horiz-adv-x="456" 
d="M212 641q0 -62 -39 -107.5t-111 -70.5l-22 41q71 30 83 74q-27 5 -44.5 25.5t-17.5 48.5q0 31 21.5 53t52.5 22q35 0 56 -24.5t21 -61.5zM416 641q0 -62 -39 -107.5t-111 -70.5l-22 41q71 30 83 74q-27 5 -44.5 25.5t-17.5 48.5q0 31 21.5 53t52.5 22q35 0 56 -24.5
t21 -61.5z" />
    <glyph glyph-name="quotedblbase" unicode="&#x201e;" horiz-adv-x="456" 
d="M212 49q0 -62 -39 -107.5t-111 -70.5l-22 41q71 30 83 74q-27 5 -44.5 25.5t-17.5 48.5q0 31 21.5 53t52.5 22q35 0 56 -24.5t21 -61.5zM416 49q0 -62 -39 -107.5t-111 -70.5l-22 41q71 30 83 74q-27 5 -44.5 25.5t-17.5 48.5q0 31 21.5 53t52.5 22q35 0 56 -24.5
t21 -61.5z" />
    <glyph glyph-name="dagger" unicode="&#x2020;" horiz-adv-x="600" 
d="M540 324l-204 34l41 -140l-49 -448h-56l-50 449l41 139l-203 -34v135l205 -34l-43 225h155l-43 -225l206 34v-135z" />
    <glyph glyph-name="daggerdbl" unicode="&#x2021;" horiz-adv-x="601" 
d="M541 324l-204 34l41 -150l-41 -145l203 34v-135l-205 34l43 -225h-155l43 225l-206 -34v135l204 -34l-41 146l41 149l-203 -34v135l205 -34l-43 225h155l-43 -225l206 34v-135z" />
    <glyph glyph-name="bullet" unicode="&#x2022;" horiz-adv-x="367" 
d="M75 326q0 45 32 77t77 32t76.5 -32t31.5 -77q0 -44 -31.5 -76t-76.5 -32t-77 32t-32 76z" />
    <glyph glyph-name="ellipsis" unicode="&#x2026;" horiz-adv-x="701" 
d="M205 60q0 -31 -22 -53t-53 -22t-53 22t-22 53t22 53t53 22t53 -22t22 -53zM425 60q0 -31 -22 -53t-53 -22t-53 22t-22 53t22 53t53 22t53 -22t22 -53zM646 60q0 -31 -22 -53t-53 -22t-53 22t-22 53t22 53t53 22t53 -22t22 -53z" />
    <glyph glyph-name="perthousand" unicode="&#x2030;" horiz-adv-x="877" 
d="M33 377q0 49 35.5 81t94.5 32q60 0 94 -31t34 -82q0 -49 -35.5 -80t-93.5 -31q-61 0 -95 30.5t-34 80.5zM455 480h85l-399 -480h-85zM198 377q0 34 -9 52t-27 18q-17 0 -26.5 -17.5t-9.5 -51.5q0 -36 9 -52.5t28 -16.5q35 0 35 68zM302 100q0 49 35.5 81t94.5 32
q60 0 94 -31t34 -82q0 -49 -35.5 -80t-93.5 -31q-61 0 -95 30.5t-34 80.5zM586 100q0 49 35.5 81t93.5 32q60 0 94.5 -31t34.5 -82q0 -48 -36 -79.5t-93 -31.5q-61 0 -95 30.5t-34 80.5zM467 100q0 70 -36 70t-36 -69t37 -69q35 0 35 68zM751 100q0 70 -36 70t-36 -69
q0 -35 8.5 -52t27.5 -17q36 0 36 68z" />
    <glyph glyph-name="guilsinglleft" unicode="&#x2039;" horiz-adv-x="302" 
d="M25 197v11l157 152h75l-112 -158l112 -158h-75z" />
    <glyph glyph-name="guilsinglright" unicode="&#x203a;" horiz-adv-x="302" 
d="M157 202l-112 158h75l157 -153v-11l-157 -152h-75z" />
    <glyph glyph-name="fraction" unicode="&#x2044;" horiz-adv-x="173" 
d="M213 683h80l-333 -721h-80z" />
    <glyph glyph-name="uni2070" unicode="&#x2070;" horiz-adv-x="402" 
d="M16 580q0 68 24 118.5t66 77t95 26.5t95 -26.5t66 -77.5t24 -120q0 -67 -24 -117.5t-66 -78t-95 -27.5t-95 27.5t-66 78t-24 119.5zM277 578q0 95 -17 135t-59 40q-41 0 -58.5 -39.5t-17.5 -133.5t17 -134.5t59 -40.5q41 0 58.5 40.5t17.5 132.5z" />
    <glyph glyph-name="uni2074" unicode="&#x2074;" horiz-adv-x="431" 
d="M418 548v-3l-12 -63h-94v-61l4 -3h56v-53h-223v53h56l3 3v61h-192v37l210 287h86v-258h106zM208 548v168l-122 -168h122z" />
    <glyph glyph-name="uni2075" unicode="&#x2075;" horiz-adv-x="312" 
d="M301 496q0 -38 -21.5 -70t-58.5 -51.5t-82 -19.5q-67 0 -124 24v127h16l14 -21q36 -51 54 -66.5t45 -15.5q25 0 39.5 20t14.5 54q0 90 -100 90q-40 0 -65 -5l-7 5l16 225h245v-164h-15l-44 81h-144l-8 -101q44 17 83 17q66 0 104 -32.5t38 -96.5z" />
    <glyph glyph-name="uni2076" unicode="&#x2076;" horiz-adv-x="369" 
d="M365 498q0 -39 -22 -72t-60.5 -52t-86.5 -19q-78 0 -128 44t-50 128q0 63 36.5 120.5t100 99.5t142.5 61l14 -36q-67 -24 -110 -66t-61 -97q37 16 78 16q69 0 108 -36t39 -91zM255 482q0 40 -21.5 63t-59.5 23q-18 0 -44 -7q-2 -20 -2 -30q0 -59 17.5 -93.5t52.5 -34.5
q29 0 43 21t14 58z" />
    <glyph glyph-name="uni2077" unicode="&#x2077;" horiz-adv-x="335" 
d="M337 792v-29l-163 -410l-114 26l203 332h-171l-53 -97h-15v178h313z" />
    <glyph glyph-name="uni2078" unicode="&#x2078;" horiz-adv-x="363" 
d="M351 473q0 -53 -48 -85.5t-116 -32.5q-75 0 -125 31t-50 87q0 33 25.5 60t70.5 41q-37 26 -52.5 51.5t-15.5 58.5q0 32 18 59t51 43.5t76 16.5q40 0 74.5 -13.5t55 -37t20.5 -50.5q0 -33 -24 -57.5t-71 -37.5l11 -8q54 -36 77 -62.5t23 -63.5zM131 713q0 -19 10 -33
t30 -27l37 -25q15 14 23.5 31.5t8.5 36.5q0 28 -17 43.5t-43 15.5q-22 0 -35.5 -12t-13.5 -30zM248 454q0 20 -16 37t-46 35l-43 27q-21 -27 -21 -71q0 -37 21.5 -58t51.5 -21q24 0 38.5 15t14.5 36z" />
    <glyph glyph-name="uni2079" unicode="&#x2079;" horiz-adv-x="379" 
d="M365 638q0 -97 -73 -172.5t-208 -115.5l-15 38q149 53 179 170q-43 -28 -95 -28q-61 0 -100.5 34.5t-39.5 91.5q0 40 21.5 73.5t59.5 53t86 19.5q86 0 135.5 -46t49.5 -118zM254 600q1 6 1 19q0 68 -20.5 101.5t-52.5 33.5q-30 0 -44.5 -23.5t-14.5 -66.5q0 -36 18 -56
t49 -20q32 0 64 12z" />
    <glyph glyph-name="uni207A" unicode="&#x207a;" horiz-adv-x="560" 
d="M480 539h-167v-171h-65v171h-168v65h168v164h65v-164h167v-65z" />
    <glyph glyph-name="uni207B" unicode="&#x207b;" horiz-adv-x="560" 
d="M80 604h400v-65h-400v65z" />
    <glyph glyph-name="uni207C" unicode="&#x207c;" horiz-adv-x="560" 
d="M80 677h400v-65h-400v65zM80 517h400v-65h-400v65z" />
    <glyph glyph-name="uni207D" unicode="&#x207d;" horiz-adv-x="221" 
d="M35 561q0 84 41 151.5t118 131.5l21 -15q-86 -127 -86 -267q0 -78 24.5 -147t62.5 -124l-20 -14q-79 66 -120 133t-41 151z" />
    <glyph glyph-name="uni207E" unicode="&#x207e;" horiz-adv-x="221" 
d="M6 291q86 127 86 267q0 78 -24.5 147t-62.5 125l21 13q78 -66 119 -133t41 -150q0 -85 -41 -152.5t-118 -131.5z" />
    <glyph glyph-name="uni2080" unicode="&#x2080;" horiz-adv-x="402" 
d="M16 96q0 68 24 118.5t66 77t95 26.5t95 -26.5t66 -77.5t24 -120q0 -67 -24 -117.5t-66 -78t-95 -27.5t-95 27.5t-66 78t-24 119.5zM277 94q0 95 -17 135t-59 40q-41 0 -58.5 -39.5t-17.5 -133.5t17 -134.5t59 -40.5q41 0 58.5 40.5t17.5 132.5z" />
    <glyph glyph-name="uni2081" unicode="&#x2081;" horiz-adv-x="254" 
d="M15 -66h64l3 3v315l-3 3h-60v53h165v-371l3 -3h65v-53h-237v53z" />
    <glyph glyph-name="uni2082" unicode="&#x2082;" horiz-adv-x="358" 
d="M339 34v-153h-328v46l110 109q46 46 64.5 83.5t18.5 79.5q0 36 -13.5 53.5t-36.5 17.5q-20 0 -34.5 -12.5t-38.5 -47.5l-35 -52h-15v128q54 32 126 32q76 0 116.5 -31.5t40.5 -78.5q0 -50 -29.5 -92.5t-111.5 -106.5l-72 -56h179l3 4v77h56z" />
    <glyph glyph-name="uni2083" unicode="&#x2083;" horiz-adv-x="344" 
d="M330 2q0 -58 -46 -94.5t-114 -36.5q-44 0 -73.5 6.5t-59.5 20.5v124h12l12 -17q35 -51 57.5 -69t48.5 -18q22 0 37.5 20.5t15.5 51.5q0 91 -82 91h-33v53h34q34 0 50.5 20.5t16.5 56.5q0 26 -11 43t-32 17q-18 0 -34 -12t-40 -47l-32 -49h-13v121q46 34 126 34
q67 0 107 -27t40 -69q0 -38 -25.5 -64.5t-77.5 -43.5q55 -8 85.5 -37t30.5 -75z" />
    <glyph glyph-name="uni2084" unicode="&#x2084;" horiz-adv-x="431" 
d="M418 64v-3l-12 -63h-94v-61l4 -3h56v-53h-223v53h56l3 3v61h-192v37l210 287h86v-258h106zM208 64v168l-122 -168h122z" />
    <glyph glyph-name="uni2085" unicode="&#x2085;" horiz-adv-x="312" 
d="M301 12q0 -38 -21.5 -70t-58.5 -51.5t-82 -19.5q-67 0 -124 24v127h16l14 -21q36 -51 54 -66.5t45 -15.5q25 0 39.5 20t14.5 54q0 90 -100 90q-40 0 -65 -5l-7 5l16 225h245v-164h-15l-44 81h-144l-8 -101q44 17 83 17q66 0 104 -32.5t38 -96.5z" />
    <glyph glyph-name="uni2086" unicode="&#x2086;" horiz-adv-x="369" 
d="M365 14q0 -39 -22 -72t-60.5 -52t-86.5 -19q-78 0 -128 44t-50 128q0 63 36.5 120.5t100 99.5t142.5 61l14 -36q-67 -24 -110 -66t-61 -97q37 16 78 16q69 0 108 -36t39 -91zM255 -2q0 40 -21.5 63t-59.5 23q-18 0 -44 -7q-2 -20 -2 -30q0 -59 17.5 -93.5t52.5 -34.5
q29 0 43 21t14 58z" />
    <glyph glyph-name="uni2087" unicode="&#x2087;" horiz-adv-x="335" 
d="M337 308v-29l-163 -410l-114 26l203 332h-171l-53 -97h-15v178h313z" />
    <glyph glyph-name="uni2088" unicode="&#x2088;" horiz-adv-x="363" 
d="M351 -11q0 -53 -48 -85.5t-116 -32.5q-75 0 -125 31t-50 87q0 33 25.5 60t70.5 41q-37 26 -52.5 51.5t-15.5 58.5q0 32 18 59t51 43.5t76 16.5q40 0 74.5 -13.5t55 -37t20.5 -50.5q0 -33 -24 -57.5t-71 -37.5l11 -8q54 -36 77 -62.5t23 -63.5zM131 229q0 -19 10 -33
t30 -27l37 -25q15 14 23.5 31.5t8.5 36.5q0 28 -17 43.5t-43 15.5q-22 0 -35.5 -12t-13.5 -30zM248 -30q0 20 -16 37t-46 35l-43 27q-21 -27 -21 -71q0 -37 21.5 -58t51.5 -21q24 0 38.5 15t14.5 36z" />
    <glyph glyph-name="uni2089" unicode="&#x2089;" horiz-adv-x="379" 
d="M365 154q0 -97 -73 -172.5t-208 -115.5l-15 38q149 53 179 170q-43 -28 -95 -28q-61 0 -100.5 34.5t-39.5 91.5q0 40 21.5 73.5t59.5 53t86 19.5q86 0 135.5 -46t49.5 -118zM254 116q1 6 1 19q0 68 -20.5 101.5t-52.5 33.5q-30 0 -44.5 -23.5t-14.5 -66.5q0 -36 18 -56
t49 -20q32 0 64 12z" />
    <glyph glyph-name="uni208A" unicode="&#x208a;" horiz-adv-x="560" 
d="M480 55h-167v-171h-65v171h-168v65h168v164h65v-164h167v-65z" />
    <glyph glyph-name="uni208B" unicode="&#x208b;" horiz-adv-x="560" 
d="M80 120h400v-65h-400v65z" />
    <glyph glyph-name="uni208C" unicode="&#x208c;" horiz-adv-x="560" 
d="M80 193h400v-65h-400v65zM80 33h400v-65h-400v65z" />
    <glyph glyph-name="uni208D" unicode="&#x208d;" horiz-adv-x="221" 
d="M35 77q0 84 41 151.5t118 131.5l21 -15q-86 -127 -86 -267q0 -78 24.5 -147t62.5 -124l-20 -14q-79 66 -120 133t-41 151z" />
    <glyph glyph-name="uni208E" unicode="&#x208e;" horiz-adv-x="221" 
d="M6 -193q86 127 86 267q0 78 -24.5 147t-62.5 125l21 13q78 -66 119 -133t41 -150q0 -85 -41 -152.5t-118 -131.5z" />
    <glyph glyph-name="Euro" unicode="&#x20ac;" horiz-adv-x="517" 
d="M482 169v-150q-66 -34 -155 -34q-81 0 -139.5 46t-80.5 126h-82l8 56h64q-1 10 -1 30q0 12 1 18h-58l8 57h59q22 77 84.5 124.5t148.5 47.5q66 0 133 -24v-148h-15l-39 52q-24 33 -43.5 51t-48.5 18q-37 0 -64 -31.5t-37 -89.5h140l-8 -57h-137v-10l1 -38h131l-8 -56
h-114q13 -56 39.5 -88.5t61.5 -32.5q20 0 38 14t34.5 34.5t28.5 37.5l35 47h15z" />
    <glyph glyph-name="uni2116" unicode="&#x2116;" horiz-adv-x="838" 
d="M555 467l-77 -47v-420h-91l-217 353v-293l4 -4h60v-56h-194v56h60l4 4v360l-73 47v13h199l183 -329v269l-74 47v13h216v-13zM540 269q0 55 39.5 91t100.5 36q56 0 91.5 -31t35.5 -83q0 -56 -39.5 -89t-99.5 -33q-58 0 -93 29.5t-35 79.5zM630 299q0 -42 12 -66t37 -24
q16 0 27 13t11 36q0 42 -12 66t-37 24q-16 0 -27 -13t-11 -36zM541 128h259v-66h-259v66z" />
    <glyph glyph-name="trademark" unicode="&#x2122;" horiz-adv-x="746" 
d="M30 650h286v-113h-18l-36 68h-46v-161l2 -2h34v-42h-157v42h34l2 2v161h-46l-37 -68h-18v113zM718 442v-42h-150v42h31l2 2l-7 119l-80 -163h-18l-69 169l-8 -125l2 -2h30v-42h-114v42h31l2 2l9 166l-36 31v9h132l50 -126h1l61 126h122v-9l-35 -27l12 -170l2 -2h30z" />
    <glyph glyph-name="uni2126" unicode="&#x2126;" horiz-adv-x="774" 
d="M734 202v-202h-303v70q58 44 94.5 123t36.5 165q0 115 -44 179.5t-131 64.5t-131 -64.5t-44 -179.5q0 -86 36.5 -165t94.5 -123v-70h-303v202h19l76 -132h123q-186 129 -186 300q0 84 42.5 151.5t114.5 105.5t158 38t158 -38t114.5 -105.5t42.5 -151.5q0 -171 -186 -300
h123l76 132h19z" />
    <glyph glyph-name="uni2153" unicode="&#x2153;" horiz-adv-x="901" 
d="M63 296h64l3 3v315l-3 3h-60v53h165v-371l3 -3h65v-53h-237v53zM546 683h80l-333 -721h-80zM849 121q0 -58 -46 -94.5t-114 -36.5q-44 0 -73.5 6.5t-59.5 20.5v124h12l12 -17q35 -51 57.5 -69t48.5 -18q22 0 37.5 20.5t15.5 51.5q0 91 -82 91h-33v53h34q34 0 50.5 20.5
t16.5 56.5q0 26 -11 43t-32 17q-18 0 -34 -12t-40 -47l-32 -49h-13v121q46 34 126 34q67 0 107 -27t40 -69q0 -38 -25.5 -64.5t-77.5 -43.5q55 -8 85.5 -37t30.5 -75z" />
    <glyph glyph-name="uni2154" unicode="&#x2154;" horiz-adv-x="901" 
d="M345 396v-153h-328v46l110 109q46 46 64.5 83.5t18.5 79.5q0 36 -13.5 53.5t-36.5 17.5q-20 0 -34.5 -12.5t-38.5 -47.5l-35 -52h-15v128q54 32 126 32q76 0 116.5 -31.5t40.5 -78.5q0 -50 -29.5 -92.5t-111.5 -106.5l-72 -56h179l3 4v77h56zM595 683h80l-333 -721h-80z
M890 121q0 -58 -46 -94.5t-114 -36.5q-44 0 -73.5 6.5t-59.5 20.5v124h12l12 -17q35 -51 57.5 -69t48.5 -18q22 0 37.5 20.5t15.5 51.5q0 91 -82 91h-33v53h34q34 0 50.5 20.5t16.5 56.5q0 26 -11 43t-32 17q-18 0 -34 -12t-40 -47l-32 -49h-13v121q46 34 126 34
q67 0 107 -27t40 -69q0 -38 -25.5 -64.5t-77.5 -43.5q55 -8 85.5 -37t30.5 -75z" />
    <glyph glyph-name="oneeighth" unicode="&#x215b;" horiz-adv-x="900" 
d="M58 296h64l3 3v315l-3 3h-60v53h165v-371l3 -3h65v-53h-237v53zM541 683h80l-333 -721h-80zM855 108q0 -53 -48 -85.5t-116 -32.5q-75 0 -125 31t-50 87q0 33 25.5 60t70.5 41q-37 26 -52.5 51.5t-15.5 58.5q0 32 18 59t51 43.5t76 16.5q40 0 74.5 -13.5t55 -37
t20.5 -50.5q0 -33 -24 -57.5t-71 -37.5l11 -8q54 -36 77 -62.5t23 -63.5zM635 348q0 -19 10 -33t30 -27l37 -25q15 14 23.5 31.5t8.5 36.5q0 28 -17 43.5t-43 15.5q-22 0 -35.5 -12t-13.5 -30zM752 89q0 20 -16 37t-46 35l-43 27q-21 -27 -21 -71q0 -37 21.5 -58t51.5 -21
q24 0 38.5 15t14.5 36z" />
    <glyph glyph-name="threeeighths" unicode="&#x215c;" horiz-adv-x="901" 
d="M345 364q0 -58 -46 -94.5t-114 -36.5q-44 0 -73.5 6.5t-59.5 20.5v124h12l12 -17q35 -51 57.5 -69t48.5 -18q22 0 37.5 20.5t15.5 51.5q0 91 -82 91h-33v53h34q34 0 50.5 20.5t16.5 56.5q0 26 -11 43t-32 17q-18 0 -34 -12t-40 -47l-32 -49h-13v121q46 34 126 34
q67 0 107 -27t40 -69q0 -38 -25.5 -64.5t-77.5 -43.5q55 -8 85.5 -37t30.5 -75zM560 683h80l-333 -721h-80zM867 108q0 -53 -48 -85.5t-116 -32.5q-75 0 -125 31t-50 87q0 33 25.5 60t70.5 41q-37 26 -52.5 51.5t-15.5 58.5q0 32 18 59t51 43.5t76 16.5q40 0 74.5 -13.5
t55 -37t20.5 -50.5q0 -33 -24 -57.5t-71 -37.5l11 -8q54 -36 77 -62.5t23 -63.5zM647 348q0 -19 10 -33t30 -27l37 -25q15 14 23.5 31.5t8.5 36.5q0 28 -17 43.5t-43 15.5q-22 0 -35.5 -12t-13.5 -30zM764 89q0 20 -16 37t-46 35l-43 27q-21 -27 -21 -71q0 -37 21.5 -58
t51.5 -21q24 0 38.5 15t14.5 36z" />
    <glyph glyph-name="fiveeighths" unicode="&#x215d;" horiz-adv-x="901" 
d="M331 374q0 -38 -21.5 -70t-58.5 -51.5t-82 -19.5q-67 0 -124 24v127h16l14 -21q36 -51 54 -66.5t45 -15.5q25 0 39.5 20t14.5 54q0 90 -100 90q-40 0 -65 -5l-7 5l16 225h245v-164h-15l-44 81h-144l-8 -101q44 17 83 17q66 0 104 -32.5t38 -96.5zM557 683h80l-333 -721
h-80zM866 108q0 -53 -48 -85.5t-116 -32.5q-75 0 -125 31t-50 87q0 33 25.5 60t70.5 41q-37 26 -52.5 51.5t-15.5 58.5q0 32 18 59t51 43.5t76 16.5q40 0 74.5 -13.5t55 -37t20.5 -50.5q0 -33 -24 -57.5t-71 -37.5l11 -8q54 -36 77 -62.5t23 -63.5zM646 348q0 -19 10 -33
t30 -27l37 -25q15 14 23.5 31.5t8.5 36.5q0 28 -17 43.5t-43 15.5q-22 0 -35.5 -12t-13.5 -30zM763 89q0 20 -16 37t-46 35l-43 27q-21 -27 -21 -71q0 -37 21.5 -58t51.5 -21q24 0 38.5 15t14.5 36z" />
    <glyph glyph-name="seveneighths" unicode="&#x215e;" horiz-adv-x="901" 
d="M376 670v-29l-163 -410l-114 26l203 332h-171l-53 -97h-15v178h313zM533 683h80l-333 -721h-80zM847 108q0 -53 -48 -85.5t-116 -32.5q-75 0 -125 31t-50 87q0 33 25.5 60t70.5 41q-37 26 -52.5 51.5t-15.5 58.5q0 32 18 59t51 43.5t76 16.5q40 0 74.5 -13.5t55 -37
t20.5 -50.5q0 -33 -24 -57.5t-71 -37.5l11 -8q54 -36 77 -62.5t23 -63.5zM627 348q0 -19 10 -33t30 -27l37 -25q15 14 23.5 31.5t8.5 36.5q0 28 -17 43.5t-43 15.5q-22 0 -35.5 -12t-13.5 -30zM744 89q0 20 -16 37t-46 35l-43 27q-21 -27 -21 -71q0 -37 21.5 -58t51.5 -21
q24 0 38.5 15t14.5 36z" />
    <glyph glyph-name="partialdiff" unicode="&#x2202;" horiz-adv-x="539" 
d="M506 330q0 -103 -30 -181t-86 -121t-132 -43q-68 0 -119 29t-78.5 79t-27.5 111q0 65 27 115.5t74.5 78t108.5 27.5q68 0 131 -41q-5 76 -20 129t-45 88q-26 31 -67 47t-109 25l16 44q78 0 144.5 -21t113.5 -66q99 -94 99 -300zM376 297v25q-55 26 -100 26
q-52 0 -82.5 -41t-30.5 -111q0 -66 26.5 -107.5t68.5 -41.5q56 0 87 74.5t31 175.5z" />
    <glyph glyph-name="uni2206" unicode="&#x2206;" horiz-adv-x="689" 
d="M669 0h-649l303 650h66zM316 478l-187 -411h365z" />
    <glyph glyph-name="product" unicode="&#x220f;" horiz-adv-x="755" 
d="M55 -80h75l5 5v650l-105 60v15h690v-15l-105 -60v-650l5 -5h75v-70h-285v70h75l5 5v655h-230v-655l5 -5h75v-70h-285v70z" />
    <glyph glyph-name="summation" unicode="&#x2211;" horiz-adv-x="651" 
d="M596 71v-221h-561v30l253 345l-226 395v30h498v-202h-19l-77 132h-214l166 -308l-243 -327h331l73 126h19z" />
    <glyph glyph-name="minus" unicode="&#x2212;" horiz-adv-x="560" 
d="M80 244h400v-75h-400v75z" />
    <glyph glyph-name="uni2215" unicode="&#x2215;" horiz-adv-x="173" 
d="M213 683h80l-333 -721h-80z" />
    <glyph glyph-name="uni2219" unicode="&#x2219;" horiz-adv-x="337" 
d="M85 326q0 45 32 77t77 32t76.5 -32t31.5 -77q0 -44 -31.5 -76t-76.5 -32t-77 32t-32 76z" />
    <glyph glyph-name="radical" unicode="&#x221a;" horiz-adv-x="549" 
d="M66 351l-61 55v14h157l106 -284h3l266 614h164v-67h-118l-316 -693h-46z" />
    <glyph glyph-name="infinity" unicode="&#x221e;" horiz-adv-x="706" 
d="M666 336q0 -46 -20 -85.5t-56.5 -63t-82.5 -23.5q-47 0 -81.5 24t-61.5 72q-37 -43 -78 -69.5t-96 -26.5q-67 0 -108.5 43.5t-41.5 110.5q0 46 20 85.5t56.5 63t83.5 23.5t81 -24t61 -72q37 43 78 69.5t96 26.5q67 0 108.5 -43.5t41.5 -110.5zM606 337q0 34 -20 56.5
t-51 22.5q-36 0 -65 -27.5t-70 -82.5q21 -28 50.5 -43.5t62.5 -15.5q42 0 67.5 26.5t25.5 63.5zM306 348q-21 28 -50.5 43.5t-62.5 15.5q-42 0 -67.5 -26.5t-25.5 -63.5q0 -34 20 -56.5t51 -22.5q36 0 65 27.5t70 82.5z" />
    <glyph glyph-name="integral" unicode="&#x222b;" horiz-adv-x="409" 
d="M-18 -187q51 22 72 54t29 101l56 478q12 103 38.5 162t70 84t110.5 25q47 0 93 -17v-137h-8l-53 59q-15 16 -28 25t-31 9q-57 0 -70 -110l-65 -538q-13 -106 -60 -158.5t-138 -66.5z" />
    <glyph glyph-name="approxequal" unicode="&#x2248;" horiz-adv-x="560" 
d="M58 274q56 91 142 91q24 0 45.5 -7.5t49.5 -20.5q29 -13 45 -18.5t33 -5.5q42 0 74 38l55 -44q-28 -36 -58 -55t-72 -19q-24 0 -47 7.5t-57 22.5q-24 11 -39.5 16.5t-29.5 5.5q-26 0 -46.5 -12.5t-42.5 -39.5zM58 110q56 91 142 91q24 0 45.5 -7.5t49.5 -20.5
q29 -13 45 -18.5t33 -5.5q42 0 74 38l55 -44q-28 -36 -58 -55t-72 -19q-24 0 -47 7.5t-57 22.5q-24 11 -39.5 16.5t-29.5 5.5q-26 0 -46.5 -12.5t-42.5 -39.5z" />
    <glyph glyph-name="notequal" unicode="&#x2260;" horiz-adv-x="560" 
d="M358 258l-69 -100h191v-75h-244l-68 -98l-60 32l46 66h-74v75h126l69 100h-195v75h248l67 97l58 -36l-43 -61h70v-75h-122z" />
    <glyph glyph-name="lessequal" unicode="&#x2264;" horiz-adv-x="561" 
d="M482 368l-264 -91l264 -91v-82l-403 146v54l403 146v-82zM81 75h400v-75h-400v75z" />
    <glyph glyph-name="greaterequal" unicode="&#x2265;" horiz-adv-x="561" 
d="M482 304v-54l-403 -146v82l264 91l-264 91v82zM80 75h400v-75h-400v75z" />
    <glyph glyph-name="lozenge" unicode="&#x25ca;" horiz-adv-x="561" 
d="M52 318l202 332h54l201 -332l-202 -328h-54zM418 318h1l-138 233l-138 -233h-1l138 -229z" />
    <glyph glyph-name="circle" unicode="&#x25cb;" horiz-adv-x="610" 
d="M100 324q0 56 27.5 103t74.5 74.5t103 27.5t103 -27.5t74.5 -74.5t27.5 -103t-27.5 -103t-74.5 -74.5t-103 -27.5t-103 27.5t-74.5 74.5t-27.5 103z" />
    <glyph glyph-name="dotlessj" unicode="&#xf6be;" horiz-adv-x="254" 
d="M-22 -197q52 22 74.5 55.5t22.5 99.5v353l-64 40v12l166 79l13 -6v-438q0 -103 -51 -157t-145 -68z" />
    <glyph glyph-name="commainferior" unicode="&#xf6e1;" horiz-adv-x="240" 
d="M204 -79q0 -58 -37.5 -114t-111.5 -85l-22 41q76 34 85 104q-27 4 -45.5 25t-18.5 49q0 31 22 53t53 22q32 0 53.5 -25.5t21.5 -69.5z" />
    <glyph glyph-name="commasuperior" unicode="&#xf6e2;" horiz-adv-x="240" 
d="M204 405q0 -58 -37.5 -114t-111.5 -85l-22 41q76 34 85 104q-27 4 -45.5 25t-18.5 49q0 31 22 53t53 22q32 0 53.5 -25.5t21.5 -69.5z" />
    <glyph glyph-name="hypheninferior" unicode="&#xf6e5;" horiz-adv-x="360" 
d="M40 117h280v-65h-280v65z" />
    <glyph glyph-name="hyphensuperior" unicode="&#xf6e6;" horiz-adv-x="360" 
d="M40 601h280v-65h-280v65z" />
    <glyph glyph-name="periodinferior" unicode="&#xf6e7;" horiz-adv-x="260" 
d="M55 -60q0 31 22 53t53 22t53 -22t22 -53t-22 -53t-53 -22t-53 22t-22 53z" />
    <glyph glyph-name="periodsuperior" unicode="&#xf6e8;" horiz-adv-x="260" 
d="M55 424q0 31 22 53t53 22t53 -22t22 -53t-22 -53t-53 -22t-53 22t-22 53z" />
    <glyph glyph-name="i.loclTRK" horiz-adv-x="261" 
d="M31 64h45l5 5v242l-64 40v12l166 79l13 -6v-367l5 -5h45v-64h-215v64zM69 584q0 29 20.5 49t49.5 20t49 -20t20 -49t-20 -49.5t-49 -20.5t-49.5 20.5t-20.5 49.5z" />
    <glyph glyph-name="a.ordn" horiz-adv-x="322" 
d="M309 292v-48h-127v24q-49 -32 -91 -32q-30 0 -51.5 16.5t-21.5 53.5q0 43 35 71.5t129 39.5v10q0 70 -59 70q-35 0 -76 -26l-15 29q55 54 131 54q60 0 85.5 -31.5t25.5 -95.5v-131l4 -4h31zM182 295v85q-42 -4 -58 -16.5t-16 -34.5q-1 -20 10 -29.5t31 -9.5q11 0 33 5z
" />
    <glyph glyph-name="b.ordn" horiz-adv-x="379" 
d="M354 409q0 -55 -27 -94t-69 -58.5t-87 -19.5q-65 0 -122 23v370l-47 29v10l128 59l11 -6v-213q30 24 51 34.5t49 10.5q48 0 80.5 -41t32.5 -104zM256 387q0 51 -18.5 76.5t-49.5 25.5q-15 0 -47 -5v-177q19 -25 48 -25q67 0 67 105z" />
    <glyph glyph-name="c.ordn" horiz-adv-x="302" 
d="M21 388q0 46 20.5 83.5t59 60t90.5 22.5q42 0 88 -16v-120h-11l-59 76q-19 16 -38 16q-53 0 -53 -94q0 -62 29 -95t69 -33q17 0 31 3.5t31 13.5l15 -27q-48 -41 -118 -41t-112 41t-42 110z" />
    <glyph glyph-name="d.ordn" horiz-adv-x="381" 
d="M364 292v-48h-126v38q-32 -24 -52.5 -34.5t-45.5 -10.5q-52 0 -83.5 41.5t-31.5 103.5q0 49 21.5 88.5t58.5 61.5t82 22q30 0 51 -10v86l-47 29v10l128 59l11 -6v-426l4 -4h30zM238 307v165q-21 36 -52 36q-30 0 -46.5 -26.5t-16.5 -75.5q0 -52 20 -78t56 -26q11 0 39 5z
" />
    <glyph glyph-name="e.ordn" horiz-adv-x="319" 
d="M285 305l15 -27q-56 -41 -120 -41q-68 0 -113.5 42t-45.5 111q0 45 19.5 82.5t55.5 59.5t83 22q58 0 91 -33.5t33 -86.5q0 -18 -4 -41h-180q5 -49 29 -77.5t68 -28.5q32 0 69 18zM118 432h97q-1 39 -12 58.5t-34 19.5q-22 0 -35.5 -19.5t-15.5 -58.5z" />
    <glyph glyph-name="f.ordn" horiz-adv-x="253" 
d="M24 292h31l4 4v195l-4 4h-31v48h31l4 4v3q0 91 37 133.5t110 42.5q28 0 69 -12v-100h-6l-40 40q-13 14 -22.5 20t-22.5 6q-17 0 -25 -13.5t-8 -46.5v-73l4 -4h82v-48h-82l-4 -4v-195l4 -4h46v-48h-177v48z" />
    <glyph glyph-name="g.ordn" horiz-adv-x="362" 
d="M355 558v-74l-13 -2l-61 23q20 -28 20 -62q0 -52 -41.5 -83t-101.5 -31q-31 0 -58 9q-9 -12 -9 -23q0 -12 11 -17t43 -5h82q100 0 100 -71q0 -37 -27 -66t-76 -45t-112 -16q-58 0 -88 16.5t-30 46.5q0 37 53 68q-24 16 -24 46q0 20 12.5 38.5t38.5 40.5q-44 29 -44 82
q0 34 19 61.5t51.5 43.5t70.5 16q51 0 86 -26l95 33zM208 437q0 37 -12 58.5t-33 21.5q-17 0 -28.5 -18.5t-11.5 -54.5q0 -37 11 -57.5t32 -20.5q18 0 30 17.5t12 53.5zM77 216q-10 -16 -10 -29q0 -44 71 -44q46 0 77 12.5t31 33.5q0 14 -12.5 18.5t-37.5 4.5h-76
q-27 0 -43 4z" />
    <glyph glyph-name="h.ordn" horiz-adv-x="394" 
d="M382 292v-48h-162v48h31l3 4v124q0 40 -13.5 55t-43.5 15q-21 0 -52 -9v-185l4 -4h30v-48h-161v48h31l4 4v359l-47 29v10l128 59l11 -6v-234q35 22 60 31.5t54 9.5q39 0 63.5 -20.5t24.5 -62.5v-175l4 -4h31z" />
    <glyph glyph-name="i.ordn" horiz-adv-x="193" 
d="M47 658q0 21 15.5 35.5t38.5 14.5t38.5 -14.5t15.5 -35.5q0 -22 -15.5 -37t-38.5 -15t-38.5 15t-15.5 37zM23 292h30l4 4v166l-47 30v9l129 59l11 -5v-259l3 -4h31v-48h-161v48z" />
    <glyph glyph-name="j.ordn" horiz-adv-x="190" 
d="M47 658q0 21 15.5 35.5t38.5 14.5t38.5 -14.5t15.5 -35.5q0 -22 -15.5 -37t-38.5 -15t-38.5 15t-15.5 37zM-19 131q37 15 54.5 37.5t17.5 66.5v227l-47 30v9l128 59l11 -5v-292q0 -68 -40.5 -107t-111.5 -47z" />
    <glyph glyph-name="k.ordn" horiz-adv-x="385" 
d="M149 292h31v-48h-162v48h31l4 4v334l-47 29v10l128 59l11 -6v-426zM384 292v-48h-124l-109 158l91 98l-42 41v7h168v-7l-125 -115l95 -134h46z" />
    <glyph glyph-name="l.ordn" horiz-adv-x="191" 
d="M18 292h31l4 4v334l-47 29v10l128 59l11 -6v-426l4 -4h30v-48h-161v48z" />
    <glyph glyph-name="m.ordn" horiz-adv-x="584" 
d="M571 292v-48h-162v48h31l4 4v124q0 38 -11 54t-32 16q-28 0 -59 -9q1 -5 1 -16v-169l4 -4h31v-48h-162v48h31l3 4v124q0 38 -10.5 54t-32.5 16q-27 0 -59 -9v-185l4 -4h31v-48h-162v48h31l3 4v167l-47 29v10l116 57l11 -6l10 -42q35 22 59.5 32.5t51.5 10.5q58 0 79 -46
q38 25 62 35.5t54 10.5q41 0 63 -23.5t22 -63.5v-171l4 -4h31z" />
    <glyph glyph-name="n.ordn" horiz-adv-x="397" 
d="M384 291v-47h-161v48h30l4 4v124q0 40 -13.5 55t-43.5 15q-19 0 -52 -9v-185l4 -4h30v-48h-161v48h31l3 4v167l-47 29v10l116 57l11 -6l10 -42q36 23 61 33t55 10q40 0 64.5 -20.5t24.5 -62.5v-175l3 -5h31z" />
    <glyph glyph-name="o.ordn" horiz-adv-x="358" 
d="M21 387q0 48 21 86t58 59.5t84 21.5q67 0 110 -42t43 -113q0 -73 -45.5 -117.5t-117.5 -44.5q-68 0 -110.5 41.5t-42.5 108.5zM240 369q0 61 -20 99t-52 38q-24 0 -37 -23t-13 -64q0 -61 20.5 -99t51.5 -38q24 0 37 23t13 64z" />
    <glyph glyph-name="p.ordn" horiz-adv-x="383" 
d="M358 404q0 -47 -21 -85.5t-58 -60t-82 -21.5q-28 0 -52 9v-88l4 -3h42v-49h-173v49h31l4 3v304l-47 29v10l116 57l10 -6l11 -44q31 23 54.5 34.5t48.5 11.5q48 0 80 -41.5t32 -108.5zM260 384q0 52 -19 78.5t-50 26.5q-22 0 -46 -5v-170q19 -32 54 -32q30 0 45.5 27
t15.5 75z" />
    <glyph glyph-name="q.ordn" horiz-adv-x="380" 
d="M365 155v-49h-173v49h42l4 3v123q-29 -22 -50.5 -33t-45.5 -11q-51 0 -84 40.5t-33 103.5q0 78 54 125.5t147 47.5q50 0 105 -24v-372l3 -3h31zM238 307v176q-18 14 -28 19.5t-24 5.5q-31 0 -47 -27.5t-16 -81.5q0 -97 76 -97q17 0 39 5z" />
    <glyph glyph-name="r.ordn" horiz-adv-x="274" 
d="M148 465v-169l4 -4h42v-48h-173v48h31l3 4v166l-47 29v10l116 57l11 -6l10 -51q30 27 53.5 40t44.5 13q12 0 23 -4v-99q-51 14 -105 14h-13z" />
    <glyph glyph-name="s.ordn" horiz-adv-x="281" 
d="M26 262v109h10l46 -58q17 -17 31 -24.5t31 -7.5q37 0 37 28q0 16 -10.5 26t-39.5 21q-52 20 -77 44t-25 62q0 42 33.5 67t93.5 25q46 0 90 -15v-101h-11l-44 50q-20 22 -46 22q-15 0 -23.5 -7.5t-8.5 -20.5t10 -20.5t37 -21.5q53 -26 78 -48.5t25 -60.5q0 -45 -32 -69.5
t-90 -24.5q-32 0 -64 7.5t-51 17.5z" />
    <glyph glyph-name="t.ordn" horiz-adv-x="253" 
d="M47 330v162l-4 3h-41v10l126 120h11v-82h98v-48h-98v-132q0 -39 9 -55.5t29 -16.5q24 0 56 17l16 -27q-24 -20 -54.5 -32t-62.5 -12q-42 0 -63.5 22t-21.5 71z" />
    <glyph glyph-name="u.ordn" horiz-adv-x="386" 
d="M373 292v-48h-126v44q-30 -26 -54.5 -38.5t-56.5 -12.5q-40 0 -62 21.5t-22 61.5v136l-47 29v10l128 59l12 -6v-183q0 -35 13 -48.5t43 -13.5q25 0 46 6v152l-47 30v10l128 59l11 -6v-258l3 -4h31z" />
    <glyph glyph-name="v.ordn" horiz-adv-x="369" 
d="M38 492l-46 40v11h185v-11l-40 -40l65 -145h2l71 145l-39 40v11h142v-11l-47 -40l-130 -255h-36z" />
    <glyph glyph-name="w.ordn" horiz-adv-x="535" 
d="M543 543v-11l-49 -40l-117 -255h-34l-61 149l-93 -149h-32l-119 255l-46 40v11h188v-11l-43 -40l62 -144h3l58 91l-37 89l91 23l65 -197h4l55 138l-43 40v11h148z" />
    <glyph glyph-name="x.ordn" horiz-adv-x="381" 
d="M375 292v-48h-180v48h27l5 4l-50 58l-57 -59l4 -3h33v-48h-143v48h38l6 4l88 93l-93 107l-47 40v7h192v-6l-42 -41l49 -58l59 58l-40 40v7h146v-6l-44 -41l-93 -90l97 -114h45z" />
    <glyph glyph-name="y.ordn" horiz-adv-x="374" 
d="M20 138v8l147 97l-126 249l-49 40v11h190v-11l-41 -40l66 -142h2l68 142l-38 40v11h143v-11l-49 -40l-132 -263l-74 -132z" />
    <glyph glyph-name="z.ordn" horiz-adv-x="331" 
d="M23 257l160 235v3h-97l-45 -64h-10v112h274v-14l-153 -233v-4h102l42 65h11v-113h-284v13z" />
    <glyph glyph-name="a.sinf" horiz-adv-x="322" 
d="M309 -71v-48h-127v24q-49 -32 -91 -32q-30 0 -51.5 16.5t-21.5 53.5q0 43 35 71.5t129 39.5v10q0 70 -59 70q-35 0 -76 -26l-15 29q55 54 131 54q60 0 85.5 -31.5t25.5 -95.5v-131l4 -4h31zM182 -68v85q-42 -4 -58 -16.5t-16 -34.5q-1 -20 10 -29.5t31 -9.5q11 0 33 5z
" />
    <glyph glyph-name="b.sinf" horiz-adv-x="379" 
d="M354 46q0 -55 -27 -94t-69 -58.5t-87 -19.5q-65 0 -122 23v370l-47 29v10l128 59l11 -6v-213q30 24 51 34.5t49 10.5q48 0 80.5 -41t32.5 -104zM256 24q0 51 -18.5 76.5t-49.5 25.5q-15 0 -47 -5v-177q19 -25 48 -25q67 0 67 105z" />
    <glyph glyph-name="c.sinf" horiz-adv-x="302" 
d="M21 25q0 46 20.5 83.5t59 60t90.5 22.5q42 0 88 -16v-120h-11l-59 76q-19 16 -38 16q-53 0 -53 -94q0 -62 29 -95t69 -33q17 0 31 3.5t31 13.5l15 -27q-48 -41 -118 -41t-112 41t-42 110z" />
    <glyph glyph-name="d.sinf" horiz-adv-x="381" 
d="M364 -71v-48h-126v38q-32 -24 -52.5 -34.5t-45.5 -10.5q-52 0 -83.5 41.5t-31.5 103.5q0 49 21.5 88.5t58.5 61.5t82 22q30 0 51 -10v86l-47 29v10l128 59l11 -6v-426l4 -4h30zM238 -56v165q-21 36 -52 36q-30 0 -46.5 -26.5t-16.5 -75.5q0 -52 20 -78t56 -26q11 0 39 5z
" />
    <glyph glyph-name="e.sinf" horiz-adv-x="319" 
d="M285 -58l15 -27q-56 -41 -120 -41q-68 0 -113.5 42t-45.5 111q0 45 19.5 82.5t55.5 59.5t83 22q58 0 91 -33.5t33 -86.5q0 -18 -4 -41h-180q5 -49 29 -77.5t68 -28.5q32 0 69 18zM118 69h97q-1 39 -12 58.5t-34 19.5q-22 0 -35.5 -19.5t-15.5 -58.5z" />
    <glyph glyph-name="f.sinf" horiz-adv-x="253" 
d="M24 -71h31l4 4v195l-4 4h-31v48h31l4 4v3q0 91 37 133.5t110 42.5q28 0 69 -12v-100h-6l-40 40q-13 14 -22.5 20t-22.5 6q-17 0 -25 -13.5t-8 -46.5v-73l4 -4h82v-48h-82l-4 -4v-195l4 -4h46v-48h-177v48z" />
    <glyph glyph-name="g.sinf" horiz-adv-x="362" 
d="M355 195v-74l-13 -2l-61 23q20 -28 20 -62q0 -52 -41.5 -83t-101.5 -31q-31 0 -58 9q-9 -12 -9 -23q0 -12 11 -17t43 -5h82q100 0 100 -71q0 -37 -27 -66t-76 -45t-112 -16q-58 0 -88 16.5t-30 46.5q0 37 53 68q-24 16 -24 46q0 20 12.5 38.5t38.5 40.5q-44 29 -44 82
q0 34 19 61.5t51.5 43.5t70.5 16q51 0 86 -26l95 33zM208 74q0 37 -12 58.5t-33 21.5q-17 0 -28.5 -18.5t-11.5 -54.5q0 -37 11 -57.5t32 -20.5q18 0 30 17.5t12 53.5zM77 -147q-10 -16 -10 -29q0 -44 71 -44q46 0 77 12.5t31 33.5q0 14 -12.5 18.5t-37.5 4.5h-76
q-27 0 -43 4z" />
    <glyph glyph-name="h.sinf" horiz-adv-x="394" 
d="M382 -71v-48h-162v48h31l3 4v124q0 40 -13.5 55t-43.5 15q-21 0 -52 -9v-185l4 -4h30v-48h-161v48h31l4 4v359l-47 29v10l128 59l11 -6v-234q35 22 60 31.5t54 9.5q39 0 63.5 -20.5t24.5 -62.5v-175l4 -4h31z" />
    <glyph glyph-name="i.sinf" horiz-adv-x="193" 
d="M47 295q0 21 15.5 35.5t38.5 14.5t38.5 -14.5t15.5 -35.5q0 -22 -15.5 -37t-38.5 -15t-38.5 15t-15.5 37zM23 -71h30l4 4v166l-47 30v9l129 59l11 -5v-259l3 -4h31v-48h-161v48z" />
    <glyph glyph-name="j.sinf" horiz-adv-x="190" 
d="M47 295q0 21 15.5 35.5t38.5 14.5t38.5 -14.5t15.5 -35.5q0 -22 -15.5 -37t-38.5 -15t-38.5 15t-15.5 37zM-19 -232q37 15 54.5 37.5t17.5 66.5v227l-47 30v9l128 59l11 -5v-292q0 -68 -40.5 -107t-111.5 -47z" />
    <glyph glyph-name="k.sinf" horiz-adv-x="385" 
d="M149 -71h31v-48h-162v48h31l4 4v334l-47 29v10l128 59l11 -6v-426zM384 -71v-48h-124l-109 158l91 98l-42 41v7h168v-7l-125 -115l95 -134h46z" />
    <glyph glyph-name="l.sinf" horiz-adv-x="191" 
d="M18 -71h31l4 4v334l-47 29v10l128 59l11 -6v-426l4 -4h30v-48h-161v48z" />
    <glyph glyph-name="m.sinf" horiz-adv-x="584" 
d="M571 -71v-48h-162v48h31l4 4v124q0 38 -11 54t-32 16q-28 0 -59 -9q1 -5 1 -16v-169l4 -4h31v-48h-162v48h31l3 4v124q0 38 -10.5 54t-32.5 16q-27 0 -59 -9v-185l4 -4h31v-48h-162v48h31l3 4v167l-47 29v10l116 57l11 -6l10 -42q35 22 59.5 32.5t51.5 10.5q58 0 79 -46
q38 25 62 35.5t54 10.5q41 0 63 -23.5t22 -63.5v-171l4 -4h31z" />
    <glyph glyph-name="n.sinf" horiz-adv-x="397" 
d="M384 -72v-47h-161v48h30l4 4v124q0 40 -13.5 55t-43.5 15q-19 0 -52 -9v-185l4 -4h30v-48h-161v48h31l3 4v167l-47 29v10l116 57l11 -6l10 -42q36 23 61 33t55 10q40 0 64.5 -20.5t24.5 -62.5v-175l3 -5h31z" />
    <glyph glyph-name="o.sinf" horiz-adv-x="358" 
d="M21 24q0 48 21 86t58 59.5t84 21.5q67 0 110 -42t43 -113q0 -73 -45.5 -117.5t-117.5 -44.5q-68 0 -110.5 41.5t-42.5 108.5zM240 6q0 61 -20 99t-52 38q-24 0 -37 -23t-13 -64q0 -61 20.5 -99t51.5 -38q24 0 37 23t13 64z" />
    <glyph glyph-name="p.sinf" horiz-adv-x="383" 
d="M358 41q0 -47 -21 -85.5t-58 -60t-82 -21.5q-28 0 -52 9v-88l4 -3h42v-49h-173v49h31l4 3v304l-47 29v10l116 57l10 -6l11 -44q31 23 54.5 34.5t48.5 11.5q48 0 80 -41.5t32 -108.5zM260 21q0 52 -19 78.5t-50 26.5q-22 0 -46 -5v-170q19 -32 54 -32q30 0 45.5 27
t15.5 75z" />
    <glyph glyph-name="q.sinf" horiz-adv-x="380" 
d="M365 -208v-49h-173v49h42l4 3v123q-29 -22 -50.5 -33t-45.5 -11q-51 0 -84 40.5t-33 103.5q0 78 54 125.5t147 47.5q50 0 105 -24v-372l3 -3h31zM238 -56v176q-18 14 -28 19.5t-24 5.5q-31 0 -47 -27.5t-16 -81.5q0 -97 76 -97q17 0 39 5z" />
    <glyph glyph-name="r.sinf" horiz-adv-x="274" 
d="M148 102v-169l4 -4h42v-48h-173v48h31l3 4v166l-47 29v10l116 57l11 -6l10 -51q30 27 53.5 40t44.5 13q12 0 23 -4v-99q-51 14 -105 14h-13z" />
    <glyph glyph-name="s.sinf" horiz-adv-x="281" 
d="M26 -101v109h10l46 -58q17 -17 31 -24.5t31 -7.5q37 0 37 28q0 16 -10.5 26t-39.5 21q-52 20 -77 44t-25 62q0 42 33.5 67t93.5 25q46 0 90 -15v-101h-11l-44 50q-20 22 -46 22q-15 0 -23.5 -7.5t-8.5 -20.5t10 -20.5t37 -21.5q53 -26 78 -48.5t25 -60.5q0 -45 -32 -69.5
t-90 -24.5q-32 0 -64 7.5t-51 17.5z" />
    <glyph glyph-name="t.sinf" horiz-adv-x="253" 
d="M47 -33v162l-4 3h-41v10l126 120h11v-82h98v-48h-98v-132q0 -39 9 -55.5t29 -16.5q24 0 56 17l16 -27q-24 -20 -54.5 -32t-62.5 -12q-42 0 -63.5 22t-21.5 71z" />
    <glyph glyph-name="u.sinf" horiz-adv-x="386" 
d="M373 -71v-48h-126v44q-30 -26 -54.5 -38.5t-56.5 -12.5q-40 0 -62 21.5t-22 61.5v136l-47 29v10l128 59l12 -6v-183q0 -35 13 -48.5t43 -13.5q25 0 46 6v152l-47 30v10l128 59l11 -6v-258l3 -4h31z" />
    <glyph glyph-name="v.sinf" horiz-adv-x="369" 
d="M38 129l-46 40v11h185v-11l-40 -40l65 -145h2l71 145l-39 40v11h142v-11l-47 -40l-130 -255h-36z" />
    <glyph glyph-name="w.sinf" horiz-adv-x="535" 
d="M543 180v-11l-49 -40l-117 -255h-34l-61 149l-93 -149h-32l-119 255l-46 40v11h188v-11l-43 -40l62 -144h3l58 91l-37 89l91 23l65 -197h4l55 138l-43 40v11h148z" />
    <glyph glyph-name="x.sinf" horiz-adv-x="381" 
d="M375 -71v-48h-180v48h27l5 4l-50 58l-57 -59l4 -3h33v-48h-143v48h38l6 4l88 93l-93 107l-47 40v7h192v-6l-42 -41l49 -58l59 58l-40 40v7h146v-6l-44 -41l-93 -90l97 -114h45z" />
    <glyph glyph-name="y.sinf" horiz-adv-x="374" 
d="M20 -225v8l147 97l-126 249l-49 40v11h190v-11l-41 -40l66 -142h2l68 142l-38 40v11h143v-11l-49 -40l-132 -263l-74 -132z" />
    <glyph glyph-name="z.sinf" horiz-adv-x="331" 
d="M23 -106l160 235v3h-97l-45 -64h-10v112h274v-14l-153 -233v-4h102l42 65h11v-113h-284v13z" />
    <glyph glyph-name="a.sup" horiz-adv-x="322" 
d="M309 413v-48h-127v24q-49 -32 -91 -32q-30 0 -51.5 16.5t-21.5 53.5q0 43 35 71.5t129 39.5v10q0 70 -59 70q-35 0 -76 -26l-15 29q55 54 131 54q60 0 85.5 -31.5t25.5 -95.5v-131l4 -4h31zM182 416v85q-42 -4 -58 -16.5t-16 -34.5q-1 -20 10 -29.5t31 -9.5q11 0 33 5z
" />
    <glyph glyph-name="b.sup" horiz-adv-x="379" 
d="M354 530q0 -55 -27 -94t-69 -58.5t-87 -19.5q-65 0 -122 23v370l-47 29v10l128 59l11 -6v-213q30 24 51 34.5t49 10.5q48 0 80.5 -41t32.5 -104zM256 508q0 51 -18.5 76.5t-49.5 25.5q-15 0 -47 -5v-177q19 -25 48 -25q67 0 67 105z" />
    <glyph glyph-name="c.sup" horiz-adv-x="302" 
d="M21 509q0 46 20.5 83.5t59 60t90.5 22.5q42 0 88 -16v-120h-11l-59 76q-19 16 -38 16q-53 0 -53 -94q0 -62 29 -95t69 -33q17 0 31 3.5t31 13.5l15 -27q-48 -41 -118 -41t-112 41t-42 110z" />
    <glyph glyph-name="d.sup" horiz-adv-x="381" 
d="M364 413v-48h-126v38q-32 -24 -52.5 -34.5t-45.5 -10.5q-52 0 -83.5 41.5t-31.5 103.5q0 49 21.5 88.5t58.5 61.5t82 22q30 0 51 -10v86l-47 29v10l128 59l11 -6v-426l4 -4h30zM238 428v165q-21 36 -52 36q-30 0 -46.5 -26.5t-16.5 -75.5q0 -52 20 -78t56 -26q11 0 39 5z
" />
    <glyph glyph-name="e.sup" horiz-adv-x="319" 
d="M285 426l15 -27q-56 -41 -120 -41q-68 0 -113.5 42t-45.5 111q0 45 19.5 82.5t55.5 59.5t83 22q58 0 91 -33.5t33 -86.5q0 -18 -4 -41h-180q5 -49 29 -77.5t68 -28.5q32 0 69 18zM118 553h97q-1 39 -12 58.5t-34 19.5q-22 0 -35.5 -19.5t-15.5 -58.5z" />
    <glyph glyph-name="f.sup" horiz-adv-x="253" 
d="M24 413h31l4 4v195l-4 4h-31v48h31l4 4v3q0 91 37 133.5t110 42.5q28 0 69 -12v-100h-6l-40 40q-13 14 -22.5 20t-22.5 6q-17 0 -25 -13.5t-8 -46.5v-73l4 -4h82v-48h-82l-4 -4v-195l4 -4h46v-48h-177v48z" />
    <glyph glyph-name="g.sup" horiz-adv-x="362" 
d="M355 679v-74l-13 -2l-61 23q20 -28 20 -62q0 -52 -41.5 -83t-101.5 -31q-31 0 -58 9q-9 -12 -9 -23q0 -12 11 -17t43 -5h82q100 0 100 -71q0 -37 -27 -66t-76 -45t-112 -16q-58 0 -88 16.5t-30 46.5q0 37 53 68q-24 16 -24 46q0 20 12.5 38.5t38.5 40.5q-44 29 -44 82
q0 34 19 61.5t51.5 43.5t70.5 16q51 0 86 -26l95 33zM208 558q0 37 -12 58.5t-33 21.5q-17 0 -28.5 -18.5t-11.5 -54.5q0 -37 11 -57.5t32 -20.5q18 0 30 17.5t12 53.5zM77 337q-10 -16 -10 -29q0 -44 71 -44q46 0 77 12.5t31 33.5q0 14 -12.5 18.5t-37.5 4.5h-76
q-27 0 -43 4z" />
    <glyph glyph-name="h.sup" horiz-adv-x="394" 
d="M382 413v-48h-162v48h31l3 4v124q0 40 -13.5 55t-43.5 15q-21 0 -52 -9v-185l4 -4h30v-48h-161v48h31l4 4v359l-47 29v10l128 59l11 -6v-234q35 22 60 31.5t54 9.5q39 0 63.5 -20.5t24.5 -62.5v-175l4 -4h31z" />
    <glyph glyph-name="i.sup" horiz-adv-x="193" 
d="M47 779q0 21 15.5 35.5t38.5 14.5t38.5 -14.5t15.5 -35.5q0 -22 -15.5 -37t-38.5 -15t-38.5 15t-15.5 37zM23 413h30l4 4v166l-47 30v9l129 59l11 -5v-259l3 -4h31v-48h-161v48z" />
    <glyph glyph-name="j.sup" horiz-adv-x="190" 
d="M47 779q0 21 15.5 35.5t38.5 14.5t38.5 -14.5t15.5 -35.5q0 -22 -15.5 -37t-38.5 -15t-38.5 15t-15.5 37zM-19 252q37 15 54.5 37.5t17.5 66.5v227l-47 30v9l128 59l11 -5v-292q0 -68 -40.5 -107t-111.5 -47z" />
    <glyph glyph-name="k.sup" horiz-adv-x="385" 
d="M149 413h31v-48h-162v48h31l4 4v334l-47 29v10l128 59l11 -6v-426zM384 413v-48h-124l-109 158l91 98l-42 41v7h168v-7l-125 -115l95 -134h46z" />
    <glyph glyph-name="l.sup" horiz-adv-x="191" 
d="M18 413h31l4 4v334l-47 29v10l128 59l11 -6v-426l4 -4h30v-48h-161v48z" />
    <glyph glyph-name="m.sup" horiz-adv-x="584" 
d="M571 413v-48h-162v48h31l4 4v124q0 38 -11 54t-32 16q-28 0 -59 -9q1 -5 1 -16v-169l4 -4h31v-48h-162v48h31l3 4v124q0 38 -10.5 54t-32.5 16q-27 0 -59 -9v-185l4 -4h31v-48h-162v48h31l3 4v167l-47 29v10l116 57l11 -6l10 -42q35 22 59.5 32.5t51.5 10.5q58 0 79 -46
q38 25 62 35.5t54 10.5q41 0 63 -23.5t22 -63.5v-171l4 -4h31z" />
    <glyph glyph-name="n.sup" horiz-adv-x="397" 
d="M384 412v-47h-161v48h30l4 4v124q0 40 -13.5 55t-43.5 15q-19 0 -52 -9v-185l4 -4h30v-48h-161v48h31l3 4v167l-47 29v10l116 57l11 -6l10 -42q36 23 61 33t55 10q40 0 64.5 -20.5t24.5 -62.5v-175l3 -5h31z" />
    <glyph glyph-name="o.sup" horiz-adv-x="358" 
d="M21 508q0 48 21 86t58 59.5t84 21.5q67 0 110 -42t43 -113q0 -73 -45.5 -117.5t-117.5 -44.5q-68 0 -110.5 41.5t-42.5 108.5zM240 490q0 61 -20 99t-52 38q-24 0 -37 -23t-13 -64q0 -61 20.5 -99t51.5 -38q24 0 37 23t13 64z" />
    <glyph glyph-name="p.sup" horiz-adv-x="383" 
d="M358 525q0 -47 -21 -85.5t-58 -60t-82 -21.5q-28 0 -52 9v-88l4 -3h42v-49h-173v49h31l4 3v304l-47 29v10l116 57l10 -6l11 -44q31 23 54.5 34.5t48.5 11.5q48 0 80 -41.5t32 -108.5zM260 505q0 52 -19 78.5t-50 26.5q-22 0 -46 -5v-170q19 -32 54 -32q30 0 45.5 27
t15.5 75z" />
    <glyph glyph-name="q.sup" horiz-adv-x="380" 
d="M365 276v-49h-173v49h42l4 3v123q-29 -22 -50.5 -33t-45.5 -11q-51 0 -84 40.5t-33 103.5q0 78 54 125.5t147 47.5q50 0 105 -24v-372l3 -3h31zM238 428v176q-18 14 -28 19.5t-24 5.5q-31 0 -47 -27.5t-16 -81.5q0 -97 76 -97q17 0 39 5z" />
    <glyph glyph-name="r.sup" horiz-adv-x="274" 
d="M148 586v-169l4 -4h42v-48h-173v48h31l3 4v166l-47 29v10l116 57l11 -6l10 -51q30 27 53.5 40t44.5 13q12 0 23 -4v-99q-51 14 -105 14h-13z" />
    <glyph glyph-name="s.sup" horiz-adv-x="281" 
d="M26 383v109h10l46 -58q17 -17 31 -24.5t31 -7.5q37 0 37 28q0 16 -10.5 26t-39.5 21q-52 20 -77 44t-25 62q0 42 33.5 67t93.5 25q46 0 90 -15v-101h-11l-44 50q-20 22 -46 22q-15 0 -23.5 -7.5t-8.5 -20.5t10 -20.5t37 -21.5q53 -26 78 -48.5t25 -60.5q0 -45 -32 -69.5
t-90 -24.5q-32 0 -64 7.5t-51 17.5z" />
    <glyph glyph-name="t.sup" horiz-adv-x="253" 
d="M47 451v162l-4 3h-41v10l126 120h11v-82h98v-48h-98v-132q0 -39 9 -55.5t29 -16.5q24 0 56 17l16 -27q-24 -20 -54.5 -32t-62.5 -12q-42 0 -63.5 22t-21.5 71z" />
    <glyph glyph-name="u.sup" horiz-adv-x="386" 
d="M373 413v-48h-126v44q-30 -26 -54.5 -38.5t-56.5 -12.5q-40 0 -62 21.5t-22 61.5v136l-47 29v10l128 59l12 -6v-183q0 -35 13 -48.5t43 -13.5q25 0 46 6v152l-47 30v10l128 59l11 -6v-258l3 -4h31z" />
    <glyph glyph-name="v.sup" horiz-adv-x="369" 
d="M38 613l-46 40v11h185v-11l-40 -40l65 -145h2l71 145l-39 40v11h142v-11l-47 -40l-130 -255h-36z" />
    <glyph glyph-name="w.sup" horiz-adv-x="535" 
d="M543 664v-11l-49 -40l-117 -255h-34l-61 149l-93 -149h-32l-119 255l-46 40v11h188v-11l-43 -40l62 -144h3l58 91l-37 89l91 23l65 -197h4l55 138l-43 40v11h148z" />
    <glyph glyph-name="x.sup" horiz-adv-x="381" 
d="M375 413v-48h-180v48h27l5 4l-50 58l-57 -59l4 -3h33v-48h-143v48h38l6 4l88 93l-93 107l-47 40v7h192v-6l-42 -41l49 -58l59 58l-40 40v7h146v-6l-44 -41l-93 -90l97 -114h45z" />
    <glyph glyph-name="y.sup" horiz-adv-x="374" 
d="M20 259v8l147 97l-126 249l-49 40v11h190v-11l-41 -40l66 -142h2l68 142l-38 40v11h143v-11l-49 -40l-132 -263l-74 -132z" />
    <glyph glyph-name="z.sup" horiz-adv-x="331" 
d="M23 378l160 235v3h-97l-45 -64h-10v112h274v-14l-153 -233v-4h102l42 65h11v-113h-284v13z" />
    <glyph glyph-name="a.sc" horiz-adv-x="547" 
d="M540 60v-60h-231v60h53l4 3l-26 63h-191l-28 -63l4 -3h39v-60h-157v60h36l3 3l202 427h52l197 -427l4 -3h39zM314 187l-65 157h-5l-69 -157h139z" />
    <glyph glyph-name="aacute.sc" horiz-adv-x="547" 
d="M540 60v-60h-231v60h53l4 3l-26 63h-191l-28 -63l4 -3h39v-60h-157v60h36l3 3l202 427h52l197 -427l4 -3h39zM314 187l-65 157h-5l-69 -157h139zM309 704h124v-14l-156 -170h-55z" />
    <glyph glyph-name="abreve.sc" horiz-adv-x="547" 
d="M134 684h51q4 -49 26 -71t63 -22q42 0 66.5 21.5t28.5 71.5h45q0 -85 -36 -129.5t-104 -44.5t-104 44.5t-36 129.5zM540 60v-60h-231v60h53l4 3l-26 63h-191l-28 -63l4 -3h39v-60h-157v60h36l3 3l202 427h52l197 -427l4 -3h39zM314 187l-65 157h-5l-69 -157h139z" />
    <glyph glyph-name="acircumflex.sc" horiz-adv-x="547" 
d="M540 60v-60h-231v60h53l4 3l-26 63h-191l-28 -63l4 -3h39v-60h-157v60h36l3 3l202 427h52l197 -427l4 -3h39zM314 187l-65 157h-5l-69 -157h139zM372 520l-98 90l-103 -90h-55l127 184h68l116 -184h-55z" />
    <glyph glyph-name="adieresis.sc" horiz-adv-x="547" 
d="M540 60v-60h-231v60h53l4 3l-26 63h-191l-28 -63l4 -3h39v-60h-157v60h36l3 3l202 427h52l197 -427l4 -3h39zM314 187l-65 157h-5l-69 -157h139zM110 614q0 29 20.5 49t49.5 20t49 -20t20 -49t-20 -49.5t-49 -20.5t-49.5 20.5t-20.5 49.5zM310 614q0 29 20.5 49t49.5 20
t49 -20t20 -49t-20 -49.5t-49 -20.5t-49.5 20.5t-20.5 49.5z" />
    <glyph glyph-name="agrave.sc" horiz-adv-x="547" 
d="M540 60v-60h-231v60h53l4 3l-26 63h-191l-28 -63l4 -3h39v-60h-157v60h36l3 3l202 427h52l197 -427l4 -3h39zM314 187l-65 157h-5l-69 -157h139zM258 520l-156 170v14h124l87 -184h-55z" />
    <glyph glyph-name="amacron.sc" horiz-adv-x="547" 
d="M540 60v-60h-231v60h53l4 3l-26 63h-191l-28 -63l4 -3h39v-60h-157v60h36l3 3l202 427h52l197 -427l4 -3h39zM314 187l-65 157h-5l-69 -157h139zM137 649h264v-78h-264v78z" />
    <glyph glyph-name="aogonek.sc" horiz-adv-x="547" 
d="M540 60v-60h-17q-32 0 -62 -18t-49 -45.5t-19 -53.5q0 -22 12.5 -33.5t33.5 -11.5q20 0 36 9l14 -28q-31 -25 -57 -37t-56 -12q-37 0 -59.5 21t-22.5 56q0 41 35.5 82.5t89.5 70.5h-110v60h53l4 3l-26 63h-191l-28 -63l4 -3h39v-60h-157v60h36l3 3l202 427h52l197 -427
l4 -3h39zM314 187l-65 157h-5l-69 -157h139z" />
    <glyph glyph-name="aring.sc" horiz-adv-x="547" 
d="M540 60v-60h-231v60h53l4 3l-26 63h-191l-28 -63l4 -3h39v-60h-157v60h36l3 3l202 427h52l197 -427l4 -3h39zM314 187l-65 157h-5l-69 -157h139zM157 606q0 46 33 72.5t84 26.5q48 0 80 -25.5t33 -65.5q0 -43 -33.5 -71.5t-85.5 -28.5q-48 0 -79.5 26t-31.5 66zM314 604
q0 26 -12 43.5t-33 17.5q-19 0 -29.5 -14t-10.5 -34q0 -27 12 -45t34 -18q17 0 28 13.5t11 36.5z" />
    <glyph glyph-name="aringacute.sc" horiz-adv-x="547" 
d="M540 60v-60h-231v60h53l4 3l-26 63h-191l-28 -63l4 -3h39v-60h-157v60h36l3 3l202 427h52l197 -427l4 -3h39zM314 187l-65 157h-5l-69 -157h139zM157 606q0 46 33 72.5t84 26.5q48 0 80 -25.5t33 -65.5q0 -43 -33.5 -71.5t-85.5 -28.5q-48 0 -79.5 26t-31.5 66zM314 604
q0 26 -12 43.5t-33 17.5q-19 0 -29.5 -14t-10.5 -34q0 -27 12 -45t34 -18q17 0 28 13.5t11 36.5zM337 854h146v-7l-201 -127h-57z" />
    <glyph glyph-name="atilde.sc" horiz-adv-x="547" 
d="M540 60v-60h-231v60h53l4 3l-26 63h-191l-28 -63l4 -3h39v-60h-157v60h36l3 3l202 427h52l197 -427l4 -3h39zM314 187l-65 157h-5l-69 -157h139zM269 573q-19 11 -33.5 17t-30.5 6q-17 0 -30 -11t-19 -29l-31 18q8 47 33.5 77t60.5 30q21 0 37 -6.5t37 -19.5
q19 -11 31 -16t25 -5q33 0 45 30l32 -16q-12 -45 -33.5 -72t-53.5 -27q-18 0 -34 6t-36 18z" />
    <glyph glyph-name="ae.sc" horiz-adv-x="711" 
d="M659 166l-3 -166h-412v60h60l4 3v111h-129l-58 -111l4 -3h39v-60h-157v60h36l3 3l191 350l-76 49v13h486v-166h-22l-66 103h-131v-135h65l4 3v55h59v-181h-59v56l-4 3h-65v-150h148l61 103h22zM308 235v176h-4l-93 -176h97z" />
    <glyph glyph-name="aeacute.sc" horiz-adv-x="711" 
d="M659 166l-3 -166h-412v60h60l4 3v111h-129l-58 -111l4 -3h39v-60h-157v60h36l3 3l191 350l-76 49v13h486v-166h-22l-66 103h-131v-135h65l4 3v55h59v-181h-59v56l-4 3h-65v-150h148l61 103h22zM308 235v176h-4l-93 -176h97zM462 704h124v-14l-156 -170h-55z" />
    <glyph glyph-name="b.sc" horiz-adv-x="511" 
d="M482 146q0 -67 -57.5 -106.5t-159.5 -39.5h-221v60h60l4 3v350l-76 49v13h232q92 0 144 -29.5t52 -81.5q0 -35 -23 -63.5t-64 -45.5q54 -14 81.5 -42t27.5 -67zM228 412v-132h30q39 0 59 18.5t20 51.5q0 32 -19 47t-62 15h-28zM359 138q0 77 -103 77h-28v-152h30
q48 0 74.5 18.5t26.5 56.5z" />
    <glyph glyph-name="ordfeminine.sc" horiz-adv-x="304" 
d="M309 247v-48h-127v24q-49 -32 -91 -32q-30 0 -51.5 16.5t-21.5 53.5q0 43 35 71.5t129 39.5v10q0 70 -59 70q-35 0 -76 -26l-15 29q55 54 131 54q60 0 85.5 -31.5t25.5 -95.5v-131l4 -4h31zM182 250v85q-42 -4 -58 -16.5t-16 -34.5q-1 -20 10 -29.5t31 -9.5q11 0 33 5z
" />
    <glyph glyph-name="ordmasculine.sc" horiz-adv-x="338" 
d="M21 342q0 48 21 86t58 59.5t84 21.5q67 0 110 -42t43 -113q0 -73 -45.5 -117.5t-117.5 -44.5q-68 0 -110.5 41.5t-42.5 108.5zM240 324q0 61 -20 99t-52 38q-24 0 -37 -23t-13 -64q0 -61 20.5 -99t51.5 -38q24 0 37 23t13 64z" />
    <glyph glyph-name="c.sc" horiz-adv-x="534" 
d="M38 230q0 77 34.5 136t98 91.5t147.5 32.5q81 0 154 -19v-155h-16l-51 84q-21 17 -42 27t-49 10q-66 0 -103.5 -51t-37.5 -146q0 -98 39 -149t106 -51q66 0 103 45l45 86h16v-152q-38 -17 -84 -25.5t-88 -8.5q-81 0 -142.5 30t-95.5 85.5t-34 129.5z" />
    <glyph glyph-name="cacute.sc" horiz-adv-x="534" 
d="M38 230q0 77 34.5 136t98 91.5t147.5 32.5q81 0 154 -19v-155h-16l-51 84q-21 17 -42 27t-49 10q-66 0 -103.5 -51t-37.5 -146q0 -98 39 -149t106 -51q66 0 103 45l45 86h16v-152q-38 -17 -84 -25.5t-88 -8.5q-81 0 -142.5 30t-95.5 85.5t-34 129.5zM351 704h124v-14
l-156 -170h-55z" />
    <glyph glyph-name="ccaron.sc" horiz-adv-x="534" 
d="M38 230q0 77 34.5 136t98 91.5t147.5 32.5q81 0 154 -19v-155h-16l-51 84q-21 17 -42 27t-49 10q-66 0 -103.5 -51t-37.5 -146q0 -98 39 -149t106 -51q66 0 103 45l45 86h16v-152q-38 -17 -84 -25.5t-88 -8.5q-81 0 -142.5 30t-95.5 85.5t-34 129.5zM476 707l-127 -184
h-68l-116 184h55l98 -90l103 90h55z" />
    <glyph glyph-name="ccedilla.sc" horiz-adv-x="543" 
d="M332 -14l-19 -48q6 1 21 1q37 0 60.5 -21t23.5 -52q0 -41 -32 -68.5t-78 -27.5q-50 0 -96 36l14 26q25 -14 47 -14q24 0 40.5 10t16.5 29q0 20 -14 30t-39 10q-15 0 -33 -2l35 91q-110 8 -175.5 73.5t-65.5 170.5q0 77 34.5 136t98 91.5t147.5 32.5q81 0 154 -19v-155
h-16l-51 84q-21 17 -42 27t-49 10q-66 0 -103.5 -51t-37.5 -146q0 -98 39 -149t106 -51q66 0 103 45l45 86h16v-152q-66 -29 -150 -33z" />
    <glyph glyph-name="ccircumflex.sc" horiz-adv-x="534" 
d="M38 230q0 77 34.5 136t98 91.5t147.5 32.5q81 0 154 -19v-155h-16l-51 84q-21 17 -42 27t-49 10q-66 0 -103.5 -51t-37.5 -146q0 -98 39 -149t106 -51q66 0 103 45l45 86h16v-152q-38 -17 -84 -25.5t-88 -8.5q-81 0 -142.5 30t-95.5 85.5t-34 129.5zM399 520l-98 90
l-103 -90h-55l127 184h68l116 -184h-55z" />
    <glyph glyph-name="cdotaccent.sc" horiz-adv-x="534" 
d="M38 230q0 77 34.5 136t98 91.5t147.5 32.5q81 0 154 -19v-155h-16l-51 84q-21 17 -42 27t-49 10q-66 0 -103.5 -51t-37.5 -146q0 -98 39 -149t106 -51q66 0 103 45l45 86h16v-152q-38 -17 -84 -25.5t-88 -8.5q-81 0 -142.5 30t-95.5 85.5t-34 129.5zM246 614
q0 29 20.5 49t49.5 20t49 -20t20 -49t-20 -49.5t-49 -20.5t-49.5 20.5t-20.5 49.5z" />
    <glyph glyph-name="d.sc" horiz-adv-x="600" 
d="M44 60h60l4 3v350l-76 49v13h239q98 0 165.5 -30.5t100.5 -82t33 -114.5q0 -122 -81.5 -185t-217.5 -63h-227v60zM269 63q83 0 127 46t44 136q0 75 -44 121t-120 46h-48v-349h41z" />
    <glyph glyph-name="eth.sc" horiz-adv-x="609" 
d="M570 248q0 -122 -81.5 -185t-217.5 -63h-227v60h60l4 3v148h-63v60h63v142l-76 49v13h239q98 0 165.5 -30.5t100.5 -82t33 -114.5zM440 245q0 75 -44 121t-120 46h-48v-141h100v-60h-100v-148h41q83 0 127 46t44 136z" />
    <glyph glyph-name="dcaron.sc" horiz-adv-x="609" 
d="M44 60h60l4 3v350l-76 49v13h239q98 0 165.5 -30.5t100.5 -82t33 -114.5q0 -122 -81.5 -185t-217.5 -63h-227v60zM269 63q83 0 127 46t44 136q0 75 -44 121t-120 46h-48v-349h41zM432 707l-127 -184h-68l-116 184h55l98 -90l103 90h55z" />
    <glyph glyph-name="dcroat.sc" horiz-adv-x="609" 
d="M570 248q0 -122 -81.5 -185t-217.5 -63h-227v60h60l4 3v148h-63v60h63v142l-76 49v13h239q98 0 165.5 -30.5t100.5 -82t33 -114.5zM440 245q0 75 -44 121t-120 46h-48v-141h100v-60h-100v-148h41q83 0 127 46t44 136z" />
    <glyph glyph-name="e.sc" horiz-adv-x="511" 
d="M459 166l-3 -166h-412v60h60l4 3v350l-76 49v13h415v-166h-22l-66 103h-131v-135h65l4 3v55h59v-181h-59v56l-4 3h-65v-150h148l61 103h22z" />
    <glyph glyph-name="eacute.sc" horiz-adv-x="511" 
d="M459 166l-3 -166h-412v60h60l4 3v350l-76 49v13h415v-166h-22l-66 103h-131v-135h65l4 3v55h59v-181h-59v56l-4 3h-65v-150h148l61 103h22zM306 704h124v-14l-156 -170h-55z" />
    <glyph glyph-name="ebreve.sc" horiz-adv-x="511" 
d="M459 166l-3 -166h-412v60h60l4 3v350l-76 49v13h415v-166h-22l-66 103h-131v-135h65l4 3v55h59v-181h-59v56l-4 3h-65v-150h148l61 103h22zM121 694h51q4 -49 26 -71t63 -22q42 0 66.5 21.5t28.5 71.5h45q0 -85 -36 -129.5t-104 -44.5t-104 44.5t-36 129.5z" />
    <glyph glyph-name="ecaron.sc" horiz-adv-x="511" 
d="M459 166l-3 -166h-412v60h60l4 3v350l-76 49v13h415v-166h-22l-66 103h-131v-135h65l4 3v55h59v-181h-59v56l-4 3h-65v-150h148l61 103h22zM416 707l-127 -184h-68l-116 184h55l98 -90l103 90h55z" />
    <glyph glyph-name="ecircumflex.sc" horiz-adv-x="511" 
d="M459 166l-3 -166h-412v60h60l4 3v350l-76 49v13h415v-166h-22l-66 103h-131v-135h65l4 3v55h59v-181h-59v56l-4 3h-65v-150h148l61 103h22zM354 520l-98 90l-103 -90h-55l127 184h68l116 -184h-55z" />
    <glyph glyph-name="edieresis.sc" horiz-adv-x="511" 
d="M459 166l-3 -166h-412v60h60l4 3v350l-76 49v13h415v-166h-22l-66 103h-131v-135h65l4 3v55h59v-181h-59v56l-4 3h-65v-150h148l61 103h22zM87 614q0 29 20.5 49t49.5 20t49 -20t20 -49t-20 -49.5t-49 -20.5t-49.5 20.5t-20.5 49.5zM287 614q0 29 20.5 49t49.5 20t49 -20
t20 -49t-20 -49.5t-49 -20.5t-49.5 20.5t-20.5 49.5z" />
    <glyph glyph-name="edotaccent.sc" horiz-adv-x="511" 
d="M459 166l-3 -166h-412v60h60l4 3v350l-76 49v13h415v-166h-22l-66 103h-131v-135h65l4 3v55h59v-181h-59v56l-4 3h-65v-150h148l61 103h22zM196 614q0 29 20.5 49t49.5 20t49 -20t20 -49t-20 -49.5t-49 -20.5t-49.5 20.5t-20.5 49.5z" />
    <glyph glyph-name="egrave.sc" horiz-adv-x="511" 
d="M459 166l-3 -166h-412v60h60l4 3v350l-76 49v13h415v-166h-22l-66 103h-131v-135h65l4 3v55h59v-181h-59v56l-4 3h-65v-150h148l61 103h22zM250 520l-156 170v14h124l87 -184h-55z" />
    <glyph glyph-name="emacron.sc" horiz-adv-x="511" 
d="M459 166l-3 -166h-412v60h60l4 3v350l-76 49v13h415v-166h-22l-66 103h-131v-135h65l4 3v55h59v-181h-59v56l-4 3h-65v-150h148l61 103h22zM130 649h264v-78h-264v78z" />
    <glyph glyph-name="eogonek.sc" horiz-adv-x="511" 
d="M459 166l-3 -166h-17q-32 0 -62 -18t-49 -45.5t-19 -53.5q0 -22 12.5 -33.5t33.5 -11.5q20 0 36 9l14 -28q-31 -25 -57 -37t-56 -12q-37 0 -59.5 21t-22.5 56q0 41 35.5 82.5t89.5 70.5h-291v60h60l4 3v350l-76 49v13h415v-166h-22l-66 103h-131v-135h65l4 3v55h59v-181
h-59v56l-4 3h-65v-150h148l61 103h22z" />
    <glyph glyph-name="f.sc" horiz-adv-x="492" 
d="M465 475v-166h-22l-64 103h-151v-146h79l4 3v45h59v-159h-59v44l-4 3h-79v-138l4 -4h80v-60h-268v60h60l4 3v350l-76 49v13h433z" />
    <glyph glyph-name="g.sc" horiz-adv-x="555" 
d="M528 231v-63h-40l-4 -4v-144q-78 -35 -179 -35q-76 0 -137 30t-95.5 85.5t-34.5 128.5q0 75 33 134.5t97 93t153 33.5q69 0 151 -22v-155h-16l-52 87q-23 18 -43 26.5t-50 8.5q-68 0 -103 -52t-35 -145q0 -96 38.5 -148t105.5 -52q28 0 47 8v118l-4 4h-50v63h218z" />
    <glyph glyph-name="gbreve.sc" horiz-adv-x="559" 
d="M528 231v-63h-40l-4 -4v-144q-78 -35 -179 -35q-76 0 -137 30t-95.5 85.5t-34.5 128.5q0 75 33 134.5t97 93t153 33.5q69 0 151 -22v-155h-16l-52 87q-23 18 -43 26.5t-50 8.5q-68 0 -103 -52t-35 -145q0 -96 38.5 -148t105.5 -52q28 0 47 8v118l-4 4h-50v63h218z
M168 694h51q4 -49 26 -71t63 -22q42 0 66.5 21.5t28.5 71.5h45q0 -85 -36 -129.5t-104 -44.5t-104 44.5t-36 129.5z" />
    <glyph glyph-name="gcircumflex.sc" horiz-adv-x="559" 
d="M528 231v-63h-40l-4 -4v-144q-78 -35 -179 -35q-76 0 -137 30t-95.5 85.5t-34.5 128.5q0 75 33 134.5t97 93t153 33.5q69 0 151 -22v-155h-16l-52 87q-23 18 -43 26.5t-50 8.5q-68 0 -103 -52t-35 -145q0 -96 38.5 -148t105.5 -52q28 0 47 8v118l-4 4h-50v63h218z
M409 520l-98 90l-103 -90h-55l127 184h68l116 -184h-55z" />
    <glyph glyph-name="gcommaaccent.sc" horiz-adv-x="559" 
d="M528 231v-63h-40l-4 -4v-144q-78 -35 -179 -35q-76 0 -137 30t-95.5 85.5t-34.5 128.5q0 75 33 134.5t97 93t153 33.5q69 0 151 -22v-155h-16l-52 87q-23 18 -43 26.5t-50 8.5q-68 0 -103 -52t-35 -145q0 -96 38.5 -148t105.5 -52q28 0 47 8v118l-4 4h-50v63h218z
M373 -121q0 -38 -31 -73.5t-84 -52.5l-16 28q47 20 58 57q-20 4 -31.5 17t-11.5 32q0 21 17 36.5t41 15.5q25 0 41.5 -16.5t16.5 -43.5z" />
    <glyph glyph-name="gdotaccent.sc" horiz-adv-x="559" 
d="M528 231v-63h-40l-4 -4v-144q-78 -35 -179 -35q-76 0 -137 30t-95.5 85.5t-34.5 128.5q0 75 33 134.5t97 93t153 33.5q69 0 151 -22v-155h-16l-52 87q-23 18 -43 26.5t-50 8.5q-68 0 -103 -52t-35 -145q0 -96 38.5 -148t105.5 -52q28 0 47 8v118l-4 4h-50v63h218z
M248 614q0 29 20.5 49t49.5 20t49 -20t20 -49t-20 -49.5t-49 -20.5t-49.5 20.5t-20.5 49.5z" />
    <glyph glyph-name="h.sc" horiz-adv-x="678" 
d="M570 413v-350l4 -3h60v-60h-248v60h60l4 3v152h-222v-152l4 -3h60v-60h-248v60h60l4 3v350l-76 49v13h272v-13l-76 -49v-135h222v135l-76 49v13h272v-13z" />
    <glyph glyph-name="hbar.sc" horiz-adv-x="678" 
d="M570 413v-29h64v-60h-64v-261l4 -3h60v-60h-248v60h60l4 3v152h-222v-152l4 -3h58v-60h-246v60h60l4 3v261h-64v60h64v29l-76 49v13h272v-13l-76 -49v-29h222v29l-76 49v13h272v-13zM450 324h-222v-46h222v46z" />
    <glyph glyph-name="hcircumflex.sc" horiz-adv-x="678" 
d="M570 413v-350l4 -3h60v-60h-248v60h60l4 3v152h-222v-152l4 -3h60v-60h-248v60h60l4 3v350l-76 49v13h272v-13l-76 -49v-135h222v135l-76 49v13h272v-13zM443 520l-98 90l-103 -90h-55l127 184h68l116 -184h-55z" />
    <glyph glyph-name="i.sc" horiz-adv-x="336" 
d="M44 60h60l4 3v350l-76 49v13h272v-13l-76 -49v-350l4 -3h60v-60h-248v60z" />
    <glyph glyph-name="dotlessi.sc" horiz-adv-x="336" 
d="M44 60h60l4 3v350l-76 49v13h272v-13l-76 -49v-350l4 -3h60v-60h-248v60z" />
    <glyph glyph-name="iacute.sc" horiz-adv-x="336" 
d="M44 60h60l4 3v350l-76 49v13h272v-13l-76 -49v-350l4 -3h60v-60h-248v60zM207 704h124v-14l-156 -170h-55z" />
    <glyph glyph-name="ibreve.sc" horiz-adv-x="336" 
d="M44 60h60l4 3v350l-76 49v13h272v-13l-76 -49v-350l4 -3h60v-60h-248v60zM31 694h51q4 -49 26 -71t63 -22q42 0 66.5 21.5t28.5 71.5h45q0 -85 -36 -129.5t-104 -44.5t-104 44.5t-36 129.5z" />
    <glyph glyph-name="icircumflex.sc" horiz-adv-x="336" 
d="M44 60h60l4 3v350l-76 49v13h272v-13l-76 -49v-350l4 -3h60v-60h-248v60zM268 520l-98 90l-103 -90h-55l127 184h68l116 -184h-55z" />
    <glyph glyph-name="idieresis.sc" horiz-adv-x="336" 
d="M44 60h60l4 3v350l-76 49v13h272v-13l-76 -49v-350l4 -3h60v-60h-248v60zM0 614q0 29 20.5 49t49.5 20t49 -20t20 -49t-20 -49.5t-49 -20.5t-49.5 20.5t-20.5 49.5zM200 614q0 29 20.5 49t49.5 20t49 -20t20 -49t-20 -49.5t-49 -20.5t-49.5 20.5t-20.5 49.5z" />
    <glyph glyph-name="i.sc.loclTRK" horiz-adv-x="336" 
d="M44 60h60l4 3v350l-76 49v13h272v-13l-76 -49v-350l4 -3h60v-60h-248v60zM100 614q0 29 20.5 49t49.5 20t49 -20t20 -49t-20 -49.5t-49 -20.5t-49.5 20.5t-20.5 49.5z" />
    <glyph glyph-name="igrave.sc" horiz-adv-x="336" 
d="M44 60h60l4 3v350l-76 49v13h272v-13l-76 -49v-350l4 -3h60v-60h-248v60zM167 520l-156 170v14h124l87 -184h-55z" />
    <glyph glyph-name="imacron.sc" horiz-adv-x="336" 
d="M44 60h60l4 3v350l-76 49v13h272v-13l-76 -49v-350l4 -3h60v-60h-248v60zM36 649h264v-78h-264v78z" />
    <glyph glyph-name="iogonek.sc" horiz-adv-x="336" 
d="M46 -153q0 41 35.5 82.5t89.5 70.5h-127v60h60l4 3v350l-76 49v13h272v-13l-76 -49v-350l4 -3h60v-60h-17q-32 0 -62 -18t-49 -45.5t-19 -53.5q0 -22 12.5 -33.5t33.5 -11.5q20 0 36 9l14 -28q-31 -25 -57 -37t-56 -12q-37 0 -59.5 21t-22.5 56z" />
    <glyph glyph-name="itilde.sc" horiz-adv-x="336" 
d="M44 60h60l4 3v350l-76 49v13h272v-13l-76 -49v-350l4 -3h60v-60h-248v60zM169 573q-19 11 -33.5 17t-30.5 6q-17 0 -30 -11t-19 -29l-31 18q8 47 33.5 77t60.5 30q21 0 37 -6.5t37 -19.5q19 -11 31 -16t25 -5q33 0 45 30l32 -16q-12 -45 -33.5 -72t-53.5 -27q-18 0 -34 6
t-36 18z" />
    <glyph glyph-name="j.sc" horiz-adv-x="318" 
d="M-8 -84q43 30 65 60.5t30 66.5t8 90v280l-76 49v13h272v-13l-76 -49v-293q0 -67 -19.5 -112t-63.5 -76.5t-120 -58.5z" />
    <glyph glyph-name="jcircumflex.sc" horiz-adv-x="318" 
d="M-8 -84q43 30 65 60.5t30 66.5t8 90v280l-76 49v13h272v-13l-76 -49v-293q0 -67 -19.5 -112t-63.5 -76.5t-120 -58.5zM259 520l-98 90l-103 -90h-55l127 184h68l116 -184h-55z" />
    <glyph glyph-name="k.sc" horiz-adv-x="601" 
d="M232 60h60v-60h-248v60h60l4 3v350l-76 49v13h272v-13l-76 -49v-350zM591 60v-60h-165l-186 234l177 179l-72 49v13h240v-13l-76 -49l-148 -148l161 -202l6 -3h63z" />
    <glyph glyph-name="kcommaaccent.sc" horiz-adv-x="601" 
d="M232 60h60v-60h-248v60h60l4 3v350l-76 49v13h272v-13l-76 -49v-350zM591 60v-60h-165l-186 234l177 179l-72 49v13h240v-13l-76 -49l-148 -148l161 -202l6 -3h63zM375 -121q0 -38 -31 -73.5t-84 -52.5l-16 28q47 20 58 57q-20 4 -31.5 17t-11.5 32q0 21 17 36.5t41 15.5
q25 0 41.5 -16.5t16.5 -43.5z" />
    <glyph glyph-name="kgreenlandic.sc" horiz-adv-x="601" 
d="M232 60h60v-60h-248v60h60l4 3v350l-76 49v13h272v-13l-76 -49v-350zM591 60v-60h-165l-186 234l177 179l-72 49v13h240v-13l-76 -49l-148 -148l161 -202l6 -3h63z" />
    <glyph glyph-name="l.sc" horiz-adv-x="485" 
d="M44 60h60l4 3v350l-76 49v13h272v-13l-76 -49v-350h132l65 103h20v-166h-401v60z" />
    <glyph glyph-name="lacute.sc" horiz-adv-x="485" 
d="M44 60h60l4 3v350l-76 49v13h272v-13l-76 -49v-350h132l65 103h20v-166h-401v60zM217 704h124v-14l-156 -170h-55z" />
    <glyph glyph-name="lcaron.sc" horiz-adv-x="485" 
d="M370 502h107l-80 -203h-53zM44 60h60l4 3v350l-76 49v13h272v-13l-76 -49v-350h132l65 103h20v-166h-401v60z" />
    <glyph glyph-name="lcommaaccent.sc" horiz-adv-x="485" 
d="M44 60h60l4 3v350l-76 49v13h272v-13l-76 -49v-350h132l65 103h20v-166h-401v60zM301 -121q0 -38 -31 -73.5t-84 -52.5l-16 28q47 20 58 57q-20 4 -31.5 17t-11.5 32q0 21 17 36.5t41 15.5q25 0 41.5 -16.5t16.5 -43.5z" />
    <glyph glyph-name="ldot.sc" horiz-adv-x="485" 
d="M281 259q0 29 20.5 49t49.5 20t49 -20t20 -49t-20 -49.5t-49 -20.5t-49.5 20.5t-20.5 49.5zM44 60h60l4 3v350l-76 49v13h272v-13l-76 -49v-350h132l65 103h20v-166h-401v60z" />
    <glyph glyph-name="lslash.sc" horiz-adv-x="485" 
d="M445 166v-166h-401v60h60l4 3v123l-64 -26v69l64 25v159l-76 49v13h272v-13l-76 -49v-115l96 38v-73l-96 -38v-162h132l65 103h20z" />
    <glyph glyph-name="m.sc" horiz-adv-x="752" 
d="M727 60v-60h-246v60h58l4 3l-19 279l-159 -342h-40l-146 357l-19 -294l4 -3h58v-60h-195v60h60l4 3l22 350l-75 49v13h210l122 -294h7l137 294h199v-13l-75 -45l25 -354l4 -3h60z" />
    <glyph glyph-name="n.sc" horiz-adv-x="607" 
d="M585 475v-13l-76 -49v-413h-76l-258 326v-263l4 -3h60v-60h-195v60h60l4 3v350l-76 49v13h181l229 -299v237l-72 49v13h215z" />
    <glyph glyph-name="nacute.sc" horiz-adv-x="607" 
d="M585 475v-13l-76 -49v-413h-76l-258 326v-263l4 -3h60v-60h-195v60h60l4 3v350l-76 49v13h181l229 -299v237l-72 49v13h215zM347 704h124v-14l-156 -170h-55z" />
    <glyph glyph-name="ncaron.sc" horiz-adv-x="607" 
d="M585 475v-13l-76 -49v-413h-76l-258 326v-263l4 -3h60v-60h-195v60h60l4 3v350l-76 49v13h181l229 -299v237l-72 49v13h215zM472 707l-127 -184h-68l-116 184h55l98 -90l103 90h55z" />
    <glyph glyph-name="ncommaaccent.sc" horiz-adv-x="607" 
d="M585 475v-13l-76 -49v-413h-76l-258 326v-263l4 -3h60v-60h-195v60h60l4 3v350l-76 49v13h181l229 -299v237l-72 49v13h215zM379 -121q0 -38 -31 -73.5t-84 -52.5l-16 28q47 20 58 57q-20 4 -31.5 17t-11.5 32q0 21 17 36.5t41 15.5q25 0 41.5 -16.5t16.5 -43.5z" />
    <glyph glyph-name="eng.sc" horiz-adv-x="612" 
d="M585 475v-13l-76 -49v-303q0 -101 -39.5 -157t-136.5 -90l-20 43q42 30 67.5 56t39.5 54l-245 310v-263l4 -3h60v-60h-195v60h60l4 3v350l-76 49v13h181l230 -301v239l-76 49v13h218z" />
    <glyph glyph-name="ntilde.sc" horiz-adv-x="607" 
d="M585 475v-13l-76 -49v-413h-76l-258 326v-263l4 -3h60v-60h-195v60h60l4 3v350l-76 49v13h181l229 -299v237l-72 49v13h215zM298 574q-19 11 -33.5 17t-30.5 6q-17 0 -30 -11t-19 -29l-31 18q8 47 33.5 77t60.5 30q21 0 37 -6.5t37 -19.5q19 -11 31 -16t25 -5q33 0 45 30
l32 -16q-12 -45 -33.5 -72t-53.5 -27q-18 0 -34 6t-36 18z" />
    <glyph glyph-name="o.sc" horiz-adv-x="598" 
d="M38 234q0 76 36 134.5t97.5 90t137.5 31.5q74 0 131 -30t88.5 -85t31.5 -129q0 -78 -33 -137t-93.5 -91.5t-140.5 -32.5q-73 0 -131 29.5t-91 85.5t-33 134zM425 230q0 102 -34.5 154.5t-94.5 52.5q-59 0 -91 -51t-32 -141q0 -102 34.5 -154.5t93.5 -52.5q60 0 92 51
t32 141z" />
    <glyph glyph-name="oacute.sc" horiz-adv-x="598" 
d="M38 234q0 76 36 134.5t97.5 90t137.5 31.5q74 0 131 -30t88.5 -85t31.5 -129q0 -78 -33 -137t-93.5 -91.5t-140.5 -32.5q-73 0 -131 29.5t-91 85.5t-33 134zM425 230q0 102 -34.5 154.5t-94.5 52.5q-59 0 -91 -51t-32 -141q0 -102 34.5 -154.5t93.5 -52.5q60 0 92 51
t32 141zM346 704h124v-14l-156 -170h-55z" />
    <glyph glyph-name="obreve.sc" horiz-adv-x="598" 
d="M38 234q0 76 36 134.5t97.5 90t137.5 31.5q74 0 131 -30t88.5 -85t31.5 -129q0 -78 -33 -137t-93.5 -91.5t-140.5 -32.5q-73 0 -131 29.5t-91 85.5t-33 134zM425 230q0 102 -34.5 154.5t-94.5 52.5q-59 0 -91 -51t-32 -141q0 -102 34.5 -154.5t93.5 -52.5q60 0 92 51
t32 141zM156 694h51q4 -49 26 -71t63 -22q42 0 66.5 21.5t28.5 71.5h45q0 -85 -36 -129.5t-104 -44.5t-104 44.5t-36 129.5z" />
    <glyph glyph-name="ocircumflex.sc" horiz-adv-x="598" 
d="M38 234q0 76 36 134.5t97.5 90t137.5 31.5q74 0 131 -30t88.5 -85t31.5 -129q0 -78 -33 -137t-93.5 -91.5t-140.5 -32.5q-73 0 -131 29.5t-91 85.5t-33 134zM425 230q0 102 -34.5 154.5t-94.5 52.5q-59 0 -91 -51t-32 -141q0 -102 34.5 -154.5t93.5 -52.5q60 0 92 51
t32 141zM404 520l-98 90l-103 -90h-55l127 184h68l116 -184h-55z" />
    <glyph glyph-name="odieresis.sc" horiz-adv-x="598" 
d="M38 234q0 76 36 134.5t97.5 90t137.5 31.5q74 0 131 -30t88.5 -85t31.5 -129q0 -78 -33 -137t-93.5 -91.5t-140.5 -32.5q-73 0 -131 29.5t-91 85.5t-33 134zM425 230q0 102 -34.5 154.5t-94.5 52.5q-59 0 -91 -51t-32 -141q0 -102 34.5 -154.5t93.5 -52.5q60 0 92 51
t32 141zM132 614q0 29 20.5 49t49.5 20t49 -20t20 -49t-20 -49.5t-49 -20.5t-49.5 20.5t-20.5 49.5zM332 614q0 29 20.5 49t49.5 20t49 -20t20 -49t-20 -49.5t-49 -20.5t-49.5 20.5t-20.5 49.5z" />
    <glyph glyph-name="ograve.sc" horiz-adv-x="598" 
d="M38 234q0 76 36 134.5t97.5 90t137.5 31.5q74 0 131 -30t88.5 -85t31.5 -129q0 -78 -33 -137t-93.5 -91.5t-140.5 -32.5q-73 0 -131 29.5t-91 85.5t-33 134zM425 230q0 102 -34.5 154.5t-94.5 52.5q-59 0 -91 -51t-32 -141q0 -102 34.5 -154.5t93.5 -52.5q60 0 92 51
t32 141zM280 520l-156 170v14h124l87 -184h-55z" />
    <glyph glyph-name="ohungarumlaut.sc" horiz-adv-x="598" 
d="M38 234q0 76 36 134.5t97.5 90t137.5 31.5q74 0 131 -30t88.5 -85t31.5 -129q0 -78 -33 -137t-93.5 -91.5t-140.5 -32.5q-73 0 -131 29.5t-91 85.5t-33 134zM425 230q0 102 -34.5 154.5t-94.5 52.5q-59 0 -91 -51t-32 -141q0 -102 34.5 -154.5t93.5 -52.5q60 0 92 51
t32 141zM251 704h124v-14l-156 -170h-55zM425 704h124v-14l-156 -170h-55z" />
    <glyph glyph-name="omacron.sc" horiz-adv-x="598" 
d="M38 234q0 76 36 134.5t97.5 90t137.5 31.5q74 0 131 -30t88.5 -85t31.5 -129q0 -78 -33 -137t-93.5 -91.5t-140.5 -32.5q-73 0 -131 29.5t-91 85.5t-33 134zM425 230q0 102 -34.5 154.5t-94.5 52.5q-59 0 -91 -51t-32 -141q0 -102 34.5 -154.5t93.5 -52.5q60 0 92 51
t32 141zM177 649h264v-78h-264v78z" />
    <glyph glyph-name="oslash.sc" horiz-adv-x="598" 
d="M504 410q56 -64 56 -164q0 -78 -33 -137t-93.5 -91.5t-140.5 -32.5q-88 0 -153 42l-45 -47h-82l82 87q-57 65 -57 167q0 76 36 134.5t97.5 90t137.5 31.5q87 0 149 -40l43 45h84zM182 158l210 222q-16 28 -39.5 42.5t-51.5 14.5q-58 0 -93 -51t-35 -141q0 -49 9 -87z
M416 317l-211 -221q35 -58 96 -58q56 0 90 50.5t34 145.5q0 47 -9 83z" />
    <glyph glyph-name="oslashacute.sc" horiz-adv-x="598" 
d="M504 410q56 -64 56 -164q0 -78 -33 -137t-93.5 -91.5t-140.5 -32.5q-88 0 -153 42l-45 -47h-82l82 87q-57 65 -57 167q0 76 36 134.5t97.5 90t137.5 31.5q87 0 149 -40l43 45h84zM182 158l210 222q-16 28 -39.5 42.5t-51.5 14.5q-58 0 -93 -51t-35 -141q0 -49 9 -87z
M416 317l-211 -221q35 -58 96 -58q56 0 90 50.5t34 145.5q0 47 -9 83zM351 704h124v-14l-156 -170h-55z" />
    <glyph glyph-name="otilde.sc" horiz-adv-x="598" 
d="M38 234q0 76 36 134.5t97.5 90t137.5 31.5q74 0 131 -30t88.5 -85t31.5 -129q0 -78 -33 -137t-93.5 -91.5t-140.5 -32.5q-73 0 -131 29.5t-91 85.5t-33 134zM425 230q0 102 -34.5 154.5t-94.5 52.5q-59 0 -91 -51t-32 -141q0 -102 34.5 -154.5t93.5 -52.5q60 0 92 51
t32 141zM309 573q-19 11 -33.5 17t-30.5 6q-17 0 -30 -11t-19 -29l-31 18q8 47 33.5 77t60.5 30q21 0 37 -6.5t37 -19.5q19 -11 31 -16t25 -5q33 0 45 30l32 -16q-12 -45 -33.5 -72t-53.5 -27q-18 0 -34 6t-36 18z" />
    <glyph glyph-name="oe.sc" horiz-adv-x="787" 
d="M735 166l-3 -166h-414q-80 0 -143.5 28t-100 80.5t-36.5 125.5q0 72 39 126.5t106.5 84.5t150.5 30h389v-166h-22l-66 103h-131v-135h65l4 3v55h59v-181h-59v56l-4 3h-65v-150h148l61 103h22zM384 53v369h-58q-69 0 -111 -47t-42 -130q0 -91 41.5 -141.5t111.5 -50.5h58z
" />
    <glyph glyph-name="p.sc" horiz-adv-x="526" 
d="M228 155v-92l4 -3h65v-60h-253v60h60l4 3v350l-76 49v13h240q112 0 168 -38t56 -109q0 -82 -58.5 -127.5t-158.5 -45.5h-51zM228 412v-195h29q53 0 81 26.5t28 79.5q0 40 -26 64.5t-74 24.5h-38z" />
    <glyph glyph-name="thorn.sc" horiz-adv-x="526" 
d="M228 83v-20l4 -3h60v-60h-248v60h60l4 3v350l-76 49v13h272v-13l-76 -49v-10h44q112 0 168 -38t56 -109q0 -82 -58.5 -127.5t-158.5 -45.5h-51zM228 340v-195h29q53 0 81 26.5t28 79.5q0 40 -26 64.5t-74 24.5h-38z" />
    <glyph glyph-name="q.sc" horiz-adv-x="580" 
d="M556 -104l-23 -42q-120 38 -188.5 66t-145.5 70q-86 46 -123.5 103t-37.5 138q0 76 35 135t95.5 91.5t132.5 32.5q67 0 122 -29t87 -85t32 -133q0 -86 -45 -150.5t-118 -91.5q85 -63 177 -105zM291 38q54 0 85 50t31 146q0 93 -31.5 148t-83.5 55q-53 0 -85.5 -51.5
t-32.5 -140.5q0 -100 32.5 -153.5t84.5 -53.5z" />
    <glyph glyph-name="r.sc" horiz-adv-x="565" 
d="M555 60v-60h-153l-130 193h-44v-130l4 -3h58v-60h-246v60h60l4 3v350l-76 49v13h226q109 0 168 -31.5t59 -96.5q0 -44 -28 -77t-76 -51l108 -156l6 -3h60zM240 256q55 0 85 22t30 64q0 37 -23.5 53.5t-73.5 16.5h-30v-156h12z" />
    <glyph glyph-name="racute.sc" horiz-adv-x="565" 
d="M555 60v-60h-153l-130 193h-44v-130l4 -3h58v-60h-246v60h60l4 3v350l-76 49v13h226q109 0 168 -31.5t59 -96.5q0 -44 -28 -77t-76 -51l108 -156l6 -3h60zM240 256q55 0 85 22t30 64q0 37 -23.5 53.5t-73.5 16.5h-30v-156h12zM303 704h124v-14l-156 -170h-55z" />
    <glyph glyph-name="rcaron.sc" horiz-adv-x="565" 
d="M555 60v-60h-153l-130 193h-44v-130l4 -3h58v-60h-246v60h60l4 3v350l-76 49v13h226q109 0 168 -31.5t59 -96.5q0 -44 -28 -77t-76 -51l108 -156l6 -3h60zM240 256q55 0 85 22t30 64q0 37 -23.5 53.5t-73.5 16.5h-30v-156h12zM418 707l-127 -184h-68l-116 184h55l98 -90
l103 90h55z" />
    <glyph glyph-name="rcommaaccent.sc" horiz-adv-x="565" 
d="M555 60v-60h-153l-130 193h-44v-130l4 -3h58v-60h-246v60h60l4 3v350l-76 49v13h226q109 0 168 -31.5t59 -96.5q0 -44 -28 -77t-76 -51l108 -156l6 -3h60zM240 256q55 0 85 22t30 64q0 37 -23.5 53.5t-73.5 16.5h-30v-156h12zM344 -122q0 -38 -31 -73.5t-84 -52.5l-16 28
q47 20 58 57q-20 4 -31.5 17t-11.5 32q0 21 17 36.5t41 15.5q25 0 41.5 -16.5t16.5 -43.5z" />
    <glyph glyph-name="s.sc" horiz-adv-x="425" 
d="M46 30v150h16l60 -97q25 -23 48.5 -34t52.5 -11q34 0 52 15t18 39q0 28 -20.5 44t-64.5 37q-16 6 -38 18q-63 33 -91.5 68t-28.5 87q0 69 49 106.5t125 37.5q41 0 73.5 -8.5t68.5 -25.5v-150h-16l-56 91q-18 20 -38 30t-46 10q-28 0 -45.5 -16.5t-17.5 -41.5
q0 -26 20 -41.5t67 -37.5l50 -25q60 -32 84 -64.5t24 -79.5q0 -65 -50 -105.5t-130 -40.5q-46 0 -89 12t-77 33z" />
    <glyph glyph-name="sacute.sc" horiz-adv-x="425" 
d="M46 30v150h16l60 -97q25 -23 48.5 -34t52.5 -11q34 0 52 15t18 39q0 28 -20.5 44t-64.5 37q-16 6 -38 18q-63 33 -91.5 68t-28.5 87q0 69 49 106.5t125 37.5q41 0 73.5 -8.5t68.5 -25.5v-150h-16l-56 91q-18 20 -38 30t-46 10q-28 0 -45.5 -16.5t-17.5 -41.5
q0 -26 20 -41.5t67 -37.5l50 -25q60 -32 84 -64.5t24 -79.5q0 -65 -50 -105.5t-130 -40.5q-46 0 -89 12t-77 33zM249 704h124v-14l-156 -170h-55z" />
    <glyph glyph-name="scaron.sc" horiz-adv-x="425" 
d="M46 30v150h16l60 -97q25 -23 48.5 -34t52.5 -11q34 0 52 15t18 39q0 28 -20.5 44t-64.5 37q-16 6 -38 18q-63 33 -91.5 68t-28.5 87q0 69 49 106.5t125 37.5q41 0 73.5 -8.5t68.5 -25.5v-150h-16l-56 91q-18 20 -38 30t-46 10q-28 0 -45.5 -16.5t-17.5 -41.5
q0 -26 20 -41.5t67 -37.5l50 -25q60 -32 84 -64.5t24 -79.5q0 -65 -50 -105.5t-130 -40.5q-46 0 -89 12t-77 33zM379 707l-127 -184h-68l-116 184h55l98 -90l103 90h55z" />
    <glyph glyph-name="scedilla.sc" horiz-adv-x="425" 
d="M229 -15l-19 -47q6 1 21 1q37 0 60.5 -21t23.5 -52q0 -41 -32 -68.5t-78 -27.5q-50 0 -96 36l14 26q25 -14 47 -14q24 0 40.5 10t16.5 29q0 20 -14 30t-39 10q-15 0 -33 -2l36 92q-76 8 -131 43v150h16l60 -97q25 -23 48.5 -34t52.5 -11q34 0 52 15t18 39q0 28 -20.5 44
t-64.5 37q-16 6 -38 18q-63 33 -91.5 68t-28.5 87q0 69 49 106.5t125 37.5q41 0 73.5 -8.5t68.5 -25.5v-150h-16l-56 91q-18 20 -38 30t-46 10q-28 0 -45.5 -16.5t-17.5 -41.5q0 -26 20 -41.5t67 -37.5l50 -25q60 -32 84 -64.5t24 -79.5q0 -61 -45 -101t-118 -45z" />
    <glyph glyph-name="scircumflex.sc" horiz-adv-x="425" 
d="M46 30v150h16l60 -97q25 -23 48.5 -34t52.5 -11q34 0 52 15t18 39q0 28 -20.5 44t-64.5 37q-16 6 -38 18q-63 33 -91.5 68t-28.5 87q0 69 49 106.5t125 37.5q41 0 73.5 -8.5t68.5 -25.5v-150h-16l-56 91q-18 20 -38 30t-46 10q-28 0 -45.5 -16.5t-17.5 -41.5
q0 -26 20 -41.5t67 -37.5l50 -25q60 -32 84 -64.5t24 -79.5q0 -65 -50 -105.5t-130 -40.5q-46 0 -89 12t-77 33zM318 520l-98 90l-103 -90h-55l127 184h68l116 -184h-55z" />
    <glyph glyph-name="scommaaccent.sc" horiz-adv-x="425" 
d="M46 30v150h16l60 -97q25 -23 48.5 -34t52.5 -11q34 0 52 15t18 39q0 28 -20.5 44t-64.5 37q-16 6 -38 18q-63 33 -91.5 68t-28.5 87q0 69 49 106.5t125 37.5q41 0 73.5 -8.5t68.5 -25.5v-150h-16l-56 91q-18 20 -38 30t-46 10q-28 0 -45.5 -16.5t-17.5 -41.5
q0 -26 20 -41.5t67 -37.5l50 -25q60 -32 84 -64.5t24 -79.5q0 -65 -50 -105.5t-130 -40.5q-46 0 -89 12t-77 33zM271 -121q0 -38 -31 -73.5t-84 -52.5l-16 28q47 20 58 57q-20 4 -31.5 17t-11.5 32q0 21 17 36.5t41 15.5q25 0 41.5 -16.5t16.5 -43.5z" />
    <glyph glyph-name="germandbls.sc" horiz-adv-x="827" 
d="M46 30v150h16l60 -97q25 -23 48.5 -34t52.5 -11q34 0 52 15t18 39q0 28 -20.5 44t-64.5 37q-16 6 -38 18q-63 33 -91.5 68t-28.5 87q0 69 49 106.5t125 37.5q41 0 73.5 -8.5t68.5 -25.5v-150h-16l-56 91q-18 20 -38 30t-46 10q-28 0 -45.5 -16.5t-17.5 -41.5
q0 -26 20 -41.5t67 -37.5l50 -25q60 -32 84 -64.5t24 -79.5q0 -65 -50 -105.5t-130 -40.5q-46 0 -89 12t-77 33zM448 30v150h16l60 -97q25 -23 48.5 -34t52.5 -11q34 0 52 15t18 39q0 28 -20.5 44t-64.5 37q-16 6 -38 18q-63 33 -91.5 68t-28.5 87q0 69 49 106.5t125 37.5
q41 0 73.5 -8.5t68.5 -25.5v-150h-16l-56 91q-18 20 -38 30t-46 10q-28 0 -45.5 -16.5t-17.5 -41.5q0 -26 20 -41.5t67 -37.5l50 -25q60 -32 84 -64.5t24 -79.5q0 -65 -50 -105.5t-130 -40.5q-46 0 -89 12t-77 33z" />
    <glyph glyph-name="t.sc" horiz-adv-x="551" 
d="M152 60h60l4 3v349h-103l-64 -114h-22v177h497v-177h-21l-63 114h-104v-349l4 -3h58v-60h-246v60z" />
    <glyph glyph-name="tbar.sc" horiz-adv-x="551" 
d="M524 475v-177h-21l-63 114h-104v-150h102v-60h-102v-139l4 -3h58v-60h-246v60h60l4 3v139h-104v60h104v150h-103l-64 -114h-22v177h497z" />
    <glyph glyph-name="tcaron.sc" horiz-adv-x="551" 
d="M152 60h60l4 3v349h-103l-64 -114h-22v177h497v-177h-21l-63 114h-104v-349l4 -3h58v-60h-246v60zM437 704l-127 -184h-68l-116 184h55l98 -90l103 90h55z" />
    <glyph glyph-name="uni0163.sc" horiz-adv-x="551" 
d="M524 475v-177h-21l-63 114h-104v-349l4 -3h58v-60h-94l-24 -62q6 1 21 1q37 0 60.5 -21t23.5 -52q0 -41 -32 -68.5t-78 -27.5q-50 0 -96 36l14 26q25 -14 47 -14q24 0 40.5 10t16.5 29q0 20 -14 30t-39 10q-15 0 -33 -2l41 105h-100v60h60l4 3v349h-103l-64 -114h-22v177
h497z" />
    <glyph glyph-name="uni021B.sc" horiz-adv-x="551" 
d="M152 60h60l4 3v349h-103l-64 -114h-22v177h497v-177h-21l-63 114h-104v-349l4 -3h58v-60h-246v60zM336 -122q0 -38 -31 -73.5t-84 -52.5l-16 28q47 20 58 57q-20 4 -31.5 17t-11.5 32q0 21 17 36.5t41 15.5q25 0 41.5 -16.5t16.5 -43.5z" />
    <glyph glyph-name="u.sc" horiz-adv-x="623" 
d="M108 195v218l-76 49v13h267v-13l-72 -49v-213q0 -163 119 -163q53 0 82 38t29 119v219l-72 49v13h216v-13l-76 -49v-218q0 -106 -47.5 -158t-148.5 -52q-106 0 -163.5 53.5t-57.5 156.5z" />
    <glyph glyph-name="uacute.sc" horiz-adv-x="623" 
d="M108 195v218l-76 49v13h267v-13l-72 -49v-213q0 -163 119 -163q53 0 82 38t29 119v219l-72 49v13h216v-13l-76 -49v-218q0 -106 -47.5 -158t-148.5 -52q-106 0 -163.5 53.5t-57.5 156.5zM392 704h124v-14l-156 -170h-55z" />
    <glyph glyph-name="ubreve.sc" horiz-adv-x="623" 
d="M108 195v218l-76 49v13h267v-13l-72 -49v-213q0 -163 119 -163q53 0 82 38t29 119v219l-72 49v13h216v-13l-76 -49v-218q0 -106 -47.5 -158t-148.5 -52q-106 0 -163.5 53.5t-57.5 156.5zM203 694h51q4 -49 26 -71t63 -22q42 0 66.5 21.5t28.5 71.5h45q0 -85 -36 -129.5
t-104 -44.5t-104 44.5t-36 129.5z" />
    <glyph glyph-name="ucircumflex.sc" horiz-adv-x="623" 
d="M108 195v218l-76 49v13h267v-13l-72 -49v-213q0 -163 119 -163q53 0 82 38t29 119v219l-72 49v13h216v-13l-76 -49v-218q0 -106 -47.5 -158t-148.5 -52q-106 0 -163.5 53.5t-57.5 156.5zM438 520l-98 90l-103 -90h-55l127 184h68l116 -184h-55z" />
    <glyph glyph-name="udieresis.sc" horiz-adv-x="623" 
d="M108 195v218l-76 49v13h267v-13l-72 -49v-213q0 -163 119 -163q53 0 82 38t29 119v219l-72 49v13h216v-13l-76 -49v-218q0 -106 -47.5 -158t-148.5 -52q-106 0 -163.5 53.5t-57.5 156.5zM168 614q0 29 20.5 49t49.5 20t49 -20t20 -49t-20 -49.5t-49 -20.5t-49.5 20.5
t-20.5 49.5zM368 614q0 29 20.5 49t49.5 20t49 -20t20 -49t-20 -49.5t-49 -20.5t-49.5 20.5t-20.5 49.5z" />
    <glyph glyph-name="ugrave.sc" horiz-adv-x="623" 
d="M108 195v218l-76 49v13h267v-13l-72 -49v-213q0 -163 119 -163q53 0 82 38t29 119v219l-72 49v13h216v-13l-76 -49v-218q0 -106 -47.5 -158t-148.5 -52q-106 0 -163.5 53.5t-57.5 156.5zM331 520l-156 170v14h124l87 -184h-55z" />
    <glyph glyph-name="uhungarumlaut.sc" horiz-adv-x="623" 
d="M108 195v218l-76 49v13h267v-13l-72 -49v-213q0 -163 119 -163q53 0 82 38t29 119v219l-72 49v13h216v-13l-76 -49v-218q0 -106 -47.5 -158t-148.5 -52q-106 0 -163.5 53.5t-57.5 156.5zM287 704h124v-14l-156 -170h-55zM461 704h124v-14l-156 -170h-55z" />
    <glyph glyph-name="umacron.sc" horiz-adv-x="623" 
d="M108 195v218l-76 49v13h267v-13l-72 -49v-213q0 -163 119 -163q53 0 82 38t29 119v219l-72 49v13h216v-13l-76 -49v-218q0 -106 -47.5 -158t-148.5 -52q-106 0 -163.5 53.5t-57.5 156.5zM208 649h264v-78h-264v78z" />
    <glyph glyph-name="uogonek.sc" horiz-adv-x="623" 
d="M601 475v-13l-76 -49v-218q0 -58 -16.5 -96t-36.5 -57t-49 -39q-43 -30 -67 -60t-24 -64q0 -23 11.5 -35t31.5 -12q21 0 49 13l15 -26q-32 -25 -57 -37t-55 -12t-53 21t-23 57q0 35 23 70.5t63 68.5q-111 2 -170 54t-59 154v218l-76 49v13h267v-13l-72 -49v-213
q0 -163 119 -163q53 0 82 38t29 119v219l-72 49v13h216z" />
    <glyph glyph-name="uring.sc" horiz-adv-x="623" 
d="M108 195v218l-76 49v13h267v-13l-72 -49v-213q0 -163 119 -163q53 0 82 38t29 119v219l-72 49v13h216v-13l-76 -49v-218q0 -106 -47.5 -158t-148.5 -52q-106 0 -163.5 53.5t-57.5 156.5zM232 601q0 46 33 72.5t84 26.5q48 0 80 -25.5t33 -65.5q0 -43 -33.5 -71.5
t-85.5 -28.5q-48 0 -79.5 26t-31.5 66zM389 599q0 26 -12 43.5t-33 17.5q-19 0 -29.5 -14t-10.5 -34q0 -27 12 -45t34 -18q17 0 28 13.5t11 36.5z" />
    <glyph glyph-name="utilde.sc" horiz-adv-x="623" 
d="M108 195v218l-76 49v13h267v-13l-72 -49v-213q0 -163 119 -163q53 0 82 38t29 119v219l-72 49v13h216v-13l-76 -49v-218q0 -106 -47.5 -158t-148.5 -52q-106 0 -163.5 53.5t-57.5 156.5zM325 573q-19 11 -33.5 17t-30.5 6q-17 0 -30 -11t-19 -29l-31 18q8 47 33.5 77
t60.5 30q21 0 37 -6.5t37 -19.5q19 -11 31 -16t25 -5q33 0 45 30l32 -16q-12 -45 -33.5 -72t-53.5 -27q-18 0 -34 6t-36 18z" />
    <glyph glyph-name="v.sc" horiz-adv-x="576" 
d="M64 413l-72 49v13h280v-13l-73 -49l117 -257h4l118 257l-73 49v13h219v-13l-72 -49l-204 -413h-43z" />
    <glyph glyph-name="w.sc" horiz-adv-x="805" 
d="M813 475v-13l-72 -49l-182 -413h-37l-103 246l-128 -246h-37l-190 413l-72 49v13h270v-13l-68 -49l113 -240h4l72 157l-61 145h129l118 -302h4l94 240l-73 49v13h219z" />
    <glyph glyph-name="wacute.sc" horiz-adv-x="805" 
d="M813 475v-13l-72 -49l-182 -413h-37l-103 246l-128 -246h-37l-190 413l-72 49v13h270v-13l-68 -49l113 -240h4l72 157l-61 145h129l118 -302h4l94 240l-73 49v13h219zM447 704h124v-14l-156 -170h-55z" />
    <glyph glyph-name="wcircumflex.sc" horiz-adv-x="805" 
d="M813 475v-13l-72 -49l-182 -413h-37l-103 246l-128 -246h-37l-190 413l-72 49v13h270v-13l-68 -49l113 -240h4l72 157l-61 145h129l118 -302h4l94 240l-73 49v13h219zM510 520l-98 90l-103 -90h-55l127 184h68l116 -184h-55z" />
    <glyph glyph-name="wdieresis.sc" horiz-adv-x="805" 
d="M813 475v-13l-72 -49l-182 -413h-37l-103 246l-128 -246h-37l-190 413l-72 49v13h270v-13l-68 -49l113 -240h4l72 157l-61 145h129l118 -302h4l94 240l-73 49v13h219zM253 614q0 29 20.5 49t49.5 20t49 -20t20 -49t-20 -49.5t-49 -20.5t-49.5 20.5t-20.5 49.5zM453 614
q0 29 20.5 49t49.5 20t49 -20t20 -49t-20 -49.5t-49 -20.5t-49.5 20.5t-20.5 49.5z" />
    <glyph glyph-name="wgrave.sc" horiz-adv-x="805" 
d="M813 475v-13l-72 -49l-182 -413h-37l-103 246l-128 -246h-37l-190 413l-72 49v13h270v-13l-68 -49l113 -240h4l72 157l-61 145h129l118 -302h4l94 240l-73 49v13h219zM426 520l-156 170v14h124l87 -184h-55z" />
    <glyph glyph-name="x.sc" horiz-adv-x="543" 
d="M462 413l-138 -153l157 -196l3 -4h50v-60h-239v60h50l5 4l-98 122l-102 -122l6 -4h50v-60h-193v60h50l4 4l147 170l-144 179l-60 49v13h257v-13l-65 -49l85 -106l92 106l-65 49v13h221v-13z" />
    <glyph glyph-name="y.sc" horiz-adv-x="564" 
d="M167 60h60l4 3v108l-172 241l-72 50v13h279v-13l-76 -49l122 -180h5l113 180l-76 49v13h223v-13l-72 -49l-154 -227v-123l4 -3h60v-60h-248v60z" />
    <glyph glyph-name="yacute.sc" horiz-adv-x="564" 
d="M167 60h60l4 3v108l-172 241l-72 50v13h279v-13l-76 -49l122 -180h5l113 180l-76 49v13h223v-13l-72 -49l-154 -227v-123l4 -3h60v-60h-248v60zM341 704h124v-14l-156 -170h-55z" />
    <glyph glyph-name="ycircumflex.sc" horiz-adv-x="564" 
d="M167 60h60l4 3v108l-172 241l-72 50v13h279v-13l-76 -49l122 -180h5l113 180l-76 49v13h223v-13l-72 -49l-154 -227v-123l4 -3h60v-60h-248v60zM408 520l-98 90l-103 -90h-55l127 184h68l116 -184h-55z" />
    <glyph glyph-name="ydieresis.sc" horiz-adv-x="564" 
d="M167 60h60l4 3v108l-172 241l-72 50v13h279v-13l-76 -49l122 -180h5l113 180l-76 49v13h223v-13l-72 -49l-154 -227v-123l4 -3h60v-60h-248v60zM152 614q0 29 20.5 49t49.5 20t49 -20t20 -49t-20 -49.5t-49 -20.5t-49.5 20.5t-20.5 49.5zM352 614q0 29 20.5 49t49.5 20
t49 -20t20 -49t-20 -49.5t-49 -20.5t-49.5 20.5t-20.5 49.5z" />
    <glyph glyph-name="ygrave.sc" horiz-adv-x="564" 
d="M167 60h60l4 3v108l-172 241l-72 50v13h279v-13l-76 -49l122 -180h5l113 180l-76 49v13h223v-13l-72 -49l-154 -227v-123l4 -3h60v-60h-248v60zM300 520l-156 170v14h124l87 -184h-55z" />
    <glyph glyph-name="z.sc" horiz-adv-x="458" 
d="M171 60h178l61 108h17v-168h-410v16l257 399h-161l-62 -112h-17v172h397v-16z" />
    <glyph glyph-name="zacute.sc" horiz-adv-x="458" 
d="M171 60h178l61 108h17v-168h-410v16l257 399h-161l-62 -112h-17v172h397v-16zM277 704h124v-14l-156 -170h-55z" />
    <glyph glyph-name="zcaron.sc" horiz-adv-x="458" 
d="M171 60h178l61 108h17v-168h-410v16l257 399h-161l-62 -112h-17v172h397v-16zM389 707l-127 -184h-68l-116 184h55l98 -90l103 90h55z" />
    <glyph glyph-name="zdotaccent.sc" horiz-adv-x="458" 
d="M171 60h178l61 108h17v-168h-410v16l257 399h-161l-62 -112h-17v172h397v-16zM173 614q0 29 20.5 49t49.5 20t49 -20t20 -49t-20 -49.5t-49 -20.5t-49.5 20.5t-20.5 49.5z" />
    <glyph glyph-name="zero.denom" horiz-adv-x="402" 
d="M16 216q0 68 24 118.5t66 77t95 26.5t95 -26.5t66 -77.5t24 -120q0 -67 -24 -117.5t-66 -78t-95 -27.5t-95 27.5t-66 78t-24 119.5zM277 214q0 95 -17 135t-59 40q-41 0 -58.5 -39.5t-17.5 -133.5t17 -134.5t59 -40.5q41 0 58.5 40.5t17.5 132.5z" />
    <glyph glyph-name="one.denom" horiz-adv-x="254" 
d="M15 54h64l3 3v315l-3 3h-60v53h165v-371l3 -3h65v-53h-237v53z" />
    <glyph glyph-name="two.denom" horiz-adv-x="358" 
d="M339 153v-153h-328v46l110 109q46 46 64.5 83.5t18.5 79.5q0 36 -13.5 53.5t-36.5 17.5q-20 0 -34.5 -12.5t-38.5 -47.5l-35 -52h-15v128q54 32 126 32q76 0 116.5 -31.5t40.5 -78.5q0 -50 -29.5 -92.5t-111.5 -106.5l-72 -56h179l3 4v77h56z" />
    <glyph glyph-name="three.denom" horiz-adv-x="344" 
d="M330 121q0 -58 -46 -94.5t-114 -36.5q-44 0 -73.5 6.5t-59.5 20.5v124h12l12 -17q35 -51 57.5 -69t48.5 -18q22 0 37.5 20.5t15.5 51.5q0 91 -82 91h-33v53h34q34 0 50.5 20.5t16.5 56.5q0 26 -11 43t-32 17q-18 0 -34 -12t-40 -47l-32 -49h-13v121q46 34 126 34
q67 0 107 -27t40 -69q0 -38 -25.5 -64.5t-77.5 -43.5q55 -8 85.5 -37t30.5 -75z" />
    <glyph glyph-name="four.denom" horiz-adv-x="431" 
d="M418 183v-3l-12 -63h-94v-61l4 -3h56v-53h-223v53h56l3 3v61h-192v37l210 287h86v-258h106zM208 183v168l-122 -168h122z" />
    <glyph glyph-name="five.denom" horiz-adv-x="312" 
d="M301 132q0 -38 -21.5 -70t-58.5 -51.5t-82 -19.5q-67 0 -124 24v127h16l14 -21q36 -51 54 -66.5t45 -15.5q25 0 39.5 20t14.5 54q0 90 -100 90q-40 0 -65 -5l-7 5l16 225h245v-164h-15l-44 81h-144l-8 -101q44 17 83 17q66 0 104 -32.5t38 -96.5z" />
    <glyph glyph-name="six.denom" horiz-adv-x="369" 
d="M365 134q0 -39 -22 -72t-60.5 -52t-86.5 -19q-78 0 -128 44t-50 128q0 63 36.5 120.5t100 99.5t142.5 61l14 -36q-67 -24 -110 -66t-61 -97q37 16 78 16q69 0 108 -36t39 -91zM255 118q0 40 -21.5 63t-59.5 23q-18 0 -44 -7q-2 -20 -2 -30q0 -59 17.5 -93.5t52.5 -34.5
q29 0 43 21t14 58z" />
    <glyph glyph-name="seven.denom" horiz-adv-x="335" 
d="M337 428v-29l-163 -410l-114 26l203 332h-171l-53 -97h-15v178h313z" />
    <glyph glyph-name="eight.denom" horiz-adv-x="363" 
d="M351 108q0 -53 -48 -85.5t-116 -32.5q-75 0 -125 31t-50 87q0 33 25.5 60t70.5 41q-37 26 -52.5 51.5t-15.5 58.5q0 32 18 59t51 43.5t76 16.5q40 0 74.5 -13.5t55 -37t20.5 -50.5q0 -33 -24 -57.5t-71 -37.5l11 -8q54 -36 77 -62.5t23 -63.5zM131 348q0 -19 10 -33
t30 -27l37 -25q15 14 23.5 31.5t8.5 36.5q0 28 -17 43.5t-43 15.5q-22 0 -35.5 -12t-13.5 -30zM248 89q0 20 -16 37t-46 35l-43 27q-21 -27 -21 -71q0 -37 21.5 -58t51.5 -21q24 0 38.5 15t14.5 36z" />
    <glyph glyph-name="nine.denom" horiz-adv-x="379" 
d="M365 274q0 -97 -73 -172.5t-208 -115.5l-15 38q149 53 179 170q-43 -28 -95 -28q-61 0 -100.5 34.5t-39.5 91.5q0 40 21.5 73.5t59.5 53t86 19.5q86 0 135.5 -46t49.5 -118zM254 236q1 6 1 19q0 68 -20.5 101.5t-52.5 33.5q-30 0 -44.5 -23.5t-14.5 -66.5q0 -36 18 -56
t49 -20q32 0 64 12z" />
    <glyph glyph-name="zero.lf" horiz-adv-x="578" 
d="M33 326q0 97 32 174t90 121t134 44q126 0 191 -90t65 -251q0 -96 -31.5 -173t-89.5 -121.5t-135 -44.5q-126 0 -191 90t-65 251zM415 324q0 145 -30 212t-96 67q-68 0 -97 -65.5t-29 -211.5q0 -145 30 -212t96 -67q68 0 97 65.5t29 211.5z" />
    <glyph glyph-name="one.lf" horiz-adv-x="380" 
d="M39 67h95l5 5v506l-5 5h-95v67h220v-578l5 -5h96v-67h-321v67z" />
    <glyph glyph-name="two.lf" horiz-adv-x="508" 
d="M475 196v-196h-449v53l148 159q73 78 105 144t32 127q0 57 -23.5 88.5t-64.5 31.5q-32 0 -54 -19t-54 -67l-49 -76h-16v174q81 50 179 50q101 0 156.5 -47t55.5 -121q0 -68 -43 -140.5t-142 -159.5l-116 -102h263l5 5v96h67z" />
    </font>
</defs>
</svg>
