<svg xmlns="http://www.w3.org/2000/svg" width="100" height="100" viewBox="0 0 100 100" fill="none"><rect width="100" height="100" fill="#EBF0F6"></rect><g clip-path="url(#clip0_396_369)"><path d="M38.1958 12.2051C34.6509 12.9961 31.9117 14.9004 30.5201 17.5664C29.773 18.9873 29.524 20.0273 29.5826 21.6387L29.6265 22.9863L27.9712 23.7041C24.104 25.374 20.5005 28.0693 18.6402 30.6768C16.9263 33.0938 15.9009 36.1846 15.4761 40.2568C15.2857 42.0879 15.3882 47.8887 15.6226 49.4121L15.7691 50.291L15.0659 50.9795C14.0992 51.9316 13.8062 52.8691 13.8208 54.9932C13.8208 56.9121 14.0845 58.0254 14.9195 59.7246C16.1353 62.2002 18.2154 63.5479 20.8374 63.5625C22.024 63.5625 22.771 63.3574 23.2105 62.9473C23.562 62.625 23.562 62.5664 23.4742 61.4531L23.3716 60.2812L24.148 60.9697C25.7886 62.4053 27.7222 63.123 29.9927 63.123C31.6187 63.123 32.7906 62.8447 34.1529 62.127C36.8335 60.7207 38.6499 57.9375 38.8697 54.876C39.104 51.5947 37.2437 48.1084 34.3872 46.5264C31.4283 44.8857 27.7515 45.0469 24.9829 46.9365C23.9136 47.6836 23.1665 48.4453 22.522 49.4561L22.0972 50.1152L21.9947 49.7197C21.9361 49.5 21.9361 48.4746 21.98 47.4639C22.229 42.1318 24.5288 38.4697 29.0552 36.1846C32.6734 34.3682 37.6831 33.5625 43.0738 33.9434C52.1265 34.5879 57.3853 37.8691 59.231 44.0361C59.5533 45.0908 59.6265 45.7207 59.6851 47.4492C59.7876 50.2764 59.773 50.335 59.1724 49.3975C57.6197 46.9805 54.6753 45.3984 51.7456 45.3984C47.6441 45.4131 44.1138 48.123 43.1031 52.0635C42.7368 53.4844 42.7954 55.5205 43.2495 56.9561C44.1724 59.8564 46.5894 62.1416 49.5484 62.9033C50.6617 63.1816 52.8296 63.1816 53.9429 62.9033C55.1734 62.5811 56.4185 61.9365 57.5025 61.0576L58.4253 60.3105L58.3374 60.8818C57.5025 66.082 55.8033 69.8027 52.5659 73.5967C50.6031 75.8965 47.2632 78.6064 45.4761 79.3682C44.5972 79.7344 44.4361 79.749 41.2427 79.793C36.6577 79.8662 36.3208 79.7637 33.3911 77.5518C30.9009 75.6914 28.3521 72.9375 26.7993 70.4473C26.4771 69.9199 25.8618 68.792 25.437 67.9277C24.6314 66.2725 24.3091 65.9648 23.5181 66.1553C22.6099 66.375 22.5952 67.2393 23.4595 69.0703C24.5435 71.3555 26.3159 73.9336 28.0738 75.7646L29.0406 76.7607L28.4839 81.1113C28.1763 83.499 27.9419 85.6816 27.9419 85.9307C27.9419 86.5898 28.3814 87 29.0845 87C29.729 87 30.1538 86.6484 30.1685 86.1064C30.1831 85.7256 31.0034 78.7969 31.062 78.6211C31.0767 78.5625 31.7212 78.9727 32.4829 79.5439C35.354 81.6826 36.0279 81.873 40.8618 81.873C45.6958 81.873 46.3697 81.6826 49.1822 79.5879L50.6324 78.5186L50.7056 78.9141C50.8521 79.6318 51.5406 85.3008 51.5552 85.8867C51.5699 86.6777 51.9507 87.0293 52.7271 86.9707C53.1665 86.9414 53.4009 86.8242 53.606 86.5459C53.899 86.165 53.899 86.1504 53.2984 81.5068L52.6978 76.8633L53.5913 75.8818C56.7554 72.4541 58.938 68.4844 60.022 64.1777L60.1831 63.5625H60.9449C62.6734 63.5625 64.2115 62.918 65.4566 61.6729C67.1265 60.0029 68.0201 57.4102 67.9029 54.5537C67.8296 52.6494 67.4781 51.6973 66.5992 50.8916L66.0279 50.3789L66.2476 48.9873C66.6138 46.5703 66.8042 43.3623 66.7017 41.3701C66.3355 33.7529 64.1968 29.7393 58.5279 25.9307C57.2534 25.0811 54.69 23.7773 53.3423 23.2793L52.4341 22.957L52.4488 21.624C52.4781 19.9688 52.2437 19.002 51.4966 17.5518C50.1783 14.9883 47.2193 12.9229 43.8794 12.2344C42.5318 11.9561 39.397 11.9414 38.1958 12.2051ZM43.44 14.4316C46.1499 14.9736 48.6109 16.7168 49.6363 18.8115C50.0611 19.6904 50.1343 20.0127 50.1929 21.126C50.2368 22.3418 50.2222 22.4297 49.9732 22.3418C47.1167 21.4629 41.5064 21.0088 37.9761 21.3604C36.5406 21.5068 33.8745 21.9756 32.2339 22.3564C31.8091 22.459 31.6773 21.9609 31.8091 20.7451C32.1021 17.8447 34.9146 15.2227 38.562 14.417C39.7779 14.1533 42.0923 14.1533 43.44 14.4316ZM45.6372 23.6455C53.7085 24.7734 60.6958 28.9043 62.9517 33.8848C64.1675 36.5654 64.6802 40.418 64.4165 44.7686C64.2701 46.9658 63.9331 49.6465 63.772 49.9102C63.7281 49.9834 63.3765 50.0859 62.9956 50.1299C62.6148 50.1738 62.19 50.2471 62.0581 50.3057C61.8531 50.3789 61.8384 50.2324 61.897 48.9434C62.0288 46.2334 61.5015 43.4062 60.4468 41.1797C58.1909 36.3457 53.3863 33.2695 46.3257 32.1416C44.3628 31.8193 39.1773 31.6875 36.9947 31.9072C29.1284 32.6689 23.5767 35.9502 21.1743 41.2529C20.2954 43.1865 20.0025 44.7393 19.9146 47.6836L19.856 50.3496L19.3872 50.2178C19.1382 50.1445 18.7281 50.0859 18.4644 50.0859C18.0542 50.0859 17.9956 50.042 17.9224 49.5293C17.5122 47.0244 17.439 42.7324 17.7613 39.9785C18.4351 34.1924 20.398 30.9258 25.0708 27.8057C28.6304 25.418 33.9185 23.748 39.0747 23.3672C40.481 23.2646 43.9966 23.4111 45.6372 23.6455ZM31.1792 47.5957C33.2593 47.9912 35.1783 49.4707 36.1158 51.4043C36.6431 52.4883 36.6577 52.5322 36.6577 54.2754C36.6577 56.0186 36.6577 56.0479 36.1011 57.1758C33.523 62.376 26.4038 62.3467 23.8843 57.1318C23.4302 56.1943 23.3423 55.8574 23.2837 54.7002C23.1665 52.5029 23.7964 50.877 25.3199 49.4268C26.9605 47.8594 29.0845 47.2002 31.1792 47.5957ZM52.9322 47.6104C56.4771 48.2549 58.9966 51.7705 58.4253 55.2568C57.9712 57.9961 56.0083 60.1494 53.357 60.8525C48.5083 62.1123 43.8941 57.5127 45.1538 52.6787C45.7984 50.2031 47.6294 48.3428 50.0464 47.7129C51.2036 47.4199 51.7603 47.3906 52.9322 47.6104ZM19.4019 52.4297C19.856 52.5908 20.2368 52.7373 20.2661 52.7666C20.2954 52.7959 20.4859 53.3965 20.7056 54.1289C21.0572 55.3008 21.1011 55.7109 21.1304 58.1426C21.1597 59.6367 21.189 60.9551 21.2183 61.0723C21.3208 61.4531 19.8706 61.3213 18.9331 60.8525C17.146 59.9883 16.0474 57.7031 16.0327 54.8467C16.0327 53.3672 16.2525 52.7227 16.9263 52.3711C17.4829 52.0635 18.4351 52.0781 19.4019 52.4297ZM64.9878 52.5176C65.2368 52.7227 65.5005 53.1328 65.5884 53.4258C65.94 54.7295 65.5884 57.293 64.856 58.7285C64.4165 59.5928 63.479 60.5596 62.7613 60.9111C62.4243 61.0723 61.7798 61.248 61.3257 61.3066L60.5201 61.3945L60.5786 58.4209C60.6226 56.0918 60.6958 55.2568 60.9009 54.627C61.0327 54.1729 61.2085 53.6016 61.2671 53.3379C61.3697 52.8398 61.6333 52.6348 62.5855 52.3418C63.5962 52.0195 64.4751 52.0781 64.9878 52.5176Z" fill="#151515"></path><path d="M27.2102 53.3085C26.8147 53.704 26.8293 54.3486 27.2688 54.7587C28.4846 55.9013 32.5569 55.6669 32.9817 54.4364C33.1868 53.8798 32.9377 53.2792 32.4397 53.1034C32.1467 53.0009 31.8684 53.0302 31.3411 53.206C30.4914 53.5136 29.6418 53.5282 28.8215 53.2353C27.9866 52.9423 27.5618 52.957 27.2102 53.3085Z" fill="#151515"></path><path d="M48.9047 53.3965C48.5238 53.8799 48.5238 54.1875 48.89 54.6563C49.6078 55.5791 52.6547 55.8135 54.017 55.0518C54.6029 54.7442 54.6762 54.627 54.7201 54.1289C54.808 53.1182 54.0902 52.752 52.9477 53.2354C52.6547 53.3526 52.1127 53.4551 51.7465 53.4551C51.3803 53.4551 50.8383 53.3526 50.5453 53.2354C49.7543 52.8985 49.2563 52.957 48.9047 53.3965Z" fill="#151515"></path><path d="M73.1608 16.5995C72.4284 16.8632 72.0475 17.2148 71.7252 17.9325C71.4616 18.4892 71.4469 19.2509 71.4469 32.4784V46.4531L70.6413 52.4443C69.7916 58.7431 69.777 59.1093 70.3336 60.1786C70.6413 60.7353 71.4176 61.497 72.0914 61.8486C72.6334 62.1415 72.9557 62.1708 75.3141 62.2148C78.2438 62.2734 78.9176 62.1708 79.8991 61.497C80.6315 60.9843 81.3639 59.8271 81.4957 58.9335C81.5543 58.538 81.2907 56.1503 80.7633 52.2538L79.943 46.1747V36.7265V27.2783L79.5914 26.956C79.2985 26.6777 79.1227 26.6337 78.7125 26.707C77.7164 26.8974 77.7457 26.707 77.7457 34.1484V40.8573H75.695H73.6442L73.6735 29.8271L73.7174 18.8115H75.695H77.6725L77.7457 20.9941C77.819 23.1474 77.819 23.1767 78.2145 23.4697C78.7272 23.8505 79.3424 23.8359 79.6793 23.4257C79.9137 23.1474 79.943 22.7958 79.943 20.789C79.943 18.372 79.8551 17.8886 79.3131 17.288C78.6393 16.5702 77.9948 16.3945 75.7682 16.4091C74.4205 16.4091 73.527 16.4824 73.1608 16.5995ZM77.7457 44.2997V45.5595L75.7389 45.5156L73.7174 45.4716L73.6735 44.2558L73.6295 43.0546H75.695H77.7457V44.2997ZM77.9508 48.1376C78.0094 48.4452 78.3317 50.8915 78.6979 53.5722C79.4303 59.0361 79.4303 59.1532 78.4489 59.7538C78.0241 60.0175 77.7164 60.0468 75.7975 60.0468C73.3512 60.0468 72.7799 59.9003 72.4137 59.1825C72.0768 58.5527 72.1061 58.1718 72.8385 52.7958C73.2047 50.1298 73.4977 47.874 73.4977 47.7714C73.4977 47.6396 74.0397 47.5956 75.6803 47.5956H77.8629L77.9508 48.1376Z" fill="#151515"></path><path d="M78.9619 63.2256C77.1309 65.0859 75.915 65.54 72.1797 65.7451C70.29 65.8476 69.9678 65.9062 69.2793 66.2578C68.0342 66.8877 67.1553 67.9716 66.7012 69.4511C66.6572 69.5976 66.3496 69.7441 65.8223 69.8613C63.918 70.2568 62.5117 72.0879 62.5117 74.1826C62.5117 74.6806 62.4385 74.8418 62.1016 75.0908C61.2373 75.7353 61.1934 75.9843 61.1934 80.8769C61.1934 85.1982 61.208 85.33 61.5303 85.8867C62.2041 87.0732 61.4424 87 74.2012 87C86.7549 87 85.9932 87.0586 86.7842 86.0185L87.1943 85.4912L87.2383 81.375C87.2676 79.1045 87.2383 76.9804 87.1943 76.6289C87.1357 76.2041 86.9453 75.8086 86.6084 75.457C86.1396 74.915 86.125 74.9004 86.2715 74.0361C86.6377 71.6631 85.5244 69.3925 83.2979 68.0156L82.4775 67.5029L82.3896 66.4482C82.2725 65.1591 81.6279 62.8593 81.291 62.5078C81.1592 62.3613 80.8223 62.2148 80.5732 62.1562C80.1191 62.0683 80.0166 62.1416 78.9619 63.2256ZM80.1631 67.2685C80.1631 68.0888 80.2217 68.8506 80.2949 68.9531C80.3535 69.0556 80.8223 69.334 81.335 69.5537C83.2979 70.4472 84.0449 71.4726 84.0449 73.2451C84.0449 73.7871 84.001 74.3291 83.957 74.4609C83.8691 74.666 82.8877 74.6953 74.2744 74.6953H64.665L64.7529 74.0361C64.958 72.6006 65.7783 71.9267 67.2871 71.9121C67.6826 71.9121 68.1367 71.8242 68.2686 71.7216C68.415 71.6191 68.6201 71.1211 68.752 70.5937C69.2354 68.4697 69.9238 68.0302 72.9121 67.9131C74.1572 67.8545 75.3145 67.708 76.0322 67.5322C77.3066 67.1953 79.0059 66.375 79.5186 65.8183C80.0166 65.2763 80.1484 65.5693 80.1631 67.2685ZM84.9092 76.9511C85.0264 77.083 85.0703 77.625 85.041 78.4599L84.9971 79.749L74.2012 79.7929L63.3906 79.8222V78.3867C63.3906 77.5957 63.4346 76.8925 63.4932 76.8486C63.5371 76.79 68.3418 76.7461 74.1572 76.7461C83.0488 76.7461 84.7627 76.7754 84.9092 76.9511ZM85.041 83.2939L84.9971 84.7295L74.2012 84.7734L63.3906 84.8027V83.3379V81.873H74.2305H85.085L85.041 83.2939Z" fill="#151515"></path><path d="M38.3867 63.0351C35.1201 63.665 32.6885 65.2031 31.6631 67.2978C31.2969 68.0449 31.2383 68.3525 31.2383 69.3486C31.2383 70.3447 31.2969 70.6523 31.6631 71.3994C32.5566 73.2158 34.666 74.7099 37.3906 75.457C39.0752 75.9111 42.7227 75.9111 44.4072 75.4424C46.2676 74.9443 47.6445 74.1826 48.8311 73.0107C50.0762 71.7949 50.501 70.8428 50.501 69.3486C50.501 67.8545 50.0762 66.9023 48.8311 65.6865C47.6299 64.5 46.2383 63.7383 44.4072 63.2549C42.8984 62.874 39.8662 62.7568 38.3867 63.0351ZM42.0781 65.0273C44.29 65.291 46.2529 66.0527 47.3809 67.1074C47.8496 67.5469 48.4502 68.8066 48.4502 69.3486C48.4502 69.9638 47.8057 71.2383 47.249 71.6924C44.9199 73.6553 40.5986 74.2851 37.2295 73.1572C32.0439 71.414 32.0586 67.2685 37.2588 65.5254C37.874 65.3203 38.8701 65.1006 39.4854 65.042C40.1152 64.9687 40.6426 64.9101 40.6865 64.8955C40.7305 64.8955 41.3604 64.9541 42.0781 65.0273Z" fill="#151515"></path><path d="M37.3901 68.6162C36.2768 69.7148 37.7856 70.8574 40.5688 71.0039C41.5795 71.0478 42.0483 71.0039 42.8539 70.7548C44.1723 70.3593 44.6411 69.9931 44.6411 69.3486C44.6411 68.3964 43.9086 68.0742 42.81 68.5576C41.6674 69.0703 40.5248 69.0849 39.2065 68.6308C37.8588 68.1621 37.8295 68.1621 37.3901 68.6162Z" fill="#151515"></path><path d="M42.9704 14.7831C44.0544 15.413 45.5192 16.9072 46.0612 17.9326C46.5885 18.9433 47.0133 20.4667 46.9547 21.1259L46.9108 21.5947L48.4489 21.9023C50.1481 22.2539 50.2067 22.2392 50.2067 21.3749C50.2214 19.0458 48.4635 16.5996 45.9147 15.3837C43.9665 14.4609 41.5641 13.9628 42.9704 14.7831Z" fill="#D6694B"></path><path d="M75.2578 29.7979V40.8574H76.4297H77.6016V34.3535C77.6016 30.3984 77.6602 27.6885 77.748 27.4541C77.8213 27.249 78.085 26.9561 78.334 26.8242L78.7734 26.5752V25.1689C78.7734 23.7627 78.7734 23.748 78.3926 23.6602C77.7773 23.499 77.6016 22.8252 77.6016 20.6426V18.7383H76.4297H75.2578V29.7979Z" fill="#7A6D79"></path><path d="M39.9258 31.7314C40.2627 31.7607 40.8193 31.7607 41.1709 31.7314C41.5078 31.7021 41.2295 31.6729 40.541 31.6729C39.8525 31.6729 39.5742 31.7021 39.9258 31.7314Z" fill="#6B6B6B"></path><path d="M48.4217 35.1298C49.0809 35.4521 49.9745 35.9502 50.4139 36.2285C51.3954 36.8584 53.2557 38.6015 53.9296 39.5244C55.0721 41.0771 55.9803 43.3769 56.2733 45.4277L56.4344 46.5556L57.2987 47.2588C57.7821 47.6396 58.4706 48.372 58.8368 48.8701C59.203 49.3681 59.5692 49.7783 59.6424 49.7783C59.9208 49.8076 59.6278 45.8232 59.2469 44.3584C58.0458 39.7002 54.6473 36.5214 49.2714 35.0127C47.1473 34.4121 46.9715 34.4414 48.4217 35.1298Z" fill="#7A6D79"></path><path d="M74.4947 43.1572L75.2564 43.2158V44.3145V45.3984H76.4283H77.6002V44.2266V43.0547L75.6666 43.084C74.5973 43.0986 74.0699 43.1279 74.4947 43.1572Z" fill="#7A6D79"></path><path d="M21.9805 48.1817C21.9805 48.709 22.0098 48.9141 22.0391 48.6504C22.0684 48.4014 22.0684 47.9619 22.0391 47.6983C22.0098 47.4492 21.9805 47.6543 21.9805 48.1817Z" fill="#6B6B6B"></path><path d="M57.8984 60.7793C57.4736 61.2773 55.5547 62.4931 55.042 62.6103C54.793 62.6689 54.6318 62.7568 54.6611 62.8154C54.7637 62.9619 54.4121 64.4121 53.9434 65.833C52.3613 70.5644 48.9482 75.164 44.4951 78.5185L42.957 79.6758L40.4668 79.7051L37.9766 79.7344L40.2471 79.7929C43.1621 79.8515 44.7148 79.6611 45.8721 79.1045C47.293 78.4453 49.0947 77.0097 51.2334 74.8564C54.1191 71.956 55.9355 69.1289 57.1514 65.6279C57.7227 63.9873 58.3086 61.3945 58.2354 60.8086L58.1914 60.457L57.8984 60.7793Z" fill="#7A6D79"></path><path d="M40.5113 62.7861C40.6871 62.8154 40.9801 62.8154 41.1705 62.7861C41.3463 62.7568 41.1998 62.7275 40.8336 62.7275C40.4674 62.7275 40.3209 62.7568 40.5113 62.7861Z" fill="#6B6B6B"></path><path d="M40.5113 75.9697C40.6871 75.999 40.9801 75.999 41.1705 75.9697C41.3463 75.9404 41.1998 75.9111 40.8336 75.9111C40.4674 75.9111 40.3209 75.9404 40.5113 75.9697Z" fill="#6B6B6B"></path><path d="M39.7925 14.3584C36.6284 14.6221 33.728 16.4238 32.5268 18.8262C32.0874 19.7344 31.9848 20.1152 31.9263 21.082C31.897 21.7266 31.9116 22.2539 31.9848 22.2539C32.0581 22.2539 32.8784 22.0928 33.8013 21.9023C34.7241 21.7119 36.1157 21.4629 36.8774 21.3604C38.6792 21.1113 43.7329 21.1113 45.4907 21.3604C46.2378 21.4629 46.897 21.5215 46.9409 21.4775C46.9702 21.4336 46.9409 20.9502 46.853 20.4082C46.5307 18.3428 45.1538 16.3213 43.2056 15.0322C42.1069 14.2998 41.5942 14.1973 39.7925 14.3584Z" fill="#EC6B6B"></path><path d="M73.8955 18.8262C73.8369 18.8848 73.793 23.8652 73.793 29.9004V40.8574H74.5254H75.2578L75.2285 29.8271L75.1846 18.8115L74.5986 18.7676C74.2617 18.7383 73.9541 18.7676 73.8955 18.8262Z" fill="#918291"></path><path d="M37.5371 34.0605C37.3027 34.0898 36.5703 34.1924 35.9258 34.2803C29.4951 35.1152 24.8809 38.0889 23.0791 42.542C22.4199 44.1533 22.2148 45.2812 22.127 47.5957L22.0391 49.8662L22.6982 48.9873C24.5146 46.5264 27.5469 45.1055 30.5498 45.3105C33.8311 45.5156 36.6729 47.4199 38.0498 50.3057C38.7529 51.7998 38.9873 52.7812 38.9727 54.334C38.958 56.8096 38.0938 58.8457 36.3066 60.6328C35.6621 61.2627 34.8125 61.9365 34.2852 62.2148C31.0479 63.9287 26.8584 63.4893 24.1924 61.1455L23.46 60.5156L23.5771 61.4092C23.7236 62.4639 23.5625 63.0059 23.0205 63.2549C22.7715 63.3574 22.6689 63.5039 22.7275 63.6797C23.4307 66.1553 23.3867 66.0527 23.8408 66.0527C24.0605 66.0527 24.3682 66.0967 24.4854 66.1406C24.6172 66.1846 25.1445 67.0928 25.6719 68.1621C26.1992 69.2168 27.0781 70.7109 27.6201 71.4727C29.7588 74.4756 33.7285 78.0937 36.1455 79.2217C36.9219 79.5879 37.083 79.6025 39.8809 79.6465L42.8105 79.6904L44.4219 78.4746C48.2012 75.6328 51.4385 71.6338 53.1084 67.7373C53.6064 66.5801 54.3828 64.207 54.5439 63.3574C54.6318 62.8301 54.6172 62.7861 54.3682 62.8887C53.7969 63.1084 52.625 63.2695 51.6143 63.2695C46.7217 63.2549 42.752 59.2412 42.7373 54.3047C42.7373 52.7373 42.957 51.8437 43.7041 50.2764C45.0664 47.4199 47.8496 45.5449 51.1016 45.2959C52.7715 45.1641 53.8848 45.3984 56.1699 46.3799C56.375 46.4678 56.3164 45.8965 55.9062 44.1094C55.3936 41.8682 54.3096 39.9053 52.5957 38.1914C50.75 36.3018 47.9668 34.7197 45.8281 34.3242C44.7588 34.1191 38.5186 33.9141 37.5371 34.0605ZM42.5908 62.8301C46.0771 63.2549 49.0068 64.9395 50.1348 67.1807C50.5303 67.9277 50.5742 68.1768 50.5742 69.3486C50.5742 71.0186 50.2373 71.7363 48.875 73.1133C45.8135 76.2041 39.5439 76.8926 34.9883 74.6514C31.6045 72.9961 30.2568 69.9639 31.6338 67.0928C32.1318 66.0234 33.5527 64.749 34.9883 64.0459C37.3174 62.8887 39.8076 62.4932 42.5908 62.8301Z" fill="#918291"></path><path d="M73.793 44.2998V45.3984H74.5254H75.2578V44.2998V43.2012H74.5254H73.793V44.2998Z" fill="#918291"></path><path d="M30.623 48.3574C31.0771 48.7822 31.6924 49.5293 31.9707 50.0127C32.5713 51.0088 33.1426 52.7373 33.0254 53.1621C32.9814 53.3232 33.0107 53.499 33.084 53.543C33.2891 53.6748 33.2305 54.2461 32.9668 54.6123C32.835 54.8174 32.8057 54.9199 32.8936 54.8613C33.1572 54.7002 33.1133 55.5791 32.835 56.5459C32.4248 57.9082 31.751 59.0361 30.7695 60.0322L29.832 60.9697L30.8135 60.8818C33.6113 60.6182 36.0576 58.2744 36.585 55.3887C36.8633 53.8066 36.4531 51.917 35.5596 50.5986C35.0176 49.8076 33.8311 48.709 33.0986 48.3428C32.3516 47.9619 30.9746 47.5957 30.3008 47.5957H29.8027L30.623 48.3574Z" fill="#ECC1C1"></path><path d="M52.2725 48.2842C55.6123 51.3018 55.7295 56.9121 52.4922 60.0176L51.5547 60.9258H52.1846C53.6494 60.9258 55.5684 60.0029 56.667 58.7432C60.0068 54.9639 58.2344 49.0898 53.3564 47.8154C52.873 47.6982 52.2725 47.5957 51.9941 47.5957H51.4961L52.2725 48.2842Z" fill="#ECC1C1"></path><path d="M16.7359 52.6055C16.0767 53.1768 15.9156 54.6123 16.2818 56.5752C16.8238 59.3584 18.5523 61.2188 20.6031 61.2188H21.1305L21.0865 58.4062C21.0426 55.9014 20.9986 55.4473 20.6764 54.4365C20.4859 53.8066 20.3248 53.2061 20.3248 53.0889C20.3248 52.7959 18.816 52.2832 17.9078 52.2832C17.3072 52.2832 17.0289 52.3564 16.7359 52.6055Z" fill="#ECC1C1"></path><path d="M62.1895 52.6055C61.5742 52.8691 61.4717 52.9863 61.3252 53.5137C61.252 53.8359 61.0762 54.4219 60.959 54.8027C60.7979 55.2861 60.7246 56.2969 60.6953 58.377L60.666 61.248L61.4131 61.1748C63.9766 60.9111 65.6904 58.2012 65.5586 54.5977C65.5146 53.1621 65.5146 53.1328 65.0312 52.708C64.6211 52.3418 64.4453 52.2832 63.7129 52.2832C63.2002 52.2979 62.6143 52.415 62.1895 52.6055Z" fill="#ECC1C1"></path><path d="M42.166 65.3203C42.9131 65.7158 44.0557 66.8877 44.3633 67.5908C44.6709 68.2646 44.7148 68.6016 44.4658 68.4551C44.3633 68.3965 44.3486 68.4111 44.4072 68.5283C44.4658 68.6162 44.583 68.6602 44.6562 68.6016C44.8906 68.4551 44.7734 70.0078 44.4951 70.7549C44.1436 71.6924 43.543 72.4102 42.5469 73.084L41.6973 73.6553L42.2539 73.582C47.8789 72.7764 50.1494 69.0996 46.5605 66.624C45.7402 66.0674 43.9971 65.3936 42.957 65.2471C42.6348 65.2031 42.21 65.1299 42.0049 65.0859C41.7119 65.042 41.7412 65.0859 42.166 65.3203Z" fill="#ECC1C1"></path><path d="M49.915 79.1777C49.5488 79.4707 48.8896 79.9541 48.4355 80.2617L47.6152 80.833L47.9521 83.3672C48.1426 84.7588 48.2891 85.916 48.3037 85.9307C48.3037 85.96 49.0361 85.9746 49.9297 85.9746H51.5557L51.4678 85.5791C51.4238 85.3447 51.2188 83.748 51.0137 82.0195C50.8086 80.291 50.6182 78.8262 50.6035 78.7676C50.5889 78.709 50.2812 78.8994 49.915 79.1777Z" fill="#ECC1C1"></path><path d="M28.4534 47.8008C27.2083 48.1084 26.3001 48.6358 25.3333 49.5879C22.7405 52.166 22.6819 56.1651 25.1868 58.8164C26.095 59.7686 26.8714 60.2666 28.1018 60.6475C29.552 61.1016 29.7425 61.0576 30.7972 60.0029C32.0569 58.7432 33.0677 56.6338 33.0677 55.2715V54.7881L32.3059 55.169C30.8851 55.8721 28.1165 55.7256 27.2229 54.9053C26.5491 54.2754 26.7249 53.2354 27.5452 52.957C27.8382 52.8545 28.1311 52.8838 28.6438 53.0596C29.4934 53.3672 30.5628 53.3818 31.2659 53.0889C31.9251 52.8106 32.3352 52.8106 32.7454 53.1035C33.0384 53.3086 33.0677 53.3086 33.0677 53.0449C33.0677 52.4883 32.4817 50.877 31.969 50.0127C31.3538 48.9727 29.9329 47.5957 29.4934 47.6104C29.3177 47.6104 28.8636 47.6983 28.4534 47.8008Z" fill="#FFDFCF"></path><path d="M50.1043 47.8154C48.1267 48.3574 46.5886 49.6318 45.7244 51.4775C44.2302 54.6123 45.4021 58.3037 48.4636 60.0908C49.1228 60.4863 50.5877 60.9258 51.2029 60.9258C51.7009 60.9258 53.2976 59.3438 53.8396 58.3184C54.2937 57.4541 54.6599 56.3408 54.8211 55.2422L54.9236 54.6123L54.3963 54.9785C52.7996 56.0625 49.24 55.7402 48.6394 54.4658C48.3904 53.9531 48.6248 53.2793 49.1228 53.001C49.4304 52.8398 49.5916 52.8398 50.1043 53.001C51.115 53.3232 52.448 53.3672 52.9607 53.1035C53.5613 52.7959 54.0447 52.8105 54.4841 53.1621L54.8504 53.4404L54.7332 52.752C54.3963 50.9502 53.5759 49.4561 52.2722 48.2842C51.4373 47.5371 51.2761 47.5078 50.1043 47.8154Z" fill="#FFDFCF"></path><path d="M75.4023 47.8447C75.4023 47.9033 75.6953 50.1299 76.0615 52.7812C76.7793 58.0254 76.8379 58.8164 76.501 59.4609L76.2666 59.9004H77.1162C78.127 59.9004 78.7861 59.5635 79.0498 58.9043C79.2109 58.5234 79.1377 57.7178 78.5225 53.1328L77.8047 47.8154L76.6035 47.7715C75.9443 47.7422 75.4023 47.7861 75.4023 47.8447Z" fill="#FFDFCF"></path><path d="M39.1475 65.1885C36.3204 65.584 33.9473 67.0927 33.5225 68.748C33.2882 69.7148 33.5665 70.5205 34.46 71.414C35.7344 72.6885 37.6534 73.4062 40.2755 73.6113C41.4766 73.7138 41.5792 73.6845 42.2384 73.3037C43.2344 72.7177 44.1573 71.6924 44.4942 70.7842C44.8604 69.7881 44.8604 69.7441 44.4356 70.1396C43.586 70.9306 41.3009 71.3701 39.587 71.0478C39.1036 70.9599 38.3419 70.7109 37.9024 70.4765C36.9356 70.0078 36.6573 69.4072 37.0821 68.7627C37.4923 68.1328 37.9024 68.0742 39.0596 68.4697C40.4073 68.9384 41.418 68.9384 42.6778 68.4697C43.5567 68.1328 43.6739 68.1181 44.1426 68.3232C44.421 68.4404 44.6407 68.6015 44.6407 68.7041C44.6407 68.8066 44.67 68.8506 44.7139 68.8066C44.9337 68.5869 44.1426 67.0488 43.4542 66.3603C42.1651 65.0566 41.462 64.8515 39.1475 65.1885Z" fill="#FFDFCF"></path><path d="M31.0908 79.2656C30.959 80.0566 30.2852 85.418 30.2852 85.7109C30.2852 85.96 30.6807 85.9746 39.3086 85.9746H48.332L48.2441 85.5645C48.2002 85.3447 48.0537 84.2754 47.9365 83.1914C47.8047 82.1074 47.6582 81.126 47.6289 81.0234C47.585 80.8916 47.3799 80.9355 46.8379 81.2139C45.5049 81.8877 44.5674 82.0195 40.832 82.0195C36.1885 82.0195 35.2656 81.7705 32.5557 79.749C31.8525 79.2217 31.2666 78.7969 31.2373 78.7969C31.208 78.7969 31.1348 79.0166 31.0908 79.2656Z" fill="#FFDFCF"></path><path d="M64 78.5V80H74.5H85V78.5V77H74.5H64V78.5Z" fill="#6BECEC"></path><path d="M64.0512 83.4526L64.1024 84.9211L74.5597 84.9684L85 85V83.5V82H74.5085H64L64.0512 83.4526Z" fill="#6BECEC"></path><path d="M49.4741 24.8028C50.0747 25.0664 50.9243 25.4619 51.3491 25.6817C54.2348 27.1465 57.355 29.8125 58.6147 31.8926C59.772 33.7969 60.5776 36.8877 60.7095 39.8321C60.7534 41.1651 60.8559 41.7803 61.1782 42.7617C61.7788 44.5489 61.9839 45.9258 61.9839 48.2256C61.9985 49.9248 62.0278 50.2178 62.2036 50.1592C62.3354 50.1153 62.7016 50.0274 63.0532 49.9834C63.7856 49.8809 63.7563 49.9541 64.0347 47.7422C65.0307 40.1104 63.9175 34.2364 60.8852 30.9844C58.1167 28.0108 54.0737 25.6963 49.7671 24.5977C48.229 24.2022 48.185 24.2315 49.4741 24.8028Z" fill="#C1ECEC"></path><path d="M21.9199 30.4131L21.4219 30.9697L21.9785 30.4717C22.4766 29.9883 22.5938 29.8711 22.4766 29.8711C22.4473 29.8711 22.1982 30.1201 21.9199 30.4131Z" fill="#C1ECEC"></path><path d="M23.8242 37.1514L23.3262 37.708L23.8828 37.21C24.3809 36.7266 24.498 36.6094 24.3809 36.6094C24.3516 36.6094 24.1025 36.8584 23.8242 37.1514Z" fill="#C1ECEC"></path><path d="M38.049 23.5869C31.1642 24.334 25.8469 26.6338 22.009 30.5156C20.6467 31.8779 20.2804 32.3613 19.7092 33.46C18.9474 34.9541 18.4054 36.624 18.0246 38.6602C17.8195 39.7881 17.7609 40.8135 17.7756 44.0801C17.7756 46.292 17.8488 48.5039 17.9221 48.9727L18.0539 49.8369L18.9035 50.0127L19.7385 50.1738V48.2549C19.7385 39.29 24.924 33.7676 34.9728 32.0391C36.4963 31.7754 37.4045 31.7168 40.466 31.7168C44.9777 31.7021 47.1896 31.9805 50.4123 32.9619C54.8654 34.3242 58.1027 36.7412 60.1096 40.2275L60.7834 41.3701L60.6955 39.7295C60.549 36.7559 59.758 33.7676 58.6154 31.8926C57.59 30.208 55.2756 28.0547 52.8293 26.5166C51.716 25.8281 49.1525 24.5977 48.0832 24.2461C46.1935 23.6309 40.8029 23.2793 38.049 23.5869Z" fill="#ECECEC"></path><path d="M73.5711 48.2109C73.5272 48.4746 73.2049 50.8916 72.8387 53.5869C72.2235 58.2305 72.1942 58.4941 72.4286 58.9775C72.7801 59.71 73.2635 59.9004 74.8748 59.9004H76.2664L76.5008 59.4609C76.8377 58.8164 76.7791 58.0254 76.0614 52.7812C75.6952 50.1299 75.4022 47.918 75.4022 47.8447C75.4022 47.7861 75.0067 47.7422 74.5233 47.7422C73.659 47.7422 73.659 47.7422 73.5711 48.2109Z" fill="#ECECEC"></path><path d="M78.9326 66.3604C77.4824 67.415 75.71 67.8838 72.458 68.0742C70.7441 68.1768 70.4072 68.2354 70.0117 68.5283C69.4258 68.9385 68.9863 69.7881 68.8545 70.6963C68.7227 71.707 68.3125 72.0586 67.2725 72.0586C66.0859 72.0586 65.4854 72.3516 65.1484 73.1133C64.9873 73.4648 64.8555 73.9189 64.8555 74.1533V74.5488L74.333 74.5195L83.8105 74.4756L83.9277 73.8164C84.001 73.4209 83.9863 72.835 83.8838 72.3662C83.752 71.6924 83.5908 71.4434 82.8877 70.7402C82.3164 70.1689 81.833 69.832 81.2764 69.627C80.1484 69.2314 79.9141 68.8652 80.0312 67.7227C80.1338 66.7998 80.0166 65.7451 79.8262 65.7744C79.7676 65.7744 79.3721 66.0381 78.9326 66.3604Z" fill="#ECECEC"></path></g><defs><clipPath id="clip0_396_369"><rect width="75" height="75" fill="white" transform="translate(13 12)"></rect></clipPath></defs></svg>