<svg xmlns="http://www.w3.org/2000/svg" width="100" height="100" viewBox="0 0 100 100" fill="none"><rect width="100" height="100" fill="#EBF0F6"></rect><g clip-path="url(#clip0_397_96)"><path d="M86.4375 57.3125V85.4375H14.5625V63.5625C15.2519 62.1871 16.2143 60.9665 17.3909 59.9752C18.5676 58.984 19.9338 58.2428 21.4062 57.7968C55.6406 57.1875 41.0156 57.3125 86.4375 57.3125Z" fill="#DB5669"></path><path d="M86.4388 57.3125V82.3125H22.3763C21.1331 82.3125 19.9409 81.8186 19.0618 80.9395C18.1827 80.0604 17.6888 78.8682 17.6888 77.625C17.6888 58.875 17.392 60.7187 18.4076 59.2187C19.3301 58.5961 20.3416 58.1167 21.4076 57.7968C55.642 57.1875 41.017 57.3125 86.4388 57.3125Z" fill="#F26674"></path><path d="M40.9219 74.6719C41.0759 75.092 41.3595 75.4522 41.7318 75.7005C42.104 75.9487 42.5455 76.0722 42.9925 76.0531C43.4395 76.034 43.8688 75.8732 44.2185 75.594C44.5681 75.3148 44.8199 74.9317 44.9375 74.5C45.8594 70.4375 45.6562 64.9688 46.3281 62.4063C47.375 58.4532 50.5 55.5 50.5 50.5625C50.5 48.5938 50.5 41.6875 43.2031 41.6875C41.3376 41.6341 39.4768 41.9037 37.7031 42.4844C33.5625 44.0469 32.2344 41.6875 26.5469 41.6875C19.25 41.6875 19.25 48.5938 19.25 50.5625C19.25 55.5 22.375 58.4532 23.4219 62.4063C24.0938 64.9688 23.9375 70.4375 24.8125 74.5C24.9301 74.9317 25.1819 75.3148 25.5315 75.594C25.8812 75.8732 26.3105 76.034 26.7575 76.0531C27.2045 76.0722 27.646 75.9487 28.0182 75.7005C28.3905 75.4522 28.6741 75.092 28.8281 74.6719C32.625 62.7813 36.7969 61.7813 40.9219 74.6719Z" fill="#DAD7E5"></path><path d="M50.5 50.5625C50.5 55.5 47.375 58.4531 46.3281 62.4062C45.6719 64.9219 45.8594 70.2188 44.9844 74.25C44.928 74.7217 44.7129 75.1602 44.3744 75.4935C44.0359 75.8267 43.5942 76.035 43.1217 76.0841C42.6492 76.1332 42.1741 76.0201 41.7743 75.7635C41.3746 75.5068 41.074 75.1219 40.9219 74.6719C37.1094 62.7344 32.9844 61.9687 28.9688 74.2656C28.7074 74.1369 28.4788 73.9504 28.3002 73.7203C28.1215 73.4902 27.9975 73.2226 27.9375 72.9375C27.0156 68.875 27.2188 63.4062 26.5469 60.8438C25.5 56.8906 22.375 53.9375 22.375 49C22.375 47.6563 22.375 44.0469 24.6719 41.8594C27.1457 41.5021 29.6685 41.7159 32.0469 42.4844C36.1719 44.0469 37.4844 41.6875 43.2031 41.6875C50.5 41.6875 50.5 48.5938 50.5 50.5625Z" fill="#EDEBF2"></path><path d="M72.4688 33.2969L64.9063 36.0625C59.4063 21.75 58.3125 20.2656 58.3125 13.5625H67.6875C67.6875 20.3281 66.8281 16.4687 72.4688 33.2969Z" fill="#DAD7E5"></path><path d="M71.7031 31.0156C70.3078 31.5249 68.7683 31.4665 67.4156 30.8529C66.0629 30.2394 65.0048 29.1197 64.4687 27.7344C61.4375 20.0156 60.3906 17.8438 60 13.5625H67.6875C67.6875 20.3281 66.9531 16.7813 71.7031 31.0156Z" fill="#EDEBF2"></path><path d="M81.7514 39.2813C81.7656 40.6429 81.3568 41.9754 80.5816 43.0948C79.8064 44.2143 78.7028 45.0656 77.4232 45.5313L66.6264 49.4688C66.214 49.602 65.7657 49.5668 65.3793 49.3706C64.9928 49.1745 64.6997 48.8334 64.5639 48.4219L61.1889 39.1563C61.094 38.954 61.0436 38.7337 61.0411 38.5103C61.0386 38.2868 61.0841 38.0655 61.1744 37.8611C61.2647 37.6567 61.3979 37.4741 61.5648 37.3256C61.7317 37.177 61.9285 37.066 62.142 37L72.9389 33.0625C73.9347 32.699 75.0037 32.5822 76.0546 32.722C77.1054 32.8618 78.1067 33.2541 78.9728 33.8653C79.839 34.4765 80.5441 35.2884 81.028 36.2316C81.5119 37.1748 81.7601 38.2212 81.7514 39.2813Z" fill="#7C7D7D"></path><path d="M81.6094 40.5782C80.1875 42.1407 78.8125 42.4063 75.4531 43.625C73.1179 44.4758 70.5405 44.3644 68.2873 43.3155C66.0342 42.2666 64.2898 40.3659 63.4375 38.0313L63 36.75L72.9531 33.125C74.0462 32.7322 75.2241 32.6366 76.3662 32.8479C77.5084 33.0592 78.574 33.5699 79.4543 34.3278C80.3345 35.0857 80.9978 36.0636 81.3764 37.1618C81.7551 38.2599 81.8354 39.4388 81.6094 40.5782Z" fill="#919191"></path><path d="M50.5001 49.8437C50.1328 49.8433 49.7774 49.7135 49.4963 49.4771C49.2152 49.2407 49.0263 48.9128 48.9629 48.551C48.8995 48.1892 48.9656 47.8166 49.1495 47.4987C49.3335 47.1808 49.6236 46.9378 49.9689 46.8125L56.1407 44.5625C56.527 44.435 56.9477 44.4632 57.3136 44.641C57.6794 44.8188 57.9614 45.1323 58.0998 45.5148C58.2381 45.8973 58.2219 46.3187 58.0545 46.6894C57.887 47.0601 57.5817 47.3509 57.2032 47.5C50.5001 49.9375 50.8907 49.8437 50.5001 49.8437Z" fill="#DAD7E5"></path><path d="M63.9694 46.875L59.2819 48.5625C59.0799 48.6488 58.862 48.6915 58.6423 48.6879C58.4227 48.6843 58.2063 48.6344 58.0073 48.5415C57.8082 48.4486 57.631 48.3148 57.4872 48.1488C57.3433 47.9828 57.2361 47.7884 57.1725 47.5781L56.0475 44.4531C55.9612 44.2511 55.9185 44.0332 55.9221 43.8136C55.9257 43.594 55.9756 43.3776 56.0685 43.1785C56.1614 42.9795 56.2952 42.8023 56.4612 42.6584C56.6272 42.5146 56.8216 42.4074 57.0319 42.3437L61.7194 40.6562C63.4381 45.4219 63.0006 44.0469 63.9694 46.875Z" fill="#DAD7E5"></path><path d="M63.1406 44.625L60.9062 45.4375C60.7043 45.5238 60.4863 45.5665 60.2667 45.5629C60.0471 45.5593 59.8307 45.5094 59.6317 45.4165C59.4326 45.3236 59.2554 45.1898 59.1116 45.0238C58.9677 44.8578 58.8605 44.6634 58.7969 44.4531L57.9375 42.0781L61.7188 40.7031L63.1406 44.625Z" fill="#EDEBF2"></path><path d="M47.375 38.5624C46.1875 38.5624 46.4062 38.4218 41.3437 29.9843C41.1844 29.6318 41.1615 29.2328 41.2795 28.8644C41.3974 28.496 41.6478 28.1845 41.9822 27.99C42.3166 27.7956 42.7113 27.7321 43.0898 27.8119C43.4683 27.8917 43.8037 28.109 44.0312 28.4218L48.7187 36.2343C48.8517 36.4707 48.9207 36.7377 48.9192 37.0089C48.9177 37.2801 48.8456 37.5462 48.71 37.7811C48.5744 38.016 48.38 38.2116 48.146 38.3486C47.9119 38.4856 47.6462 38.5593 47.375 38.5624ZM52.0625 35.1249L53.625 27.3124C53.7079 26.898 53.952 26.5335 54.3036 26.2991C54.6552 26.0647 55.0856 25.9796 55.5 26.0624C55.9144 26.1453 56.2789 26.3894 56.5133 26.7411C56.7477 27.0927 56.8329 27.523 56.75 27.9374L55.1875 35.7499C55.1046 36.1643 54.8605 36.5288 54.5089 36.7633C54.1572 36.9977 53.7269 37.0828 53.3125 36.9999C52.8981 36.9171 52.5336 36.673 52.2992 36.3213C52.0647 35.9697 51.9796 35.5393 52.0625 35.1249Z" fill="#FFDE76"></path><path d="M50.5018 50.5625C50.5056 51.2551 50.4375 51.9463 50.2987 52.625C48.8886 52.8224 47.4515 52.6109 46.158 52.0156C44.0643 50.875 45.1893 48.7812 40.9705 47.5781C39.9734 47.1611 39.1419 46.4266 38.605 45.4886C38.0682 44.5506 37.8562 43.4615 38.0018 42.3906C39.6903 41.8931 41.4449 41.656 43.2049 41.6875C48.5174 41.6875 50.5018 45.25 50.5018 50.5625Z" fill="#FFCC66"></path><path d="M50.5001 49.5938C44.9064 49.3282 47.8439 46.0001 42.547 44.4844C41.9613 44.2605 41.4276 43.919 40.9788 43.481C40.53 43.043 40.1757 42.5177 39.9376 41.9376C46.3283 40.8438 50.2501 42.9688 50.5001 49.5938ZM26.797 62.2344C25.5992 62.3696 24.3864 62.2306 23.2501 61.8282C21.6876 57.2188 18.9376 55.2188 19.2814 49.2188C23.7033 49.5001 27.0626 52.6251 30.1876 55.7501C32.6564 58.2188 30.1876 61.6719 26.797 62.2344Z" fill="#FFDE76"></path><path d="M26.797 62.2344C25.5992 62.3695 24.3864 62.2306 23.2501 61.8281C21.6876 57.2187 18.9376 55.2188 19.2814 49.2188C20.3538 49.2964 21.4078 49.5389 22.4064 49.9375C22.8126 54.9375 26.2345 57.6406 26.797 62.2344Z" fill="#FFCC66"></path><path d="M86.4383 83.875H14.5633C14.1489 83.875 13.7515 84.0396 13.4584 84.3326C13.1654 84.6257 13.0008 85.0231 13.0008 85.4375C13.0008 85.8519 13.1654 86.2493 13.4584 86.5424C13.7515 86.8354 14.1489 87 14.5633 87H86.4383C86.8527 87 87.2501 86.8354 87.5432 86.5424C87.8362 86.2493 88.0008 85.8519 88.0008 85.4375C88.0008 85.0231 87.8362 84.6257 87.5432 84.3326C87.2501 84.0396 86.8527 83.875 86.4383 83.875ZM15.9539 64.2656C16.952 62.2672 18.6071 60.6728 20.6414 59.75C21.1487 60.7241 21.562 61.7444 21.8758 62.7969C22.4696 65.0781 22.3289 70.7188 23.2508 74.8438C23.44 75.6164 23.875 76.3066 24.4903 76.8107C25.1056 77.3148 25.868 77.6055 26.6627 77.639C27.4575 77.6724 28.2416 77.4469 28.8971 76.9964C29.5527 76.5458 30.0442 75.8946 30.2977 75.1406C32.4539 68.4062 34.3133 66.9219 34.8445 66.9219C35.3758 66.9219 37.2352 68.4844 39.3914 75.1406C39.6538 75.8856 40.1485 76.5266 40.8025 76.9694C41.4566 77.4121 42.2356 77.6331 43.0247 77.5999C43.8139 77.5666 44.5715 77.2809 45.186 76.7847C45.8005 76.2885 46.2395 75.6082 46.4383 74.8438C46.9306 72.4538 47.244 70.0304 47.3758 67.5938C47.6883 62.9063 47.7196 62.5 49.5946 58.875H86.4383C86.8527 58.875 87.2501 58.7104 87.5432 58.4174C87.8362 58.1243 88.0008 57.7269 88.0008 57.3125C88.0008 56.8981 87.8362 56.5007 87.5432 56.2076C87.2501 55.9146 86.8527 55.75 86.4383 55.75H51.0008C51.867 53.7482 52.2317 51.5653 52.0633 49.3906C56.0789 47.9375 55.7508 47.9531 55.8133 48.1094C56.0273 48.7323 56.4326 49.2716 56.9713 49.6504C57.5101 50.0292 58.1548 50.2281 58.8133 50.2188C59.5477 50.2188 59.6571 50.125 63.0789 48.875C63.2945 49.5123 63.7043 50.0661 64.2508 50.4584C64.7973 50.8508 65.453 51.062 66.1258 51.0625C66.9227 51.0625 66.3914 51.1719 78.0164 46.9375C79.947 46.2343 81.5386 44.8244 82.4697 42.9929C83.4008 41.1613 83.602 39.0446 83.0325 37.0705C82.4631 35.0963 81.1655 33.4119 79.402 32.3576C77.6385 31.3033 75.5406 30.9577 73.5321 31.3906C68.4071 16.1719 69.2508 20.0781 69.2508 13.5625C69.2508 13.1481 69.0862 12.7507 68.7932 12.4576C68.5001 12.1646 68.1027 12 67.6883 12C67.2739 12 66.8765 12.1646 66.5834 12.4576C66.2904 12.7507 66.1258 13.1481 66.1258 13.5625C66.1258 20.7656 65.4383 17.1406 70.5008 32.3125L65.8133 34.0312C60.8758 21.2188 59.8758 19.8906 59.8758 13.5625C59.8758 13.1481 59.7112 12.7507 59.4182 12.4576C59.1251 12.1646 58.7277 12 58.3133 12C57.8989 12 57.5015 12.1646 57.2084 12.4576C56.9154 12.7507 56.7508 13.1481 56.7508 13.5625C56.7508 20.3594 57.7039 21.7031 62.8758 35.125L61.6102 35.5938C61.2073 35.7277 60.836 35.9424 60.5189 36.2246C60.2018 36.5068 59.9455 36.8506 59.7656 37.2352C59.5858 37.6197 59.4862 38.0369 59.4729 38.4612C59.4596 38.8855 59.5329 39.3081 59.6883 39.7031C59.8914 40.2344 53.0008 40.5469 54.6727 45.1094L51.5477 46.25C51.1052 44.4076 50.0244 42.7815 48.4969 41.6602C46.9695 40.539 45.0943 39.9951 43.2039 40.125C37.0945 40.125 36.2195 42.3594 32.5789 41.0312C30.6376 40.3762 28.5958 40.0694 26.5477 40.125C17.8602 40.125 15.7664 49.5 19.2508 56.9688C16.613 58.1883 14.4653 60.2644 13.157 62.8594C12.9706 63.2303 12.9391 63.66 13.0695 64.0542C13.1999 64.4483 13.4815 64.7745 13.8524 64.9609C14.2233 65.1474 14.653 65.1789 15.0471 65.0485C15.4413 64.9181 15.7674 64.6365 15.9539 64.2656ZM62.6727 38.5625L73.4696 34.625C74.0953 34.3506 74.7706 34.2074 75.4538 34.2041C76.1371 34.2009 76.8138 34.3377 77.4421 34.6061C78.0704 34.8746 78.637 35.2689 79.1069 35.7649C79.5769 36.2608 79.9402 36.8478 80.1745 37.4897C80.4088 38.1315 80.509 38.8146 80.469 39.4966C80.4291 40.1787 80.2497 40.8454 79.9421 41.4554C79.6344 42.0655 79.205 42.606 78.6803 43.0437C78.1556 43.4813 77.5468 43.8068 76.8914 44L65.9539 47.8906C64.5633 43.9062 62.5164 38.5625 62.6727 38.5625ZM57.6258 43.8906C57.782 43.8906 56.8914 44.1562 60.7508 42.7344L61.9227 45.9531L58.6727 47.0781C57.6727 44.2188 57.4695 43.9219 57.6258 43.8594V43.8906ZM24.4383 60.5156C23.1414 57.1562 21.0321 54.7031 20.8133 51.0625C24.1727 51.9688 26.9383 54.7344 29.0477 56.8438C31.157 58.9531 27.5321 61.5312 24.4383 60.5156ZM48.907 51.1406C44.4227 50.8594 47.4227 47.8281 41.3914 46.1094C40.9057 45.8695 40.4856 45.5152 40.1671 45.077C39.8487 44.6388 39.6415 44.1298 39.5633 43.5937C45.9852 42.2187 49.3133 44.2344 48.9383 51.1406H48.907ZM26.5477 43.25C31.8133 43.25 32.4695 45.1094 36.5477 44.4062C36.7526 45.4666 37.2288 46.4557 37.9298 47.2772C38.6308 48.0987 39.5328 48.7246 40.5477 49.0938C42.4852 49.6562 42.8289 50.2656 43.2977 51.125C43.751 52.055 44.4547 52.8401 45.3297 53.3921C46.2047 53.9442 47.2163 54.2413 48.2508 54.25C47.282 56.875 45.5946 59.1094 44.8289 62.0625C44.1571 64.6094 44.2508 70.5156 43.4227 74.2188C43.377 74.3147 43.305 74.3957 43.2151 74.4525C43.1253 74.5092 43.0211 74.5393 42.9149 74.5393C42.8086 74.5393 42.7045 74.5092 42.6146 74.4525C42.5247 74.3957 42.4528 74.3147 42.407 74.2188C38.032 60.5156 31.8602 60.1562 27.3446 74.2188C27.304 74.3203 27.2339 74.4073 27.1434 74.4686C27.0529 74.5299 26.9461 74.5626 26.8367 74.5626C26.7274 74.5626 26.6206 74.5299 26.5301 74.4686C26.4396 74.4073 26.3695 74.3203 26.3289 74.2188C25.6102 70.9844 25.6414 67.0156 25.2508 63.8906C30.9227 64.3438 35.1258 58.5469 31.282 54.7031C28.9383 52.2969 25.5008 48.8906 21.0477 47.9375C21.0842 47.2625 21.2576 46.602 21.5575 45.9962C21.8573 45.3903 22.2772 44.8518 22.7916 44.4133C23.3061 43.9749 23.9044 43.6456 24.5501 43.4456C25.1958 43.2456 25.8754 43.1791 26.5477 43.25Z" fill="black"></path><path d="M46.0312 37.7968C46.2587 38.1097 46.5942 38.327 46.9727 38.4067C47.3512 38.4865 47.7458 38.423 48.0802 38.2286C48.4146 38.0342 48.665 37.7226 48.783 37.3542C48.9009 36.9859 48.878 36.5868 48.7187 36.2343L44.0312 28.4218C43.8037 28.109 43.4683 27.8917 43.0898 27.8119C42.7113 27.7321 42.3166 27.7956 41.9822 27.99C41.6478 28.1845 41.3974 28.496 41.2795 28.8644C41.1615 29.2328 41.1844 29.6318 41.3437 29.9843L46.0312 37.7968ZM55.1875 35.7499L56.75 27.9374C56.8329 27.523 56.7477 27.0927 56.5133 26.7411C56.2789 26.3894 55.9144 26.1453 55.5 26.0624C55.0856 25.9796 54.6552 26.0647 54.3036 26.2991C53.952 26.5335 53.7079 26.898 53.625 27.3124L52.0625 35.1249C51.9796 35.5393 52.0647 35.9697 52.2992 36.3213C52.5336 36.673 52.8981 36.9171 53.3125 36.9999C53.7269 37.0828 54.1572 36.9977 54.5089 36.7633C54.8605 36.5288 55.1046 36.1643 55.1875 35.7499Z" fill="black"></path></g><defs><clipPath id="clip0_397_96"><rect width="75" height="75" fill="white" transform="translate(13 12)"></rect></clipPath></defs></svg>