<svg xmlns="http://www.w3.org/2000/svg" width="100" height="100" viewBox="0 0 100 100" fill="none"><rect width="100" height="100" fill="#EBF0F6"></rect><path fill-rule="evenodd" clip-rule="evenodd" d="M87.0773 77.0704H13.8787C13.3954 77.0704 13 76.6749 13 76.1916V55.5853C13 53.0809 15.065 51.0159 17.6134 51.0159C17.833 51.0159 18.0967 50.9719 18.3163 50.9719C18.2724 49.7417 18.0527 48.7751 16.5589 45.7874C16.2513 45.1723 16.6467 44.5132 17.3497 44.5132H26.1371V38.6697H17.3497C16.7346 38.6697 16.5589 38.1863 16.3392 37.7909C10.3199 25.7962 19.239 18.0633 31.4095 23.863C43.6239 18.0633 52.5431 25.7962 46.5237 37.7909C46.304 38.2303 46.1722 38.6697 45.5132 38.6697H36.7698V44.5132H45.5132C46.1722 44.5132 46.6116 45.1723 46.304 45.7874C44.8541 48.6433 44.5905 49.6538 44.5466 51.0159H56.4095C56.3656 49.7417 56.1459 48.819 54.652 45.7874C54.3884 45.2162 54.7838 44.5132 55.4429 44.5132H64.2302V38.6697H55.4429C54.8278 38.6697 54.652 38.1863 54.4323 37.7909C48.413 25.7962 57.3761 18.0633 69.5466 23.863C81.717 18.0633 90.6801 25.7962 84.6169 37.7909C84.3972 38.2303 84.2654 38.6697 83.6503 38.6697H74.8629V44.5132H83.6503C84.2654 44.5132 84.7047 45.2162 84.4411 45.7874C82.9912 48.5994 82.7276 49.6538 82.6397 50.9719C82.9033 50.9719 83.167 51.0159 83.3866 51.0159C85.935 51.0159 88 53.0809 88 55.5853V76.1916C87.9561 76.6749 87.5606 77.0704 87.0773 77.0704ZM35.0123 42.4921H27.8946V44.5132H35.0123V42.4921ZM27.8946 40.7347H35.0123V38.6697H27.8946V40.7347ZM35.891 46.2707H18.7557C20.7329 50.4447 19.7223 50.5765 20.3814 55.3217C21.0404 59.8911 24.819 64.6363 26.1371 64.0211C26.6643 63.8015 27.1476 62.747 27.3673 61.4728V54.5308C27.3673 46.9298 35.4956 47.1055 35.4956 54.5308V61.3849C35.5395 62.1758 36.1547 64.812 37.6924 63.8454C39.3181 62.8788 41.9543 59.276 42.4815 55.3217C43.1406 50.6204 42.174 50.4008 44.1072 46.2707H35.891ZM17.877 36.9122H44.9859C50.3023 26.4113 42.6573 20.2602 31.8049 25.6204C31.5852 25.7523 31.2777 25.7523 31.058 25.6204C20.2056 20.2162 12.5606 26.4552 17.877 36.9122ZM43.3163 33.2654C42.833 33.2654 42.4376 32.87 42.4376 32.3867C42.4376 29.9262 40.4605 27.9491 38 27.9491C36.8576 27.9491 36.8576 26.1916 38 26.1916C43.536 26.1916 45.6011 33.2654 43.3163 33.2654ZM19.5466 33.2654C17.2619 33.2654 19.3269 26.1916 24.8629 26.1916C26.0053 26.1916 26.0053 27.9491 24.8629 27.9491C22.4025 27.9491 20.4253 29.9262 20.4253 32.3867C20.4253 32.87 20.0299 33.2654 19.5466 33.2654ZM18.3603 52.7733C18.0967 52.7733 17.833 52.7733 17.6134 52.7733C16.0316 52.7733 14.7575 54.0475 14.7575 55.5853V75.3129H86.1986V55.5853C86.1986 54.0475 84.9244 52.7733 83.3866 52.7733C83.123 52.7733 82.8594 52.7733 82.5958 52.7733C82.5518 53.5203 82.5079 54.399 82.3322 55.5853C81.6731 60.3305 77.3673 67.1846 74.116 65.6468C72.4464 64.8559 71.8313 62.0879 71.8313 61.4728V54.5308C71.8313 49.4342 67.2179 49.3023 67.2179 54.5308V61.6925C66.9982 62.9667 66.2074 65.8665 63.9666 65.8665C60.9789 65.8665 57.3761 60.0229 56.761 55.5853C56.5852 54.3551 56.4974 53.4763 56.4534 52.7733H44.5026C44.4587 53.4763 44.3708 54.399 44.239 55.5853C43.58 60.0229 39.9772 65.8665 36.9895 65.8665C34.5729 65.8665 33.7381 62.3076 33.7381 61.4728V54.5308C33.7381 49.4342 29.1248 49.3023 29.1248 54.5308L29.0808 61.6925C28.7733 63.9333 27.1916 67.1407 24.2917 65.3392C22.051 64.0211 19.239 59.8911 18.6239 55.5853C18.4921 54.399 18.4042 53.4763 18.3603 52.7733ZM65.109 36.9122H83.0791C88.3954 26.4113 80.7504 20.2602 69.942 25.6204C69.6784 25.7523 69.3708 25.7523 69.1511 25.6204C58.2988 20.2162 50.6538 26.4552 55.9701 36.9122H65.109ZM81.4095 33.2654C80.9262 33.2654 80.5308 32.87 80.5308 32.3867C80.5308 29.9262 78.5536 27.9491 76.0931 27.9491C74.9508 27.9491 74.9508 26.1916 76.0931 26.1916C81.6292 26.1916 83.6942 33.2654 81.4095 33.2654ZM57.6397 33.2654C55.355 33.2654 57.42 26.1916 62.9561 26.1916C64.1424 26.1916 64.1424 27.9491 62.9561 27.9491C60.5395 27.9491 58.5185 29.9262 58.5185 32.3867C58.5185 32.87 58.123 33.2654 57.6397 33.2654ZM73.1054 42.4921H65.9877V44.5132H73.1054V42.4921ZM65.9877 40.7347H73.1054V38.6697H65.9877V40.7347ZM73.9842 46.2707H56.8489C58.826 50.4447 57.8155 50.5765 58.4745 55.3217C59.1336 59.8911 62.9121 64.6363 64.2302 64.0211C64.7575 63.8015 65.2408 62.747 65.4605 61.4728V54.5308C65.4605 46.9298 73.5887 47.1055 73.5887 54.5308V61.3849C73.6766 62.1758 74.2478 64.812 75.7856 63.8454C77.4112 62.8788 80.0474 59.276 80.5747 55.3217C81.2337 50.6204 80.2671 50.4008 82.2443 46.2707H73.9842Z" fill="url(#paint0_linear_396_368)"></path><defs><linearGradient id="paint0_linear_396_368" x1="23.2388" y1="22.1014" x2="77.7465" y2="76.8867" gradientUnits="userSpaceOnUse"><stop stop-color="#401379"></stop><stop offset="0.502" stop-color="#8A0B92"></stop><stop offset="1" stop-color="#EC067F"></stop></linearGradient></defs></svg>