<svg xmlns="http://www.w3.org/2000/svg" width="100" height="100" viewBox="0 0 100 100" fill="none"><rect width="100" height="100" fill="#EBF0F6"></rect><path d="M59.0834 19.793C58.4828 20.335 58.4535 20.8477 58.9662 21.375C59.5082 21.917 59.9916 21.9317 60.5189 21.4483C61.0902 20.9063 60.9876 20.042 60.2992 19.6905C59.7425 19.3975 59.5082 19.4121 59.0834 19.793Z" fill="#401515"></path><path d="M73.7471 23.6895C73.542 23.9092 73.498 24.2754 73.498 25.4473C73.498 26.8682 73.5127 26.9268 73.8936 27.2344C74.333 27.5713 74.8457 27.542 75.2998 27.1319C75.6514 26.8096 75.666 24.2461 75.3145 23.7481C75.0215 23.3379 74.0986 23.294 73.7471 23.6895Z" fill="#401515"></path><path d="M70.1728 27.6006C69.5869 27.8496 69.4111 28.4062 69.748 28.9189C69.9824 29.2705 70.041 29.2852 71.5644 29.2852C72.6045 29.2852 73.205 29.2266 73.3222 29.1094C73.6298 28.8018 73.542 27.8643 73.1757 27.6152C72.7509 27.3223 70.832 27.3076 70.1728 27.6006Z" fill="#401515"></path><path d="M75.71 27.7617C75.5342 27.9814 75.4023 28.2598 75.4023 28.4062C75.4023 28.5527 75.5342 28.8311 75.71 29.0508C76.0029 29.417 76.0615 29.4316 77.5117 29.4316C79.2402 29.4316 79.5039 29.2852 79.5039 28.3623C79.5039 27.5566 79.1377 27.3809 77.4385 27.3809C76.0762 27.3809 76.0029 27.3955 75.71 27.7617Z" fill="#401515"></path><path d="M74.2749 29.4024C73.7769 29.4756 73.6304 29.7686 73.5425 30.8672C73.4253 32.2149 73.5718 32.8887 74.0259 33.1817C74.3189 33.3868 74.4507 33.3868 74.8023 33.2403C75.3443 33.0206 75.4029 32.8594 75.5054 31.3799C75.6226 29.7686 75.2857 29.2413 74.2749 29.4024Z" fill="#401515"></path><path d="M26.7402 33.0498C26.623 33.1963 26.1689 33.9434 25.7295 34.7197L24.9531 36.1406L23.6348 36.8438C21.8477 37.8252 21.6426 38.001 21.6426 38.5723C21.6426 39.1875 21.9502 39.4512 23.6494 40.3594L24.9971 41.0771L25.7002 42.3223L26.4033 43.5674L26.4766 46.8779C26.5498 50.1738 26.5498 50.1885 26.9453 50.7891C27.5605 51.7119 28.5713 52.3271 29.582 52.4004L30.4316 52.459V53.9092V55.3594H29.9336C28.6885 55.3594 27.4141 56.165 26.8428 57.3076L26.4766 58.0547V62.5664C26.4766 67.5469 26.5059 67.7373 27.3994 68.6602C28.1904 69.4805 28.8057 69.7002 31.208 70.0225C37.5508 70.8428 43.6592 71.2236 50.8662 71.2236C57.9854 71.2236 63.2441 70.9453 70.4951 70.1543C74.04 69.7588 74.6553 69.583 75.4609 68.7773C76.4863 67.7666 76.5742 67.2979 76.5742 63.2842C76.5596 59.0654 76.457 58.0547 75.8857 57.1465C75.3291 56.2383 74.3184 55.623 73.2783 55.5352L72.4727 55.4766V53.8799V52.2832H73.1318C74.4355 52.2832 75.4756 51.5801 76.0762 50.3057C76.4277 49.5732 76.4277 49.5293 76.4277 44.5928C76.4277 39.6709 76.4277 39.5977 76.0762 38.8652C75.4023 37.415 74.8164 37.1367 70.2754 36.0381C63.3906 34.3682 57.4287 33.7383 50.0166 33.8701C45.6953 33.9434 43.3662 34.1338 39.5137 34.6904C38.5029 34.8369 37.4629 34.9688 37.1992 34.9834C36.6426 35.0127 33.2295 35.7305 31.6768 36.1406C30.5928 36.4336 30.1826 36.375 29.9043 35.9062C29.8164 35.7744 29.4648 35.1299 29.1133 34.4854C28.293 32.9473 28.1465 32.8008 27.502 32.8008C27.165 32.8008 26.8721 32.9033 26.7402 33.0498ZM54.748 35.7305C60.8271 36.0234 65.9688 36.7998 71.7402 38.3086C73.3955 38.7334 73.791 38.8945 74.1279 39.2607L74.5234 39.6855V44.5928V49.5L74.1279 49.9395C73.835 50.2764 73.542 50.4229 73.1025 50.4814L72.4727 50.5693V49.3242C72.4727 47.0537 71.8135 45.75 70.2461 44.9736C68.6494 44.168 66.9502 44.4463 65.7344 45.6914L65.0752 46.3652L64.2842 45.9551C63.2148 45.3984 61.8818 45.3838 60.7979 45.9111C60.3877 46.1309 59.9629 46.3799 59.875 46.4971C59.7285 46.6729 59.5967 46.6143 59.0693 46.0723C57.165 44.1094 54.1621 43.9922 52.2285 45.8086L51.5254 46.4678L50.8516 45.8379C49.7969 44.8711 49.0498 44.5928 47.4971 44.5928C45.8857 44.5928 45.124 44.9004 44.084 45.9404L43.3662 46.6582L42.6045 46.1455C41.9453 45.7061 41.7109 45.6328 40.7148 45.5742C39.6895 45.5303 39.5137 45.5596 38.7373 45.9551L37.873 46.3945L37.3018 45.7646C35.3242 43.626 31.7354 44.3877 30.7979 47.1416C30.666 47.5371 30.5781 48.3135 30.5781 49.1631C30.5781 50.5254 30.5781 50.5254 30.2119 50.5254C29.5381 50.5254 28.8789 50.1445 28.6299 49.6025C28.4248 49.1777 28.3809 48.6064 28.3809 46.3945V43.7139L29.1572 42.3369L29.9189 40.9746L31.4424 40.125C32.2773 39.6709 33.0244 39.1729 33.0977 39.041C33.1855 38.8945 33.2002 38.5576 33.1562 38.2793C33.0977 38.001 33.1123 37.7812 33.1709 37.7812C33.2295 37.7812 34.416 37.5469 35.7783 37.2686C39.792 36.4336 44.9629 35.8184 48.9619 35.6865C49.6064 35.6572 50.5 35.6279 50.9395 35.6133C51.3789 35.5986 53.0928 35.6572 54.748 35.7305ZM28.0732 36.7266C28.4688 37.4297 28.7031 37.6641 29.4209 38.0596C29.8896 38.3232 30.2852 38.5576 30.2852 38.5869C30.2852 38.6162 29.8896 38.8652 29.4062 39.1289C28.6738 39.5391 28.4541 39.7441 28.0879 40.4473C27.8389 40.916 27.5752 41.2969 27.502 41.2969C27.4287 41.2969 27.165 40.916 26.916 40.4473C26.5498 39.7441 26.3301 39.5391 25.5977 39.1289C25.1143 38.8652 24.7188 38.6162 24.7188 38.5869C24.7188 38.5576 25.1143 38.3232 25.583 38.0596C26.3008 37.6641 26.5352 37.4297 26.9307 36.7266C27.1943 36.2578 27.458 35.877 27.502 35.877C27.5459 35.877 27.8096 36.2578 28.0732 36.7266ZM35.6318 46.7168C36.4521 47.2148 36.584 47.7275 36.584 50.2178V52.4297H34.5332H32.4824V50.1592C32.4824 47.6104 32.585 47.2148 33.4053 46.7168C34.0205 46.3359 35.0166 46.3359 35.6318 46.7168ZM49.2842 46.9512C49.5918 47.2002 49.9873 47.6543 50.1631 47.9766C50.4707 48.5186 50.5 48.709 50.5 51.5068V54.4805H47.4971H44.4941V51.5508C44.4941 48.9434 44.5234 48.5479 44.7725 48.0645C45.373 46.8779 46.2373 46.4092 47.6729 46.4678C48.5957 46.4971 48.7861 46.5557 49.2842 46.9512ZM57.0186 46.7607C57.3262 46.9365 57.7949 47.376 58.0439 47.7129L58.4834 48.3574L58.5273 51.4189L58.5713 54.4805H55.4805H52.3896L52.4336 51.5068L52.4775 48.5186L52.917 47.8154C53.5029 46.8633 54.3379 46.4238 55.5391 46.4238C56.1982 46.4238 56.5938 46.5117 57.0186 46.7607ZM69.6309 46.7021C70.4219 47.1855 70.5684 47.7275 70.5684 50.2178V52.4297H68.5176H66.4668V50.1592C66.4668 47.6104 66.5693 47.2148 67.3896 46.7168C67.9902 46.3359 69.0303 46.3359 69.6309 46.7021ZM41.418 47.625C42.4873 48.1816 42.5898 48.5332 42.5898 51.7266V54.4805H40.5244H38.4736L38.5176 51.4922L38.5615 48.4893L39.001 48.0352C39.3965 47.625 39.9824 47.3467 40.5391 47.3174C40.6709 47.3027 41.0664 47.4492 41.418 47.625ZM63.6836 47.7275C64.46 48.2695 64.5625 48.7383 64.5625 51.7266V54.4805H62.5117H60.4609V51.6973C60.4609 48.7676 60.5195 48.416 61.1641 47.8447C61.7939 47.2734 62.9658 47.2148 63.6836 47.7275ZM36.584 56.5605C36.584 58.4062 36.54 58.8896 36.3203 59.2998C35.6025 60.7354 33.5957 60.8672 32.7754 59.5342C32.5117 59.1094 32.4824 58.8164 32.4824 56.6924V54.334H34.5332H36.584V56.5605ZM70.5684 56.6338C70.5684 58.6846 70.5391 59.0068 70.2754 59.4316C69.499 60.7061 67.9756 60.8232 66.9062 59.6807C66.5547 59.2998 66.54 59.2266 66.4961 56.8096L66.4521 54.334H68.5029H70.5684V56.6338ZM42.5898 58.5967C42.5898 60.3545 42.5459 60.9111 42.3555 61.3213C41.7402 62.5957 39.9971 62.8447 39.001 61.8047L38.5615 61.3506L38.5176 58.8604L38.4736 56.3848H40.5244H42.5898V58.5967ZM50.5 58.8018C50.5 60.75 50.4561 61.3213 50.2656 61.7021C49.6943 62.8301 48.7568 63.416 47.4971 63.416C46.2373 63.416 45.2998 62.8301 44.7285 61.7021C44.5381 61.3213 44.4941 60.75 44.4941 58.8018V56.3848H47.4971H50.5V58.8018ZM58.5273 58.9043C58.4834 61.2773 58.4688 61.4678 58.1318 62.0098C57.9414 62.3174 57.4727 62.7568 57.1064 62.9912C56.5645 63.3428 56.2861 63.416 55.5537 63.416C54.3379 63.416 53.5029 62.9766 52.917 62.0244C52.4775 61.3213 52.4775 61.292 52.4336 58.8457L52.375 56.3848H55.4805H58.5859L58.5273 58.9043ZM64.5625 58.582C64.5625 61.0723 64.4453 61.5557 63.6689 62.0977C63.083 62.5225 61.999 62.5664 61.4277 62.1855C60.5781 61.6436 60.4609 61.2188 60.4609 58.6846V56.3848H62.5117H64.5625V58.582ZM30.6074 58.4648C30.6953 59.7539 31.0322 60.4863 31.9404 61.3213C33.1123 62.4053 34.7822 62.6396 36.1738 61.9365L36.7305 61.6582L37.0088 62.2002C38.0781 64.2803 40.9492 64.9688 42.7949 63.5918L43.3662 63.167L43.9375 63.7969C44.2598 64.1484 44.9043 64.6172 45.3584 64.8369C46.0762 65.1885 46.3545 65.2471 47.4971 65.2471C49.0498 65.2471 49.7969 64.9688 50.8516 64.002L51.5254 63.3721L52.2285 64.0312C54.1621 65.833 57.165 65.7305 59.0547 63.7969L59.6699 63.167L60.0947 63.5039C61.2812 64.4561 63.2148 64.5732 64.5039 63.7676C65.1045 63.4014 66.0127 62.3467 66.2031 61.8047C66.2324 61.7168 66.5254 61.79 66.9062 61.9951C67.4043 62.2295 67.7998 62.3174 68.5176 62.3027C69.6455 62.2881 70.3193 62.0244 71.125 61.292C71.9307 60.5742 72.3262 59.71 72.4287 58.4502L72.5166 57.4102H73.0879C73.5273 57.4102 73.7617 57.5127 74.0986 57.835L74.5234 58.2598V62.5371V66.8145L74.0547 67.2832C73.6592 67.6787 73.4102 67.7812 72.6924 67.8691C72.209 67.9277 70.9932 68.0596 69.9824 68.1768C59.3623 69.4219 47.1162 69.583 36.7305 68.6162C32.5703 68.2207 29.4941 67.7959 29.1426 67.5615C28.4541 67.1367 28.3809 66.6387 28.3809 62.6104C28.3809 58.5967 28.4541 58.1279 29.1279 57.6445C29.3184 57.5127 29.7139 57.4102 30.0068 57.4102H30.5342L30.6074 58.4648Z" fill="#401515"></path><path d="M53.8688 40.8428C53.1803 41.0625 52.0377 41.7217 51.569 42.1612C51.0123 42.6592 50.9244 43.3037 51.3492 43.6846C51.7594 44.0655 52.1842 43.9922 52.9166 43.4209C53.5904 42.9082 54.777 42.4688 55.4801 42.4688C56.11 42.4688 57.2672 42.8789 57.9703 43.3477C58.7467 43.8604 59.0397 43.8897 59.4352 43.4942C60.109 42.8203 59.6109 42.044 57.9703 41.2383C57.1354 40.8428 56.857 40.7842 55.6266 40.7549C54.8649 40.7403 54.0738 40.7696 53.8688 40.8428Z" fill="#401515"></path><path d="M22.8877 72.5274C21.4521 73.0693 20.4854 74.3731 20.4707 75.794C20.4707 76.8486 20.6904 77.4785 21.291 78.1816C22.2578 79.3242 23.5469 79.7197 24.9385 79.3096C26.4912 78.8701 27.4873 77.5664 27.502 75.999C27.502 74.5488 26.9453 73.5234 25.7881 72.835C25.0557 72.4102 23.6055 72.249 22.8877 72.5274ZM24.9092 74.8418C25.876 75.6035 25.4072 77.127 24.1621 77.2881C23.0781 77.4346 22.2432 76.2481 22.7266 75.2959C22.8584 75.0615 23.0781 74.7832 23.21 74.71C23.6494 74.4609 24.499 74.5195 24.9092 74.8418Z" fill="#401515"></path><path d="M40.9782 74.8418C40.5534 75.2666 40.5827 76.2188 41.0075 76.5117C41.5202 76.8779 42.2233 76.8047 42.5748 76.3653C42.7506 76.1455 42.8825 75.8233 42.8825 75.6475C42.8825 75.4717 42.7506 75.1494 42.5748 74.9297C42.194 74.4463 41.4176 74.4024 40.9782 74.8418Z" fill="#401515"></path><path d="M34.2861 44.4756C34.4179 44.5049 34.6523 44.5049 34.7988 44.4756C34.9306 44.4316 34.8134 44.4023 34.5351 44.4023C34.2568 44.4023 34.1396 44.4316 34.2861 44.4756Z" fill="#966B6B"></path><path d="M47.2499 44.4756C47.4257 44.5049 47.6894 44.5049 47.8359 44.4756C47.9677 44.4316 47.8212 44.4023 47.4989 44.417C47.1767 44.417 47.0595 44.4463 47.2499 44.4756Z" fill="#966B6B"></path><path d="M55.3066 44.4756C55.4823 44.5049 55.746 44.5049 55.8925 44.4756C56.0243 44.4316 55.8779 44.4023 55.5556 44.417C55.2333 44.417 55.1161 44.4463 55.3066 44.4756Z" fill="#966B6B"></path><path d="M68.2705 44.4756C68.4023 44.5049 68.6367 44.5049 68.7832 44.4756C68.915 44.4316 68.7978 44.4023 68.5195 44.4023C68.2412 44.4023 68.124 44.4316 68.2705 44.4756Z" fill="#966B6B"></path><path d="M30.4766 49.3535C30.4766 49.9541 30.5059 50.2031 30.5352 49.8955C30.5645 49.6025 30.5645 49.1045 30.5352 48.7969C30.5059 48.5039 30.4766 48.7529 30.4766 49.3535Z" fill="#966B6B"></path><path d="M58.4404 51.5801L58.4111 54.334L55.4521 54.378L52.4785 54.4073L55.4521 54.4512C57.752 54.4659 58.4404 54.4366 58.499 54.2901C58.5283 54.1875 58.543 52.9131 58.5137 51.4776L58.4844 48.8409L58.4404 51.5801Z" fill="#966B6B"></path><path d="M42.4736 51.7998L42.4443 54.3194L40.4375 54.378L38.416 54.4219L40.4375 54.4512C41.9756 54.4659 42.4736 54.4366 42.5322 54.2901C42.5615 54.1875 42.5762 53.0157 42.5469 51.6973L42.5029 49.2803L42.4736 51.7998Z" fill="#966B6B"></path><path d="M64.4766 51.2578C64.4766 52.3418 64.4912 52.7959 64.5205 52.2392C64.5498 51.6972 64.5498 50.8183 64.5205 50.2617C64.4912 49.7197 64.4766 50.1738 64.4766 51.2578Z" fill="#966B6B"></path><path d="M33.3924 54.4365C33.9344 54.4658 34.8572 54.4658 35.4432 54.4365C36.0291 54.4219 35.5897 54.3926 34.4617 54.3926C33.3338 54.3926 32.8504 54.4072 33.3924 54.4365Z" fill="#966B6B"></path><path d="M46.0038 54.4365C46.8681 54.4658 48.2597 54.4658 49.08 54.4365C49.9003 54.4219 49.1972 54.3926 47.4979 54.3926C45.8134 54.3926 45.1395 54.4219 46.0038 54.4365Z" fill="#966B6B"></path><path d="M61.5315 54.4365C62.0735 54.4658 62.9524 54.4658 63.5091 54.4365C64.0511 54.4072 63.597 54.3926 62.513 54.3926C61.429 54.3926 60.9749 54.4072 61.5315 54.4365Z" fill="#966B6B"></path><path d="M67.3768 54.4365C67.9188 54.4658 68.8416 54.4658 69.4275 54.4365C70.0135 54.4219 69.574 54.3926 68.4461 54.3926C67.3182 54.3926 66.8348 54.4072 67.3768 54.4365Z" fill="#966B6B"></path><path d="M42.502 58.4355C42.502 59.6074 42.5312 60.0761 42.5459 59.4902C42.5752 58.9189 42.5752 57.9521 42.5459 57.3662C42.5312 56.7949 42.502 57.2636 42.502 58.4355Z" fill="#966B6B"></path><path d="M58.4688 58.5821C58.4688 59.8272 58.498 60.3399 58.5127 59.71C58.542 59.0948 58.542 58.0694 58.5127 57.4395C58.498 56.8243 58.4688 57.337 58.4688 58.5821Z" fill="#966B6B"></path><path d="M52.4648 58.582C52.4648 59.7539 52.4941 60.2226 52.5088 59.6367C52.5381 59.0654 52.5381 58.0986 52.5088 57.5126C52.4941 56.9413 52.4648 57.4101 52.4648 58.582Z" fill="#966B6B"></path><path d="M30.4766 58.0693C30.4766 58.4648 30.5059 58.626 30.5352 58.3916C30.5645 58.1718 30.5645 57.8496 30.5352 57.6592C30.5059 57.4834 30.4766 57.6592 30.4766 58.0693Z" fill="#966B6B"></path><path d="M50.1046 69.2314C50.6466 69.2607 51.5109 69.2607 52.0089 69.2314C52.507 69.2021 52.0675 69.1875 51.0129 69.1875C49.9728 69.1875 49.5627 69.2021 50.1046 69.2314Z" fill="#966B6B"></path><path d="M29.2158 57.7178C28.5859 58.084 28.5273 58.5088 28.5273 62.5371C28.5273 66.7119 28.6006 67.1514 29.3477 67.503C30.0068 67.7959 35.9834 68.4697 41.1982 68.836C44.9922 69.0996 53.3564 69.1875 57.6045 68.9971C62.0723 68.792 66.8623 68.4112 70.8613 67.9278C73.4102 67.6348 73.6006 67.5908 73.9814 67.21L74.377 66.8145V62.5811V58.3477L73.9668 57.9522C73.6885 57.6885 73.3955 57.5567 73.0879 57.5567C72.6484 57.5567 72.6191 57.586 72.6191 58.1133C72.6191 60.2373 71.2568 61.9951 69.2939 62.4053C68.4883 62.5664 67.9902 62.4932 66.5107 62.0244C66.2617 61.9512 66.1738 61.9805 66.1738 62.127C66.1738 62.5371 64.958 63.7383 64.1963 64.0899C62.9072 64.7051 60.9443 64.4707 59.9922 63.6065C59.7432 63.3867 59.6846 63.416 59.04 64.0313C57.8828 65.1006 57.1211 65.3936 55.4805 65.3936C54.1768 65.3936 54.0303 65.3643 53.1953 64.9102C52.6973 64.6319 52.1113 64.2364 51.8916 64.002L51.4961 63.5772L50.9541 64.1045C50.6611 64.3975 50.0605 64.8076 49.6211 65.0127C48.9326 65.335 48.6104 65.3936 47.4971 65.3936C46.3545 65.3936 46.0762 65.335 45.3438 64.9834C44.8896 64.7637 44.2598 64.3096 43.9375 63.9873L43.3516 63.416L42.6045 63.8701C41.7256 64.4121 40.2461 64.6026 39.2793 64.2949C38.3564 63.9873 37.4775 63.2989 37.0674 62.5518L36.6865 61.8633L36.0859 62.1563C35.6758 62.3614 35.207 62.4492 34.5332 62.4492C32.1895 62.4492 30.4316 60.6621 30.4316 58.2598C30.4316 57.5567 30.4316 57.5567 29.9629 57.5567C29.6992 57.5567 29.3623 57.6299 29.2158 57.7178Z" fill="#F4AEAB"></path><path d="M48.7412 35.8184C43.7314 36.0527 38.8096 36.6973 34.2393 37.7227L33.2871 37.9424L33.3311 38.499C33.375 38.9971 33.3311 39.0996 32.8916 39.4219C32.6279 39.627 31.8662 40.0811 31.207 40.4326C30.0059 41.0771 30.0059 41.0771 29.2588 42.4395L28.5117 43.8018L28.5557 46.6436C28.5996 49.4707 28.5996 49.5 28.9805 49.8662C29.1855 50.0713 29.5957 50.2764 29.8887 50.335L30.4307 50.4229V49.0898C30.4307 47.3906 30.7676 46.4385 31.6318 45.5889C32.4668 44.7832 33.0967 44.4902 34.1807 44.4023C35.4551 44.2998 36.4512 44.666 37.3008 45.5303L37.9746 46.2041L38.7803 45.7939C39.5127 45.4131 39.7031 45.3838 40.7139 45.4424C41.6807 45.4863 41.959 45.5742 42.6035 45.9697L43.3506 46.4385L44.0684 45.7646C45.167 44.7393 45.9141 44.4463 47.4961 44.4463C48.6094 44.4463 48.9316 44.5049 49.6201 44.8271C50.0596 45.0322 50.6602 45.4424 50.9385 45.7354L51.4365 46.2627L52.0078 45.7354C52.3301 45.457 52.96 45.0469 53.4141 44.8271C54.1025 44.5049 54.4395 44.4463 55.5527 44.4463C56.7246 44.4463 56.9736 44.4902 57.7207 44.8711C58.1895 45.1201 58.8193 45.5889 59.1416 45.9258C59.6396 46.4678 59.7275 46.5264 59.9033 46.3213C60.0059 46.1895 60.4307 45.9258 60.8262 45.75C61.8955 45.2373 63.2285 45.2666 64.2832 45.7939L65.0742 46.2041L65.5723 45.6475C66.9932 44.0654 69.542 43.9482 71.1973 45.3984C72.1201 46.2187 72.501 47.1709 72.5889 48.9434C72.6475 50.2324 72.6914 50.3789 72.9404 50.3789C73.3506 50.3789 74.0537 49.9834 74.2295 49.6611C74.3174 49.4707 74.376 47.5811 74.376 44.5635C74.376 39.3193 74.376 39.3047 73.541 38.9824C72.1201 38.4111 66.2754 37.1367 62.7305 36.6094C58.7607 36.0234 52.2568 35.6572 48.7412 35.8184ZM57.4717 40.8574C58.5557 41.2383 59.6836 42.0439 59.8154 42.5566C59.9473 43.0547 59.6689 43.5967 59.2002 43.8164C58.8779 43.9629 58.7461 43.9482 58.292 43.6699C56.5635 42.6592 55.6699 42.4541 54.4102 42.8203C53.9707 42.9521 53.3262 43.2891 52.9893 43.5674C51.9785 44.4023 50.9385 44.124 50.9385 43.0107C50.9385 42.498 51.2607 42.1172 52.2275 41.458C53.5459 40.5498 55.7871 40.2861 57.4717 40.8574Z" fill="#FFDED5"></path><path d="M55.8464 23.4551C48.7126 23.8799 42.1794 27.7178 38.1218 33.8701C37.8142 34.3242 37.5945 34.7344 37.6384 34.7783C37.6824 34.8223 38.5613 34.7197 39.6013 34.5586C43.9812 33.8994 45.8415 33.7676 51.3054 33.7676C56.8572 33.7529 58.4538 33.8555 62.9216 34.5C66.9499 35.0713 73.5857 36.5508 74.655 37.1221C75.1531 37.3857 75.8855 38.1621 76.2224 38.8066C76.4861 39.2754 76.5007 39.7295 76.5007 44.5928C76.5007 49.7197 76.4861 49.8809 76.1785 50.4521C75.5339 51.6533 74.3767 52.4297 73.2048 52.4297H72.6189V53.8799V55.3154L73.3367 55.4033C75.0798 55.6084 76.281 56.8096 76.5447 58.6113L76.6472 59.3877L77.4089 58.0693C78.8005 55.623 79.6648 53.3672 80.1921 50.7451C80.6023 48.6797 80.5583 43.9336 80.1189 41.8535C79.4597 38.7334 78.1413 35.6572 76.4128 33.2109L75.6218 32.083L75.5339 32.5371C75.4021 33.1377 75.0652 33.4307 74.5378 33.4307C73.6589 33.4307 73.4978 33.0938 73.4978 31.3359C73.4978 30.2227 73.4392 29.71 73.3074 29.6074C73.2048 29.5195 72.3992 29.417 71.5202 29.4023C70.0115 29.3584 69.9236 29.3438 69.6599 28.9775C69.2937 28.4795 69.4402 27.8789 70.0115 27.5273L70.4363 27.2637L69.5867 26.751C67.0671 25.2275 64.2546 24.1875 61.2663 23.6455C60.1824 23.4551 57.4724 23.3525 55.8464 23.4551Z" fill="#ECECEC"></path><path d="M33.8447 46.585C33.5811 46.6582 33.2002 46.9512 32.9658 47.2588C32.5703 47.7861 32.5557 47.8301 32.4971 50.1152L32.4531 52.4297H34.4453H36.4375V50.2178C36.4375 47.5957 36.3057 47.1855 35.3535 46.7168C34.6797 46.3945 34.5479 46.3799 33.8447 46.585Z" fill="#ECECEC"></path><path d="M46.6328 46.5996C45.8125 46.8193 44.875 47.8008 44.6699 48.6504C44.5674 49.0459 44.4941 50.4229 44.4941 51.8291V54.334H47.4971H50.5V51.8291C50.5 50.4229 50.4268 49.0459 50.3242 48.6504C50.1045 47.7422 49.1816 46.8193 48.2734 46.5996C47.4824 46.3945 47.4092 46.3945 46.6328 46.5996Z" fill="#ECECEC"></path><path d="M54.543 46.6289C53.8252 46.8926 53.166 47.5078 52.8291 48.2549C52.5947 48.7529 52.5508 49.2217 52.5508 51.5801V54.334H55.4805H58.4102V51.5068C58.4102 48.8115 58.3955 48.6357 58.0732 48.0205C57.4287 46.8193 55.7881 46.1748 54.543 46.6289Z" fill="#ECECEC"></path><path d="M68.0049 46.5264C67.5361 46.6582 67.0527 47.0244 66.8184 47.4639C66.6719 47.7715 66.6133 48.4453 66.6133 50.1592V52.4297H68.5176H70.4219V50.1445C70.4219 47.4932 70.2754 47.0684 69.25 46.6582C68.6494 46.4238 68.5029 46.4092 68.0049 46.5264Z" fill="#ECECEC"></path><path d="M39.6748 47.7129C38.6348 48.2402 38.5615 48.46 38.5176 51.5654L38.459 54.334H40.4512H42.4434V51.6533C42.4434 48.6357 42.3262 48.2109 41.4033 47.7129C40.7881 47.376 40.3193 47.376 39.6748 47.7129Z" fill="#ECECEC"></path><path d="M61.6768 47.6689C61.4131 47.7861 61.0615 48.0937 60.9004 48.3574C60.6367 48.7969 60.6074 49.0898 60.6074 51.5801V54.334H62.5117H64.416V51.5801C64.416 48.4893 64.2988 48.0645 63.3174 47.6543C62.6875 47.4053 62.2773 47.4053 61.6768 47.6689Z" fill="#ECECEC"></path><path d="M32.4824 56.3408C32.4824 57.3809 32.5557 58.4795 32.6289 58.7871C33.0098 60.4863 35.251 60.8819 36.1445 59.417C36.4082 59.0069 36.4375 58.6699 36.4375 56.7071V54.4805H34.46H32.4824V56.3408Z" fill="#ECECEC"></path><path d="M66.6133 56.8242V59.168L67.0967 59.6953C67.9609 60.6475 69.4697 60.5156 70.1289 59.417C70.3926 59.0069 70.4219 58.6699 70.4219 56.707V54.4805H68.5176H66.6133V56.8242Z" fill="#ECECEC"></path><path d="M38.5176 58.7724C38.5469 60.6035 38.6055 61.0869 38.8252 61.4091C39.6602 62.6836 41.4766 62.6543 42.1797 61.3505C42.3994 60.9404 42.4434 60.5156 42.4434 58.6992V56.5312H40.4512H38.459L38.5176 58.7724Z" fill="#ECECEC"></path><path d="M44.4941 58.5234C44.4941 61.0137 44.6553 61.6728 45.4463 62.4639C46.6328 63.665 48.3613 63.665 49.5479 62.4785C50.3389 61.6728 50.5 61.0283 50.5 58.5234V56.5312H47.4971H44.4941V58.5234Z" fill="#ECECEC"></path><path d="M52.5508 58.7578C52.5508 61.3066 52.6973 61.834 53.6201 62.6397C54.6455 63.5332 55.9199 63.6065 57.1357 62.8301C58.2197 62.1416 58.4102 61.5703 58.4102 58.8311V56.5313H55.4805H52.5508V58.7578Z" fill="#ECECEC"></path><path d="M60.6074 58.7871C60.6074 60.8818 60.6367 61.0576 60.9443 61.5264C61.1641 61.8486 61.501 62.0977 61.8965 62.2441C62.4385 62.4346 62.585 62.4346 63.127 62.2441C63.5225 62.0977 63.8594 61.8486 64.0791 61.5264C64.3867 61.0576 64.416 60.8818 64.416 58.7871V56.5312H62.5117H60.6074V58.7871Z" fill="#ECECEC"></path></svg>