<svg xmlns="http://www.w3.org/2000/svg" width="100" height="100" viewBox="0 0 100 100" fill="none"><rect width="100" height="100" fill="#EBF0F6"></rect><g clip-path="url(#clip0_397_101)"><path d="M30.4648 39.0409C33.0137 34.705 38.5654 30.9404 46.2705 28.3183C47.9697 27.747 47.8965 27.7323 50.416 28.6552C60.5527 32.3027 66.3682 37.7226 66.8076 43.9189C66.8955 45.3544 66.6758 48.0937 66.251 50.4228C65.9873 51.8583 65.9873 52.0341 66.1924 52.4296C66.3242 52.6786 66.4707 52.8691 66.5293 52.8691C66.5879 52.8691 66.7197 52.9277 66.8223 53.0009C66.9834 53.1034 66.9541 53.3818 66.6318 54.5243L66.2363 55.9159L61.168 65.2031C61.3291 65.4374 61.2705 65.5546 60.6699 66.1552C60.1133 66.6972 59.9375 66.8144 59.791 66.6679C59.6885 66.5654 59.3662 66.4921 59.0586 66.4921C58.6191 66.4921 58.3701 66.624 57.7695 67.1513C54.1367 70.374 49.7715 72.3222 46.9443 71.9853C44.1465 71.6484 40.3672 69.5536 37.3643 66.6532C34.8887 64.2656 33.5264 62.2587 32.1348 58.9775C30.0547 54.0849 29.0146 49.412 29 44.9589C29 42.7763 29.0146 42.6445 29.4687 41.3115C29.7324 40.5644 30.1865 39.539 30.4648 39.0409Z" fill="#FFDCCD"></path><path d="M44.7136 12.1026C43.5124 12.2491 40.3776 12.9375 39.1325 13.3184C29.4646 16.3067 22.6091 23.2207 20.9831 31.6436C19.8112 37.7373 21.7448 45.0176 26.1979 51.1993C26.989 52.2979 27.1062 52.5762 27.7067 54.6563C28.8493 58.626 30.3874 62.1563 32.1013 64.6612C32.614 65.4375 33.8151 66.8145 34.9724 67.9864L36.9499 69.9932L36.6716 73.9336L36.3786 77.8594L34.7673 78.211C31.8376 78.8262 25.1433 80.5254 22.4479 81.3457C18.2731 82.6055 14.069 84.2901 13.3366 84.9785C12.9411 85.3594 12.8825 86.1797 13.2341 86.6778C13.571 87.1758 14.5085 87.1172 15.739 86.5166C16.2956 86.2676 16.7644 86.0039 16.8229 85.9453C17.0427 85.6377 21.1003 84.2168 24.6452 83.1914C27.78 82.2832 31.0612 81.4629 34.9431 80.6133C38.1218 79.9102 38.4001 79.8223 38.5466 79.4414C38.6198 79.2657 39.2058 72.3076 39.2204 71.5752C39.2204 71.5166 39.572 71.6778 39.9968 71.9268C41.3298 72.7178 43.3513 73.626 44.5671 73.9776C46.3103 74.4756 48.7565 74.461 50.5729 73.9043C51.862 73.5235 54.2204 72.4541 55.4362 71.6924L56.0515 71.3116L56.1247 71.795C56.1687 72.0586 56.3151 73.8311 56.447 75.7207C56.7253 79.8662 56.696 79.7784 58.278 80.1299C67.3894 82.166 71.5495 83.2793 76.3542 85.0225C77.4089 85.4034 78.361 85.7989 78.4782 85.8868C78.9616 86.2969 80.7341 87 81.2614 87C82.1843 87 82.7116 86.0479 82.2722 85.2129C81.9206 84.5537 77.4235 82.7227 72.6335 81.2725C69.9675 80.4522 63.2438 78.7383 60.6511 78.211L59.0251 77.8741L58.9372 77.127C58.8933 76.7168 58.7468 74.9004 58.6149 73.0987L58.3659 69.8174L59.2009 69.041C59.9333 68.3526 60.0212 68.2061 60.0212 67.6934C60.0212 67.2246 59.9479 67.0635 59.6257 66.8438C59.0251 66.4629 58.4831 66.5215 57.8532 67.0489C52.9606 71.209 48.8737 72.7764 45.3728 71.8535C44.3181 71.5752 42.0329 70.5352 40.905 69.8174C37.0817 67.4151 34.0202 63.9727 32.2478 60.0909C29.9626 55.0811 28.6735 49.7491 28.6296 45.1055C28.6149 42.6739 28.864 41.502 29.7868 39.6416C32.1159 34.9834 38.2243 30.7207 46.2956 28.0987L47.614 27.6739L48.5808 27.9668C51.3786 28.8311 54.7624 30.3106 57.2233 31.7315C63.0534 35.1153 66.2175 39.1289 66.6862 43.7285C66.7888 44.8858 66.5397 48.0791 66.1735 50.2178C65.9978 51.126 65.9099 52.0049 65.9538 52.1514C66.0856 52.5616 66.7448 53.0157 67.1989 53.0157C67.7409 53.0157 68.3854 52.2832 69.8649 50.0274C73.1608 45.003 74.8601 39.4512 74.6257 34.544C74.362 29.1827 72.238 24.5537 68.1511 20.4082C67.2722 19.5147 65.9831 18.3575 65.2946 17.8594C61.3249 14.9444 56.5202 13.0108 51.3054 12.2198C49.9724 12.0147 45.9294 11.9414 44.7136 12.1026ZM52.5505 14.8565C56.4616 15.6768 60.5192 17.3907 63.3903 19.4268C65.1481 20.6866 67.5798 23.1182 68.781 24.8174C71.4177 28.5528 72.6335 32.8741 72.2087 36.9903C72.1062 37.8985 71.8864 39.2608 71.696 40.0078L71.3737 41.3702L71.2858 38.8067C71.2272 37.2832 71.0954 35.7744 70.9489 35.1006C69.2937 27.4688 63.4196 21.1114 55.6267 18.5332C52.6237 17.5371 51.4079 17.3614 47.7165 17.3614C44.8454 17.3614 44.2302 17.4053 42.8825 17.6836C40.7146 18.1524 38.2097 19.0166 36.4372 19.9102C34.7819 20.7451 34.2399 21.1846 34.2399 21.7119C34.2399 22.2393 34.7673 22.8399 35.236 22.8399C35.4558 22.8399 36.4226 22.459 37.3894 21.9756C40.905 20.2325 43.7907 19.5586 47.6433 19.5586C51.4372 19.5586 54.3376 20.2178 57.7507 21.8877C59.3181 22.6494 61.5886 24.1143 61.4274 24.2608C61.3981 24.3047 60.695 24.2608 59.8747 24.1729C55.4655 23.6895 50.1188 24.4219 44.904 26.1944C34.9138 29.6221 28.4392 34.9981 26.7546 41.2969C26.5202 42.2051 26.5056 42.2198 26.3884 41.8096C26.1979 41.1358 26.2565 37.2393 26.4616 36.17C27.1501 32.5371 28.82 29.2852 31.4274 26.4727C32.6579 25.1543 32.863 24.8028 32.7165 24.2168C32.6286 23.8653 31.9694 23.4258 31.53 23.4258C30.7829 23.4258 27.6335 27.2637 26.3591 29.6953C24.7185 32.8448 24.0739 35.5254 24.0593 39.1436C24.0593 41.9268 23.9421 41.9414 23.4147 39.3047C22.5798 35.1592 23.0192 31.3653 24.7771 27.7471C25.8171 25.6084 27.1062 23.8213 28.9665 21.961C32.7458 18.1817 37.6677 15.7647 43.8347 14.6367C46.1784 14.2119 49.987 14.2998 52.5505 14.8565ZM59.2302 26.3701C60.1091 26.458 61.6765 26.6778 62.7312 26.8682C64.8405 27.2637 64.6354 27.1319 65.8659 28.919C67.3747 31.1016 68.4733 33.7969 68.8835 36.3164C69.1179 37.7666 69.1618 40.4034 68.9714 41.6631C68.8542 42.4395 68.7956 42.3955 68.5026 41.2237C67.155 35.877 61.7937 30.8965 53.6931 27.4395C52.9021 27.1026 52.2136 26.795 52.1696 26.751C52.1257 26.7217 52.6823 26.6045 53.3854 26.502C54.0886 26.4141 54.7771 26.3116 54.8942 26.2823C55.4362 26.1797 57.7653 26.2237 59.2302 26.3701Z" fill="#151515"></path><path d="M36.071 38.8213C34.4889 39.0556 32.819 39.7295 31.9108 40.4912C30.8268 41.414 31.7936 43.0547 33.0534 42.4101L33.4928 42.1758L33.7272 42.9961C34.0202 44.0068 34.9137 45.0176 35.9245 45.4863C38.1071 46.5117 40.8464 45.1787 41.4323 42.8203C41.5202 42.4687 41.6081 42.1758 41.6374 42.1758C41.652 42.1758 41.8717 42.2783 42.1061 42.3955C43.2341 42.9521 44.2008 41.5752 43.3366 40.6523C42.8385 40.1103 41.1393 39.2754 40.0846 39.041C38.8102 38.748 37.1257 38.6455 36.071 38.8213ZM39.0592 41.1357C39.3669 41.3408 39.3083 42.4248 38.9714 42.8789C38.2682 43.831 36.7155 43.8164 36.1442 42.8642C35.8219 42.3369 35.7487 41.209 36.0417 41.1064C36.3493 40.9746 38.8395 41.0039 39.0592 41.1357Z" fill="#151515"></path><path d="M56.2849 38.8213C54.2928 39.1143 51.9344 40.2862 51.7293 41.0918C51.5828 41.6485 51.8318 42.2198 52.3152 42.4541C52.6814 42.6299 52.7986 42.6153 53.2381 42.4102C53.8679 42.1172 53.8679 42.1172 53.8679 42.4981C53.8826 43.0108 54.4246 44.0948 54.9373 44.6367C55.9773 45.7207 57.6619 46.1162 59.156 45.6182C60.2547 45.252 61.2215 44.2412 61.573 43.1133C61.7195 42.6446 61.8513 42.2344 61.8513 42.2051C61.866 42.1905 62.0711 42.2783 62.3201 42.3955C63.2576 42.8643 64.239 41.9854 63.8435 41.0332C63.4773 40.1543 61.1775 39.0703 59.1121 38.8067C57.867 38.6455 57.4861 38.6455 56.2849 38.8213ZM59.3465 41.2383C59.8738 41.7656 59.3904 43.0108 58.4969 43.4356C57.4129 43.9629 56.0652 43.0987 56.0652 41.8828C56.0652 41.1211 56.2849 41.0186 57.8523 41.0039C58.8191 41.0039 59.1707 41.0625 59.3465 41.2383Z" fill="#151515"></path><path d="M49.635 53.0889C48.2727 54.3193 47.0715 54.334 45.6945 53.1475C45.094 52.6055 44.3908 52.5762 43.9367 53.0596C43.3947 53.6308 43.5119 54.1582 44.3615 54.9492C45.3723 55.9014 46.427 56.2822 47.8625 56.209C49.1662 56.1504 50.0891 55.7549 51.0412 54.8467C51.5539 54.3486 51.6711 54.1435 51.6711 53.7041C51.6711 53.3086 51.5686 53.1035 51.2902 52.8838C50.7336 52.4443 50.2942 52.5029 49.635 53.0889Z" fill="#151515"></path><path d="M45.5787 58.8017C43.2789 59.4756 41.0816 60.457 40.9205 60.8525C40.6422 61.5996 40.8179 61.9804 41.9752 63.123C44.1871 65.291 46.106 66.375 47.7759 66.3603C49.314 66.3603 51.438 65.1006 53.4595 63.0205C55.1588 61.248 54.9976 60.7939 52.3316 59.7099C49.0211 58.3769 47.6588 58.1865 45.5787 58.8017ZM49.9732 61.2334C50.7496 61.4824 51.3795 61.7461 51.3795 61.8047C51.3795 62.0537 49.8121 63.2988 48.9771 63.709C47.9224 64.2363 47.4097 64.251 46.4576 63.7822C45.608 63.3574 43.8648 61.9804 43.9673 61.8193C44.0406 61.7021 45.7105 61.0722 46.692 60.7939C47.439 60.5742 48.3765 60.706 49.9732 61.2334Z" fill="#151515"></path><path d="M46.2511 14.4316C46.046 14.4609 45.299 14.5635 44.5665 14.6514C42.9259 14.8564 40.2892 15.501 38.5607 16.1016C30.3282 19.0166 24.4249 25.4473 23.3116 32.7275C23.0333 34.5146 23.1066 37.2393 23.5021 39.1729L23.7511 40.4912L23.8683 38.6602C24.2052 33.0059 26.1974 28.4502 30.1232 24.4072C30.9728 23.543 31.1486 23.4258 31.632 23.4258C31.9249 23.4258 32.2765 23.5283 32.3937 23.6602C32.5255 23.7773 32.6281 23.8213 32.6281 23.748C32.6281 23.6895 32.9796 23.3672 33.4191 23.0449C34.1808 22.5029 34.2101 22.4443 34.1954 21.873C34.1515 21.0234 34.4005 20.8184 36.4806 19.793C40.465 17.8301 44.4054 16.9951 48.7413 17.1709C57.7208 17.5518 65.7335 22.6641 69.3956 30.3545C70.7286 33.1377 71.2706 35.3643 71.4318 38.5869L71.5197 40.4912L71.7833 39.1729C72.7062 34.5586 71.9445 30.1055 69.5714 26.1943C65.8947 20.1299 59.3468 16.043 51.2316 14.71C49.796 14.4902 46.8956 14.3145 46.2511 14.4316Z" fill="#C1C1C1"></path><path d="M31.9688 25.9453L31.3828 26.5752L32.0127 25.9893C32.584 25.4619 32.7012 25.3301 32.584 25.3301C32.5547 25.3301 32.2764 25.6084 31.9688 25.9453Z" fill="#C1C1C1"></path><path d="M68.9999 39.1728C68.9999 39.4951 69.0292 39.6123 69.0585 39.4218C69.0878 39.2461 69.0878 38.9824 69.0585 38.8359C69.0146 38.7041 68.9853 38.8505 68.9999 39.1728Z" fill="#C1C1C1"></path><path d="M36.7014 41.1212C36.0862 41.1651 36.0129 41.2091 35.925 41.5753C35.6467 42.879 37.1116 43.9044 38.342 43.2745C39.0159 42.9229 39.4407 41.8536 39.1037 41.3555C38.9866 41.1798 37.7268 41.0479 36.7014 41.1212Z" fill="#ECC1C1"></path><path d="M56.9893 41.1212L56.2129 41.1651V41.8389C56.2129 42.3956 56.2861 42.5714 56.7256 43.0108C57.209 43.4942 57.2969 43.5235 57.9121 43.4503C58.8203 43.3477 59.2891 42.879 59.3916 41.9708C59.4502 41.4874 59.4209 41.2823 59.2744 41.2383C58.9375 41.1358 57.8096 41.0772 56.9893 41.1212Z" fill="#ECC1C1"></path><path d="M45.6663 61.2334C44.9046 61.4824 44.2161 61.7315 44.1576 61.8047C44.0111 61.9365 45.6663 63.2549 46.5306 63.709C47.512 64.2071 48.347 64.0752 49.5921 63.2256C50.1488 62.8448 50.7347 62.3907 50.9251 62.1856L51.262 61.8194L50.7201 61.5996C49.724 61.1748 48.2005 60.7793 47.6292 60.7793C47.3216 60.794 46.4281 60.999 45.6663 61.2334Z" fill="#ECC1C1"></path><path d="M36.658 66.3457C37.1414 66.8291 37.5662 67.2246 37.5955 67.2246C37.6395 67.2246 37.2879 66.8291 36.8045 66.3457C36.3211 65.8623 35.8963 65.4668 35.867 65.4668C35.823 65.4668 36.1746 65.8623 36.658 66.3457Z" fill="#ECC1C1"></path><path d="M54.8945 72.1319C51.5107 74.1533 47.9365 74.9004 45.0068 74.1973C43.7471 73.8897 41.5498 72.9668 40.3193 72.2197C39.5723 71.7656 39.3672 71.6924 39.3086 71.8682C39.1914 72.1612 39.2061 72.2344 39.3525 72.1465C39.4111 72.1026 39.9238 72.4248 40.4805 72.8789C41.6816 73.8311 44.04 75.0469 45.373 75.3692C46.0762 75.5449 46.7354 75.5889 47.9365 75.5449C49.9727 75.4424 51.5107 74.9151 53.3857 73.6553C54.499 72.9082 56.2715 71.4727 56.0664 71.4727C56.0225 71.4727 55.4951 71.7656 54.8945 72.1319Z" fill="#ECC1C1"></path><path d="M55.041 72.4248C53.7373 73.5527 52.2431 74.4609 50.7783 75.0176C49.2109 75.5889 46.8818 75.75 45.373 75.3691C44.04 75.0322 41.6816 73.8311 40.4804 72.8643C39.9092 72.4248 39.4111 72.1025 39.3672 72.1611C39.3086 72.2344 39.1474 73.8604 39.0156 75.7939C38.7519 79.3828 38.6494 79.8516 38.0928 80.0273C37.9463 80.0713 36.4521 80.4082 34.7529 80.7744C30.9736 81.5947 26.2422 82.8105 23.3564 83.6895C21.1006 84.3779 17.7168 85.5645 17.2773 85.8135C17.1162 85.916 27.0185 85.96 47.7168 85.96H78.4053L76.7939 85.3154C73.4687 83.9971 65.3828 81.7559 59.582 80.5547C57.8242 80.1885 57.2383 79.998 56.9599 79.7344C56.623 79.4121 56.5937 79.2363 56.3447 75.9844C56.1982 74.1094 56.0664 72.3516 56.0371 72.0879L55.9931 71.5898L55.041 72.4248Z" fill="#FFDCCD"></path><path d="M44.4796 19.8369C41.7111 20.291 39.1329 21.1406 36.921 22.3418C35.588 23.0449 35.2951 23.1035 34.6798 22.7373C34.2697 22.5029 34.255 22.5029 33.4493 23.1182C32.7023 23.7041 32.6583 23.7627 32.7902 24.1289C33.0245 24.7441 32.8341 25.125 31.589 26.458C28.8204 29.4463 27.1066 32.9033 26.5353 36.6094C26.3156 38.0742 26.2716 40.0957 26.4327 41.0479L26.5206 41.6191L26.8429 40.6084C27.6046 38.2061 28.879 36.2139 31.0031 34.1045C32.7169 32.4053 34.0646 31.3506 36.13 30.1055C41.1837 27.0293 47.38 24.8906 53.5763 24.0703C55.3488 23.8359 58.381 23.8506 60.5343 24.0996L61.2667 24.1875L60.4611 23.5869C59.3771 22.7812 56.4474 21.3311 54.8214 20.8037C52.4484 20.0273 50.7931 19.749 48.1564 19.6904C46.5304 19.6465 45.3292 19.6904 44.4796 19.8369Z" fill="#ECECEC"></path><path d="M53.6201 26.5312C53.0342 26.6191 52.5508 26.7363 52.5508 26.7802C52.5508 26.8242 53.0928 27.0879 53.7666 27.3662C56.7256 28.582 60.2412 30.6328 62.541 32.4931C65.4561 34.8369 67.9316 38.3525 68.5469 40.9892C68.8105 42.1611 68.957 41.6045 68.957 39.3779C68.957 36.126 68.4443 33.9287 67.0381 31.1162C66.6426 30.3105 65.9248 29.1093 65.4414 28.4648C64.6797 27.4248 64.5039 27.2636 64.0205 27.1758C59.7578 26.4433 55.8906 26.1943 53.6201 26.5312Z" fill="#ECECEC"></path><path d="M62.2365 60.9227C61.9138 61.447 61.7992 62.2523 61.9595 62.7858C62.0151 63.0018 62.6485 64.1288 63.3535 65.2912C64.8102 67.6928 64.9843 67.8763 66.0335 68.094C66.8 68.2599 67.2256 68.1331 68.4838 67.37L69.5125 66.746L69.9204 67.4185C70.2758 68.0045 70.4959 68.6988 71.5851 72.69C72.8128 77.241 72.8327 77.2946 73.4096 78.2457C73.9398 79.1198 74.0489 79.2376 74.6116 79.606C75.8502 80.4053 77.3326 80.4259 78.6 79.6572C79.794 78.933 80.4797 77.7023 80.434 76.3635C80.4194 76.0701 79.7174 73.2764 78.8656 70.1531L77.3216 64.4799L75.0974 60.875L72.8789 57.2797L72.3672 56.933C71.7062 56.5061 70.7905 56.2599 70.0255 56.3035L69.4264 56.3514L65.9648 58.4116C62.5917 60.4313 62.4999 60.487 62.2365 60.9227ZM67.1818 62.9035L68.5219 65.113L67.5759 65.6867C66.1524 66.5502 66.2958 66.6209 64.9032 64.325C63.4698 61.9618 63.4721 62.1312 64.8497 61.2956L65.8416 60.694L67.1818 62.9035ZM70.3782 58.2314C70.9872 58.2826 71.4265 58.4891 71.8156 58.9233C71.9921 59.1316 72.8912 60.5311 73.8152 62.0337L75.47 64.7619L76.9901 70.292C77.8227 73.3218 78.5148 76.0163 78.5245 76.2601C78.5809 77.1195 77.9841 78.0203 77.1971 78.2348C76.723 78.3647 75.9257 78.2307 75.4731 77.9402C75.2972 77.8366 75.0465 77.5682 74.9124 77.3472C74.7668 77.1071 74.1539 75.061 73.3777 72.2072L72.0818 67.4609L69.7395 63.5992L67.4029 59.747L68.6795 58.9726C69.8459 58.2652 69.9862 58.2064 70.3782 58.2314Z" fill="#151515"></path></g><defs><clipPath id="clip0_397_101"><rect width="75" height="75" fill="white" transform="translate(13 12)"></rect></clipPath></defs></svg>