<svg xmlns="http://www.w3.org/2000/svg" width="100" height="100" viewBox="0 0 100 100" fill="none"><rect width="100" height="100" fill="#EBF0F6"></rect><g clip-path="url(#clip0_397_97)"><path d="M84.0263 65.2706C83.9725 65.2706 83.918 65.2593 83.8659 65.2354C83.6726 65.1467 83.5878 64.9181 83.6764 64.7248C84.2548 63.4638 84.7662 62.1551 85.1966 60.8352C85.2625 60.633 85.4799 60.5225 85.6821 60.5884C85.8843 60.6544 85.9948 60.8718 85.9289 61.074C85.4894 62.4218 84.9672 63.7582 84.3766 65.0459C84.3118 65.1872 84.1722 65.2706 84.0263 65.2706ZM86.6395 57.259C86.6141 57.259 86.5882 57.2565 86.5623 57.2512C86.3539 57.2088 86.2193 57.0055 86.2617 56.7971C86.4986 55.6327 86.6808 54.4417 86.8034 53.2571C86.8238 53.0605 86.8428 52.8608 86.86 52.6634C86.8785 52.4515 87.0651 52.2946 87.2772 52.3132C87.4891 52.3317 87.6459 52.5184 87.6274 52.7304C87.6098 52.9318 87.5904 53.1357 87.5696 53.3363C87.4444 54.5458 87.2584 55.7618 87.0165 56.9506C86.9794 57.1331 86.8188 57.259 86.6395 57.259ZM87.3708 48.8637C87.163 48.8637 86.9917 48.698 86.9861 48.4889C86.9486 47.1006 86.8299 45.701 86.6335 44.329C86.6033 44.1184 86.7496 43.9233 86.9601 43.8932C87.1707 43.863 87.3658 44.0093 87.396 44.2198C87.5966 45.621 87.7178 47.0503 87.7561 48.4681C87.7618 48.6807 87.5941 48.8578 87.3815 48.8635C87.3779 48.8636 87.3744 48.8637 87.3708 48.8637ZM86.1764 40.5248C86.0058 40.5248 85.8498 40.4105 85.8043 40.2377C85.451 38.8974 85.0155 37.5619 84.5098 36.2685C84.4324 36.0704 84.5302 35.847 84.7283 35.7696C84.9264 35.6921 85.1498 35.7899 85.2272 35.988C85.7436 37.3089 86.1884 38.6726 86.5491 40.0414C86.6033 40.2471 86.4805 40.4578 86.2748 40.512C86.2419 40.5207 86.2089 40.5248 86.1764 40.5248ZM83.1101 32.6779C82.972 32.6779 82.8385 32.6035 82.7694 32.473C82.1204 31.2475 81.3932 30.0453 80.6081 28.8997C80.4879 28.7243 80.5326 28.4846 80.7081 28.3643C80.8835 28.2441 81.1232 28.2888 81.2435 28.4643C82.045 29.6339 82.7875 30.8613 83.4501 32.1125C83.5496 32.3004 83.478 32.5335 83.29 32.6331C83.2326 32.6635 83.1709 32.6779 83.1101 32.6779ZM78.3467 25.727C78.2389 25.727 78.1317 25.682 78.0555 25.5942C77.1459 24.5451 76.1666 23.5373 75.1449 22.599C74.9883 22.4551 74.9779 22.2115 75.1218 22.0548C75.2656 21.8981 75.5093 21.8877 75.6659 22.0317C76.709 22.9897 77.7088 24.0185 78.6375 25.0896C78.7768 25.2503 78.7595 25.4936 78.5988 25.6329C78.526 25.6961 78.4361 25.727 78.3467 25.727ZM22.6473 25.7056C22.5577 25.7056 22.4677 25.6745 22.3948 25.6111C22.2343 25.4716 22.2173 25.2283 22.3568 25.0678C23.2854 23.9995 24.287 22.9723 25.3336 22.0145C25.4905 21.8709 25.7342 21.8817 25.8777 22.0387C26.0213 22.1956 26.0105 22.4392 25.8536 22.5828C24.8285 23.5208 23.8476 24.5269 22.9381 25.5731C22.862 25.6607 22.755 25.7056 22.6473 25.7056ZM28.8644 20.0157C28.7452 20.0157 28.6276 19.9606 28.5523 19.8567C28.4274 19.6845 28.4658 19.4437 28.638 19.3188C29.7861 18.4862 30.9938 17.7115 32.2275 17.0162C32.4128 16.9118 32.6476 16.9774 32.7521 17.1627C32.8565 17.348 32.7909 17.5829 32.6056 17.6873C31.3974 18.3682 30.2146 19.1269 29.0902 19.9423C29.0219 19.9919 28.9428 20.0157 28.8644 20.0157ZM36.206 15.8791C36.0557 15.8791 35.9129 15.7905 35.8509 15.6433C35.7683 15.4473 35.8603 15.2214 36.0564 15.1389C37.3628 14.5889 38.7148 14.109 40.0749 13.7126C40.2791 13.6531 40.4929 13.7704 40.5524 13.9746C40.612 14.1788 40.4947 14.3926 40.2905 14.4521C38.9585 14.8403 37.6346 15.3102 36.3552 15.8488C36.3065 15.8693 36.2558 15.8791 36.206 15.8791ZM56.9005 13.5617C56.8784 13.5617 56.856 13.5598 56.8334 13.5558C55.985 13.4069 55.1183 13.2862 54.2576 13.1972C53.7383 13.1434 53.2092 13.1001 52.6852 13.0684C52.4729 13.0556 52.3112 12.8731 52.324 12.6607C52.3368 12.4484 52.519 12.2868 52.7317 12.2996C53.2666 12.3319 53.8067 12.3761 54.3369 12.431C55.2155 12.5219 56.1003 12.6451 56.9666 12.7971C57.1761 12.8339 57.3161 13.0335 57.2793 13.243C57.2465 13.43 57.084 13.5617 56.9005 13.5617ZM44.2945 13.5218C44.1102 13.5218 43.9472 13.389 43.9153 13.2012C43.8796 12.9915 44.0207 12.7926 44.2304 12.7569C45.6266 12.5193 47.0521 12.3603 48.4675 12.2842C48.6797 12.2729 48.8613 12.4358 48.8728 12.6482C48.8842 12.8606 48.7212 13.042 48.5089 13.0534C47.1228 13.1279 45.7268 13.2836 44.3596 13.5162C44.3377 13.52 44.316 13.5218 44.2945 13.5218ZM50.2754 86.7685C50.2745 86.7685 50.2735 86.7684 50.2726 86.7684C49.0739 86.7599 47.8599 86.6928 46.6642 86.5691C46.4486 86.5468 46.2305 86.5223 46.0159 86.4964C45.8048 86.4709 45.6542 86.2791 45.6797 86.0679C45.7052 85.8567 45.8971 85.7063 46.1082 85.7317C46.3185 85.7571 46.5323 85.781 46.7435 85.8029C47.9147 85.9241 49.104 85.9898 50.2781 85.9982C50.4908 85.9997 50.662 86.1734 50.6605 86.3861C50.659 86.5978 50.4868 86.7685 50.2754 86.7685ZM54.4898 86.5566C54.2957 86.5566 54.1287 86.4102 54.1074 86.2128C54.0845 86.0013 54.2375 85.8114 54.4489 85.7885C55.8289 85.6395 57.2148 85.4085 58.5681 85.1022C58.7755 85.0553 58.9818 85.1853 59.0288 85.3928C59.0757 85.6002 58.9456 85.8065 58.7382 85.8534C57.3562 86.1663 55.9409 86.4021 54.5316 86.5544C54.5176 86.5559 54.5036 86.5566 54.4898 86.5566ZM41.907 85.7584C41.8775 85.7584 41.8476 85.755 41.8177 85.7479C40.436 85.4199 39.0612 85.0091 37.7315 84.527C37.5315 84.4545 37.4282 84.2337 37.5007 84.0337C37.5732 83.8337 37.7941 83.7304 37.994 83.8029C39.2961 84.2749 40.6424 84.6772 41.9956 84.9984C42.2026 85.0475 42.3305 85.2551 42.2814 85.4621C42.2393 85.6391 42.0813 85.7584 41.907 85.7584ZM33.9849 82.8849C33.927 82.8849 33.8683 82.8718 33.813 82.8441C32.5458 82.2107 31.3019 81.4958 30.1157 80.7195C29.9378 80.603 29.8879 80.3643 30.0044 80.1863C30.1209 80.0083 30.3596 79.9585 30.5376 80.075C31.6989 80.8351 32.9167 81.5349 34.1574 82.1552C34.3477 82.2503 34.4248 82.4816 34.3297 82.6719C34.2622 82.8068 34.1262 82.8849 33.9849 82.8849ZM26.9355 78.2718C26.8486 78.2718 26.7611 78.2425 26.6891 78.1824C25.6039 77.2777 24.5565 76.298 23.5762 75.2704C23.4294 75.1165 23.4351 74.8727 23.589 74.7259C23.7429 74.5791 23.9867 74.5848 24.1335 74.7387C25.0937 75.7452 26.1195 76.7047 27.1824 77.5908C27.3458 77.727 27.3678 77.9699 27.2316 78.1332C27.1554 78.2246 27.0459 78.2718 26.9355 78.2718ZM21.1174 72.177C21.0011 72.177 20.8862 72.1245 20.8105 72.0248C19.9504 70.893 19.1481 69.7035 18.4259 68.4895C18.3171 68.3067 18.3771 68.0703 18.56 67.9616C18.7428 67.8528 18.9791 67.9129 19.0878 68.0957C19.7952 69.2849 20.5811 70.45 21.4237 71.5588C21.5524 71.7281 21.5195 71.9697 21.3501 72.0985C21.2805 72.1514 21.1986 72.177 21.1174 72.177ZM16.8109 64.9329C16.6638 64.9329 16.5234 64.8482 16.4592 64.7053C15.8787 63.4112 15.3681 62.0703 14.9417 60.7198C14.8776 60.517 14.9901 60.3006 15.1929 60.2366C15.3958 60.1725 15.6121 60.285 15.6762 60.4879C16.0937 61.8101 16.5936 63.123 17.162 64.39C17.2491 64.5841 17.1623 64.812 16.9683 64.8991C16.9171 64.922 16.8635 64.9329 16.8109 64.9329ZM14.2732 56.8982C14.0922 56.8982 13.9308 56.7701 13.8954 56.5857C13.6283 55.1964 13.4392 53.7743 13.3333 52.3591C13.3175 52.147 13.4766 51.9622 13.6887 51.9463C13.901 51.9303 14.0856 52.0895 14.1015 52.3016C14.2051 53.6874 14.3903 55.0799 14.6518 56.4403C14.692 56.6492 14.5552 56.8511 14.3463 56.8912C14.3218 56.8959 14.2973 56.8982 14.2732 56.8982ZM13.6432 48.4959C13.6381 48.4959 13.633 48.4958 13.6279 48.4956C13.4154 48.4873 13.2498 48.3083 13.2581 48.0958C13.2897 47.2887 13.348 46.4705 13.4315 45.6638C13.494 45.0602 13.5721 44.4504 13.6637 43.8513C13.6959 43.6411 13.8924 43.4967 14.1027 43.5289C14.3129 43.561 14.4573 43.7575 14.4252 43.9678C14.3354 44.5545 14.2589 45.1518 14.1977 45.7431C14.1159 46.5335 14.0587 47.3352 14.0278 48.1258C14.0197 48.3333 13.849 48.4959 13.6432 48.4959Z" fill="#4F2584"></path><path d="M50.5007 76.61C65.4732 76.61 77.6108 64.4724 77.6108 49.5C77.6108 34.5275 65.4732 22.3899 50.5007 22.3899C35.5282 22.3899 23.3906 34.5275 23.3906 49.5C23.3906 64.4724 35.5282 76.61 50.5007 76.61Z" fill="#F0E1FF"></path><path d="M79.0794 37.2365C70.7285 29.4216 68.7536 28.1238 66.807 25.2179C66.1669 24.2626 65.4741 22.6597 64.6912 20.9199C63.8361 19.0195 63.018 17.2873 62.8523 16.5575C62.6405 15.625 61.3604 15.4623 61.1232 16.8714C60.8961 18.2212 60.8268 18.6239 61.2491 20.4782C61.5628 21.8558 61.0497 23.0418 60.7633 23.6418C60.3389 24.531 59.9677 26.2146 62.1519 27.1082C63.3932 27.616 63.8728 27.3057 64.3807 29.1113C64.6043 29.9065 68.1612 37.0672 71.0953 39.1832C72.0978 39.9061 73.6344 41.2427 73.6344 41.2427" fill="white"></path><path d="M73.634 41.6277C73.5444 41.6277 73.4543 41.5966 73.3814 41.5332C73.3662 41.5199 71.8463 40.1997 70.8697 39.4955C69.2552 38.3312 67.5428 35.7823 66.3905 33.8491C65.1639 31.7912 64.1452 29.6973 64.0097 29.2155C63.669 28.0042 63.4368 27.9329 62.7475 27.7214C62.5338 27.6558 62.2915 27.5814 62.0058 27.4646C61.0888 27.0894 60.486 26.5422 60.214 25.838C59.8536 24.9051 60.1855 23.9576 60.4155 23.4759C60.7413 22.7932 61.1432 21.7487 60.8733 20.5637C60.4349 18.6389 60.5123 18.1796 60.7417 16.816L60.7432 16.8074C60.9079 15.8287 61.5015 15.4648 62.0021 15.4507C62.5838 15.434 63.0873 15.8542 63.2276 16.4721C63.3573 17.0433 63.9725 18.4 64.6237 19.8365C64.7599 20.1368 64.9007 20.4473 65.0422 20.7618C65.1266 20.9494 65.21 21.1355 65.2924 21.3193C65.9514 22.7895 66.5738 24.1782 67.1267 25.0035C68.4532 26.9836 69.7713 28.1826 73.2941 31.3869C74.8525 32.8044 76.792 34.5686 79.3423 36.9552C79.4976 37.1005 79.5057 37.3443 79.3604 37.4996C79.215 37.6549 78.9713 37.6629 78.816 37.5176C76.2697 35.1347 74.3324 33.3726 72.7758 31.9567C71.045 30.3824 69.7945 29.245 68.8379 28.2755C67.8503 27.2746 67.1691 26.4508 66.4867 25.4322C65.8976 24.5527 65.2914 23.2003 64.5895 21.6343C64.5073 21.4509 64.4241 21.2652 64.3398 21.0778C64.1987 20.7644 64.0582 20.4544 63.9222 20.1546C63.1966 18.5542 62.6235 17.2901 62.4765 16.6427C62.4102 16.3511 62.2022 16.2205 62.0331 16.2205C62.03 16.2205 62.0269 16.2206 62.0239 16.2206C61.7754 16.2277 61.5758 16.5015 61.5028 16.9353L61.5013 16.9438C61.2795 18.2622 61.2198 18.6165 61.6243 20.3926C61.7736 21.0479 61.7675 21.7359 61.6063 22.4377C61.4764 23.0037 61.2731 23.4671 61.1106 23.8077C60.9341 24.1775 60.6762 24.897 60.9325 25.5605C61.1251 26.0592 61.5843 26.4599 62.2975 26.7516C62.5508 26.8553 62.7754 26.9242 62.9735 26.985C63.3716 27.1072 63.7154 27.2127 64.0201 27.5133C64.3218 27.811 64.5404 28.2576 64.7512 29.0069C64.8447 29.3395 65.7404 31.254 67.0521 33.4547C68.1671 35.3254 69.8127 37.7835 71.3203 38.8707C72.3255 39.5956 73.8236 40.897 73.8869 40.952C74.0474 41.0916 74.0643 41.3349 73.9247 41.4954C73.8486 41.5829 73.7416 41.6277 73.634 41.6277Z" fill="#4F2584"></path><path d="M75.7962 39.9715C61.6184 36.7527 59.7078 36.0286 57.8522 35.073C56.8299 34.5466 55.1712 33.307 53.5866 32.2446C51.8557 31.0841 50.2453 30.0468 49.7186 29.515C49.0456 28.8357 47.8732 29.3747 48.4172 30.696C48.9384 31.9617 49.3355 32.2099 50.6747 33.5602C51.6696 34.5634 51.9989 35.751 52.0733 36.4117C52.1834 37.3907 53.1168 39.1064 55.2462 38.9841C56.39 38.9183 56.4237 38.3568 57.9596 39.2998C58.6636 39.732 65.4579 44.0215 68.1133 45.2825C71.407 46.8466 74.7649 47.6544 74.7649 47.6544" fill="white"></path><path d="M74.7649 48.0397C74.7351 48.0397 74.7048 48.0362 74.6745 48.0289C74.6406 48.0208 71.2396 47.1937 67.9478 45.6305C65.5808 44.5065 60.0489 41.0562 58.231 39.9224C58.0031 39.7803 57.8384 39.6775 57.7578 39.6281C56.8102 39.0462 56.5815 39.1051 56.1257 39.2223C55.9093 39.2779 55.6399 39.3472 55.268 39.3686C55.1873 39.3732 55.1083 39.3755 55.0312 39.3755C53.8392 39.3755 53.0687 38.8416 52.6241 38.3773C52.3544 38.0957 52.1329 37.7685 51.9658 37.4047C51.8197 37.0866 51.7244 36.7581 51.6903 36.4548C51.6509 36.1046 51.4415 34.8806 50.4009 33.8314C50.1869 33.6156 49.9951 33.4262 49.826 33.2592C48.9347 32.3789 48.5279 31.9771 48.0608 30.8427C47.6829 29.9249 47.9942 29.3022 48.4116 29.0254C48.8961 28.704 49.546 28.7939 49.9919 29.244C50.4041 29.6601 51.6438 30.4863 52.9564 31.3609C53.2308 31.5437 53.5145 31.7327 53.8008 31.9247C54.3063 32.2636 54.8186 32.62 55.3141 32.9647C56.3626 33.694 57.3529 34.3829 58.0282 34.7307C59.777 35.6312 61.575 36.348 75.8811 39.596C76.0885 39.6431 76.2185 39.8494 76.1714 40.0568C76.1243 40.2643 75.918 40.3942 75.7106 40.3471C68.9135 38.804 64.7153 37.7853 62.0981 37.0441C59.5096 36.3111 58.5638 35.8728 57.6756 35.4154C56.9549 35.0443 55.9442 34.3413 54.8742 33.597C54.3814 33.2542 53.8718 32.8997 53.3718 32.5645C53.0864 32.3731 52.8032 32.1844 52.5293 32.0019C51.0669 31.0274 49.9119 30.2578 49.4446 29.7861C49.2304 29.5698 48.9796 29.5729 48.8373 29.6673C48.6302 29.8046 48.6056 30.1426 48.773 30.5494C49.1805 31.539 49.4796 31.8344 50.3673 32.7111C50.5377 32.8795 50.7309 33.0703 50.9478 33.289C51.4252 33.7703 51.8037 34.3335 52.073 34.9629C52.3381 35.5826 52.4265 36.1096 52.4557 36.3687C52.5 36.7626 52.7137 37.3572 53.1804 37.8445C53.7059 38.3933 54.3935 38.6473 55.2238 38.5996C55.5208 38.5825 55.7308 38.5285 55.9339 38.4763C56.5545 38.3167 56.994 38.2552 58.1609 38.9716C58.2437 39.0225 58.4094 39.1258 58.6387 39.2688C60.4472 40.3968 65.951 43.8295 68.2782 44.9346C71.4952 46.4623 74.8215 47.272 74.8547 47.28C75.0615 47.3298 75.1888 47.5378 75.139 47.7445C75.0966 47.9211 74.9388 48.0397 74.7649 48.0397Z" fill="#4F2584"></path><path d="M75.1415 39.8229C68.815 38.3825 65.0282 37.4576 62.6023 36.7854L61.5957 39.9801L74.0879 43.1721L75.1415 39.8229Z" fill="#C98AED"></path><path d="M74.0885 43.5573C74.0569 43.5573 74.0249 43.5534 73.993 43.5453L61.5007 40.3532C61.3982 40.327 61.311 40.2598 61.2595 40.1673C61.2081 40.0749 61.1969 39.9653 61.2287 39.8644L62.2353 36.6696C62.2977 36.4718 62.5056 36.3588 62.7055 36.4142C65.2202 37.111 69.1991 38.0749 75.2273 39.4474C75.3322 39.4712 75.4223 39.5379 75.4758 39.6312C75.5294 39.7244 75.5415 39.8359 75.5092 39.9385L74.4557 43.2877C74.4042 43.4514 74.2529 43.5573 74.0885 43.5573ZM62.0857 39.7077L73.8304 42.7087L74.6492 40.1056C69.1103 38.8421 65.3381 37.9301 62.8585 37.255L62.0857 39.7077Z" fill="#4F2584"></path><path d="M63.8873 37.5683C63.7794 38.2665 64.219 38.9554 64.932 39.1277L71.8292 40.7948C72.4837 40.953 73.1575 40.6187 73.4274 40.0018L73.6392 39.4793C69.3096 38.486 66.1913 37.729 64.015 37.1617C63.9931 37.156 63.9091 37.574 63.8873 37.5683Z" fill="#FFDA8F"></path><path d="M72.1579 41.2193C72.0194 41.2193 71.879 41.203 71.7392 41.1692L64.842 39.5021C64.405 39.3965 64.0282 39.132 63.7809 38.7575C63.537 38.3881 63.4398 37.945 63.5071 37.5095C63.5137 37.467 63.5272 37.4264 63.5468 37.3892C63.5561 37.3566 63.5695 37.3043 63.5784 37.2698C63.6366 37.0432 63.6686 36.9183 63.8183 36.8302C63.9077 36.7775 64.0122 36.7629 64.1126 36.789C66.4351 37.3945 69.6694 38.1734 73.7257 39.104C73.8357 39.1292 73.9291 39.2014 73.9812 39.3015C74.0333 39.4016 74.0389 39.5195 73.9965 39.6241L73.7847 40.1465C73.7834 40.1498 73.7821 40.153 73.7807 40.1562C73.4929 40.8138 72.849 41.2193 72.1579 41.2193ZM64.2618 37.6782C64.2118 38.1699 64.5377 38.6361 65.0229 38.7534L71.9201 40.4205C72.3923 40.5346 72.8763 40.2956 73.073 39.8519L73.1129 39.7535C69.4576 38.9125 66.4899 38.1984 64.2789 37.6279C64.2734 37.6455 64.2678 37.6622 64.2618 37.6782ZM63.8863 37.1828C63.8362 37.1828 63.7894 37.1928 63.7473 37.2097C63.8224 37.1803 63.9057 37.175 63.9851 37.1957C63.9511 37.1868 63.918 37.1828 63.8863 37.1828Z" fill="#4F2584"></path><path d="M72.142 31.7096L56.6887 27.8777C56.1834 27.7524 55.8753 27.2412 56.0006 26.7358C56.1259 26.2305 56.6371 25.9224 57.1425 26.0477L72.5958 29.8796L72.142 31.7096Z" fill="white"></path><path d="M72.1427 32.0948C72.1117 32.0948 72.0806 32.0911 72.05 32.0835L56.5967 28.2516C56.2524 28.1662 55.962 27.9519 55.779 27.6481C55.5959 27.3443 55.5421 26.9874 55.6275 26.6432C55.8037 25.9325 56.5253 25.4977 57.2359 25.674L72.6891 29.5059C72.8956 29.5571 73.0215 29.7659 72.9703 29.9724L72.5165 31.8024C72.4919 31.9015 72.4289 31.9868 72.3414 32.0396C72.281 32.076 72.2121 32.0948 72.1427 32.0948ZM56.9153 26.405C56.8151 26.405 56.7165 26.4322 56.6285 26.4852C56.5009 26.5621 56.4109 26.684 56.3751 26.8286C56.3392 26.9731 56.3618 27.123 56.4387 27.2506C56.5156 27.3781 56.6375 27.4681 56.7821 27.504L71.8616 31.2432L72.13 30.1608L57.0505 26.4216C57.0057 26.4105 56.9603 26.405 56.9153 26.405Z" fill="#4F2584"></path><path d="M65.1445 28.0131V32.6752C65.1445 33.2132 65.5807 33.6493 66.1187 33.6493C66.6567 33.6493 67.0929 33.2132 67.0929 32.6752C67.0929 32.2396 67.4459 31.8865 67.8815 31.8865H67.9743C68.461 31.8865 68.8556 32.2811 68.8556 32.7679V33.7769C68.8556 34.2957 69.2762 34.7163 69.795 34.7163C70.3138 34.7163 70.7344 34.2957 70.7344 33.7769V33.3022C70.7344 32.8594 71.1038 32.5061 71.5462 32.5259C71.9614 32.5445 72.2884 32.8866 72.2884 33.3022V35.5159C72.2884 36.106 72.7772 36.5787 73.3669 36.5591C73.9296 36.5403 74.3759 36.0788 74.3759 35.5159V32.6818C74.3759 31.2806 73.4061 30.0661 72.0396 29.756L71.6158 29.6599L65.1445 28.0131Z" fill="#FFDA8F"></path><path d="M73.3311 36.9448C72.9588 36.9448 72.6082 36.8032 72.3391 36.543C72.0583 36.2713 71.9037 35.9066 71.9037 35.5159V33.3022C71.9037 33.0921 71.7392 32.9201 71.5293 32.9107C71.4216 32.9058 71.319 32.9443 71.241 33.019C71.1629 33.0936 71.1199 33.1942 71.1199 33.3022V33.7769C71.1199 34.5072 70.5258 35.1014 69.7954 35.1014C69.0651 35.1014 68.4709 34.5072 68.4709 33.7769V32.7679C68.4709 32.4943 68.2483 32.2717 67.9746 32.2717H67.8818C67.6594 32.2717 67.4784 32.4527 67.4784 32.6752C67.4784 33.4247 66.8686 34.0345 66.1191 34.0345C65.3695 34.0345 64.7598 33.4247 64.7598 32.6752V28.0131C64.7598 27.8942 64.8147 27.782 64.9085 27.709C65.0024 27.636 65.1247 27.6105 65.2399 27.6398L71.7063 29.2854L72.1252 29.3805C72.8709 29.5497 73.5444 29.9719 74.0215 30.5694C74.4987 31.167 74.7615 31.9172 74.7615 32.6818V35.5159C74.7615 35.8886 74.6187 36.2414 74.3596 36.5093C74.1005 36.7772 73.7527 36.9316 73.3802 36.944C73.3638 36.9445 73.3474 36.9448 73.3311 36.9448ZM71.5101 32.14C71.5279 32.14 71.5458 32.1404 71.5638 32.1412C72.1863 32.1691 72.6739 32.679 72.6739 33.3022V35.5159C72.6739 35.696 72.7452 35.8641 72.8747 35.9893C73.0041 36.1145 73.1743 36.1801 73.3545 36.1742C73.7115 36.1623 73.9912 35.8731 73.9912 35.5159V32.6818C73.9912 31.4523 73.1538 30.4037 71.9548 30.1316L71.5309 30.0355C71.5277 30.0347 71.5244 30.0339 71.5212 30.0331L65.53 28.5085V32.6752C65.53 33 65.7943 33.2642 66.1191 33.2642C66.4438 33.2642 66.7081 33 66.7081 32.6752C66.7081 32.028 67.2346 31.5014 67.8819 31.5014H67.9746C68.673 31.5014 69.2412 32.0696 69.2412 32.7679V33.7769C69.2412 34.0825 69.4898 34.3311 69.7954 34.3311C70.101 34.3311 70.3497 34.0825 70.3497 33.7769V33.3022C70.3497 32.9819 70.4771 32.6836 70.7086 32.4622C70.9271 32.2533 71.21 32.14 71.5101 32.14Z" fill="#4F2584"></path><path d="M28.9919 30.4014C28.9919 30.4014 36.2107 31.9219 38.126 32.8266C41.2629 34.3086 42.7084 35.8845 41.9507 39.3398C41.7681 40.1739 41.5261 41.2978 41.2524 42.5633L40.2545 47.1279C39.7195 49.5366 39.1814 51.8702 38.7824 53.3619C38.3465 54.9912 38.0036 57.3598 38.5673 58.598C39.1546 59.8883 39.3735 61.503 39.6832 62.7988C39.9929 64.0943 41.7782 64.4168 41.5374 65.4193C41.2967 66.4219 40.0519 65.9168 38.9756 65.5634C37.6219 65.1189 37.5691 64.7922 36.7004 62.8383C35.3651 59.8345 33.6687 60.5958 33.3808 58.4009C33.1266 56.4617 35.4103 56.1615 35.2906 53.6805C35.1546 50.8544 34.8099 46.2388 35.1814 44.2575C35.8512 40.6825 36.8395 39.6819 37.0289 39.1206C37.433 37.9223 35.5731 38.1118 32.9266 37.9943C29.8163 37.8562 25.7285 36.8546 25.7285 36.8546" fill="white"></path><path d="M40.7408 66.3933C40.2404 66.3933 39.6621 66.1996 39.0968 66.0102C39.0152 65.9828 38.9341 65.9557 38.8539 65.9293C37.4361 65.4638 37.243 65.0259 36.5246 63.3965C36.4692 63.2708 36.4102 63.1372 36.3469 62.9948C35.7175 61.5788 35.0223 61.0693 34.4089 60.6198C33.7677 60.1499 33.1621 59.706 32.9974 58.451C32.8533 57.3517 33.3991 56.7002 33.9269 56.0701C34.4579 55.4364 34.9593 54.8378 34.9044 53.6991C34.8823 53.241 34.8548 52.7359 34.8257 52.2011C34.6724 49.39 34.4817 45.8915 34.8014 44.1865C35.3252 41.3908 36.0504 40.1142 36.4401 39.4284C36.546 39.242 36.6296 39.0948 36.6625 38.9975C36.6853 38.9298 36.718 38.808 36.6803 38.754C36.6482 38.708 36.5142 38.593 35.9656 38.5188C35.4991 38.4557 34.8757 38.4392 34.1539 38.42C33.7577 38.4095 33.348 38.3986 32.908 38.3791C29.7957 38.2409 25.8038 37.27 25.6354 37.2287C25.4288 37.1781 25.3023 36.9696 25.353 36.763C25.4036 36.5564 25.6121 36.43 25.8187 36.4806C25.8592 36.4905 29.9065 37.4749 32.9421 37.6096C33.3754 37.6288 33.7815 37.6396 34.1743 37.65C35.8154 37.6936 36.8995 37.7225 37.3119 38.3131C37.4883 38.5658 37.5153 38.8789 37.3923 39.2438C37.3358 39.4111 37.2361 39.5867 37.1098 39.8089C36.7424 40.4556 36.0585 41.6593 35.5584 44.3285C35.2558 45.9423 35.4438 49.3894 35.5948 52.1592C35.624 52.6952 35.6516 53.2016 35.6738 53.662C35.7048 54.3056 35.5915 54.8776 35.3274 55.4106C35.1004 55.8689 34.7906 56.2386 34.5174 56.5648C34.0389 57.1359 33.661 57.587 33.7611 58.3509C33.8829 59.2794 34.2523 59.5501 34.8642 59.9985C35.5209 60.4798 36.3381 61.0786 37.0508 62.682C37.1144 62.8251 37.1736 62.9594 37.2294 63.0858C37.9292 64.6732 38.0024 64.8391 39.0942 65.1976C39.1758 65.2244 39.2584 65.252 39.3414 65.2798C39.7004 65.4001 40.0717 65.5245 40.3913 65.5853C40.7568 65.6548 40.9301 65.6159 41.0111 65.571C41.0402 65.5549 41.1176 65.512 41.1614 65.3295C41.2226 65.0746 41.0151 64.8753 40.527 64.4812C40.0637 64.1073 39.4872 63.6419 39.3071 62.8884C39.2237 62.5395 39.1486 62.1766 39.069 61.7924C38.8528 60.7475 38.6291 59.667 38.2153 58.7576C37.9318 58.1351 37.8306 57.2404 37.9143 56.0985C37.9787 55.2208 38.1543 54.2136 38.4088 53.2625C38.7541 51.9717 39.2343 49.9378 39.877 47.0445L40.8746 42.4811C40.9423 42.1683 41.0081 41.8633 41.0717 41.5693C41.2669 40.6658 41.4354 39.8854 41.5729 39.2575C41.9191 37.6789 41.7925 36.5019 41.1746 35.5535C40.6148 34.6944 39.6234 33.9608 37.9599 33.1749C36.1072 32.2998 28.9827 30.7934 28.911 30.7783C28.7028 30.7345 28.5697 30.5302 28.6135 30.3221C28.6573 30.1139 28.8616 29.9807 29.0697 30.0246C29.3663 30.087 36.3549 31.5649 38.2889 32.4785C40.0888 33.3288 41.1778 34.1475 41.8199 35.133C42.1901 35.7012 42.4108 36.3209 42.4947 37.0274C42.5788 37.7356 42.5234 38.519 42.3253 39.4223C42.1881 40.0491 42.0196 40.8289 41.8245 41.732C41.761 42.026 41.6951 42.3311 41.6273 42.6448L40.6292 47.2103C39.9838 50.1156 39.501 52.16 39.1528 53.4615C38.7256 55.0587 38.4073 57.3205 38.9163 58.4385C39.3659 59.4264 39.6089 60.6005 39.8233 61.6363C39.9016 62.0146 39.9756 62.3719 40.0562 62.7093C40.1753 63.2075 40.6 63.5503 41.0107 63.8819C41.2665 64.0884 41.5081 64.2834 41.6848 64.5184C41.9179 64.8284 41.9938 65.1618 41.9103 65.5094C41.8287 65.8492 41.6518 66.0967 41.3843 66.2448C41.1934 66.3506 40.9756 66.3933 40.7408 66.3933Z" fill="#4F2584"></path><path d="M28.1486 33.9035C27.4801 31.7769 27.4782 31.7739 26.1211 30.7261C27.4782 29.6783 27.4801 29.6754 28.1486 27.5488C28.8173 29.6754 28.8191 29.6783 30.1765 30.7261C28.8193 31.774 28.8173 31.7769 28.1486 33.9035Z" fill="#FFDA8F"></path><path d="M28.1471 34.2886C27.9789 34.2886 27.8301 34.1794 27.7797 34.019C27.1467 32.0058 27.1467 32.0058 25.8842 31.031C25.7897 30.9581 25.7344 30.8455 25.7344 30.7262C25.7344 30.6068 25.7897 30.4942 25.8842 30.4213C27.1467 29.4465 27.1467 29.4465 27.7797 27.4333C27.8301 27.2729 27.9788 27.1637 28.1471 27.1637C28.3152 27.1637 28.464 27.2729 28.5145 27.4333C29.1475 29.4465 29.1475 29.4465 30.4102 30.4213C30.5047 30.4942 30.56 30.6068 30.56 30.7261C30.56 30.8455 30.5047 30.9581 30.4102 31.031C29.1474 32.006 29.1474 32.006 28.5145 34.019C28.464 34.1794 28.3152 34.2886 28.1471 34.2886ZM26.7463 30.7262C27.5523 31.3641 27.796 31.6601 28.1471 32.6582C28.4982 31.6602 28.7419 31.3642 29.548 30.7262C28.7418 30.0881 28.4983 29.7924 28.1471 28.7941C27.796 29.7922 27.5523 30.0882 26.7463 30.7262Z" fill="#4F2584"></path><path d="M23.8095 41.4869C23.2721 39.7775 23.2704 39.7752 22.1797 38.9329C23.2704 38.0907 23.2721 38.0884 23.8095 36.3792C24.3469 38.0884 24.3486 38.0907 25.4393 38.9329C24.3486 39.7752 24.3471 39.7775 23.8095 41.4869Z" fill="#FFDA8F"></path><path d="M23.8099 41.872C23.6417 41.872 23.493 41.7628 23.4425 41.6024C23.1844 40.7813 23.0548 40.3691 22.8778 40.0919C22.7097 39.8284 22.4699 39.6432 21.9447 39.2376C21.8502 39.1646 21.7949 39.0521 21.7949 38.9327C21.7949 38.8134 21.8502 38.7008 21.9447 38.6279C22.47 38.2223 22.7097 38.0372 22.8778 37.7738C23.0548 37.4966 23.1844 37.0845 23.4425 36.2635C23.493 36.1031 23.6417 35.9939 23.8099 35.9939C23.9781 35.9939 24.1269 36.1031 24.1773 36.2635C24.4354 37.0845 24.565 37.4966 24.7419 37.7738C24.91 38.0372 25.1498 38.2223 25.675 38.6279C25.7695 38.7008 25.8248 38.8134 25.8248 38.9327C25.8248 39.052 25.7695 39.1646 25.6751 39.2376C25.1499 39.6432 24.9102 39.8283 24.742 40.0918C24.5651 40.369 24.4355 40.7812 24.1773 41.6024C24.1269 41.7628 23.9781 41.872 23.8099 41.872ZM22.8058 38.9328C23.1336 39.1955 23.3493 39.3988 23.5271 39.6774C23.6333 39.8438 23.7202 40.0273 23.8099 40.2624C23.8997 40.0272 23.9865 39.8438 24.0927 39.6775C24.2705 39.3987 24.4862 39.1954 24.8139 38.9328C24.4862 38.6702 24.2705 38.4669 24.0927 38.1882C23.9865 38.0219 23.8996 37.8385 23.8099 37.6035C23.7202 37.8385 23.6333 38.0219 23.5271 38.1883C23.3493 38.4669 23.1336 38.6702 22.8058 38.9328Z" fill="#4F2584"></path><path d="M43.7929 53.3945C43.3427 51.9629 43.3414 51.961 42.4277 51.2555C43.3414 50.5502 43.3427 50.5482 43.7929 49.1166C44.243 50.5482 44.2442 50.5502 45.1579 51.2555C44.2442 51.961 44.243 51.9629 43.7929 53.3945Z" fill="#FFDA8F"></path><path d="M43.7933 53.7797C43.6251 53.7797 43.4763 53.6705 43.4258 53.5101C43.2112 52.8276 43.1035 52.485 42.9598 52.2599C42.8248 52.0484 42.6268 51.8954 42.1927 51.5603C42.0983 51.4874 42.043 51.3748 42.043 51.2554C42.043 51.1361 42.0983 51.0235 42.1928 50.9506C42.6268 50.6156 42.8249 50.4627 42.9598 50.2512C43.1035 50.0261 43.2112 49.6835 43.4259 49.001C43.4763 48.8406 43.6251 48.7314 43.7933 48.7314C43.9615 48.7314 44.1102 48.8406 44.1607 49.0011C44.3753 49.6836 44.483 50.0261 44.6266 50.2512C44.7616 50.4627 44.9596 50.6156 45.3936 50.9506C45.4881 51.0235 45.5434 51.1361 45.5434 51.2554C45.5434 51.3748 45.4881 51.4874 45.3937 51.5603C44.9597 51.8954 44.7616 52.0484 44.6266 52.2599C44.4829 52.485 44.3752 52.8276 44.1606 53.5101C44.1102 53.6705 43.9615 53.7797 43.7933 53.7797ZM43.0518 51.2555C43.2981 51.4567 43.4666 51.6222 43.6091 51.8455C43.6773 51.9524 43.736 52.0668 43.7932 52.2013C43.8504 52.0668 43.9091 51.9524 43.9773 51.8455C44.1198 51.6222 44.2884 51.4567 44.5346 51.2555C44.2883 51.0544 44.1198 50.8889 43.9773 50.6656C43.9091 50.5587 43.8504 50.4443 43.7932 50.3099C43.736 50.4443 43.6773 50.5588 43.6091 50.6656C43.4666 50.8889 43.2981 51.0544 43.0518 51.2555Z" fill="#4F2584"></path><path d="M45.2459 45.4807C44.6876 43.7052 44.6859 43.7026 43.5527 42.8277C44.6859 41.9528 44.6876 41.9505 45.2459 40.1748C45.8039 41.9505 45.8056 41.9528 46.939 42.8277C45.8056 43.7026 45.8041 43.7051 45.2459 45.4807Z" fill="#FFDA8F"></path><path d="M45.2463 45.8658C45.0781 45.8658 44.9293 45.7567 44.8789 45.5962C44.3564 43.9345 44.3564 43.9345 43.3177 43.1326C43.2233 43.0597 43.168 42.9471 43.168 42.8278C43.168 42.7084 43.2233 42.5958 43.3177 42.5229C43.8649 42.1005 44.1146 41.9077 44.2906 41.6319C44.4755 41.3422 44.6103 40.9135 44.8789 40.0593C44.9293 39.8988 45.0781 39.7897 45.2463 39.7897H45.2463C45.4145 39.7897 45.5633 39.8989 45.6137 40.0594C45.8821 40.9135 46.0168 41.3422 46.2017 41.6319C46.3777 41.9077 46.6275 42.1005 47.1747 42.5229C47.2691 42.5958 47.3245 42.7084 47.3245 42.8278C47.3245 42.9471 47.2691 43.0597 47.1747 43.1326C46.6276 43.5549 46.3779 43.7477 46.2017 44.0237C46.017 44.3131 45.8822 44.7419 45.6137 45.5962C45.5632 45.7566 45.4145 45.8658 45.2463 45.8658ZM44.1793 42.8278C44.5267 43.1053 44.7537 43.3175 44.9399 43.6093C45.0551 43.7897 45.1483 43.9898 45.2462 44.2509C45.3441 43.9898 45.4373 43.7896 45.5524 43.6093C45.7387 43.3174 45.9656 43.1052 46.3131 42.8278C45.9655 42.5503 45.7386 42.338 45.5524 42.0463C45.4373 41.8659 45.344 41.6659 45.2462 41.4048C45.1483 41.6659 45.0551 41.8659 44.9399 42.0463C44.7537 42.338 44.5268 42.5502 44.1793 42.8278Z" fill="#4F2584"></path><path d="M41.2523 49.5479C40.5172 47.2104 40.5151 47.2071 39.0234 46.0556C40.5151 44.9039 40.5172 44.9006 41.2523 42.5632C41.987 44.9006 41.9892 44.9039 43.4811 46.0556C41.9892 47.2071 41.987 47.2104 41.2523 49.5479Z" fill="#FFDA8F"></path><path d="M41.2527 49.9331C41.0845 49.9331 40.9357 49.8239 40.8853 49.6635C40.1857 47.4391 40.1857 47.4391 38.7885 46.3605C38.694 46.2875 38.6387 46.1749 38.6387 46.0556C38.6387 45.9363 38.694 45.8237 38.7884 45.7508C40.1857 44.6719 40.1857 44.6719 40.8853 42.4477C40.9357 42.2873 41.0845 42.1781 41.2527 42.1781H41.2527C41.4209 42.1781 41.5696 42.2873 41.6201 42.4477C42.3192 44.6718 42.3192 44.6718 43.7168 45.7507C43.8113 45.8237 43.8666 45.9363 43.8666 46.0556C43.8666 46.175 43.8112 46.2876 43.7168 46.3605C42.3192 47.4392 42.3192 47.4392 41.6201 49.6634C41.5696 49.8239 41.4209 49.9331 41.2527 49.9331ZM39.6519 46.0556C40.1681 46.4614 40.4905 46.7486 40.7466 47.1498C40.9361 47.4467 41.0808 47.7899 41.2526 48.2916C41.4243 47.7899 41.569 47.4468 41.7585 47.1498C42.0145 46.7486 42.337 46.4614 42.8533 46.0556C42.337 45.6497 42.0145 45.3624 41.7585 44.9612C41.569 44.6643 41.4243 44.3211 41.2526 43.8195C41.0808 44.3211 40.9361 44.6643 40.7466 44.9612C40.4905 45.3625 40.1681 45.6497 39.6519 46.0556Z" fill="#4F2584"></path><path d="M26.2026 65.8737C29.2712 65.8737 31.7589 58.8606 31.7589 54.1273C31.7589 50.8644 30.7734 47.8623 30.7734 47.8623H21.6319C21.6319 47.8623 20.6465 50.8644 20.6465 54.1273C20.6465 58.8606 23.1342 65.8737 26.2026 65.8737Z" fill="#C98AED"></path><path d="M26.203 66.2589C25.3603 66.2589 24.5368 65.8229 23.7553 64.963C23.0852 64.2257 22.4678 63.2043 21.9203 61.9273C20.8972 59.5414 20.2617 56.5526 20.2617 54.1273C20.2617 52.4083 20.5342 50.766 20.7629 49.6911C21.0107 48.5258 21.2561 47.7736 21.2664 47.7422C21.3183 47.5841 21.4659 47.4772 21.6323 47.4772H30.7738C30.9402 47.4772 31.0878 47.5841 31.1397 47.7422C31.1501 47.7736 31.3954 48.5258 31.6433 49.6911C31.8719 50.766 32.1444 52.4083 32.1444 54.1273C32.1444 56.5526 31.5089 59.5414 30.4858 61.9273C29.9383 63.2043 29.3208 64.2257 28.6508 64.963C27.8693 65.8229 27.0457 66.2589 26.203 66.2589ZM21.9177 48.2475C21.6856 49.043 21.032 51.5157 21.032 54.1273C21.032 56.455 21.6436 59.3275 22.6282 61.6237C23.6814 64.0799 24.9843 65.4886 26.203 65.4886C27.4217 65.4886 28.7247 64.0799 29.7779 61.6237C30.7625 59.3275 31.3741 56.455 31.3741 54.1273C31.3741 51.5157 30.7205 49.0431 30.4884 48.2475H21.9177Z" fill="#4F2584"></path><path d="M21.6328 47.8624C21.6328 53.3264 23.6793 58.743 26.2036 58.743C28.7279 58.743 30.7745 53.3264 30.7745 47.8624" fill="white"></path><path d="M26.202 59.1282C24.8386 59.1282 23.5641 57.8385 22.6132 55.4966C21.7444 53.3569 21.2461 50.5744 21.2461 47.8624C21.2461 47.6497 21.4185 47.4773 21.6312 47.4773C21.8439 47.4773 22.0164 47.6497 22.0164 47.8624C22.0164 50.4788 22.494 53.1557 23.3269 55.2068C24.14 57.2094 25.1879 58.3579 26.202 58.3579C27.2162 58.3579 28.2641 57.2094 29.0773 55.2068C29.9101 53.1557 30.3878 50.4788 30.3878 47.8624C30.3878 47.6497 30.5603 47.4773 30.773 47.4773C30.9857 47.4773 31.1581 47.6497 31.1581 47.8624C31.1581 50.5743 30.6598 53.3569 29.791 55.4966C28.84 57.8385 27.5655 59.1282 26.202 59.1282Z" fill="#4F2584"></path><path d="M30.7745 45.5039H21.6328V47.8625H30.7745V45.5039Z" fill="white"></path><path d="M30.7729 48.2476H21.6312C21.4185 48.2476 21.2461 48.0752 21.2461 47.8625V45.5039C21.2461 45.2912 21.4185 45.1188 21.6312 45.1188H30.7729C30.9856 45.1188 31.1581 45.2912 31.1581 45.5039V47.8625C31.1581 48.0752 30.9856 48.2476 30.7729 48.2476ZM22.0164 47.4774H30.3878V45.8891H22.0164V47.4774Z" fill="#4F2584"></path><path d="M26.9497 46.5643C26.737 46.5643 26.5646 46.3919 26.5646 46.1792V44.8286C26.5646 44.6159 26.737 44.4435 26.9497 44.4435C27.1624 44.4435 27.3349 44.6159 27.3349 44.8286V46.1792C27.3349 46.3919 27.1624 46.5643 26.9497 46.5643ZM25.5572 46.5643C25.3445 46.5643 25.172 46.3919 25.172 46.1792V44.8286C25.172 44.6159 25.3445 44.4435 25.5572 44.4435C25.7699 44.4435 25.9423 44.6159 25.9423 44.8286V46.1792C25.9423 46.3919 25.7699 46.5643 25.5572 46.5643ZM24.1644 46.5643C23.9517 46.5643 23.7793 46.3919 23.7793 46.1792V44.8286C23.7793 44.6159 23.9517 44.4435 24.1644 44.4435C24.3771 44.4435 24.5496 44.6159 24.5496 44.8286V46.1792C24.5496 46.3919 24.3771 46.5643 24.1644 46.5643ZM22.7719 46.5643C22.5592 46.5643 22.3867 46.3919 22.3867 46.1792V44.8286C22.3867 44.6159 22.5592 44.4435 22.7719 44.4435C22.9846 44.4435 23.157 44.6159 23.157 44.8286V46.1792C23.157 46.3919 22.9846 46.5643 22.7719 46.5643ZM28.3425 46.5643C28.1298 46.5643 27.9573 46.3919 27.9573 46.1792V44.8286C27.9573 44.6159 28.1298 44.4435 28.3425 44.4435C28.5552 44.4435 28.7276 44.6159 28.7276 44.8286V46.1792C28.7276 46.3919 28.5552 46.5643 28.3425 46.5643ZM29.7351 46.5643C29.5224 46.5643 29.3499 46.3919 29.3499 46.1792V44.8286C29.3499 44.6159 29.5224 44.4435 29.7351 44.4435C29.9478 44.4435 30.1202 44.6159 30.1202 44.8286V46.1792C30.1202 46.3919 29.9478 46.5643 29.7351 46.5643Z" fill="#4F2584"></path><path d="M79.8519 80.1846V67.4529H77.0286C76.6252 67.4529 76.3803 67.897 76.5949 68.2386C76.792 68.5524 76.9679 68.8677 77.1209 69.1791C77.5797 70.1134 77.8321 71.0126 77.8321 71.7316C77.8321 74.5816 75.5218 76.8919 72.6719 76.8919C69.822 76.8919 67.5117 74.5816 67.5117 71.7316C67.5117 70.7685 67.8836 69.4949 68.7014 68.2557C68.9286 67.9113 68.6904 67.4529 68.2778 67.4529H63.2924H62.826C62.4226 67.4529 62.1777 67.897 62.3923 68.2386C63.1808 69.4939 63.6295 70.7729 63.6295 71.7316C63.6295 74.5816 61.3192 76.8919 58.4693 76.8919C55.6194 76.8919 53.3091 74.5816 53.3091 71.7316C53.3091 70.7685 53.681 69.4949 54.4988 68.2557C54.726 67.9113 54.4878 67.4529 54.0752 67.4529H49.0898V80.1846H79.8519Z" fill="white"></path><path d="M76.595 68.2386C76.7921 68.5524 76.968 68.8677 77.1209 69.1791C77.1268 69.1911 77.1317 69.2028 77.1375 69.2147H77.1383C77.4678 68.9934 77.9182 69.0283 78.2094 69.3196L78.279 69.3892C78.6099 69.7201 79.1466 69.7201 79.4775 69.3892L79.484 69.3827C79.5899 69.2767 79.7173 69.2057 79.852 69.1676V67.4529H77.0287C76.6253 67.4529 76.3804 67.897 76.595 68.2386ZM63.7532 69.3892L63.8228 69.3196C64.1537 68.9886 64.6903 68.9886 65.0213 69.3196L65.0909 69.3892C65.4218 69.7201 65.9584 69.7201 66.2894 69.3892L66.2958 69.3827C66.6268 69.0517 67.1634 69.0517 67.4944 69.3827C67.6297 69.5181 67.7995 69.5981 67.9756 69.6227H67.976C68.16 69.1738 68.4 68.7125 68.7014 68.2557C68.9286 67.9113 68.6905 67.4529 68.2779 67.4529H63.2925H62.826C62.4226 67.4529 62.1778 67.897 62.3923 68.2386C62.6868 68.7074 62.9337 69.1795 63.1278 69.637H63.1281C63.3535 69.6438 63.5812 69.5612 63.7532 69.3892ZM54.0752 67.4529H49.0898V69.5362C49.1638 69.4974 49.2348 69.4513 49.2969 69.3892L49.3665 69.3196C49.6975 68.9886 50.2341 68.9886 50.5651 69.3196L50.6346 69.3892C50.9656 69.7201 51.5022 69.7201 51.8332 69.3892L51.8396 69.3827C52.1705 69.0517 52.7072 69.0517 53.0381 69.3827C53.1735 69.5181 53.3433 69.5981 53.5194 69.6227L53.7733 69.6231C53.9573 69.1741 54.1973 68.7126 54.4988 68.2557C54.7261 67.9113 54.4878 67.4529 54.0752 67.4529Z" fill="#C98AED"></path><path d="M72.7443 59.5259C72.7443 59.5259 66.9546 49.9982 56.3691 49.8832C56.3691 49.8832 65.7327 51.5628 69.23 61.1622C68.6986 62.7666 68.7754 64.1915 69.1424 65.0419C69.9286 66.864 72.043 67.7037 73.865 66.9175C75.6871 66.1313 76.5267 64.0169 75.7405 62.1948C75.3625 61.3187 74.2177 60.2771 72.7443 59.5259Z" fill="#FFDA8F"></path><path d="M72.4426 67.5988C71.9459 67.5988 71.4489 67.5046 70.9734 67.3157C69.9858 66.9235 69.2101 66.1702 68.7891 65.1945C68.5753 64.6992 68.4631 64.0731 68.4645 63.3841C68.4659 62.6676 68.5865 61.9236 68.823 61.1705C67.0491 56.409 63.7696 53.7041 61.3201 52.2707C59.9152 51.4485 58.6263 50.9464 57.7925 50.67C56.8869 50.3698 56.3069 50.2633 56.3011 50.2622C56.1041 50.2266 55.9672 50.046 55.9861 49.8467C56.0051 49.6474 56.1741 49.4957 56.3736 49.4981C58.8412 49.5249 61.2561 50.0594 63.5511 51.0869C65.3827 51.9068 67.1414 53.0405 68.7785 54.4564C70.2324 55.7139 71.3201 56.9668 71.9766 57.7964C72.5371 58.5049 72.8838 59.0274 73.0147 59.232C74.5047 60.0109 75.6798 61.0815 76.0944 62.0423C76.5154 63.0179 76.5313 64.0992 76.139 65.0867C75.7468 66.0743 74.9935 66.8501 74.0179 67.2711C73.5119 67.4894 72.9775 67.5988 72.4426 67.5988ZM59.9489 50.693C60.4891 50.9395 61.0752 51.2362 61.6824 51.5902C63.3293 52.5505 64.7922 53.7284 66.0304 55.0911C67.5789 56.7953 68.7773 58.7936 69.5922 61.0303C69.6219 61.1118 69.6232 61.2009 69.5959 61.2833C69.0658 62.8837 69.1969 64.1955 69.4963 64.8893C70.1971 66.5135 72.0885 67.2646 73.7127 66.5639C75.3368 65.863 76.088 63.9716 75.3872 62.3474C75.0371 61.536 73.9311 60.5632 72.5697 59.869C72.506 59.8366 72.4527 59.7871 72.4156 59.7261C72.412 59.7202 72.0497 59.1284 71.3579 58.2559C70.7206 57.4523 69.6651 56.239 68.2555 55.0225C66.3671 53.3928 63.5495 51.5172 59.9489 50.693Z" fill="#4F2584"></path><path d="M72.6723 77.277C71.9238 77.277 71.1975 77.1303 70.5136 76.8411C69.8533 76.5618 69.2603 76.162 68.7511 75.6528C68.242 75.1437 67.8422 74.5507 67.5628 73.8903C67.2736 73.2064 67.1269 72.4801 67.1269 71.7317C67.1269 70.5948 67.5837 69.2506 68.3803 68.0436C68.4204 67.9828 68.4024 67.9293 68.3882 67.9028C68.3722 67.8733 68.3402 67.838 68.2781 67.838H62.8264C62.7611 67.838 62.7286 67.8791 62.715 67.9036C62.7014 67.9283 62.6838 67.978 62.7188 68.0338C63.5426 69.3452 64.015 70.6931 64.015 71.7317C64.015 72.4801 63.8684 73.2064 63.5791 73.8903C63.2998 74.5507 62.9 75.1437 62.3908 75.6528C61.8817 76.162 61.2887 76.5618 60.6283 76.8411C59.9444 77.1303 59.2181 77.277 58.4697 77.277C57.7212 77.277 56.9949 77.1303 56.311 76.8411C55.6507 76.5618 55.0577 76.162 54.5485 75.6528C54.0394 75.1437 53.6396 74.5507 53.3602 73.8903C53.071 73.2064 52.9243 72.4801 52.9243 71.7317C52.9243 70.5948 53.3811 69.2506 54.1777 68.0436C54.2178 67.9828 54.1998 67.9293 54.1856 67.9028C54.1696 67.8733 54.1377 67.838 54.0755 67.838H49.0902C48.8775 67.838 48.7051 67.6656 48.7051 67.4529C48.7051 67.2402 48.8775 67.0677 49.0902 67.0677H54.0755C54.4057 67.0677 54.7078 67.2479 54.8638 67.5378C55.0219 67.8315 55.0053 68.1878 54.8206 68.4678C54.1155 69.5362 53.6946 70.7563 53.6946 71.7317C53.6946 74.3647 55.8367 76.5068 58.4697 76.5068C61.1027 76.5068 63.2448 74.3647 63.2448 71.7317C63.2448 70.8473 62.8043 69.618 62.0666 68.4435C61.8926 68.1666 61.8828 67.817 62.0409 67.531C62.1989 67.2452 62.4998 67.0677 62.8264 67.0677H68.2781C68.6084 67.0677 68.9104 67.2479 69.0665 67.5378C69.2245 67.8315 69.2079 68.1878 69.0232 68.4678C68.3181 69.5362 67.8972 70.7563 67.8972 71.7317C67.8972 74.3647 70.0393 76.5068 72.6723 76.5068C75.3053 76.5068 77.4474 74.3647 77.4474 71.7317C77.4474 71.0772 77.2088 70.231 76.7756 69.3489C76.6272 69.0469 76.4568 68.7423 76.2692 68.4435C76.0953 68.1666 76.0854 67.817 76.2435 67.531C76.4015 67.2452 76.7024 67.0677 77.029 67.0677H79.8523C80.065 67.0677 80.2374 67.2402 80.2374 67.4529C80.2374 67.6656 80.065 67.838 79.8523 67.838H77.029C76.9637 67.838 76.9312 67.8791 76.9176 67.9036C76.904 67.9283 76.8864 67.978 76.9214 68.0338C77.1233 68.3552 77.3068 68.6834 77.4669 69.0094C77.958 70.0093 78.2177 70.9506 78.2177 71.7317C78.2177 72.4801 78.071 73.2064 77.7817 73.8903C77.5024 74.5507 77.1026 75.1437 76.5935 75.6528C76.0843 76.162 75.4913 76.5618 74.8309 76.8411C74.147 77.1303 73.4207 77.277 72.6723 77.277Z" fill="#4F2584"></path><path d="M60.3692 68.0843C60.3692 68.0843 58.828 57.0425 49.1543 52.743C49.1543 52.743 57.0862 57.9949 56.4942 68.1944C55.3706 69.457 54.8766 70.7958 54.8766 71.722C54.8766 73.7064 56.4853 75.3151 58.4697 75.3151C60.4541 75.3151 62.0628 73.7064 62.0628 71.722C62.0628 70.7676 61.4244 69.3578 60.3692 68.0843Z" fill="#FFDA8F"></path><path d="M58.47 75.7001C57.4074 75.7001 56.4084 75.2863 55.657 74.5349C54.9056 73.7835 54.4918 72.7845 54.4918 71.7219C54.4918 71.1824 54.6367 70.5631 54.911 69.9309C55.1962 69.2737 55.6017 68.6383 56.1171 68.0406C56.3749 62.9659 54.4353 59.1831 52.7543 56.8965C51.7901 55.585 50.8056 54.6134 50.1495 54.0292C49.4369 53.3947 48.9466 53.0672 48.9417 53.0639C48.775 52.9532 48.7208 52.7331 48.8171 52.5576C48.9135 52.3822 49.1281 52.3097 49.311 52.391C51.5661 53.3933 53.5716 54.8408 55.2717 56.6935C56.6286 58.1719 57.7942 59.9096 58.7364 61.8583C59.5731 63.5889 60.0754 65.1702 60.3495 66.192C60.5835 67.0645 60.6948 67.6817 60.734 67.9214C61.7934 69.2269 62.4482 70.6754 62.4482 71.7219C62.4482 72.7845 62.0344 73.7835 61.283 74.5349C60.5316 75.2863 59.5326 75.7001 58.47 75.7001ZM52.1203 54.9047C52.5186 55.345 52.9393 55.8496 53.3565 56.4152C54.4882 57.9494 55.3647 59.6105 55.9617 61.3523C56.7083 63.5305 57.0169 65.84 56.879 68.2166C56.8739 68.3032 56.8398 68.3856 56.7822 68.4503C55.6614 69.7098 55.262 70.9661 55.262 71.7219C55.262 73.4908 56.7011 74.9298 58.47 74.9298C60.2389 74.9298 61.6779 73.4908 61.6779 71.7219C61.6779 70.8381 61.0479 69.5067 60.0729 68.33C60.0273 68.275 59.9979 68.2084 59.988 68.1377C59.9871 68.1309 59.8889 67.444 59.5994 66.3687C59.3327 65.3784 58.8442 63.8463 58.0319 62.1708C56.9437 59.9263 55.0997 57.0879 52.1203 54.9047ZM63.154 70.0224C63.1417 70.0224 63.1294 70.0222 63.117 70.0219C62.9044 70.0154 62.7373 69.8378 62.7438 69.6252C62.7502 69.4126 62.9285 69.2456 63.1404 69.252C63.2692 69.2558 63.3904 69.2079 63.4815 69.1168L63.551 69.0472C63.7839 68.8144 64.0934 68.6862 64.4226 68.6862C64.7519 68.6862 65.0614 68.8144 65.2942 69.0472L65.3638 69.1168C65.5441 69.2971 65.8374 69.297 66.0177 69.1168L66.0241 69.1103C66.5047 68.6297 67.2867 68.6297 67.7673 69.1103C67.839 69.182 67.9297 69.2273 68.0296 69.2413C68.2402 69.2707 68.3871 69.4654 68.3576 69.676C68.3282 69.8867 68.1336 70.0335 67.9229 70.0041C67.6558 69.9667 67.4137 69.846 67.2227 69.655C67.0424 69.4747 66.749 69.4747 66.5688 69.655L66.5623 69.6614C66.0817 70.142 65.2997 70.142 64.8191 69.6614L64.7495 69.5918C64.6622 69.5045 64.5461 69.4564 64.4226 69.4564C64.2991 69.4564 64.183 69.5045 64.0957 69.5919L64.0262 69.6614C63.7955 69.8921 63.4794 70.0224 63.154 70.0224Z" fill="#4F2584"></path><path d="M51.2341 70.022C50.9184 70.022 50.6027 69.9018 50.3625 69.6615L50.2929 69.5919C50.2056 69.5046 50.0895 69.4565 49.966 69.4565C49.8425 69.4565 49.7264 69.5046 49.639 69.5919L49.5695 69.6615C49.4352 69.7958 49.2765 69.8949 49.0979 69.956C48.8966 70.0249 48.6777 69.9176 48.6088 69.7164C48.5399 69.5152 48.6471 69.2962 48.8484 69.2273C48.915 69.2045 48.9743 69.1673 49.0248 69.1169L49.0943 69.0473C49.3272 68.8145 49.6367 68.6863 49.966 68.6863C50.2952 68.6863 50.6047 68.8145 50.8376 69.0473L50.9071 69.1169C51.0874 69.2971 51.3807 69.2971 51.561 69.1169L51.5675 69.1104C51.8003 68.8776 52.1098 68.7494 52.439 68.7494C52.7683 68.7494 53.0778 68.8776 53.3106 69.1104C53.3823 69.1821 53.473 69.2274 53.5729 69.2414C53.7835 69.2708 53.9304 69.4655 53.9009 69.6761C53.8715 69.8868 53.6769 70.0336 53.4662 70.0042C53.1991 69.9668 52.957 69.8461 52.766 69.6551C52.5857 69.4748 52.2924 69.4748 52.1121 69.6551L52.1056 69.6615C51.8654 69.9018 51.5497 70.022 51.2341 70.022ZM78.8784 70.0225C78.5492 70.0225 78.2396 69.8943 78.0068 69.6615L77.9373 69.5919C77.7813 69.436 77.5357 69.4119 77.3532 69.5344C77.1766 69.653 76.9373 69.606 76.8187 69.4295C76.7001 69.2529 76.7471 69.0136 76.9237 68.895C77.411 68.5677 78.0663 68.6317 78.4819 69.0473L78.5515 69.1169C78.6388 69.2042 78.7549 69.2523 78.8784 69.2523C79.0019 69.2523 79.118 69.2042 79.2053 69.1169L79.2118 69.1104C79.4042 68.918 79.6482 68.797 79.9174 68.7606C80.1284 68.732 80.3222 68.8798 80.3507 69.0905C80.3792 69.3013 80.2315 69.4953 80.0207 69.5239C79.92 69.5375 79.8287 69.5829 79.7565 69.6551L79.75 69.6615C79.5172 69.8943 79.2077 70.0225 78.8784 70.0225ZM68.7337 80.2647C68.521 80.2647 68.3485 80.0923 68.3485 79.8795V78.6115C68.3485 78.3987 68.521 78.2263 68.7337 78.2263C68.9464 78.2263 69.1188 78.3987 69.1188 78.6115V79.8795C69.1188 80.0922 68.9464 80.2647 68.7337 80.2647ZM72.0307 80.2647C71.818 80.2647 71.6456 80.0923 71.6456 79.8795V78.6115C71.6456 78.3987 71.818 78.2263 72.0307 78.2263C72.2434 78.2263 72.4159 78.3987 72.4159 78.6115V79.8795C72.4159 80.0922 72.2434 80.2647 72.0307 80.2647ZM75.3278 80.2647C75.115 80.2647 74.9426 80.0923 74.9426 79.8795V78.6115C74.9426 78.3987 75.115 78.2263 75.3278 78.2263C75.5405 78.2263 75.7129 78.3987 75.7129 78.6115V79.8795C75.7129 80.0922 75.5405 80.2647 75.3278 80.2647ZM78.3712 80.2647C78.1584 80.2647 77.986 80.0923 77.986 79.8795V78.6115C77.986 78.3987 78.1584 78.2263 78.3712 78.2263C78.5839 78.2263 78.7563 78.3987 78.7563 78.6115V79.8795C78.7563 80.0922 78.5839 80.2647 78.3712 80.2647ZM67.212 76.714C66.9993 76.714 66.8268 76.5416 66.8268 76.3289V75.0608C66.8268 74.8481 66.9993 74.6757 67.212 74.6757C67.4247 74.6757 67.5971 74.8481 67.5971 75.0608V76.3289C67.5971 76.5416 67.4247 76.714 67.212 76.714ZM63.6613 76.714C63.4486 76.714 63.2762 76.5416 63.2762 76.3289V75.0608C63.2762 74.8481 63.4486 74.6757 63.6613 74.6757C63.874 74.6757 64.0465 74.8481 64.0465 75.0608V76.3289C64.0465 76.5416 63.874 76.714 63.6613 76.714ZM51.4877 76.714C51.2749 76.714 51.1025 76.5416 51.1025 76.3289V75.0608C51.1025 74.8481 51.2749 74.6757 51.4877 74.6757C51.7004 74.6757 51.8728 74.8481 51.8728 75.0608V76.3289C51.8728 76.5416 51.7004 76.714 51.4877 76.714ZM65.4367 80.2647C65.2239 80.2647 65.0515 80.0923 65.0515 79.8795V78.6115C65.0515 78.3987 65.2239 78.2263 65.4367 78.2263C65.6494 78.2263 65.8218 78.3987 65.8218 78.6115V79.8795C65.8218 80.0922 65.6494 80.2647 65.4367 80.2647ZM62.1396 80.2647C61.9269 80.2647 61.7545 80.0923 61.7545 79.8795V78.6115C61.7545 78.3987 61.9269 78.2263 62.1396 78.2263C62.3523 78.2263 62.5248 78.3987 62.5248 78.6115V79.8795C62.5248 80.0922 62.3523 80.2647 62.1396 80.2647ZM59.0962 80.2647C58.8835 80.2647 58.7111 80.0923 58.7111 79.8795V78.6115C58.7111 78.3987 58.8835 78.2263 59.0962 78.2263C59.3089 78.2263 59.4813 78.3987 59.4813 78.6115V79.8795C59.4813 80.0922 59.3089 80.2647 59.0962 80.2647ZM56.0528 80.2647C55.8401 80.2647 55.6676 80.0923 55.6676 79.8795V78.6115C55.6676 78.3987 55.8401 78.2263 56.0528 78.2263C56.2655 78.2263 56.4379 78.3987 56.4379 78.6115V79.8795C56.4379 80.0922 56.2655 80.2647 56.0528 80.2647ZM53.0094 80.2647C52.7966 80.2647 52.6242 80.0923 52.6242 79.8795V78.6115C52.6242 78.3987 52.7966 78.2263 53.0094 78.2263C53.2221 78.2263 53.3945 78.3987 53.3945 78.6115V79.8795C53.3945 80.0922 53.2221 80.2647 53.0094 80.2647ZM49.966 80.2647C49.7533 80.2647 49.5808 80.0923 49.5808 79.8795V78.6115C49.5808 78.3987 49.7533 78.2263 49.966 78.2263C50.1787 78.2263 50.3511 78.3987 50.3511 78.6115V79.8795C50.3511 80.0922 50.1787 80.2647 49.966 80.2647Z" fill="#4F2584"></path></g><defs><clipPath id="clip0_397_97"><rect width="75" height="75" fill="white" transform="translate(13 12)"></rect></clipPath></defs></svg>