<svg xmlns="http://www.w3.org/2000/svg" width="100" height="100" viewBox="0 0 100 100" fill="none"><rect width="100" height="100" fill="#EBF0F6"></rect><path d="M41.3477 58.6523C41.6482 58.6523 41.9457 58.7114 42.2234 58.8263C42.501 58.9413 42.7533 59.1098 42.9658 59.3223C43.1782 59.5348 43.3468 59.7871 43.4617 60.0647C43.5767 60.3424 43.6358 60.6399 43.6357 60.9404V66.6533C43.6348 67.7182 43.8827 68.7686 44.3595 69.7208C44.8364 70.673 45.529 71.5006 46.3823 72.1377C46.5528 72.2642 46.7549 72.3408 46.9664 72.3592C47.1778 72.3775 47.3902 72.3368 47.5798 72.2416C47.7695 72.1464 47.929 72.0004 48.0406 71.8199C48.1522 71.6394 48.2115 71.4315 48.2119 71.2192V65.6484C48.2119 62.3995 52.7881 62.4247 52.7881 65.6484V71.2192C52.7885 71.4315 52.8478 71.6394 52.9594 71.8199C53.071 72.0004 53.2305 72.1464 53.4202 72.2416C53.6098 72.3368 53.8222 72.3775 54.0336 72.3592C54.2451 72.3408 54.4472 72.2642 54.6177 72.1377C55.471 71.5006 56.1636 70.673 56.6405 69.7208C57.1173 68.7686 57.3652 67.7182 57.3643 66.6533V60.9404C57.3642 60.6399 57.4233 60.3424 57.5383 60.0647C57.6532 59.7871 57.8218 59.5348 58.0342 59.3223C58.2467 59.1098 58.499 58.9413 58.7766 58.8263C59.0543 58.7114 59.3518 58.6523 59.6523 58.6523H75.6689C77.4895 58.6523 79.2354 59.3755 80.5227 60.6628C81.81 61.9501 82.5332 63.6961 82.5332 65.5166V76.957C82.533 78.1707 82.0508 79.3345 81.1927 80.1927C80.3345 81.0508 79.1707 81.533 77.957 81.5332H23.043C21.8293 81.533 20.6655 81.0508 19.8073 80.1927C18.9491 79.3345 18.467 78.1707 18.4668 76.957V65.5166C18.4668 63.6961 19.19 61.9501 20.4773 60.6628C21.7646 59.3755 23.5105 58.6523 25.3311 58.6523H41.3477Z" fill="#F9B6A6"></path><path d="M49.9097 30.583C51.0786 27.8364 53.106 23.2881 54.2222 22.0239C55.4409 20.644 57.0859 19.9863 58.3896 20.2295L56.3228 17.4668H53.9951C53.4188 18.4247 50.0615 20.3944 47.8398 29.8462V31.5979L49.9097 30.583Z" fill="#8686A8"></path><path d="M57.3633 41.9941V50.061C57.364 51.1349 57.1118 52.1939 56.6273 53.1523C56.1428 54.1107 55.4394 54.9415 54.5742 55.5776C53.8359 56.1226 52.7871 55.5454 52.7871 54.627V48.917C52.7853 48.3107 52.5436 47.7298 52.1149 47.3011C51.6862 46.8724 51.1053 46.6307 50.499 46.6289C48.668 46.6289 48.2109 48.4204 48.2109 49.0562V54.627C48.2109 55.5454 47.1621 56.1226 46.4238 55.5776C45.5584 54.9417 44.8549 54.1109 44.3703 53.1525C43.8857 52.1941 43.6338 51.135 43.6348 50.061V41.9941H57.3633Z" fill="#FEDDB2"></path><path d="M59.5937 32.7158C59.6326 32.96 59.6522 33.2069 59.6523 33.4541V38.0303C59.6524 38.6313 59.5341 39.2264 59.3042 39.7816C59.0742 40.3369 58.7372 40.8414 58.3122 41.2663C57.8873 41.6913 57.3827 42.0284 56.8275 42.2583C56.2723 42.4882 55.6771 42.6066 55.0762 42.6065H45.9238C45.3229 42.6065 44.7278 42.4882 44.1725 42.2583C43.6173 42.0283 43.1128 41.6912 42.6878 41.2663C42.2629 40.8413 41.9258 40.3368 41.6959 39.7816C41.4659 39.2264 41.3476 38.6313 41.3477 38.0303V33.4541C41.3566 32.3533 41.7583 31.2918 42.4805 30.4609C43.2026 29.63 44.1978 29.0842 45.2866 28.9219C46.5503 28.7463 48.035 30.3548 49.9097 30.583C52.5934 30.912 54.229 28.7157 55.7134 28.9219C56.6512 29.0536 57.5249 29.4734 58.2139 30.1231L59.5937 32.7158Z" fill="#FAEDDF"></path><path d="M70.0181 17.4668L64.4561 27.3193C62.3018 31.1347 57.5973 34.4607 53.8081 36.624C52.875 37.1558 51.9624 35.8843 52.771 35.1738C54.3853 33.7528 59.9943 28.7401 61.0532 26.8638C63.4893 22.5469 60.1113 21.1348 58.3887 20.2295C57.1916 19.5935 56.5194 18.6755 56.3218 17.4668H70.0181Z" fill="#ADADC0"></path><path d="M39.0586 56.7615V66.6534C39.0593 67.7273 38.8072 68.7863 38.3226 69.7446C37.8381 70.703 37.1348 71.5339 36.2695 72.17C35.5313 72.7149 34.4824 72.1377 34.4824 71.2193V65.5093C34.4824 62.5277 29.9063 62.3854 29.9063 65.6485V71.2193C29.9063 72.1377 28.8574 72.7149 28.1191 72.17C27.2537 71.5341 26.5502 70.7033 26.0656 69.7448C25.5811 68.7864 25.3291 67.7273 25.3301 66.6534V56.7615H39.0586Z" fill="#FEDDB2"></path><path d="M41.3477 49.5V54.0762C41.3475 55.2898 40.8653 56.4537 40.0071 57.3119C39.149 58.17 37.9851 58.6522 36.7715 58.6524H27.6191C26.4055 58.6522 25.2416 58.17 24.3835 57.3119C23.5253 56.4537 23.0431 55.2898 23.043 54.0762V49.5C23.043 46.7114 25.5252 44.9538 27.188 44.9538C28.5268 44.9538 29.9782 46.6618 32.1502 46.6618C34.4283 46.6618 35.8621 44.9537 37.2022 44.9537C38.2018 44.9537 41.3477 46.1003 41.3477 49.5Z" fill="#FAEDDF"></path><path d="M75.668 56.7615V66.6534C75.6687 67.7273 75.4165 68.7863 74.932 69.7446C74.4475 70.703 73.7441 71.5339 72.8789 72.17C72.1406 72.7149 71.0918 72.1377 71.0918 71.2193V65.5093C71.0918 62.5277 66.5156 62.3854 66.5156 65.6485V71.2193C66.5156 72.1377 65.4668 72.7149 64.7285 72.17C63.8631 71.5341 63.1596 70.7033 62.675 69.7448C62.1904 68.7864 61.9385 67.7273 61.9395 66.6534V56.7615H75.668Z" fill="#FEDDB2"></path><path d="M77.957 49.5V54.0762C77.9569 55.2898 77.4747 56.4537 76.6165 57.3119C75.7584 58.17 74.5945 58.6522 73.3809 58.6524H64.2285C63.0149 58.6522 61.851 58.17 60.9929 57.3119C60.1347 56.4537 59.6525 55.2898 59.6523 54.0762V49.5C59.6523 46.7114 62.1346 44.9538 63.7974 44.9538C65.1362 44.9538 66.5875 46.6618 68.7596 46.6618C71.0376 46.6618 72.4715 44.9537 73.8115 44.9537C74.8112 44.9537 77.957 46.1003 77.957 49.5Z" fill="#FAEDDF"></path><path d="M43.0498 42.3187V50.0611C43.0526 51.2261 43.3277 52.3743 43.8533 53.414C44.3789 54.4537 45.1404 55.3561 46.0769 56.0491C47.1899 56.8707 48.7979 56.0387 48.7979 54.627V49.0562C48.7979 46.5324 52.2022 46.7283 52.2022 48.917V54.627C52.2022 56.0359 53.8063 56.8737 54.9233 56.049C55.8596 55.3559 56.6209 54.4535 57.1465 53.4138C57.6721 52.3741 57.9473 51.226 57.9503 50.0611V42.3187C58.6533 41.8455 59.2295 41.2071 59.6284 40.4595C60.0273 39.7118 60.2368 38.8777 60.2384 38.0303C60.2285 33.2437 60.2599 33.4667 60.213 32.9643C62.3691 31.1765 63.9691 29.3754 64.9674 27.6074L70.5294 17.7548C70.5796 17.6657 70.6056 17.5649 70.6048 17.4626C70.604 17.3603 70.5764 17.2599 70.5248 17.1716C70.4732 17.0832 70.3994 17.0099 70.3107 16.9589C70.222 16.9079 70.1214 16.881 70.0191 16.8809H53.9952C53.9122 16.8809 53.8302 16.8985 53.7545 16.9326C53.6788 16.9667 53.6112 17.0165 53.5562 17.0787L52.2377 18.5702C49.7744 21.3593 48.2906 25.6397 47.447 28.9845C46.6062 28.5456 45.9888 28.2331 45.2057 28.3416C43.9748 28.5187 42.8486 29.1326 42.0327 30.0712C41.2169 31.0098 40.7657 32.2105 40.7617 33.4541V38.0303C40.7633 38.8777 40.9728 39.7118 41.3717 40.4595C41.7706 41.2071 42.3468 41.8455 43.0498 42.3187ZM54.2274 55.1063C53.876 55.3653 53.3741 55.0639 53.3741 54.627V48.917C53.3741 45.1983 47.626 44.9571 47.626 49.0562V54.627C47.626 55.0672 47.1213 55.3636 46.7727 55.1062C45.9788 54.527 45.3335 53.7677 44.8901 52.8906C44.4466 52.0136 44.2175 51.0438 44.2217 50.0611V42.9029C44.7689 43.0941 45.3443 43.192 45.9239 43.1924H55.0763C55.6559 43.192 56.2313 43.0941 56.7784 42.9029V50.0611C56.7824 51.0438 56.5532 52.0135 56.1098 52.8905C55.6663 53.7675 55.0212 54.5269 54.2274 55.1063ZM63.9469 27.0313C61.8585 30.7303 57.2262 33.9988 53.519 36.1149C53.4524 36.1535 53.3738 36.1658 53.2986 36.1496C53.2234 36.1334 53.1569 36.0898 53.112 36.0273C53.0672 35.9648 53.0471 35.8879 53.0559 35.8114C53.0646 35.735 53.1014 35.6645 53.1592 35.6137C54.858 34.1178 60.4526 29.1222 61.5645 27.1518C62.4307 25.6169 62.692 24.2449 62.3414 23.0738C61.7498 21.0984 59.726 20.3241 58.4164 19.5771L58.3821 19.6372L58.3793 19.6368L58.4138 19.5756C57.8115 19.2341 57.3442 18.6967 57.0898 18.0527H69.0155L63.9469 27.0313ZM58.2082 20.7953C59.3751 21.4016 60.8284 22.106 61.2189 23.41C61.4745 24.2639 61.2475 25.3291 60.544 26.5759C60.3266 26.9609 59.7353 27.7486 58.1758 29.3304C57.4792 28.8032 56.6593 28.4628 55.7941 28.3415C54.2709 28.1298 52.744 29.8467 50.7919 30.0126C52.5289 25.9934 53.9275 23.243 54.6614 22.4119C55.674 21.2653 57.0885 20.6247 58.2082 20.7953ZM53.1159 19.3461L54.2593 18.0527H55.854C56.0287 18.6765 56.343 19.2523 56.7731 19.7367C55.6108 20.0608 54.5704 20.7218 53.7831 21.6362C52.7113 22.8499 50.9286 26.7201 49.555 29.9221C49.1949 29.8334 48.8472 29.7006 48.5196 29.5267C49.3184 26.2772 50.7433 22.0326 53.1159 19.3461ZM41.9336 33.4541C41.9468 32.4959 42.2989 31.5733 42.9275 30.85C43.556 30.1266 44.4204 29.6491 45.3674 29.5023C46.4379 29.353 48.1067 31.2077 50.4 31.2077C52.8175 31.2077 54.6512 29.3651 55.632 29.5022C56.2442 29.5873 56.828 29.8145 57.3367 30.1656C55.4231 32.0376 53.2691 33.9556 52.3852 34.7337C51.051 35.9061 52.5543 38.0132 54.0997 37.1329C55.8229 36.1532 57.4819 35.0645 59.0665 33.8735V38.0303C59.0657 39.0883 58.645 40.1028 57.8969 40.8509C57.1487 41.599 56.1343 42.0197 55.0763 42.0205H45.9239C44.8658 42.0197 43.8514 41.5991 43.1032 40.8509C42.3551 40.1028 41.9344 39.0884 41.9336 38.0303V33.4541Z" fill="#222123"></path><path d="M76.5787 58.124C77.1908 57.6417 77.6856 57.0268 78.0258 56.3257C78.3661 55.6247 78.5429 54.8555 78.543 54.0762V49.5C78.5392 48.2563 78.0881 47.0555 77.2722 46.1168C76.4562 45.1782 75.3299 44.5644 74.0988 44.3875C72.4158 44.1529 70.9518 46.0809 68.8341 46.0809C66.6649 46.0809 65.1945 44.1532 63.5106 44.3875L63.5103 44.3875C62.2794 44.5646 61.1532 45.1785 60.3373 46.1171C59.5215 47.0557 59.0704 48.2564 59.0664 49.5V54.0762C59.0663 54.8399 59.2359 55.594 59.563 56.2841C59.89 56.9742 60.3663 57.583 60.9575 58.0664H59.6524C58.8904 58.0673 58.1599 58.3704 57.6211 58.9092C57.0823 59.448 56.7792 60.1785 56.7783 60.9405V66.6534C56.7819 67.6278 56.5564 68.5895 56.12 69.4607C55.6836 70.332 55.0485 71.0884 54.2659 71.6691C54.1826 71.7304 54.0839 71.7674 53.9808 71.776C53.8777 71.7846 53.7743 71.7645 53.6819 71.718C53.5895 71.6714 53.5119 71.6001 53.4575 71.5121C53.4032 71.4241 53.3743 71.3227 53.374 71.2193V65.6485C53.374 61.6374 47.6259 61.6249 47.6259 65.6485V71.2193C47.6257 71.3228 47.5968 71.4242 47.5424 71.5122C47.4881 71.6003 47.4104 71.6716 47.3179 71.7182C47.2255 71.7647 47.122 71.7848 47.0189 71.7761C46.9157 71.7674 46.817 71.7303 46.7337 71.6689C45.9512 71.0882 45.3162 70.3318 44.8798 69.4606C44.4434 68.5893 44.218 67.6277 44.2216 66.6534V60.9405C44.2207 60.1785 43.9176 59.448 43.3788 58.9092C42.84 58.3704 42.1095 58.0673 41.3475 58.0664H40.0424C40.6336 57.583 41.1099 56.9742 41.4369 56.2841C41.764 55.594 41.9336 54.8399 41.9335 54.0762V49.5C41.9295 48.2564 41.4784 47.0557 40.6626 46.1171C39.8467 45.1785 38.7205 44.5646 37.4896 44.3875L37.4893 44.3875C35.7928 44.1514 34.3367 46.08 32.2009 46.08C30.0247 46.08 28.6218 44.1475 26.9011 44.3875C25.67 44.5644 24.5437 45.1782 23.7277 46.1168C22.9118 47.0555 22.4607 48.2563 22.4569 49.5V54.0762C22.457 54.8555 22.6338 55.6247 22.9741 56.3257C23.3143 57.0268 23.8091 57.6417 24.4212 58.124C22.6176 58.348 20.9578 59.2227 19.7535 60.5839C18.5492 61.9451 17.8833 63.6991 17.8809 65.5166V76.9571C17.8824 78.3256 18.4267 79.6377 19.3945 80.6055C20.3622 81.5732 21.6743 82.1176 23.0429 82.1192H77.957C79.3256 82.1176 80.6377 81.5732 81.6054 80.6055C82.5732 79.6377 83.1175 78.3256 83.119 76.9571V65.5166C83.1166 63.6991 82.4507 61.9451 81.2464 60.5839C80.0421 59.2227 78.3823 58.348 76.5787 58.124ZM65.9306 65.5093V71.2193C65.9306 71.6592 65.4261 71.9559 65.0774 71.6985C64.2836 71.1192 63.6385 70.3598 63.195 69.4828C62.7515 68.6058 62.5223 67.6361 62.5263 66.6534V58.9486C63.0732 59.1405 63.6488 59.2385 64.2284 59.2383H73.3808C73.9605 59.2385 74.536 59.1405 75.083 58.9486V66.6534C75.0872 67.6361 74.8581 68.6059 74.4146 69.4829C73.9712 70.36 73.326 71.1193 72.532 71.6985C72.1805 71.9575 71.6787 71.6561 71.6787 71.2193V65.6485C71.6787 61.6136 65.9306 61.7516 65.9306 65.5093ZM60.2383 54.0762V49.5C60.2412 48.5389 60.5897 47.6109 61.2201 46.8854C61.8504 46.1599 62.7207 45.6853 63.672 45.5482C64.6946 45.4064 66.4719 47.262 68.8829 47.262C71.1766 47.262 72.8728 45.3996 73.9372 45.5482C74.8843 45.6948 75.7488 46.1722 76.3774 46.8956C77.006 47.619 77.3581 48.5417 77.3711 49.5V54.0762C77.3699 55.1341 76.9491 56.1484 76.2011 56.8964C75.453 57.6445 74.4388 58.0653 73.3808 58.0664H64.2284C63.1705 58.0652 62.1563 57.6444 61.4083 56.8964C60.6603 56.1483 60.2395 55.1341 60.2383 54.0762ZM29.3212 65.6485V71.2193C29.3212 71.6583 28.8173 71.9565 28.4678 71.6983C27.6739 71.1192 27.0287 70.3599 26.5852 69.4828C26.1418 68.6058 25.9127 67.6361 25.9169 66.6534V58.9486C26.4639 59.1405 27.0394 59.2385 27.6191 59.2383H36.7715C37.3511 59.2385 37.9267 59.1405 38.4736 58.9486V66.6534C38.4776 67.6361 38.2484 68.6058 37.805 69.4828C37.3615 70.3598 36.7164 71.1191 35.9226 71.6985C35.5742 71.9554 35.0693 71.6599 35.0693 71.2193V65.5093C35.0693 61.7534 29.3212 61.6101 29.3212 65.6485ZM23.6288 54.0762V49.5C23.6418 48.5417 23.9939 47.619 24.6225 46.8956C25.2511 46.1722 26.1156 45.6948 27.0627 45.5482C28.1388 45.3984 29.7615 47.2518 32.205 47.2518C34.5878 47.2518 36.2736 45.402 37.3279 45.5482C38.2792 45.6853 39.1495 46.1599 39.7798 46.8854C40.4102 47.6109 40.7587 48.5389 40.7616 49.5V54.0762C40.7604 55.1341 40.3396 56.1483 39.5916 56.8964C38.8436 57.6444 37.8294 58.0652 36.7715 58.0664H27.6191C26.5612 58.0653 25.5469 57.6445 24.7989 56.8964C24.0508 56.1484 23.63 55.1341 23.6288 54.0762ZM81.9472 76.9571C81.946 78.015 81.5252 79.0292 80.7772 79.7773C80.0292 80.5253 79.0149 80.9461 77.957 80.9473H23.0429C21.985 80.9461 20.9707 80.5253 20.2227 79.7773C19.4747 79.0292 19.0539 78.015 19.0527 76.9571V65.5166C19.0547 63.9536 19.6389 62.4474 20.6914 61.2919C21.7438 60.1363 23.189 59.4143 24.745 59.2666V66.6534C24.7478 67.8184 25.0229 68.9666 25.5485 70.0063C26.0741 71.046 26.8355 71.9484 27.772 72.6413C28.8899 73.4662 30.4931 72.6273 30.4931 71.2193V65.6485C30.4931 63.171 33.8974 63.295 33.8974 65.5093V71.2193C33.8974 72.6279 35.5012 73.4658 36.6186 72.6413C37.5549 71.9482 38.3162 71.0458 38.8417 70.0061C39.3673 68.9664 39.6425 67.8183 39.6455 66.6534V59.2383H41.3475C41.7988 59.2388 42.2315 59.4183 42.5506 59.7374C42.8697 60.0565 43.0492 60.4892 43.0497 60.9405V66.6534C43.0453 67.8098 43.3128 68.9511 43.8306 69.9851C44.3483 71.0192 45.1019 71.9171 46.0305 72.6064C46.288 72.7981 46.5937 72.9144 46.9134 72.9425C47.2332 72.9706 47.5545 72.9093 47.8415 72.7655C48.1285 72.6216 48.3699 72.4009 48.5387 72.1279C48.7076 71.8548 48.7973 71.5403 48.7978 71.2193V65.6485C48.7978 63.1914 52.2021 63.1929 52.2021 65.6485V71.2193C52.2027 71.5402 52.2924 71.8547 52.4612 72.1277C52.63 72.4007 52.8714 72.6214 53.1583 72.7653C53.4452 72.9091 53.7665 72.9705 54.0862 72.9424C54.4059 72.9144 54.7116 72.7981 54.9692 72.6066C55.8978 71.9173 56.6514 71.0194 57.1693 69.9853C57.6871 68.9512 57.9546 67.8099 57.9502 66.6534V60.9405C57.9507 60.4892 58.1302 60.0565 58.4493 59.7374C58.7684 59.4183 59.2011 59.2388 59.6524 59.2383H61.3544V66.6534C61.3574 67.8183 61.6326 68.9664 62.1582 70.0061C62.6837 71.0458 63.4451 71.9482 64.3814 72.6413C65.4972 73.4647 67.1025 72.6301 67.1025 71.2193V65.5093C67.1025 63.3055 70.5068 63.1572 70.5068 65.6485V71.2193C70.5068 72.6289 72.1117 73.4654 73.2276 72.6415C74.1642 71.9485 74.9257 71.0461 75.4513 70.0064C75.9769 68.9667 76.2521 67.8184 76.2549 66.6534V59.2666C77.8109 59.4143 79.2561 60.1363 80.3085 61.2919C81.361 62.4474 81.9452 63.9536 81.9472 65.5166V76.9571Z" fill="#222123"></path></svg>