<svg xmlns="http://www.w3.org/2000/svg" width="100" height="100" viewBox="0 0 100 100" fill="none"><rect width="100" height="100" fill="#EBF0F6"></rect><path d="M24.7178 61.2085V56.7715C24.7138 54.96 24.529 53.1535 24.1662 51.3787C23.7809 49.4141 23.1564 47.5041 22.3067 45.6914H22.314C21.6258 44.1458 21.0729 42.5433 20.6617 40.9021C20.2813 39.3259 20.0391 37.7194 19.938 36.1011C19.9278 35.9341 19.9219 35.7686 19.9219 35.603C19.9165 33.8895 20.4693 32.2209 21.4967 30.8495C22.524 29.4781 23.97 28.4786 25.6159 28.0021L25.4869 27.9668C24.3148 27.648 23.085 27.6041 21.8933 27.8386C20.7015 28.073 19.58 28.5795 18.6161 29.3186C17.6522 30.0576 16.872 31.0093 16.3362 32.0993C15.8005 33.1894 15.5237 34.3884 15.5274 35.603C15.5274 35.7686 15.5332 35.9341 15.5435 36.1011C15.6446 37.7194 15.8867 39.3259 16.2671 40.9021C16.6784 42.5433 17.2312 44.1458 17.9195 45.6914H17.9121C18.7619 47.5041 19.3863 49.4141 19.7716 51.3787C20.1345 53.1535 20.3193 54.96 20.3233 56.7715V61.2085C20.3249 61.7192 20.4507 62.2219 20.6898 62.6732C20.9288 63.1245 21.274 63.5109 21.6956 63.7992C22.1172 64.0875 22.6025 64.269 23.1098 64.328C23.6171 64.3871 24.1311 64.3219 24.6077 64.1382C24.9797 63.9978 25.324 63.793 25.625 63.5332C25.6471 63.5143 25.6675 63.494 25.6893 63.4746C25.3823 63.1824 25.1379 62.8309 24.9709 62.4413C24.8039 62.0518 24.7178 61.6323 24.7178 61.2085Z" fill="#D4E1F4"></path><path d="M85.6218 50.9997C84.1905 50.8159 82.7578 50.6432 81.3238 50.4818L81.1272 52.2284C82.2887 52.3593 83.464 52.4993 84.6309 52.6458V70.4473H16.3691V52.6458C17.548 52.4977 18.7278 52.3572 19.9085 52.2245L19.7122 50.4777C18.2662 50.6403 16.8215 50.8143 15.3782 50.9997C15.1662 51.027 14.9715 51.1305 14.8303 51.291C14.6892 51.4514 14.6113 51.6578 14.6113 51.8715V71.3115C14.6108 71.5462 14.7028 71.7715 14.8673 71.9388C15.0319 72.106 15.2557 72.2017 15.4902 72.2051H85.5098C85.7443 72.2017 85.9681 72.106 86.1327 71.9388C86.2972 71.7715 86.3892 71.5462 86.3887 71.3115V51.8715C86.3887 51.6578 86.3108 51.4514 86.1697 51.291C86.0285 51.1305 85.8338 51.027 85.6218 50.9997Z" fill="#1AE5BE"></path><path d="M45.4832 49.6061H55.3782V51.3639H45.4832V49.6061ZM22.7038 68.836H42.0789C42.312 68.836 42.5355 68.7434 42.7003 68.5785C42.8652 68.4137 42.9578 68.1902 42.9578 67.9571C42.9578 67.724 42.8652 67.5004 42.7003 67.3356C42.5355 67.1707 42.312 67.0781 42.0789 67.0781H22.7038C22.4707 67.0781 22.2472 67.1707 22.0823 67.3356C21.9175 67.5004 21.8249 67.724 21.8249 67.9571C21.8249 68.1902 21.9175 68.4137 22.0823 68.5785C22.2472 68.7434 22.4707 68.836 22.7038 68.836ZM18.3477 67.9571C18.3477 68.1902 18.4403 68.4137 18.6051 68.5785C18.7699 68.7434 18.9935 68.836 19.2266 68.836H19.9473C20.0627 68.836 20.177 68.8132 20.2836 68.7691C20.3902 68.7249 20.4871 68.6602 20.5687 68.5785C20.6504 68.4969 20.7151 68.4 20.7593 68.2934C20.8034 68.1868 20.8262 68.0725 20.8262 67.9571C20.8262 67.8416 20.8034 67.7273 20.7593 67.6207C20.7151 67.5141 20.6504 67.4172 20.5687 67.3356C20.4871 67.254 20.3902 67.1892 20.2836 67.1451C20.177 67.1009 20.0627 67.0781 19.9473 67.0781H19.2266C18.9935 67.0781 18.7699 67.1707 18.6051 67.3356C18.4403 67.5004 18.3477 67.724 18.3477 67.9571Z" fill="#1AE5BE"></path><path d="M83.4342 29.053C82.347 28.073 81.0307 27.3824 79.6065 27.0449C78.1823 26.7073 76.696 26.7337 75.2847 27.1216L72.1407 27.9789C69.697 28.6454 67.1193 28.6447 64.676 27.977L61.538 27.1195C60.2937 26.7802 58.9899 26.7197 57.7196 26.9425C56.4493 27.1654 55.2439 27.6659 54.1894 28.4085C53.135 29.151 52.2575 30.1173 51.6196 31.2382C50.9818 32.3591 50.5993 33.607 50.4995 34.8928C50.3993 33.6078 50.0167 32.3606 49.379 31.2404C48.7414 30.1202 47.8643 29.1546 46.8105 28.4123C45.7567 27.6701 44.5521 27.1695 43.2825 26.9464C42.013 26.7233 40.7099 26.7831 39.4662 27.1216L36.3222 27.9789C33.8785 28.6454 31.3008 28.6447 28.8575 27.977L25.7195 27.1195C24.372 26.7526 22.9564 26.7129 21.5904 27.0037C20.2245 27.2945 18.9478 27.9074 17.8666 28.7913C16.7854 29.6753 15.931 30.8047 15.3746 32.0856C14.8181 33.3665 14.5756 34.7617 14.6674 36.1553C14.877 39.5265 15.6921 42.8325 17.0737 45.9148C17.0842 45.9482 17.1627 46.098 17.1774 46.1303C18.7023 49.4691 19.4763 53.1018 19.4448 56.7722V61.2088C19.4443 61.7368 19.5479 62.2598 19.7497 62.7477C19.9515 63.2357 20.2476 63.679 20.621 64.0524C20.9944 64.4258 21.4378 64.7218 21.9258 64.9236C22.4138 65.1254 22.9367 65.2289 23.4648 65.2283C24.4733 65.2298 25.4479 64.8638 26.2061 64.1988C27.1183 63.4122 27.8502 62.4381 28.3518 61.343C28.8534 60.2479 29.113 59.0575 29.1128 57.853V55.4395C29.1056 54.9905 29.1875 54.5446 29.3538 54.1275C29.5201 53.7104 29.7675 53.3305 30.0817 53.0097C30.3959 52.6889 30.7706 52.4336 31.1841 52.2586C31.5976 52.0836 32.0417 51.9924 32.4907 51.9902H32.4961C32.9354 51.9848 33.3712 52.0677 33.7778 52.2339C34.1844 52.4001 34.5535 52.6462 34.8632 52.9577C35.184 53.2806 35.4367 53.6645 35.6064 54.0868C35.7761 54.5091 35.8593 54.9612 35.8511 55.4162V57.853C35.8511 60.25 36.9673 62.563 38.8625 64.1988C39.6351 64.8637 40.6208 65.229 41.6401 65.2283C42.7052 65.2234 43.7253 64.7985 44.479 64.0459C45.2327 63.2933 45.6591 62.2738 45.6655 61.2088V56.7722C45.6655 53.2175 46.4397 49.6983 48.1011 46.0138L48.2292 45.686C48.7715 44.4551 49.216 43.1835 49.5585 41.8828H51.4429C51.7897 43.1757 52.2335 44.4406 52.7703 45.6669L52.9178 46.0138C54.4436 49.3935 55.2178 53.0641 55.187 56.7722V61.2088C55.1946 62.2792 55.6259 63.3031 56.3865 64.0563C57.1471 64.8096 58.175 65.231 59.2455 65.2283C60.2482 65.2296 61.2167 64.8633 61.9676 64.1988C62.8773 63.4112 63.6062 62.4365 64.1045 61.3413C64.6028 60.2461 64.8588 59.0562 64.855 57.853V55.4395C64.8578 54.5245 65.2229 53.648 65.8704 53.0015C66.518 52.3551 67.3952 51.9915 68.3101 51.9902H68.3155C68.76 51.9846 69.2013 52.0672 69.6136 52.2333C70.026 52.3994 70.4013 52.6456 70.7179 52.9577C71.0434 53.2788 71.3014 53.6617 71.4769 54.0838C71.6524 54.506 71.7418 54.959 71.7397 55.4162V57.853C71.7505 59.0625 72.022 60.2555 72.5357 61.3506C73.0493 62.4458 73.7931 63.4172 74.7163 64.1988C75.4677 64.8624 76.4356 65.2285 77.438 65.2283C78.4973 65.2212 79.5104 64.7939 80.2548 64.0402C80.9991 63.2865 81.4138 62.2681 81.4077 61.2088V56.7722C81.4077 53.217 82.2206 49.698 83.882 46.0138C83.8919 45.9917 83.9034 45.9699 83.9113 45.9467C85.3015 42.8558 86.1211 39.5388 86.3303 36.1561C86.4188 34.8299 86.204 33.501 85.7021 32.2702C85.2003 31.0395 84.4247 29.9392 83.4342 29.053ZM46.5071 45.1919L46.3364 45.6281C44.6363 49.466 43.9077 53.031 43.9077 56.7722V61.2088C43.9099 61.5057 43.8532 61.8001 43.7409 62.0749C43.6285 62.3497 43.4628 62.5996 43.2533 62.8099C43.0437 63.0203 42.7945 63.1869 42.5201 63.3003C42.2457 63.4137 41.9515 63.4716 41.6546 63.4705C41.058 63.4691 40.4813 63.2556 40.0276 62.8681C38.5197 61.5666 37.6089 59.7392 37.6089 57.853V55.4162C37.6178 54.73 37.4893 54.049 37.2311 53.4132C36.9728 52.7774 36.59 52.1996 36.1052 51.7139C35.6328 51.239 35.0702 50.8633 34.4505 50.6088C33.8308 50.3544 33.1665 50.2264 32.4966 50.2324H32.4884C31.8088 50.2351 31.1364 50.3721 30.51 50.6356C29.8836 50.8992 29.3155 51.284 28.8384 51.768C28.3613 52.2519 27.9846 52.8255 27.73 53.4556C27.4754 54.0857 27.348 54.7599 27.355 55.4395V57.853C27.3527 58.8058 27.1452 59.7469 26.7465 60.6124C26.3479 61.4778 25.7674 62.2472 25.0448 62.8681C24.6124 63.2552 24.0526 63.4696 23.4723 63.4705C23.1746 63.4715 22.8796 63.4138 22.6043 63.3006C22.329 63.1874 22.0788 63.0209 21.8679 62.8108C21.6571 62.6007 21.4898 62.351 21.3756 62.0761C21.2614 61.8012 21.2027 61.5064 21.2026 61.2088V56.7722C21.231 52.8735 20.4165 49.0147 18.8149 45.4601C18.8035 45.423 18.7481 45.3217 18.7317 45.2859C18.2233 44.1838 17.7952 43.0465 17.4506 41.8828H28.2339V43.7796C28.2346 44.0145 28.3282 44.2395 28.4943 44.4056C28.6603 44.5717 28.8854 44.6653 29.1203 44.666H36.1928C36.413 44.666 36.6241 44.5785 36.7798 44.4229C36.9355 44.2672 37.0229 44.056 37.0229 43.8359V41.8828H47.731C47.4008 43.013 46.9918 44.1188 46.5071 45.1919ZM29.9917 42.9082V38.6601H31.7495V42.9082H29.9917ZM33.5073 42.9082V38.6601H35.2651V42.9082H33.5073ZM48.7581 36.0463C48.6713 37.4186 48.4789 38.7822 48.1826 40.125H37.0229V37.7865C37.0284 37.6735 37.0111 37.5605 36.972 37.4543C36.933 37.3481 36.8729 37.2508 36.7954 37.1683C36.718 37.0858 36.6247 37.0197 36.5212 36.974C36.4176 36.9284 36.306 36.904 36.1928 36.9023H29.064C28.9509 36.904 28.8392 36.9284 28.7357 36.974C28.6321 37.0197 28.5389 37.0858 28.4614 37.1683C28.3839 37.2508 28.3239 37.3481 28.2848 37.4543C28.2457 37.5605 28.2284 37.6735 28.2339 37.7865V40.125H16.9985C16.7014 38.782 16.5084 37.4182 16.4212 36.0455C16.347 34.9311 16.54 33.8151 16.9844 32.7904C17.4288 31.7657 18.1115 30.8621 18.9758 30.1547C19.8401 29.4473 20.8609 28.9566 21.9532 28.7236C23.0455 28.4906 24.1777 28.522 25.2554 28.8151L28.3936 29.6727C31.14 30.4232 34.0375 30.4239 36.7843 29.6746L39.9279 28.8176C41.0052 28.5252 42.1367 28.4944 43.2284 28.7277C44.32 28.9609 45.3401 29.4515 46.2038 30.1586C47.0676 30.8658 47.7499 31.7689 48.1941 32.793C48.6383 33.8171 48.8315 34.9324 48.7577 36.0463H48.7581ZM49.9791 40.125C50.2374 38.8734 50.4113 37.6059 50.4995 36.331C50.5882 37.606 50.7626 38.8735 51.0214 40.125H49.9791ZM82.2808 45.2859C82.269 45.3114 82.256 45.3373 82.2469 45.3636C80.503 49.2536 79.6499 52.9863 79.6499 56.7722V61.2088C79.6564 61.5036 79.604 61.7967 79.4956 62.071C79.3872 62.3453 79.2251 62.5951 79.0188 62.8058C78.8125 63.0165 78.5662 63.1839 78.2943 63.298C78.0224 63.4122 77.7304 63.4708 77.4355 63.4705C76.8552 63.4686 76.2956 63.2543 75.8624 62.8681C75.1308 62.2514 74.5408 61.4841 74.1327 60.6186C73.7246 59.7531 73.508 58.8098 73.4976 57.853V55.4162C73.5001 54.7278 73.3654 54.0458 73.1013 53.4101C72.8372 52.7744 72.449 52.1977 71.9595 51.7138C71.4802 51.2382 70.9113 50.8625 70.2859 50.6082C69.6604 50.3539 68.9907 50.2262 68.3155 50.2324H68.3073C66.9268 50.2348 65.6034 50.7841 64.627 51.76C63.6505 52.7359 63.1004 54.0589 63.0972 55.4395V57.853C63.102 58.8032 62.9016 59.7433 62.5095 60.6088C62.1174 61.4744 61.543 62.2451 60.8255 62.8681C60.3858 63.2557 59.8199 63.4698 59.2338 63.4705C58.6306 63.4733 58.0509 63.2368 57.6218 62.8128C57.1927 62.3888 56.9492 61.812 56.9448 61.2088V56.7722C56.9448 52.7954 56.2473 49.2237 54.6982 45.6816L54.5315 45.2861C54.0296 44.1835 53.6079 43.0461 53.2698 41.8828H64.1226V43.7796C64.1233 44.0145 64.2169 44.2395 64.3829 44.4056C64.549 44.5717 64.7741 44.6653 65.0089 44.666H72.172C72.4068 44.6652 72.6318 44.5716 72.7978 44.4055C72.9638 44.2394 73.0574 44.0144 73.0581 43.7796V41.8828H83.5509C83.2101 43.0463 82.7856 44.1836 82.2808 45.2859ZM65.8804 42.9082V38.6601H67.6382V42.9082H65.8804ZM69.396 42.9082V38.6601H71.3003V42.9082H69.396ZM84.5775 36.0463C84.4907 37.4186 84.2983 38.7822 84.0018 40.125H73.0581V37.7865C73.0472 37.548 72.9446 37.3229 72.7718 37.1581C72.5989 36.9934 72.3692 36.9018 72.1304 36.9023H65.0015C64.7678 36.9036 64.5442 36.9973 64.3795 37.163C64.2148 37.3287 64.1224 37.5529 64.1226 37.7865V40.125H52.8184C52.5213 38.782 52.3283 37.4182 52.2411 36.0455C52.1668 34.9311 52.3599 33.8151 52.8042 32.7905C53.2486 31.7658 53.9313 30.8621 54.7956 30.1547C55.6599 29.4474 56.6807 28.9567 57.7729 28.7237C58.8652 28.4907 59.9974 28.522 61.0751 28.8151L64.2132 29.6727C66.9597 30.4232 69.8572 30.4239 72.604 29.6746L75.7476 28.8176C76.8249 28.5252 77.9564 28.4944 79.048 28.7277C80.1397 28.9609 81.1598 29.4515 82.0236 30.1586C82.8873 30.8658 83.5697 31.7689 84.0139 32.793C84.4581 33.8171 84.6513 34.9324 84.5775 36.0463Z" fill="#0635C9"></path></svg>